<svg version="1.1" xmlns="http://www.w3.org/2000/svg" xmlns:xlink="http://www.w3.org/1999/xlink" width="143.23891" height="53.51738" viewBox="0,0,143.23891,53.51738"><g transform="translate(-153.30132,-143.76251)"><g data-paper-data="{&quot;isPaintingLayer&quot;:true}" fill-rule="nonzero" stroke-linecap="butt" stroke-linejoin="miter" stroke-miterlimit="10" stroke-dasharray="" stroke-dashoffset="0" style="mix-blend-mode: normal"><path d="M154.30133,190.41717c0,-7.00973 0,-16.04356 0,-19.68032c0,-3.38983 2.39976,-7.01676 6.68522,-7.01676c9.95557,0 104.25599,0 126.18223,0c4.80342,0 8.37145,3.29154 8.37145,8.09495c0,3.49964 0,9.63186 0,16.76221c0,3.78671 -2.96272,7.70265 -8.13826,7.70265c-20.88749,0 -119.22482,0 -127.97632,0c-1.79162,0 -5.12433,-1.90856 -5.12433,-5.86274z" fill="#0f212e" stroke="#dc2929" stroke-width="2"/><g stroke="none"><path d="M266.0227,180c0,-5.27514 4.62072,-9.55145 10.32064,-9.55145c5.69995,0 10.32064,4.27634 10.32064,9.55145c0,5.27514 -4.62072,9.55145 -10.32064,9.55145c-5.69995,0 -10.32064,-4.27633 -10.32064,-9.55145z" fill="#c8aa1b" stroke-width="0"/><text transform="translate(272.31707,183.75794) scale(0.35194,0.32571)" font-size="40" xml:space="preserve" fill="#342c07" fill-rule="nonzero" stroke="none" stroke-width="1" stroke-linecap="butt" stroke-linejoin="miter" stroke-miterlimit="10" stroke-dasharray="" stroke-dashoffset="0" font-family="Sans Serif" font-weight="normal" text-anchor="start" style="mix-blend-mode: normal"><tspan x="0" dy="0">$</tspan></text></g><text transform="translate(157.6181,157.14676) scale(0.30962,0.30962)" font-size="40" xml:space="preserve" fill="#dc2929" fill-rule="nonzero" stroke="none" stroke-width="1" stroke-linecap="butt" stroke-linejoin="miter" stroke-miterlimit="10" stroke-dasharray="" stroke-dashoffset="0" font-family="Sans Serif" font-weight="normal" text-anchor="start" style="mix-blend-mode: normal"><tspan x="0" dy="0">Bet Too HIGH!</tspan></text></g></g></svg>