<svg version="1.1" xmlns="http://www.w3.org/2000/svg" xmlns:xlink="http://www.w3.org/1999/xlink" width="93.11735" height="122.51447" viewBox="0,0,93.11735,122.51447"><g transform="translate(-193.44132,-118.74277)"><g data-paper-data="{&quot;isPaintingLayer&quot;:true}" fill-rule="nonzero" stroke="none" stroke-linejoin="miter" stroke-miterlimit="10" stroke-dasharray="" stroke-dashoffset="0" style="mix-blend-mode: normal"><path d="M212.18128,208.33508v-53.33333h49.33333v53.33333z" fill="none" stroke-width="0" stroke-linecap="butt"/><path d="M226.13281,130.07031l20.26563,0.14063h12.53125c2.13541,0 3.69271,0.06771 4.67188,0.20313c0.97916,0.125 2.13541,0.54688 3.46875,1.26563c2.39583,1.23959 3.59375,4.79166 3.59375,10.65625c0,5.33334 -1.10937,8.57813 -3.32812,9.73438c-1.25,0.70834 -2.34375,1.13021 -3.28125,1.26563c-0.92709,0.13541 -2.36979,0.20313 -4.32812,0.20313h-23.32812c-0.17709,1.0625 -0.61979,4.44271 -1.32812,10.14063c0.97916,-0.1875 2.53646,-0.28125 4.67188,-0.28125c8.4375,0 16.03125,3.18229 22.78125,9.54688c6.76041,6.35416 10.14063,14.13021 10.14063,23.32813c0,9.19791 -3.20312,17.10938 -9.60937,23.73438c-6.39584,6.61459 -14.34896,9.92188 -23.85937,9.92188c-8.26042,0 -15.72396,-2.08854 -22.39062,-6.26563c-1.51042,-0.96875 -2.61979,-1.8125 -3.32812,-2.53125l-1.07812,-0.92187c-3.375,-2.9375 -5.0625,-5.60416 -5.0625,-8c0,-2.40625 1.64584,-5.29687 4.9375,-8.67187c2.66666,-2.9375 5.24479,-4.40625 7.73438,-4.40625c2.48958,0 5.46354,1.42188 8.92188,4.26563c1.60416,1.875 4.38021,2.8125 8.32813,2.8125c3.95833,0 6.89063,-0.84375 8.79688,-2.53125c1.91666,-1.69791 2.875,-4.03125 2.875,-7c0,-2.97916 -1.04687,-5.33334 -3.14062,-7.0625c-2.08334,-1.73959 -4.45834,-2.60937 -7.125,-2.60937c-2.66667,0 -4.79687,0.79688 -6.39062,2.39063c-2.40625,2.05209 -4.83334,3.07813 -7.28125,3.07813c-2.4375,0 -5.23437,-0.84375 -8.39062,-2.53125c-3.15625,-1.69791 -5.22396,-3.05729 -6.20312,-4.07812c-0.97916,-1.02084 -1.46875,-2.10937 -1.46875,-3.26562c0,-1.15625 0.89063,-8.30729 2.67188,-21.45312c1.78125,-13.15625 2.71354,-20 2.79688,-20.53125c0.09375,-0.54166 0.40625,-1.47916 0.9375,-2.8125c0.53125,-1.33334 1.17188,-2.53125 1.92188,-3.59375c0.76041,-1.07291 1.91666,-2.03125 3.46875,-2.875c1.5625,-0.84375 3.36458,-1.26562 5.40625,-1.26562z" fill="#000000" stroke-width="1" stroke-linecap="square"/><path d="M193.44132,241.25723v-122.51447h93.11735v122.51447z" fill="none" stroke-width="0" stroke-linecap="butt"/></g></g></svg>