<svg version="1.1" xmlns="http://www.w3.org/2000/svg" xmlns:xlink="http://www.w3.org/1999/xlink" width="534.88173" height="436.69944" viewBox="0,0,534.88173,436.69944"><defs><radialGradient cx="87.90457" cy="268.72931" r="55.06481" gradientUnits="userSpaceOnUse" id="color-1"><stop offset="0" stop-color="#ff0000" stop-opacity="0.26575"/><stop offset="1" stop-color="#ff0000" stop-opacity="0"/></radialGradient></defs><g transform="translate(19.67644,30.44117)"><g data-paper-data="{&quot;isPaintingLayer&quot;:true}" fill-rule="nonzero" stroke-linejoin="miter" stroke-miterlimit="10" stroke-dasharray="" stroke-dashoffset="0" style="mix-blend-mode: normal"><path d="M-19.67644,390.44118v-420.88235h519.35293v420.88235z" fill="#0f212e" stroke="none" stroke-width="0" stroke-linecap="butt"/><g stroke="none" stroke-width="0" stroke-linecap="butt"><path d="M239.75677,160.34645c0.84167,-7.06509 4.30151,-36.10747 5.68359,-47.7088c0.32167,-2.7001 3.30836,-5.44167 5.80399,-5.14436c6.54218,0.77937 35.06176,4.17693 47.43215,5.65062c3.35423,0.39959 5.99122,3.83139 5.6082,7.04654c-1.45695,12.22983 -4.78686,40.1816 -5.55799,46.65459c-0.28645,2.40447 -3.63377,5.32175 -6.55956,4.9732c-11.84053,-1.41057 -41.29158,-4.91909 -48.0442,-5.72353c-2.58073,-0.30745 -4.70614,-2.8945 -4.36617,-5.74826z" fill="#213743"/><path d="M240.15646,156.99137c0.84167,-7.06509 4.30151,-36.10747 5.68359,-47.7088c0.32167,-2.7001 3.30836,-5.44168 5.80399,-5.14438c6.54218,0.77937 35.06176,4.17693 47.43215,5.65062c3.35423,0.39959 5.99123,3.83141 5.60821,7.04655c-1.45695,12.22983 -4.78686,40.18159 -5.55799,46.65457c-0.28645,2.40447 -3.63377,5.32175 -6.55956,4.9732c-11.84053,-1.41057 -41.29158,-4.91909 -48.0442,-5.72353c-2.58073,-0.30745 -4.70614,-2.8945 -4.36617,-5.74826z" fill="#2f4553"/></g><g stroke="none" stroke-width="0" stroke-linecap="butt"><path d="M380.28385,177.08753c0.84167,-7.06509 4.30151,-36.10747 5.68359,-47.7088c0.32167,-2.7001 3.30836,-5.44167 5.80399,-5.14436c6.54218,0.77937 35.06176,4.17693 47.43215,5.65062c3.35423,0.39959 5.99122,3.83139 5.6082,7.04654c-1.45695,12.22983 -4.78686,40.1816 -5.55799,46.65459c-0.28645,2.40447 -3.63377,5.32175 -6.55956,4.9732c-11.84053,-1.41057 -41.29158,-4.91909 -48.0442,-5.72353c-2.58073,-0.30745 -4.70614,-2.8945 -4.36617,-5.74826z" fill="#213743"/><path d="M380.68357,173.73245c0.84167,-7.06509 4.30151,-36.10747 5.68359,-47.7088c0.32167,-2.7001 3.30836,-5.44168 5.80399,-5.14438c6.54218,0.77937 35.06176,4.17693 47.43215,5.65062c3.35423,0.39959 5.99123,3.83141 5.60821,7.04655c-1.45695,12.22983 -4.78686,40.18159 -5.55799,46.65457c-0.28645,2.40447 -3.63377,5.32175 -6.55956,4.9732c-11.84053,-1.41057 -41.29158,-4.91909 -48.0442,-5.72353c-2.58073,-0.30745 -4.70614,-2.8945 -4.36617,-5.74826z" fill="#2f4553"/></g><g stroke="none" stroke-width="0" stroke-linecap="butt"><path d="M450.2406,185.42152c0.84167,-7.06509 4.30151,-36.10747 5.68359,-47.7088c0.32167,-2.7001 3.30836,-5.44167 5.80399,-5.14436c6.54218,0.77937 35.06176,4.17693 47.43215,5.65062c3.35423,0.39959 5.99122,3.83139 5.6082,7.04654c-1.45695,12.22983 -4.78686,40.1816 -5.55799,46.65459c-0.28645,2.40447 -3.63377,5.32175 -6.55956,4.9732c-11.84053,-1.41057 -41.29158,-4.91909 -48.0442,-5.72353c-2.58073,-0.30745 -4.70614,-2.8945 -4.36617,-5.74826z" fill="#213743"/><path d="M450.64032,182.06643c0.84167,-7.06509 4.30151,-36.10747 5.68359,-47.7088c0.32167,-2.7001 3.30836,-5.44168 5.80399,-5.14438c6.54218,0.77937 35.06176,4.17693 47.43215,5.65062c3.35423,0.39959 5.99123,3.83141 5.60821,7.04655c-1.45695,12.22983 -4.78686,40.18159 -5.55799,46.65457c-0.28645,2.40447 -3.63377,5.32175 -6.55956,4.9732c-11.84053,-1.41057 -41.29158,-4.91909 -48.0442,-5.72353c-2.58073,-0.30745 -4.70614,-2.8945 -4.36617,-5.74826z" fill="#2f4553"/></g><g stroke="none" stroke-width="0" stroke-linecap="butt"><path d="M309.29965,166.92979c0.84167,-7.06509 4.30151,-36.10747 5.68359,-47.7088c0.32167,-2.7001 3.30836,-5.44168 5.80399,-5.14438c6.54218,0.77937 35.06176,4.17693 47.43215,5.65062c3.35423,0.39959 5.99123,3.83141 5.60821,7.04655c-1.45695,12.22983 -4.78686,40.18159 -5.55799,46.65457c-0.28645,2.40447 -3.63377,5.32175 -6.55956,4.9732c-11.84053,-1.41057 -41.29158,-4.91909 -48.0442,-5.72353c-2.58073,-0.30745 -4.70614,-2.8945 -4.36617,-5.74826z" fill="#071824"/><g><path d="M329.69163,150.25893l2.1247,-17.83502l21.8315,2.6008l-2.1247,17.83502z" fill="#3efa58"/><path d="M333.5922,136.70032l-4.63149,-5.90296l14.79498,-2.79299l13.24112,6.30807l-5.7719,4.54485l-9.15175,0.46741z" fill="#08fc02"/><path d="M339.18879,164.47143l-5.92539,-17.06871l14.80371,1.87489z" fill="#08fc02"/><path d="M322.10945,140.11878l11.57143,-3.62638l-0.12094,11.22394z" fill="#08fc02"/><path d="M333.40837,147.58696l0.51308,-10.84741l8.62298,2.75259z" fill="#06e303"/><path d="M348.24893,149.61989l-5.95894,-10.2464l9.04491,-0.66717z" fill="#06e303"/><path d="M333.52468,147.54516l8.96546,-8.06434l5.61874,9.91307z" fill="#00d403"/><path d="M339.25019,164.42308l8.83,-15.25524l13.9118,-4.18654z" fill="#019902"/><path d="M339.292,164.53938l-17.16482,-24.60965l11.43934,7.73174z" fill="#01e200"/><path d="M348.23177,149.29723l3.23475,-10.80147l10.58038,6.4921z" fill="#03bd02"/><path d="M351.45336,138.6055l5.69848,-4.38582l4.68201,10.68712z" fill="#05a902"/><path d="M322.29015,140.08465l6.91365,-9.52835l4.43674,6.20544z" fill="#56fc7e"/></g></g><g data-paper-data="{&quot;index&quot;:null}" stroke="none" stroke-width="0" stroke-linecap="butt"><path d="M494.58766,267.50462c-6.75262,-0.80445 -36.20366,-4.31297 -48.0442,-5.72353c-2.9258,-0.34855 -5.49409,-3.97057 -5.20765,-6.37503c0.77113,-6.47299 4.10105,-34.42475 5.55799,-46.65459c0.38303,-3.21515 3.75244,-5.93141 7.10667,-5.53182c12.37038,1.47369 40.88997,4.87125 47.43215,5.65062c2.49564,0.2973 4.75467,3.6638 4.433,6.3639c-1.38208,11.60133 -4.8419,40.64371 -5.68359,47.7088c-0.33997,2.85377 -3.01367,4.86909 -5.5944,4.56165z" fill="#213743"/><path d="M500.58172,259.58788c-0.33997,2.85376 -3.01367,4.86909 -5.5944,4.56165c-6.75262,-0.80445 -36.20366,-4.31297 -48.0442,-5.72353c-2.9258,-0.34855 -5.49409,-3.97057 -5.20765,-6.37503c0.77113,-6.47299 4.10104,-34.42474 5.55799,-46.65457c0.38303,-3.21515 3.75244,-5.93142 7.10668,-5.53183c12.37038,1.47369 40.88997,4.87125 47.43215,5.65062c2.49564,0.2973 4.75467,3.66381 4.433,6.36391c-1.38208,11.60133 -4.8419,40.64371 -5.68359,47.7088z" fill="#2f4553"/></g><g data-paper-data="{&quot;index&quot;:null}" stroke="none" stroke-width="0" stroke-linecap="butt"><path d="M354.62008,250.8302c-6.75262,-0.80445 -36.20366,-4.31297 -48.0442,-5.72353c-2.9258,-0.34855 -5.49409,-3.97057 -5.20765,-6.37503c0.77113,-6.47299 4.10105,-34.42475 5.55799,-46.65459c0.38303,-3.21515 3.75244,-5.93141 7.10667,-5.53182c12.37038,1.47369 40.88997,4.87125 47.43215,5.65062c2.49564,0.2973 4.75467,3.6638 4.433,6.3639c-1.38208,11.60133 -4.8419,40.64371 -5.68359,47.7088c-0.33997,2.85377 -3.01367,4.86909 -5.5944,4.56165z" fill="#213743"/><path d="M360.61421,242.91346c-0.33997,2.85376 -3.01367,4.86909 -5.5944,4.56165c-6.75262,-0.80445 -36.20366,-4.31297 -48.0442,-5.72353c-2.9258,-0.34855 -5.49409,-3.97057 -5.20765,-6.37503c0.77113,-6.47299 4.10104,-34.42474 5.55799,-46.65457c0.38303,-3.21515 3.75244,-5.93142 7.10668,-5.53183c12.37038,1.47369 40.88997,4.87125 47.43215,5.65062c2.49564,0.2973 4.75467,3.66381 4.433,6.36391c-1.38208,11.60133 -4.8419,40.64371 -5.68359,47.7088z" fill="#2f4553"/></g><g data-paper-data="{&quot;index&quot;:null}" stroke="none" stroke-width="0" stroke-linecap="butt"><path d="M284.66335,242.49622c-6.75262,-0.80445 -36.20366,-4.31297 -48.0442,-5.72353c-2.9258,-0.34855 -5.49409,-3.97057 -5.20765,-6.37503c0.77113,-6.47299 4.10105,-34.42475 5.55799,-46.65459c0.38303,-3.21515 3.75244,-5.93141 7.10667,-5.53182c12.37038,1.47369 40.88997,4.87125 47.43215,5.65062c2.49564,0.2973 4.75467,3.6638 4.433,6.3639c-1.38208,11.60133 -4.8419,40.64371 -5.68359,47.7088c-0.33997,2.85377 -3.01367,4.86909 -5.5944,4.56165z" fill="#213743"/><path d="M290.65743,234.57948c-0.33997,2.85376 -3.01367,4.86909 -5.5944,4.56165c-6.75262,-0.80445 -36.20366,-4.31297 -48.0442,-5.72353c-2.9258,-0.34855 -5.49409,-3.97057 -5.20765,-6.37503c0.77113,-6.47299 4.10104,-34.42474 5.55799,-46.65457c0.38303,-3.21515 3.75244,-5.93142 7.10668,-5.53183c12.37038,1.47369 40.88997,4.87125 47.43215,5.65062c2.49564,0.2973 4.75467,3.66381 4.433,6.36391c-1.38208,11.60133 -4.8419,40.64371 -5.68359,47.7088z" fill="#2f4553"/></g><g stroke="none" stroke-width="0" stroke-linecap="butt"><path d="M222.98232,299.00246c0.84167,-7.06509 4.30151,-36.10747 5.68359,-47.7088c0.32167,-2.7001 3.30836,-5.44167 5.80399,-5.14436c6.54218,0.77937 35.06176,4.17693 47.43215,5.65062c3.35423,0.39959 5.99122,3.83139 5.6082,7.04654c-1.45695,12.22983 -4.78686,40.1816 -5.55799,46.65459c-0.28645,2.40447 -3.63377,5.32175 -6.55956,4.9732c-11.84053,-1.41057 -41.29158,-4.91909 -48.0442,-5.72353c-2.58073,-0.30745 -4.70614,-2.8945 -4.36617,-5.74826z" fill="#213743"/><path d="M223.38201,295.64736c0.84167,-7.06509 4.30151,-36.10747 5.68359,-47.7088c0.32167,-2.7001 3.30836,-5.44168 5.80399,-5.14438c6.54218,0.77937 35.06176,4.17693 47.43215,5.65062c3.35423,0.39959 5.99123,3.83141 5.60821,7.04655c-1.45695,12.22983 -4.78686,40.18159 -5.55799,46.65457c-0.28645,2.40447 -3.63377,5.32175 -6.55956,4.9732c-11.84053,-1.41057 -41.29158,-4.91909 -48.0442,-5.72353c-2.58073,-0.30745 -4.70614,-2.8945 -4.36617,-5.74826z" fill="#2f4553"/></g><g stroke="none" stroke-width="0" stroke-linecap="butt"><path d="M363.50949,315.74352c0.84167,-7.06509 4.30151,-36.10747 5.68359,-47.7088c0.32167,-2.7001 3.30836,-5.44167 5.80399,-5.14436c6.54218,0.77937 35.06176,4.17693 47.43215,5.65062c3.35423,0.39959 5.99122,3.83139 5.6082,7.04654c-1.45695,12.22983 -4.78686,40.1816 -5.55799,46.65459c-0.28645,2.40447 -3.63377,5.32175 -6.55956,4.9732c-11.84053,-1.41057 -41.29158,-4.91909 -48.0442,-5.72353c-2.58073,-0.30745 -4.70614,-2.8945 -4.36617,-5.74826z" fill="#213743"/><path d="M363.90912,312.38845c0.84167,-7.06509 4.30151,-36.10747 5.68359,-47.7088c0.32167,-2.7001 3.30836,-5.44168 5.80399,-5.14438c6.54218,0.77937 35.06176,4.17693 47.43215,5.65062c3.35423,0.39959 5.99123,3.83141 5.60821,7.04655c-1.45695,12.22983 -4.78686,40.18159 -5.55799,46.65457c-0.28645,2.40447 -3.63377,5.32175 -6.55956,4.9732c-11.84053,-1.41057 -41.29158,-4.91909 -48.0442,-5.72353c-2.58073,-0.30745 -4.70614,-2.8945 -4.36617,-5.74826z" fill="#2f4553"/></g><g stroke="none" stroke-width="0" stroke-linecap="butt"><path d="M433.46619,324.07752c0.84167,-7.06509 4.30151,-36.10747 5.68359,-47.7088c0.32167,-2.7001 3.30836,-5.44167 5.80399,-5.14436c6.54218,0.77937 35.06176,4.17693 47.43215,5.65062c3.35423,0.39959 5.99122,3.83139 5.6082,7.04654c-1.45695,12.22983 -4.78686,40.1816 -5.55799,46.65459c-0.28645,2.40447 -3.63377,5.32175 -6.55956,4.9732c-11.84053,-1.41057 -41.29158,-4.91909 -48.0442,-5.72353c-2.58073,-0.30745 -4.70614,-2.8945 -4.36617,-5.74826z" fill="#213743"/><path d="M433.86587,320.72243c0.84167,-7.06509 4.30151,-36.10747 5.68359,-47.7088c0.32167,-2.7001 3.30836,-5.44168 5.80399,-5.14438c6.54218,0.77937 35.06176,4.17693 47.43215,5.65062c3.35423,0.39959 5.99123,3.83141 5.60821,7.04655c-1.45695,12.22983 -4.78686,40.18159 -5.55799,46.65457c-0.28645,2.40447 -3.63377,5.32175 -6.55956,4.9732c-11.84053,-1.41057 -41.29158,-4.91909 -48.0442,-5.72353c-2.58073,-0.30745 -4.70614,-2.8945 -4.36617,-5.74826z" fill="#2f4553"/></g><g data-paper-data="{&quot;index&quot;:null}" stroke="none" stroke-width="0" stroke-linecap="butt"><path d="M478.37278,406.22731c-6.75262,-0.80445 -36.20366,-4.31297 -48.0442,-5.72353c-2.9258,-0.34855 -5.49409,-3.97057 -5.20765,-6.37503c0.77113,-6.47299 4.10105,-34.42475 5.55799,-46.65459c0.38303,-3.21515 3.75244,-5.93141 7.10667,-5.53182c12.37038,1.47369 40.88997,4.87125 47.43215,5.65062c2.49564,0.2973 4.75467,3.6638 4.433,6.3639c-1.38208,11.60133 -4.8419,40.64371 -5.68359,47.7088c-0.33997,2.85377 -3.01367,4.86909 -5.5944,4.56165z" fill="#213743"/><path d="M484.36686,398.31056c-0.33997,2.85376 -3.01367,4.86909 -5.5944,4.56165c-6.75262,-0.80445 -36.20366,-4.31297 -48.0442,-5.72353c-2.9258,-0.34855 -5.49409,-3.97057 -5.20765,-6.37503c0.77113,-6.47299 4.10104,-34.42474 5.55799,-46.65457c0.38303,-3.21515 3.75244,-5.93142 7.10668,-5.53183c12.37038,1.47369 40.88997,4.87125 47.43215,5.65062c2.49564,0.2973 4.75467,3.66381 4.433,6.36391c-1.38208,11.60133 -4.8419,40.64371 -5.68359,47.7088z" fill="#2f4553"/></g><g data-paper-data="{&quot;index&quot;:null}" stroke="none" stroke-width="0" stroke-linecap="butt"><path d="M337.84568,389.48623c-6.75262,-0.80445 -36.20366,-4.31297 -48.0442,-5.72353c-2.9258,-0.34855 -5.49409,-3.97057 -5.20765,-6.37503c0.77113,-6.47299 4.10105,-34.42475 5.55799,-46.65459c0.38303,-3.21515 3.75244,-5.93141 7.10667,-5.53182c12.37038,1.47369 40.88997,4.87125 47.43215,5.65062c2.49564,0.2973 4.75467,3.6638 4.433,6.3639c-1.38208,11.60133 -4.8419,40.64371 -5.68359,47.7088c-0.33997,2.85377 -3.01367,4.86909 -5.5944,4.56165z" fill="#213743"/><path d="M343.83973,381.56948c-0.33997,2.85376 -3.01367,4.86909 -5.5944,4.56165c-6.75262,-0.80445 -36.20366,-4.31297 -48.0442,-5.72353c-2.9258,-0.34855 -5.49409,-3.97057 -5.20765,-6.37503c0.77113,-6.47299 4.10104,-34.42474 5.55799,-46.65457c0.38303,-3.21515 3.75244,-5.93142 7.10668,-5.53183c12.37038,1.47369 40.88997,4.87125 47.43215,5.65062c2.49564,0.2973 4.75467,3.66381 4.433,6.36391c-1.38208,11.60133 -4.8419,40.64371 -5.68359,47.7088z" fill="#2f4553"/></g><g data-paper-data="{&quot;index&quot;:null}" stroke="none" stroke-width="0" stroke-linecap="butt"><path d="M267.88892,381.15223c-6.75262,-0.80445 -36.20366,-4.31297 -48.0442,-5.72353c-2.9258,-0.34855 -5.49409,-3.97057 -5.20765,-6.37503c0.77113,-6.47299 4.10105,-34.42475 5.55799,-46.65459c0.38303,-3.21515 3.75244,-5.93141 7.10667,-5.53182c12.37038,1.47369 40.88997,4.87125 47.43215,5.65062c2.49564,0.2973 4.75467,3.6638 4.433,6.3639c-1.38208,11.60133 -4.8419,40.64371 -5.68359,47.7088c-0.33997,2.85377 -3.01367,4.86909 -5.5944,4.56165z" fill="#213743"/><path d="M273.88298,373.23549c-0.33997,2.85376 -3.01367,4.86909 -5.5944,4.56165c-6.75262,-0.80445 -36.20366,-4.31297 -48.0442,-5.72353c-2.9258,-0.34855 -5.49409,-3.97057 -5.20765,-6.37503c0.77113,-6.47299 4.10104,-34.42474 5.55799,-46.65457c0.38303,-3.21515 3.75244,-5.93142 7.10668,-5.53183c12.37038,1.47369 40.88997,4.87125 47.43215,5.65062c2.49564,0.2973 4.75467,3.66381 4.433,6.36391c-1.38208,11.60133 -4.8419,40.64371 -5.68359,47.7088z" fill="#2f4553"/></g><path d="M-4.65096,62.29062l6.50052,-68.69904l253.9902,24.03336l-6.50052,68.69904z" fill="#1a2c38" stroke="none" stroke-width="0" stroke-linecap="butt"/><text transform="translate(28.42306,45.43063) rotate(5.40536) scale(1.21686,1.21686)" font-size="40" xml:space="preserve" fill="#f0f0f0" fill-rule="nonzero" stroke="none" stroke-width="1" stroke-linecap="butt" stroke-linejoin="miter" stroke-miterlimit="10" stroke-dasharray="" stroke-dashoffset="0" font-family="Sans Serif" font-weight="normal" text-anchor="start" style="mix-blend-mode: normal"><tspan x="0" dy="0">MONEY</tspan></text><path d="M-19.07114,154.04548l7.26993,-76.83037l227.5794,21.53428l-7.26993,76.83037z" fill="#f0f0f0" stroke="none" stroke-width="0" stroke-linecap="butt"/><text transform="translate(17.40704,130.65679) rotate(5.40531) scale(1.21687,1.21687)" font-size="40" xml:space="preserve" fill="#1a2c38" fill-rule="nonzero" stroke="none" stroke-width="1" stroke-linecap="butt" stroke-linejoin="miter" stroke-miterlimit="10" stroke-dasharray="" stroke-dashoffset="0" font-family="Sans Serif" font-weight="normal" text-anchor="start" style="mix-blend-mode: normal"><tspan x="0" dy="0">MINES</tspan></text><g stroke="none" stroke-linecap="butt"><path d="M28.19183,307.53157c1.45794,-13.12759 7.45109,-67.09101 9.84513,-88.64734c0.55719,-5.01702 6.06093,-10.15048 10.69805,-9.63548c12.15598,1.35004 65.14798,7.2353 88.1333,9.78803c6.23247,0.69218 11.17836,7.02376 10.51489,12.99781c-2.52373,22.72416 -8.29182,74.6611 -9.62757,86.68851c-0.49618,4.46773 -6.66679,9.93266 -12.10319,9.32889c-22.00079,-2.44339 -76.72355,-8.52087 -89.27053,-9.91433c-4.79522,-0.53256 -8.77895,-5.30358 -8.19006,-10.60612z" fill="#071824" stroke-width="0"/><path d="M28.19185,307.53155c1.45794,-13.12759 7.45109,-67.09101 9.84512,-88.64734c0.55719,-5.01702 6.06094,-10.15048 10.69806,-9.63548c12.15598,1.35004 65.14798,7.2353 88.13329,9.78803c6.23247,0.69218 11.17837,7.02377 10.51489,12.99782c-2.52373,22.72416 -8.29182,74.66109 -9.62758,86.6885c-0.49618,4.46773 -6.66679,9.93266 -12.10319,9.3289c-22.00079,-2.44339 -76.72355,-8.52087 -89.27053,-9.91433c-4.79522,-0.53256 -8.77895,-5.30358 -8.19005,-10.60612z" fill="url(#color-1)" stroke-width="0"/><path d="M62.79058,271.55145l2.1809,-19.63727l22.09192,2.45352l-2.1809,19.63727z" fill="#ffffff" stroke-width="0"/><path d="M114.84778,249.23332l-7.66455,6.13228l3.12508,3.90601c1.10853,1.3855 0.88458,3.40197 -0.49946,4.49723l-2.56468,2.05194c1.18086,3.63633 1.62916,7.58077 1.17979,11.62695c-1.69286,15.24285 -15.41535,26.22198 -30.65819,24.52912c-15.24284,-1.69286 -26.22345,-15.4021 -24.53059,-30.64496c1.69286,-15.2428 15.41535,-26.22198 30.65819,-24.52912c4.04618,0.44937 7.79614,1.75222 11.08477,3.70215l2.56468,-2.05194c1.38552,-1.10851 3.40197,-0.88456 4.49725,0.49947l3.12511,3.90595l7.66455,-6.13227zM123.16107,246.32912l-3.18389,-0.3536c-0.87557,-0.09724 -1.67149,0.5396 -1.76873,1.41513c-0.09724,0.87558 0.53956,1.6715 1.41513,1.76874l3.18389,0.3536c0.87557,0.09724 1.6715,-0.53956 1.76874,-1.41513c0.09724,-0.87553 -0.53957,-1.6715 -1.41514,-1.76874zM116.08536,237.48535c-0.87557,-0.09724 -1.67149,0.53961 -1.76873,1.41514l-0.3536,3.18389c-0.09724,0.87558 0.53957,1.67149 1.41514,1.76873c0.87557,0.09724 1.67149,-0.53956 1.76873,-1.41513l0.3536,-3.18389c0.09724,-0.87553 -0.53957,-1.6715 -1.41514,-1.76874zM119.77228,245.28125l2.50571,-2.00479c0.69275,-0.55428 0.80472,-1.56249 0.25046,-2.25526c-0.55427,-0.69277 -1.56249,-0.80474 -2.25524,-0.25046l-2.50571,2.00479c-0.69276,0.55423 -0.80474,1.56249 -0.25046,2.25526c0.56753,0.69421 1.57577,0.80618 2.25524,0.25046zM110.7778,244.28233c0.55426,0.69273 1.56249,0.8047 2.25524,0.25046c0.69275,-0.55428 0.80472,-1.56253 0.25046,-2.25526l-2.00477,-2.50573c-0.55426,-0.69277 -1.56249,-0.80474 -2.25526,-0.25047c-0.69275,0.55428 -0.80472,1.56249 -0.25046,2.25526zM119.27132,249.79174c-0.55426,-0.69277 -1.56249,-0.80475 -2.25524,-0.25047c-0.69277,0.55427 -0.80474,1.56249 -0.25047,2.25526l2.00478,2.50573c0.55428,0.69273 1.56249,0.8047 2.25524,0.25046c0.69275,-0.55428 0.80473,-1.56255 0.25046,-2.25526zM68.56481,268.73686c0.52009,-4.68294 4.75032,-8.0675 9.43328,-7.54741c1.16742,0.12965 2.22867,-0.71942 2.35833,-1.88685c0.12965,-1.16742 -0.71943,-2.22867 -1.88686,-2.35833c-7.01781,-0.7794 -13.37054,4.30334 -14.14993,11.32113c-0.12965,1.16742 0.71942,2.22867 1.88685,2.35833c1.16742,0.12965 2.22867,-0.71943 2.35833,-1.88686z" fill="#de1111" stroke-width="1"/></g><path d="M380.38014,73.79322l6.29866,-26.76257l24.67471,5.80728l-6.29866,26.76257z" fill="none" stroke="none" stroke-width="0" stroke-linecap="butt"/><g><path d="M448.90315,52.83497c2.26136,0.27863 3.5115,1.05562 3.75043,2.33096c0.12924,0.54274 0.11428,1.45994 -0.04487,2.75161c-0.15916,1.29166 -0.77772,2.84781 -1.85573,4.66844c-1.078,1.82062 -2.32342,3.59563 -3.73627,5.325c-1.40905,1.72985 -2.82755,3.47391 -4.25549,5.23219c-3.41409,4.27069 -5.29452,7.81323 -5.6413,10.62763c-0.08728,0.70834 -0.18412,1.22898 -0.29051,1.56195c-0.10593,0.32918 -0.31268,0.66517 -0.62026,1.00797c-0.30331,0.33947 -0.76215,0.53674 -1.3765,0.59178c-0.61436,0.05506 -1.43857,0.01886 -2.47266,-0.10855c-1.03409,-0.12741 -1.84244,-0.29238 -2.42506,-0.49491c-0.57883,-0.20207 -0.97511,-0.51238 -1.18887,-0.93095c-0.2095,-0.42188 -0.31811,-0.80442 -0.32581,-1.14761c-0.00724,-0.34698 0.03512,-0.89357 0.12706,-1.63977c0.25856,-2.09847 0.88019,-4.20991 1.86487,-6.33428c0.98514,-2.12816 2.08531,-4.00374 3.30046,-5.62673c1.21895,-1.62253 2.41896,-3.10703 3.60004,-4.45351c1.18488,-1.34602 2.19612,-2.5 3.03372,-3.46196c0.84186,-0.96528 1.2887,-1.65815 1.34051,-2.0786l-11.05111,-1.36165c-1.29166,-0.15916 -2.20932,-0.43565 -2.75298,-0.82949c-0.54366,-0.39385 -0.87429,-0.90948 -0.99185,-1.54692c-0.1171,-0.64122 -0.11404,-1.46184 0.00916,-2.46183c0.12368,-1.00379 0.31991,-1.80059 0.58871,-2.39042c0.26879,-0.58984 0.62741,-0.97248 1.07588,-1.14795c0.72943,-0.30235 1.69073,-0.38002 2.8839,-0.233z" fill="#08fc02" stroke="none" stroke-width="1" stroke-linecap="square"/><path d="M394.5572,64.151l-14.87084,11.67798" fill="none" stroke="#08fc02" stroke-width="9.5" stroke-linecap="round"/><path d="M392.96077,77.42541l-11.67798,-14.87084" fill="none" stroke="#08fc02" stroke-width="9.5" stroke-linecap="round"/><path d="M414.45953,50.42435c0.94929,-0.7037 1.90791,-0.98364 2.87588,-0.83983c0.97169,0.14437 1.71555,0.33669 2.2316,0.57698c0.51659,0.23657 0.90088,0.48011 1.15285,0.73063c0.25624,0.24735 0.42901,0.62119 0.5183,1.12151c0.07988,0.56361 0.03492,1.41689 -0.13489,2.55983l-3.9435,26.54275c-0.10841,0.7297 -0.2142,1.27524 -0.31735,1.63662c-0.10261,0.35766 -0.31589,0.75595 -0.63985,1.19487c-0.57397,0.78991 -1.87732,1.03385 -3.91005,0.73184c-1.96944,-0.2926 -3.13103,-0.88755 -3.48477,-1.78485c-0.18236,-0.51415 -0.26842,-0.97214 -0.25819,-1.37396c0.01079,-0.40555 0.07288,-0.98992 0.18627,-1.75312l2.52723,-17.01014l-0.7045,0.47752c-1.44961,0.79298 -2.6342,1.12117 -3.55376,0.98455c-0.91957,-0.13662 -1.7974,-0.83591 -2.63348,-2.09786c-0.83609,-1.26195 -1.19053,-2.32107 -1.06331,-3.17735c0.12722,-0.85628 0.8378,-1.70769 2.13175,-2.55425l8.86608,-5.89156z" fill="#08fc02" stroke="none" stroke-width="1" stroke-linecap="square"/></g><path d="M195.29303,174.20633l7.26993,-76.83037l227.5794,21.53428l-7.26993,76.83037z" fill="#f0f0f0" stroke="none" stroke-width="0" stroke-linecap="butt"/><text transform="translate(200.72756,150.09569) rotate(5.40531) scale(1.21687,1.21687)" font-size="40" xml:space="preserve" fill="#1a2c38" fill-rule="nonzero" stroke="none" stroke-width="1" stroke-linecap="butt" stroke-linejoin="miter" stroke-miterlimit="10" stroke-dasharray="" stroke-dashoffset="0" font-family="Sans Serif" font-weight="normal" text-anchor="start" style="mix-blend-mode: normal"><tspan x="0" dy="0">SWEEPER</tspan></text><path d="M376.83991,240.95552c0.85822,-6.62972 4.38607,-33.88244 5.79531,-44.76887c0.32799,-2.53371 3.1602,-5.08095 5.50205,-4.7778c6.13904,0.7947 32.90117,4.25904 44.50926,5.76171c3.14754,0.40745 5.59227,3.65687 5.20172,6.67389c-1.48559,11.4762 -4.88096,37.7055 -5.66725,43.77961c-0.29208,2.2563 -3.46479,4.96517 -6.21029,4.60977c-11.11088,-1.4383 -38.74709,-5.0158 -45.08359,-5.83605c-2.42169,-0.31349 -4.39385,-2.76437 -4.0472,-5.44227z" fill="#071824" stroke="none" stroke-width="0" stroke-linecap="butt"/><text transform="translate(392.37143,235.27277) rotate(7.3759) scale(1.31962,1.31962)" font-size="40" xml:space="preserve" fill="#16ff00" fill-rule="nonzero" stroke="none" stroke-width="1" stroke-linecap="butt" stroke-linejoin="miter" stroke-miterlimit="10" stroke-dasharray="" stroke-dashoffset="0" font-family="Serif" font-weight="normal" text-anchor="start" style="mix-blend-mode: normal"><tspan x="0" dy="0">0</tspan></text><path d="M295.94774,304.71275c0.65132,-6.65324 3.32869,-34.00261 4.39819,-44.92764c0.24892,-2.5427 3.00043,-5.17691 5.35058,-4.94684c6.16081,0.60311 33.01785,3.23228 44.66712,4.37269c3.1587,0.30922 5.70345,3.48092 5.40705,6.50865c-1.12745,11.51691 -3.70427,37.83923 -4.30101,43.93488c-0.22166,2.26431 -3.30847,5.07067 -6.06371,4.80095c-11.15029,-1.09156 -38.88451,-3.8066 -45.24348,-4.42911c-2.43028,-0.23791 -4.47782,-2.62618 -4.21473,-5.31358z" fill="#071824" stroke="none" stroke-width="0" stroke-linecap="butt"/><text transform="translate(311.23525,299.15649) rotate(5.59116) scale(1.31962,1.31962)" font-size="40" xml:space="preserve" fill="#16ff00" fill-rule="nonzero" stroke="none" stroke-width="1" stroke-linecap="butt" stroke-linejoin="miter" stroke-miterlimit="10" stroke-dasharray="" stroke-dashoffset="0" font-family="Serif" font-weight="normal" text-anchor="start" style="mix-blend-mode: normal"><tspan x="0" dy="0">3</tspan></text><path d="M355.84988,382.4032c0.85821,-6.62972 4.38607,-33.88244 5.79531,-44.76887c0.32799,-2.53371 3.1602,-5.08095 5.50205,-4.7778c6.13903,0.79469 32.90117,4.25905 44.50927,5.76171c3.14754,0.40745 5.59227,3.65687 5.20172,6.6739c-1.48559,11.4762 -4.88096,37.7055 -5.66725,43.77961c-0.29208,2.2563 -3.4648,4.96517 -6.2103,4.60977c-11.11088,-1.4383 -38.74709,-5.0158 -45.08359,-5.83605c-2.42169,-0.31349 -4.39385,-2.76437 -4.0472,-5.44227z" fill="#071824" stroke="none" stroke-width="0" stroke-linecap="butt"/><text transform="translate(371.3814,376.72045) rotate(7.37587) scale(1.31962,1.31962)" font-size="40" xml:space="preserve" fill="#16ff00" fill-rule="nonzero" stroke="none" stroke-width="1" stroke-linecap="butt" stroke-linejoin="miter" stroke-miterlimit="10" stroke-dasharray="" stroke-dashoffset="0" font-family="Serif" font-weight="normal" text-anchor="start" style="mix-blend-mode: normal"><tspan x="0" dy="0">0</tspan></text></g></g></svg>