<svg version="1.1" xmlns="http://www.w3.org/2000/svg" xmlns:xlink="http://www.w3.org/1999/xlink" width="101.06252" height="116.31724" viewBox="0,0,101.06252,116.31724"><g transform="translate(-189.46874,-121.84138)"><g data-paper-data="{&quot;isPaintingLayer&quot;:true}" fill-rule="nonzero" stroke="none" stroke-linejoin="miter" stroke-miterlimit="10" stroke-dasharray="" stroke-dashoffset="0" style="mix-blend-mode: normal"><path d="M223.51462,206.66842v-46.66667h55.33333v46.66667z" fill="none" stroke-width="0" stroke-linecap="butt"/><path d="M239.73437,129.53125c10.9375,0 19.55729,3.11459 25.85938,9.34375c6.3125,6.21875 9.46875,13.21875 9.46875,21c0,7.77084 -3.46354,13.39063 -10.39062,16.85938v0.9375c0.88541,0.44792 2.19271,1.40625 3.92188,2.875c1.73959,1.45834 3.14063,2.90104 4.20313,4.32813c2.9375,3.72917 4.40625,7.99479 4.40625,12.79688c0,9.51042 -3.55729,17.35417 -10.67187,23.53125c-7.11459,6.17709 -16.04687,9.26563 -26.79688,9.26563c-10.66666,0 -19.55729,-3.10937 -26.67187,-9.32812c-2.66666,-2.40625 -5.02084,-5.5625 -7.0625,-9.46875c-0.70834,-1.42708 -1.19791,-2.58333 -1.46875,-3.46875l-0.26562,-1.32812c-0.97916,-2.9375 -1.46875,-5.33854 -1.46875,-7.20312c0,-5.15625 4.35938,-7.73437 13.07813,-7.73437c3.55209,0 5.90625,0.44271 7.0625,1.32813c1.51041,1.15625 2.84375,3.46875 4,6.9375c0.88541,2.84375 3.32813,4.97917 7.32813,6.40625c1.6875,0.53125 3.55729,0.79688 5.60938,0.79688c4.70834,0 8.17188,-0.95312 10.39063,-2.85937c2.21875,-1.91666 3.32813,-4.07291 3.32813,-6.46875c0,-2.40625 -1.08854,-4.52083 -3.26563,-6.34375c-2.17709,-1.82291 -4.75521,-2.73437 -7.73438,-2.73437c-2.96875,0 -4.98959,-0.08854 -6.0625,-0.26562c-1.0625,-0.17708 -2.21875,-0.61979 -3.46875,-1.32812c-2.39584,-1.15625 -3.59375,-4.57812 -3.59375,-10.26562c0,-6.22916 1.64584,-9.92187 4.9375,-11.07812c1.51041,-0.4375 3.81771,-0.65625 6.92188,-0.65625c6.76042,0 10.14063,-1.73437 10.14063,-5.20312c0,-1.86458 -0.89062,-3.64062 -2.67187,-5.32812c-1.77084,-1.6875 -4.23437,-2.53125 -7.39063,-2.53125c-3.15625,0 -5.67187,0.53125 -7.54687,1.59375c-1.86459,1.0625 -3.01562,2.13021 -3.45312,3.20313l-0.8125,1.59375c-2.04166,4.44792 -4.97396,6.67188 -8.79687,6.67188c-2.21875,0 -4.66146,-0.80208 -7.32812,-2.40625c-4.44791,-2.57291 -6.67187,-5.54687 -6.67187,-8.92187c0,-1.42708 1.02604,-4.45312 3.07813,-9.07812c0.35416,-0.80208 1.32813,-2.20312 2.92188,-4.20312c1.60416,-2 3.44791,-3.75521 5.53125,-5.26562c2.09375,-1.51041 5.02604,-2.88541 8.79688,-4.125c3.78125,-1.25 7.98438,-1.875 12.60938,-1.875z" fill="#000000" stroke-width="1" stroke-linecap="square"/><path d="M189.46874,238.15862v-116.31724h101.06252v116.31724z" fill="none" stroke-width="0" stroke-linecap="butt"/></g></g></svg>