<svg version="1.1" xmlns="http://www.w3.org/2000/svg" xmlns:xlink="http://www.w3.org/1999/xlink" width="69.22599" height="137.70266" viewBox="0,0,69.22599,137.70266"><g transform="translate(-202.67351,-111.14867)"><g data-paper-data="{&quot;isPaintingLayer&quot;:true}" fill-rule="nonzero" stroke-linejoin="miter" stroke-miterlimit="10" stroke-dasharray="" stroke-dashoffset="0" style="mix-blend-mode: normal"><g stroke="none"><path d="M214.3259,214.48099l50.20426,-6.76869z" fill="none" stroke-width="0" stroke-linecap="butt"/><path d="M206.94105,167.46138c-0.89346,-9.07936 1.59771,-17.32833 7.47353,-24.7469c5.86623,-7.40687 13.63849,-11.76271 23.3168,-13.06757c8.40625,-1.13335 16.20443,-0.09576 23.39453,3.11281c1.63119,0.74903 2.8421,1.4297 3.63275,2.042l1.1867,0.76207c3.71992,2.43657 5.69625,4.83733 5.92897,7.20229c0.23374,2.37524 -1.16037,5.45441 -4.18231,9.23754c-2.4284,3.26551 -4.90937,5.06905 -7.44291,5.41063c-2.53353,0.34158 -5.69811,-0.65393 -9.49374,-2.98655c-1.81461,-1.63074 -4.73074,-2.17527 -8.74835,-1.63361c-4.02821,0.54309 -10.92699,1.77828 -12.70297,3.70558c-1.78557,1.93899 -2.21444,3.89414 -1.92607,6.82464c0.28939,2.94076 12.96632,6.19005 15.265,7.60966c2.2891,1.43132 -2.91545,1.37454 -0.20172,1.00867c2.26738,-0.3057 16.74103,16.52922 8.26922,18.65044c-5.63386,1.41064 -4.77231,2.06564 -10.45638,1.38635c-6.52104,-0.77931 -19.10662,-6.16065 -20.21332,-7.11964c-5.36008,-4.64465 -12.20629,-8.31908 -13.09975,-17.39844z" data-paper-data="{&quot;index&quot;:null}" fill="#1aaa1e" stroke-width="1" stroke-linecap="square"/><path d="M267.63196,192.53865c0.89346,9.07936 -1.59771,17.32833 -7.47353,24.7469c-5.86623,7.40687 -13.63849,11.76271 -23.3168,13.06758c-8.40625,1.13335 -16.20443,0.09576 -23.39453,-3.11281c-1.63119,-0.74903 -2.8421,-1.4297 -3.63275,-2.042l-1.1867,-0.76207c-3.71992,-2.43657 -5.69625,-4.83733 -5.92897,-7.2023c-0.23374,-2.37524 1.16037,-5.45441 4.18231,-9.23754c2.4284,-3.26551 4.90937,-5.06906 7.44291,-5.41064c2.53353,-0.34158 5.69811,0.65393 9.49374,2.98655c1.81461,1.63074 7.26333,2.89887 11.28094,2.35721c7.75536,-1.04559 18.58849,-3.12513 17.82213,-10.91305c-0.28939,-2.94076 -18.69201,-6.53083 -20.99069,-7.95044c-2.2891,-1.43132 2.91545,-1.37455 0.20171,-1.00868c-2.26738,0.3057 -16.74103,-16.52922 -8.26922,-18.65043c5.63385,-1.41064 4.77231,-2.06564 10.45638,-1.38636c6.52104,0.77929 19.10663,6.16065 20.21332,7.11963c5.36007,4.64465 12.20628,8.31908 13.09974,17.39844z" data-paper-data="{&quot;index&quot;:null}" fill="#1aaa1e" stroke-width="1" stroke-linecap="square"/></g><path d="M240,240.60133v-121.20266" fill="none" stroke="#1aaa1e" stroke-width="16.5" stroke-linecap="round"/><path d="M214.18131,199.66843v-48.66667h47.33333v48.66667z" fill="none" stroke="none" stroke-width="0" stroke-linecap="butt"/></g></g></svg>