<svg version="1.1" xmlns="http://www.w3.org/2000/svg" xmlns:xlink="http://www.w3.org/1999/xlink" width="508.30189" height="361.46417" viewBox="0,0,508.30189,361.46417"><defs><linearGradient x1="233.63368" y1="41.43258" x2="233.63368" y2="49.18539" gradientUnits="userSpaceOnUse" id="color-1"><stop offset="0" stop-color="#1a2c38"/><stop offset="1" stop-color="#0e1e2a"/></linearGradient><linearGradient x1="341.00097" y1="23.23897" x2="436.88518" y2="23.23897" gradientUnits="userSpaceOnUse" id="color-2"><stop offset="0" stop-color="#121f28" stop-opacity="0"/><stop offset="1" stop-color="#121f28"/></linearGradient></defs><g transform="translate(18.66499,1.46417)"><g data-paper-data="{&quot;isPaintingLayer&quot;:true}" fill-rule="nonzero" stroke-miterlimit="10" stroke-dasharray="" stroke-dashoffset="0" style="mix-blend-mode: normal"><path d="M0,360v-360h480v360z" fill="#0f212e" stroke="none" stroke-width="0" stroke-linecap="butt" stroke-linejoin="miter"/><path d="M-6.79245,360v-360h169.11517v360z" fill="#213743" stroke="none" stroke-width="0" stroke-linecap="butt" stroke-linejoin="miter"/><path d="M-18.66499,46.05515v-45.84906h508.30189v45.84906z" fill="#1a2c38" stroke="none" stroke-width="0" stroke-linecap="butt" stroke-linejoin="miter"/><path d="M-11.08544,49.18539v-7.75281h489.4382v7.75281z" fill="url(#color-1)" stroke="none" stroke-width="0" stroke-linecap="butt" stroke-linejoin="miter"/><path d="M9.47406,170.79235c0,-7.00973 0,-16.04356 0,-19.68032c0,-3.38983 2.39976,-7.01676 6.68522,-7.01676c9.95557,0 104.25599,0 126.18223,0c4.80342,0 8.37145,3.29154 8.37145,8.09495c0,3.49964 0,9.63186 0,16.76221c0,3.78671 -2.96272,7.70265 -8.13826,7.70265c-20.88749,0 -119.22482,0 -127.97632,0c-1.79162,0 -5.12433,-1.90856 -5.12433,-5.86274z" fill="#0f212e" stroke="#737373" stroke-width="2" stroke-linecap="butt" stroke-linejoin="miter"/><text transform="translate(12.15776,138.35192) scale(0.33268,0.33268)" font-size="40" xml:space="preserve" fill="#d5d5d5" fill-rule="nonzero" stroke="none" stroke-width="1" stroke-linecap="butt" stroke-linejoin="miter" stroke-miterlimit="10" stroke-dasharray="" stroke-dashoffset="0" font-family="Sans Serif" font-weight="normal" text-anchor="start" style="mix-blend-mode: normal"><tspan x="0" dy="0">Mines</tspan></text><g stroke="none" stroke-linecap="butt" stroke-linejoin="miter"><path d="M149.6648,30.03186c0,-5.65796 0.28545,-15.25239 0.28545,-18.38157c0,-3.69534 1.49214,-3.57289 6.7752,-3.57289c10.56268,0 44.11978,0 65.5448,0c5.80466,0 6.95258,0.70369 6.95258,4.76384c0,3.27616 -0.23837,14.86039 -0.40614,21.14166c-0.08906,3.33432 -0.71449,3.78912 -5.48227,3.78912c-18.58453,0 -56.30161,-0.58507 -67.70871,-0.68309c-3.95395,-0.03397 -5.96091,-1.39912 -5.96091,-7.05708z" fill="#0f212e" stroke-width="0"/><g><path d="M206.99752,11.63296c0,-3.69534 1.20033,-3.57289 5.45022,-3.57289c8.497,0 50.25079,0 67.48585,0c4.66948,0 5.59291,0.70369 5.59291,4.76384c0,3.27616 -0.19175,14.86039 -0.32671,21.14166c-0.07164,3.33432 -0.57476,3.78912 -4.41014,3.78912c-14.95007,0 -60.14801,0 -69.48332,0c-3.68581,0 -4.30883,-1.23472 -4.30883,-2.89801z" fill="#0f212e" stroke-width="0"/><path d="M278.73908,37.948v-30.04695c0,0 41.25204,0 47.24145,0c1.40652,0 2.60523,1.57181 2.60523,3.12627c0,3.53249 0,17.73845 0,23.96809c0,1.81473 -1.19871,2.95259 -2.60523,2.95259c-5.98941,0 -47.24145,0 -47.24145,0z" fill="#1475e1" stroke-width="0"/><text transform="translate(288.32787,26.55447) scale(0.3025,0.3025)" font-size="40" xml:space="preserve" fill="#f5f5f5" fill-rule="nonzero" stroke="none" stroke-width="1" stroke-linecap="butt" stroke-linejoin="miter" stroke-miterlimit="10" stroke-dasharray="" stroke-dashoffset="0" font-family="Sans Serif" font-weight="normal" text-anchor="start" style="mix-blend-mode: normal"><tspan x="0" dy="0">Score</tspan></text></g><g><path d="M251.70276,22.92447c0,-4.42099 3.87253,-8.00488 8.64953,-8.00488c4.77701,0 8.64953,3.58392 8.64953,8.00488c0,4.42099 -3.87253,8.00488 -8.64953,8.00488c-4.77701,0 -8.64953,-3.58392 -8.64953,-8.00488z" fill="#c8aa1b" stroke-width="0"/><text transform="translate(256.97794,26.07393) scale(0.29496,0.27297)" font-size="40" xml:space="preserve" fill="#342c07" fill-rule="nonzero" stroke="none" stroke-width="1" stroke-linecap="butt" stroke-linejoin="miter" stroke-miterlimit="10" stroke-dasharray="" stroke-dashoffset="0" font-family="Sans Serif" font-weight="normal" text-anchor="start" style="mix-blend-mode: normal"><tspan x="0" dy="0">$</tspan></text></g></g><path d="M341.00097,47.61177v-48.7456h95.88421v48.7456z" fill="url(#color-2)" stroke="none" stroke-width="0" stroke-linecap="butt" stroke-linejoin="miter"/><path d="M436.61735,48.88843v-50.3526h49.28127v50.3526z" fill="#121f28" stroke="none" stroke-width="0" stroke-linecap="butt" stroke-linejoin="miter"/><g fill="#6796b9" stroke="none" stroke-width="0"><path d="M41.53998,320.93699c0,9.35764 -14.49681,15.86413 -14.49681,15.86413c0,0 -14.90925,-6.66069 -14.90925,-16.01833c0,-4.72118 2.97487,-10.62599 8.50062,-10.75282c3.56211,-0.08177 4.31305,4.7846 6.40864,4.29465c1.31904,-0.3084 3.006,-4.27767 7.16358,-4.36041c4.00696,-0.07975 7.33323,4.80537 7.33323,10.97278z" stroke-linecap="butt" stroke-linejoin="miter"/><g stroke-linecap="butt" stroke-linejoin="miter"><path d="M93.74871,316.14821c0,-5.18818 4.20585,-9.39403 9.39403,-9.39403c5.18818,0 9.39403,4.20585 9.39403,9.39403c0,5.18818 -4.20585,9.39403 -9.39403,9.39403c-5.18818,0 -9.39403,-4.20585 -9.39403,-9.39403z"/><path d="M89.76337,332.80126c0,-5.18818 7.90653,-10.67503 13.09471,-10.67503c5.18818,0 14.37571,5.34452 14.37571,10.5327c0,5.18818 -14.09104,3.98534 -14.09104,3.98534c0,0 -13.37937,1.34517 -13.37937,-3.84301z"/></g><path d="M64.72838,308.37746c0.42922,-0.92531 0.64393,-1.38797 0.94281,-1.53044c0.25957,-0.12378 0.56439,-0.12378 0.82396,0c0.29888,0.14247 0.51359,0.60513 0.9428,1.53044l3.41895,7.37022c0.127,0.27354 0.19042,0.41031 0.28869,0.51505c0.08677,0.09268 0.19302,0.16682 0.31149,0.21755c0.13405,0.05737 0.28905,0.07307 0.59905,0.1045l8.35139,0.84698c1.04849,0.10632 1.57264,0.15949 1.80607,0.38858c0.20265,0.19898 0.29684,0.47762 0.25457,0.75313c-0.04858,0.31712 -0.44016,0.65614 -1.22333,1.33439l-6.23846,5.40208c-0.2314,0.20042 -0.34728,0.30073 -0.42051,0.42276c-0.0649,0.10814 -0.1055,0.22804 -0.11903,0.35204c-0.01539,0.1402 0.01687,0.28666 0.08158,0.57972l1.74248,7.8936c0.21878,0.99109 0.32817,1.48654 0.17354,1.77052c-0.13442,0.24692 -0.38102,0.41902 -0.66673,0.46552c-0.32891,0.05345 -0.78559,-0.19953 -1.69891,-0.70568l-7.27453,-4.03169c-0.26996,-0.14965 -0.40493,-0.2243 -0.54844,-0.25369c-0.127,-0.02583 -0.25827,-0.02583 -0.38528,0c-0.1435,0.0294 -0.27849,0.10404 -0.54845,0.25369l-7.27449,4.03169c-0.91329,0.50615 -1.36993,0.75912 -1.69887,0.70568c-0.28574,-0.0465 -0.53241,-0.2186 -0.66672,-0.46552c-0.15461,-0.28398 -0.04524,-0.77943 0.17353,-1.77052l1.7424,-7.8936c0.06467,-0.29307 0.09701,-0.43952 0.08166,-0.57972c-0.0136,-0.12399 -0.05414,-0.2439 -0.11904,-0.35204c-0.07332,-0.12203 -0.18909,-0.22234 -0.42061,-0.42276l-6.23831,-5.40208c-0.78319,-0.67825 -1.1748,-1.01727 -1.22349,-1.33439c-0.04227,-0.27551 0.05194,-0.55414 0.25466,-0.75313c0.2334,-0.22909 0.75764,-0.28226 1.80613,-0.38858l8.35137,-0.84698c0.30996,-0.03143 0.46494,-0.04714 0.59895,-0.1045c0.11856,-0.05073 0.22474,-0.12487 0.31162,-0.21755c0.09817,-0.10474 0.16162,-0.24151 0.28853,-0.51505z" stroke-linecap="round" stroke-linejoin="round"/></g><path d="M5.28988,349.03331v-3.30709h150.45136v3.30709z" fill="#6796b9" stroke="none" stroke-width="0" stroke-linecap="butt" stroke-linejoin="miter"/><path d="M149.66482,322.86656c0,0 -1.97194,6.11658 -6.45988,8.82742c-4.43577,2.67932 -11.27631,0.91038 -13.72973,-0.996c-2.52096,-1.95887 -4.83828,-7.21895 -3.81115,-11.25521c1.19016,-4.67692 3.48198,-5.48565 7.93777,-8.08446c4.8643,-2.83707 9.33422,2.09062 9.34249,3.76825c0.01874,3.80212 -2.95818,7.76802 -3.64973,8.24015c-1.02748,0.70146 -2.77458,0.25019 -3.82233,0.15743c-1.79474,-0.1589 -1.1503,-4.40658 -1.1503,-4.40658" fill="none" stroke="#6796b9" stroke-width="3.5" stroke-linecap="round" stroke-linejoin="miter"/><path d="M23,36.66666v-28h101v28z" fill="#e0e0e0" stroke="none" stroke-width="0" stroke-linecap="butt" stroke-linejoin="miter"/><text transform="translate(25,28.66666) scale(0.5,0.5)" font-size="40" xml:space="preserve" fill="#1475e1" fill-rule="nonzero" stroke="none" stroke-width="1" stroke-linecap="butt" stroke-linejoin="miter" stroke-miterlimit="10" stroke-dasharray="" stroke-dashoffset="0" font-family="Sans Serif" font-weight="normal" text-anchor="start" style="mix-blend-mode: normal"><tspan x="0" dy="0">FT Games</tspan></text></g></g></svg>