<svg version="1.1" xmlns="http://www.w3.org/2000/svg" xmlns:xlink="http://www.w3.org/1999/xlink" width="55.73926" height="55.46468" viewBox="0,0,55.73926,55.46468"><defs><radialGradient cx="240" cy="180.00004" r="27.86963" gradientUnits="userSpaceOnUse" id="color-1"><stop offset="0" stop-color="#ff0000" stop-opacity="0.26575"/><stop offset="1" stop-color="#ff0000" stop-opacity="0"/></radialGradient></defs><g transform="translate(-212.13037,-152.2677)"><g data-paper-data="{&quot;isPaintingLayer&quot;:true}" fill-rule="nonzero" stroke="none" stroke-linecap="butt" stroke-linejoin="miter" stroke-miterlimit="10" stroke-dasharray="" stroke-dashoffset="0" style="mix-blend-mode: normal"><path d="M212.13037,202.85473c0,-6.68504 0,-34.16515 0,-45.14241c0,-2.55485 2.48177,-5.44461 4.84316,-5.44461c6.19026,0 33.17569,0 44.88064,0c3.1738,0 6.01546,2.90868 6.01546,5.95088c0,11.57196 0,38.02011 0,44.1449c0,2.27513 -2.7987,5.36889 -5.56711,5.36889c-11.20359,0 -39.07039,0 -45.45976,0c-2.4419,0 -4.71238,-2.17742 -4.71238,-4.87766z" fill="#071824" stroke-width="0"/><path d="M212.13037,202.85472c0,-6.68504 0,-34.16515 0,-45.14241c0,-2.55485 2.48177,-5.44461 4.84316,-5.44461c6.19026,0 33.17569,0 44.88064,0c3.1738,0 6.01546,2.90868 6.01546,5.95088c0,11.57196 0,38.02011 0,44.1449c0,2.27513 -2.7987,5.36889 -5.56711,5.36889c-11.20359,0 -39.07039,0 -45.45976,0c-2.4419,0 -4.71238,-2.17742 -4.71238,-4.87766z" fill="url(#color-1)" stroke-width="0"/><path d="M227.52454,182.8227v-10h11.25v10z" fill="#ffffff" stroke-width="0"/><path d="M252.46412,168.68773l-3.51292,3.51292l1.79023,1.79026c0.63503,0.63502 0.63503,1.66188 0,2.29015l-1.17548,1.17547c0.79716,1.76322 1.24303,3.72235 1.24303,5.78281c0,7.76221 -6.28948,14.05168 -14.05168,14.05168c-7.7622,0 -14.05168,-6.28273 -14.05168,-14.04494c0,-7.76218 6.28948,-14.05168 14.05168,-14.05168c2.06046,0 4.01959,0.44588 5.78281,1.24303l1.17548,-1.17547c0.63503,-0.63502 1.66188,-0.63502 2.29016,0l1.79024,1.79023l3.51292,-3.51292zM256.48371,166.76239h-1.62135c-0.44587,0 -0.81067,0.36482 -0.81067,0.81067c0,0.44588 0.3648,0.81067 0.81067,0.81067h1.62135c0.44587,0 0.81067,-0.3648 0.81067,-0.81067c0,-0.44585 -0.3648,-0.81067 -0.81067,-0.81067zM252.43034,162.70899c-0.44587,0 -0.81067,0.36482 -0.81067,0.81067v1.62135c0,0.44588 0.3648,0.81067 0.81067,0.81067c0.44587,0 0.81067,-0.3648 0.81067,-0.81067v-1.62135c0,-0.44585 -0.3648,-0.81067 -0.81067,-0.81067zM254.7205,166.4246l1.14845,-1.14846c0.31751,-0.31752 0.31751,-0.83094 0,-1.14846c-0.31752,-0.31752 -0.83094,-0.31752 -1.14845,0l-1.14845,1.14846c-0.31752,0.3175 -0.31752,0.83094 0,1.14846c0.32427,0.3175 0.8377,0.3175 1.14845,0zM250.14019,166.4246c0.31751,0.3175 0.83094,0.3175 1.14845,0c0.31751,-0.31752 0.31751,-0.83096 0,-1.14846l-1.14845,-1.14846c-0.31751,-0.31752 -0.83094,-0.31752 -1.14846,0c-0.31751,0.31752 -0.31751,0.83094 0,1.14846zM254.7205,168.7215c-0.31751,-0.31752 -0.83094,-0.31752 -1.14845,0c-0.31752,0.31752 -0.31752,0.83094 0,1.14846l1.14845,1.14846c0.31752,0.3175 0.83094,0.3175 1.14845,0c0.31751,-0.31752 0.31751,-0.83097 0,-1.14846zM230.27192,181.08429c0,-2.38472 1.93886,-4.32359 4.32359,-4.32359c0.59449,0 1.0809,-0.4864 1.0809,-1.0809c0,-0.59449 -0.4864,-1.0809 -1.0809,-1.0809c-3.57372,0 -6.48539,2.91168 -6.48539,6.48539c0,0.59449 0.4864,1.0809 1.0809,1.0809c0.59449,0 1.0809,-0.4864 1.0809,-1.0809z" fill="#de1111" stroke-width="1"/></g></g></svg>