<svg version="1.1" xmlns="http://www.w3.org/2000/svg" xmlns:xlink="http://www.w3.org/1999/xlink" width="93.11735" height="122.51447" viewBox="0,0,93.11735,122.51447"><g transform="translate(-193.44133,-118.74277)"><g data-paper-data="{&quot;isPaintingLayer&quot;:true}" fill-rule="nonzero" stroke="none" stroke-linejoin="miter" stroke-miterlimit="10" stroke-dasharray="" stroke-dashoffset="0" style="mix-blend-mode: normal"><path d="M226.84796,195.66844v-33.33333h31.33333v33.33333z" fill="none" stroke-width="0" stroke-linecap="butt"/><path d="M273.99999,198.14063c0,8.96875 -3.22396,16.47916 -9.67187,22.53125c-6.4375,6.04166 -14.23438,9.0625 -23.39063,9.0625c-11.55209,0 -20.26562,-3.70834 -26.14062,-11.125c-5.86459,-7.42709 -8.79687,-17.00521 -8.79687,-28.73437c0,-16.97916 4.82291,-31.15625 14.46875,-42.53125c9.64584,-11.38541 22.82291,-17.07812 39.53125,-17.07812c3.375,0 5.83854,0.42188 7.39063,1.26563c1.5625,0.84375 2.60938,2.11459 3.14063,3.8125c0.53125,1.6875 0.79688,3.82291 0.79688,6.40625c0,2.57291 -0.22396,4.61459 -0.67187,6.125c-0.4375,1.51041 -0.96875,2.66666 -1.59375,3.46875c-0.61459,0.79166 -1.5,1.36459 -2.65625,1.71875c-1.51041,0.54166 -4.08854,0.8125 -7.73437,0.8125c-3.64584,0 -7.18229,0.625 -10.60938,1.875c-3.41666,1.23959 -6.10416,2.74479 -8.0625,4.51563c-3.90625,3.64584 -6.30729,6.9375 -7.20312,9.875l-0.65625,1.85938c3.29166,-1.51041 6.57813,-2.26562 9.85938,-2.26562c8.80209,0 16.33334,2.91146 22.59375,8.73438c6.27084,5.82291 9.40625,12.38021 9.40625,19.67188zM240.40624,207.87501c6.84375,0 10.26563,-2.97916 10.26563,-8.9375c0,-2.04166 -0.78125,-3.95312 -2.34375,-5.73437c-1.55209,-1.78125 -4.04166,-2.67187 -7.46875,-2.67187c-3.41666,0 -6.03646,0.82291 -7.85937,2.46875c-1.82291,1.64584 -2.73437,3.3125 -2.73437,5c0,1.6875 0.10938,2.97916 0.32813,3.875c0.22916,0.88541 0.65625,1.85938 1.28125,2.92188c1.23959,2.05209 4.08334,3.07813 8.53125,3.07813z" fill="#000000" stroke-width="1" stroke-linecap="square"/><path d="M193.44134,241.25725v-122.51447h93.11735v122.51447z" fill="none" stroke-width="0" stroke-linecap="butt"/></g></g></svg>