<svg version="1.1" xmlns="http://www.w3.org/2000/svg" xmlns:xlink="http://www.w3.org/1999/xlink" width="720" height="540" viewBox="0,0,720,540"><defs><clipPath id="clip-1"><rect x="-240" y="-180" transform="scale(0.5,0.5)" width="1440" height="1080" fill="none" fill-rule="nonzero" stroke-width="0.5" stroke-linecap="butt"/></clipPath></defs><g transform="translate(120,90)"><g clip-path="url(#clip-1)" data-paper-data="{&quot;isPaintingLayer&quot;:true}" stroke="none" stroke-linejoin="miter" stroke-miterlimit="10" stroke-dasharray="" stroke-dashoffset="0" style="mix-blend-mode: normal"><path d="M-240,-180h960v720h-960z" fill-opacity="0" fill="#000000" fill-rule="evenodd" stroke-width="1" stroke-linecap="square"/><path d="M-71.16011,-49.08923h39.14961v180.97638h-39.14961z" fill-opacity="0" fill="#000000" fill-rule="evenodd" stroke-width="1" stroke-linecap="square"/><path d="M-33.09761,-6.47986c2.3125,-2.3125 4.82292,-3.46875 7.53125,-3.46875c2.71875,0 4.83333,0.22396 6.34375,0.67188c1.51042,0.4375 2.66146,0.94792 3.45313,1.53125c0.80208,0.57292 1.42708,1.52604 1.875,2.85938c0.44792,1.51042 0.67188,3.86458 0.67188,7.0625v74.26562c0,2.04167 -0.06771,3.57813 -0.20312,4.60938c-0.13542,1.02083 -0.55729,2.19792 -1.26562,3.53125c-1.25,2.39583 -4.71875,3.59375 -10.40625,3.59375c-5.51042,0 -8.93229,-1.15625 -10.26562,-3.46875c-0.70833,-1.33333 -1.13021,-2.55208 -1.26562,-3.65625c-0.13542,-1.11458 -0.20312,-2.73958 -0.20312,-4.875v-47.59375l-1.73437,1.59375c-3.64583,2.76042 -6.75521,4.14063 -9.32812,4.14063c-2.57292,0 -5.26042,-1.55729 -8.0625,-4.67187c-2.80208,-3.11458 -4.20312,-5.86979 -4.20312,-8.26562c0,-2.39583 1.59896,-5.01562 4.79688,-7.85937l21.875,-19.73437z" fill="#000000" fill-rule="nonzero" stroke-width="1" stroke-linecap="square"/><path d="M25.1706,-66.22047h108.78742v180.9764h-108.78742z" fill-opacity="0" fill="#000000" fill-rule="evenodd" stroke-width="1" stroke-linecap="square"/><path d="M101.63934,47.31078c3.64583,0 6.24479,0.42188 7.79688,1.26563c1.55208,0.84375 2.59375,2.13542 3.125,3.875c0.54167,1.72917 0.8125,3.99479 0.8125,6.79688c0,2.80208 -0.29167,5.04688 -0.875,6.73438c-0.57292,1.6875 -1.52604,2.84375 -2.85937,3.46875c-1.95833,1.0625 -4.71354,1.59375 -8.26562,1.59375h-52.14062c-3.19792,0 -5.95312,-1.19792 -8.26562,-3.59375c-2.3125,-2.40625 -3.46875,-5.20833 -3.46875,-8.40625c0,-4.80208 1.66667,-9.22396 5,-13.26562c3.33333,-4.04167 7.35417,-7.50521 12.0625,-10.39062c4.71875,-2.89583 9.43229,-5.73958 14.14063,-8.53125c4.70833,-2.80208 8.72917,-5.97917 12.0625,-9.53125c3.33333,-3.5625 5,-7.34375 5,-11.34375c0,-0.80208 -0.3125,-1.93229 -0.9375,-3.39062c-0.61458,-1.46875 -1.30208,-2.67187 -2.0625,-3.60937c-0.75,-0.9375 -1.92708,-1.80208 -3.53125,-2.59375c-1.59375,-0.80208 -3.81771,-1.20312 -6.67187,-1.20312c-2.84375,0 -5.3125,1.04688 -7.40625,3.14063c-2.08333,2.08333 -3.25521,4.14583 -3.51562,6.1875l-0.53125,3.0625v0.8125c0,1.94792 -0.06771,3.41146 -0.20312,4.39063c-0.13542,0.97917 -0.55729,2.08854 -1.26562,3.32813c-1.33333,2.13542 -4.80208,3.20313 -10.40625,3.20313c-6.21875,0 -9.90625,-1.6875 -11.0625,-5.0625c-0.44792,-1.42708 -0.67187,-3.69271 -0.67187,-6.79687c0,-9.25 3.3125,-17.54167 9.9375,-24.875c6.625,-7.33333 15.29167,-11 26,-11c10.70833,0 19.39583,3.71354 26.0625,11.14063c6.66667,7.41667 10,15.88021 10,25.39063c0,5.07292 -1.11458,9.875 -3.34375,14.40625c-2.21875,4.53125 -4.88021,8.17708 -7.98437,10.9375c-6.58333,5.86458 -12.45312,9.81771 -17.60937,11.85938l-3.32812,1.34375v0.65625z" fill="#000000" fill-rule="nonzero" stroke-width="1" stroke-linecap="square"/><path d="M139.46194,-57.04199h108.78738v180.97638h-108.78738z" fill-opacity="0" fill="#000000" fill-rule="evenodd" stroke-width="1" stroke-linecap="square"/><path d="M188.72757,-19.24512c10.9375,0 19.55729,3.11458 25.85938,9.34375c6.3125,6.21875 9.46875,13.21875 9.46875,21c0,7.77083 -3.46354,13.39063 -10.39062,16.85938v0.9375c0.88542,0.44792 2.19271,1.40625 3.92188,2.875c1.73958,1.45833 3.14063,2.90104 4.20313,4.32813c2.9375,3.72917 4.40625,7.99479 4.40625,12.79688c0,9.51042 -3.55729,17.35417 -10.67187,23.53125c-7.11458,6.17708 -16.04687,9.26563 -26.79687,9.26563c-10.66667,0 -19.55729,-3.10937 -26.67187,-9.32812c-2.66667,-2.40625 -5.02083,-5.5625 -7.0625,-9.46875c-0.70833,-1.42708 -1.19792,-2.58333 -1.46875,-3.46875l-0.26562,-1.32812c-0.97917,-2.9375 -1.46875,-5.33854 -1.46875,-7.20312c0,-5.15625 4.35938,-7.73437 13.07813,-7.73437c3.55208,0 5.90625,0.44271 7.0625,1.32813c1.51042,1.15625 2.84375,3.46875 4,6.9375c0.88542,2.84375 3.32813,4.97917 7.32813,6.40625c1.6875,0.53125 3.55729,0.79688 5.60938,0.79688c4.70833,0 8.17188,-0.95312 10.39063,-2.85937c2.21875,-1.91667 3.32813,-4.07292 3.32813,-6.46875c0,-2.40625 -1.08854,-4.52083 -3.26562,-6.34375c-2.17708,-1.82292 -4.75521,-2.73437 -7.73437,-2.73437c-2.96875,0 -4.98958,-0.08854 -6.0625,-0.26562c-1.0625,-0.17708 -2.21875,-0.61979 -3.46875,-1.32812c-2.39583,-1.15625 -3.59375,-4.57812 -3.59375,-10.26562c0,-6.22917 1.64583,-9.92187 4.9375,-11.07812c1.51042,-0.4375 3.81771,-0.65625 6.92188,-0.65625c6.76042,0 10.14063,-1.73437 10.14063,-5.20312c0,-1.86458 -0.89062,-3.64062 -2.67187,-5.32812c-1.77083,-1.6875 -4.23437,-2.53125 -7.39062,-2.53125c-3.15625,0 -5.67187,0.53125 -7.54687,1.59375c-1.86458,1.0625 -3.01562,2.13021 -3.45312,3.20313l-0.8125,1.59375c-2.04167,4.44792 -4.97396,6.67188 -8.79687,6.67188c-2.21875,0 -4.66146,-0.80208 -7.32812,-2.40625c-4.44792,-2.57292 -6.67187,-5.54687 -6.67187,-8.92187c0,-1.42708 1.02604,-4.45312 3.07813,-9.07812c0.35417,-0.80208 1.32813,-2.20312 2.92188,-4.20312c1.60417,-2 3.44792,-3.75521 5.53125,-5.26562c2.09375,-1.51042 5.02604,-2.88542 8.79688,-4.125c3.78125,-1.25 7.98438,-1.875 12.60938,-1.875z" fill="#000000" fill-rule="nonzero" stroke-width="1" stroke-linecap="square"/><path d="M264.53806,-57.04199h108.78738v180.97638h-108.78738z" fill-opacity="0" fill="#000000" fill-rule="evenodd" stroke-width="1" stroke-linecap="square"/><path d="M324.8662,-14.55762c0.70833,-1.25 1.92708,-2.11979 3.65625,-2.60937c1.73958,-0.48958 4.01042,-0.73437 6.8125,-0.73437c2.80208,0 5.04688,0.29167 6.73438,0.875c1.6875,0.57292 2.88542,1.50521 3.59375,2.79688c0.71875,1.28125 1.14063,2.45833 1.26563,3.53125c0.13542,1.0625 0.20313,2.61458 0.20313,4.65625v74.14063c0,3.45833 -0.42187,6.01042 -1.26562,7.65625c-0.84375,1.64583 -2.13542,2.73438 -3.875,3.26563c-1.72917,0.53125 -3.88542,0.79688 -6.46875,0.79688c-2.57292,0 -4.61458,-0.21875 -6.125,-0.65625c-1.51042,-0.44792 -2.66667,-0.97917 -3.46875,-1.59375c-0.79167,-0.625 -1.36458,-1.51562 -1.71875,-2.67187c-0.54167,-1.51042 -0.8125,-3.82292 -0.8125,-6.9375v-16.26562h-36.125c-6.21875,0 -9.90625,-1.6875 -11.0625,-5.0625c-0.44792,-1.42708 -0.67187,-3.33854 -0.67187,-5.73437c0,-2.40625 0.13542,-4.18229 0.40625,-5.32812l11.0625,-44.67187c0.53125,-2.04167 0.99479,-3.59375 1.39063,-4.65625c0.40625,-1.07292 1.20833,-2.09896 2.40625,-3.07812c1.19792,-0.97917 2.72917,-1.46875 4.59375,-1.46875c1.875,0 3.92188,0.3125 6.14063,0.9375c6.21875,1.6875 9.32813,4.53125 9.32813,8.53125c0,1.42708 -0.30729,3.29167 -0.92187,5.59375c-0.09375,0.17708 -0.14062,0.3125 -0.14062,0.40625l-8.14062,32.53125h21.73438v-36.39062c0,-2.05208 0.06771,-3.5625 0.20313,-4.53125c0.13542,-0.97917 0.55729,-2.08854 1.26563,-3.32812z" fill="#000000" fill-rule="nonzero" stroke-width="1" stroke-linecap="square"/><path d="M-89.12073,99.23358h108.78738v180.97638h-108.78738z" fill-opacity="0" fill="#000000" fill-rule="evenodd" stroke-width="1" stroke-linecap="square"/><path d="M-59.32385,138.23358l20.26563,0.14063h12.53125c2.13542,0 3.69271,0.06771 4.67188,0.20313c0.97917,0.125 2.13542,0.54688 3.46875,1.26563c2.39583,1.23958 3.59375,4.79167 3.59375,10.65625c0,5.33333 -1.10937,8.57813 -3.32812,9.73438c-1.25,0.70833 -2.34375,1.13021 -3.28125,1.26563c-0.92708,0.13542 -2.36979,0.20313 -4.32812,0.20313h-23.32812c-0.17708,1.0625 -0.61979,4.44271 -1.32812,10.14063c0.97917,-0.1875 2.53646,-0.28125 4.67188,-0.28125c8.4375,0 16.03125,3.18229 22.78125,9.54688c6.76042,6.35417 10.14063,14.13021 10.14063,23.32813c0,9.19792 -3.20312,17.10938 -9.60937,23.73438c-6.39583,6.61458 -14.34896,9.92188 -23.85937,9.92188c-8.26042,0 -15.72396,-2.08854 -22.39062,-6.26562c-1.51042,-0.96875 -2.61979,-1.8125 -3.32812,-2.53125l-1.07812,-0.92187c-3.375,-2.9375 -5.0625,-5.60417 -5.0625,-8c0,-2.40625 1.64583,-5.29687 4.9375,-8.67187c2.66667,-2.9375 5.24479,-4.40625 7.73438,-4.40625c2.48958,0 5.46354,1.42188 8.92188,4.26563c1.60417,1.875 4.38021,2.8125 8.32813,2.8125c3.95833,0 6.89063,-0.84375 8.79688,-2.53125c1.91667,-1.69792 2.875,-4.03125 2.875,-7c0,-2.97917 -1.04687,-5.33333 -3.14062,-7.0625c-2.08333,-1.73958 -4.45833,-2.60937 -7.125,-2.60937c-2.66667,0 -4.79687,0.79688 -6.39062,2.39063c-2.40625,2.05208 -4.83333,3.07813 -7.28125,3.07813c-2.4375,0 -5.23437,-0.84375 -8.39062,-2.53125c-3.15625,-1.69792 -5.22396,-3.05729 -6.20312,-4.07812c-0.97917,-1.02083 -1.46875,-2.10937 -1.46875,-3.26562c0,-1.15625 0.89063,-8.30729 2.67188,-21.45312c1.78125,-13.15625 2.71354,-20 2.79688,-20.53125c0.09375,-0.54167 0.40625,-1.47917 0.9375,-2.8125c0.53125,-1.33333 1.17188,-2.53125 1.92188,-3.59375c0.76042,-1.07292 1.91667,-2.03125 3.46875,-2.875c1.5625,-0.84375 3.36458,-1.26562 5.40625,-1.26562z" fill="#000000" fill-rule="nonzero" stroke-width="1" stroke-linecap="square"/><path d="M36.979,89.5118h108.78742v180.97638h-108.78742z" fill-opacity="0" fill="#000000" fill-rule="evenodd" stroke-width="1" stroke-linecap="square"/><path d="M117.30713,196.65244c0,8.96875 -3.22396,16.47917 -9.67187,22.53125c-6.4375,6.04167 -14.23437,9.0625 -23.39062,9.0625c-11.55208,0 -20.26562,-3.70833 -26.14062,-11.125c-5.86458,-7.42708 -8.79687,-17.00521 -8.79687,-28.73437c0,-16.97917 4.82292,-31.15625 14.46875,-42.53125c9.64583,-11.38542 22.82292,-17.07812 39.53125,-17.07812c3.375,0 5.83854,0.42188 7.39063,1.26563c1.5625,0.84375 2.60938,2.11458 3.14063,3.8125c0.53125,1.6875 0.79688,3.82292 0.79688,6.40625c0,2.57292 -0.22396,4.61458 -0.67187,6.125c-0.4375,1.51042 -0.96875,2.66667 -1.59375,3.46875c-0.61458,0.79167 -1.5,1.36458 -2.65625,1.71875c-1.51042,0.54167 -4.08854,0.8125 -7.73437,0.8125c-3.64583,0 -7.18229,0.625 -10.60937,1.875c-3.41667,1.23958 -6.10417,2.74479 -8.0625,4.51563c-3.90625,3.64583 -6.30729,6.9375 -7.20312,9.875l-0.65625,1.85938c3.29167,-1.51042 6.57813,-2.26562 9.85938,-2.26562c8.80208,0 16.33333,2.91146 22.59375,8.73438c6.27083,5.82292 9.40625,12.38021 9.40625,19.67188zM83.71338,206.38682c6.84375,0 10.26563,-2.97917 10.26563,-8.9375c0,-2.04167 -0.78125,-3.95312 -2.34375,-5.73437c-1.55208,-1.78125 -4.04167,-2.67187 -7.46875,-2.67187c-3.41667,0 -6.03646,0.82292 -7.85937,2.46875c-1.82292,1.64583 -2.73437,3.3125 -2.73437,5c0,1.6875 0.10938,2.97917 0.32813,3.875c0.22917,0.88542 0.65625,1.85938 1.28125,2.92188c1.23958,2.05208 4.08333,3.07813 8.53125,3.07813z" fill="#000000" fill-rule="nonzero" stroke-width="1" stroke-linecap="square"/><path d="M155.75067,99.23358h108.78738v180.97638h-108.78738z" fill-opacity="0" fill="#000000" fill-rule="evenodd" stroke-width="1" stroke-linecap="square"/><path d="M225.81317,138.63983c6.21875,0 9.86458,1.6875 10.9375,5.0625c0.53125,1.42708 0.79688,3.91667 0.79688,7.46875c0,3.55208 -1.15625,7.97396 -3.46875,13.26563c-2.3125,5.29167 -5.09375,10.51563 -8.34375,15.67188c-3.23958,5.15625 -6.5,10.35417 -9.78125,15.59375c-7.82292,12.70833 -11.73437,22.93229 -11.73437,30.67188c0,1.94792 -0.08854,3.39063 -0.26562,4.32813c-0.17708,0.92708 -0.625,1.90625 -1.34375,2.9375c-0.70833,1.02083 -1.88542,1.70833 -3.53125,2.0625c-1.64583,0.35417 -3.89062,0.53125 -6.73437,0.53125c-2.84375,0 -5.08854,-0.17708 -6.73437,-0.53125c-1.63542,-0.35417 -2.8125,-1.0625 -3.53125,-2.125c-0.70833,-1.07292 -1.13021,-2.07292 -1.26562,-3c-0.13542,-0.9375 -0.20312,-2.43229 -0.20312,-4.48437c0,-5.77083 0.97917,-11.69792 2.9375,-17.78125c1.95833,-6.09375 4.3125,-11.54167 7.0625,-16.34375c2.76042,-4.80208 5.51563,-9.22396 8.26563,-13.26562c2.76042,-4.04167 5.11458,-7.50521 7.0625,-10.39062c1.95833,-2.89583 2.9375,-4.92187 2.9375,-6.07812h-30.39062c-3.55208,0 -6.13021,-0.44271 -7.73437,-1.32812c-1.60417,-0.88542 -2.67187,-2.17187 -3.20312,-3.85937c-0.53125,-1.69792 -0.79687,-3.92187 -0.79687,-6.67187c0,-2.76042 0.26563,-4.98437 0.79688,-6.67187c0.53125,-1.6875 1.375,-2.84375 2.53125,-3.46875c1.875,-1.0625 4.45313,-1.59375 7.73438,-1.59375z" fill="#000000" fill-rule="nonzero" stroke-width="1" stroke-linecap="square"/><path d="M267.1811,103.74802h108.78742v180.97638h-108.78742z" fill-opacity="0" fill="#000000" fill-rule="evenodd" stroke-width="1" stroke-linecap="square"/><path d="M350.4467,209.4199c0,9.94792 -3.625,17.96875 -10.875,24.0625c-7.23958,6.08333 -15.4375,9.125 -24.59375,9.125c-9.15625,0 -17.35937,-3.02083 -24.60937,-9.0625c-7.23958,-6.04167 -10.85937,-14.08333 -10.85937,-24.125c0,-3.73958 0.91146,-7.36458 2.73438,-10.875c1.82292,-3.51042 3.625,-6.0625 5.40625,-7.65625l2.79688,-2.53125c-0.625,-0.54167 -1.38021,-1.25521 -2.26562,-2.14062c-0.88542,-0.88542 -2.0625,-2.81771 -3.53125,-5.79687c-1.46875,-2.97917 -2.20312,-6.06771 -2.20312,-9.26562c0,-8.70833 3.28646,-15.90625 9.85938,-21.59375c6.58333,-5.69792 14.22917,-8.54687 22.9375,-8.54687c8.70833,0 16.26042,2.89063 22.65625,8.67188c6.40625,5.78125 9.60938,13.15625 9.60938,22.125c0,2.66667 -0.64583,5.38021 -1.9375,8.14063c-1.28125,2.75 -2.58854,4.83854 -3.92187,6.26563l-2,2.14063c0.80208,0.61458 1.80208,1.52604 3,2.73438c1.19792,1.19792 2.79688,3.61979 4.79688,7.26563c2,3.63542 3,7.32292 3,11.0625zM323.91545,171.02928c0,-1.78125 -0.75521,-3.44792 -2.26562,-5c-1.51042,-1.5625 -3.75521,-2.34375 -6.73437,-2.34375c-2.97917,0 -5.18229,0.75521 -6.60937,2.26563c-1.41667,1.51042 -2.125,3.17708 -2.125,5c0,1.82292 0.77604,3.53646 2.32813,5.14063c1.5625,1.59375 3.78646,2.39063 6.67188,2.39063c2.88542,0 5.0625,-0.79687 6.53125,-2.39062c1.46875,-1.60417 2.20313,-3.29167 2.20313,-5.0625zM306.18107,216.88865c2.04167,2.125 5.01563,3.1875 8.92188,3.1875c3.91667,0 6.85417,-1.0625 8.8125,-3.1875c1.95833,-2.13542 2.9375,-4.42708 2.9375,-6.875c0,-2.44792 -1,-4.73437 -3,-6.85937c-2,-2.13542 -4.9375,-3.20312 -8.8125,-3.20312c-3.86458,0 -6.81771,1.04688 -8.85937,3.14063c-2.04167,2.08333 -3.0625,4.36979 -3.0625,6.85938c0,2.48958 1.02083,4.80208 3.0625,6.9375z" fill="#000000" fill-rule="nonzero" stroke-width="1" stroke-linecap="square"/><path d="M389.6142,-26.45407h108.78735v180.97638h-108.78735z" fill-opacity="0" fill="#000000" fill-rule="evenodd" stroke-width="1" stroke-linecap="square"/><path d="M401.9423,42.81155c0,-8.97917 3.19792,-16.48958 9.59375,-22.53125c6.40625,-6.04167 14.1875,-9.0625 23.34375,-9.0625c11.64583,0 20.40104,3.71354 26.26563,11.14063c5.86458,7.41667 8.79688,16.98958 8.79688,28.71875c0,16.97917 -4.80208,31.16146 -14.40625,42.54688c-9.59375,11.375 -22.70312,17.0625 -39.32812,17.0625h-0.79687c-3.375,0 -5.77604,-0.44792 -7.20312,-1.34375c-2.48958,-1.51042 -3.73437,-5.02083 -3.73437,-10.53125c0,-6.21875 1.69271,-9.86458 5.07813,-10.9375c1.51042,-0.53125 4.08333,-0.79687 7.71875,-0.79687c3.64583,0 7.18229,-0.61979 10.60938,-1.85937c3.42708,-1.25 6.07292,-2.76042 7.9375,-4.53125c3.82292,-3.64583 6.26563,-6.9375 7.32813,-9.875l0.67188,-1.85937c-3.38542,1.51042 -6.71875,2.26563 -10,2.26563c-8.71875,0 -16.21354,-2.91146 -22.48437,-8.73437c-6.26042,-5.82292 -9.39062,-12.38021 -9.39062,-19.67187zM435.41105,33.07718c-6.84375,0 -10.26562,2.97917 -10.26562,8.9375c0,2.04167 0.77604,3.95313 2.32813,5.73438c1.5625,1.78125 4.07292,2.67188 7.53125,2.67188c3.46875,0 6.11458,-0.82292 7.9375,-2.46875c1.82292,-1.64583 2.73438,-3.29167 2.73438,-4.9375c0,-1.64583 -0.11458,-2.93229 -0.34375,-3.85937c-0.21875,-0.9375 -0.68229,-1.9375 -1.39062,-3c-1.33333,-2.05208 -4.17708,-3.07812 -8.53125,-3.07812z" fill="#000000" fill-rule="nonzero" stroke-width="1" stroke-linecap="square"/><path d="M383.5932,123.9344h108.78735v180.97638h-108.78735z" fill-opacity="0" fill="#000000" fill-rule="evenodd" stroke-width="1" stroke-linecap="square"/><path d="M402.2963,173.23126c2.58333,-3.60417 6.20833,-6.63021 10.875,-9.07812c4.66667,-2.44792 10.06771,-3.67187 16.20313,-3.67187c6.13542,0 11.48958,1.20313 16.0625,3.60938c4.58333,2.39583 8.18229,5.375 10.79688,8.9375c2.625,3.55208 4.73958,7.72917 6.34375,12.53125c2.66667,8 4,16.48438 4,25.45313c0,16.09375 -3.46875,28.84896 -10.40625,38.26563c-2.57292,3.5625 -6.15104,6.5 -10.73437,8.8125c-4.57292,2.30208 -9.88542,3.45313 -15.9375,3.45313c-6.04167,0 -11.39583,-1.17708 -16.0625,-3.53125c-4.66667,-2.35417 -8.3125,-5.26042 -10.9375,-8.71875c-2.61458,-3.46875 -4.76562,-7.60417 -6.45312,-12.40625c-2.58333,-7.64583 -3.875,-16.3125 -3.875,-26c0,-8.88542 1.04167,-16.48437 3.125,-22.79687c2.09375,-6.3125 4.42708,-11.26562 7,-14.85937zM429.24943,237.82501c9.14583,0 13.71875,-8.71354 13.71875,-26.14062v-0.79687c0,-17.86458 -4.53125,-26.79687 -13.59375,-26.79687c-9.0625,0 -13.59375,8.95833 -13.59375,26.875c0,17.90625 4.48958,26.85938 13.46875,26.85938z" fill="#000000" fill-rule="nonzero" stroke-width="1" stroke-linecap="square"/></g></g></svg>