<svg version="1.1" xmlns="http://www.w3.org/2000/svg" xmlns:xlink="http://www.w3.org/1999/xlink" width="103.14826" height="104.05312" viewBox="0,0,103.14826,104.05312"><g transform="translate(-44.93528,-116.38554)"><g data-paper-data="{&quot;isPaintingLayer&quot;:true}" fill="#000000" fill-rule="nonzero" stroke="none" stroke-width="1" stroke-linecap="square" stroke-linejoin="miter" stroke-miterlimit="10" stroke-dasharray="" stroke-dashoffset="0" style="mix-blend-mode: normal"><path d="M49.02902,134.36992c-0.90625,0 -1.64062,-0.23437 -2.20312,-0.70312c-0.55208,-0.45833 -0.82812,-1.06771 -0.82812,-1.82812c0,-0.47917 0.10938,-0.91667 0.32813,-1.3125c0.22917,-0.39583 0.53646,-0.70833 0.92188,-0.9375c0.38542,-0.22917 0.8125,-0.34375 1.28125,-0.34375c0.46875,0 0.84896,0.11979 1.14063,0.35938c0.29167,0.22917 0.4375,0.53646 0.4375,0.92188c0,0.30208 -0.06771,0.54167 -0.20312,0.71875c-0.11458,-0.15625 -0.27083,-0.27604 -0.46875,-0.35937c-0.1875,-0.08333 -0.38542,-0.125 -0.59375,-0.125c-0.375,0 -0.68229,0.11979 -0.92187,0.35938c-0.22917,0.25 -0.34375,0.57292 -0.34375,0.96875c0,0.40625 0.11458,0.72917 0.34375,0.96875c0.22917,0.25 0.51563,0.375 0.85938,0.375c0.4375,0 0.8125,-0.19271 1.125,-0.57812c0.3125,-0.38542 0.54688,-0.95312 0.70313,-1.70312l0.9375,-4.125h-0.07812c-0.33333,0.46875 -0.73958,0.82813 -1.21875,1.07812c-0.47917,0.25 -1.00521,0.375 -1.57812,0.375c-0.71875,0 -1.35417,-0.19271 -1.90625,-0.57812c-0.54167,-0.38542 -0.95833,-0.93229 -1.25,-1.64062c-0.29167,-0.71875 -0.4375,-1.55208 -0.4375,-2.5c0,-1.375 0.29688,-2.625 0.89063,-3.75c0.59375,-1.125 1.41146,-2.01042 2.45313,-2.65625c1.05208,-0.64583 2.20313,-0.96875 3.45313,-0.96875c1.0625,0 1.90104,0.22917 2.51563,0.6875c0.61458,0.45833 0.92188,1.08854 0.92188,1.89063c0,0.53125 -0.13021,0.95833 -0.39062,1.28125c-0.26042,0.32292 -0.60417,0.48438 -1.03125,0.48438c-0.22917,0 -0.44792,-0.04687 -0.65625,-0.14062c-0.20833,-0.10417 -0.38021,-0.25 -0.51562,-0.4375c0.22917,-0.14583 0.42188,-0.38021 0.57813,-0.70312c0.15625,-0.33333 0.23438,-0.67187 0.23438,-1.01562c0,-0.36458 -0.10937,-0.65104 -0.32812,-0.85937c-0.21875,-0.20833 -0.52604,-0.3125 -0.92187,-0.3125c-0.72917,0 -1.43229,0.32292 -2.10937,0.96875c-0.66667,0.63542 -1.20312,1.46875 -1.60937,2.5c-0.40625,1.03125 -0.60937,2.11458 -0.60937,3.25c0,0.9375 0.14583,1.65104 0.4375,2.14063c0.30208,0.48958 0.73438,0.73438 1.29688,0.73438c0.66667,0 1.25521,-0.35417 1.76563,-1.0625c0.52083,-0.70833 0.9375,-1.73958 1.25,-3.09375l2.20313,0.01563l-1.35937,6.26562c-0.39583,1.85417 -0.95833,3.21354 -1.6875,4.07813c-0.72917,0.875 -1.67187,1.3125 -2.82812,1.3125zM58.17171,130.61992c-0.92708,0 -1.64583,-0.23958 -2.15625,-0.71875c-0.51042,-0.47917 -0.76562,-1.22917 -0.76562,-2.25c0,-0.85417 0.16667,-1.79687 0.5,-2.82812c0.34375,-1.03125 0.89583,-1.92187 1.65625,-2.67187c0.76042,-0.76042 1.72396,-1.14062 2.89063,-1.14062c1.36458,0 2.04688,0.59896 2.04688,1.79688c0,0.69792 -0.19792,1.33854 -0.59375,1.92188c-0.39583,0.58333 -0.92708,1.05208 -1.59375,1.40625c-0.65625,0.35417 -1.35417,0.55729 -2.09375,0.60938c-0.03125,0.375 -0.04687,0.625 -0.04687,0.75c0,0.60417 0.10417,1.01562 0.3125,1.23437c0.21875,0.21875 0.5625,0.32813 1.03125,0.32813c0.67708,0 1.25521,-0.15625 1.73438,-0.46875c0.47917,-0.3125 1,-0.78646 1.5625,-1.42187h0.64063c-1.375,2.30208 -3.08333,3.45312 -5.125,3.45312zM58.20296,125.83867c0.45833,-0.02083 0.89583,-0.17708 1.3125,-0.46875c0.41667,-0.30208 0.75,-0.68229 1,-1.14062c0.26042,-0.46875 0.39063,-0.95833 0.39063,-1.46875c0,-0.5 -0.15625,-0.75 -0.46875,-0.75c-0.44792,0 -0.88542,0.39063 -1.3125,1.17188c-0.42708,0.78125 -0.73437,1.66667 -0.92187,2.65625zM73.69509,130.61992c-0.66667,0 -1.15104,-0.19792 -1.45312,-0.59375c-0.29167,-0.39583 -0.4375,-0.90104 -0.4375,-1.51562c0,-0.26042 0.03125,-0.55208 0.09375,-0.875c0.0625,-0.33333 0.125,-0.65625 0.1875,-0.96875c0.07292,-0.3125 0.125,-0.51042 0.15625,-0.59375c0.09375,-0.4375 0.18229,-0.86458 0.26563,-1.28125c0.09375,-0.42708 0.14063,-0.77083 0.14063,-1.03125c0,-0.63542 -0.22396,-0.95312 -0.67187,-0.95312c-0.32292,0 -0.60937,0.16146 -0.85937,0.48438c-0.25,0.3125 -0.44792,0.72396 -0.59375,1.23438l-1.28125,5.98437h-2.67187l1.35938,-6.4375c0.03125,-0.14583 0.04688,-0.30208 0.04688,-0.46875c0,-0.54167 -0.1875,-0.8125 -0.5625,-0.8125c-0.34375,0 -0.64583,0.16146 -0.90625,0.48438c-0.25,0.3125 -0.44792,0.72917 -0.59375,1.25l-1.26562,5.98437h-2.6875l1.96875,-9.32812h2.6875l-0.20312,0.96875c0.63542,-0.70833 1.39583,-1.0625 2.28125,-1.0625c1.09375,0 1.73438,0.53646 1.92188,1.60938c0.67708,-1.0625 1.54167,-1.59375 2.59375,-1.59375c0.63542,0 1.13542,0.17708 1.5,0.53125c0.375,0.34375 0.5625,0.86979 0.5625,1.57813c0,0.36458 -0.04687,0.77083 -0.14062,1.21875c-0.08333,0.4375 -0.20312,0.96875 -0.35937,1.59375c-0.10417,0.38542 -0.19792,0.76563 -0.28125,1.14063c-0.07292,0.36458 -0.10937,0.65104 -0.10937,0.85937c0,0.25 0.05208,0.44271 0.15625,0.57813c0.11458,0.13542 0.3125,0.20313 0.59375,0.20313c0.29167,0 0.49479,-0.03646 0.60938,-0.10937c-0.07292,0.63542 -0.30208,1.11458 -0.6875,1.4375c-0.375,0.32292 -0.82812,0.48438 -1.35937,0.48438zM85.77464,117.69804c-0.9375,0.3125 -1.66667,0.82813 -2.1875,1.54688c-0.52083,0.70833 -0.78125,1.58854 -0.78125,2.64063c0,0.47917 0.04167,0.80729 0.125,0.98438c0.09375,0.16667 0.14063,0.27083 0.14063,0.3125c-1.33333,0 -2,-0.56771 -2,-1.70312c0,-0.77083 0.29688,-1.54167 0.89063,-2.3125c0.59375,-0.78125 1.35417,-1.41667 2.28125,-1.90625c0.92708,-0.5 1.84896,-0.75 2.76562,-0.75c0.45833,0 0.93229,0.08854 1.42188,0.26563l-0.4375,9.82813l4.10938,-9.82812h2.6875l-1.95312,13.73437h-2.6875l1.1875,-8.375l-3.5,8.375h-2.5625l0.375,-8.40625l-3.10937,8.40625h-1.5zM97.58211,120.18242c-0.40625,0 -0.75521,-0.14062 -1.04687,-0.42187c-0.28125,-0.29167 -0.42187,-0.64583 -0.42187,-1.0625c0,-0.40625 0.14063,-0.75521 0.42188,-1.04687c0.29167,-0.29167 0.64063,-0.4375 1.04688,-0.4375c0.41667,0 0.77083,0.14583 1.0625,0.4375c0.29167,0.29167 0.4375,0.64063 0.4375,1.04688c0,0.41667 -0.14583,0.77083 -0.4375,1.0625c-0.29167,0.28125 -0.64583,0.42188 -1.0625,0.42188zM96.31649,130.61992c-0.59375,0 -1.07812,-0.18229 -1.45312,-0.54687c-0.36458,-0.375 -0.54687,-0.9375 -0.54687,-1.6875c0,-0.3125 0.05208,-0.71875 0.15625,-1.21875l1.26563,-5.98437h2.6875l-1.34375,6.34375c-0.05208,0.1875 -0.07812,0.38542 -0.07812,0.59375c0,0.25 0.05729,0.42708 0.17188,0.53125c0.125,0.10417 0.32292,0.15625 0.59375,0.15625c0.36458,0 0.70313,-0.15104 1.01563,-0.45312c0.3125,-0.30208 0.53646,-0.69792 0.67188,-1.1875h0.78125c-0.45833,1.34375 -1.05208,2.25521 -1.78125,2.73437c-0.71875,0.47917 -1.43229,0.71875 -2.14062,0.71875zM106.18833,130.61992c-0.76042,0 -1.31771,-0.19792 -1.67187,-0.59375c-0.35417,-0.40625 -0.53125,-0.91146 -0.53125,-1.51562c0,-0.26042 0.03125,-0.55208 0.09375,-0.875c0.0625,-0.33333 0.125,-0.65625 0.1875,-0.96875c0.07292,-0.3125 0.125,-0.51042 0.15625,-0.59375c0.09375,-0.4375 0.18229,-0.86458 0.26563,-1.28125c0.09375,-0.42708 0.14063,-0.77083 0.14063,-1.03125c0,-0.63542 -0.22396,-0.95312 -0.67187,-0.95312c-0.32292,0 -0.60937,0.16146 -0.85937,0.48438c-0.25,0.3125 -0.44792,0.72396 -0.59375,1.23438l-1.26562,5.98437h-2.6875l1.96875,-9.32812h2.6875l-0.20312,0.96875c0.625,-0.69792 1.35417,-1.04687 2.1875,-1.04687c0.63542,0 1.13542,0.17708 1.5,0.53125c0.375,0.34375 0.5625,0.86979 0.5625,1.57813c0,0.36458 -0.04167,0.77083 -0.125,1.21875c-0.08333,0.4375 -0.20833,0.96875 -0.375,1.59375c-0.10417,0.38542 -0.19792,0.76563 -0.28125,1.14063c-0.07292,0.36458 -0.10937,0.65104 -0.10937,0.85937c0,0.25 0.05208,0.44271 0.15625,0.57813c0.11458,0.13542 0.3125,0.20313 0.59375,0.20313c0.36458,0 0.65625,-0.13021 0.875,-0.39062c0.22917,-0.27083 0.45833,-0.6875 0.6875,-1.25h0.78125c-0.45833,1.375 -0.98958,2.29687 -1.59375,2.76562c-0.60417,0.45833 -1.22917,0.6875 -1.875,0.6875zM111.50035,130.61992c-0.90625,0 -1.61458,-0.23958 -2.125,-0.71875c-0.51042,-0.47917 -0.76562,-1.22917 -0.76562,-2.25c0,-0.85417 0.16667,-1.79687 0.5,-2.82812c0.34375,-1.03125 0.89063,-1.92187 1.64063,-2.67187c0.76042,-0.76042 1.72917,-1.14062 2.90625,-1.14062c1.36458,0 2.04688,0.59896 2.04688,1.79688c0,0.69792 -0.19792,1.33854 -0.59375,1.92188c-0.39583,0.58333 -0.92708,1.05208 -1.59375,1.40625c-0.65625,0.35417 -1.35937,0.55729 -2.10937,0.60938c-0.02083,0.27083 -0.03125,0.45833 -0.03125,0.5625c0,1.03125 0.38542,1.54687 1.15625,1.54687c0.34375,0 0.71354,-0.09375 1.10938,-0.28125c0.40625,-0.1875 0.77083,-0.42708 1.09375,-0.71875c-0.33333,1.84375 -1.41146,2.76562 -3.23437,2.76562zM111.54723,125.83867c0.46875,-0.01042 0.91146,-0.16146 1.32813,-0.45312c0.41667,-0.30208 0.75,-0.6875 1,-1.15625c0.26042,-0.46875 0.39063,-0.95833 0.39063,-1.46875c0,-0.5 -0.15625,-0.75 -0.46875,-0.75c-0.4375,0 -0.86979,0.39583 -1.29687,1.1875c-0.42708,0.78125 -0.74479,1.66146 -0.95312,2.64063z"/><path d="M50.70091,140.09804c-0.9375,0.3125 -1.66667,0.82813 -2.1875,1.54688c-0.52083,0.70833 -0.78125,1.58854 -0.78125,2.64063c0,0.47917 0.04167,0.80729 0.125,0.98438c0.09375,0.16667 0.14063,0.27083 0.14063,0.3125c-1.33333,0 -2,-0.56771 -2,-1.70312c0,-0.77083 0.29688,-1.54167 0.89063,-2.3125c0.59375,-0.78125 1.35417,-1.41667 2.28125,-1.90625c0.92708,-0.5 1.84896,-0.75 2.76563,-0.75c0.45833,0 0.93229,0.08854 1.42188,0.26563l-0.4375,9.82813l4.10938,-9.82812h2.6875l-1.95312,13.73438h-2.6875l1.1875,-8.375l-3.5,8.375h-2.5625l0.375,-8.40625l-3.10937,8.40625h-1.5zM62.50837,142.58241c-0.40625,0 -0.75521,-0.14062 -1.04687,-0.42187c-0.28125,-0.29167 -0.42187,-0.64583 -0.42187,-1.0625c0,-0.40625 0.14063,-0.75521 0.42188,-1.04687c0.29167,-0.29167 0.64063,-0.4375 1.04688,-0.4375c0.41667,0 0.77083,0.14583 1.0625,0.4375c0.29167,0.29167 0.4375,0.64063 0.4375,1.04688c0,0.41667 -0.14583,0.77083 -0.4375,1.0625c-0.29167,0.28125 -0.64583,0.42188 -1.0625,0.42188zM61.24275,153.01991c-0.59375,0 -1.07812,-0.18229 -1.45312,-0.54687c-0.36458,-0.375 -0.54687,-0.9375 -0.54687,-1.6875c0,-0.3125 0.05208,-0.71875 0.15625,-1.21875l1.26563,-5.98437h2.6875l-1.34375,6.34375c-0.05208,0.1875 -0.07812,0.38542 -0.07812,0.59375c0,0.25 0.05729,0.42708 0.17188,0.53125c0.125,0.10417 0.32292,0.15625 0.59375,0.15625c0.36458,0 0.70313,-0.15104 1.01563,-0.45312c0.3125,-0.30208 0.53646,-0.69792 0.67188,-1.1875h0.78125c-0.45833,1.34375 -1.05208,2.25521 -1.78125,2.73438c-0.71875,0.47917 -1.43229,0.71875 -2.14062,0.71875zM71.11459,153.01991c-0.76042,0 -1.31771,-0.19792 -1.67187,-0.59375c-0.35417,-0.40625 -0.53125,-0.91146 -0.53125,-1.51562c0,-0.26042 0.03125,-0.55208 0.09375,-0.875c0.0625,-0.33333 0.125,-0.65625 0.1875,-0.96875c0.07292,-0.3125 0.125,-0.51042 0.15625,-0.59375c0.09375,-0.4375 0.18229,-0.86458 0.26563,-1.28125c0.09375,-0.42708 0.14063,-0.77083 0.14063,-1.03125c0,-0.63542 -0.22396,-0.95312 -0.67187,-0.95312c-0.32292,0 -0.60937,0.16146 -0.85937,0.48438c-0.25,0.3125 -0.44792,0.72396 -0.59375,1.23438l-1.26562,5.98438h-2.6875l1.96875,-9.32812h2.6875l-0.20312,0.96875c0.625,-0.69792 1.35417,-1.04687 2.1875,-1.04687c0.63542,0 1.13542,0.17708 1.5,0.53125c0.375,0.34375 0.5625,0.86979 0.5625,1.57813c0,0.36458 -0.04167,0.77083 -0.125,1.21875c-0.08333,0.4375 -0.20833,0.96875 -0.375,1.59375c-0.10417,0.38542 -0.19792,0.76563 -0.28125,1.14063c-0.07292,0.36458 -0.10937,0.65104 -0.10937,0.85938c0,0.25 0.05208,0.44271 0.15625,0.57813c0.11458,0.13542 0.3125,0.20313 0.59375,0.20313c0.36458,0 0.65625,-0.13021 0.875,-0.39062c0.22917,-0.27083 0.45833,-0.6875 0.6875,-1.25h0.78125c-0.45833,1.375 -0.98958,2.29688 -1.59375,2.76563c-0.60417,0.45833 -1.22917,0.6875 -1.875,0.6875zM76.47349,153.01991c-0.92708,0 -1.64583,-0.23958 -2.15625,-0.71875c-0.51042,-0.47917 -0.76562,-1.22917 -0.76562,-2.25c0,-0.85417 0.16667,-1.79687 0.5,-2.82812c0.34375,-1.03125 0.89583,-1.92187 1.65625,-2.67187c0.76042,-0.76042 1.72396,-1.14062 2.89063,-1.14062c1.36458,0 2.04688,0.59896 2.04688,1.79688c0,0.69792 -0.19792,1.33854 -0.59375,1.92188c-0.39583,0.58333 -0.92708,1.05208 -1.59375,1.40625c-0.65625,0.35417 -1.35417,0.55729 -2.09375,0.60938c-0.03125,0.375 -0.04687,0.625 -0.04687,0.75c0,0.60417 0.10417,1.01563 0.3125,1.23438c0.21875,0.21875 0.5625,0.32813 1.03125,0.32813c0.67708,0 1.25521,-0.15625 1.73438,-0.46875c0.47917,-0.3125 1,-0.78646 1.5625,-1.42187h0.64063c-1.375,2.30208 -3.08333,3.45313 -5.125,3.45313zM76.50474,148.23866c0.45833,-0.02083 0.89583,-0.17708 1.3125,-0.46875c0.41667,-0.30208 0.75,-0.68229 1,-1.14062c0.26042,-0.46875 0.39063,-0.95833 0.39063,-1.46875c0,-0.5 -0.15625,-0.75 -0.46875,-0.75c-0.44792,0 -0.88542,0.39063 -1.3125,1.17188c-0.42708,0.78125 -0.73437,1.66667 -0.92187,2.65625zM83.09061,153.01991c-0.59375,0 -1.09896,-0.11458 -1.51562,-0.34375c-0.40625,-0.22917 -0.70833,-0.52604 -0.90625,-0.89062c-0.19792,-0.36458 -0.29687,-0.75 -0.29687,-1.15625c0,-0.40625 0.09896,-0.76042 0.29688,-1.0625c0.1875,-0.3125 0.41667,-0.53646 0.6875,-0.67187c0.48958,-0.86458 0.91146,-1.73958 1.26563,-2.625c0.36458,-0.89583 0.70833,-1.85937 1.03125,-2.89062l2.76563,-0.375c0.0625,1.59375 0.16667,3.31771 0.3125,5.17188c0.0625,0.73958 0.09375,1.28125 0.09375,1.625c0,0.75 -0.19271,1.36979 -0.57812,1.85938c-0.38542,0.48958 -0.86458,0.83854 -1.4375,1.04688c-0.5625,0.20833 -1.13542,0.3125 -1.71875,0.3125zM82.49686,151.55116c0.45833,0 0.84375,-0.13542 1.15625,-0.40625c0.3125,-0.28125 0.46875,-0.72396 0.46875,-1.32812c0,-0.375 -0.03646,-0.90104 -0.10937,-1.57812c-0.125,-1.41667 -0.20833,-2.36458 -0.25,-2.84375c-0.30208,0.97917 -0.80729,2.15104 -1.51562,3.51563c0.29167,0.15625 0.4375,0.375 0.4375,0.65625c0,0.23958 -0.07812,0.45313 -0.23437,0.64063c-0.15625,0.1875 -0.35417,0.28125 -0.59375,0.28125c-0.26042,0 -0.42708,-0.08333 -0.5,-0.25c0,0.44792 0.08854,0.78125 0.26563,1c0.1875,0.20833 0.47917,0.3125 0.875,0.3125z"/><path d="M50.7009,162.49804c-0.9375,0.3125 -1.66667,0.82813 -2.1875,1.54688c-0.52083,0.70833 -0.78125,1.58854 -0.78125,2.64063c0,0.47917 0.04167,0.80729 0.125,0.98438c0.09375,0.16667 0.14063,0.27083 0.14063,0.3125c-1.33333,0 -2,-0.56771 -2,-1.70312c0,-0.77083 0.29688,-1.54167 0.89063,-2.3125c0.59375,-0.78125 1.35417,-1.41667 2.28125,-1.90625c0.92708,-0.5 1.84896,-0.75 2.76563,-0.75c0.45833,0 0.93229,0.08854 1.42188,0.26563l-0.4375,9.82813l4.10938,-9.82812h2.6875l-1.95312,13.73438h-2.6875l1.1875,-8.375l-3.5,8.375h-2.5625l0.375,-8.40625l-3.10937,8.40625h-1.5zM62.11774,175.38866c-0.91667,0 -1.64583,-0.23437 -2.1875,-0.70312c-0.53125,-0.47917 -0.79687,-1.22917 -0.79687,-2.25c0,-0.84375 0.17188,-1.78125 0.51563,-2.8125c0.35417,-1.03125 0.91667,-1.92187 1.6875,-2.67187c0.77083,-0.76042 1.73958,-1.14062 2.90625,-1.14062c1.59375,0 2.39063,0.99479 2.39063,2.98438v0.01563c0.04167,0.02083 0.10938,0.03125 0.20313,0.03125c0.41667,0 0.89063,-0.10937 1.42188,-0.32812c0.53125,-0.21875 1.01563,-0.48437 1.45313,-0.79687l0.17188,0.5c-0.36458,0.38542 -0.83854,0.71354 -1.42187,0.98438c-0.57292,0.27083 -1.19792,0.45833 -1.875,0.5625c-0.10417,1.13542 -0.36458,2.125 -0.78125,2.96875c-0.40625,0.84375 -0.93229,1.5 -1.57812,1.96875c-0.64583,0.45833 -1.34896,0.6875 -2.10937,0.6875zM62.86774,173.70116c0.30208,0 0.59896,-0.16667 0.89063,-0.5c0.30208,-0.34375 0.5625,-0.8125 0.78125,-1.40625c0.22917,-0.59375 0.39583,-1.25 0.5,-1.96875c-0.34375,-0.07292 -0.51562,-0.33333 -0.51562,-0.78125c0,-0.51042 0.19271,-0.84896 0.57813,-1.01562c-0.02083,-0.40625 -0.08333,-0.6875 -0.1875,-0.84375c-0.09375,-0.15625 -0.26562,-0.23437 -0.51562,-0.23437c-0.40625,0 -0.80208,0.30208 -1.1875,0.90625c-0.38542,0.59375 -0.69792,1.30729 -0.9375,2.14063c-0.23958,0.83333 -0.35937,1.56771 -0.35937,2.20313c0,0.59375 0.06771,0.99479 0.20313,1.20313c0.13542,0.19792 0.38542,0.29688 0.75,0.29688zM74.32346,175.41991c-0.76042,0 -1.31771,-0.19792 -1.67187,-0.59375c-0.35417,-0.40625 -0.53125,-0.91146 -0.53125,-1.51562c0,-0.26042 0.03125,-0.55208 0.09375,-0.875c0.0625,-0.33333 0.125,-0.65625 0.1875,-0.96875c0.07292,-0.3125 0.125,-0.51042 0.15625,-0.59375c0.09375,-0.4375 0.18229,-0.86458 0.26563,-1.28125c0.09375,-0.42708 0.14063,-0.77083 0.14063,-1.03125c0,-0.63542 -0.22396,-0.95312 -0.67187,-0.95312c-0.32292,0 -0.60937,0.16146 -0.85937,0.48438c-0.25,0.3125 -0.44792,0.72396 -0.59375,1.23438l-1.26562,5.98438h-2.6875l1.96875,-9.32812h2.6875l-0.20312,0.96875c0.625,-0.69792 1.35417,-1.04687 2.1875,-1.04687c0.63542,0 1.13542,0.17708 1.5,0.53125c0.375,0.34375 0.5625,0.86979 0.5625,1.57813c0,0.36458 -0.04167,0.77083 -0.125,1.21875c-0.08333,0.4375 -0.20833,0.96875 -0.375,1.59375c-0.10417,0.38542 -0.19792,0.76563 -0.28125,1.14063c-0.07292,0.36458 -0.10937,0.65104 -0.10937,0.85938c0,0.25 0.05208,0.44271 0.15625,0.57813c0.11458,0.13542 0.3125,0.20313 0.59375,0.20313c0.36458,0 0.65625,-0.13021 0.875,-0.39062c0.22917,-0.27083 0.45833,-0.6875 0.6875,-1.25h0.78125c-0.45833,1.375 -0.98958,2.29688 -1.59375,2.76563c-0.60417,0.45833 -1.22917,0.6875 -1.875,0.6875zM79.68237,175.41991c-0.92708,0 -1.64583,-0.23958 -2.15625,-0.71875c-0.51042,-0.47917 -0.76563,-1.22917 -0.76563,-2.25c0,-0.85417 0.16667,-1.79687 0.5,-2.82812c0.34375,-1.03125 0.89583,-1.92187 1.65625,-2.67187c0.76042,-0.76042 1.72396,-1.14062 2.89062,-1.14062c1.36458,0 2.04688,0.59896 2.04688,1.79688c0,0.69792 -0.19792,1.33854 -0.59375,1.92188c-0.39583,0.58333 -0.92708,1.05208 -1.59375,1.40625c-0.65625,0.35417 -1.35417,0.55729 -2.09375,0.60938c-0.03125,0.375 -0.04687,0.625 -0.04687,0.75c0,0.60417 0.10417,1.01563 0.3125,1.23438c0.21875,0.21875 0.5625,0.32813 1.03125,0.32813c0.67708,0 1.25521,-0.15625 1.73437,-0.46875c0.47917,-0.3125 1,-0.78646 1.5625,-1.42187h0.64063c-1.375,2.30208 -3.08333,3.45313 -5.125,3.45313zM79.71362,170.63866c0.45833,-0.02083 0.89583,-0.17708 1.3125,-0.46875c0.41667,-0.30208 0.75,-0.68229 1,-1.14062c0.26042,-0.46875 0.39063,-0.95833 0.39063,-1.46875c0,-0.5 -0.15625,-0.75 -0.46875,-0.75c-0.44792,0 -0.88542,0.39063 -1.3125,1.17188c-0.42708,0.78125 -0.73437,1.66667 -0.92188,2.65625zM87.08074,179.98241c-0.58333,0 -1.09896,-0.19271 -1.54687,-0.57812c-0.4375,-0.375 -0.65625,-0.85417 -0.65625,-1.4375c0,-0.55208 0.13542,-1.00521 0.40625,-1.35937c0.28125,-0.34375 0.63542,-0.61458 1.0625,-0.8125c0.4375,-0.19792 1.02604,-0.41146 1.76563,-0.64062l0.1875,-0.8125c-0.63542,0.71875 -1.39583,1.07813 -2.28125,1.07813c-0.59375,0 -1.07812,-0.18229 -1.45312,-0.54687c-0.36458,-0.375 -0.54687,-0.9375 -0.54687,-1.6875c0,-0.3125 0.05208,-0.71875 0.15625,-1.21875l1.26563,-5.98437h2.6875l-1.34375,6.34375c-0.03125,0.14583 -0.04687,0.30208 -0.04687,0.46875c0,0.54167 0.18229,0.8125 0.54688,0.8125c0.35417,0 0.65625,-0.14583 0.90625,-0.4375c0.25,-0.29167 0.44792,-0.69271 0.59375,-1.20312l1.26563,-5.98437h2.70313l-2.26562,10.82813c-0.25,1.1875 -0.69271,2.01042 -1.32812,2.46875c-0.625,0.46875 -1.31771,0.70313 -2.07813,0.70313zM86.65887,178.31054c0.21875,0 0.42708,-0.11458 0.625,-0.34375c0.20833,-0.22917 0.36458,-0.59896 0.46875,-1.10937l0.23438,-1.09375c-0.66667,0.21875 -1.18229,0.47396 -1.54688,0.76563c-0.35417,0.30208 -0.53125,0.69271 -0.53125,1.17188c0,0.14583 0.07292,0.28125 0.21875,0.40625c0.15625,0.13542 0.33333,0.20313 0.53125,0.20313zM102.78915,162.49804c-0.9375,0.3125 -1.66667,0.82813 -2.1875,1.54688c-0.52083,0.70833 -0.78125,1.58854 -0.78125,2.64063c0,0.47917 0.04167,0.80729 0.125,0.98438c0.09375,0.16667 0.14063,0.27083 0.14063,0.3125c-1.33333,0 -2,-0.56771 -2,-1.70312c0,-0.77083 0.29688,-1.54167 0.89063,-2.3125c0.59375,-0.78125 1.35417,-1.41667 2.28125,-1.90625c0.92708,-0.5 1.84896,-0.75 2.76563,-0.75c0.45833,0 0.93229,0.08854 1.42188,0.26563l-0.4375,9.82813l4.10938,-9.82812h2.6875l-1.95312,13.73438h-2.6875l1.1875,-8.375l-3.5,8.375h-2.5625l0.375,-8.40625l-3.10938,8.40625h-1.5zM114.59661,164.98241c-0.40625,0 -0.75521,-0.14062 -1.04687,-0.42187c-0.28125,-0.29167 -0.42188,-0.64583 -0.42188,-1.0625c0,-0.40625 0.14063,-0.75521 0.42188,-1.04687c0.29167,-0.29167 0.64063,-0.4375 1.04688,-0.4375c0.41667,0 0.77083,0.14583 1.0625,0.4375c0.29167,0.29167 0.4375,0.64063 0.4375,1.04688c0,0.41667 -0.14583,0.77083 -0.4375,1.0625c-0.29167,0.28125 -0.64583,0.42188 -1.0625,0.42188zM113.33099,175.41991c-0.59375,0 -1.07813,-0.18229 -1.45313,-0.54687c-0.36458,-0.375 -0.54687,-0.9375 -0.54687,-1.6875c0,-0.3125 0.05208,-0.71875 0.15625,-1.21875l1.26563,-5.98437h2.6875l-1.34375,6.34375c-0.05208,0.1875 -0.07812,0.38542 -0.07812,0.59375c0,0.25 0.05729,0.42708 0.17188,0.53125c0.125,0.10417 0.32292,0.15625 0.59375,0.15625c0.36458,0 0.70313,-0.15104 1.01563,-0.45312c0.3125,-0.30208 0.53646,-0.69792 0.67188,-1.1875h0.78125c-0.45833,1.34375 -1.05208,2.25521 -1.78125,2.73438c-0.71875,0.47917 -1.43229,0.71875 -2.14062,0.71875zM123.20283,175.41991c-0.76042,0 -1.31771,-0.19792 -1.67187,-0.59375c-0.35417,-0.40625 -0.53125,-0.91146 -0.53125,-1.51562c0,-0.26042 0.03125,-0.55208 0.09375,-0.875c0.0625,-0.33333 0.125,-0.65625 0.1875,-0.96875c0.07292,-0.3125 0.125,-0.51042 0.15625,-0.59375c0.09375,-0.4375 0.18229,-0.86458 0.26563,-1.28125c0.09375,-0.42708 0.14063,-0.77083 0.14063,-1.03125c0,-0.63542 -0.22396,-0.95312 -0.67187,-0.95312c-0.32292,0 -0.60937,0.16146 -0.85937,0.48438c-0.25,0.3125 -0.44792,0.72396 -0.59375,1.23438l-1.26562,5.98438h-2.6875l1.96875,-9.32812h2.6875l-0.20312,0.96875c0.625,-0.69792 1.35417,-1.04687 2.1875,-1.04687c0.63542,0 1.13542,0.17708 1.5,0.53125c0.375,0.34375 0.5625,0.86979 0.5625,1.57813c0,0.36458 -0.04167,0.77083 -0.125,1.21875c-0.08333,0.4375 -0.20833,0.96875 -0.375,1.59375c-0.10417,0.38542 -0.19792,0.76563 -0.28125,1.14063c-0.07292,0.36458 -0.10937,0.65104 -0.10937,0.85938c0,0.25 0.05208,0.44271 0.15625,0.57813c0.11458,0.13542 0.3125,0.20313 0.59375,0.20313c0.36458,0 0.65625,-0.13021 0.875,-0.39062c0.22917,-0.27083 0.45833,-0.6875 0.6875,-1.25h0.78125c-0.45833,1.375 -0.98958,2.29688 -1.59375,2.76563c-0.60417,0.45833 -1.22917,0.6875 -1.875,0.6875zM128.56173,175.41991c-0.92708,0 -1.64583,-0.23958 -2.15625,-0.71875c-0.51042,-0.47917 -0.76562,-1.22917 -0.76562,-2.25c0,-0.85417 0.16667,-1.79687 0.5,-2.82812c0.34375,-1.03125 0.89583,-1.92187 1.65625,-2.67187c0.76042,-0.76042 1.72396,-1.14062 2.89063,-1.14062c1.36458,0 2.04688,0.59896 2.04688,1.79688c0,0.69792 -0.19792,1.33854 -0.59375,1.92188c-0.39583,0.58333 -0.92708,1.05208 -1.59375,1.40625c-0.65625,0.35417 -1.35417,0.55729 -2.09375,0.60938c-0.03125,0.375 -0.04687,0.625 -0.04687,0.75c0,0.60417 0.10417,1.01563 0.3125,1.23438c0.21875,0.21875 0.5625,0.32813 1.03125,0.32813c0.67708,0 1.25521,-0.15625 1.73438,-0.46875c0.47917,-0.3125 1,-0.78646 1.5625,-1.42187h0.64063c-1.375,2.30208 -3.08333,3.45313 -5.125,3.45313zM128.59298,170.63866c0.45833,-0.02083 0.89583,-0.17708 1.3125,-0.46875c0.41667,-0.30208 0.75,-0.68229 1,-1.14062c0.26042,-0.46875 0.39063,-0.95833 0.39063,-1.46875c0,-0.5 -0.15625,-0.75 -0.46875,-0.75c-0.44792,0 -0.88542,0.39063 -1.3125,1.17188c-0.42708,0.78125 -0.73437,1.66667 -0.92187,2.65625zM135.17886,175.41991c-0.59375,0 -1.09896,-0.11458 -1.51563,-0.34375c-0.40625,-0.22917 -0.70833,-0.52604 -0.90625,-0.89062c-0.19792,-0.36458 -0.29687,-0.75 -0.29687,-1.15625c0,-0.40625 0.09896,-0.76042 0.29688,-1.0625c0.1875,-0.3125 0.41667,-0.53646 0.6875,-0.67187c0.48958,-0.86458 0.91146,-1.73958 1.26563,-2.625c0.36458,-0.89583 0.70833,-1.85937 1.03125,-2.89062l2.76563,-0.375c0.0625,1.59375 0.16667,3.31771 0.3125,5.17188c0.0625,0.73958 0.09375,1.28125 0.09375,1.625c0,0.75 -0.19271,1.36979 -0.57812,1.85938c-0.38542,0.48958 -0.86458,0.83854 -1.4375,1.04688c-0.5625,0.20833 -1.13542,0.3125 -1.71875,0.3125zM134.58511,173.95116c0.45833,0 0.84375,-0.13542 1.15625,-0.40625c0.3125,-0.28125 0.46875,-0.72396 0.46875,-1.32812c0,-0.375 -0.03646,-0.90104 -0.10937,-1.57812c-0.125,-1.41667 -0.20833,-2.36458 -0.25,-2.84375c-0.30208,0.97917 -0.80729,2.15104 -1.51563,3.51563c0.29167,0.15625 0.4375,0.375 0.4375,0.65625c0,0.23958 -0.07812,0.45313 -0.23437,0.64063c-0.15625,0.1875 -0.35417,0.28125 -0.59375,0.28125c-0.26042,0 -0.42708,-0.08333 -0.5,-0.25c0,0.44792 0.08854,0.78125 0.26563,1c0.1875,0.20833 0.47917,0.3125 0.875,0.3125z"/><path d="M49.29465,185.02304c-0.83333,0.35417 -1.47917,0.88021 -1.9375,1.57813c-0.45833,0.6875 -0.6875,1.52604 -0.6875,2.51563c0,0.45833 0.04167,0.77604 0.125,0.95313c0.09375,0.17708 0.14063,0.28125 0.14063,0.3125c-0.66667,0 -1.16667,-0.14062 -1.5,-0.42187c-0.33333,-0.28125 -0.5,-0.74479 -0.5,-1.39062c0,-0.79167 0.32813,-1.5625 0.98438,-2.3125c0.65625,-0.76042 1.49479,-1.375 2.51563,-1.84375c1.02083,-0.46875 2.03646,-0.70312 3.04688,-0.70312c0.17708,0 0.42708,0.01563 0.75,0.04688l-1.1875,5.5625h2.73438l1.20313,-5.5625h2.6875l-2.96875,13.95313h-2.6875l1.48438,-7.01562h-2.73437l-1.5,7.01563h-2.6875zM59.84168,197.78866c-0.91667,0 -1.64583,-0.23437 -2.1875,-0.70312c-0.53125,-0.47917 -0.79688,-1.22917 -0.79688,-2.25c0,-0.84375 0.17188,-1.78125 0.51563,-2.8125c0.35417,-1.03125 0.91667,-1.92187 1.6875,-2.67187c0.77083,-0.76042 1.73958,-1.14062 2.90625,-1.14062c1.59375,0 2.39063,0.99479 2.39063,2.98438v0.01563c0.04167,0.02083 0.10938,0.03125 0.20313,0.03125c0.41667,0 0.89063,-0.10937 1.42188,-0.32812c0.53125,-0.21875 1.01563,-0.48437 1.45313,-0.79687l0.17188,0.5c-0.36458,0.38542 -0.83854,0.71354 -1.42187,0.98438c-0.57292,0.27083 -1.19792,0.45833 -1.875,0.5625c-0.10417,1.13542 -0.36458,2.125 -0.78125,2.96875c-0.40625,0.84375 -0.93229,1.5 -1.57812,1.96875c-0.64583,0.45833 -1.34896,0.6875 -2.10937,0.6875zM60.59168,196.10116c0.30208,0 0.59896,-0.16667 0.89063,-0.5c0.30208,-0.34375 0.5625,-0.8125 0.78125,-1.40625c0.22917,-0.59375 0.39583,-1.25 0.5,-1.96875c-0.34375,-0.07292 -0.51562,-0.33333 -0.51562,-0.78125c0,-0.51042 0.19271,-0.84896 0.57813,-1.01562c-0.02083,-0.40625 -0.08333,-0.6875 -0.1875,-0.84375c-0.09375,-0.15625 -0.26562,-0.23437 -0.51562,-0.23437c-0.40625,0 -0.80208,0.30208 -1.1875,0.90625c-0.38542,0.59375 -0.69792,1.30729 -0.9375,2.14063c-0.23958,0.83333 -0.35937,1.56771 -0.35937,2.20313c0,0.59375 0.06771,0.99479 0.20313,1.20313c0.13542,0.19792 0.38542,0.29688 0.75,0.29688zM67.15678,197.81991c-0.59375,0 -1.07812,-0.18229 -1.45312,-0.54687c-0.36458,-0.375 -0.54687,-0.9375 -0.54687,-1.6875c0,-0.3125 0.05208,-0.71875 0.15625,-1.21875l2,-9.34375l2.75,-0.375l-2.14062,10.07813c-0.05208,0.1875 -0.07812,0.38542 -0.07812,0.59375c0,0.25 0.05729,0.42708 0.17188,0.53125c0.125,0.10417 0.32292,0.15625 0.59375,0.15625c0.36458,0 0.70313,-0.15104 1.01563,-0.45312c0.3125,-0.30208 0.53646,-0.69792 0.67188,-1.1875h0.78125c-0.45833,1.34375 -1.05208,2.25521 -1.78125,2.73438c-0.71875,0.47917 -1.43229,0.71875 -2.14062,0.71875zM81.63799,197.81991c-0.76042,0 -1.31771,-0.19792 -1.67187,-0.59375c-0.35417,-0.40625 -0.53125,-0.91146 -0.53125,-1.51562c0,-0.26042 0.03125,-0.55208 0.09375,-0.875c0.0625,-0.33333 0.125,-0.65625 0.1875,-0.96875c0.07292,-0.3125 0.125,-0.51042 0.15625,-0.59375c0.09375,-0.4375 0.18229,-0.86458 0.26563,-1.28125c0.09375,-0.42708 0.14063,-0.77083 0.14063,-1.03125c0,-0.63542 -0.22396,-0.95312 -0.67187,-0.95312c-0.32292,0 -0.60937,0.16146 -0.85937,0.48438c-0.25,0.3125 -0.44792,0.72396 -0.59375,1.23438l-1.28125,5.98438h-2.67188l1.35938,-6.4375c0.03125,-0.14583 0.04688,-0.30208 0.04688,-0.46875c0,-0.54167 -0.1875,-0.8125 -0.5625,-0.8125c-0.34375,0 -0.64583,0.16146 -0.90625,0.48438c-0.25,0.3125 -0.44792,0.72917 -0.59375,1.25l-1.26562,5.98438h-2.6875l1.96875,-9.32812h2.6875l-0.20312,0.96875c0.63542,-0.70833 1.39583,-1.0625 2.28125,-1.0625c1.09375,0 1.73438,0.53646 1.92188,1.60938c0.67708,-1.0625 1.54167,-1.59375 2.59375,-1.59375c0.63542,0 1.13542,0.17708 1.5,0.53125c0.375,0.34375 0.5625,0.86979 0.5625,1.57813c0,0.36458 -0.04687,0.77083 -0.14062,1.21875c-0.08333,0.4375 -0.20312,0.96875 -0.35937,1.59375c-0.10417,0.38542 -0.19792,0.76563 -0.28125,1.14063c-0.07292,0.36458 -0.10937,0.65104 -0.10937,0.85938c0,0.25 0.05208,0.44271 0.15625,0.57813c0.11458,0.13542 0.3125,0.20313 0.59375,0.20313c0.36458,0 0.65625,-0.13021 0.875,-0.39062c0.22917,-0.27083 0.45833,-0.6875 0.6875,-1.25h0.78125c-0.45833,1.375 -0.98958,2.29688 -1.59375,2.76563c-0.60417,0.45833 -1.22917,0.6875 -1.875,0.6875zM86.99563,197.81991c-0.92708,0 -1.64583,-0.23958 -2.15625,-0.71875c-0.51042,-0.47917 -0.76562,-1.22917 -0.76562,-2.25c0,-0.85417 0.16667,-1.79687 0.5,-2.82812c0.34375,-1.03125 0.89583,-1.92187 1.65625,-2.67187c0.76042,-0.76042 1.72396,-1.14062 2.89063,-1.14062c1.36458,0 2.04688,0.59896 2.04688,1.79688c0,0.69792 -0.19792,1.33854 -0.59375,1.92188c-0.39583,0.58333 -0.92708,1.05208 -1.59375,1.40625c-0.65625,0.35417 -1.35417,0.55729 -2.09375,0.60938c-0.03125,0.375 -0.04687,0.625 -0.04687,0.75c0,0.60417 0.10417,1.01563 0.3125,1.23438c0.21875,0.21875 0.5625,0.32813 1.03125,0.32813c0.67708,0 1.25521,-0.15625 1.73438,-0.46875c0.47917,-0.3125 1,-0.78646 1.5625,-1.42187h0.64063c-1.375,2.30208 -3.08333,3.45313 -5.125,3.45313zM87.02688,193.03866c0.45833,-0.02083 0.89583,-0.17708 1.3125,-0.46875c0.41667,-0.30208 0.75,-0.68229 1,-1.14062c0.26042,-0.46875 0.39063,-0.95833 0.39063,-1.46875c0,-0.5 -0.15625,-0.75 -0.46875,-0.75c-0.44792,0 -0.88542,0.39063 -1.3125,1.17188c-0.42708,0.78125 -0.73437,1.66667 -0.92187,2.65625zM93.61275,197.81991c-0.59375,0 -1.09896,-0.11458 -1.51562,-0.34375c-0.40625,-0.22917 -0.70833,-0.52604 -0.90625,-0.89062c-0.19792,-0.36458 -0.29687,-0.75 -0.29687,-1.15625c0,-0.40625 0.09896,-0.76042 0.29688,-1.0625c0.1875,-0.3125 0.41667,-0.53646 0.6875,-0.67187c0.48958,-0.86458 0.91146,-1.73958 1.26563,-2.625c0.36458,-0.89583 0.70833,-1.85937 1.03125,-2.89062l2.76563,-0.375c0.0625,1.59375 0.16667,3.31771 0.3125,5.17188c0.0625,0.73958 0.09375,1.28125 0.09375,1.625c0,0.28125 -0.02604,0.51563 -0.07812,0.70313c0.58333,-0.33333 1.03125,-0.64583 1.34375,-0.9375h0.78125c-0.79167,0.92708 -1.73958,1.70833 -2.84375,2.34375c-0.36458,0.38542 -0.8125,0.66667 -1.34375,0.84375c-0.53125,0.17708 -1.0625,0.26563 -1.59375,0.26563zM93.019,196.35116c0.45833,0 0.84375,-0.13542 1.15625,-0.40625c0.3125,-0.28125 0.46875,-0.72396 0.46875,-1.32812c0,-0.375 -0.03646,-0.90104 -0.10937,-1.57812c-0.125,-1.41667 -0.20833,-2.36458 -0.25,-2.84375c-0.30208,0.97917 -0.80729,2.15104 -1.51563,3.51563c0.29167,0.15625 0.4375,0.375 0.4375,0.65625c0,0.23958 -0.07812,0.45313 -0.23437,0.64063c-0.15625,0.1875 -0.35417,0.28125 -0.59375,0.28125c-0.26042,0 -0.42708,-0.08333 -0.5,-0.25c0,0.44792 0.08854,0.78125 0.26563,1c0.1875,0.20833 0.47917,0.3125 0.875,0.3125zM100.84882,197.81991c-0.70833,0 -1.30208,-0.23958 -1.78125,-0.71875c-0.46875,-0.48958 -0.70312,-1.25 -0.70312,-2.28125c0,-0.91667 0.18229,-1.88021 0.54688,-2.89062c0.375,-1.02083 0.92708,-1.88021 1.65625,-2.57812c0.72917,-0.70833 1.59375,-1.0625 2.59375,-1.0625c0.51042,0 0.89063,0.08854 1.14063,0.26563c0.25,0.16667 0.375,0.39583 0.375,0.6875v0.125l0.20313,-0.98437h2.6875l-1.34375,6.34375c-0.05208,0.1875 -0.07812,0.38542 -0.07812,0.59375c0,0.54167 0.25521,0.8125 0.76563,0.8125c0.35417,0 0.65625,-0.16146 0.90625,-0.48437c0.26042,-0.33333 0.46354,-0.76042 0.60938,-1.28125h0.78125c-0.45833,1.34375 -1.02604,2.25521 -1.70312,2.73438c-0.67708,0.47917 -1.35937,0.71875 -2.04687,0.71875c-0.52083,0 -0.94271,-0.14583 -1.26562,-0.4375c-0.3125,-0.29167 -0.5,-0.71875 -0.5625,-1.28125c-0.35417,0.51042 -0.75521,0.92708 -1.20312,1.25c-0.4375,0.3125 -0.96354,0.46875 -1.57812,0.46875zM102.06757,196.00741c0.3125,0 0.61979,-0.14583 0.92188,-0.4375c0.30208,-0.29167 0.51042,-0.69271 0.625,-1.20312l0.89063,-4.21875c0,-0.15625 -0.0625,-0.3125 -0.1875,-0.46875c-0.125,-0.15625 -0.31771,-0.23437 -0.57812,-0.23437c-0.48958,0 -0.9375,0.29167 -1.34375,0.875c-0.39583,0.57292 -0.70833,1.27083 -0.9375,2.09375c-0.21875,0.8125 -0.32812,1.52604 -0.32812,2.14063c0,0.625 0.08854,1.02604 0.26563,1.20313c0.1875,0.16667 0.41146,0.25 0.67187,0.25zM115.16201,197.81991c-0.76042,0 -1.31771,-0.19792 -1.67187,-0.59375c-0.35417,-0.40625 -0.53125,-0.91146 -0.53125,-1.51562c0,-0.26042 0.03125,-0.55208 0.09375,-0.875c0.0625,-0.33333 0.125,-0.65625 0.1875,-0.96875c0.07292,-0.3125 0.125,-0.51042 0.15625,-0.59375c0.09375,-0.4375 0.18229,-0.86458 0.26563,-1.28125c0.09375,-0.42708 0.14063,-0.77083 0.14063,-1.03125c0,-0.63542 -0.22396,-0.95312 -0.67187,-0.95312c-0.32292,0 -0.60937,0.16146 -0.85937,0.48438c-0.25,0.3125 -0.44792,0.72396 -0.59375,1.23438l-1.26562,5.98438h-2.6875l1.96875,-9.32812h2.6875l-0.20312,0.96875c0.625,-0.69792 1.35417,-1.04687 2.1875,-1.04687c0.63542,0 1.13542,0.17708 1.5,0.53125c0.375,0.34375 0.5625,0.86979 0.5625,1.57813c0,0.36458 -0.04167,0.77083 -0.125,1.21875c-0.08333,0.4375 -0.20833,0.96875 -0.375,1.59375c-0.10417,0.38542 -0.19792,0.76563 -0.28125,1.14063c-0.07292,0.36458 -0.10937,0.65104 -0.10937,0.85938c0,0.25 0.05208,0.44271 0.15625,0.57813c0.11458,0.13542 0.3125,0.20313 0.59375,0.20313c0.36458,0 0.65625,-0.13021 0.875,-0.39062c0.22917,-0.27083 0.45833,-0.6875 0.6875,-1.25h0.78125c-0.45833,1.375 -0.98958,2.29688 -1.59375,2.76563c-0.60417,0.45833 -1.22917,0.6875 -1.875,0.6875zM120.08341,197.81991c-0.70833,0 -1.30208,-0.23958 -1.78125,-0.71875c-0.46875,-0.48958 -0.70312,-1.25 -0.70312,-2.28125c0,-0.91667 0.18229,-1.88021 0.54688,-2.89062c0.375,-1.02083 0.92708,-1.88021 1.65625,-2.57812c0.72917,-0.70833 1.59375,-1.0625 2.59375,-1.0625c0.51042,0 0.89063,0.08854 1.14063,0.26563c0.25,0.16667 0.375,0.39583 0.375,0.6875v0.125l0.20313,-0.98437h2.6875l-1.34375,6.34375c-0.05208,0.1875 -0.07812,0.38542 -0.07812,0.59375c0,0.54167 0.25521,0.8125 0.76563,0.8125c0.35417,0 0.65625,-0.16146 0.90625,-0.48437c0.26042,-0.33333 0.46354,-0.76042 0.60938,-1.28125h0.78125c-0.45833,1.34375 -1.02604,2.25521 -1.70312,2.73438c-0.67708,0.47917 -1.35937,0.71875 -2.04687,0.71875c-0.52083,0 -0.94271,-0.14583 -1.26562,-0.4375c-0.3125,-0.29167 -0.5,-0.71875 -0.5625,-1.28125c-0.35417,0.51042 -0.75521,0.92708 -1.20312,1.25c-0.4375,0.3125 -0.96354,0.46875 -1.57812,0.46875zM121.30216,196.00741c0.3125,0 0.61979,-0.14583 0.92188,-0.4375c0.30208,-0.29167 0.51042,-0.69271 0.625,-1.20312l0.89063,-4.21875c0,-0.15625 -0.0625,-0.3125 -0.1875,-0.46875c-0.125,-0.15625 -0.31771,-0.23437 -0.57812,-0.23437c-0.48958,0 -0.9375,0.29167 -1.34375,0.875c-0.39583,0.57292 -0.70833,1.27083 -0.9375,2.09375c-0.21875,0.8125 -0.32812,1.52604 -0.32812,2.14063c0,0.625 0.08854,1.02604 0.26563,1.20313c0.1875,0.16667 0.41146,0.25 0.67188,0.25zM129.50597,197.81991c-0.59375,0 -1.07812,-0.18229 -1.45312,-0.54687c-0.36458,-0.375 -0.54687,-0.9375 -0.54687,-1.6875c0,-0.3125 0.05208,-0.71875 0.15625,-1.21875l1.125,-5.23437h-0.625l0.15625,-0.75h0.60938l0.5625,-2.57812l2.76563,-0.375l-0.64062,2.95313h1.125l-0.15625,0.75h-1.10937l-1.20312,5.59375c-0.05208,0.1875 -0.07812,0.38542 -0.07812,0.59375c0,0.25 0.05729,0.42708 0.17188,0.53125c0.125,0.10417 0.32292,0.15625 0.59375,0.15625c0.36458,0 0.70313,-0.15104 1.01563,-0.45312c0.3125,-0.30208 0.53646,-0.69792 0.67188,-1.1875h0.78125c-0.45833,1.34375 -1.05208,2.25521 -1.78125,2.73438c-0.71875,0.47917 -1.43229,0.71875 -2.14062,0.71875zM135.36219,197.78866c-0.91667,0 -1.64583,-0.23437 -2.1875,-0.70312c-0.53125,-0.47917 -0.79687,-1.22917 -0.79687,-2.25c0,-0.84375 0.17188,-1.78125 0.51563,-2.8125c0.35417,-1.03125 0.91667,-1.92187 1.6875,-2.67187c0.77083,-0.76042 1.73958,-1.14062 2.90625,-1.14062c1.59375,0 2.39063,0.99479 2.39063,2.98438v0.01563c0.04167,0.02083 0.10938,0.03125 0.20313,0.03125c0.41667,0 0.89063,-0.10937 1.42188,-0.32812c0.53125,-0.21875 1.01563,-0.48437 1.45313,-0.79687l0.17188,0.5c-0.36458,0.38542 -0.83854,0.71354 -1.42187,0.98438c-0.57292,0.27083 -1.19792,0.45833 -1.875,0.5625c-0.10417,1.13542 -0.36458,2.125 -0.78125,2.96875c-0.40625,0.84375 -0.93229,1.5 -1.57812,1.96875c-0.64583,0.45833 -1.34896,0.6875 -2.10937,0.6875zM136.11219,196.10116c0.30208,0 0.59896,-0.16667 0.89063,-0.5c0.30208,-0.34375 0.5625,-0.8125 0.78125,-1.40625c0.22917,-0.59375 0.39583,-1.25 0.5,-1.96875c-0.34375,-0.07292 -0.51562,-0.33333 -0.51562,-0.78125c0,-0.51042 0.19271,-0.84896 0.57813,-1.01562c-0.02083,-0.40625 -0.08333,-0.6875 -0.1875,-0.84375c-0.09375,-0.15625 -0.26562,-0.23437 -0.51562,-0.23437c-0.40625,0 -0.80208,0.30208 -1.1875,0.90625c-0.38542,0.59375 -0.69792,1.30729 -0.9375,2.14063c-0.23958,0.83333 -0.35937,1.56771 -0.35937,2.20313c0,0.59375 0.06771,0.99479 0.20313,1.20313c0.13542,0.19792 0.38542,0.29688 0.75,0.29688zM142.09916,188.38241h2.6875l-0.23437,1.15625c0.41667,-0.375 0.79688,-0.66146 1.14063,-0.85937c0.34375,-0.19792 0.71354,-0.29687 1.10938,-0.29687c0.39583,0 0.70833,0.14063 0.9375,0.42188c0.22917,0.27083 0.34375,0.59896 0.34375,0.98438c0,0.35417 -0.11979,0.67188 -0.35937,0.95313c-0.22917,0.27083 -0.55729,0.40625 -0.98437,0.40625c-0.27083,0 -0.45312,-0.0625 -0.54687,-0.1875c-0.09375,-0.13542 -0.16146,-0.32812 -0.20312,-0.57812c-0.04167,-0.16667 -0.08333,-0.28646 -0.125,-0.35937c-0.03125,-0.07292 -0.09896,-0.10937 -0.20312,-0.10937c-0.26042,0 -0.47917,0.05208 -0.65625,0.15625c-0.17708,0.10417 -0.41146,0.28646 -0.70312,0.54688l-1.48437,7.09375h-2.6875z"/><path d="M49.29465,220.43866c-0.79167,0 -1.48437,-0.13542 -2.07812,-0.40625c-0.59375,-0.27083 -1.05208,-0.65104 -1.375,-1.14062c-0.32292,-0.48958 -0.48437,-1.05729 -0.48437,-1.70312c0,-0.55208 0.11458,-1.05208 0.34375,-1.5c0.22917,-0.44792 0.53646,-0.80208 0.92188,-1.0625c0.39583,-0.26042 0.82813,-0.39062 1.29688,-0.39062c0.4375,0 0.80208,0.10938 1.09375,0.32813c0.30208,0.21875 0.49479,0.52083 0.57813,0.90625c-0.64583,0 -1.16146,0.17188 -1.54687,0.51563c-0.38542,0.33333 -0.57812,0.79167 -0.57812,1.375c0,0.54167 0.16146,0.97396 0.48438,1.29688c0.32292,0.32292 0.75,0.48438 1.28125,0.48438c0.65625,0 1.19792,-0.21875 1.625,-0.65625c0.4375,-0.44792 0.65625,-1.00521 0.65625,-1.67187c0,-0.58333 -0.16146,-1.13542 -0.48437,-1.65625c-0.32292,-0.53125 -0.8125,-1.16667 -1.46875,-1.90625c-0.66667,-0.77083 -1.17187,-1.43229 -1.51562,-1.98437c-0.34375,-0.5625 -0.51562,-1.17187 -0.51562,-1.82812c0,-0.64583 0.18229,-1.22396 0.54688,-1.73437c0.36458,-0.52083 0.85938,-0.92708 1.48438,-1.21875c0.63542,-0.30208 1.35417,-0.45312 2.15625,-0.45312c1,0 1.80208,0.23438 2.40625,0.70313c0.60417,0.46875 0.90625,1.10417 0.90625,1.90625c0,0.52083 -0.13021,0.94271 -0.39062,1.26563c-0.26042,0.32292 -0.59896,0.48438 -1.01562,0.48438c-0.47917,0 -0.85937,-0.19271 -1.14062,-0.57812c0.22917,-0.17708 0.41146,-0.40625 0.54688,-0.6875c0.14583,-0.29167 0.21875,-0.59375 0.21875,-0.90625c0,-0.39583 -0.11979,-0.70833 -0.35937,-0.9375c-0.23958,-0.23958 -0.5625,-0.35937 -0.96875,-0.35937c-0.5,0 -0.91146,0.17708 -1.23437,0.53125c-0.3125,0.35417 -0.46875,0.80208 -0.46875,1.34375c0,0.5 0.14063,0.96875 0.42188,1.40625c0.29167,0.42708 0.74479,0.97396 1.35938,1.64063c0.48958,0.53125 0.88542,0.98958 1.1875,1.375c0.3125,0.38542 0.57813,0.83333 0.79688,1.34375c0.21875,0.5 0.32813,1.04167 0.32813,1.625c0,0.80208 -0.22396,1.52604 -0.67187,2.17188c-0.4375,0.64583 -1.04167,1.15625 -1.8125,1.53125c-0.76042,0.36458 -1.60417,0.54688 -2.53125,0.54688zM58.02247,220.21991c-0.92708,0 -1.64583,-0.23958 -2.15625,-0.71875c-0.51042,-0.47917 -0.76562,-1.22917 -0.76562,-2.25c0,-0.85417 0.17188,-1.79687 0.51563,-2.82812c0.34375,-1.03125 0.89063,-1.92187 1.64063,-2.67187c0.76042,-0.76042 1.71875,-1.14062 2.875,-1.14062c0.73958,0 1.26563,0.16146 1.57813,0.48438c0.32292,0.32292 0.48438,0.73438 0.48438,1.23438c0,0.4375 -0.09375,0.77604 -0.28125,1.01563c-0.1875,0.22917 -0.42187,0.34375 -0.70312,0.34375c-0.20833,0 -0.42708,-0.07292 -0.65625,-0.21875c0.14583,-0.40625 0.21875,-0.77604 0.21875,-1.10937c0,-0.22917 -0.04167,-0.41146 -0.125,-0.54687c-0.08333,-0.13542 -0.21354,-0.20312 -0.39062,-0.20312c-0.375,0 -0.75,0.30729 -1.125,0.92188c-0.36458,0.60417 -0.66667,1.34375 -0.90625,2.21875c-0.23958,0.86458 -0.35937,1.64583 -0.35937,2.34375c0,0.60417 0.10417,1.01563 0.3125,1.23438c0.21875,0.21875 0.5625,0.32813 1.03125,0.32813c0.67708,0 1.25521,-0.15625 1.73438,-0.46875c0.47917,-0.3125 1,-0.78646 1.5625,-1.42187h0.64063c-1.375,2.30208 -3.08333,3.45313 -5.125,3.45313zM63.78022,210.78241h2.6875l-0.23437,1.15625c0.41667,-0.375 0.79688,-0.66146 1.14063,-0.85937c0.34375,-0.19792 0.71354,-0.29687 1.10938,-0.29687c0.39583,0 0.70833,0.14063 0.9375,0.42188c0.22917,0.27083 0.34375,0.59896 0.34375,0.98438c0,0.35417 -0.11979,0.67188 -0.35937,0.95313c-0.22917,0.27083 -0.55729,0.40625 -0.98437,0.40625c-0.27083,0 -0.45312,-0.0625 -0.54687,-0.1875c-0.09375,-0.13542 -0.16146,-0.32812 -0.20312,-0.57812c-0.04167,-0.16667 -0.08333,-0.28646 -0.125,-0.35937c-0.03125,-0.07292 -0.09896,-0.10937 -0.20312,-0.10937c-0.26042,0 -0.47917,0.05208 -0.65625,0.15625c-0.17708,0.10417 -0.41146,0.28646 -0.70312,0.54688l-1.48437,7.09375h-2.6875zM71.76373,220.21991c-0.70833,0 -1.30208,-0.23958 -1.78125,-0.71875c-0.46875,-0.48958 -0.70312,-1.25 -0.70312,-2.28125c0,-0.91667 0.18229,-1.88021 0.54688,-2.89062c0.375,-1.02083 0.92708,-1.88021 1.65625,-2.57812c0.72917,-0.70833 1.59375,-1.0625 2.59375,-1.0625c0.51042,0 0.89063,0.08854 1.14063,0.26563c0.25,0.16667 0.375,0.39583 0.375,0.6875v0.125l0.20313,-0.98437h2.6875l-1.34375,6.34375c-0.05208,0.1875 -0.07812,0.38542 -0.07812,0.59375c0,0.54167 0.25521,0.8125 0.76563,0.8125c0.35417,0 0.65625,-0.16146 0.90625,-0.48437c0.26042,-0.33333 0.46354,-0.76042 0.60938,-1.28125h0.78125c-0.45833,1.34375 -1.02604,2.25521 -1.70313,2.73438c-0.67708,0.47917 -1.35937,0.71875 -2.04687,0.71875c-0.52083,0 -0.94271,-0.14583 -1.26563,-0.4375c-0.3125,-0.29167 -0.5,-0.71875 -0.5625,-1.28125c-0.35417,0.51042 -0.75521,0.92708 -1.20312,1.25c-0.4375,0.3125 -0.96354,0.46875 -1.57812,0.46875zM72.98248,218.40741c0.3125,0 0.61979,-0.14583 0.92188,-0.4375c0.30208,-0.29167 0.51042,-0.69271 0.625,-1.20312l0.89063,-4.21875c0,-0.15625 -0.0625,-0.3125 -0.1875,-0.46875c-0.125,-0.15625 -0.31771,-0.23437 -0.57813,-0.23437c-0.48958,0 -0.9375,0.29167 -1.34375,0.875c-0.39583,0.57292 -0.70833,1.27083 -0.9375,2.09375c-0.21875,0.8125 -0.32812,1.52604 -0.32812,2.14063c0,0.625 0.08854,1.02604 0.26563,1.20313c0.1875,0.16667 0.41146,0.25 0.67188,0.25zM81.18629,220.21991c-0.59375,0 -1.07813,-0.18229 -1.45313,-0.54687c-0.36458,-0.375 -0.54687,-0.9375 -0.54687,-1.6875c0,-0.3125 0.05208,-0.71875 0.15625,-1.21875l1.125,-5.23437h-0.625l0.15625,-0.75h0.60938l0.5625,-2.57812l2.76563,-0.375l-0.64062,2.95313h1.125l-0.15625,0.75h-1.10937l-1.20312,5.59375c-0.05208,0.1875 -0.07812,0.38542 -0.07812,0.59375c0,0.25 0.05729,0.42708 0.17188,0.53125c0.125,0.10417 0.32292,0.15625 0.59375,0.15625c0.36458,0 0.70313,-0.15104 1.01563,-0.45312c0.3125,-0.30208 0.53646,-0.69792 0.67188,-1.1875h0.78125c-0.45833,1.34375 -1.05208,2.25521 -1.78125,2.73438c-0.71875,0.47917 -1.43229,0.71875 -2.14062,0.71875zM86.99563,220.21991c-0.92708,0 -1.64583,-0.23958 -2.15625,-0.71875c-0.51042,-0.47917 -0.76562,-1.22917 -0.76562,-2.25c0,-0.85417 0.17188,-1.79687 0.51563,-2.82812c0.34375,-1.03125 0.89063,-1.92187 1.64063,-2.67187c0.76042,-0.76042 1.71875,-1.14062 2.875,-1.14062c0.73958,0 1.26563,0.16146 1.57813,0.48438c0.32292,0.32292 0.48438,0.73438 0.48438,1.23438c0,0.4375 -0.09375,0.77604 -0.28125,1.01563c-0.1875,0.22917 -0.42187,0.34375 -0.70312,0.34375c-0.20833,0 -0.42708,-0.07292 -0.65625,-0.21875c0.14583,-0.40625 0.21875,-0.77604 0.21875,-1.10937c0,-0.22917 -0.04167,-0.41146 -0.125,-0.54687c-0.08333,-0.13542 -0.21354,-0.20312 -0.39062,-0.20312c-0.375,0 -0.75,0.30729 -1.125,0.92188c-0.36458,0.60417 -0.66667,1.34375 -0.90625,2.21875c-0.23958,0.86458 -0.35937,1.64583 -0.35937,2.34375c0,0.60417 0.10417,1.01563 0.3125,1.23438c0.21875,0.21875 0.5625,0.32813 1.03125,0.32813c0.67708,0 1.25521,-0.15625 1.73438,-0.46875c0.47917,-0.3125 1,-0.78646 1.5625,-1.42187h0.64063c-1.375,2.30208 -3.08333,3.45313 -5.125,3.45313zM97.89401,220.21991c-0.66667,0 -1.15104,-0.19792 -1.45312,-0.59375c-0.29167,-0.39583 -0.4375,-0.90104 -0.4375,-1.51562c0,-0.26042 0.03125,-0.55208 0.09375,-0.875c0.0625,-0.33333 0.125,-0.65625 0.1875,-0.96875c0.07292,-0.3125 0.11979,-0.51042 0.14063,-0.59375c0.10417,-0.4375 0.19792,-0.86458 0.28125,-1.28125c0.09375,-0.42708 0.14063,-0.77083 0.14063,-1.03125c0,-0.63542 -0.22396,-0.95312 -0.67187,-0.95312c-0.30208,0 -0.57812,0.13542 -0.82812,0.40625c-0.23958,0.27083 -0.43229,0.63021 -0.57812,1.07813l-1.32812,6.21875h-2.6875l2.71875,-12.6875l2.75,-0.375l-1,4.6875c0.625,-0.6875 1.34896,-1.03125 2.17188,-1.03125c0.63542,0 1.14063,0.17708 1.51563,0.53125c0.375,0.34375 0.5625,0.86979 0.5625,1.57813c0,0.36458 -0.04687,0.77083 -0.14062,1.21875c-0.08333,0.4375 -0.20312,0.96875 -0.35937,1.59375c-0.10417,0.38542 -0.19792,0.76563 -0.28125,1.14063c-0.07292,0.36458 -0.10937,0.65104 -0.10937,0.85938c0,0.25 0.05208,0.44271 0.15625,0.57813c0.11458,0.13542 0.30729,0.20313 0.57813,0.20313c0.30208,0 0.51042,-0.03646 0.625,-0.10937c-0.07292,0.63542 -0.30208,1.11458 -0.6875,1.4375c-0.375,0.32292 -0.82812,0.48438 -1.35937,0.48438z"/></g></g></svg>