<svg version="1.1" xmlns="http://www.w3.org/2000/svg" xmlns:xlink="http://www.w3.org/1999/xlink" width="75.87498" height="99.46871" viewBox="0,0,75.87498,99.46871"><g transform="translate(-202.06251,-130.26564)"><g data-paper-data="{&quot;isPaintingLayer&quot;:true}" fill="#000000" fill-rule="nonzero" stroke="none" stroke-width="1" stroke-linecap="square" stroke-linejoin="miter" stroke-miterlimit="10" stroke-dasharray="" stroke-dashoffset="0" style="mix-blend-mode: normal"><path d="M266.20311,205.99997c3.64584,0 6.24479,0.42188 7.79688,1.26563c1.55209,0.84375 2.59375,2.13542 3.125,3.875c0.54167,1.72917 0.8125,3.99479 0.8125,6.79688c0,2.80209 -0.29166,5.04688 -0.875,6.73438c-0.57291,1.6875 -1.52604,2.84375 -2.85937,3.46875c-1.95833,1.0625 -4.71354,1.59375 -8.26562,1.59375h-52.14062c-3.19791,0 -5.95312,-1.19791 -8.26562,-3.59375c-2.3125,-2.40625 -3.46875,-5.20834 -3.46875,-8.40625c0,-4.80209 1.66667,-9.22396 5,-13.26563c3.33334,-4.04166 7.35417,-7.50521 12.0625,-10.39062c4.71875,-2.89584 9.43229,-5.73959 14.14063,-8.53125c4.70834,-2.80209 8.72917,-5.97917 12.0625,-9.53125c3.33334,-3.5625 5,-7.34375 5,-11.34375c0,-0.80209 -0.3125,-1.93229 -0.9375,-3.39062c-0.61458,-1.46875 -1.30208,-2.67187 -2.0625,-3.60937c-0.75,-0.9375 -1.92708,-1.80209 -3.53125,-2.59375c-1.59375,-0.80209 -3.81771,-1.20312 -6.67187,-1.20312c-2.84375,0 -5.3125,1.04688 -7.40625,3.14063c-2.08333,2.08333 -3.25521,4.14583 -3.51562,6.1875l-0.53125,3.0625v0.8125c0,1.94791 -0.06771,3.41146 -0.20312,4.39063c-0.13541,0.97916 -0.55729,2.08854 -1.26562,3.32813c-1.33333,2.13541 -4.80208,3.20313 -10.40625,3.20313c-6.21875,0 -9.90625,-1.6875 -11.0625,-5.0625c-0.44791,-1.42709 -0.67187,-3.69271 -0.67187,-6.79687c0,-9.25 3.3125,-17.54167 9.9375,-24.875c6.625,-7.33334 15.29167,-11 26,-11c10.70834,0 19.39584,3.71354 26.0625,11.14063c6.66667,7.41666 10,15.88021 10,25.39063c0,5.07291 -1.11458,9.875 -3.34375,14.40625c-2.21875,4.53125 -4.88021,8.17708 -7.98437,10.9375c-6.58333,5.86458 -12.45312,9.81771 -17.60937,11.85937l-3.32812,1.34375v0.65625z"/></g></g></svg>