<svg version="1.1" xmlns="http://www.w3.org/2000/svg" xmlns:xlink="http://www.w3.org/1999/xlink" width="111.07343" height="134.43222" viewBox="0,0,111.07343,134.43222"><g transform="translate(-184.46328,-112.78389)"><g data-paper-data="{&quot;isPaintingLayer&quot;:true}" fill-rule="nonzero" stroke="none" stroke-linejoin="miter" stroke-miterlimit="10" stroke-dasharray="" stroke-dashoffset="0" style="mix-blend-mode: normal"><path d="M214.84795,203.66843v-47h43.33333v47z" fill="none" stroke-width="0" stroke-linecap="butt"/><path d="M263.66403,131.20313c6.21875,0 9.86458,1.6875 10.9375,5.0625c0.53125,1.42708 0.79688,3.91667 0.79688,7.46875c0,3.55208 -1.15625,7.97396 -3.46875,13.26563c-2.3125,5.29167 -5.09375,10.51563 -8.34375,15.67188c-3.23958,5.15625 -6.5,10.35417 -9.78125,15.59375c-7.82292,12.70833 -11.73437,22.93229 -11.73437,30.67188c0,1.94792 -0.08854,3.39063 -0.26562,4.32813c-0.17708,0.92708 -0.625,1.90625 -1.34375,2.9375c-0.70833,1.02083 -1.88542,1.70833 -3.53125,2.0625c-1.64583,0.35417 -3.89062,0.53125 -6.73437,0.53125c-2.84375,0 -5.08854,-0.17708 -6.73437,-0.53125c-1.63542,-0.35417 -2.8125,-1.0625 -3.53125,-2.125c-0.70833,-1.07292 -1.13021,-2.07292 -1.26562,-3c-0.13542,-0.9375 -0.20312,-2.43229 -0.20312,-4.48437c0,-5.77083 0.97917,-11.69792 2.9375,-17.78125c1.95833,-6.09375 4.3125,-11.54167 7.0625,-16.34375c2.76042,-4.80208 5.51563,-9.22396 8.26563,-13.26562c2.76042,-4.04167 5.11458,-7.50521 7.0625,-10.39062c1.95833,-2.89583 2.9375,-4.92187 2.9375,-6.07812h-30.39062c-3.55208,0 -6.13021,-0.44271 -7.73437,-1.32812c-1.60417,-0.88542 -2.67187,-2.17187 -3.20312,-3.85937c-0.53125,-1.69792 -0.79687,-3.92187 -0.79687,-6.67187c0,-2.76042 0.26563,-4.98437 0.79688,-6.67187c0.53125,-1.6875 1.375,-2.84375 2.53125,-3.46875c1.875,-1.0625 4.45313,-1.59375 7.73438,-1.59375z" fill="#000000" stroke-width="1" stroke-linecap="square"/><path d="M184.46329,247.21611v-134.43222h111.07343v134.43222z" fill="none" stroke-width="0" stroke-linecap="butt"/></g></g></svg>