<svg version="1.1" xmlns="http://www.w3.org/2000/svg" xmlns:xlink="http://www.w3.org/1999/xlink" width="111.07343" height="134.43222" viewBox="0,0,111.07343,134.43222"><g transform="translate(-184.46328,-112.78389)"><g data-paper-data="{&quot;isPaintingLayer&quot;:true}" fill-rule="nonzero" stroke="none" stroke-linejoin="miter" stroke-miterlimit="10" stroke-dasharray="" stroke-dashoffset="0" style="mix-blend-mode: normal"><path d="M214.18128,199.66843v-48.66667h47.33333v48.66667z" fill="none" stroke-width="0" stroke-linecap="butt"/><path d="M275.46872,197.60938c0,9.94792 -3.625,17.96875 -10.875,24.0625c-7.23958,6.08333 -15.4375,9.125 -24.59375,9.125c-9.15625,0 -17.35937,-3.02083 -24.60937,-9.0625c-7.23958,-6.04167 -10.85937,-14.08333 -10.85937,-24.125c0,-3.73958 0.91146,-7.36458 2.73438,-10.875c1.82292,-3.51042 3.625,-6.0625 5.40625,-7.65625l2.79688,-2.53125c-0.625,-0.54167 -1.38021,-1.25521 -2.26562,-2.14062c-0.88542,-0.88542 -2.0625,-2.81771 -3.53125,-5.79687c-1.46875,-2.97917 -2.20312,-6.06771 -2.20312,-9.26562c0,-8.70833 3.28646,-15.90625 9.85938,-21.59375c6.58333,-5.69792 14.22917,-8.54687 22.9375,-8.54687c8.70833,0 16.26042,2.89063 22.65625,8.67188c6.40625,5.78125 9.60938,13.15625 9.60938,22.125c0,2.66667 -0.64583,5.38021 -1.9375,8.14063c-1.28125,2.75 -2.58854,4.83854 -3.92187,6.26563l-2,2.14063c0.80208,0.61458 1.80208,1.52604 3,2.73438c1.19792,1.19792 2.79688,3.61979 4.79688,7.26563c2,3.63542 3,7.32292 3,11.0625zM248.93747,159.21876c0,-1.78125 -0.75521,-3.44792 -2.26562,-5c-1.51042,-1.5625 -3.75521,-2.34375 -6.73437,-2.34375c-2.97917,0 -5.18229,0.75521 -6.60937,2.26563c-1.41667,1.51042 -2.125,3.17708 -2.125,5c0,1.82292 0.77604,3.53646 2.32813,5.14063c1.5625,1.59375 3.78646,2.39063 6.67188,2.39063c2.88542,0 5.0625,-0.79687 6.53125,-2.39062c1.46875,-1.60417 2.20313,-3.29167 2.20313,-5.0625zM231.20309,205.07813c2.04167,2.125 5.01563,3.1875 8.92188,3.1875c3.91667,0 6.85417,-1.0625 8.8125,-3.1875c1.95833,-2.13542 2.9375,-4.42708 2.9375,-6.875c0,-2.44792 -1,-4.73437 -3,-6.85937c-2,-2.13542 -4.9375,-3.20312 -8.8125,-3.20312c-3.86458,0 -6.81771,1.04688 -8.85937,3.14063c-2.04167,2.08333 -3.0625,4.36979 -3.0625,6.85938c0,2.48958 1.02083,4.80208 3.0625,6.9375z" fill="#000000" stroke-width="1" stroke-linecap="square"/><path d="M184.46329,247.21611v-134.43222h111.07343v134.43222z" fill="none" stroke-width="0" stroke-linecap="butt"/></g></g></svg>