<svg version="1.1" xmlns="http://www.w3.org/2000/svg" xmlns:xlink="http://www.w3.org/1999/xlink" width="27.45775" height="26.21178" viewBox="0,0,27.45775,26.21178"><g transform="translate(-226.27113,-166.9288)"><g data-paper-data="{&quot;isPaintingLayer&quot;:true}" fill="none" fill-rule="nonzero" stroke="#000000" stroke-width="2" stroke-linecap="round" stroke-linejoin="round" stroke-miterlimit="10" stroke-dasharray="" stroke-dashoffset="0" style="mix-blend-mode: normal"><path d="M238.94753,169.16613c0.33345,-0.7481 0.50024,-1.12215 0.73243,-1.23734c0.20165,-0.10008 0.43845,-0.10008 0.6401,0c0.23219,0.11519 0.39898,0.48924 0.73243,1.23734l2.65605,5.95872c0.09867,0.22115 0.14793,0.33173 0.22427,0.41641c0.06741,0.07493 0.14994,0.13486 0.24198,0.17588c0.10414,0.04638 0.22455,0.05908 0.46538,0.08449l6.48787,0.68477c0.81453,0.08596 1.22172,0.12894 1.40307,0.31416c0.15743,0.16088 0.2306,0.38615 0.19776,0.60889c-0.03774,0.25639 -0.34194,0.53049 -0.95036,1.07884l-4.84642,4.3675c-0.17976,0.16204 -0.26978,0.24313 -0.32668,0.3418c-0.05041,0.08743 -0.08196,0.18437 -0.09247,0.28462c-0.01196,0.11336 0.01311,0.23176 0.06338,0.4687l1.35366,6.38186c0.16996,0.80128 0.25495,1.20185 0.13482,1.43144c-0.10443,0.19964 -0.296,0.33878 -0.51796,0.37637c-0.25552,0.04321 -0.61029,-0.16132 -1.31981,-0.57053l-5.6513,-3.25956c-0.20972,-0.12099 -0.31458,-0.18134 -0.42606,-0.20511c-0.09867,-0.02089 -0.20064,-0.02089 -0.29931,0c-0.11148,0.02377 -0.21634,0.08412 -0.42606,0.20511l-5.65127,3.25956c-0.7095,0.40921 -1.06425,0.61374 -1.31978,0.57053c-0.22198,-0.03759 -0.4136,-0.17673 -0.51794,-0.37637c-0.12011,-0.2296 -0.03515,-0.63016 0.1348,-1.43144l1.3536,-6.38186c0.05024,-0.23694 0.07536,-0.35534 0.06343,-0.4687c-0.01056,-0.10025 -0.04206,-0.19719 -0.09247,-0.28462c-0.05697,-0.09867 -0.1469,-0.17976 -0.32676,-0.3418l-4.84631,-4.3675c-0.60843,-0.54835 -0.91265,-0.82245 -0.95047,-1.07884c-0.03284,-0.22274 0.04034,-0.44801 0.19784,-0.60889c0.18131,-0.18522 0.58858,-0.2282 1.40311,-0.31416l6.48786,-0.68477c0.2408,-0.02541 0.36119,-0.03811 0.4653,-0.08449c0.09211,-0.04102 0.17459,-0.10096 0.24208,-0.17588c0.07627,-0.08468 0.12556,-0.19526 0.22415,-0.41641z"/></g></g></svg>