<svg version="1.1" xmlns="http://www.w3.org/2000/svg" xmlns:xlink="http://www.w3.org/1999/xlink" width="86.60232" height="119.1775" viewBox="0,0,86.60232,119.1775"><g transform="translate(-196.69884,-120.41125)"><g data-paper-data="{&quot;isPaintingLayer&quot;:true}" fill-rule="nonzero" stroke="none" stroke-linejoin="miter" stroke-miterlimit="10" stroke-dasharray="" stroke-dashoffset="0" style="mix-blend-mode: normal"><path d="M222.84795,206.33508v-47.33333h44v47.33333z" fill="none" stroke-width="0" stroke-linecap="butt"/><path d="M243.59375,134.40625c2.3125,-2.3125 4.82291,-3.46875 7.53125,-3.46875c2.71875,0 4.83333,0.22396 6.34375,0.67188c1.51041,0.4375 2.66146,0.94792 3.45313,1.53125c0.80208,0.57292 1.42708,1.52604 1.875,2.85938c0.44791,1.51042 0.67188,3.86459 0.67188,7.0625v74.26563c0,2.04166 -0.06771,3.57813 -0.20312,4.60938c-0.13542,1.02084 -0.55729,2.19791 -1.26562,3.53125c-1.25,2.39584 -4.71875,3.59375 -10.40625,3.59375c-5.51042,0 -8.93229,-1.15625 -10.26562,-3.46875c-0.70834,-1.33334 -1.13021,-2.55209 -1.26562,-3.65625c-0.13542,-1.11459 -0.20312,-2.73959 -0.20312,-4.875v-47.59375l-1.73437,1.59375c-3.64584,2.76041 -6.75521,4.14062 -9.32812,4.14062c-2.57292,0 -5.26042,-1.55729 -8.0625,-4.67187c-2.80209,-3.11459 -4.20313,-5.86979 -4.20313,-8.26563c0,-2.39583 1.59896,-5.01562 4.79688,-7.85937l21.875,-19.73437z" fill="#000000" stroke-width="1" stroke-linecap="square"/><path d="M196.69884,239.58875v-119.1775h86.60232v119.1775z" fill="none" stroke-width="0" stroke-linecap="butt"/></g></g></svg>