<svg version="1.1" xmlns="http://www.w3.org/2000/svg" xmlns:xlink="http://www.w3.org/1999/xlink" width="89.38441" height="101.06252" viewBox="0,0,89.38441,101.06252"><g transform="translate(-202.79689,-129.46876)"><g data-paper-data="{&quot;isPaintingLayer&quot;:true}" fill-rule="nonzero" stroke="none" stroke-linejoin="miter" stroke-miterlimit="10" stroke-dasharray="" stroke-dashoffset="0" style="mix-blend-mode: normal"><path d="M218.51464,213.00176v-57h73.66667v57z" fill="none" stroke-width="0" stroke-linecap="butt"/><path d="M243.84797,189.33511v-3.66667h12v3.66667z" fill="none" stroke-width="0" stroke-linecap="butt"/><path d="M223.1813,204.33511v-42.33333h42.33333v42.33333z" fill="none" stroke-width="0" stroke-linecap="butt"/><path d="M252.1813,200.66845v-2.33333h2.33333v2.33333z" fill="none" stroke-width="0" stroke-linecap="butt"/><path d="M214.84797,199.66845v-37.33333h43v37.33333z" fill="none" stroke-width="0" stroke-linecap="butt"/><path d="M212.92188,142.21875c2.58333,-3.60417 6.20833,-6.63021 10.875,-9.07812c4.66667,-2.44792 10.06771,-3.67187 16.20313,-3.67187c6.13542,0 11.48958,1.20313 16.0625,3.60938c4.58333,2.39583 8.18229,5.375 10.79688,8.9375c2.625,3.55208 4.73958,7.72917 6.34375,12.53125c2.66667,8 4,16.48438 4,25.45313c0,16.09375 -3.46875,28.84896 -10.40625,38.26563c-2.57292,3.5625 -6.15104,6.5 -10.73437,8.8125c-4.57292,2.30208 -9.88542,3.45313 -15.9375,3.45313c-6.04167,0 -11.39583,-1.17708 -16.0625,-3.53125c-4.66667,-2.35417 -8.3125,-5.26042 -10.9375,-8.71875c-2.61458,-3.46875 -4.76562,-7.60417 -6.45312,-12.40625c-2.58333,-7.64583 -3.875,-16.3125 -3.875,-26c0,-8.88542 1.04167,-16.48437 3.125,-22.79687c2.09375,-6.3125 4.42708,-11.26562 7,-14.85937zM239.87501,206.81251c9.14583,0 13.71875,-8.71354 13.71875,-26.14062v-0.79687c0,-17.86458 -4.53125,-26.79687 -13.59375,-26.79687c-9.0625,0 -13.59375,8.95833 -13.59375,26.875c0,17.90625 4.48958,26.85938 13.46875,26.85938z" fill="#1aaa1e" stroke-width="1" stroke-linecap="square"/></g></g></svg>