<svg version="1.1" xmlns="http://www.w3.org/2000/svg" xmlns:xlink="http://www.w3.org/1999/xlink" width="68.00001" height="99.46876" viewBox="0,0,68.00001,99.46876"><g transform="translate(-206.00002,-130.26562)"><g data-paper-data="{&quot;isPaintingLayer&quot;:true}" fill-rule="nonzero" stroke="none" stroke-linejoin="miter" stroke-miterlimit="10" stroke-dasharray="" stroke-dashoffset="0" style="mix-blend-mode: normal"><path d="M216.51464,198.33508v-38.66667h29.66667v38.66667z" fill="none" stroke-width="0" stroke-linecap="butt"/><path d="M220.18129,205.00175v-46h51.33333v46z" fill="none" stroke-width="0" stroke-linecap="butt"/><path d="M206.00002,161.85937c0,-8.97917 3.19792,-16.48958 9.59375,-22.53125c6.40625,-6.04167 14.1875,-9.0625 23.34375,-9.0625c11.64583,0 20.40104,3.71354 26.26563,11.14063c5.86458,7.41667 8.79688,16.98958 8.79688,28.71875c0,16.97917 -4.80208,31.16146 -14.40625,42.54688c-9.59375,11.375 -22.70312,17.0625 -39.32812,17.0625h-0.79687c-3.375,0 -5.77604,-0.44792 -7.20312,-1.34375c-2.48958,-1.51042 -3.73437,-5.02083 -3.73437,-10.53125c0,-6.21875 1.69271,-9.86458 5.07813,-10.9375c1.51042,-0.53125 4.08333,-0.79687 7.71875,-0.79687c3.64583,0 7.18229,-0.61979 10.60938,-1.85937c3.42708,-1.25 6.07292,-2.76042 7.9375,-4.53125c3.82292,-3.64583 6.26563,-6.9375 7.32813,-9.875l0.67188,-1.85937c-3.38542,1.51042 -6.71875,2.26563 -10,2.26563c-8.71875,0 -16.21354,-2.91146 -22.48437,-8.73437c-6.26042,-5.82292 -9.39062,-12.38021 -9.39062,-19.67187zM239.46877,152.125c-6.84375,0 -10.26562,2.97917 -10.26562,8.9375c0,2.04167 0.77604,3.95313 2.32813,5.73438c1.5625,1.78125 4.07292,2.67188 7.53125,2.67188c3.46875,0 6.11458,-0.82292 7.9375,-2.46875c1.82292,-1.64583 2.73438,-3.29167 2.73438,-4.9375c0,-1.64583 -0.11458,-2.93229 -0.34375,-3.85937c-0.21875,-0.9375 -0.68229,-1.9375 -1.39062,-3c-1.33333,-2.05208 -4.17708,-3.07812 -8.53125,-3.07812z" fill="#1aaa1e" stroke-width="1" stroke-linecap="square"/></g></g></svg>