<svg version="1.1" xmlns="http://www.w3.org/2000/svg" xmlns:xlink="http://www.w3.org/1999/xlink" width="111.86795" height="121.71995" viewBox="0,0,111.86795,121.71995"><g transform="translate(-184.06603,-119.14003)"><g data-paper-data="{&quot;isPaintingLayer&quot;:true}" fill-rule="nonzero" stroke="none" stroke-linejoin="miter" stroke-miterlimit="10" stroke-dasharray="" stroke-dashoffset="0" style="mix-blend-mode: normal"><path d="M218.51462,198.66842v-35.66667h40.33333v35.66667z" fill="none" stroke-width="0" stroke-linecap="butt"/><path d="M253.53123,134.68747c0.70834,-1.25 1.92709,-2.11979 3.65625,-2.60937c1.73958,-0.48959 4.01042,-0.73437 6.8125,-0.73437c2.80209,0 5.04688,0.29166 6.73438,0.875c1.6875,0.57291 2.88542,1.50521 3.59375,2.79688c0.71875,1.28125 1.14063,2.45833 1.26563,3.53125c0.13542,1.0625 0.20313,2.61458 0.20313,4.65625v74.14063c0,3.45834 -0.42187,6.01042 -1.26562,7.65625c-0.84375,1.64584 -2.13541,2.73438 -3.875,3.26563c-1.72916,0.53125 -3.88541,0.79688 -6.46875,0.79688c-2.57291,0 -4.61458,-0.21875 -6.125,-0.65625c-1.51041,-0.44791 -2.66666,-0.97916 -3.46875,-1.59375c-0.79166,-0.625 -1.36458,-1.51562 -1.71875,-2.67187c-0.54166,-1.51041 -0.8125,-3.82291 -0.8125,-6.9375v-16.26562h-36.125c-6.21875,0 -9.90625,-1.6875 -11.0625,-5.0625c-0.44792,-1.42709 -0.67187,-3.33854 -0.67187,-5.73438c0,-2.40625 0.13542,-4.18229 0.40625,-5.32812l11.0625,-44.67187c0.53125,-2.04167 0.99479,-3.59375 1.39063,-4.65625c0.40625,-1.07292 1.20833,-2.09896 2.40625,-3.07812c1.19792,-0.97917 2.72917,-1.46875 4.59375,-1.46875c1.875,0 3.92188,0.3125 6.14063,0.9375c6.21875,1.6875 9.32813,4.53125 9.32813,8.53125c0,1.42708 -0.30729,3.29166 -0.92187,5.59375c-0.09375,0.17708 -0.14062,0.3125 -0.14062,0.40625l-8.14062,32.53125h21.73438v-36.39062c0,-2.05209 0.06771,-3.5625 0.20312,-4.53125c0.13542,-0.97917 0.55729,-2.08854 1.26563,-3.32812z" fill="#000000" stroke-width="1" stroke-linecap="square"/><path d="M184.06603,240.85998v-121.71995h111.86795v121.71995z" fill="none" stroke-width="0" stroke-linecap="butt"/></g></g></svg>