<svg version="1.1" xmlns="http://www.w3.org/2000/svg" xmlns:xlink="http://www.w3.org/1999/xlink" width="55.73926" height="58.63928" viewBox="0,0,55.73926,58.63928"><g transform="translate(-212.13037,-152.26767)"><g data-paper-data="{&quot;isPaintingLayer&quot;:true}" fill-rule="nonzero" stroke="none" stroke-width="0" stroke-linecap="butt" stroke-linejoin="miter" stroke-miterlimit="10" stroke-dasharray="" stroke-dashoffset="0" style="mix-blend-mode: normal"><path d="M212.13038,206.02929c0,-6.68504 0,-34.16515 0,-45.14241c0,-2.55485 2.48177,-5.4446 4.84316,-5.4446c6.19026,0 33.17569,0 44.88064,0c3.1738,0 6.01545,2.90867 6.01545,5.95087c0,11.57196 0,38.02012 0,44.14491c0,2.27513 -2.7987,5.36889 -5.56711,5.36889c-11.20359,0 -39.07039,0 -45.45976,0c-2.4419,0 -4.71238,-2.17741 -4.71238,-4.87766z" fill="#213743"/><path d="M212.13037,202.85469c0,-6.68504 0,-34.16515 0,-45.14241c0,-2.55485 2.48177,-5.44461 4.84316,-5.44461c6.19026,0 33.17569,0 44.88064,0c3.1738,0 6.01546,2.90868 6.01546,5.95088c0,11.57196 0,38.02011 0,44.1449c0,2.27513 -2.7987,5.36889 -5.56711,5.36889c-11.20359,0 -39.07039,0 -45.45976,0c-2.4419,0 -4.71238,-2.17742 -4.71238,-4.87766z" fill="#2f4553"/></g></g></svg>