<svg version="1.1" xmlns="http://www.w3.org/2000/svg" xmlns:xlink="http://www.w3.org/1999/xlink" width="488.70924" height="303.53725" viewBox="0,0,488.70924,303.53725"><g transform="translate(3.72613,-53.78225)"><g data-paper-data="{&quot;isPaintingLayer&quot;:true}" fill="#000000" fill-rule="nonzero" stroke-width="2.5" stroke-linecap="butt" stroke-linejoin="miter" stroke-miterlimit="10" stroke-dasharray="" stroke-dashoffset="0" style="mix-blend-mode: normal"><path d="M-2.47613,356.0695v-6.04939c0,0 256.58636,0 346.30356,0c57.02496,0 139.90568,0 139.90568,0v6.04939c0,0 -199.45548,0 -286.34724,0c-72.59342,0 -199.86198,0 -199.86198,0z" stroke="#0d39d6"/><g><path d="M280.24368,268.63653v-6.38743c0,0 65.02971,0 87.7678,0c14.45251,0 35.45795,0 35.45795,0v6.38743c0,0 -50.55036,0 -72.57237,0c-18.39821,0 -50.65338,0 -50.65338,0z" data-paper-data="{&quot;index&quot;:null}" stroke="#000000"/><path d="M284.0919,268.4282c0,0 -3.83116,-2.13073 -3.83116,-3.17951c0,-0.95979 3.83116,-2.86989 3.83116,-2.86989c0,0 61.27782,0 82.70404,0c13.61867,0 33.41221,0 33.41221,0c0,0 3.27833,2.07553 3.27833,3.09525c0,0.9962 -3.27833,2.95415 -3.27833,2.95415c0,0 -47.63387,0 -68.38532,0c-17.33673,0 -47.73093,0 -47.73093,0z" data-paper-data="{&quot;index&quot;:null}" stroke="#0d39d6"/></g><g><path d="M257.82095,321.29983v-6.38743c0,0 65.02971,0 87.7678,0c14.45251,0 35.45795,0 35.45795,0v6.38743c0,0 -50.55036,0 -72.57237,0c-18.39821,0 -50.65338,0 -50.65338,0z" data-paper-data="{&quot;index&quot;:null}" stroke="#000000"/><path d="M261.66917,321.0915c0,0 -3.83116,-2.13073 -3.83116,-3.17951c0,-0.95979 3.83116,-2.86989 3.83116,-2.86989c0,0 61.27782,0 82.70404,0c13.61867,0 33.41221,0 33.41221,0c0,0 3.27833,2.07553 3.27833,3.09525c0,0.9962 -3.27833,2.95415 -3.27833,2.95415c0,0 -47.63387,0 -68.38532,0c-17.33673,0 -47.73093,0 -47.73093,0z" data-paper-data="{&quot;index&quot;:null}" stroke="#0d39d6"/></g><g><path d="M302.6492,216.60894v-6.38743c0,0 65.02971,0 87.7678,0c14.45251,0 35.45795,0 35.45795,0v6.38743c0,0 -50.55036,0 -72.57237,0c-18.39821,0 -50.65338,0 -50.65338,0z" data-paper-data="{&quot;index&quot;:null}" stroke="#000000"/><path d="M306.49742,216.40061c0,0 -3.83116,-2.13073 -3.83116,-3.17951c0,-0.95979 3.83116,-2.86989 3.83116,-2.86989c0,0 61.27782,0 82.70404,0c13.61867,0 33.41221,0 33.41221,0c0,0 3.27833,2.07553 3.27833,3.09525c0,0.9962 -3.27833,2.95415 -3.27833,2.95415c0,0 -47.63387,0 -68.38532,0c-17.33673,0 -47.73093,0 -47.73093,0z" data-paper-data="{&quot;index&quot;:null}" stroke="#0d39d6"/></g><g data-paper-data="{&quot;index&quot;:null}"><path d="M172.16267,237.72582c-22.02201,0 -72.57237,0 -72.57237,0v-6.38743c0,0 21.00544,0 35.45795,0c22.73809,0 87.7678,0 87.7678,0v6.38743c0,0 -32.25517,0 -50.65338,0z" data-paper-data="{&quot;index&quot;:null}" stroke="#000000"/><path d="M171.2369,237.51749c-20.75145,0 -68.38532,0 -68.38532,0c0,0 -3.27833,-1.95795 -3.27833,-2.95415c0,-1.01972 3.27833,-3.09525 3.27833,-3.09525c0,0 19.79354,0 33.41221,0c21.42622,0 82.70404,0 82.70404,0c0,0 3.83116,1.9101 3.83116,2.86989c0,1.04878 -3.83116,3.17951 -3.83116,3.17951c0,0 -30.3942,0 -47.73093,0z" data-paper-data="{&quot;index&quot;:null}" stroke="#0d39d6"/></g><g data-paper-data="{&quot;index&quot;:null}"><path d="M194.58539,290.38913c-22.02201,0 -72.57237,0 -72.57237,0v-6.38743c0,0 21.00544,0 35.45795,0c22.73809,0 87.7678,0 87.7678,0v6.38743c0,0 -32.25517,0 -50.65338,0z" data-paper-data="{&quot;index&quot;:null}" stroke="#000000"/><path d="M193.65962,290.1808c-20.75145,0 -68.38532,0 -68.38532,0c0,0 -3.27833,-1.95795 -3.27833,-2.95415c0,-1.01972 3.27833,-3.09525 3.27833,-3.09525c0,0 19.79354,0 33.41221,0c21.42622,0 82.70404,0 82.70404,0c0,0 3.83116,1.9101 3.83116,2.86989c0,1.04878 -3.83116,3.17951 -3.83116,3.17951c0,0 -30.3942,0 -47.73093,0z" data-paper-data="{&quot;index&quot;:null}" stroke="#0d39d6"/></g><g data-paper-data="{&quot;index&quot;:null}"><path d="M149.75715,185.69823c-22.02201,0 -72.57237,0 -72.57237,0v-6.38743c0,0 21.00544,0 35.45795,0c22.73809,0 87.7678,0 87.7678,0v6.38743c0,0 -32.25517,0 -50.65338,0z" data-paper-data="{&quot;index&quot;:null}" stroke="#000000"/><path d="M148.83138,185.4899c-20.75145,0 -68.38532,0 -68.38532,0c0,0 -3.27833,-1.95795 -3.27833,-2.95415c0,-1.01972 3.27833,-3.09525 3.27833,-3.09525c0,0 19.79354,0 33.41221,0c21.42622,0 82.70404,0 82.70404,0c0,0 3.83116,1.9101 3.83116,2.86989c0,1.04878 -3.83116,3.17951 -3.83116,3.17951c0,0 -30.3942,0 -47.73093,0z" data-paper-data="{&quot;index&quot;:null}" stroke="#0d39d6"/></g><g data-paper-data="{&quot;index&quot;:null}"><path d="M328.49154,107.69555c22.02201,0 72.57237,0 72.57237,0v6.38743c0,0 -21.00544,0 -35.45795,0c-22.73809,0 -87.7678,0 -87.7678,0v-6.38743c0,0 32.25517,0 50.65338,0z" data-paper-data="{&quot;index&quot;:null}" stroke="#000000"/><path d="M329.41731,107.90388c20.75145,0 68.38532,0 68.38532,0c0,0 3.27833,1.95795 3.27833,2.95415c0,1.01972 -3.27833,3.09525 -3.27833,3.09525c0,0 -19.79354,0 -33.41221,0c-21.42622,0 -82.70404,0 -82.70404,0c0,0 -3.83116,-1.9101 -3.83116,-2.86989c0,-1.04878 3.83116,-3.17951 3.83116,-3.17951c0,0 30.3942,0 47.73093,0z" data-paper-data="{&quot;index&quot;:null}" stroke="#0d39d6"/></g><g data-paper-data="{&quot;index&quot;:null}"><path d="M306.06881,55.03225c22.02201,0 72.57237,0 72.57237,0v6.38743c0,0 -21.00544,0 -35.45795,0c-22.73809,0 -87.7678,0 -87.7678,0v-6.38743c0,0 32.25517,0 50.65338,0z" data-paper-data="{&quot;index&quot;:null}" stroke="#000000"/><path d="M306.99458,55.24058c20.75145,0 68.38532,0 68.38532,0c0,0 3.27833,1.95795 3.27833,2.95415c0,1.01972 -3.27833,3.09525 -3.27833,3.09525c0,0 -19.79354,0 -33.41221,0c-21.42622,0 -82.70404,0 -82.70404,0c0,0 -3.83116,-1.9101 -3.83116,-2.86989c0,-1.04878 3.83116,-3.17951 3.83116,-3.17951c0,0 30.3942,0 47.73093,0z" data-paper-data="{&quot;index&quot;:null}" stroke="#0d39d6"/></g><g data-paper-data="{&quot;index&quot;:null}"><path d="M350.89706,159.72314c22.02201,0 72.57237,0 72.57237,0v6.38743c0,0 -21.00544,0 -35.45795,0c-22.73809,0 -87.7678,0 -87.7678,0v-6.38743c0,0 32.25517,0 50.65338,0z" data-paper-data="{&quot;index&quot;:null}" stroke="#000000"/><path d="M351.82283,159.93147c20.75145,0 68.38532,0 68.38532,0c0,0 3.27833,1.95795 3.27833,2.95415c0,1.01972 -3.27833,3.09525 -3.27833,3.09525c0,0 -19.79354,0 -33.41221,0c-21.42622,0 -82.70404,0 -82.70404,0c0,0 -3.83116,-1.9101 -3.83116,-2.86989c0,-1.04878 3.83116,-3.17951 3.83116,-3.17951c0,0 30.3942,0 47.73093,0z" data-paper-data="{&quot;index&quot;:null}" stroke="#0d39d6"/></g><g data-paper-data="{&quot;index&quot;:null}"><path d="M196.47579,130.99458v6.38743c0,0 -65.02971,0 -87.7678,0c-14.45251,0 -35.45795,0 -35.45795,0v-6.38743c0,0 50.55036,0 72.57237,0c18.39821,0 50.65338,0 50.65338,0z" data-paper-data="{&quot;index&quot;:null}" stroke="#000000"/><path d="M192.62757,131.20291c0,0 3.83116,2.13073 3.83116,3.17951c0,0.95979 -3.83116,2.86989 -3.83116,2.86989c0,0 -61.27782,0 -82.70404,0c-13.61867,0 -33.41221,0 -33.41221,0c0,0 -3.27833,-2.07553 -3.27833,-3.09525c0,-0.9962 3.27833,-2.95415 3.27833,-2.95415c0,0 47.63387,0 68.38532,0c17.33673,0 47.73093,0 47.73093,0z" data-paper-data="{&quot;index&quot;:null}" stroke="#0d39d6"/></g><g data-paper-data="{&quot;index&quot;:null}"><path d="M205.18715,80.94296v6.38743c0,0 -65.02971,0 -87.7678,0c-14.45251,0 -35.45795,0 -35.45795,0v-6.38743c0,0 50.55036,0 72.57237,0c18.39821,0 50.65338,0 50.65338,0z" data-paper-data="{&quot;index&quot;:null}" stroke="#000000"/><path d="M201.33893,81.15129c0,0 3.83116,2.13073 3.83116,3.17951c0,0.95979 -3.83116,2.86989 -3.83116,2.86989c0,0 -61.27782,0 -82.70404,0c-13.61867,0 -33.41221,0 -33.41221,0c0,0 -3.27833,-2.07553 -3.27833,-3.09525c0,-0.9962 3.27833,-2.95415 3.27833,-2.95415c0,0 47.63387,0 68.38532,0c17.33673,0 47.73093,0 47.73093,0z" data-paper-data="{&quot;index&quot;:null}" stroke="#0d39d6"/></g></g></g></svg>