<svg version="1.1" xmlns="http://www.w3.org/2000/svg" xmlns:xlink="http://www.w3.org/1999/xlink" width="260.47131" height="116.23023" viewBox="0,0,260.47131,116.23023"><g transform="translate(-100.43573,-44.90333)"><g data-paper-data="{&quot;isPaintingLayer&quot;:true}" fill-rule="nonzero" stroke="#000000" stroke-width="7.5" stroke-linejoin="miter" stroke-miterlimit="10" stroke-dasharray="" stroke-dashoffset="0" style="mix-blend-mode: normal"><path d="M145.91358,83.58164c25.09053,-24.17883 105.62536,-44.00185 146.20584,-30.59794c0.28172,0.09305 5.43173,12.5685 9.37703,24.93748c2.28282,7.1569 3.64623,4.41362 5.27595,8.85821c0.43092,1.17521 30.13401,-0.34452 43.65805,5.32821c10.45832,4.3868 5.50478,16.35282 5.86036,16.61909c0.25343,0.18978 -43.40975,-15.5285 -125.72355,-3.54766c-69.78894,13.47051 -121.70329,54.01102 -121.98776,52.14199c-0.07137,-0.46896 -9.81906,-3.35138 -0.04683,-12.07212c7.55703,-6.74389 34.634,-21.82756 34.56542,-22.31342c-1.77393,-12.56711 -3.83356,-32.9464 2.81549,-39.35385z" fill="#0cff00" stroke-linecap="butt"/><path d="M144.8172,122.39812c0,0 51.8319,-24.2213 78.5641,-30.02629c26.46415,-5.74678 81.03307,-4.63076 81.03307,-4.63076" fill="none" stroke-linecap="round"/></g></g></svg>