<svg version="1.1" xmlns="http://www.w3.org/2000/svg" xmlns:xlink="http://www.w3.org/1999/xlink" width="529.21334" height="324.7957" viewBox="0,0,529.21334,324.7957"><g transform="translate(42.54755,-32.52382)"><g data-paper-data="{&quot;isPaintingLayer&quot;:true}" fill="#000000" fill-rule="nonzero" stroke-linecap="butt" stroke-linejoin="miter" stroke-miterlimit="10" stroke-dasharray="" stroke-dashoffset="0" style="mix-blend-mode: normal"><path d="M200.43795,163.38036c0,0 -12.7172,0 -19.97102,0c-8.68257,0 -28.61297,0 -28.61297,0v-10.04832c0,0 8.28177,0 13.97994,0c8.96491,0 34.60406,0 34.60406,0v10.04832z" data-paper-data="{&quot;index&quot;:null}" stroke="#000000" stroke-width="2.5"/><g stroke-width="2.5"><path d="M280.65716,163.00043v-10.04832c0,0 25.92186,0 34.98562,0c5.761,0 14.13409,0 14.13409,0v10.04832c0,0 -20.15016,0 -28.92847,0c-7.33381,0 -20.19123,0 -20.19123,0z" data-paper-data="{&quot;index&quot;:null}" stroke="#000000"/><path d="M282.19113,162.67269c0,0 -1.52715,-3.35194 -1.52715,-5.00181c0,-1.50988 1.52715,-4.51474 1.52715,-4.51474c0,0 24.4263,0 32.96712,0c5.42861,0 13.31862,0 13.31862,0c0,0 1.3068,3.2651 1.3068,4.86926c0,1.56716 -1.3068,4.64729 -1.3068,4.64729c0,0 -18.9876,0 -27.25945,0c-6.91069,0 -19.0263,0 -19.0263,0z" data-paper-data="{&quot;index&quot;:null}" stroke="#0d39d6"/></g><g data-paper-data="{&quot;index&quot;:null}" stroke-width="2.5"><path d="M322.43557,287.7223c0,-6.53836 0,-21.54681 0,-21.54681h24.04695c0,0 0,6.23654 0,10.5275c0,6.75096 0,26.05835 0,26.05835h-24.04695c0,0 0,-9.57659 0,-15.03904z" data-paper-data="{&quot;index&quot;:null}" stroke="#000000"/><path d="M323.21983,301.6188c0,0 0,-9.02407 0,-14.17136c0,-6.16112 0,-20.30367 0,-20.30367c0,0 7.37118,-0.97334 11.12161,-0.97334c3.83899,0 11.65279,0.97334 11.65279,0.97334c0,0 0,5.87672 0,9.92012c0,6.36146 0,24.55491 0,24.55491c0,0 -7.191,1.13747 -10.80436,1.13747c-3.94837,0 -11.97002,-1.13747 -11.97002,-1.13747z" data-paper-data="{&quot;index&quot;:null}" stroke="#0d39d6"/></g><path d="M236.34486,354.63931v-3.23007h10.55157v3.23007z" stroke="none" stroke-width="2.5"/><g stroke-width="2.5"><path d="M281.53058,310.68663v-6.38743c0,0 75.92228,0 102.46903,0c16.87333,0 41.3972,0 41.3972,0v6.38743c0,0 -59.0176,0 -84.72834,0c-21.47994,0 -59.1379,0 -59.1379,0z" data-paper-data="{&quot;index&quot;:null}" stroke="#000000"/><path d="M286.02335,310.4783c0,0 -4.47287,-2.13073 -4.47287,-3.17951c0,-0.95979 4.47287,-2.86989 4.47287,-2.86989c0,0 71.54194,0 96.55709,0c15.89981,0 39.00879,0 39.00879,0c0,0 3.82745,2.07553 3.82745,3.09525c0,0.9962 -3.82745,2.95415 -3.82745,2.95415c0,0 -55.6126,0 -79.83994,0c-20.24066,0 -55.72593,0 -55.72593,0z" data-paper-data="{&quot;index&quot;:null}" stroke="#0d39d6"/></g><g stroke-width="2.5"><path d="M429.94209,268.00247v-6.38743c0,0 21.26122,0 28.69534,0c4.72519,0 11.59283,0 11.59283,0v6.38743c0,0 -16.52724,0 -23.72725,0c-6.01522,0 -16.56092,0 -16.56092,0z" data-paper-data="{&quot;index&quot;:null}" stroke="#000000"/><path d="M431.20025,267.79414c0,0 -1.25259,-2.13073 -1.25259,-3.17951c0,-0.95979 1.25259,-2.86989 1.25259,-2.86989c0,0 20.03454,0 27.03976,0c4.45257,0 10.92399,0 10.92399,0c0,0 1.07184,2.07553 1.07184,3.09525c0,0.9962 -1.07184,2.95415 -1.07184,2.95415c0,0 -15.57371,0 -22.35831,0c-5.66818,0 -15.60544,0 -15.60544,0z" data-paper-data="{&quot;index&quot;:null}" stroke="#0d39d6"/></g><g stroke-width="2.5"><path d="M184.39177,246.07888v-6.38743c0,0 58.53709,0 79.00499,0c13.00956,0 31.9178,0 31.9178,0v6.38743c0,0 -45.50336,0 -65.32668,0c-16.56132,0 -45.5961,0 -45.5961,0z" data-paper-data="{&quot;index&quot;:null}" stroke="#000000"/><path d="M187.85577,245.87055c0,0 -3.44864,-2.13073 -3.44864,-3.17951c0,-0.95979 3.44864,-2.86989 3.44864,-2.86989c0,0 55.15979,0 74.4468,0c12.25896,0 30.0763,0 30.0763,0c0,0 2.95102,2.07553 2.95102,3.09525c0,0.9962 -2.95102,2.95415 -2.95102,2.95415c0,0 -42.87806,0 -61.55766,0c-15.60582,0 -42.96544,0 -42.96544,0z" data-paper-data="{&quot;index&quot;:null}" stroke="#0d39d6"/></g><path d="M376.94059,137.14524v-6.38743c0,0 47.28751,0 63.82192,0c10.50941,0 25.78388,0 25.78388,0v6.38743c0,0 -36.75858,0 -52.77228,0c-13.37858,0 -36.83351,0 -36.83351,0z" data-paper-data="{&quot;index&quot;:null}" stroke="#000000" stroke-width="2.5"/><path d="M377.1382,137.17255c0,0 0,-2.50962 0,-3.59384c0,-0.89622 1.65501,-1.99745 1.65501,-1.99745c0,0 -0.13074,-0.4581 2.50119,-0.4581c13.25979,0 54.63408,0 70.84716,0c12.35062,0 30.30116,0 30.30116,0c0,0 2.97307,2.07553 2.97307,3.09525c0,0.9962 -2.97307,2.95415 -2.97307,2.95415c0,0 -43.19862,0 -62.01786,0c-15.72249,0 -43.28665,0 -43.28665,0z" data-paper-data="{&quot;index&quot;:null}" stroke="#0d39d6" stroke-width="2.5"/><g stroke-width="2.5"><path d="M468.61252,134.45314h-10.04696c0,0 0,-53.12396 0,-71.69913c0,-11.80652 0,-28.96626 0,-28.96626h10.04696c0,0 0,41.29552 0,59.2857c0,15.02985 0,41.37969 0,41.37969z" data-paper-data="{&quot;index&quot;:null}" stroke="#000000"/><path d="M468.28483,131.30945h-9.51526c0,0 0,-50.05899 0,-67.56245c0,-11.12535 0,-27.29505 0,-27.29505c0,0 3.26466,-2.67813 4.8686,-2.67813c1.56695,0 4.64666,2.67813 4.64666,2.67813c0,0 0,38.913 0,55.86524c0,14.16271 0,38.99227 0,38.99227z" data-paper-data="{&quot;index&quot;:null}" stroke="#0d39d6"/></g><path d="M12.55441,40.36731v-6.38743c0,0 240.65549,0 324.80235,0c53.48444,0 131.21924,0 131.21924,0v6.38743c0,0 -187.07173,0 -268.56861,0c-68.08625,0 -187.45298,0 -187.45298,0z" data-paper-data="{&quot;index&quot;:null}" stroke="#000000" stroke-width="2.5"/><path d="M14.2944,40.15898v-6.0494c0,0 239.72842,0 323.55115,0c44.43612,0 105.67628,0 124.7796,0c3.80133,0 4.44328,0.74546 4.44328,0.74546c0,0 1.58411,1.10833 1.58411,1.81103c0,1.11584 -0.09319,3.49291 -0.09319,3.49291c0,0 -186.35115,0 -267.53403,0c-67.824,0 -186.73092,0 -186.73092,0z" data-paper-data="{&quot;index&quot;:null}" stroke="#0d39d6" stroke-width="2.5"/><g stroke-width="2.5"><path d="M344.01703,162.98819h-16.63656c0,0 0,-21.44242 0,-28.93992c0,-4.76546 0,-11.69165 0,-11.69165h16.63656c0,0 0,16.66811 0,23.92949c0,6.06649 0,16.70208 0,16.70208z" data-paper-data="{&quot;index&quot;:null}" stroke="#000000"/><path d="M343.47441,161.71931c0,0 -5.54965,1.26326 -8.28128,1.26326c-2.49985,0 -7.79632,-0.19169 -7.79632,-0.19169c0,0 0.32147,-21.27688 0.32147,-28.3418c0,-4.49052 0,-11.0171 0,-11.0171c0,0 5.40588,-1.08097 8.06182,-1.08097c2.59468,0 7.69431,1.08097 7.69431,1.08097c0,0 0,15.70645 0,22.54888c0,5.71649 0,15.73845 0,15.73845z" data-paper-data="{&quot;index&quot;:null}" stroke="#0d39d6"/></g><g stroke-width="2.5"><path d="M246.38687,72.03744h-16.63656c0,0 0,-18.45658 0,-24.91005c0,-4.10187 0,-10.06359 0,-10.06359h16.63656c0,0 0,14.34708 0,20.59732c0,5.22173 0,14.37632 0,14.37632z" data-paper-data="{&quot;index&quot;:null}" stroke="#000000"/><path d="M245.84425,70.94525c0,0 -5.54965,1.08736 -8.28128,1.08736c-2.49985,0 -7.47485,-1.08736 -7.47485,-1.08736c0,0 0,-17.39173 0,-23.47286c0,-3.86521 0,-9.48296 0,-9.48296c0,0 5.40588,-0.93045 8.06182,-0.93045c2.59468,0 7.69431,0.93045 7.69431,0.93045c0,0 0,13.51933 0,19.40896c0,4.92048 0,13.54687 0,13.54687z" data-paper-data="{&quot;index&quot;:null}" stroke="#0d39d6"/></g><path d="M336.7728,143.51509v-1.48885h0.45811v1.48885z" stroke="none" stroke-width="0"/><path d="M325.51572,161.26675v-6.75709h6.75709v6.75709z" stroke="none" stroke-width="0"/><path d="M460.01838,133.65331v-8.22067h6.98757v8.22067z" stroke="none" stroke-width="2.5"/><path d="M461.35423,42.40396v-5.75446h4.31585v5.75446z" stroke="#000000" stroke-width="2.5"/><path d="M375.42336,212.45085c0,0 27.56416,0 43.28665,0c18.81924,0 62.01786,0 62.01786,0c0,0 2.97307,1.95795 2.97307,2.95415c0,1.01972 -2.97307,3.09525 -2.97307,3.09525c0,0 -17.95054,0 -30.30116,0c-16.21308,0 -57.58737,0 -70.84716,0c-2.63193,0 -2.50119,-0.4581 -2.50119,-0.4581c0,0 -1.65501,-1.10123 -1.65501,-1.99745c0,-1.08422 0,-3.59384 0,-3.59384z" data-paper-data="{&quot;index&quot;:null}" stroke="#0d39d6" stroke-width="2.5"/><path d="M454.68162,266.45947v-3.66089h9.15222v3.66089z" stroke="none" stroke-width="0"/><path d="M226.88584,38.70532v-3.31497h23.7282v3.31497z" stroke="none" stroke-width="2.5"/><path d="M231.24764,44.98631v-9.07255h13.08541v9.07255z" stroke="none" stroke-width="0"/><path d="M332.22779,306.9355v-8.6317h6.78204v8.6317z" stroke="none" stroke-width="2.5"/><path d="M-41.29755,352.63524c0,-0.93099 0,-2.61511 0,-2.61511c0,0 277.59412,0 374.65683,0c61.69383,0 151.36032,0 151.36032,0c0,0 0,1.886 0,2.90978c0,0.99165 -1.87987,2.29422 -1.87987,2.29422c0,0 0.09783,0.84539 -3.21294,0.84539c-33.12092,0 -219.23577,0 -304.69883,0c-64.64001,0 -169.35022,0 -204.38276,0c-0.85654,0 -4.22069,-0.09318 -4.99232,-0.09318c-6.01337,0 -6.85042,-2.27421 -6.85042,-3.3411z" stroke="#0d39d6" stroke-width="2.5"/><g data-paper-data="{&quot;index&quot;:null}" stroke-width="2.5"><path d="M132.76614,293.53122c0,-6.53836 0,-21.54681 0,-21.54681h24.04695c0,0 0,6.23654 0,10.5275c0,6.75096 0,26.05835 0,26.05835h-24.04695c0,0 0,-9.57659 0,-15.03904z" data-paper-data="{&quot;index&quot;:null}" stroke="#000000"/><path d="M133.5504,307.42772c0,0 0,-9.02407 0,-14.17136c0,-6.16112 0,-20.30367 0,-20.30367c0,0 7.37118,-0.97334 11.12161,-0.97334c3.83899,0 11.65279,0.97334 11.65279,0.97334c0,0 0,5.87672 0,9.92012c0,6.36146 0,24.55491 0,24.55491c0,0 -7.191,1.13747 -10.80436,1.13747c-3.94837,0 -11.97002,-1.13747 -11.97002,-1.13747z" data-paper-data="{&quot;index&quot;:null}" stroke="#0d39d6"/></g><g data-paper-data="{&quot;index&quot;:null}" stroke-width="2.5"><path d="M199.56455,311.06657c0,0 -37.65796,0 -59.1379,0c-25.71074,0 -84.72834,0 -84.72834,0v-6.38743c0,0 24.52387,0 41.3972,0c26.54675,0 102.46903,0 102.46903,0v6.38743z" data-paper-data="{&quot;index&quot;:null}" stroke="#000000"/><path d="M195.07175,310.85824c0,0 -35.48527,0 -55.72593,0c-24.22734,0 -79.83994,0 -79.83994,0c0,0 -3.82745,-1.95795 -3.82745,-2.95415c0,-1.01972 3.82745,-3.09525 3.82745,-3.09525c0,0 23.10898,0 39.00879,0c25.01515,0 96.55709,0 96.55709,0c0,0 4.47287,1.9101 4.47287,2.86989c0,1.04878 -4.47287,3.17951 -4.47287,3.17951z" data-paper-data="{&quot;index&quot;:null}" stroke="#0d39d6"/></g><g data-paper-data="{&quot;index&quot;:null}" stroke-width="2.5"><path d="M34.59212,271.38516c-7.20001,0 -23.72725,0 -23.72725,0v-6.38743c0,0 6.86764,0 11.59283,0c7.43412,0 28.69534,0 28.69534,0v6.38743c0,0 -10.5457,0 -16.56092,0z" data-paper-data="{&quot;index&quot;:null}" stroke="#000000"/><path d="M34.28944,271.17683c-6.7846,0 -22.35831,0 -22.35831,0c0,0 -1.07184,-1.95795 -1.07184,-2.95415c0,-1.01972 1.07184,-3.09525 1.07184,-3.09525c0,0 6.47142,0 10.92399,0c7.00522,0 27.03976,0 27.03976,0c0,0 1.25259,1.9101 1.25259,2.86989c0,1.04878 -1.25259,3.17951 -1.25259,3.17951c0,0 -9.93726,0 -15.60544,0z" data-paper-data="{&quot;index&quot;:null}" stroke="#0d39d6"/></g><path d="M104.15453,137.52517c0,0 -23.45493,0 -36.83351,0c-16.0137,0 -52.77228,0 -52.77228,0v-6.38743c0,0 15.27447,0 25.78388,0c16.53441,0 63.82192,0 63.82192,0v6.38743z" data-paper-data="{&quot;index&quot;:null}" stroke="#000000" stroke-width="2.5"/><path d="M103.95692,137.5525c0,0 -27.56416,0 -43.28665,0c-18.81924,0 -62.01786,0 -62.01786,0c0,0 -2.97307,-1.95795 -2.97307,-2.95415c0,-1.01972 2.97307,-3.09525 2.97307,-3.09525c0,0 17.95054,0 30.30116,0c16.21308,0 57.58737,0 70.84716,0c2.63193,0 2.50119,0.4581 2.50119,0.4581c0,0 1.65501,1.10123 1.65501,1.99745c0,1.08422 0,3.59384 0,3.59384z" data-paper-data="{&quot;index&quot;:null}" stroke="#0d39d6" stroke-width="2.5"/><g data-paper-data="{&quot;index&quot;:null}" stroke-width="2.5"><path d="M12.48261,93.45339c0,-17.99018 0,-59.2857 0,-59.2857h10.04696c0,0 0,17.15974 0,28.96626c0,18.57517 0,71.69913 0,71.69913h-10.04696c0,0 0,-26.34984 0,-41.37969z" data-paper-data="{&quot;index&quot;:null}" stroke="#000000"/><path d="M12.8103,131.68939c0,0 0,-24.82956 0,-38.99227c0,-16.95224 0,-55.86524 0,-55.86524c0,0 3.07971,-2.67813 4.64666,-2.67813c1.60394,0 4.8686,-0.06937 4.8686,-0.06937c0,0 0,18.9172 0,30.04255c0,17.50346 0,67.56245 0,67.56245h-9.51526z" data-paper-data="{&quot;index&quot;:null}" stroke="#0d39d6"/></g><g data-paper-data="{&quot;index&quot;:null}" stroke-width="2.5"><path d="M137.0781,146.66605c0,-7.26138 0,-23.92949 0,-23.92949h16.63656c0,0 0,6.92619 0,11.69165c0,7.49749 0,28.93992 0,28.93992h-16.63656c0,0 0,-10.63559 0,-16.70208z" data-paper-data="{&quot;index&quot;:null}" stroke="#000000"/><path d="M137.62072,162.09924c0,0 0,-10.02196 0,-15.73845c0,-6.84243 0,-22.54888 0,-22.54888c0,0 5.09963,-1.08097 7.69431,-1.08097c2.65594,0 8.06182,1.08097 8.06182,1.08097c0,0 0,6.52658 0,11.0171c0,7.06493 0,28.23464 0,28.23464c0,0 -6.60635,0.29885 -7.47485,0.29885c-2.73163,0 -8.28128,-1.26326 -8.28128,-1.26326z" data-paper-data="{&quot;index&quot;:null}" stroke="#0d39d6"/></g><path d="M198.92074,163.05263c0,0 -11.98347,0 -18.81879,0c-8.18163,0 -26.96215,0 -26.96215,0c0,0 -0.11382,-2.86581 -0.11382,-4.43297c0,-1.60416 0.11382,-5.08357 0.11382,-5.08357c0,0 7.80396,0 13.17336,0c8.44767,0 32.60757,0 32.60757,0c0,0 1.5105,3.00486 1.5105,4.51474c0,1.64987 -1.5105,5.00181 -1.5105,5.00181z" data-paper-data="{&quot;index&quot;:null}" stroke="#0d39d6" stroke-width="2.5"/><path d="M143.86422,143.89503v-1.48885h0.45811v1.48885z" data-paper-data="{&quot;index&quot;:null}" stroke="none" stroke-width="0"/><path d="M150.00105,161.64669v-6.75709h6.75709v6.75709z" data-paper-data="{&quot;index&quot;:null}" stroke="none" stroke-width="0"/><path d="M14.08918,134.03325v-8.22067h6.98757v8.22067z" data-paper-data="{&quot;index&quot;:null}" stroke="none" stroke-width="2.5"/><path d="M105.67178,212.8308c0,0 0,2.50962 0,3.59384c0,0.89622 -1.65501,1.99745 -1.65501,1.99745c0,0 0.13074,0.4581 -2.50119,0.4581c-13.25979,0 -54.63408,0 -70.84716,0c-12.35062,0 -30.30116,0 -30.30116,0c0,0 -2.97307,-2.07553 -2.97307,-3.09525c0,-0.9962 2.97307,-2.95415 2.97307,-2.95415c0,0 43.19862,0 62.01786,0c15.72249,0 43.28665,0 43.28665,0z" data-paper-data="{&quot;index&quot;:null}" stroke="#0d39d6" stroke-width="2.5"/><path d="M16.5106,269.84215v-3.66089h9.15223v3.66089z" data-paper-data="{&quot;index&quot;:null}" stroke="none" stroke-width="0"/><path d="M135.5853,307.31544v-8.63169h19.78205v8.63169z" data-paper-data="{&quot;index&quot;:null}" stroke="none" stroke-width="2.5"/><path d="M20.41795,37.60387v-1.01351h5.70634v1.01351z" stroke="#000000" stroke-width="2.5"/><g stroke-width="2.5"><path d="M201.39177,202.83508v-6.38743c0,0 35.84791,0 48.38238,0c7.96701,0 19.54635,0 19.54635,0v6.38743c0,0 -27.8661,0 -40.00583,0c-10.14209,0 -27.92289,0 -27.92289,0z" data-paper-data="{&quot;index&quot;:null}" stroke="#000000"/><path d="M203.51311,202.62675c0,0 -2.11194,-2.13073 -2.11194,-3.17951c0,-0.95979 2.11194,-2.86989 2.11194,-2.86989c0,0 33.77966,0 45.59096,0c7.50734,0 18.41862,0 18.41862,0c0,0 1.80719,2.07553 1.80719,3.09525c0,0.9962 -1.80719,2.95415 -1.80719,2.95415c0,0 -26.25838,0 -37.6977,0c-9.55695,0 -26.31189,0 -26.31189,0z" data-paper-data="{&quot;index&quot;:null}" stroke="#0d39d6"/></g><path d="M324.95462,307.51037v-13.73356h19.48194v13.73356z" data-paper-data="{&quot;index&quot;:null}" stroke="none" stroke-width="2.5"/><g data-paper-data="{&quot;index&quot;:null}" stroke-width="2.5"><path d="M241.52739,111.98433c-7.20001,0 -23.72725,0 -23.72725,0v-6.38743c0,0 6.86764,0 11.59283,0c7.43412,0 28.69534,0 28.69534,0v6.38743c0,0 -10.5457,0 -16.56092,0z" data-paper-data="{&quot;index&quot;:null}" stroke="#000000"/><path d="M241.22471,111.776c-6.7846,0 -22.35831,0 -22.35831,0c0,0 -1.07184,-1.95795 -1.07184,-2.95415c0,-1.01972 1.07184,-3.09525 1.07184,-3.09525c0,0 6.47142,0 10.92399,0c7.00522,0 27.03976,0 27.03976,0c0,0 1.25259,1.9101 1.25259,2.86989c0,1.04878 -1.25259,3.17951 -1.25259,3.17951c0,0 -9.93726,0 -15.60544,0z" data-paper-data="{&quot;index&quot;:null}" stroke="#0d39d6"/></g><path d="M223.44587,110.44132v-3.66089h9.15223v3.66089z" data-paper-data="{&quot;index&quot;:null}" stroke="none" stroke-width="0"/></g></g></svg>