<svg version="1.1" xmlns="http://www.w3.org/2000/svg" xmlns:xlink="http://www.w3.org/1999/xlink" width="51.15515" height="41.35207" viewBox="0,0,51.15515,41.35207"><g transform="translate(-205.54736,-120.97571)"><g data-paper-data="{&quot;isPaintingLayer&quot;:true}" fill-rule="nonzero" stroke-linecap="butt" stroke-linejoin="miter" stroke-miterlimit="10" stroke-dasharray="" stroke-dashoffset="0" style="mix-blend-mode: normal"><path d="M234.98378,123.22571c12.70392,2.70884 21.27481,13.0072 19.14363,23.00203c-2.13118,9.99483 -14.15741,15.90131 -26.86132,13.19248c-12.70392,-2.70884 -21.27481,-13.0072 -19.14363,-23.00203c2.13118,-9.99483 14.15741,-15.9013 26.86132,-13.19247z" fill="#0022ff" stroke="#000000" stroke-width="4.5"/><path d="M240.0546,128.72935c7.51197,1.60177 12.25102,9.23439 10.58495,17.04793c-1.66607,7.81355 -9.10635,12.84919 -16.61832,11.24742c-7.51197,-1.60177 -12.25102,-9.23439 -10.58495,-17.04793c1.66607,-7.81355 9.10635,-12.84919 16.61832,-11.24742z" fill="#000000" stroke="#000000" stroke-width="4.5"/><path d="M243.13976,137.94696c2.65743,0.56664 4.33391,3.26675 3.74452,6.03086c-0.58939,2.76411 -3.22145,4.54552 -5.87888,3.97888c-2.65743,-0.56664 -4.33391,-3.26675 -3.74452,-6.03086c0.58939,-2.76411 3.22145,-4.54552 5.87888,-3.97888z" fill="#ffffff" stroke="none" stroke-width="0"/></g></g></svg>