<svg version="1.1" xmlns="http://www.w3.org/2000/svg" xmlns:xlink="http://www.w3.org/1999/xlink" width="488.70924" height="224.48701" viewBox="0,0,488.70924,224.48701"><g transform="translate(3.72613,-132.8325)"><g data-paper-data="{&quot;isPaintingLayer&quot;:true}" fill="#000000" fill-rule="nonzero" stroke-linecap="butt" stroke-linejoin="miter" stroke-miterlimit="10" stroke-dasharray="" stroke-dashoffset="0" style="mix-blend-mode: normal"><path d="M-2.47613,356.06951v-6.04939c0,0 256.58636,0 346.30356,0c57.02496,0 139.90568,0 139.90568,0v6.04939c0,0 -199.45548,0 -286.34724,0c-72.59342,0 -199.86198,0 -199.86198,0z" stroke="#0d39d6" stroke-width="2.5"/><g stroke-width="2.5"><path d="M281.53058,315.19077v-6.38743c0,0 75.92228,0 102.46903,0c16.87333,0 41.3972,0 41.3972,0v6.38743c0,0 -59.0176,0 -84.72834,0c-21.47994,0 -59.1379,0 -59.1379,0z" data-paper-data="{&quot;index&quot;:null}" stroke="#000000"/><path d="M286.02335,314.98243c0,0 -4.47287,-2.13073 -4.47287,-3.17951c0,-0.95979 4.47287,-2.86989 4.47287,-2.86989c0,0 71.54194,0 96.55709,0c15.89981,0 39.00879,0 39.00879,0c0,0 3.82745,2.07553 3.82745,3.09525c0,0.9962 -3.82745,2.95415 -3.82745,2.95415c0,0 -55.6126,0 -79.83994,0c-20.24066,0 -55.72593,0 -55.72593,0z" data-paper-data="{&quot;index&quot;:null}" stroke="#0d39d6"/></g><g stroke-width="2.5"><path d="M306.64814,232.26904v-6.38743c0,0 34.22812,0 46.19621,0c7.60702,0 18.66314,0 18.66314,0v6.38743c0,0 -26.60696,0 -38.19816,0c-9.68382,0 -26.6612,0 -26.6612,0z" data-paper-data="{&quot;index&quot;:null}" stroke="#000000"/><path d="M308.67363,232.06071c0,0 -2.01651,-2.13073 -2.01651,-3.17951c0,-0.95979 2.01651,-2.86989 2.01651,-2.86989c0,0 32.25333,0 43.53093,0c7.16813,0 17.58637,0 17.58637,0c0,0 1.72554,2.07553 1.72554,3.09525c0,0.9962 -1.72554,2.95415 -1.72554,2.95415c0,0 -25.07188,0 -35.99432,0c-9.12511,0 -25.12298,0 -25.12298,0z" data-paper-data="{&quot;index&quot;:null}" stroke="#0d39d6"/></g><g stroke-width="2.5"><path d="M184.39176,270.08798v-6.38743c0,0 58.53709,0 79.00499,0c13.00956,0 31.9178,0 31.9178,0v6.38743c0,0 -45.50336,0 -65.32668,0c-16.56132,0 -45.5961,0 -45.5961,0z" data-paper-data="{&quot;index&quot;:null}" stroke="#000000"/><path d="M187.85576,269.87965c0,0 -3.44864,-2.13073 -3.44864,-3.17951c0,-0.95979 3.44864,-2.86989 3.44864,-2.86989c0,0 55.15979,0 74.4468,0c12.25896,0 30.0763,0 30.0763,0c0,0 2.95102,2.07553 2.95102,3.09525c0,0.9962 -2.95102,2.95415 -2.95102,2.95415c0,0 -42.87806,0 -61.55766,0c-15.60582,0 -42.96544,0 -42.96544,0z" data-paper-data="{&quot;index&quot;:null}" stroke="#0d39d6"/></g><path d="M242.42803,267.04438c0,0 0,22.67549 0,35.60951c0,15.48156 0,51.01863 0,51.01863h-9.72751c0,0 0,-14.76694 0,-24.92709c0,-15.98497 0,-61.70107 0,-61.70107h9.72751z" data-paper-data="{&quot;index&quot;:null}" stroke="#000000" stroke-width="2.5"/><path d="M242.53955,269.74965c0,0 0,22.36177 0,35.11681c0,15.26735 0,45.1246 0,45.1246l-9.64152,1.29703c0,0 0,-10.6715 0,-20.69107c0,-15.76377 0,-60.84738 0,-60.84738h9.64153z" data-paper-data="{&quot;index&quot;:null}" stroke="#0d39d6" stroke-width="2.5"/><g stroke-width="2.5"><path d="M242.74527,216.39448h-10.04696c0,0 0,-17.56886 0,-23.71194c0,-3.90458 0,-9.57956 0,-9.57956h10.04696c0,0 0,13.65702 0,19.60665c0,4.97059 0,13.68487 0,13.68487z" data-paper-data="{&quot;index&quot;:null}" stroke="#000000"/><path d="M242.41758,215.35482c0,0 -3.35148,1.03504 -5.00114,1.03504c-1.50968,0 -4.51413,-1.03504 -4.51413,-1.03504c0,0 0,-16.55524 0,-22.34388c0,-3.67932 0,-9.02687 0,-9.02687c0,0 3.26466,-0.88569 4.8686,-0.88569c1.56695,0 4.64666,0.88569 4.64666,0.88569c0,0 0,12.86909 0,18.47544c0,4.68381 0,12.89532 0,12.89532z" data-paper-data="{&quot;index&quot;:null}" stroke="#0d39d6"/></g><g stroke-width="2.5"><path d="M181.6879,187.61093v-6.38743c0,0 59.91956,0 80.87086,0c13.31682,0 32.6716,0 32.6716,0v6.38743c0,0 -46.57802,0 -66.86951,0c-16.95245,0 -46.67295,0 -46.67295,0z" data-paper-data="{&quot;index&quot;:null}" stroke="#000000"/><path d="M185.23371,187.4026c0,0 -3.53009,-2.13073 -3.53009,-3.17951c0,-0.95979 3.53009,-2.86989 3.53009,-2.86989c0,0 56.4625,0 76.20501,0c12.5485,0 30.78663,0 30.78663,0c0,0 3.02071,2.07553 3.02071,3.09525c0,0.9962 -3.02071,2.95415 -3.02071,2.95415c0,0 -43.89072,0 -63.01147,0c-15.97438,0 -43.98016,0 -43.98016,0z" data-paper-data="{&quot;index&quot;:null}" stroke="#0d39d6"/></g><path d="M234.03918,189.66501v-6.62994h6.97888v6.62994z" stroke="none" stroke-width="2.5"/><path d="M234.21365,353.73658v-87.57018h6.97888v87.57018z" stroke="none" stroke-width="0"/><g data-paper-data="{&quot;index&quot;:null}" stroke-width="2.5"><path d="M199.56454,315.5707c0,0 -37.65796,0 -59.1379,0c-25.71074,0 -84.72834,0 -84.72834,0v-6.38743c0,0 24.52387,0 41.3972,0c26.54675,0 102.46903,0 102.46903,0v6.38743z" data-paper-data="{&quot;index&quot;:null}" stroke="#000000"/><path d="M195.07174,315.36238c0,0 -35.48527,0 -55.72593,0c-24.22734,0 -79.83994,0 -79.83994,0c0,0 -3.82745,-1.95795 -3.82745,-2.95415c0,-1.01972 3.82745,-3.09525 3.82745,-3.09525c0,0 23.10898,0 39.00879,0c25.01515,0 96.55709,0 96.55709,0c0,0 4.47287,1.9101 4.47287,2.86989c0,1.04878 -4.47287,3.17951 -4.47287,3.17951z" data-paper-data="{&quot;index&quot;:null}" stroke="#0d39d6"/></g><g data-paper-data="{&quot;index&quot;:null}" stroke-width="2.5"><path d="M170.48691,232.64898c0,0 -16.97738,0 -26.6612,0c-11.5912,0 -38.19816,0 -38.19816,0v-6.38743c0,0 11.05612,0 18.66314,0c11.96809,0 46.19621,0 46.19621,0v6.38743z" data-paper-data="{&quot;index&quot;:null}" stroke="#000000"/><path d="M143.33843,232.44065c-10.92244,0 -35.99432,0 -35.99432,0c0,0 -1.72554,-1.95795 -1.72554,-2.95415c0,-1.01972 1.72554,-3.09525 1.72554,-3.09525c0,0 10.41824,0 17.58637,0c11.2776,0 43.53093,0 43.53093,0c0,0 2.01651,1.9101 2.01651,2.86989c0,1.04878 -2.01651,3.17951 -2.01651,3.17951c0,0 -15.99787,0 -25.12298,0z" data-paper-data="{&quot;index&quot;:null}" stroke="#0d39d6"/></g><g stroke-width="2.5"><path d="M110.46266,169.25348h-10.04696c0,0 0,-17.56886 0,-23.71194c0,-3.90458 0,-9.57956 0,-9.57956h10.04696c0,0 0,13.65702 0,19.60665c0,4.97059 0,13.68487 0,13.68487z" data-paper-data="{&quot;index&quot;:null}" stroke="#000000"/><path d="M110.13497,168.21382c0,0 -3.35148,1.03504 -5.00114,1.03504c-1.50968,0 -4.51413,-1.03504 -4.51413,-1.03504c0,0 0,-16.55524 0,-22.34388c0,-3.67932 0,-9.02687 0,-9.02687c0,0 3.26466,-0.88569 4.8686,-0.88569c1.56695,0 4.64666,0.88569 4.64666,0.88569c0,0 0,12.86909 0,18.47544c0,4.68381 0,12.89532 0,12.89532z" data-paper-data="{&quot;index&quot;:null}" stroke="#0d39d6"/></g><g stroke-width="2.5"><path d="M49.40529,140.46993v-6.38743c0,0 59.91956,0 80.87086,0c13.31682,0 32.6716,0 32.6716,0v6.38743c0,0 -46.57802,0 -66.86951,0c-16.95245,0 -46.67295,0 -46.67295,0z" data-paper-data="{&quot;index&quot;:null}" stroke="#000000"/><path d="M52.9511,140.2616c0,0 -3.53009,-2.13073 -3.53009,-3.17951c0,-0.95979 3.53009,-2.86989 3.53009,-2.86989c0,0 56.4625,0 76.20501,0c12.5485,0 30.78663,0 30.78663,0c0,0 3.02071,2.07553 3.02071,3.09525c0,0.9962 -3.02071,2.95415 -3.02071,2.95415c0,0 -43.89072,0 -63.01147,0c-15.97438,0 -43.98016,0 -43.98016,0z" data-paper-data="{&quot;index&quot;:null}" stroke="#0d39d6"/></g><path d="M101.75657,142.52401v-6.62994h6.97888v6.62994z" stroke="none" stroke-width="2.5"/><g stroke-width="2.5"><path d="M382.10773,169.6334h-10.04696c0,0 0,-17.56886 0,-23.71194c0,-3.90458 0,-9.57956 0,-9.57956h10.04696c0,0 0,13.65702 0,19.60665c0,4.97059 0,13.68487 0,13.68487z" data-paper-data="{&quot;index&quot;:null}" stroke="#000000"/><path d="M381.78004,168.59374c0,0 -3.35148,1.03504 -5.00114,1.03504c-1.50968,0 -4.51413,-1.03504 -4.51413,-1.03504c0,0 0,-16.55524 0,-22.34388c0,-3.67932 0,-9.02687 0,-9.02687c0,0 3.26466,-0.88569 4.8686,-0.88569c1.56695,0 4.64666,0.88569 4.64666,0.88569c0,0 0,12.86909 0,18.47544c0,4.68381 0,12.89532 0,12.89532z" data-paper-data="{&quot;index&quot;:null}" stroke="#0d39d6"/></g><g stroke-width="2.5"><path d="M321.05036,140.84985v-6.38743c0,0 59.91956,0 80.87086,0c13.31682,0 32.6716,0 32.6716,0v6.38743c0,0 -46.57802,0 -66.86951,0c-16.95245,0 -46.67295,0 -46.67295,0z" data-paper-data="{&quot;index&quot;:null}" stroke="#000000"/><path d="M324.59617,140.64152c0,0 -3.53009,-2.13073 -3.53009,-3.17951c0,-0.95979 3.53009,-2.86989 3.53009,-2.86989c0,0 56.4625,0 76.20501,0c12.5485,0 30.78663,0 30.78663,0c0,0 3.02071,2.07553 3.02071,3.09525c0,0.9962 -3.02071,2.95415 -3.02071,2.95415c0,0 -43.89072,0 -63.01147,0c-15.97438,0 -43.98016,0 -43.98016,0z" data-paper-data="{&quot;index&quot;:null}" stroke="#0d39d6"/></g><path d="M373.40164,142.90393v-6.62994h6.97888v6.62994z" stroke="none" stroke-width="2.5"/></g></g></svg>