<svg version="1.1" xmlns="http://www.w3.org/2000/svg" xmlns:xlink="http://www.w3.org/1999/xlink" width="16.18904" height="15.75777" viewBox="0,0,16.18904,15.75777"><g transform="translate(-232.44387,-162.32982)"><g data-paper-data="{&quot;isPaintingLayer&quot;:true}" fill-rule="nonzero" stroke-linejoin="miter" stroke-miterlimit="10" stroke-dasharray="" stroke-dashoffset="0" style="mix-blend-mode: normal"><path d="M241.32959,171.28892c0,2.21116 -1.87721,4.00366 -4.19286,4.00366c-2.31566,0 -4.19286,-1.7925 -4.19286,-4.00366c0,-2.21116 1.87721,-4.00366 4.19286,-4.00366c2.31566,0 4.19286,1.7925 4.19286,4.00366z" fill="#ff0000" stroke="#000000" stroke-width="1" stroke-linecap="butt"/><path d="M238.22048,168.56896c0,0 1.45338,-2.05227 2.61339,-2.84413c1.4536,-0.99226 5.42784,-2.64501 5.42784,-2.64501" fill="none" stroke="#ffb34c" stroke-width="1.5" stroke-linecap="round"/><path d="M248.13291,173.58393c0,2.21115 -1.87721,4.00366 -4.19287,4.00366c-2.31565,0 -4.19286,-1.79251 -4.19286,-4.00366c0,-2.21115 1.87721,-4.00366 4.19286,-4.00366c2.31565,0 4.19287,1.79251 4.19287,4.00366z" fill="#ff0000" stroke="#000000" stroke-width="1" stroke-linecap="butt"/><path d="M244.34681,170.42051c0,0 -0.38914,-1.88308 -0.21807,-2.89189c0.07632,-0.4501 0.15354,-1.73216 0.60054,-2.40739c0.65264,-0.98584 1.72913,-1.33408 1.72913,-1.33408" fill="none" stroke="#ffb34c" stroke-width="1.5" stroke-linecap="round"/><path d="M243.49862,174.44051c0.47063,0.60749 0.50785,1.36668 0.08313,1.69571c-0.42472,0.32903 -1.15052,0.10329 -1.62115,-0.50419c-0.47063,-0.60749 -0.50784,-1.36667 -0.08312,-1.6957c0.42472,-0.32903 1.15051,-0.1033 1.62114,0.50419z" fill="#ffffff" stroke="none" stroke-width="0" stroke-linecap="butt"/><path d="M236.37648,172.20218c0.54129,0.54547 0.67094,1.29443 0.28958,1.67286c-0.38136,0.37843 -1.1293,0.24302 -1.67059,-0.30246c-0.54129,-0.54547 -0.67093,-1.29443 -0.28957,-1.67286c0.38136,-0.37843 1.12929,-0.24302 1.67058,0.30245z" fill="#ffffff" stroke="none" stroke-width="0" stroke-linecap="butt"/></g></g></svg>