<svg version="1.1" xmlns="http://www.w3.org/2000/svg" xmlns:xlink="http://www.w3.org/1999/xlink" width="66.62626" height="41.73538" viewBox="0,0,66.62626,41.73538"><g transform="translate(-199.08888,-118.55148)"><g data-paper-data="{&quot;isPaintingLayer&quot;:true}" fill-rule="nonzero" stroke-linecap="butt" stroke-linejoin="miter" stroke-miterlimit="10" stroke-dasharray="" stroke-dashoffset="0" style="mix-blend-mode: normal"><path d="M236.44763,121.03826c17.00762,1.70461 28.98373,11.31058 26.74939,21.45554c-2.23433,10.14496 -17.83303,16.98723 -34.84063,15.28263c-17.00762,-1.70461 -28.98373,-11.31058 -26.74939,-21.45554c2.23433,-10.14496 17.83303,-16.98722 34.84063,-15.28262z" fill="#ffffff" stroke="#000000" stroke-width="4.5"/><path d="M245.37858,123.11031c9.56723,1.33508 16.09698,9.82454 14.58458,18.96174c-1.5124,9.13721 -10.49422,15.46208 -20.06145,14.12701c-9.56723,-1.33508 -16.09698,-9.82454 -14.58458,-18.96174c1.5124,-9.13721 10.49422,-15.46208 20.06145,-14.12701z" fill="#000000" stroke="#000000" stroke-width="4.5"/><path d="M254.21785,139.04609c-0.40276,2.68715 -2.99509,4.52591 -5.79012,4.10698c-2.79503,-0.41893 -4.73435,-2.93691 -4.33159,-5.62406c0.40276,-2.68715 2.99509,-4.52591 5.79012,-4.10698c2.79503,0.41893 4.73435,2.93691 4.33159,5.62406z" fill="#ffffff" stroke="none" stroke-width="0"/></g></g></svg>