<svg version="1.1" xmlns="http://www.w3.org/2000/svg" xmlns:xlink="http://www.w3.org/1999/xlink" width="550.8024" height="275.12922" viewBox="0,0,550.8024,275.12922"><g transform="translate(42.54755,-82.1903)"><g data-paper-data="{&quot;isPaintingLayer&quot;:true}" fill="#000000" fill-rule="nonzero" stroke-linecap="butt" stroke-linejoin="miter" stroke-miterlimit="10" stroke-dasharray="" stroke-dashoffset="0" style="mix-blend-mode: normal"><g data-paper-data="{&quot;index&quot;:null}" stroke-width="2.5"><path d="M322.00678,294.10599c0,-6.53836 0,-21.54681 0,-21.54681h24.04695c0,0 0,6.23654 0,10.5275c0,6.75096 0,26.05835 0,26.05835h-24.04695c0,0 0,-9.57659 0,-15.03904z" data-paper-data="{&quot;index&quot;:null}" stroke="#000000"/><path d="M322.79103,308.00249c0,0 0,-9.02407 0,-14.17136c0,-6.16112 0,-20.30367 0,-20.30367c0,0 7.37118,-0.97334 11.12161,-0.97334c3.83899,0 11.65279,0.97334 11.65279,0.97334c0,0 0,5.87672 0,9.92012c0,6.36146 0,24.55491 0,24.55491c0,0 -7.191,1.13747 -10.80436,1.13747c-3.94837,0 -11.97002,-1.13747 -11.97002,-1.13747z" data-paper-data="{&quot;index&quot;:null}" stroke="#0d39d6"/></g><path d="M236.34487,354.63931v-3.23007h10.55157v3.23007z" stroke="none" stroke-width="2.5"/><g stroke-width="2.5"><path d="M281.53058,315.19076v-6.38743c0,0 75.92228,0 102.46903,0c16.87333,0 41.3972,0 41.3972,0v6.38743c0,0 -59.0176,0 -84.72834,0c-21.47994,0 -59.1379,0 -59.1379,0z" data-paper-data="{&quot;index&quot;:null}" stroke="#000000"/><path d="M286.02335,314.98243c0,0 -4.47287,-2.13073 -4.47287,-3.17951c0,-0.95979 4.47287,-2.86989 4.47287,-2.86989c0,0 71.54194,0 96.55709,0c15.89981,0 39.00879,0 39.00879,0c0,0 3.82745,2.07553 3.82745,3.09525c0,0.9962 -3.82745,2.95415 -3.82745,2.95415c0,0 -55.6126,0 -79.83994,0c-20.24066,0 -55.72593,0 -55.72593,0z" data-paper-data="{&quot;index&quot;:null}" stroke="#0d39d6"/></g><g stroke-width="2.5"><path d="" data-paper-data="{&quot;index&quot;:null}" stroke="#000000"/><path d="" data-paper-data="{&quot;index&quot;:null}" stroke="#0d39d6"/></g><g stroke-width="2.5"><path d="M-9.85292,253.15579v-6.38743c0,0 58.53709,0 79.00499,0c13.00956,0 31.9178,0 31.9178,0v6.38743c0,0 -45.50336,0 -65.32668,0c-16.56132,0 -45.5961,0 -45.5961,0z" data-paper-data="{&quot;index&quot;:null}" stroke="#000000"/><path d="M-6.38892,252.94746c0,0 -3.44864,-2.13073 -3.44864,-3.17951c0,-0.95979 3.44864,-2.86989 3.44864,-2.86989c0,0 20.53247,0 40.9234,0c13.03071,0 26.00362,0 33.5234,0c12.25896,0 30.0763,0 30.0763,0c0,0 2.95102,2.07553 2.95102,3.09525c0,0.9962 -2.95102,2.95415 -2.95102,2.95415c0,0 -42.87806,0 -61.55766,0c-15.60582,0 -42.96544,0 -42.96544,0z" data-paper-data="{&quot;index&quot;:null}" stroke="#0d39d6"/></g><path d="" data-paper-data="{&quot;index&quot;:null}" stroke="#000000" stroke-width="2.5"/><path d="" data-paper-data="{&quot;index&quot;:null}" stroke="#0d39d6" stroke-width="2.5"/><g stroke-width="2.5"><path d="" data-paper-data="{&quot;index&quot;:null}" stroke="#000000"/><path d="" data-paper-data="{&quot;index&quot;:null}" stroke="#0d39d6"/></g><path d="" data-paper-data="{&quot;index&quot;:null}" stroke="#000000" stroke-width="2.5"/><path d="" data-paper-data="{&quot;index&quot;:null}" stroke="#0d39d6" stroke-width="2.5"/><g stroke-width="2.5"><path d="" data-paper-data="{&quot;index&quot;:null}" stroke="#000000"/><path d="" data-paper-data="{&quot;index&quot;:null}" stroke="#0d39d6"/></g><path d="" stroke="none" stroke-width="2.5"/><path d="" stroke="#000000" stroke-width="2.5"/><path d="" stroke="none" stroke-width="0"/><path d="" stroke="none" stroke-width="2.5"/><path d="" stroke="none" stroke-width="0"/><path d="M332.2278,311.43963v-8.6317h6.78204v8.6317z" stroke="none" stroke-width="2.5"/><path d="M-41.29755,352.63524c0,-0.93099 0,-2.61511 0,-2.61511c0,0 277.59412,0 374.65683,0c61.69383,0 151.36032,0 151.36032,0c0,0 0,1.886 0,2.90978c0,0.99165 -1.87987,2.29422 -1.87987,2.29422c0,0 0.09783,0.84539 -3.21294,0.84539c-33.12092,0 -219.23577,0 -304.69883,0c-64.64001,0 -169.35022,0 -204.38276,0c-0.85654,0 -4.22069,-0.09318 -4.99232,-0.09318c-6.01337,0 -6.85042,-2.27421 -6.85042,-3.3411z" stroke="#0d39d6" stroke-width="2.5"/><g data-paper-data="{&quot;index&quot;:null}" stroke-width="2.5"><path d="M132.92407,298.03535c0,-6.53836 0,-21.54681 0,-21.54681h24.04695c0,0 0,6.23654 0,10.5275c0,6.75096 0,26.05835 0,26.05835h-24.04695c0,0 0,-9.57659 0,-15.03904z" data-paper-data="{&quot;index&quot;:null}" stroke="#000000"/><path d="M133.70833,311.93185c0,0 0,-9.02407 0,-14.17136c0,-6.16112 0,-20.30367 0,-20.30367c0,0 7.37118,-0.97334 11.12161,-0.97334c3.83899,0 11.65279,0.97334 11.65279,0.97334c0,0 0,5.87672 0,9.92012c0,6.36146 0,24.55491 0,24.55491c0,0 -7.191,1.13747 -10.80436,1.13747c-3.94837,0 -11.97002,-1.13747 -11.97002,-1.13747z" data-paper-data="{&quot;index&quot;:null}" stroke="#0d39d6"/></g><g data-paper-data="{&quot;index&quot;:null}" stroke-width="2.5"><path d="M199.56456,315.5707c0,0 -37.65796,0 -59.1379,0c-25.71074,0 -84.72834,0 -84.72834,0v-6.38743c0,0 24.52387,0 41.3972,0c26.54675,0 102.46903,0 102.46903,0v6.38743z" data-paper-data="{&quot;index&quot;:null}" stroke="#000000"/><path d="M195.07176,315.36237c0,0 -35.48527,0 -55.72593,0c-24.22734,0 -79.83994,0 -79.83994,0c0,0 -3.82745,-1.95795 -3.82745,-2.95415c0,-1.01972 3.82745,-3.09525 3.82745,-3.09525c0,0 23.10898,0 39.00879,0c25.01515,0 96.55709,0 96.55709,0c0,0 4.47287,1.9101 4.47287,2.86989c0,1.04878 -4.47287,3.17951 -4.47287,3.17951z" data-paper-data="{&quot;index&quot;:null}" stroke="#0d39d6"/></g><g data-paper-data="{&quot;index&quot;:null}" stroke-width="2.5"><path d="" data-paper-data="{&quot;index&quot;:null}" stroke="#000000"/><path d="" data-paper-data="{&quot;index&quot;:null}" stroke="#0d39d6"/></g><path d="" data-paper-data="{&quot;index&quot;:null}" stroke="#000000" stroke-width="2.5"/><path d="" data-paper-data="{&quot;index&quot;:null}" stroke="#0d39d6" stroke-width="2.5"/><g data-paper-data="{&quot;index&quot;:null}" stroke-width="2.5"><path d="" data-paper-data="{&quot;index&quot;:null}" stroke="#000000"/><path d="" data-paper-data="{&quot;index&quot;:null}" stroke="#0d39d6"/></g><path d="" data-paper-data="{&quot;index&quot;:null}" stroke="none" stroke-width="2.5"/><path d="" data-paper-data="{&quot;index&quot;:null}" stroke="none" stroke-width="0"/><path d="" stroke="#000000" stroke-width="2.5"/><g stroke-width="2.5"><path d="M-1.85764,209.91198v-6.38743c0,0 35.84791,0 48.38238,0c7.96701,0 19.54635,0 19.54635,0v6.38743c0,0 -27.8661,0 -40.00583,0c-10.14209,0 -27.92289,0 -27.92289,0z" data-paper-data="{&quot;index&quot;:null}" stroke="#000000"/><path d="M0.2637,209.70365c0,0 -2.11194,-2.13073 -2.11194,-3.17951c0,-0.95979 2.11194,-2.86989 2.11194,-2.86989c0,0 33.77966,0 45.59096,0c7.50734,0 18.41862,0 18.41862,0c0,0 1.80719,2.07553 1.80719,3.09525c0,0.9962 -1.80719,2.95415 -1.80719,2.95415c0,0 -26.25838,0 -37.6977,0c-9.55695,0 -26.31189,0 -26.31189,0z" data-paper-data="{&quot;index&quot;:null}" stroke="#0d39d6"/></g><path d="M49.74339,124.08972v-10.04832c0,0 36.35912,0 49.07234,0c8.08063,0 19.82509,0 19.82509,0v10.04832c0,0 -28.26349,0 -40.57632,0c-10.28671,0 -28.3211,0 -28.3211,0z" data-paper-data="{&quot;index&quot;:null}" stroke="#000000" stroke-width="2.5"/><g data-paper-data="{&quot;index&quot;:null}" stroke-width="2.5"><path d="M133.41668,124.07749h-16.63656c0,0 0,-21.44243 0,-28.93992c0,-4.76546 0,-11.69165 0,-11.69165h16.63656c0,0 0,16.66811 0,23.92949c0,6.06649 0,16.70208 0,16.70208z" data-paper-data="{&quot;index&quot;:null}" stroke="#000000"/><path d="M124.59278,124.07186c-0.8685,0 -7.47485,-0.29885 -7.47485,-0.29885c0,0 0,-21.16971 0,-28.23464c0,-4.49052 0,-11.0171 0,-11.0171c0,0 5.40588,-1.08097 8.06182,-1.08097c2.59468,0 7.69431,1.08097 7.69431,1.08097c0,0 0,15.70645 0,22.54888c0,5.71649 0,15.73845 0,15.73845c0,0 -5.54965,1.26326 -8.28128,1.26326z" data-paper-data="{&quot;index&quot;:null}" stroke="#0d39d6"/></g><path d="M52.79517,123.85025c0,0 -2.13241,-3.35194 -2.13241,-5.00181c0,-1.50988 2.13241,-4.51474 2.13241,-4.51474c0,0 34.10712,0 46.0329,0c7.58012,0 18.59716,0 18.59716,0c0,0 0.16069,3.47941 0.16069,5.08357c0,1.56716 -0.16069,4.43297 -0.16069,4.43297c0,0 -26.51292,0 -38.06313,0c-9.64959,0 -25.72682,0 -25.72682,0z" data-paper-data="{&quot;index&quot;:null}" stroke="#0d39d6" stroke-width="2.5"/><path d="M126.17245,104.60439v-1.48885h0.45811v1.48885z" data-paper-data="{&quot;index&quot;:null}" stroke="none" stroke-width="0"/><path d="M113.73664,122.35605v-6.75709h6.75709v6.75709z" data-paper-data="{&quot;index&quot;:null}" stroke="none" stroke-width="0"/><g stroke-width="2.5"><path d="M-27.30217,167.3156v-6.38743c0,0 35.84791,0 48.38238,0c7.96701,0 19.54635,0 19.54635,0v6.38743c0,0 -27.8661,0 -40.00583,0c-10.14209,0 -27.92289,0 -27.92289,0z" data-paper-data="{&quot;index&quot;:null}" stroke="#000000"/><path d="M-25.18083,167.10727c0,0 -2.11194,-2.13073 -2.11194,-3.17951c0,-0.95979 2.11194,-2.86989 2.11194,-2.86989c0,0 33.77966,0 45.59096,0c7.50734,0 18.41862,0 18.41862,0c0,0 1.80719,2.07553 1.80719,3.09525c0,0.9962 -1.80719,2.95415 -1.80719,2.95415c0,0 -26.25838,0 -37.6977,0c-9.55695,0 -26.31189,0 -26.31189,0z" data-paper-data="{&quot;index&quot;:null}" stroke="#0d39d6"/></g><g stroke-width="2.5"><path d="M186.57271,106.51666v-6.38743c0,0 58.53709,0 79.00499,0c13.00956,0 31.9178,0 31.9178,0v6.38743c0,0 -45.50336,0 -65.32668,0c-16.56132,0 -45.5961,0 -45.5961,0z" data-paper-data="{&quot;index&quot;:null}" stroke="#000000"/><path d="M190.03671,106.30833c0,0 -3.44864,-2.13073 -3.44864,-3.17951c0,-0.95979 3.44864,-2.86989 3.44864,-2.86989c0,0 20.53247,0 40.9234,0c13.03071,0 26.00362,0 33.5234,0c12.25896,0 30.0763,0 30.0763,0c0,0 2.95102,2.07553 2.95102,3.09525c0,0.9962 -2.95102,2.95415 -2.95102,2.95415c0,0 -42.87806,0 -61.55766,0c-15.60582,0 -42.96544,0 -42.96544,0z" data-paper-data="{&quot;index&quot;:null}" stroke="#0d39d6"/></g><g data-paper-data="{&quot;index&quot;:null}" stroke-width="2.5"><path d="M489.55558,253.65165c0,0 -29.03478,0 -45.5961,0c-19.82332,0 -65.32668,0 -65.32668,0v-6.38743c0,0 18.90824,0 31.9178,0c20.4679,0 79.00499,0 79.00499,0v6.38743z" data-paper-data="{&quot;index&quot;:null}" stroke="#000000"/><path d="M443.12615,253.44332c-18.6796,0 -61.55766,0 -61.55766,0c0,0 -2.95102,-1.95795 -2.95102,-2.95415c0,-1.01972 2.95102,-3.09525 2.95102,-3.09525c0,0 17.81734,0 30.0763,0c7.51978,0 20.49269,0 33.5234,0c20.39093,0 40.9234,0 40.9234,0c0,0 3.44864,1.9101 3.44864,2.86989c0,1.04878 -3.44864,3.17951 -3.44864,3.17951c0,0 -27.35962,0 -42.96544,0z" data-paper-data="{&quot;index&quot;:null}" stroke="#0d39d6"/></g><g data-paper-data="{&quot;index&quot;:null}" stroke-width="2.5"><path d="M481.5603,210.40785c0,0 -17.7808,0 -27.92289,0c-12.13973,0 -40.00583,0 -40.00583,0v-6.38743c0,0 11.57934,0 19.54635,0c12.53447,0 48.38238,0 48.38238,0v6.38743z" data-paper-data="{&quot;index&quot;:null}" stroke="#000000"/><path d="M479.43898,210.19952c0,0 -16.75494,0 -26.31189,0c-11.43932,0 -37.6977,0 -37.6977,0c0,0 -1.80719,-1.95795 -1.80719,-2.95415c0,-1.01972 1.80719,-3.09525 1.80719,-3.09525c0,0 10.91128,0 18.41862,0c11.8113,0 45.59096,0 45.59096,0c0,0 2.11194,1.9101 2.11194,2.86989c0,1.04878 -2.11194,3.17951 -2.11194,3.17951z" data-paper-data="{&quot;index&quot;:null}" stroke="#0d39d6"/></g><path d="M429.95926,124.58559c0,0 -18.03438,0 -28.3211,0c-12.31283,0 -40.57632,0 -40.57632,0v-10.04832c0,0 11.74446,0 19.82509,0c12.71322,0 49.07234,0 49.07234,0v10.04832z" data-paper-data="{&quot;index&quot;:null}" stroke="#000000" stroke-width="2.5"/><g data-paper-data="{&quot;index&quot;:null}" stroke-width="2.5"><path d="M346.286,107.87128c0,-7.26138 0,-23.92949 0,-23.92949h16.63656c0,0 0,6.92619 0,11.69165c0,7.49749 0,28.93992 0,28.93992h-16.63656c0,0 0,-10.63559 0,-16.70208z" data-paper-data="{&quot;index&quot;:null}" stroke="#000000"/><path d="M346.82862,123.30447c0,0 0,-10.02196 0,-15.73845c0,-6.84243 0,-22.54888 0,-22.54888c0,0 5.09963,-1.08097 7.69431,-1.08097c2.65594,0 8.06182,1.08097 8.06182,1.08097c0,0 0,6.52658 0,11.0171c0,7.06493 0,28.23464 0,28.23464c0,0 -6.60635,0.29885 -7.47485,0.29885c-2.73163,0 -8.28128,-1.26326 -8.28128,-1.26326z" data-paper-data="{&quot;index&quot;:null}" stroke="#0d39d6"/></g><path d="M426.0674,124.34611c0,0 -16.07723,0 -25.72682,0c-11.55021,0 -38.06313,0 -38.06313,0c0,0 -0.16069,-2.86581 -0.16069,-4.43297c0,-1.60416 0.16069,-5.08357 0.16069,-5.08357c0,0 11.01704,0 18.59715,0c11.92579,0 46.0329,0 46.0329,0c0,0 2.13241,3.00486 2.13241,4.51474c0,1.64987 -2.13241,5.00181 -2.13241,5.00181z" data-paper-data="{&quot;index&quot;:null}" stroke="#0d39d6" stroke-width="2.5"/><path d="M359.20895,122.85192v-6.75709h6.75709v6.75709z" data-paper-data="{&quot;index&quot;:null}" stroke="none" stroke-width="0"/><g data-paper-data="{&quot;index&quot;:null}" stroke-width="2.5"><path d="M507.00484,167.81147c0,0 -17.7808,0 -27.92289,0c-12.13973,0 -40.00583,0 -40.00583,0v-6.38743c0,0 11.57934,0 19.54635,0c12.53447,0 48.38238,0 48.38238,0v6.38743z" data-paper-data="{&quot;index&quot;:null}" stroke="#000000"/><path d="M504.88352,167.60314c0,0 -16.75494,0 -26.31189,0c-11.43932,0 -37.6977,0 -37.6977,0c0,0 -1.80719,-1.95795 -1.80719,-2.95415c0,-1.01972 1.80719,-3.09525 1.80719,-3.09525c0,0 10.91128,0 18.41862,0c11.8113,0 45.59096,0 45.59096,0c0,0 2.11194,1.9101 2.11194,2.86989c0,1.04878 -2.11194,3.17951 -2.11194,3.17951z" data-paper-data="{&quot;index&quot;:null}" stroke="#0d39d6"/></g><g stroke-width="2.5"><path d="M132.9608,278.86207v-6.38743c0,0 112.49493,0 151.82957,0c25.00141,0 61.33873,0 61.33873,0v6.38743c0,0 -87.44708,0 -125.54298,0c-31.82708,0 -87.6253,0 -87.6253,0z" data-paper-data="{&quot;index&quot;:null}" stroke="#000000"/><path d="M132.98496,278.65374c0,0 0.00536,-2.13073 0.00536,-3.17951c0,-0.95979 6.6275,-2.86989 6.6275,-2.86989c0,0 39.45872,0 78.64544,0c25.04205,0 49.97303,0 64.42433,0c23.55892,0 57.79979,0 57.79979,0c0,0 5.67119,2.07553 5.67119,3.09525c0,0.9962 0.01412,3.11208 0.01412,3.11208c0,0 -6.2085,-0.15793 -7.18966,-0.15793c-11.33229,0 -83.75792,0 -116.79543,0c-19.10317,0 -47.37096,0 -65.37756,0c-10.26268,0 -23.82507,0 -23.82507,0z" data-paper-data="{&quot;index&quot;:null}" stroke="#0d39d6"/></g><path d="M135.58531,311.81957v-35.16313h19.78205v35.16313z" data-paper-data="{&quot;index&quot;:null}" stroke="none" stroke-width="2.5"/><path d="M324.165,312.0145v-35.21139h20.27157v35.21139z" data-paper-data="{&quot;index&quot;:null}" stroke="none" stroke-width="2.5"/></g></g></svg>