<svg version="1.1" xmlns="http://www.w3.org/2000/svg" xmlns:xlink="http://www.w3.org/1999/xlink" width="40.33321" height="44.63889" viewBox="0,0,40.33321,44.63889"><g transform="translate(-219.83339,-157.86805)"><g data-paper-data="{&quot;isPaintingLayer&quot;:true}" fill-rule="nonzero" stroke="none" stroke-width="0" stroke-linecap="butt" stroke-linejoin="miter" stroke-miterlimit="10" stroke-dasharray="" stroke-dashoffset="0" style="mix-blend-mode: normal"><path d="M219.8334,178.03465c0,-11.1377 9.02889,-20.1666 20.1666,-20.1666c11.1377,0 20.1666,9.02889 20.1666,20.1666c0,2.04829 -0.01413,15.45671 -0.01413,15.45671l-3.53202,9.01558l-5.6925,-9.39707l-4.97315,9.10684l-5.5,-9.33278l-4.93463,9.48433l-5.00403,-9.14102l-5.27796,9.25774l-5.16968,-9.33817c0,0 -0.23511,-12.70559 -0.23511,-15.11215z" fill="#ff2626"/><path d="M225.46396,175.27683c0,-3.52218 2.85529,-6.37747 6.37747,-6.37747c3.52218,0 6.37747,2.85529 6.37747,6.37747c0,3.52218 -2.85529,6.37747 -6.37747,6.37747c-3.52218,0 -6.37747,-2.85529 -6.37747,-6.37747z" fill="#ffffff"/><path d="M242.18472,175.22081c0,-3.52218 2.85529,-6.37748 6.37747,-6.37748c3.52218,0 6.37747,2.8553 6.37747,6.37748c0,3.52218 -2.85529,6.37747 -6.37747,6.37747c-3.52218,0 -6.37747,-2.85529 -6.37747,-6.37747z" fill="#ffffff"/><path d="M227.49588,177.51756v-4.59638h4.82619v4.59638z" fill="#000000"/><path d="M244.10173,177.20145v-4.59637h4.8262v4.59637z" fill="#000000"/></g></g></svg>