<svg version="1.1" xmlns="http://www.w3.org/2000/svg" xmlns:xlink="http://www.w3.org/1999/xlink" width="62.36717" height="60.13369" viewBox="0,0,62.36717,60.13369"><g transform="translate(-204.19828,-111.93498)"><g data-paper-data="{&quot;isPaintingLayer&quot;:true}" fill-rule="nonzero" stroke-linecap="butt" stroke-linejoin="miter" stroke-miterlimit="10" stroke-dasharray="" stroke-dashoffset="0" style="mix-blend-mode: normal"><path d="M264.31545,142.00183c0,15.36283 -12.95401,27.81685 -28.93359,27.81685c-15.97957,0 -28.93359,-12.45403 -28.93359,-27.81685c0,-15.36283 12.95401,-27.81685 28.93359,-27.81685c15.97957,0 28.93359,12.45403 28.93359,27.81685z" fill="#b05f47" stroke="#000000" stroke-width="4.5"/><path d="M263.41034,142.49612c0,11.79446 -9.94516,21.35577 -22.21311,21.35577c-12.26797,0 -22.21311,-9.5613 -22.21311,-21.35577c0,-11.79446 9.94516,-21.35577 22.21311,-21.35577c12.26797,0 22.21311,9.5613 22.21311,21.35577z" fill="#000000" stroke="#000000" stroke-width="4.5"/><path d="M254.33361,131.11742c0,5.41908 -4.56939,9.81212 -10.20602,9.81212c-5.63663,0 -10.20602,-4.39304 -10.20602,-9.81212c0,-5.41908 4.56939,-9.81212 10.20602,-9.81212c5.63663,0 10.20602,4.39304 10.20602,9.81212z" fill="#ffffff" stroke="none" stroke-width="0"/><path d="M258.98848,146.80098c0,2.61213 -2.20256,4.72969 -4.91957,4.72969c-2.717,0 -4.91957,-2.11755 -4.91957,-4.72969c0,-2.61213 2.20256,-4.72969 4.91957,-4.72969c2.717,0 4.91957,2.11756 4.91957,4.72969z" fill="#ffffff" stroke="none" stroke-width="0"/></g></g></svg>