<svg version="1.1" xmlns="http://www.w3.org/2000/svg" xmlns:xlink="http://www.w3.org/1999/xlink" width="210.80173" height="215.59015" viewBox="0,0,210.80173,215.59015"><g transform="translate(-132.24381,-72.00181)"><g data-paper-data="{&quot;isPaintingLayer&quot;:true}" fill-rule="nonzero" stroke="#000000" stroke-width="7.5" stroke-linecap="butt" stroke-linejoin="miter" stroke-miterlimit="10" stroke-dasharray="" stroke-dashoffset="0" style="mix-blend-mode: normal"><path d="M337.97111,178.89529l-2.96233,24.37558l-88.7,-10.77956l2.96232,-24.37557l12.65226,19.46342l11.68468,-16.35503l5.81592,20.12856l11.55921,-16.67043l8.61014,19.98426l14.23494,-17.15118c0,0 2.61877,6.18518 3.92009,9.2587c1.29063,3.04831 3.85601,9.10738 3.85601,9.10738z" fill="#ffffff"/><path d="M246.62141,193.43389l-1.71908,-24.49467c0,0 65.94099,-4.62785 79.58898,-5.58568c4.72625,-0.33169 9.54439,-0.66984 9.54439,-0.66984l1.71908,24.49467l-16.11717,-16.70752l-8.3673,18.27585l-9.53142,-18.65839l-8.18424,18.5617l-12.24744,-17.98627l-10.72003,19.54168l-11.12135,-16.55585z" fill="#ffffff"/><path d="M143.37645,141.3784c21.21794,-53.38519 81.69574,-79.46189 135.08093,-58.24395c21.86055,8.68848 39.14203,23.96003 50.47212,42.63199c1.24656,2.05433 7.88752,36.91413 7.88752,36.91413l-100.99158,15.44887l99.8772,20.72779c0,0 -4.37349,31.22255 -7.76176,36.588c-26.21063,41.50571 -79.04641,59.80316 -126.32048,41.01409c-53.38519,-21.21794 -79.46189,-81.69574 -58.24395,-135.08093z" fill="#ff0000"/></g></g></svg>