<svg version="1.1" xmlns="http://www.w3.org/2000/svg" xmlns:xlink="http://www.w3.org/1999/xlink" width="202.77481" height="215.58597" viewBox="0,0,202.77481,215.58597"><g transform="translate(-132.207,-72.207)"><g data-paper-data="{&quot;isPaintingLayer&quot;:true}" fill="#6667ff" fill-rule="nonzero" stroke="#000000" stroke-width="7.5" stroke-linecap="butt" stroke-linejoin="miter" stroke-miterlimit="10" stroke-dasharray="" stroke-dashoffset="0" style="mix-blend-mode: normal"><path d="M145.16421,137.27085c23.59866,-52.37636 85.18858,-75.7053 137.56494,-52.10664c21.44745,9.66335 38.02424,25.69706 48.50266,44.85993c1.15286,2.10834 -0.15434,6.37983 -0.15434,6.37983c0,0 -34.64659,28.45649 -54.57602,33.5061c-15.18986,3.84872 -52.7522,3.38793 -52.7522,3.38793c0,0 25.1078,22.69356 36.31394,27.46627c16.72074,7.12138 66.38204,15.95823 66.38204,15.95823c0,0 9.19554,4.22001 8.39056,6.00663c-23.59866,52.37636 -85.18858,75.7053 -137.56494,52.10664c-52.37636,-23.59866 -75.7053,-85.18858 -52.10664,-137.56494z"/></g></g></svg>