<svg version="1.1" xmlns="http://www.w3.org/2000/svg" xmlns:xlink="http://www.w3.org/1999/xlink" width="488.70924" height="223.75343" viewBox="0,0,488.70924,223.75343"><g transform="translate(3.72613,-133.56608)"><g data-paper-data="{&quot;isPaintingLayer&quot;:true}" fill="#000000" fill-rule="nonzero" stroke-linecap="butt" stroke-linejoin="miter" stroke-miterlimit="10" stroke-dasharray="" stroke-dashoffset="0" style="mix-blend-mode: normal"><path d="M-2.47613,356.06951v-6.04939c0,0 256.58636,0 346.30356,0c57.02496,0 139.90568,0 139.90568,0v6.04939c0,0 -199.45548,0 -286.34724,0c-72.59342,0 -199.86198,0 -199.86198,0z" stroke="#0d39d6" stroke-width="2.5"/><path d="M31.37238,276.85989v-6.38743c0,0 60.50123,0 81.65591,0c13.44608,0 32.98876,0 32.98876,0v6.38743c0,0 -47.03018,0 -67.51864,0c-17.11701,0 -47.12603,0 -47.12603,0z" stroke="#000000" stroke-width="2.5"/><path d="M33.93145,238.30275v-6.38743c0,0 40.46199,0 54.60981,0c8.99246,0 22.06221,0 22.06221,0v6.38743c0,0 -31.45283,0 -45.15509,0c-11.44751,0 -31.51693,0 -31.51693,0z" stroke="#000000" stroke-width="2.5"/><path d="M35.83159,203.12501v-6.38742c0,0 21.6132,0 29.1704,0c4.80342,0 11.78476,0 11.78476,0v6.38742c0,0 -16.80086,0 -24.12007,0c-6.11481,0 -16.83509,0 -16.83509,0z" stroke="#000000" stroke-width="2.5"/><path d="M34.95262,276.65157c0,0 -3.56437,-2.13073 -3.56437,-3.17951c0,-0.95979 3.56437,-2.86989 3.56437,-2.86989c0,0 57.01061,0 76.94477,0c12.67031,0 31.08548,0 31.08548,0c0,0 3.05004,2.07553 3.05004,3.09525c0,0.9962 -3.05004,2.95415 -3.05004,2.95415c0,0 -44.31679,0 -63.62317,0c-16.12945,0 -44.40709,0 -44.40709,0z" stroke="#0d39d6" stroke-width="2.5"/><path d="M38.24554,238.09444c0,0 -4.19338,-1.63512 -4.19338,-2.65678c0,-0.99406 4.19338,-3.39262 4.19338,-3.39262h69.10374c0,0 3.27007,1.94783 3.27007,2.94189c0,1.02166 -3.27007,3.1075 -3.27007,3.1075z" stroke="#0d39d6" stroke-width="2.5"/><path d="M39.41183,202.9167c0,0 -3.56437,-1.69254 -3.56437,-2.72461c0,-0.98189 3.56437,-3.32476 3.56437,-3.32476c0,0 17.85115,0 24.09294,0c3.96732,0 9.73348,0 9.73348,0c0,0 3.45954,2.07903 3.45954,3.0994c0,0.99547 -3.45954,2.94998 -3.45954,2.94998c0,0 -13.87647,0 -19.92167,0c-5.05045,0 -13.90474,0 -13.90474,0z" stroke="#0d39d6" stroke-width="2.5"/><path d="M189.24146,315.47539c0,0 -41.5232,0 -65.20786,0c-28.34969,0 -93.42493,0 -93.42493,0v-6.38743c0,0 27.04104,0 45.64626,0c29.27153,0 112.98655,0 112.98655,0v6.38743z" data-paper-data="{&quot;index&quot;:null}" stroke="#000000" stroke-width="2.5"/><path d="M185.24188,315.26707c0,0 -39.71676,0 -62.37104,0c-27.11636,0 -89.36055,0 -89.36055,0c0,0 -2.85347,-2.07299 -2.85347,-3.09222c0,-0.99672 2.85347,-2.95716 2.85347,-2.95716c0,0 25.86464,0 43.66045,0c27.99809,0 108.07114,0 108.07114,0c0,0 4.08854,2.0367 4.08854,3.06984c0,0.98057 -4.08854,2.97954 -4.08854,2.97954z" data-paper-data="{&quot;index&quot;:null}" stroke="#0d39d6" stroke-width="2.5"/><path d="M242.11046,181.4402c0,0 0,44.25612 0,69.49961c0,30.21557 0,99.57384 0,99.57384c0,0 -2.07299,3.1796 -3.09222,3.1796c-0.99672,0 -2.95716,-3.1796 -2.95716,-3.1796c0,0 0,-28.82079 0,-48.65054c0,-31.19808 0,-120.42292 0,-120.42292c0,0 2.0367,-4.55584 3.06984,-4.55584c0.98057,0 2.97954,4.55584 2.97954,4.55584z" data-paper-data="{&quot;index&quot;:null}" stroke="#0d39d6" stroke-width="2.5"/><path d="M412.23902,165.95921c0,0 -12.85742,0 -20.19123,0c-8.77831,0 -28.92847,0 -28.92847,0v-10.04832c0,0 8.37309,0 14.13409,0c9.06376,0 34.98562,0 34.98562,0v10.04832z" data-paper-data="{&quot;index&quot;:null}" stroke="#000000" stroke-width="2.5"/><path d="M70.2125,165.69678v-10.04832c0,0 25.92186,0 34.98562,0c5.761,0 14.13409,0 14.13409,0v10.04832c0,0 -20.15016,0 -28.92847,0c-7.33381,0 -20.19123,0 -20.19123,0z" data-paper-data="{&quot;index&quot;:null}" stroke="#000000" stroke-width="2.5"/><g data-paper-data="{&quot;index&quot;:null}" stroke-width="2.5"><path d="M179.87668,165.70386c0,-6.87324 0,-22.65037 0,-22.65037h10.04696c0,0 0,6.55597 0,11.0667c0,7.09673 0,27.39297 0,27.39297h-10.04696c0,0 0,-10.06707 0,-15.80929z" data-paper-data="{&quot;index&quot;:null}" stroke="#000000"/><path d="M180.20437,180.3121c0,0 0,-9.48626 0,-14.89717c0,-6.47669 0,-21.34356 0,-21.34356c0,0 3.07971,-1.02319 4.64666,-1.02319c1.60394,0 4.8686,1.02319 4.8686,1.02319c0,0 0,6.17771 0,10.42819c0,6.68727 0,25.81252 0,25.81252c0,0 -3.00444,1.19573 -4.51412,1.19573c-1.64966,0 -5.00114,-1.19573 -5.00114,-1.19573z" data-paper-data="{&quot;index&quot;:null}" stroke="#0d39d6"/></g><g stroke-width="2.5"><path d="M297.33594,180.13557h-10.04696c0,0 0,-20.22799 0,-27.30086c0,-4.49556 0,-11.02948 0,-11.02948h10.04696c0,0 0,15.72408 0,22.57421c0,5.72291 0,15.75613 0,15.75613z" data-paper-data="{&quot;index&quot;:null}" stroke="#000000"/><path d="M297.00827,178.93855c0,0 -3.35148,1.19171 -5.00114,1.19171c-1.50968,0 -4.51412,-1.19171 -4.51412,-1.19171c0,0 0,-19.06095 0,-25.72573c0,-4.2362 0,-10.39313 0,-10.39313c0,0 3.26466,-1.01975 4.8686,-1.01975c1.56695,0 4.64666,1.01975 4.64666,1.01975c0,0 0,14.81689 0,21.27179c0,5.39272 0,14.84708 0,14.84708z" data-paper-data="{&quot;index&quot;:null}" stroke="#0d39d6"/></g><g stroke-width="2.5"><path d="M180.75832,181.58228v-6.38743c0,0 61.30048,0 82.73462,0c13.62372,0 33.42456,0 33.42456,0v6.38743c0,0 -47.65146,0 -68.41059,0c-17.34314,0 -47.74858,0 -47.74858,0z" data-paper-data="{&quot;index&quot;:null}" stroke="#000000"/><path d="M184.38584,181.37395c0,0 -4.25814,-2.13073 -4.25814,-3.17951c0,-0.95979 0.37795,-3.64593 0.37795,-3.64593c0,0 61.64394,0.77604 81.84144,0.77604c7.8646,0 17.91375,0 24.51926,0c4.17692,0 10.29185,-0.34895 10.29185,-0.34895c0,0 -0.22465,2.42448 -0.22465,3.4442c0,0.9962 -3.09033,2.95415 -3.09033,2.95415c0,0 -44.90223,0 -64.46364,0c-16.34253,0 -44.99373,0 -44.99373,0z" data-paper-data="{&quot;index&quot;:null}" stroke="#0d39d6"/></g><path d="M253.05127,144.97339v-6.38743c0,0 23.41066,0 31.59636,0c5.2029,0 12.76484,0 12.76484,0v6.38743c0,0 -18.1981,0 -26.12601,0c-6.62335,0 -18.23519,0 -18.23519,0z" data-paper-data="{&quot;index&quot;:null}" stroke="#000000" stroke-width="2.5"/><path d="M255.15594,144.76505c0,0 -1.37921,-2.13073 -1.37921,-3.17951c0,-0.95979 1.37921,-2.86989 1.37921,-2.86989c0,0 22.05998,0 29.77342,0c2.32877,0 5.15907,0 7.48904,0c2.57528,0 4.49822,1.20317 4.49822,2.22289c0,0.9962 0.04111,3.82651 0.04111,3.82651c0,0 -17.14816,0 -24.61867,0c-6.24122,0 -17.18311,0 -17.18311,0z" data-paper-data="{&quot;index&quot;:null}" stroke="#0d39d6" stroke-width="2.5"/><path d="M289.96567,177.14797v-34.01299h4.52136v34.01299z" stroke="#000000" stroke-width="2.5"/><path d="M205.92617,146.22162c-7.92791,0 -26.12601,0 -26.12601,0v-6.38743c0,0 7.56194,0 12.76484,0c8.1857,0 31.59636,0 31.59636,0v6.38743c0,0 -11.61184,0 -18.23519,0z" data-paper-data="{&quot;index&quot;:null}" stroke="#000000" stroke-width="2.5"/><path d="M222.05668,146.0133c0,0 -10.94189,0 -17.18311,0c-7.47051,0 -24.61867,0 -24.61867,0c0,0 0.04111,-2.83031 0.04111,-3.82651c0,-1.01972 1.92294,-2.22289 4.49822,-2.22289c2.32997,0 5.16028,0 7.48905,0c7.71344,0 29.77342,0 29.77342,0c0,0 1.37921,1.9101 1.37921,2.86989c0,1.04878 -1.37921,3.17951 -1.37921,3.17951z" data-paper-data="{&quot;index&quot;:null}" stroke="#0d39d6" stroke-width="2.5"/><path d="M182.72559,177.05629v-32.67308h4.52136v32.67308z" data-paper-data="{&quot;index&quot;:null}" stroke="#000000" stroke-width="2.5"/><path d="M348.87917,153.3868c0,-5.51462 0,-18.17314 0,-18.17314h16.63656c0,0 0,5.26006 0,8.87917c0,5.69393 0,21.97827 0,21.97827h-16.63656c0,0 0,-8.07714 0,-12.68431z" data-paper-data="{&quot;index&quot;:null}" stroke="#000000" stroke-width="2.5"/><path d="M349.42179,164.75105c0,0 0,-7.24081 0,-11.37094c0,-4.94362 0,-16.29144 0,-16.29144c0,0 5.09963,-0.78099 7.69431,-0.78099c2.65594,0 8.06182,0.78099 8.06182,0.78099c0,0 0,4.71541 0,7.95979c0,5.10437 0,19.70258 0,19.70258c0,0 -4.975,0.9127 -7.47485,0.9127c-2.73163,0 -8.28128,-0.9127 -8.28128,-0.9127z" data-paper-data="{&quot;index&quot;:null}" stroke="#0d39d6" stroke-width="2.5"/><g><path d="M410.70508,164.97145c0,0 -12.11561,0 -19.0263,0c-8.27185,0 -27.25945,0 -27.25945,0v-9.51655c0,0 7.89001,0 13.31862,0c8.54082,0 32.96712,0 32.96712,0c0,0 1.52715,3.00486 1.52715,4.51474c0,1.64987 -1.52715,5.00181 -1.52715,5.00181z" data-paper-data="{&quot;index&quot;:null}" stroke="#0d39d6" stroke-width="2.5"/><path d="M359.44467,163.56551v-6.75709h6.75709v6.75709z" data-paper-data="{&quot;index&quot;:null}" stroke="none" stroke-width="0"/></g><path d="M133.57235,152.98921c0,4.60717 0,12.68431 0,12.68431h-16.63656c0,0 0,-16.28434 0,-21.97827c0,-3.61911 0,-8.87917 0,-8.87917h16.63656c0,0 0,12.65852 0,18.17314z" data-paper-data="{&quot;index&quot;:null}" stroke="#000000" stroke-width="2.5"/><path d="M133.02973,164.75106c0,0 -5.54965,0.91269 -8.28128,0.91269c-2.49985,0 -7.47485,-0.91269 -7.47485,-0.91269c0,0 0,-14.59821 0,-19.70258c0,-3.24438 0,-7.95979 0,-7.95979c0,0 5.40588,-0.781 8.06182,-0.781c2.59468,0 7.69431,0.781 7.69431,0.781c0,0 0,11.34782 0,16.29143c0,4.13012 0,11.37094 0,11.37094z" data-paper-data="{&quot;index&quot;:null}" stroke="#0d39d6" stroke-width="2.5"/><g data-paper-data="{&quot;index&quot;:null}"><path d="M71.74646,165.03571c0,0 -1.52715,-3.35194 -1.52715,-5.00181c0,-1.50988 1.52715,-4.51474 1.52715,-4.51474c0,0 24.4263,0 32.96712,0c5.42861,0 13.31862,0 13.31862,0v9.51655c0,0 -18.9876,0 -27.25945,0c-6.91069,0 -19.0263,0 -19.0263,0z" data-paper-data="{&quot;index&quot;:null}" stroke="#0d39d6" stroke-width="2.5"/><path d="M116.24977,163.62977v-6.75709h6.75709v6.75709z" data-paper-data="{&quot;index&quot;:null}" stroke="none" stroke-width="0"/></g><path d="M237.35691,184.68713v-5.40522h3.69831v5.40522z" stroke="none" stroke-width="0"/><path d="M233.94309,355.19871v-3.98279h13.93977v3.98279z" stroke="none" stroke-width="0"/><path d="M402.32307,276.92002c-20.48846,0 -67.51864,0 -67.51864,0v-6.38743c0,0 19.54268,0 32.98876,0c21.15468,0 81.65591,0 81.65591,0v6.38743c0,0 -30.00902,0 -47.12603,0z" data-paper-data="{&quot;index&quot;:null}" stroke="#000000" stroke-width="2.5"/><path d="M415.3731,238.36288c-13.70226,0 -45.15509,0 -45.15509,0v-6.38743c0,0 13.06975,0 22.06221,0c14.14782,0 54.60981,0 54.60981,0v6.38743c0,0 -20.06942,0 -31.51693,0z" data-paper-data="{&quot;index&quot;:null}" stroke="#000000" stroke-width="2.5"/><path d="M428.1548,203.18514c-7.31921,0 -24.12007,0 -24.12007,0v-6.38742c0,0 6.98134,0 11.78476,0c7.5572,0 29.1704,0 29.1704,0v6.38742c0,0 -10.72028,0 -16.83509,0z" data-paper-data="{&quot;index&quot;:null}" stroke="#000000" stroke-width="2.5"/><path d="M445.86887,276.7117c0,0 -28.27764,0 -44.40709,0c-19.30638,0 -63.62317,0 -63.62317,0c0,0 -3.05004,-1.95795 -3.05004,-2.95415c0,-1.01972 3.05004,-3.09525 3.05004,-3.09525c0,0 18.41517,0 31.08548,0c19.93416,0 76.94477,0 76.94477,0c0,0 3.56437,1.9101 3.56437,2.86989c0,1.04878 -3.56437,3.17951 -3.56437,3.17951z" data-paper-data="{&quot;index&quot;:null}" stroke="#0d39d6" stroke-width="2.5"/><path d="M373.4722,238.15456c0,0 -3.27007,-2.08584 -3.27007,-3.1075c0,-0.99406 3.27007,-2.94189 3.27007,-2.94189h69.10374c0,0 4.19338,2.39856 4.19338,3.39262c0,1.02166 -4.19338,2.65678 -4.19338,2.65678z" data-paper-data="{&quot;index&quot;:null}" stroke="#0d39d6" stroke-width="2.5"/><path d="M441.40964,202.97684c0,0 -8.85429,0 -13.90474,0c-6.0452,0 -19.92167,0 -19.92167,0c0,0 -3.45954,-1.95451 -3.45954,-2.94998c0,-1.02037 3.45954,-3.0994 3.45954,-3.0994c0,0 5.76616,0 9.73348,0c6.24179,0 24.09294,0 24.09294,0c0,0 3.56437,2.34287 3.56437,3.32476c0,1.03207 -3.56437,2.72461 -3.56437,2.72461z" data-paper-data="{&quot;index&quot;:null}" stroke="#0d39d6" stroke-width="2.5"/><path d="M291.58,315.53552v-6.38743c0,0 83.71502,0 112.98655,0c18.60522,0 45.64626,0 45.64626,0v6.38743c0,0 -65.07524,0 -93.42493,0c-23.68466,0 -65.20786,0 -65.20786,0z" data-paper-data="{&quot;index&quot;:null}" stroke="#000000" stroke-width="2.5"/><path d="M291.49106,312.34766c0,-1.03314 4.08854,-3.06984 4.08854,-3.06984c0,0 80.07305,0 108.07114,0c17.79581,0 43.66045,0 43.66045,0c0,0 2.85347,1.96044 2.85347,2.95716c0,1.01923 -2.85347,3.09222 -2.85347,3.09222c0,0 -62.24419,0 -89.36055,0c-22.65428,0 -62.37104,0 -62.37104,0c0,0 -4.08854,-1.99897 -4.08854,-2.97954z" data-paper-data="{&quot;index&quot;:null}" stroke="#0d39d6" stroke-width="2.5"/></g></g></svg>