<svg version="1.1" xmlns="http://www.w3.org/2000/svg" xmlns:xlink="http://www.w3.org/1999/xlink" width="488.70924" height="247.44978" viewBox="0,0,488.70924,247.44978"><g transform="translate(3.72613,-109.8697)"><g data-paper-data="{&quot;isPaintingLayer&quot;:true}" fill="#000000" fill-rule="nonzero" stroke-width="2.5" stroke-linecap="butt" stroke-linejoin="miter" stroke-miterlimit="10" stroke-dasharray="" stroke-dashoffset="0" style="mix-blend-mode: normal"><path d="M-2.47613,356.06949v-6.04939c0,0 256.58636,0 346.30356,0c57.02496,0 139.90568,0 139.90568,0v6.04939c0,0 -199.45548,0 -286.34724,0c-72.59342,0 -199.86198,0 -199.86198,0z" stroke="#0d39d6"/><path d="M38.82262,279.91044v-6.38743c0,0 89.98103,0 121.44352,0c19.99781,0 49.06285,0 49.06285,0v6.38743c0,0 -69.94608,0 -100.41773,0c-25.45744,0 -70.08863,0 -70.08863,0z" stroke="#000000"/><path d="M87.87036,225.9107v-6.38743c0,0 65.02971,0 87.7678,0c14.45251,0 35.45795,0 35.45795,0v6.38743c0,0 -50.55036,0 -72.57237,0c-18.39821,0 -50.65338,0 -50.65338,0z" stroke="#000000"/><path d="M127.62363,172.31508v-6.38743c0,0 43.49055,0 58.69732,0c9.66554,0 23.71355,0 23.71355,0v6.38743c0,0 -33.80705,0 -48.53492,0c-12.30435,0 -33.87595,0 -33.87595,0z" stroke="#000000"/><path d="M165.76047,117.50713v-6.38742c0,0 23.23093,0 31.35379,0c5.16295,0 12.66684,0 12.66684,0v6.38742c0,0 -18.05839,0 -25.92544,0c-6.5725,0 -18.09519,0 -18.09519,0z" stroke="#000000"/><path d="M43.12157,279.70213c0,0 -4.39457,-1.99897 -4.39457,-2.97954c0,-1.03314 4.39457,-3.06984 4.39457,-3.06984c0,0 86.06647,0 116.1602,0c19.12782,0 46.92841,0 46.92841,0c0,0 3.06705,1.96044 3.06705,2.95716c0,1.01923 -3.06705,3.09222 -3.06705,3.09222c0,0 -66.90313,0 -96.04913,0c-24.34993,0 -67.03947,0 -67.03947,0z" stroke="#0d39d6"/><path d="M91.71858,225.70239c0,0 -3.83116,-2.13073 -3.83116,-3.17951c0,-0.95979 3.83116,-2.86989 3.83116,-2.86989c0,0 61.27782,0 82.70404,0c13.61867,0 33.41221,0 33.41221,0c0,0 3.27833,2.07553 3.27833,3.09525c0,0.9962 -3.27833,2.95415 -3.27833,2.95415c0,0 -47.63387,0 -68.38532,0c-17.33673,0 -47.73093,0 -47.73093,0z" stroke="#0d39d6"/><path d="M132.26062,172.10677c0,0 -4.50725,-1.63512 -4.50725,-2.65678c0,-0.99406 4.50725,-3.39262 4.50725,-3.39262h74.27611c0,0 3.51483,1.94783 3.51483,2.94189c0,1.02166 -3.51483,3.1075 -3.51483,3.1075z" stroke="#0d39d6"/><path d="M169.60869,117.29882c0,0 -3.83116,-1.69254 -3.83116,-2.72461c0,-0.98189 3.83116,-3.32476 3.83116,-3.32476c0,0 19.1873,0 25.89628,0c4.26427,0 10.46202,0 10.46202,0c0,0 3.71848,2.07903 3.71848,3.0994c0,0.99547 -3.71848,2.94998 -3.71848,2.94998c0,0 -14.91511,0 -21.4128,0c-5.42847,0 -14.9455,0 -14.9455,0z" stroke="#0d39d6"/><path d="M432.11942,313.49534c0,0 -44.63119,0 -70.08863,0c-30.47165,0 -100.41773,0 -100.41773,0v-6.38743c0,0 29.06504,0 49.06285,0c31.46249,0 121.44352,0 121.44352,0v6.38743z" data-paper-data="{&quot;index&quot;:null}" stroke="#000000"/><path d="M332.4183,259.4956c-22.02201,0 -72.57237,0 -72.57237,0v-6.38743c0,0 21.00544,0 35.45795,0c22.73809,0 87.7678,0 87.7678,0v6.38743c0,0 -32.25517,0 -50.65338,0z" data-paper-data="{&quot;index&quot;:null}" stroke="#000000"/><path d="M309.44247,205.89998c-14.72787,0 -48.53492,0 -48.53492,0v-6.38743c0,0 14.04801,0 23.71355,0c15.20677,0 58.69732,0 58.69732,0v6.38743c0,0 -21.5716,0 -33.87595,0z" data-paper-data="{&quot;index&quot;:null}" stroke="#000000"/><path d="M287.08639,151.09203c-7.86705,0 -25.92544,0 -25.92544,0v-6.38742c0,0 7.50389,0 12.66684,0c8.12286,0 31.35379,0 31.35379,0v6.38742c0,0 -11.52269,0 -18.09519,0z" data-paper-data="{&quot;index&quot;:null}" stroke="#000000"/><path d="M427.82047,313.28703c0,0 -42.68954,0 -67.03947,0c-29.146,0 -96.04913,0 -96.04913,0c0,0 -3.06705,-2.07299 -3.06705,-3.09222c0,-0.99672 3.06705,-2.95716 3.06705,-2.95716c0,0 27.80059,0 46.92841,0c30.09373,0 116.1602,0 116.1602,0c0,0 4.39457,2.0367 4.39457,3.06984c0,0.98057 -4.39457,2.97954 -4.39457,2.97954z" data-paper-data="{&quot;index&quot;:null}" stroke="#0d39d6"/><path d="M331.49253,259.28729c-20.75145,0 -68.38532,0 -68.38532,0c0,0 -3.27833,-1.95795 -3.27833,-2.95415c0,-1.01972 3.27833,-3.09525 3.27833,-3.09525c0,0 19.79354,0 33.41221,0c21.42622,0 82.70404,0 82.70404,0c0,0 3.83116,1.9101 3.83116,2.86989c0,1.04878 -3.83116,3.17951 -3.83116,3.17951c0,0 -30.3942,0 -47.73093,0z" data-paper-data="{&quot;index&quot;:null}" stroke="#0d39d6"/><path d="M264.40531,205.69166c0,0 -3.51483,-2.08584 -3.51483,-3.1075c0,-0.99406 3.51483,-2.94189 3.51483,-2.94189h74.27611c0,0 4.50725,2.39856 4.50725,3.39262c0,1.02166 -4.50725,2.65678 -4.50725,2.65678z" data-paper-data="{&quot;index&quot;:null}" stroke="#0d39d6"/><path d="M301.33336,150.88373c0,0 -9.51703,0 -14.9455,0c-6.49769,0 -21.4128,0 -21.4128,0c0,0 -3.71848,-1.95451 -3.71848,-2.94998c0,-1.02037 3.71848,-3.0994 3.71848,-3.0994c0,0 6.19775,0 10.46202,0c6.70898,0 25.89628,0 25.89628,0c0,0 3.83116,2.34287 3.83116,3.32476c0,1.03207 -3.83116,2.72461 -3.83116,2.72461z" data-paper-data="{&quot;index&quot;:null}" stroke="#0d39d6"/></g></g></svg>