<svg version="1.1" xmlns="http://www.w3.org/2000/svg" xmlns:xlink="http://www.w3.org/1999/xlink" width="51.27492" height="48.985" viewBox="0,0,51.27492,48.985"><g transform="translate(-206.5396,-115.55338)"><g data-paper-data="{&quot;isPaintingLayer&quot;:true}" fill-rule="nonzero" stroke-linecap="butt" stroke-linejoin="miter" stroke-miterlimit="10" stroke-dasharray="" stroke-dashoffset="0" style="mix-blend-mode: normal"><path d="M255.06049,140.04588c0,12.2842 -10.3581,22.2425 -23.13545,22.2425c-12.77735,0 -23.13545,-9.95831 -23.13545,-22.2425c0,-12.2842 10.3581,-22.2425 23.13545,-22.2425c12.77735,0 23.13545,9.95831 23.13545,22.2425z" fill="#30ff2e" stroke="#000000" stroke-width="4.5"/><path d="M255.56452,139.11354c0,8.75646 -7.3835,15.85497 -16.49148,15.85497c-9.108,0 -16.49148,-7.09852 -16.49148,-15.85497c0,-8.75646 7.3835,-15.85497 16.49148,-15.85497c9.108,0 16.49148,7.09852 16.49148,15.85497z" fill="#000000" stroke="#000000" stroke-width="4.5"/><path d="M252.32561,137.68316c0,3.18738 -2.68761,5.77126 -6.00295,5.77126c-3.31533,0 -6.00295,-2.58388 -6.00295,-5.77126c0,-3.18738 2.68761,-5.77126 6.00295,-5.77126c3.31533,0 6.00295,2.58388 6.00295,5.77126z" fill="#ffffff" stroke="none" stroke-width="0"/><path d="M236.2359,130.44446c0,1.60042 -1.34949,2.89782 -3.01416,2.89782c-1.66467,0 -3.01416,-1.2974 -3.01416,-2.89782c0,-1.60042 1.34949,-2.89782 3.01416,-2.89782c1.66467,0 3.01416,1.2974 3.01416,2.89782z" fill="#ffffff" stroke="none" stroke-width="0"/></g></g></svg>