<svg version="1.1" xmlns="http://www.w3.org/2000/svg" xmlns:xlink="http://www.w3.org/1999/xlink" width="211.05709" height="215.58598" viewBox="0,0,211.05709,215.58598"><g transform="translate(-132.207,-72.207)"><g data-paper-data="{&quot;isPaintingLayer&quot;:true}" fill="#6667ff" fill-rule="nonzero" stroke="#000000" stroke-width="7.5" stroke-linecap="butt" stroke-linejoin="miter" stroke-miterlimit="10" stroke-dasharray="" stroke-dashoffset="0" style="mix-blend-mode: normal"><path d="M145.16421,137.27085c23.59866,-52.37636 85.18858,-75.7053 137.56494,-52.10664c21.44745,9.66335 38.02424,25.69706 48.50266,44.85993c1.15286,2.10834 7.60028,34.49032 7.60028,34.49032c0,0 -40.94722,8.58528 -60.87665,13.63489c-15.18986,3.84872 -54.20619,-4.85135 -54.20619,-4.85135c0,0 28.01578,9.60764 39.22192,14.38035c16.72074,7.12138 76.07531,1.41832 76.07531,1.41832c0,0 -3.40571,31.84584 -4.21069,33.63246c-23.59866,52.37636 -85.18858,75.7053 -137.56494,52.10664c-52.37636,-23.59866 -75.7053,-85.18858 -52.10664,-137.56494z"/></g></g></svg>