<svg version="1.1" xmlns="http://www.w3.org/2000/svg" xmlns:xlink="http://www.w3.org/1999/xlink" width="561.86833" height="287.30484" viewBox="0,0,561.86833,287.30484"><g transform="translate(41.34235,-70.01468)"><g data-paper-data="{&quot;isPaintingLayer&quot;:true}" fill="#000000" fill-rule="nonzero" stroke-linecap="butt" stroke-linejoin="miter" stroke-miterlimit="10" stroke-dasharray="" stroke-dashoffset="0" style="mix-blend-mode: normal"><path d="M411.579,104.97564c0,0 -12.85742,0 -20.19123,0c-8.77831,0 -28.92847,0 -28.92847,0v-10.04832c0,0 8.37309,0 14.13409,0c9.06376,0 34.98562,0 34.98562,0v10.04832z" data-paper-data="{&quot;index&quot;:null}" stroke="#000000" stroke-width="2.5"/><path d="M69.55248,104.97563v-10.04832c0,0 25.92186,0 34.98562,0c5.761,0 14.13409,0 14.13409,0v10.04832c0,0 -20.15016,0 -28.92847,0c-7.33381,0 -20.19123,0 -20.19123,0z" data-paper-data="{&quot;index&quot;:null}" stroke="#000000" stroke-width="2.5"/><g data-paper-data="{&quot;index&quot;:null}" stroke-width="2.5"><path d="M179.21666,98.38258c0,-6.87324 0,-22.65037 0,-22.65037h10.04696c0,0 0,6.55597 0,11.0667c0,7.09673 0,27.39297 0,27.39297h-10.04696c0,0 0,-10.06707 0,-15.80929z" data-paper-data="{&quot;index&quot;:null}" stroke="#000000"/><path d="M179.54435,112.99082c0,0 0,-9.48626 0,-14.89717c0,-6.47669 0,-21.34356 0,-21.34356c0,0 3.07971,-1.02319 4.64666,-1.02319c1.60394,0 4.8686,1.02319 4.8686,1.02319c0,0 0,6.17771 0,10.42819c0,6.68727 0,25.81252 0,25.81252c0,0 -3.00444,1.19573 -4.51412,1.19573c-1.64966,0 -5.00114,-1.19573 -5.00114,-1.19573z" data-paper-data="{&quot;index&quot;:null}" stroke="#0d39d6"/></g><g stroke-width="2.5"><path d="M387.05504,270.97834h-10.04696c0,0 0,-22.08332 0,-29.80491c0,-4.90791 0,-12.04109 0,-12.04109h10.04696c0,0 0,17.1663 0,24.64472c0,6.24781 0,17.20129 0,17.20129z" data-paper-data="{&quot;index&quot;:null}" stroke="#000000"/><path d="M386.72735,269.67153c0,0 -3.35148,1.30101 -5.00114,1.30101c-1.50968,0 -4.51412,-1.30101 -4.51412,-1.30101c0,0 0,-20.80922 0,-28.08531c0,-4.62475 0,-11.3464 0,-11.3464c0,0 3.26465,-1.11329 4.8686,-1.11329c1.56695,0 4.64666,1.11329 4.64666,1.11329c0,0 0,16.17591 0,23.22284c0,5.88735 0,16.20886 0,16.20886z" data-paper-data="{&quot;index&quot;:null}" stroke="#0d39d6"/></g><g stroke-width="2.5"><path d="M296.67593,112.81429h-10.04696c0,0 0,-20.22799 0,-27.30086c0,-4.49556 0,-11.02948 0,-11.02948h10.04696c0,0 0,15.72408 0,22.57421c0,5.72291 0,15.75613 0,15.75613z" data-paper-data="{&quot;index&quot;:null}" stroke="#000000"/><path d="M296.34825,111.61727c0,0 -3.35148,1.19171 -5.00114,1.19171c-1.50968,0 -4.51412,-1.19171 -4.51412,-1.19171c0,0 0,-19.06095 0,-25.72573c0,-4.2362 0,-10.39313 0,-10.39313c0,0 3.26466,-1.01975 4.8686,-1.01975c1.56695,0 4.64666,1.01975 4.64666,1.01975c0,0 0,14.81689 0,21.27179c0,5.39272 0,14.84708 0,14.84708z" data-paper-data="{&quot;index&quot;:null}" stroke="#0d39d6"/></g><path d="M236.34485,354.63931v-3.23007h10.55157v3.23007z" stroke="none" stroke-width="2.5"/><g stroke-width="2.5"><path d="M340.82898,312.69446h-10.04695c0,0 0,-19.30739 0,-26.05835c0,-4.29096 0,-10.5275 0,-10.5275h10.04695c0,0 0,15.00845 0,21.54681c0,5.46245 0,15.03904 0,15.03904z" data-paper-data="{&quot;index&quot;:null}" stroke="#000000"/><path d="M340.5013,311.55192c0,0 -3.35149,1.13747 -5.00114,1.13747c-1.50968,0 -4.51412,-1.13747 -4.51412,-1.13747c0,0 0,-18.19345 0,-24.55491c0,-4.0434 0,-9.92012 0,-9.92012c0,0 3.26465,-0.97334 4.8686,-0.97334c1.56695,0 4.64667,0.97334 4.64667,0.97334c0,0 0,14.14255 0,20.30367c0,5.14729 0,14.17136 0,14.17136z" data-paper-data="{&quot;index&quot;:null}" stroke="#0d39d6"/></g><g stroke-width="2.5"><path d="M281.53058,315.19076v-6.38743c0,0 75.92228,0 102.46903,0c16.87333,0 41.3972,0 41.3972,0v6.38743c0,0 -59.0176,0 -84.72834,0c-21.47994,0 -59.1379,0 -59.1379,0z" data-paper-data="{&quot;index&quot;:null}" stroke="#000000"/><path d="M286.02335,314.98243c0,0 -4.47287,-2.13073 -4.47287,-3.17951c0,-0.95979 4.47287,-2.86989 4.47287,-2.86989c0,0 71.54194,0 96.55709,0c15.89981,0 39.00879,0 39.00879,0c0,0 3.82745,2.07553 3.82745,3.09525c0,0.9962 -3.82745,2.95415 -3.82745,2.95415c0,0 -55.6126,0 -79.83994,0c-20.24066,0 -55.72593,0 -55.72593,0z" data-paper-data="{&quot;index&quot;:null}" stroke="#0d39d6"/></g><g stroke-width="2.5"><path d="M280.90765,232.26903v-6.38743c0,0 34.22812,0 46.19621,0c7.60702,0 18.66314,0 18.66314,0v6.38743c0,0 -26.60696,0 -38.19816,0c-9.68382,0 -26.6612,0 -26.6612,0z" data-paper-data="{&quot;index&quot;:null}" stroke="#000000"/><path d="M282.93314,232.0607c0,0 -2.01651,-2.13073 -2.01651,-3.17951c0,-0.95979 2.01651,-2.86989 2.01651,-2.86989c0,0 32.25333,0 43.53093,0c7.16813,0 17.58637,0 17.58637,0c0,0 1.72554,2.07553 1.72554,3.09525c0,0.9962 -1.72554,2.95415 -1.72554,2.95415c0,0 -25.07188,0 -35.99432,0c-9.12511,0 -25.12298,0 -25.12298,0z" data-paper-data="{&quot;index&quot;:null}" stroke="#0d39d6"/></g><g stroke-width="2.5"><path d="M376.99363,231.11805v-6.38743c0,0 24.93142,0 33.64886,0c5.54088,0 13.59404,0 13.59404,0v6.38743c0,0 -19.38025,0 -27.82315,0c-7.0536,0 -19.41975,0 -19.41975,0z" data-paper-data="{&quot;index&quot;:null}" stroke="#000000"/><path d="M377.03036,230.90972c0,0 -0.03018,-2.13073 -0.03018,-3.17951c0,-0.95979 1.4688,-2.86989 1.4688,-2.86989c0,0 23.493,0 31.70749,0c5.2212,0 12.80974,0 12.80974,0c0,0 1.25686,2.07553 1.25686,3.09525c0,0.9962 -1.25686,2.95415 -1.25686,2.95415c0,0 -18.26211,0 -26.21791,0c-6.64664,0 -18.29933,0 -18.29933,0z" data-paper-data="{&quot;index&quot;:null}" stroke="#0d39d6"/></g><g stroke-width="2.5"><path d="M429.94208,271.00522v-6.38743c0,0 21.26122,0 28.69534,0c4.72519,0 11.59283,0 11.59283,0v6.38743c0,0 -16.52724,0 -23.72725,0c-6.01522,0 -16.56092,0 -16.56092,0z" data-paper-data="{&quot;index&quot;:null}" stroke="#000000"/><path d="M431.20024,270.79689c0,0 -1.25259,-2.13073 -1.25259,-3.17951c0,-0.95979 1.25259,-2.86989 1.25259,-2.86989c0,0 20.03454,0 27.03976,0c4.45257,0 10.92399,0 10.92399,0c0,0 1.07184,2.07553 1.07184,3.09525c0,0.9962 -1.07184,2.95415 -1.07184,2.95415c0,0 -15.57371,0 -22.35831,0c-5.66818,0 -15.60544,0 -15.60544,0z" data-paper-data="{&quot;index&quot;:null}" stroke="#0d39d6"/></g><path d="M471.15002,305.4129l-9.36995,0.20082c0,0 -0.21135,-63.29765 -0.21135,-85.81464c0,-14.31197 0,-35.11316 0,-35.11316h10.04696c0,0 0,50.05881 0,71.86669c0,18.21931 -0.21134,45.29987 -0.21134,45.29987z" data-paper-data="{&quot;index&quot;:null}" stroke="#000000" stroke-width="2.5"/><path d="M471.288,349.28561c0,0 -6.66082,0 -8.21847,0c-0.61874,0 -1.29679,0 -1.29679,0c0,0 0,-84.48747 0,-114.0291c0,-18.77689 0,-46.06743 0,-46.06743c0,0 3.26466,-4.52003 4.8686,-4.52003c1.56695,0 4.64666,4.52003 4.64666,4.52003c0,0 0,65.67573 0,94.287c0,23.90321 0,65.80953 0,65.80953z" data-paper-data="{&quot;index&quot;:null}" stroke="#0d39d6" stroke-width="2.5"/><g stroke-width="2.5"><path d="M184.39176,270.08797v-6.38743c0,0 58.53709,0 79.00499,0c13.00956,0 31.9178,0 31.9178,0v6.38743c0,0 -45.50336,0 -65.32668,0c-16.56132,0 -45.5961,0 -45.5961,0z" data-paper-data="{&quot;index&quot;:null}" stroke="#000000"/><path d="M187.85576,269.87964c0,0 -3.44864,-2.13073 -3.44864,-3.17951c0,-0.95979 3.44864,-2.86989 3.44864,-2.86989c0,0 55.15979,0 74.4468,0c12.25896,0 30.0763,0 30.0763,0c0,0 2.95102,2.07553 2.95102,3.09525c0,0.9962 -2.95102,2.95415 -2.95102,2.95415c0,0 -42.87806,0 -61.55766,0c-15.60582,0 -42.96544,0 -42.96544,0z" data-paper-data="{&quot;index&quot;:null}" stroke="#0d39d6"/></g><g data-paper-data="{&quot;index&quot;:null}" stroke-width="2.5"><path d="M242.74748,268.75127c0,0 0,9.24664 0,14.52089c0,6.31309 0,20.80444 0,20.80444h-10.04696c0,0 0,-6.02168 0,-10.1648c0,-6.51837 0,-25.16054 0,-25.16054h10.04696z" data-paper-data="{&quot;index&quot;:null}" stroke="#000000"/><path d="M242.41978,269.85443c0,0 0,8.71316 0,13.6831c0,5.94885 0,17.58259 0,17.58259c0,0 -3.07971,2.96133 -4.64666,2.96133c-1.60394,0 -4.8686,-2.45595 -4.8686,-2.45595c0,0 0,-4.1581 0,-8.06218c0,-6.14228 0,-23.7089 0,-23.7089h9.51527z" data-paper-data="{&quot;index&quot;:null}" stroke="#0d39d6"/></g><g stroke-width="2.5"><path d="M242.74527,216.39447h-10.04696c0,0 0,-17.56886 0,-23.71194c0,-3.90458 0,-9.57956 0,-9.57956h10.04696c0,0 0,13.65702 0,19.60665c0,4.97059 0,13.68487 0,13.68487z" data-paper-data="{&quot;index&quot;:null}" stroke="#000000"/><path d="M242.41758,215.35481c0,0 -3.35148,1.03504 -5.00114,1.03504c-1.50968,0 -4.51413,-1.03504 -4.51413,-1.03504c0,0 0,-16.55524 0,-22.34388c0,-3.67932 0,-9.02687 0,-9.02687c0,0 3.26466,-0.88569 4.8686,-0.88569c1.56695,0 4.64666,0.88569 4.64666,0.88569c0,0 0,12.86909 0,18.47544c0,4.68381 0,12.89532 0,12.89532z" data-paper-data="{&quot;index&quot;:null}" stroke="#0d39d6"/></g><g stroke-width="2.5"><path d="M342.19622,186.98211h-10.04696c0,0 0,-19.30738 0,-26.05835c0,-4.29096 0,-10.52751 0,-10.52751h10.04696c0,0 0,15.00845 0,21.54682c0,5.46245 0,15.03904 0,15.03904z" data-paper-data="{&quot;index&quot;:null}" stroke="#000000"/><path d="M341.86853,185.83957c0,0 -3.35148,1.13747 -5.00114,1.13747c-1.50968,0 -4.51412,-1.13747 -4.51412,-1.13747c0,0 0,-18.19345 0,-24.55491c0,-4.0434 0,-9.92012 0,-9.92012c0,0 3.26466,-0.97334 4.8686,-0.97334c1.56695,0 4.64666,0.97334 4.64666,0.97334c0,0 0,14.14255 0,20.30368c0,5.14729 0,14.17136 0,14.17136z" data-paper-data="{&quot;index&quot;:null}" stroke="#0d39d6"/></g><g stroke-width="2.5"><path d="M181.6879,187.61092v-6.38743c0,0 59.91956,0 80.87086,0c13.31682,0 32.6716,0 32.6716,0v6.38743c0,0 -46.57802,0 -66.86951,0c-16.95245,0 -46.67295,0 -46.67295,0z" data-paper-data="{&quot;index&quot;:null}" stroke="#000000"/><path d="M185.23371,187.40259c0,0 -3.53009,-2.13073 -3.53009,-3.17951c0,-0.95979 3.53009,-2.86989 3.53009,-2.86989c0,0 56.4625,0 76.20501,0c12.5485,0 30.78663,0 30.78663,0c0,0 3.02071,2.07553 3.02071,3.09525c0,0.9962 -3.02071,2.95415 -3.02071,2.95415c0,0 -43.89072,0 -63.01147,0c-15.97438,0 -43.98016,0 -43.98016,0z" data-paper-data="{&quot;index&quot;:null}" stroke="#0d39d6"/></g><g stroke-width="2.5"><path d="M180.0983,114.261v-6.38743c0,0 61.30048,0 82.73462,0c13.62372,0 33.42456,0 33.42456,0v6.38743c0,0 -47.65146,0 -68.41059,0c-17.34314,0 -47.74858,0 -47.74858,0z" data-paper-data="{&quot;index&quot;:null}" stroke="#000000"/><path d="M183.72582,114.05267c0,0 -4.25814,-2.13073 -4.25814,-3.17951c0,-0.95979 0.37795,-3.64593 0.37795,-3.64593c0,0 61.64394,0.77604 81.84144,0.77604c7.8646,0 17.91375,0 24.51926,0c4.17692,0 10.29185,-0.34895 10.29185,-0.34895c0,0 -0.22465,2.42448 -0.22465,3.4442c0,0.9962 -3.09033,2.95415 -3.09033,2.95415c0,0 -44.90223,0 -64.46364,0c-16.34253,0 -44.99373,0 -44.99373,0z" data-paper-data="{&quot;index&quot;:null}" stroke="#0d39d6"/></g><path d="M252.39125,77.65211v-6.38743c0,0 23.41066,0 31.59636,0c5.2029,0 12.76484,0 12.76484,0v6.38743c0,0 -18.1981,0 -26.12601,0c-6.62335,0 -18.23519,0 -18.23519,0z" data-paper-data="{&quot;index&quot;:null}" stroke="#000000" stroke-width="2.5"/><path d="M254.49592,77.44378c0,0 -1.37921,-2.13073 -1.37921,-3.17951c0,-0.95979 1.37921,-2.86989 1.37921,-2.86989c0,0 22.05998,0 29.77342,0c2.32877,0 5.15907,0 7.48904,0c2.57528,0 4.49822,1.20317 4.49822,2.22289c0,0.9962 0.04111,3.82651 0.04111,3.82651c0,0 -17.14816,0 -24.61867,0c-6.24122,0 -17.18311,0 -17.18311,0z" data-paper-data="{&quot;index&quot;:null}" stroke="#0d39d6" stroke-width="2.5"/><g stroke-width="2.5"><path d="M385.38507,189.169h-10.04696c0,0 0,-20.08006 0,-27.1012c0,-4.46268 0,-10.94881 0,-10.94881h10.04696c0,0 0,15.60908 0,22.40911c0,5.68105 0,15.6409 0,15.6409z" data-paper-data="{&quot;index&quot;:null}" stroke="#000000"/><path d="M385.05738,187.98074c0,0 -3.35148,1.183 -5.00114,1.183c-1.50968,0 -4.51412,-1.183 -4.51412,-1.183c0,0 0,-18.92154 0,-25.53759c0,-4.20522 0,-10.31712 0,-10.31712c0,0 3.26466,-1.0123 4.8686,-1.0123c1.56695,0 4.64666,1.0123 4.64666,1.0123c0,0 0,14.70853 0,21.11621c0,5.3533 0,14.73849 0,14.73849z" data-paper-data="{&quot;index&quot;:null}" stroke="#0d39d6"/></g><path d="M375.35098,153.81069v-6.38743c0,0 58.88697,0 79.47722,0c13.08733,0 32.10857,0 32.10857,0v6.38743c0,0 -45.77533,0 -65.71713,0c-16.6603,0 -45.86865,0 -45.86865,0z" data-paper-data="{&quot;index&quot;:null}" stroke="#000000" stroke-width="2.5"/><path d="M375.54859,153.838c0,0 0,-2.50962 0,-3.59384c0,-0.51614 0.54892,-1.10029 1.01451,-1.50291c0.34285,-0.29648 0.6405,-0.49454 0.6405,-0.49454c0,0 -0.13074,-0.4581 2.50119,-0.4581c13.25979,0 54.63408,0 70.84716,0c12.35062,0 30.30116,0 30.30116,0c0,0 2.97307,2.07553 2.97307,3.09525c0,0.9962 -2.97307,2.95415 -2.97307,2.95415c0,0 -43.19862,0 -62.01786,0c-15.72249,0 -43.28665,0 -43.28665,0z" data-paper-data="{&quot;index&quot;:null}" stroke="#0d39d6" stroke-width="2.5"/><path d="M375.42335,183.17399c0,0 27.56416,0 43.28665,0c18.81924,0 62.01786,0 62.01786,0c0,0 2.97307,1.95795 2.97307,2.95415c0,1.01972 -2.97307,3.09525 -2.97307,3.09525c0,0 -17.95054,0 -30.30116,0c-16.21308,0 -57.58737,0 -70.84716,0c-2.63193,0 -2.50119,-0.4581 -2.50119,-0.4581c0,0 -1.65501,-1.10123 -1.65501,-1.99745c0,-1.08422 0,-3.59384 0,-3.59384z" data-paper-data="{&quot;index&quot;:null}" stroke="#0d39d6" stroke-width="2.5"/><path d="M376.87097,184.4354v-32.81693h6.87162v32.81694z" stroke="none" stroke-width="0"/><path d="M455.4323,270.06327v-3.66089h9.15222v3.66089z" stroke="none" stroke-width="0"/><path d="M234.03918,189.665v-6.62994h6.97888v6.62994z" stroke="none" stroke-width="2.5"/><path d="M234.21365,273.84317v-7.67677h6.97888v7.67677z" stroke="none" stroke-width="0"/><path d="M289.30566,109.82669v-34.01299h4.52136v34.01299z" stroke="#000000" stroke-width="2.5"/><path d="M332.22778,311.43963v-8.6317h6.78204v8.6317z" stroke="none" stroke-width="2.5"/><path d="M378.72006,234.89362v-6.1655h6.98756v6.1655z" stroke="none" stroke-width="2.5"/><path d="M9.74928,352.63524c0,-0.93099 0,-2.61511 0,-2.61511c0,0 243.52439,0 328.67438,0c54.12201,0 132.78354,0 132.78354,0c0,0 0,1.886 0,2.90978c0,0.99165 -1.64915,2.29422 -1.64915,2.29422c0,0 0.08582,0.84539 -2.81861,0.84539c-29.05592,0 -192.32849,0 -267.30248,0c-56.7066,0 -148.5655,0 -179.29842,0c-0.75141,0 -3.70268,-0.09318 -4.3796,-0.09318c-5.27534,0 -6.00965,-2.27421 -6.00965,-3.3411z" stroke="#0d39d6" stroke-width="2.5"/><path d="M463.03377,192.52184v-8.03115h6.97442v8.03115z" stroke="none" stroke-width="NaN"/><path d="M462.82243,351.0278v-7.39711h6.97442v7.39711z" stroke="none" stroke-width="0"/><path d="M205.26615,78.90035c-7.92791,0 -26.12601,0 -26.12601,0v-6.38743c0,0 7.56194,0 12.76484,0c8.1857,0 31.59636,0 31.59636,0v6.38743c0,0 -11.61184,0 -18.23519,0z" data-paper-data="{&quot;index&quot;:null}" stroke="#000000" stroke-width="2.5"/><path d="M221.39666,78.69202c0,0 -10.94189,0 -17.18311,0c-7.47051,0 -24.61867,0 -24.61867,0c0,0 0.04111,-2.83031 0.04111,-3.82651c0,-1.01972 1.92294,-2.22289 4.49822,-2.22289c2.32997,0 5.16028,0 7.48905,0c7.71344,0 29.77342,0 29.77342,0c0,0 1.37921,1.9101 1.37921,2.86989c0,1.04878 -1.37921,3.17951 -1.37921,3.17951z" data-paper-data="{&quot;index&quot;:null}" stroke="#0d39d6" stroke-width="2.5"/><path d="M182.06557,109.73501v-32.67308h4.52136v32.67308z" data-paper-data="{&quot;index&quot;:null}" stroke="#000000" stroke-width="2.5"/><g data-paper-data="{&quot;index&quot;:null}" stroke-width="2.5"><path d="M94.04007,255.22192c0,-7.01543 0,-23.11896 0,-23.11896h10.04696c0,0 0,6.69157 0,11.29563c0,7.24355 0,27.95969 0,27.95969h-10.04696c0,0 0,-10.27534 0,-16.13635z" data-paper-data="{&quot;index&quot;:null}" stroke="#000000"/><path d="M94.36776,254.92701c0,-6.61066 0,-21.78513 0,-21.78513c0,0 3.07971,-1.04435 4.64666,-1.04435c1.60395,0 4.8686,1.04435 4.8686,1.04435c0,0 0,6.30551 0,10.64394c0,6.82562 0,26.34655 0,26.34655c0,0 -3.00444,1.22047 -4.51412,1.22047c-1.64966,0 -5.00114,-1.22047 -5.00114,-1.22047c0,0 0,-9.6825 0,-15.20537z" data-paper-data="{&quot;index&quot;:null}" stroke="#0d39d6"/></g><g data-paper-data="{&quot;index&quot;:null}" stroke-width="2.5"><path d="M140.26613,298.03535c0,-6.53836 0,-21.54681 0,-21.54681h10.04695c0,0 0,6.23654 0,10.5275c0,6.75096 0,26.05835 0,26.05835h-10.04695c0,0 0,-9.57659 0,-15.03904z" data-paper-data="{&quot;index&quot;:null}" stroke="#000000"/><path d="M140.5938,311.93185c0,0 0,-9.02407 0,-14.17136c0,-6.16112 0,-20.30367 0,-20.30367c0,0 3.07972,-0.97334 4.64667,-0.97334c1.60395,0 4.8686,0.97334 4.8686,0.97334c0,0 0,5.87672 0,9.92012c0,6.36146 0,24.55491 0,24.55491c0,0 -3.00444,1.13747 -4.51412,1.13747c-1.64965,0 -5.00114,-1.13747 -5.00114,-1.13747z" data-paper-data="{&quot;index&quot;:null}" stroke="#0d39d6"/></g><g data-paper-data="{&quot;index&quot;:null}" stroke-width="2.5"><path d="M199.56454,315.5707c0,0 -37.65796,0 -59.1379,0c-25.71074,0 -84.72834,0 -84.72834,0v-6.38743c0,0 24.52387,0 41.3972,0c26.54675,0 102.46903,0 102.46903,0v6.38743z" data-paper-data="{&quot;index&quot;:null}" stroke="#000000"/><path d="M195.07174,315.36237c0,0 -35.48527,0 -55.72593,0c-24.22734,0 -79.83994,0 -79.83994,0c0,0 -3.82745,-1.95795 -3.82745,-2.95415c0,-1.01972 3.82745,-3.09525 3.82745,-3.09525c0,0 23.10898,0 39.00879,0c25.01515,0 96.55709,0 96.55709,0c0,0 4.47287,1.9101 4.47287,2.86989c0,1.04878 -4.47287,3.17951 -4.47287,3.17951z" data-paper-data="{&quot;index&quot;:null}" stroke="#0d39d6"/></g><g data-paper-data="{&quot;index&quot;:null}" stroke-width="2.5"><path d="M200.18747,232.64897c0,0 -16.97738,0 -26.6612,0c-11.5912,0 -38.19816,0 -38.19816,0v-6.38743c0,0 11.05612,0 18.66314,0c11.96809,0 46.19621,0 46.19621,0v6.38743z" data-paper-data="{&quot;index&quot;:null}" stroke="#000000"/><path d="M173.03899,232.44064c-10.92244,0 -35.99432,0 -35.99432,0c0,0 -1.72554,-1.95795 -1.72554,-2.95415c0,-1.01972 1.72554,-3.09525 1.72554,-3.09525c0,0 10.41824,0 17.58637,0c11.2776,0 43.53093,0 43.53093,0c0,0 2.01651,1.9101 2.01651,2.86989c0,1.04878 -2.01651,3.17951 -2.01651,3.17951c0,0 -15.99787,0 -25.12298,0z" data-paper-data="{&quot;index&quot;:null}" stroke="#0d39d6"/></g><g data-paper-data="{&quot;index&quot;:null}" stroke-width="2.5"><path d="M84.68173,232.99936c-8.4429,0 -27.82315,0 -27.82315,0v-6.38743c0,0 8.05316,0 13.59404,0c8.71744,0 33.64886,0 33.64886,0v6.38743c0,0 -12.36615,0 -19.41975,0z" data-paper-data="{&quot;index&quot;:null}" stroke="#000000"/><path d="M102.62615,232.79103c0,0 -11.65269,0 -18.29933,0c-7.9558,0 -26.21791,0 -26.21791,0c0,0 -1.25686,-1.95795 -1.25686,-2.95415c0,-1.01972 1.25686,-3.09525 1.25686,-3.09525c0,0 7.58854,0 12.80974,0c8.21449,0 31.70749,0 31.70749,0c0,0 1.4688,1.9101 1.4688,2.86989c0,1.04878 -0.03019,3.17951 -0.03019,3.17951z" data-paper-data="{&quot;index&quot;:null}" stroke="#0d39d6"/></g><g data-paper-data="{&quot;index&quot;:null}" stroke-width="2.5"><path d="M34.59211,271.38516c-7.20001,0 -23.72725,0 -23.72725,0v-6.38743c0,0 6.86764,0 11.59283,0c7.43412,0 28.69534,0 28.69534,0v6.38743c0,0 -10.5457,0 -16.56092,0z" data-paper-data="{&quot;index&quot;:null}" stroke="#000000"/><path d="M34.28943,271.17683c-6.7846,0 -22.35831,0 -22.35831,0c0,0 -1.07184,-1.95795 -1.07184,-2.95415c0,-1.01972 1.07184,-3.09525 1.07184,-3.09525c0,0 6.47142,0 10.92399,0c7.00522,0 27.03976,0 27.03976,0c0,0 1.25259,1.9101 1.25259,2.86989c0,1.04878 -1.25259,3.17951 -1.25259,3.17951c0,0 -9.93726,0 -15.60544,0z" data-paper-data="{&quot;index&quot;:null}" stroke="#0d39d6"/></g><path d="M9.47942,256.93254c0,-21.80788 0,-71.86669 0,-71.86669h10.04696c0,0 0,20.80119 0,35.11316c0,22.517 -0.21134,86.06897 -0.21134,86.06897l-9.62427,-4.01558c0,0 -0.21135,-27.08056 -0.21135,-45.29987z" data-paper-data="{&quot;index&quot;:null}" stroke="#000000" stroke-width="2.5"/><path d="M9.80711,350.93698c0,0 0,-42.22999 0,-66.31781c0,-28.83225 0,-95.01523 0,-95.01523c0,0 3.07971,-4.55494 4.64666,-4.55494c1.60394,0 4.8686,4.55494 4.8686,4.55494c0,0 0,27.50133 0,46.42324c0,29.7698 0,114.90981 0,114.90981z" data-paper-data="{&quot;index&quot;:null}" stroke="#0d39d6" stroke-width="2.5"/><g data-paper-data="{&quot;index&quot;:null}" stroke-width="2.5"><path d="M138.89889,172.32301c0,-6.53837 0,-21.54682 0,-21.54682h10.04696c0,0 0,6.23655 0,10.52751c0,6.75097 0,26.05835 0,26.05835h-10.04696c0,0 0,-9.57659 0,-15.03904z" data-paper-data="{&quot;index&quot;:null}" stroke="#000000"/><path d="M139.22658,186.21952c0,0 0,-9.02407 0,-14.17136c0,-6.16113 0,-20.30368 0,-20.30368c0,0 3.07971,-0.97334 4.64666,-0.97334c1.60394,0 4.8686,0.97334 4.8686,0.97334c0,0 0,5.87672 0,9.92012c0,6.36146 0,24.55491 0,24.55491c0,0 -3.00444,1.13747 -4.51412,1.13747c-1.64966,0 -5.00114,-1.13747 -5.00114,-1.13747z" data-paper-data="{&quot;index&quot;:null}" stroke="#0d39d6"/></g><g data-paper-data="{&quot;index&quot;:null}" stroke-width="2.5"><path d="M95.71004,173.90804c0,-6.80003 0,-22.40911 0,-22.40911h10.04696c0,0 0,6.48613 0,10.94881c0,7.02114 0,27.10119 0,27.10119h-10.04696c0,0 0,-9.95984 0,-15.64089z" data-paper-data="{&quot;index&quot;:null}" stroke="#000000"/><path d="M96.03773,173.62218c0,-6.40768 0,-21.11622 0,-21.11622c0,0 3.07971,-1.01229 4.64666,-1.01229c1.60394,0 4.8686,1.01229 4.8686,1.01229c0,0 0,6.1119 0,10.31712c0,6.61605 0,25.53759 0,25.53759c0,0 -3.00444,1.183 -4.51412,1.183c-1.64966,0 -5.00114,-1.183 -5.00114,-1.183c0,0 0,-9.38519 0,-14.73849z" data-paper-data="{&quot;index&quot;:null}" stroke="#0d39d6"/></g><path d="M105.74412,154.19062c0,0 -29.20834,0 -45.86864,0c-19.9418,0 -65.71713,0 -65.71713,0v-6.38743c0,0 19.02125,0 32.10858,0c20.59025,0 79.47722,0 79.47722,0v6.38743z" data-paper-data="{&quot;index&quot;:null}" stroke="#000000" stroke-width="2.5"/><path d="M105.54651,154.21794c0,0 -27.56416,0 -43.28665,0c-18.81924,0 -62.01786,0 -62.01786,0c0,0 -2.97307,-1.95795 -2.97307,-2.95415c0,-1.01972 2.97307,-3.09525 2.97307,-3.09525c0,0 17.95054,0 30.30116,0c16.21308,0 57.58737,0 70.84716,0c2.63193,0 2.50119,0.4581 2.50119,0.4581c0,0 0.29766,0.19806 0.6405,0.49454c0.46559,0.40263 1.01451,0.98676 1.01451,1.50291c0,1.08422 0,3.59384 0,3.59384z" data-paper-data="{&quot;index&quot;:null}" stroke="#0d39d6" stroke-width="2.5"/><path d="M105.67177,183.55394c0,0 0,2.50962 0,3.59384c0,0.89622 -1.65501,1.99745 -1.65501,1.99745c0,0 0.13074,0.4581 -2.50119,0.4581c-13.25979,0 -54.63408,0 -70.84716,0c-12.35062,0 -30.30116,0 -30.30116,0c0,0 -2.97307,-2.07553 -2.97307,-3.09525c0,-0.9962 2.97307,-2.95415 2.97307,-2.95415c0,0 43.19862,0 62.01786,0c15.72249,0 43.28665,0 43.28665,0z" data-paper-data="{&quot;index&quot;:null}" stroke="#0d39d6" stroke-width="2.5"/><path d="M97.35252,184.81534v-32.81693h6.87162v32.81694z" data-paper-data="{&quot;index&quot;:null}" stroke="none" stroke-width="0"/><path d="M16.51059,270.59284v-3.66089h9.15223v3.66089z" data-paper-data="{&quot;index&quot;:null}" stroke="none" stroke-width="0"/><path d="M142.08529,311.81957v-8.63169h6.78205v8.63169z" data-paper-data="{&quot;index&quot;:null}" stroke="none" stroke-width="2.5"/><path d="M95.76788,236.47566v-6.1655h6.98756v6.1655z" data-paper-data="{&quot;index&quot;:null}" stroke="none" stroke-width="2.5"/><path d="M11.08692,192.90178v-8.03115h6.97442v8.03115z" data-paper-data="{&quot;index&quot;:null}" stroke="none" stroke-width="NaN"/><path d="M11.0066,352.07614v-5.40461h6.98872v5.40461z" stroke="none" stroke-width="0"/><path d="M348.21915,92.26806c0,-5.51462 0,-18.17314 0,-18.17314h16.63656c0,0 0,5.26006 0,8.87917c0,5.69393 0,21.97827 0,21.97827h-16.63656c0,0 0,-8.07714 0,-12.68431z" data-paper-data="{&quot;index&quot;:null}" stroke="#000000" stroke-width="2.5"/><path d="M348.76177,104.0299c0,0 0,-7.24081 0,-11.37094c0,-4.94362 0,-16.29144 0,-16.29144c0,0 5.09963,-0.78099 7.69431,-0.78099c2.65594,0 8.06182,0.78099 8.06182,0.78099c0,0 0,4.71541 0,7.95979c0,5.10437 0,19.70258 0,19.70258c0,0 -4.975,0.9127 -7.47485,0.9127c-2.73163,0 -8.28128,-0.9127 -8.28128,-0.9127z" data-paper-data="{&quot;index&quot;:null}" stroke="#0d39d6" stroke-width="2.5"/><g><path d="M410.04506,104.6479c0,0 -12.11561,0 -19.0263,0c-8.27185,0 -27.25945,0 -27.25945,0v-9.51655c0,0 7.89001,0 13.31862,0c8.54082,0 32.96712,0 32.96712,0c0,0 1.52715,3.00486 1.52715,4.51474c0,1.64987 -1.52715,5.00181 -1.52715,5.00181z" data-paper-data="{&quot;index&quot;:null}" stroke="#0d39d6" stroke-width="2.5"/><path d="M358.78465,103.24196v-6.75709h6.75709v6.75709z" data-paper-data="{&quot;index&quot;:null}" stroke="none" stroke-width="0"/></g><path d="M132.91234,92.26806c0,4.60717 0,12.68431 0,12.68431h-16.63656c0,0 0,-16.28434 0,-21.97827c0,-3.61911 0,-8.87917 0,-8.87917h16.63656c0,0 0,12.65852 0,18.17314z" data-paper-data="{&quot;index&quot;:null}" stroke="#000000" stroke-width="2.5"/><path d="M132.36972,104.02991c0,0 -5.54965,0.91269 -8.28128,0.91269c-2.49985,0 -7.47485,-0.91269 -7.47485,-0.91269c0,0 0,-14.59821 0,-19.70258c0,-3.24438 0,-7.95979 0,-7.95979c0,0 5.40588,-0.781 8.06182,-0.781c2.59468,0 7.69431,0.781 7.69431,0.781c0,0 0,11.34782 0,16.29143c0,4.13012 0,11.37094 0,11.37094z" data-paper-data="{&quot;index&quot;:null}" stroke="#0d39d6" stroke-width="2.5"/><g data-paper-data="{&quot;index&quot;:null}"><path d="M71.08644,104.31456c0,0 -1.52715,-3.35194 -1.52715,-5.00181c0,-1.50988 1.52715,-4.51474 1.52715,-4.51474c0,0 24.4263,0 32.96712,0c5.42861,0 13.31862,0 13.31862,0v9.51655c0,0 -18.9876,0 -27.25945,0c-6.91069,0 -19.0263,0 -19.0263,0z" data-paper-data="{&quot;index&quot;:null}" stroke="#0d39d6" stroke-width="2.5"/><path d="M115.58975,102.90862v-6.75709h6.75709v6.75709z" data-paper-data="{&quot;index&quot;:null}" stroke="none" stroke-width="0"/></g><g stroke-width="2.5"><path d="M454.40765,116.76902v-6.38743c0,0 34.22812,0 46.19621,0c7.60702,0 18.66314,0 18.66314,0v6.38743c0,0 -26.60696,0 -38.19816,0c-9.68382,0 -26.6612,0 -26.6612,0z" data-paper-data="{&quot;index&quot;:null}" stroke="#000000"/><path d="M456.43314,116.56069c0,0 -2.01651,-2.13073 -2.01651,-3.17951c0,-0.95979 2.01651,-2.86989 2.01651,-2.86989c0,0 32.25333,0 43.53093,0c7.16813,0 17.58637,0 17.58637,0c0,0 1.72554,2.07553 1.72554,3.09525c0,0.9962 -1.72554,2.95415 -1.72554,2.95415c0,0 -25.07188,0 -35.99432,0c-9.12511,0 -25.12298,0 -25.12298,0z" data-paper-data="{&quot;index&quot;:null}" stroke="#0d39d6"/></g><g stroke-width="2.5"><path d="M-40.09235,116.76903v-6.38743c0,0 34.22812,0 46.19621,0c7.60702,0 18.66314,0 18.66314,0v6.38743c0,0 -26.60696,0 -38.19816,0c-9.68382,0 -26.6612,0 -26.6612,0z" data-paper-data="{&quot;index&quot;:null}" stroke="#000000"/><path d="M-38.06686,116.5607c0,0 -2.01651,-2.13073 -2.01651,-3.17951c0,-0.95979 2.01651,-2.86989 2.01651,-2.86989c0,0 32.25333,0 43.53093,0c7.16813,0 17.58637,0 17.58637,0c0,0 1.72554,2.07553 1.72554,3.09525c0,0.9962 -1.72554,2.95415 -1.72554,2.95415c0,0 -25.07188,0 -35.99432,0c-9.12511,0 -25.12298,0 -25.12298,0z" data-paper-data="{&quot;index&quot;:null}" stroke="#0d39d6"/></g></g></g></svg>