<svg version="1.1" xmlns="http://www.w3.org/2000/svg" xmlns:xlink="http://www.w3.org/1999/xlink" width="555.62798" height="324.58962" viewBox="0,0,555.62798,324.58962"><g transform="translate(42.84385,-32.72988)"><g data-paper-data="{&quot;isPaintingLayer&quot;:true}" fill="#000000" fill-rule="nonzero" stroke-linecap="butt" stroke-linejoin="miter" stroke-miterlimit="10" stroke-dasharray="" stroke-dashoffset="0" style="mix-blend-mode: normal"><path d="M246.38686,78.04295h-16.63656c0,0 0,-21.62542 0,-29.1869c0,-4.80613 0,-11.79142 0,-11.79142h16.63656c0,0 0,16.81035 0,24.13371c0,6.11826 0,16.84461 0,16.84461z" data-paper-data="{&quot;index&quot;:null}" stroke="#000000" stroke-width="2.5"/><path d="M280.65716,171.50663v-10.04832c0,0 25.92186,0 34.98562,0c5.761,0 14.13409,0 14.13409,0v10.04832c0,0 -20.15016,0 -28.92847,0c-7.33381,0 -20.19123,0 -20.19123,0z" data-paper-data="{&quot;index&quot;:null}" stroke="#000000" stroke-width="2.5"/><path d="M181.32181,124.01382v-10.04832c0,0 61.07857,0 82.43512,0c13.5744,0 33.30356,0 33.30356,0v10.04832c0,0 -47.47897,0 -68.16294,0c-17.28036,0 -47.57574,0 -47.57574,0z" data-paper-data="{&quot;index&quot;:null}" stroke="#000000" stroke-width="2.5"/><path d="M204.79579,273.90035c-7.78518,0 -25.65564,0 -25.65564,0v-6.38743c0,0 7.42579,0 12.53502,0c8.03833,0 31.02751,0 31.02751,0v6.38743c0,0 -11.40278,0 -17.90689,0z" data-paper-data="{&quot;index&quot;:null}" stroke="#000000" stroke-width="2.5"/><path d="M206.43857,239.76902v-6.38743c0,0 34.22812,0 46.19621,0c7.60702,0 18.66314,0 18.66314,0v6.38743c0,0 -26.60696,0 -38.19816,0c-9.68382,0 -26.6612,0 -26.6612,0z" data-paper-data="{&quot;index&quot;:null}" stroke="#000000" stroke-width="2.5"/><path d="M206.42844,268.43947c0,0 0,-7.76936 0,-12.20097c0,-5.30448 0,-17.48064 0,-17.48064c0,0 5.28458,-0.838 7.97336,-0.838c2.75226,0 8.3542,0.838 8.3542,0.838c0,0 0,5.05962 0,8.54082c0,5.47697 0,21.14078 0,21.14078c0,0 -5.15543,0.97932 -7.74594,0.97932c-2.8307,0 -8.58162,-0.97932 -8.58162,-0.97932z" data-paper-data="{&quot;index&quot;:null}" stroke="#0d39d6" stroke-width="2.5"/><path d="M12.5544,40.36731v-6.38743c0,0 240.65549,0 324.80235,0c53.48444,0 131.21924,0 131.21924,0v6.38743c0,0 -187.07173,0 -268.56861,0c-68.08625,0 -187.45298,0 -187.45298,0z" data-paper-data="{&quot;index&quot;:null}" stroke="#000000" stroke-width="2.5"/><path d="M14.29439,40.15898v-6.0494c0,0 239.72842,0 323.55115,0c44.43612,0 105.67628,0 124.7796,0c3.80133,0 4.44328,0.74546 4.44328,0.74546c0,0 1.58411,1.10833 1.58411,1.81103c0,1.11584 -0.09319,3.49291 -0.09319,3.49291c0,0 -186.35115,0 -267.53403,0c-67.824,0 -186.73092,0 -186.73092,0z" data-paper-data="{&quot;index&quot;:null}" stroke="#0d39d6" stroke-width="2.5"/><g stroke-width="2.5"><path d="M344.01702,201.49439h-16.63656c0,0 0,-37.27208 0,-50.30452c0,-8.28352 0,-20.3229 0,-20.3229h16.63656c0,0 0,28.97318 0,41.5952c0,10.54502 0,29.03222 0,29.03222z" data-paper-data="{&quot;index&quot;:null}" stroke="#000000"/><path d="M343.4744,199.28877c0,0 -5.54965,2.19585 -8.28128,2.19585c-2.49985,0 -7.47485,-2.19585 -7.47485,-2.19585c0,0 0,-35.12167 0,-47.40221c0,-7.80561 0,-19.15037 0,-19.15037c0,0 5.40588,-1.87899 8.06182,-1.87899c2.59468,0 7.69431,1.87899 7.69431,1.87899c0,0 0,27.30158 0,39.19537c0,9.93663 0,27.3572 0,27.3572z" data-paper-data="{&quot;index&quot;:null}" stroke="#0d39d6"/></g><g stroke-width="2.5"><path d="M247.24429,238.22486h-16.63656c0,0 0,-64.13457 0,-86.55968c0,-14.25357 0,-34.96988 0,-34.96988h16.63656c0,0 0,49.85455 0,71.57344c0,18.14498 0,49.95613 0,49.95613z" data-paper-data="{&quot;index&quot;:null}" stroke="#000000"/><path d="M246.70167,234.4296c0,0 -5.54965,3.77843 -8.28128,3.77843c-2.49985,0 -7.47485,-3.77843 -7.47485,-3.77843c0,0 0,-60.43434 0,-81.5656c0,-13.43122 0,-32.95229 0,-32.95229c0,0 5.40588,-3.2332 8.06182,-3.2332c2.59468,0 7.69431,3.2332 7.69431,3.2332c0,0 0,46.97822 0,67.44401c0,17.09811 0,47.07392 0,47.07392z" data-paper-data="{&quot;index&quot;:null}" stroke="#0d39d6"/></g><path d="M184.9362,123.68609c0,0 -3.59836,-3.35194 -3.59836,-5.00182c0,-1.50988 3.59836,-4.51474 3.59836,-4.51474c0,0 57.55466,0 77.67904,0c12.79122,0 31.38211,0 31.38211,0c0,0 3.07915,3.26511 3.07915,4.86927c0,1.56716 -3.07915,4.64729 -3.07915,4.64729c0,0 -44.73968,0 -64.23029,0c-16.28337,0 -44.83086,0 -44.83086,0z" data-paper-data="{&quot;index&quot;:null}" stroke="#0d39d6" stroke-width="2.5"/><path d="M245.84425,76.85104c0,0 -5.54965,1.18625 -8.28128,1.18625c-2.49985,0 -7.47485,-1.18625 -7.47485,-1.18625c0,0 0,-18.97349 0,-25.60769c0,-4.21675 0,-10.34543 0,-10.34543c0,0 5.40588,-1.01507 8.06182,-1.01507c2.59468,0 7.69431,1.01507 7.69431,1.01507c0,0 0,14.7489 0,21.17419c0,5.36799 0,14.77895 0,14.77895z" data-paper-data="{&quot;index&quot;:null}" stroke="#0d39d6" stroke-width="2.5"/><path d="M336.77279,152.02129v-1.48885h0.45811v1.48885z" stroke="none" stroke-width="0"/><path d="M226.88583,38.70532v-3.31497h23.7282v3.31497z" stroke="none" stroke-width="2.5"/><path d="M231.24763,44.98631v-9.07255h13.08541v9.07255z" stroke="none" stroke-width="0"/><g data-paper-data="{&quot;index&quot;:null}" stroke-width="2.5"><path d="M108.01372,121.52644c0,0 -12.85742,0 -20.19123,0c-8.77831,0 -28.92847,0 -28.92847,0v-15.16473c0,0 8.37309,0 14.13409,0c9.06376,0 34.98562,0 34.98562,0v15.16473z" data-paper-data="{&quot;index&quot;:null}" stroke="#000000"/><path d="M106.47979,121.03184c0,0 -12.11561,0 -19.0263,0c-8.27185,0 -27.25945,0 -27.25945,0c0,0 -1.3068,-4.64847 -1.3068,-7.01359c0,-2.42097 1.3068,-7.3486 1.3068,-7.3486c0,0 7.89001,0 13.31862,0c8.54082,0 32.96712,0 32.96712,0c0,0 1.52715,4.53487 1.52715,6.81355c0,2.48997 -1.52715,7.54864 -1.52715,7.54864z" data-paper-data="{&quot;index&quot;:null}" stroke="#0d39d6"/></g><g data-paper-data="{&quot;index&quot;:null}" stroke-width="2.5"><path d="M137.07809,172.84211c0,-12.62202 0,-41.5952 0,-41.5952h16.63656c0,0 0,12.03938 0,20.3229c0,13.03244 0,50.30452 0,50.30452h-16.63656c0,0 0,-18.4872 0,-29.03222z" data-paper-data="{&quot;index&quot;:null}" stroke="#000000"/><path d="M137.62071,199.6687c0,0 0,-17.42057 0,-27.3572c0,-11.89379 0,-39.19537 0,-39.19537c0,0 5.09963,-1.87899 7.69431,-1.87899c2.65594,0 8.06182,1.87899 8.06182,1.87899c0,0 0,11.34476 0,19.15037c0,12.28054 0,47.40221 0,47.40221c0,0 -4.975,2.19585 -7.47485,2.19585c-2.73163,0 -8.28128,-2.19585 -8.28128,-2.19585z" data-paper-data="{&quot;index&quot;:null}" stroke="#0d39d6"/></g><g data-paper-data="{&quot;index&quot;:null}" stroke-width="2.5"><path d="M200.43794,171.88656c0,0 -12.85742,0 -20.19123,0c-8.77831,0 -28.92847,0 -28.92847,0v-10.04832c0,0 8.37309,0 14.13409,0c9.06376,0 34.98562,0 34.98562,0v10.04832z" data-paper-data="{&quot;index&quot;:null}" stroke="#000000"/><path d="M198.904,171.55883c0,0 -12.11561,0 -19.0263,0c-8.27185,0 -27.25945,0 -27.25945,0c0,0 -1.3068,-3.08013 -1.3068,-4.64729c0,-1.60416 1.3068,-4.86926 1.3068,-4.86926c0,0 7.89001,0 13.31862,0c8.54082,0 32.96712,0 32.96712,0c0,0 1.52715,3.00486 1.52715,4.51474c0,1.64987 -1.52715,5.00181 -1.52715,5.00181z" data-paper-data="{&quot;index&quot;:null}" stroke="#0d39d6"/></g><path d="M143.86421,152.40123v-1.48885h0.45811v1.48885z" data-paper-data="{&quot;index&quot;:null}" stroke="none" stroke-width="0"/><path d="M147.64359,170.15289v-6.75709h6.75709v6.75709z" data-paper-data="{&quot;index&quot;:null}" stroke="none" stroke-width="0"/><path d="M20.41794,37.60387v-1.01351h5.70634v1.01351z" stroke="#000000" stroke-width="2.5"/><g data-paper-data="{&quot;index&quot;:null}" stroke-width="2.5"><path d="M179.21666,293.38258c0,-6.87324 0,-22.65037 0,-22.65037h10.04696c0,0 0,6.55597 0,11.0667c0,7.09673 0,27.39297 0,27.39297h-10.04696c0,0 0,-10.06707 0,-15.80929z" data-paper-data="{&quot;index&quot;:null}" stroke="#000000"/><path d="M179.54435,307.99082c0,0 0,-9.48626 0,-14.89717c0,-6.47669 0,-21.34356 0,-21.34356c0,0 3.07971,-1.02319 4.64666,-1.02319c1.60394,0 4.8686,1.02319 4.8686,1.02319c0,0 0,6.17771 0,10.42819c0,6.68727 0,25.81252 0,25.81252c0,0 -3.00444,1.19573 -4.51412,1.19573c-1.64966,0 -5.00114,-1.19573 -5.00114,-1.19573z" data-paper-data="{&quot;index&quot;:null}" stroke="#0d39d6"/></g><g stroke-width="2.5"><path d="M296.67593,307.81429h-10.04696c0,0 0,-20.22799 0,-27.30086c0,-4.49556 0,-11.02948 0,-11.02948h10.04696c0,0 0,15.72408 0,22.57421c0,5.72291 0,15.75613 0,15.75613z" data-paper-data="{&quot;index&quot;:null}" stroke="#000000"/><path d="M296.34825,306.61727c0,0 -3.35148,1.19171 -5.00114,1.19171c-1.50968,0 -4.51412,-1.19171 -4.51412,-1.19171c0,0 0,-19.06095 0,-25.72573c0,-4.2362 0,-10.39313 0,-10.39313c0,0 3.26466,-1.01975 4.8686,-1.01975c1.56695,0 4.64666,1.01975 4.64666,1.01975c0,0 0,14.81689 0,21.27179c0,5.39272 0,14.84708 0,14.84708z" data-paper-data="{&quot;index&quot;:null}" stroke="#0d39d6"/></g><g stroke-width="2.5"><path d="M180.0983,309.261v-6.38743c0,0 61.30048,0 82.73462,0c13.62372,0 33.42456,0 33.42456,0v6.38743c0,0 -47.65146,0 -68.41059,0c-17.34314,0 -47.74858,0 -47.74858,0z" data-paper-data="{&quot;index&quot;:null}" stroke="#000000"/><path d="M183.72582,309.05267c0,0 -4.25814,-2.13073 -4.25814,-3.17951c0,-0.95979 0.37795,-3.64593 0.37795,-3.64593c0,0 61.64394,0.77604 81.84144,0.77604c7.8646,0 17.91375,0 24.51926,0c4.17692,0 10.29185,-0.34895 10.29185,-0.34895c0,0 -0.22465,2.42448 -0.22465,3.4442c0,0.9962 -3.09033,2.95415 -3.09033,2.95415c0,0 -44.90223,0 -64.46364,0c-16.34253,0 -44.99373,0 -44.99373,0z" data-paper-data="{&quot;index&quot;:null}" stroke="#0d39d6"/></g><path d="M252.39125,272.65211v-6.38743c0,0 23.41066,0 31.59636,0c5.2029,0 12.76484,0 12.76484,0v6.38743c0,0 -18.1981,0 -26.12601,0c-6.62335,0 -18.23519,0 -18.23519,0z" data-paper-data="{&quot;index&quot;:null}" stroke="#000000" stroke-width="2.5"/><path d="M254.49592,272.44378c0,0 -1.37921,-2.13073 -1.37921,-3.17951c0,-0.95979 1.37921,-2.86989 1.37921,-2.86989c0,0 22.05998,0 29.77342,0c2.32877,0 5.15907,0 7.48904,0c2.57528,0 4.49822,1.20317 4.49822,2.22289c0,0.9962 0.04111,3.82651 0.04111,3.82651c0,0 -17.14816,0 -24.61867,0c-6.24122,0 -17.18311,0 -17.18311,0z" data-paper-data="{&quot;index&quot;:null}" stroke="#0d39d6" stroke-width="2.5"/><path d="M289.30566,304.82669v-34.01299h4.52136v34.01299z" stroke="#000000" stroke-width="2.5"/><path d="M221.39666,273.69202c0,0 -10.94189,0 -17.18311,0c-7.47051,0 -24.61867,0 -24.61867,0c0,0 0.04111,-2.83031 0.04111,-3.82651c0,-1.01972 1.92294,-2.22289 4.49822,-2.22289c2.32997,0 5.16028,0 7.48905,0c7.71344,0 29.77342,0 29.77342,0l1.29085,-0.06597c0,0 0.05912,2.49283 0.05912,2.96509c0,1.04878 -1.34997,3.15027 -1.34997,3.15027z" data-paper-data="{&quot;index&quot;:null}" stroke="#0d39d6" stroke-width="2.5"/><path d="M182.06557,304.73501v-32.67308h4.52136v32.67308z" data-paper-data="{&quot;index&quot;:null}" stroke="#000000" stroke-width="2.5"/><g stroke-width="2.5"><path d="M-41.59385,316.27353v-6.38743c0,0 34.22812,0 46.19621,0c7.60702,0 18.66314,0 18.66314,0v6.38743c0,0 -26.60696,0 -38.19816,0c-9.68382,0 -26.6612,0 -26.6612,0z" data-paper-data="{&quot;index&quot;:null}" stroke="#000000"/><path d="M-39.56836,316.0652c0,0 -2.01651,-2.13073 -2.01651,-3.17951c0,-0.95979 2.01651,-2.86989 2.01651,-2.86989c0,0 32.25333,0 43.53093,0c7.16813,0 17.58637,0 17.58637,0c0,0 1.72554,2.07553 1.72554,3.09525c0,0.9962 -1.72554,2.95415 -1.72554,2.95415c0,0 -25.07188,0 -35.99432,0c-9.12511,0 -25.12298,0 -25.12298,0z" data-paper-data="{&quot;index&quot;:null}" stroke="#0d39d6"/></g><path d="M-2.47613,356.0695v-6.04939c0,0 256.58636,0 346.30356,0c57.02496,0 139.90568,0 139.90568,0v6.04939c0,0 -199.45548,0 -286.34724,0c-72.59342,0 -199.86198,0 -199.86198,0z" stroke="#0d39d6" stroke-width="2.5"/><path d="M208.46406,239.56069l-2.00458,-0.04943c0,0 -0.01193,-2.62771 -0.01193,-3.13008c0,-0.95979 2.01651,-2.86989 2.01651,-2.86989c0,0 32.25333,0 43.53093,0c7.16813,0 17.58637,0 17.58637,0c0,0 1.72554,2.07553 1.72554,3.09525c0,0.9962 -1.72554,2.95415 -1.72554,2.95415c0,0 -25.07188,0 -35.99432,0c-9.12511,0 -25.12298,0 -25.12298,0z" data-paper-data="{&quot;index&quot;:null}" stroke="#0d39d6" stroke-width="2.5"/><path d="M207.85653,270.30686v-33.78785h13.65885v33.78785z" stroke="none" stroke-width="0"/><g data-paper-data="{&quot;index&quot;:null}" stroke-width="2.5"><path d="M128.01372,297.15144c0,0 -14.9839,0 -23.53065,0c-10.23015,0 -33.71293,0 -33.71293,0v-10.40599c0,0 9.75791,0 16.47172,0c10.56281,0 40.77187,0 40.77187,0v10.40599z" data-paper-data="{&quot;index&quot;:null}" stroke="#000000"/><path d="M126.2261,296.81204c0,0 -14.1194,0 -22.17305,0c-9.63993,0 -31.76788,0 -31.76788,0c0,0 -1.52293,-3.18977 -1.52293,-4.81271c0,-1.66127 1.52293,-5.04258 1.52293,-5.04258c0,0 9.19494,0 15.52138,0c9.95338,0 38.41953,0 38.41953,0c0,0 1.77973,3.11181 1.77973,4.67544c0,1.7086 -1.77973,5.17985 -1.77973,5.17985z" data-paper-data="{&quot;index&quot;:null}" stroke="#0d39d6"/></g><g data-paper-data="{&quot;index&quot;:null}" stroke-width="2.5"><path d="M110.51372,250.27644c0,0 -20.70903,0 -32.52138,0c-14.13895,0 -46.59418,0 -46.59418,0v-9.15599c0,0 13.48627,0 22.76533,0c14.59871,0 56.35024,0 56.35024,0v9.15599z" data-paper-data="{&quot;index&quot;:null}" stroke="#000000"/><path d="M108.04307,249.97781c0,0 -19.51423,0 -30.64507,0c-13.32321,0 -43.90594,0 -43.90594,0c0,0 -2.10482,-2.8066 -2.10482,-4.23459c0,-1.46171 2.10482,-4.43685 2.10482,-4.43685c0,0 12.70819,0 21.45188,0c13.75643,0 53.0991,0 53.0991,0c0,0 2.45973,2.73801 2.45973,4.11381c0,1.50336 -2.45973,4.55763 -2.45973,4.55763z" data-paper-data="{&quot;index&quot;:null}" stroke="#0d39d6"/></g><g data-paper-data="{&quot;index&quot;:null}" stroke-width="2.5"><path d="M73.63872,207.15144c0,0 -20.70904,0 -32.52138,0c-14.13895,0 -46.59418,0 -46.59418,0v-9.15599c0,0 13.48627,0 22.76534,0c14.59872,0 56.35024,0 56.35024,0v9.15599z" data-paper-data="{&quot;index&quot;:null}" stroke="#000000"/><path d="M71.16807,206.85281c0,0 -19.51423,0 -30.64506,0c-13.32321,0 -43.90594,0 -43.90594,0c0,0 -2.10482,-2.8066 -2.10482,-4.23459c0,-1.46171 2.10482,-4.43685 2.10482,-4.43685c0,0 12.70819,0 21.45189,0c13.75643,0 53.0991,0 53.0991,0c0,0 2.45973,2.73801 2.45973,4.11381c0,1.50336 -2.45973,4.55763 -2.45973,4.55763z" data-paper-data="{&quot;index&quot;:null}" stroke="#0d39d6"/></g><g data-paper-data="{&quot;index&quot;:null}" stroke-width="2.5"><path d="M46.76371,161.52644c0,0 -20.70903,0 -32.52137,0c-14.13895,0 -46.59418,0 -46.59418,0v-9.15599c0,0 13.48627,0 22.76534,0c14.59872,0 56.35023,0 56.35023,0v9.15599z" data-paper-data="{&quot;index&quot;:null}" stroke="#000000"/><path d="M44.29306,161.22781c0,0 -19.51423,0 -30.64506,0c-13.32321,0 -43.90594,0 -43.90594,0c0,0 -2.10482,-2.8066 -2.10482,-4.23459c0,-1.46171 2.10482,-4.43685 2.10482,-4.43685c0,0 12.70819,0 21.45188,0c13.75643,0 53.0991,0 53.0991,0c0,0 2.45973,2.73801 2.45973,4.11381c0,1.50336 -2.45973,4.55763 -2.45973,4.55763z" data-paper-data="{&quot;index&quot;:null}" stroke="#0d39d6"/></g><g data-paper-data="{&quot;index&quot;:null}" stroke-width="2.5"><path d="M12.48261,86.45571c0,-15.86972 0,-52.29784 0,-52.29784h10.04696c0,0 0,15.13716 0,25.55208c0,16.38576 0,63.24813 0,63.24813h-10.04696c0,0 0,-23.24405 0,-36.50237z" data-paper-data="{&quot;index&quot;:null}" stroke="#000000"/><path d="M12.8103,115.71111c0,-7.06671 0,-20.93137 0,-29.92253c0,-14.95412 0,-49.28054 0,-49.28054c0,0 3.07971,-2.36247 4.64666,-2.36247c1.60394,0 4.8686,-0.06119 4.8686,-0.06119c0,0 0,16.68748 0,26.50151c0,12.50987 0,43.87136 0,55.32522c0,2.68313 -4.91526,5.47381 -4.91526,5.47381c0,0 -4.6,-2.92119 -4.6,-5.67381z" data-paper-data="{&quot;index&quot;:null}" stroke="#0d39d6"/></g><path d="M232.11999,235.95225v-117.40072h13.25987v117.40072z" stroke="none" stroke-width="0"/><path d="M17.99388,39.07493v-3.7037h8.70371v3.7037z" stroke="none" stroke-width="0"/><g data-paper-data="{&quot;index&quot;:null}" stroke-width="2.5"><path d="M371.15764,121.52644v-14.8687c0,0 25.92186,0 34.98562,0c5.761,0 14.13409,0 14.13409,0v14.8687c0,0 -20.15016,0 -28.92847,0c-7.33381,0 -20.19123,0 -20.19123,0z" data-paper-data="{&quot;index&quot;:null}" stroke="#000000"/><path d="M372.69159,121.04149c0,0 -1.52715,-4.95992 -1.52715,-7.40128c0,-2.2342 1.52715,-6.68055 1.52715,-6.68055c0,0 24.4263,0 32.96712,0c5.42861,0 13.31862,0 13.31862,0c0,0 1.3068,4.83143 1.3068,7.20514c0,2.31896 -1.3068,6.87668 -1.3068,6.87668c0,0 -18.9876,0 -27.25945,0c-6.91069,0 -19.0263,0 -19.0263,0z" data-paper-data="{&quot;index&quot;:null}" stroke="#0d39d6"/></g><g data-paper-data="{&quot;index&quot;:null}" stroke-width="2.5"><path d="M368.65764,250.27644v-9.15599c0,0 41.75153,0 56.35024,0c9.27906,0 22.76533,0 22.76533,0v9.15599c0,0 -32.45523,0 -46.59418,0c-11.81235,0 -32.52138,0 -32.52138,0z" data-paper-data="{&quot;index&quot;:null}" stroke="#000000"/><path d="M371.12833,249.97781c0,0 -2.45973,-3.05427 -2.45973,-4.55763c0,-1.3758 2.45973,-4.11381 2.45973,-4.11381c0,0 39.34267,0 53.0991,0c8.74369,0 21.45188,0 21.45188,0c0,0 2.10482,2.97514 2.10482,4.43685c0,1.42799 -2.10482,4.23459 -2.10482,4.23459c0,0 -30.58273,0 -43.90594,0c-11.13084,0 -30.64507,0 -30.64507,0z" data-paper-data="{&quot;index&quot;:null}" stroke="#0d39d6"/></g><g data-paper-data="{&quot;index&quot;:null}" stroke-width="2.5"><path d="M405.53263,207.15144v-9.15599c0,0 41.75152,0 56.35024,0c9.27907,0 22.76534,0 22.76534,0v9.15599c0,0 -32.45523,0 -46.59418,0c-11.81234,0 -32.52138,0 -32.52138,0z" data-paper-data="{&quot;index&quot;:null}" stroke="#000000"/><path d="M408.00331,206.85281c0,0 -2.45973,-3.05427 -2.45973,-4.55763c0,-1.3758 2.45973,-4.11381 2.45973,-4.11381c0,0 39.34267,0 53.0991,0c8.7437,0 21.45189,0 21.45189,0c0,0 2.10482,2.97514 2.10482,4.43685c0,1.42799 -2.10482,4.23459 -2.10482,4.23459c0,0 -30.58273,0 -43.90594,0c-11.13083,0 -30.64506,0 -30.64506,0z" data-paper-data="{&quot;index&quot;:null}" stroke="#0d39d6"/></g><g data-paper-data="{&quot;index&quot;:null}" stroke-width="2.5"><path d="M432.40764,161.52644v-9.15599c0,0 41.75151,0 56.35023,0c9.27907,0 22.76534,0 22.76534,0v9.15599c0,0 -32.45523,0 -46.59418,0c-11.81234,0 -32.52137,0 -32.52137,0z" data-paper-data="{&quot;index&quot;:null}" stroke="#000000"/><path d="M434.87833,161.22781c0,0 -2.45973,-3.05427 -2.45973,-4.55763c0,-1.3758 2.45973,-4.11381 2.45973,-4.11381c0,0 39.34267,0 53.0991,0c8.74369,0 21.45188,0 21.45188,0c0,0 2.10482,2.97514 2.10482,4.43685c0,1.42799 -2.10482,4.23459 -2.10482,4.23459c0,0 -30.58273,0 -43.90594,0c-11.13083,0 -30.64506,0 -30.64506,0z" data-paper-data="{&quot;index&quot;:null}" stroke="#0d39d6"/></g><g data-paper-data="{&quot;index&quot;:null}" stroke-width="2.5"><path d="M468.88876,122.95808h-10.04696c0,0 0,-46.86237 0,-63.24813c0,-10.41492 0,-25.55208 0,-25.55208h10.04696c0,0 0,36.42812 0,52.29784c0,13.25832 0,36.50237 0,36.50237z" data-paper-data="{&quot;index&quot;:null}" stroke="#000000"/><path d="M463.96107,121.38492c0,0 -4.91526,-2.79068 -4.91526,-5.47381c0,-11.45386 0,-42.81535 0,-55.32522c0,-9.81403 0,-26.50151 0,-26.50151c0,0 3.26466,0.06119 4.8686,0.06119c1.56695,0 4.64666,2.36247 4.64666,2.36247c0,0 0,34.32642 0,49.28054c0,8.99116 0,22.85582 0,29.92253c0,2.75262 -4.6,5.67381 -4.6,5.67381z" data-paper-data="{&quot;index&quot;:null}" stroke="#0d39d6"/></g><path d="M453.89181,38.8v-3.6h10.2v3.6z" stroke="none" stroke-width="2.5"/><path d="M282.19112,171.17889c0,0 -1.52715,-3.35194 -1.52715,-5.00181c0,-1.50988 1.52715,-4.51474 1.52715,-4.51474c0,0 24.4263,0 32.96712,0c5.42861,0 13.31862,0 13.31862,0c0,0 1.3068,3.2651 1.3068,4.86926c0,1.56716 -1.3068,4.64729 -1.3068,4.64729c0,0 -18.9876,0 -27.25945,0c-6.91069,0 -19.0263,0 -19.0263,0z" data-paper-data="{&quot;index&quot;:null}" stroke="#0d39d6" stroke-width="2.5"/><path d="M324.75302,169.77295v-6.75709h8.69849v6.75709z" stroke="none" stroke-width="0"/></g></g></svg>