<svg version="1.1" xmlns="http://www.w3.org/2000/svg" xmlns:xlink="http://www.w3.org/1999/xlink" width="488.70924" height="247.67375" viewBox="0,0,488.70924,247.67375"><g transform="translate(3.14862,-109.64575)"><g data-paper-data="{&quot;isPaintingLayer&quot;:true}" fill="#000000" fill-rule="nonzero" stroke-linecap="butt" stroke-linejoin="miter" stroke-miterlimit="10" stroke-dasharray="" stroke-dashoffset="0" style="mix-blend-mode: normal"><g stroke-width="2.5"><path d="M244.12161,234.13855h-6.38743c0,0 0,-65.02971 0,-87.7678c0,-14.45251 0,-35.45795 0,-35.45795h6.38743c0,0 0,50.55036 0,72.57237c0,18.39821 0,50.65338 0,50.65338z" data-paper-data="{&quot;index&quot;:null}" stroke="#000000"/><path d="M243.91328,230.29033c0,0 -2.13073,3.83116 -3.17951,3.83116c-0.95979,0 -2.86989,-3.83116 -2.86989,-3.83116c0,0 0,-61.27782 0,-82.70404c0,-13.61867 0,-33.41221 0,-33.41221c0,0 2.07553,-3.27833 3.09525,-3.27833c0.9962,0 2.95415,3.27833 2.95415,3.27833c0,0 0,47.63387 0,68.38532c0,17.33673 0,47.73093 0,47.73093z" data-paper-data="{&quot;index&quot;:null}" stroke="#0d39d6"/></g><path d="M-1.89862,356.06951v-6.04939c0,0 256.58636,0 346.30356,0c57.02496,0 139.90568,0 139.90568,0v6.04939c0,0 -199.45548,0 -286.34724,0c-72.59342,0 -199.86198,0 -199.86198,0z" stroke="#0d39d6" stroke-width="2.5"/><g stroke-width="2.5"><path d="M243.9453,353.2148h-6.38743c0,0 0,-65.02971 0,-87.7678c0,-14.45251 0,-35.45795 0,-35.45795h6.38743c0,0 0,50.55036 0,72.57237c0,18.39821 0,50.65338 0,50.65338z" data-paper-data="{&quot;index&quot;:null}" stroke="#000000"/><path d="M243.73697,349.36658c0,0 -2.13073,3.83116 -3.17951,3.83116c-0.95979,0 -2.86989,-3.83116 -2.86989,-3.83116c0,0 0,-61.27782 0,-82.70404c0,-13.61867 0,-33.41221 0,-33.41221c0,0 2.07553,-3.27833 3.09525,-3.27833c0.9962,0 2.95415,3.27833 2.95415,3.27833c0,0 0,47.63387 0,68.38532c0,17.33673 0,47.73093 0,47.73093z" data-paper-data="{&quot;index&quot;:null}" stroke="#0d39d6"/></g><g stroke-width="2.5"><path d="M164.31,238.58208v-6.38743c0,0 80.44261,0 108.56993,0c17.87795,0 43.86195,0 43.86195,0v6.38743c0,0 -62.53146,0 -89.77298,0c-22.75883,0 -62.6589,0 -62.6589,0z" data-paper-data="{&quot;index&quot;:null}" stroke="#000000"/><path d="M169.0703,238.37375c0,0 -4.7392,-2.13073 -4.7392,-3.17951c0,-0.95979 4.7392,-2.86989 4.7392,-2.86989c0,0 75.80147,0 102.30599,0c16.84647,0 41.33135,0 41.33135,0c0,0 4.05534,2.07553 4.05534,3.09525c0,0.9962 -4.05534,2.95415 -4.05534,2.95415c0,0 -58.92373,0 -84.59355,0c-21.44576,0 -59.04379,0 -59.04379,0z" data-paper-data="{&quot;index&quot;:null}" stroke="#0d39d6"/></g><g data-paper-data="{&quot;index&quot;:null}" stroke-width="2.5"><path d="M74.48525,273.09179c15.31441,0 50.46783,0 50.46783,0v6.38743c0,0 -14.60747,0 -24.65795,0c-15.81238,0 -61.03495,0 -61.03495,0v-6.38743c0,0 22.43069,0 35.22506,0z" data-paper-data="{&quot;index&quot;:null}" stroke="#000000"/><path d="M75.12905,273.30012c14.43085,0 47.5561,0 47.5561,0c0,0 2.2798,1.95795 2.2798,2.95415c0,1.01972 -2.2798,3.09525 -2.2798,3.09525c0,0 -13.7647,0 -23.23531,0c-14.90009,0 -57.51354,0 -57.51354,0c0,0 -2.66424,-1.9101 -2.66424,-2.86989c0,-1.04878 2.66424,-3.17951 2.66424,-3.17951c0,0 21.13655,0 33.19275,0z" data-paper-data="{&quot;index&quot;:null}" stroke="#0d39d6"/></g><path d="M236.34482,354.6393v-3.23007h10.55157v3.23007z" stroke="none" stroke-width="2.5"/><path d="M238.92887,352.62947v-4.16321h3.58897v4.16321z" stroke="none" stroke-width="0"/><path d="M239.23522,239.01439v-13.03996h3.01168v13.03996z" stroke="none" stroke-width="0"/><g stroke-width="2.5"><path d="M192.89252,195.07712v-6.38743c0,0 50.04102,0 67.53821,0c11.12135,0 27.28525,0 27.28525,0v6.38743c0,0 -38.89901,0 -55.84517,0c-14.15761,0 -38.97829,0 -38.97829,0z" data-paper-data="{&quot;index&quot;:null}" stroke="#000000"/><path d="M195.85377,194.86879c0,0 -2.94812,-2.13073 -2.94812,-3.17951c0,-0.95979 2.94812,-2.86989 2.94812,-2.86989c0,0 47.1539,0 63.64159,0c10.4797,0 25.71103,0 25.71103,0c0,0 2.52271,2.07553 2.52271,3.09525c0,0.9962 -2.52271,2.95415 -2.52271,2.95415c0,0 -36.65474,0 -52.62319,0c-13.34079,0 -36.72943,0 -36.72943,0z" data-paper-data="{&quot;index&quot;:null}" stroke="#0d39d6"/></g><g stroke-width="2.5"><path d="M212.09563,152.10811v-6.38743c0,0 31.51726,0 42.53748,0c7.00454,0 17.18503,0 17.18503,0v6.38743c0,0 -24.4997,0 -35.17288,0c-8.91687,0 -24.54964,0 -24.54964,0z" data-paper-data="{&quot;index&quot;:null}" stroke="#000000"/><path d="M213.96071,151.89978c0,0 -1.85681,-2.13073 -1.85681,-3.17951c0,-0.95979 1.85681,-2.86989 1.85681,-2.86989c0,0 29.69887,0 40.08329,0c6.60042,0 16.19354,0 16.19354,0c0,0 1.58887,2.07553 1.58887,3.09525c0,0.9962 -1.58887,2.95415 -1.58887,2.95415c0,0 -23.0862,0 -33.14358,0c-8.40241,0 -23.13324,0 -23.13324,0z" data-paper-data="{&quot;index&quot;:null}" stroke="#0d39d6"/></g><g data-paper-data="{&quot;index&quot;:null}" stroke-width="2.5"><path d="M105.47313,312.74229c15.31441,0 50.46784,0 50.46784,0v6.38743c0,0 -14.60748,0 -24.65796,0c-15.81239,0 -61.03495,0 -61.03495,0v-6.38743c0,0 22.4307,0 35.22507,0z" data-paper-data="{&quot;index&quot;:null}" stroke="#000000"/><path d="M106.11693,312.95062c14.43085,0 47.5561,0 47.5561,0c0,0 2.27979,1.95795 2.27979,2.95415c0,1.01972 -2.27979,3.09525 -2.27979,3.09525c0,0 -13.7647,0 -23.23532,0c-14.90009,0 -57.51354,0 -57.51354,0c0,0 -2.66424,-1.9101 -2.66424,-2.86989c0,-1.04878 2.66424,-3.17951 2.66424,-3.17951c0,0 21.13655,0 33.19276,0z" data-paper-data="{&quot;index&quot;:null}" stroke="#0d39d6"/></g><g data-paper-data="{&quot;index&quot;:null}" stroke-width="2.5"><path d="M40.59462,231.11603c15.31441,0 50.46784,0 50.46784,0v6.38743c0,0 -14.60748,0 -24.65796,0c-15.81239,0 -61.03494,0 -61.03494,0v-6.38743c0,0 22.4307,0 35.22507,0z" data-paper-data="{&quot;index&quot;:null}" stroke="#000000"/><path d="M41.23841,231.32436c14.43085,0 47.5561,0 47.5561,0c0,0 2.27979,1.95795 2.27979,2.95415c0,1.01972 -2.27979,3.09525 -2.27979,3.09525c0,0 -13.76471,0 -23.23532,0c-14.90009,0 -57.51354,0 -57.51354,0c0,0 -2.66424,-1.9101 -2.66424,-2.86989c0,-1.04878 2.66424,-3.17951 2.66424,-3.17951c0,0 21.13655,0 33.19276,0z" data-paper-data="{&quot;index&quot;:null}" stroke="#0d39d6"/></g><g data-paper-data="{&quot;index&quot;:null}" stroke-width="2.5"><path d="M440.64925,274.62673v6.38743c0,0 -45.22256,0 -61.03495,0c-10.05048,0 -24.65796,0 -24.65796,0v-6.38743c0,0 35.15343,0 50.46784,0c12.79437,0 35.22507,0 35.22507,0z" data-paper-data="{&quot;index&quot;:null}" stroke="#000000"/><path d="M437.97314,274.83506c0,0 2.66424,2.13073 2.66424,3.17951c0,0.95979 -2.66424,2.86989 -2.66424,2.86989c0,0 -42.61345,0 -57.51354,0c-9.47061,0 -23.23532,0 -23.23532,0c0,0 -2.2798,-2.07553 -2.2798,-3.09525c0,-0.9962 2.2798,-2.95415 2.2798,-2.95415c0,0 33.12525,0 47.5561,0c12.0562,0 33.19276,0 33.19276,0z" data-paper-data="{&quot;index&quot;:null}" stroke="#0d39d6"/></g><g data-paper-data="{&quot;index&quot;:null}" stroke-width="2.5"><path d="M409.66137,314.27724v6.38743c0,0 -45.22256,0 -61.03494,0c-10.05048,0 -24.65796,0 -24.65796,0v-6.38743c0,0 35.15343,0 50.46783,0c12.79437,0 35.22507,0 35.22507,0z" data-paper-data="{&quot;index&quot;:null}" stroke="#000000"/><path d="M406.98526,314.48557c0,0 2.66424,2.13073 2.66424,3.17951c0,0.95979 -2.66424,2.86989 -2.66424,2.86989c0,0 -42.61345,0 -57.51354,0c-9.47061,0 -23.23532,0 -23.23532,0c0,0 -2.27979,-2.07553 -2.27979,-3.09525c0,-0.9962 2.27979,-2.95415 2.27979,-2.95415c0,0 33.12526,0 47.5561,0c12.0562,0 33.19275,0 33.19275,0z" data-paper-data="{&quot;index&quot;:null}" stroke="#0d39d6"/></g><g data-paper-data="{&quot;index&quot;:null}" stroke-width="2.5"><path d="M474.53989,232.65097v6.38743c0,0 -45.22256,0 -61.03494,0c-10.05048,0 -24.65796,0 -24.65796,0v-6.38743c0,0 35.15343,0 50.46784,0c12.79437,0 35.22506,0 35.22506,0z" data-paper-data="{&quot;index&quot;:null}" stroke="#000000"/><path d="M471.86378,232.8593c0,0 2.66424,2.13073 2.66424,3.17951c0,0.95979 -2.66424,2.86989 -2.66424,2.86989c0,0 -42.61345,0 -57.51354,0c-9.47061,0 -23.23532,0 -23.23532,0c0,0 -2.27979,-2.07553 -2.27979,-3.09525c0,-0.9962 2.27979,-2.95415 2.27979,-2.95415c0,0 33.12525,0 47.5561,0c12.0562,0 33.19275,0 33.19275,0z" data-paper-data="{&quot;index&quot;:null}" stroke="#0d39d6"/></g></g></g></svg>