<svg version="1.1" xmlns="http://www.w3.org/2000/svg" xmlns:xlink="http://www.w3.org/1999/xlink" width="40.33321" height="44.62331" viewBox="0,0,40.33321,44.62331"><g transform="translate(-219.83339,-157.86805)"><g data-paper-data="{&quot;isPaintingLayer&quot;:true}" fill-rule="nonzero" stroke="none" stroke-width="0" stroke-linecap="butt" stroke-linejoin="miter" stroke-miterlimit="10" stroke-dasharray="" stroke-dashoffset="0" style="mix-blend-mode: normal"><path d="M219.8334,178.03465c0,-11.1377 9.02889,-20.1666 20.1666,-20.1666c11.1377,0 20.1666,9.02889 20.1666,20.1666c0,2.04829 -0.26413,24.45671 -0.26413,24.45671l-8.97452,-9.38149l-8.09815,9.35684l-2.375,-9.58278l-2.55963,9.23433l-7.37903,-8.89102l-10.40296,9.00774c0,0 -0.27979,-21.79376 -0.27979,-24.20032z" fill="#ffaf26"/><path d="M225.46396,175.27683c0,-3.52218 2.85529,-6.37747 6.37747,-6.37747c3.52218,0 6.37747,2.85529 6.37747,6.37747c0,3.52218 -2.85529,6.37747 -6.37747,6.37747c-3.52218,0 -6.37747,-2.85529 -6.37747,-6.37747z" fill="#ffffff"/><path d="M242.18472,175.22081c0,-3.52218 2.85529,-6.37748 6.37747,-6.37748c3.52218,0 6.37747,2.8553 6.37747,6.37748c0,3.52218 -2.85529,6.37747 -6.37747,6.37747c-3.52218,0 -6.37747,-2.85529 -6.37747,-6.37747z" fill="#ffffff"/><path d="M227.49588,177.51756v-4.59638h4.82619v4.59638z" fill="#000000"/><path d="M244.10173,177.20145v-4.59637h4.8262v4.59637z" fill="#000000"/></g></g></svg>