<svg version="1.1" xmlns="http://www.w3.org/2000/svg" xmlns:xlink="http://www.w3.org/1999/xlink" width="561.86833" height="249.30485" viewBox="0,0,561.86833,249.30485"><g transform="translate(41.34235,-108.01469)"><g data-paper-data="{&quot;isPaintingLayer&quot;:true}" fill="#000000" fill-rule="nonzero" stroke-linecap="butt" stroke-linejoin="miter" stroke-miterlimit="10" stroke-dasharray="" stroke-dashoffset="0" style="mix-blend-mode: normal"><path d="M411.579,152.47567c0,0 -12.85742,0 -20.19123,0c-8.77831,0 -28.92847,0 -28.92847,0v-10.04832c0,0 8.37309,0 14.13409,0c9.06376,0 34.98562,0 34.98562,0v10.04832z" data-paper-data="{&quot;index&quot;:null}" stroke="#000000" stroke-width="2.5"/><path d="M69.55248,152.47564v-10.04832c0,0 25.92186,0 34.98562,0c5.761,0 14.13409,0 14.13409,0v10.04832c0,0 -20.15016,0 -28.92847,0c-7.33381,0 -20.19123,0 -20.19123,0z" data-paper-data="{&quot;index&quot;:null}" stroke="#000000" stroke-width="2.5"/><g data-paper-data="{&quot;index&quot;:null}" stroke-width="2.5"><path d="M179.21666,136.38259c0,-6.87324 0,-22.65037 0,-22.65037h10.04696c0,0 0,6.55597 0,11.0667c0,7.09673 0,27.39297 0,27.39297h-10.04696c0,0 0,-10.06707 0,-15.80929z" data-paper-data="{&quot;index&quot;:null}" stroke="#000000"/><path d="M179.54435,150.99084c0,0 0,-9.48626 0,-14.89717c0,-6.47669 0,-21.34356 0,-21.34356c0,0 3.07971,-1.02319 4.64666,-1.02319c1.60394,0 4.8686,1.02319 4.8686,1.02319c0,0 0,6.17771 0,10.42819c0,6.68727 0,25.81252 0,25.81252c0,0 -3.00444,1.19573 -4.51412,1.19573c-1.64966,0 -5.00114,-1.19573 -5.00114,-1.19573z" data-paper-data="{&quot;index&quot;:null}" stroke="#0d39d6"/></g><g stroke-width="2.5"><path d="M387.05504,266.97837h-10.04696c0,0 0,-22.08332 0,-29.80491c0,-4.90791 0,-12.04109 0,-12.04109h10.04696c0,0 0,17.1663 0,24.64472c0,6.24781 0,17.20129 0,17.20129z" data-paper-data="{&quot;index&quot;:null}" stroke="#000000"/><path d="M386.72735,265.67152c0,0 -3.35148,1.30101 -5.00114,1.30101c-1.50968,0 -4.51412,-1.30101 -4.51412,-1.30101c0,0 0,-20.80922 0,-28.08531c0,-4.62475 0,-11.3464 0,-11.3464c0,0 3.26465,-1.11329 4.8686,-1.11329c1.56695,0 4.64666,1.11329 4.64666,1.11329c0,0 0,16.17591 0,23.22284c0,5.88735 0,16.20886 0,16.20886z" data-paper-data="{&quot;index&quot;:null}" stroke="#0d39d6"/></g><g stroke-width="2.5"><path d="M296.67593,150.8143h-10.04696c0,0 0,-20.22799 0,-27.30086c0,-4.49556 0,-11.02948 0,-11.02948h10.04696c0,0 0,15.72408 0,22.57421c0,5.72291 0,15.75613 0,15.75613z" data-paper-data="{&quot;index&quot;:null}" stroke="#000000"/><path d="M296.34825,149.61728c0,0 -3.35148,1.19171 -5.00114,1.19171c-1.50968,0 -4.51412,-1.19171 -4.51412,-1.19171c0,0 0,-19.06095 0,-25.72573c0,-4.2362 0,-10.39313 0,-10.39313c0,0 3.26466,-1.01975 4.8686,-1.01975c1.56695,0 4.64666,1.01975 4.64666,1.01975c0,0 0,14.81689 0,21.27179c0,5.39272 0,14.84708 0,14.84708z" data-paper-data="{&quot;index&quot;:null}" stroke="#0d39d6"/></g><path d="M236.34485,354.63933v-3.23007h10.55157v3.23007z" stroke="none" stroke-width="2.5"/><g stroke-width="2.5"><path d="M340.82898,312.69446h-10.04695c0,0 0,-19.30739 0,-26.05835c0,-4.29096 0,-10.5275 0,-10.5275h10.04695c0,0 0,15.00845 0,21.54681c0,5.46245 0,15.03904 0,15.03904z" data-paper-data="{&quot;index&quot;:null}" stroke="#000000"/><path d="M340.5013,311.55195c0,0 -3.35149,1.13747 -5.00114,1.13747c-1.50968,0 -4.51412,-1.13747 -4.51412,-1.13747c0,0 0,-18.19345 0,-24.55491c0,-4.0434 0,-9.92012 0,-9.92012c0,0 3.26465,-0.97334 4.8686,-0.97334c1.56695,0 4.64667,0.97334 4.64667,0.97334c0,0 0,14.14255 0,20.30367c0,5.14729 0,14.17136 0,14.17136z" data-paper-data="{&quot;index&quot;:null}" stroke="#0d39d6"/></g><g stroke-width="2.5"><path d="M281.53058,315.19077v-6.38743c0,0 75.92228,0 102.46903,0c16.87333,0 41.3972,0 41.3972,0v6.38743c0,0 -59.0176,0 -84.72834,0c-21.47994,0 -59.1379,0 -59.1379,0z" data-paper-data="{&quot;index&quot;:null}" stroke="#000000"/><path d="M286.02335,314.98242c0,0 -4.47287,-2.13073 -4.47287,-3.17951c0,-0.95979 4.47287,-2.86989 4.47287,-2.86989c0,0 71.54194,0 96.55709,0c15.89981,0 39.00879,0 39.00879,0c0,0 3.82745,2.07553 3.82745,3.09525c0,0.9962 -3.82745,2.95415 -3.82745,2.95415c0,0 -55.6126,0 -79.83994,0c-20.24066,0 -55.72593,0 -55.72593,0z" data-paper-data="{&quot;index&quot;:null}" stroke="#0d39d6"/></g><g stroke-width="2.5"><path d="M272.9875,227.64896v-6.38743c0,0 34.22812,0 46.19621,0c7.60702,0 18.66314,0 18.66314,0v6.38743c0,0 -26.60696,0 -38.19816,0c-9.68382,0 -26.6612,0 -26.6612,0z" data-paper-data="{&quot;index&quot;:null}" stroke="#000000"/><path d="M275.01299,227.44064c0,0 -2.01651,-2.13073 -2.01651,-3.17951c0,-0.95979 2.01651,-2.86989 2.01651,-2.86989c0,0 32.25333,0 43.53093,0c7.16813,0 17.58637,0 17.58637,0c0,0 1.72554,2.07553 1.72554,3.09525c0,0.9962 -1.72554,2.95415 -1.72554,2.95415c0,0 -25.07188,0 -35.99432,0c-9.12511,0 -25.12298,0 -25.12298,0z" data-paper-data="{&quot;index&quot;:null}" stroke="#0d39d6"/></g><g stroke-width="2.5"><path d="M376.99363,227.11807v-6.38743c0,0 24.93142,0 33.64886,0c5.54088,0 13.59404,0 13.59404,0v6.38743c0,0 -19.38025,0 -27.82315,0c-7.0536,0 -19.41975,0 -19.41975,0z" data-paper-data="{&quot;index&quot;:null}" stroke="#000000"/><path d="M377.03036,226.90974c0,0 -0.03018,-2.13073 -0.03018,-3.17951c0,-0.95979 1.4688,-2.86989 1.4688,-2.86989c0,0 23.493,0 31.70749,0c5.2212,0 12.80974,0 12.80974,0c0,0 1.25686,2.07553 1.25686,3.09525c0,0.9962 -1.25686,2.95415 -1.25686,2.95415c0,0 -18.26211,0 -26.21791,0c-6.64664,0 -18.29933,0 -18.29933,0z" data-paper-data="{&quot;index&quot;:null}" stroke="#0d39d6"/></g><path d="M471.15002,305.41292l-9.36995,0.20082c0,0 -0.21135,-63.29765 -0.21135,-85.81464c0,-14.31197 0,-35.11316 0,-35.11316h10.04696c0,0 0,50.05881 0,71.86669c0,18.21931 -0.21134,45.29987 -0.21134,45.29987z" data-paper-data="{&quot;index&quot;:null}" stroke="#000000" stroke-width="2.5"/><path d="M471.288,349.28564c0,0 -6.66082,0 -8.21847,0c-0.61874,0 -1.29679,0 -1.29679,0c0,0 0,-84.48747 0,-114.0291c0,-18.77689 0,-46.06743 0,-46.06743c0,0 3.26466,-4.52003 4.8686,-4.52003c1.56695,0 4.64666,4.52003 4.64666,4.52003c0,0 0,65.67573 0,94.287c0,23.90321 0,65.80953 0,65.80953z" data-paper-data="{&quot;index&quot;:null}" stroke="#0d39d6" stroke-width="2.5"/><g stroke-width="2.5"><path d="M180.0983,152.26101v-6.38743c0,0 61.30048,0 82.73462,0c13.62372,0 33.42456,0 33.42456,0v6.38743c0,0 -47.65146,0 -68.41059,0c-17.34314,0 -47.74858,0 -47.74858,0z" data-paper-data="{&quot;index&quot;:null}" stroke="#000000"/><path d="M183.72582,152.0527c0,0 -4.25814,-2.13073 -4.25814,-3.17951c0,-0.95979 0.37795,-3.64593 0.37795,-3.64593c0,0 61.64394,0.77604 81.84144,0.77604c7.8646,0 17.91375,0 24.51926,0c4.17692,0 10.29185,-0.34895 10.29185,-0.34895c0,0 -0.22465,2.42448 -0.22465,3.4442c0,0.9962 -3.09033,2.95415 -3.09033,2.95415c0,0 -44.90223,0 -64.46364,0c-16.34253,0 -44.99373,0 -44.99373,0z" data-paper-data="{&quot;index&quot;:null}" stroke="#0d39d6"/></g><path d="M252.39125,115.65213v-6.38743c0,0 23.41066,0 31.59636,0c5.2029,0 12.76484,0 12.76484,0v6.38743c0,0 -18.1981,0 -26.12601,0c-6.62335,0 -18.23519,0 -18.23519,0z" data-paper-data="{&quot;index&quot;:null}" stroke="#000000" stroke-width="2.5"/><path d="M254.49592,115.44381c0,0 -1.37921,-2.13073 -1.37921,-3.17951c0,-0.95979 1.37921,-2.86989 1.37921,-2.86989c0,0 22.05998,0 29.77342,0c2.32877,0 5.15907,0 7.48904,0c2.57528,0 4.49822,1.20317 4.49822,2.22289c0,0.9962 0.04111,3.82651 0.04111,3.82651c0,0 -17.14816,0 -24.61867,0c-6.24122,0 -17.18311,0 -17.18311,0z" data-paper-data="{&quot;index&quot;:null}" stroke="#0d39d6" stroke-width="2.5"/><path d="M289.30566,147.82671v-34.01299h4.52136v34.01299z" stroke="#000000" stroke-width="2.5"/><path d="M332.22778,311.43962v-8.6317h6.78204v8.6317z" stroke="none" stroke-width="2.5"/><path d="M378.72006,230.89365v-6.1655h6.98756v6.1655z" stroke="none" stroke-width="2.5"/><path d="M9.74928,352.63527c0,-0.93099 0,-2.61511 0,-2.61511c0,0 243.52439,0 328.67438,0c54.12201,0 132.78354,0 132.78354,0c0,0 0,1.886 0,2.90978c0,0.99165 -1.64915,2.29422 -1.64915,2.29422c0,0 0.08582,0.84539 -2.81861,0.84539c-29.05592,0 -192.32849,0 -267.30248,0c-56.7066,0 -148.5655,0 -179.29842,0c-0.75141,0 -3.70268,-0.09318 -4.3796,-0.09318c-5.27534,0 -6.00965,-2.27421 -6.00965,-3.3411z" stroke="#0d39d6" stroke-width="2.5"/><path d="M463.03377,192.52187v-8.03115h6.97442v8.03115z" stroke="none" stroke-width="NaN"/><path d="M462.82243,351.02783v-7.39711h6.97442v7.39711z" stroke="none" stroke-width="0"/><path d="M205.26615,116.90038c-7.92791,0 -26.12601,0 -26.12601,0v-6.38743c0,0 7.56194,0 12.76484,0c8.1857,0 31.59636,0 31.59636,0v6.38743c0,0 -11.61184,0 -18.23519,0z" data-paper-data="{&quot;index&quot;:null}" stroke="#000000" stroke-width="2.5"/><path d="M221.39666,116.69205c0,0 -10.94189,0 -17.18311,0c-7.47051,0 -24.61867,0 -24.61867,0c0,0 0.04111,-2.83031 0.04111,-3.82651c0,-1.01972 1.92294,-2.22289 4.49822,-2.22289c2.32997,0 5.16028,0 7.48905,0c7.71344,0 29.77342,0 29.77342,0c0,0 1.37921,1.9101 1.37921,2.86989c0,1.04878 -1.37921,3.17951 -1.37921,3.17951z" data-paper-data="{&quot;index&quot;:null}" stroke="#0d39d6" stroke-width="2.5"/><path d="M182.06557,147.73503v-32.67308h4.52136v32.67308z" data-paper-data="{&quot;index&quot;:null}" stroke="#000000" stroke-width="2.5"/><g data-paper-data="{&quot;index&quot;:null}" stroke-width="2.5"><path d="M140.26613,298.03538c0,-6.53836 0,-21.54681 0,-21.54681h10.04695c0,0 0,6.23654 0,10.5275c0,6.75096 0,26.05835 0,26.05835h-10.04695c0,0 0,-9.57659 0,-15.03904z" data-paper-data="{&quot;index&quot;:null}" stroke="#000000"/><path d="M140.5938,311.93188c0,0 0,-9.02407 0,-14.17136c0,-6.16112 0,-20.30367 0,-20.30367c0,0 3.07972,-0.97334 4.64667,-0.97334c1.60395,0 4.8686,0.97334 4.8686,0.97334c0,0 0,5.87672 0,9.92012c0,6.36146 0,24.55491 0,24.55491c0,0 -3.00444,1.13747 -4.51412,1.13747c-1.64965,0 -5.00114,-1.13747 -5.00114,-1.13747z" data-paper-data="{&quot;index&quot;:null}" stroke="#0d39d6"/></g><g data-paper-data="{&quot;index&quot;:null}" stroke-width="2.5"><path d="M199.56454,315.5707c0,0 -37.65796,0 -59.1379,0c-25.71074,0 -84.72834,0 -84.72834,0v-6.38743c0,0 24.52387,0 41.3972,0c26.54675,0 102.46903,0 102.46903,0v6.38743z" data-paper-data="{&quot;index&quot;:null}" stroke="#000000"/><path d="M195.07174,315.3624c0,0 -35.48527,0 -55.72593,0c-24.22734,0 -79.83994,0 -79.83994,0c0,0 -3.82745,-1.95795 -3.82745,-2.95415c0,-1.01972 3.82745,-3.09525 3.82745,-3.09525c0,0 23.10898,0 39.00879,0c25.01515,0 96.55709,0 96.55709,0c0,0 4.47287,1.9101 4.47287,2.86989c0,1.04878 -4.47287,3.17951 -4.47287,3.17951z" data-paper-data="{&quot;index&quot;:null}" stroke="#0d39d6"/></g><g data-paper-data="{&quot;index&quot;:null}" stroke-width="2.5"><path d="M271.46882,270.92972c0,0 -16.97738,0 -26.6612,0c-11.5912,0 -38.19816,0 -38.19816,0v-6.38743c0,0 11.05612,0 18.66314,0c11.96809,0 46.19621,0 46.19621,0v6.38743z" data-paper-data="{&quot;index&quot;:null}" stroke="#000000"/><path d="M244.32035,270.72139c-10.92244,0 -35.99432,0 -35.99432,0c0,0 -1.72554,-1.95795 -1.72554,-2.95415c0,-1.01972 1.72554,-3.09525 1.72554,-3.09525c0,0 10.41824,0 17.58637,0c11.2776,0 43.53093,0 43.53093,0c0,0 2.01651,1.9101 2.01651,2.86989c0,1.04878 -2.01651,3.17951 -2.01651,3.17951c0,0 -15.99787,0 -25.12298,0z" data-paper-data="{&quot;index&quot;:null}" stroke="#0d39d6"/></g><path d="M9.47942,256.93253c0,-21.80788 0,-71.86669 0,-71.86669h10.04696c0,0 0,20.80119 0,35.11316c0,22.517 -0.21134,86.06897 -0.21134,86.06897l-9.62427,-4.01558c0,0 -0.21135,-27.08056 -0.21135,-45.29987z" data-paper-data="{&quot;index&quot;:null}" stroke="#000000" stroke-width="2.5"/><path d="M9.80711,350.93701c0,0 0,-42.22999 0,-66.31781c0,-28.83225 0,-95.01523 0,-95.01523c0,0 3.07971,-4.55494 4.64666,-4.55494c1.60394,0 4.8686,4.55494 4.8686,4.55494c0,0 0,27.50133 0,46.42324c0,29.7698 0,114.90981 0,114.90981z" data-paper-data="{&quot;index&quot;:null}" stroke="#0d39d6" stroke-width="2.5"/><path d="M142.08529,311.8196v-8.63169h6.78205v8.63169z" data-paper-data="{&quot;index&quot;:null}" stroke="none" stroke-width="2.5"/><path d="M11.08692,195.97159v-8.03115h6.97442v8.03115z" data-paper-data="{&quot;index&quot;:null}" stroke="none" stroke-width="NaN"/><path d="M11.0066,352.07617v-5.40461h6.98872v5.40461z" stroke="none" stroke-width="0"/><path d="M348.21915,139.76808c0,-5.51462 0,-18.17314 0,-18.17314h16.63656c0,0 0,5.26006 0,8.87917c0,5.69393 0,21.97827 0,21.97827h-16.63656c0,0 0,-8.07714 0,-12.68431z" data-paper-data="{&quot;index&quot;:null}" stroke="#000000" stroke-width="2.5"/><path d="M348.76177,151.52993c0,0 0,-7.24081 0,-11.37094c0,-4.94362 0,-16.29144 0,-16.29144c0,0 5.09963,-0.78099 7.69431,-0.78099c2.65594,0 8.06182,0.78099 8.06182,0.78099c0,0 0,4.71541 0,7.95979c0,5.10437 0,19.70258 0,19.70258c0,0 -4.975,0.9127 -7.47485,0.9127c-2.73163,0 -8.28128,-0.9127 -8.28128,-0.9127z" data-paper-data="{&quot;index&quot;:null}" stroke="#0d39d6" stroke-width="2.5"/><g><path d="M410.04506,152.14792c0,0 -12.11561,0 -19.0263,0c-8.27185,0 -27.25945,0 -27.25945,0v-9.51655c0,0 7.89001,0 13.31862,0c8.54082,0 32.96712,0 32.96712,0c0,0 1.52715,3.00486 1.52715,4.51474c0,1.64987 -1.52715,5.00181 -1.52715,5.00181z" data-paper-data="{&quot;index&quot;:null}" stroke="#0d39d6" stroke-width="2.5"/><path d="M358.78465,150.74199v-6.75709h6.75709v6.75709z" data-paper-data="{&quot;index&quot;:null}" stroke="none" stroke-width="0"/></g><path d="M132.91234,139.76808c0,4.60717 0,12.68431 0,12.68431h-16.63656c0,0 0,-16.28434 0,-21.97827c0,-3.61911 0,-8.87917 0,-8.87917h16.63656c0,0 0,12.65852 0,18.17314z" data-paper-data="{&quot;index&quot;:null}" stroke="#000000" stroke-width="2.5"/><path d="M132.36972,151.52994c0,0 -5.54965,0.91269 -8.28128,0.91269c-2.49985,0 -7.47485,-0.91269 -7.47485,-0.91269c0,0 0,-14.59821 0,-19.70258c0,-3.24438 0,-7.95979 0,-7.95979c0,0 5.40588,-0.781 8.06182,-0.781c2.59468,0 7.69431,0.781 7.69431,0.781c0,0 0,11.34782 0,16.29143c0,4.13012 0,11.37094 0,11.37094z" data-paper-data="{&quot;index&quot;:null}" stroke="#0d39d6" stroke-width="2.5"/><g data-paper-data="{&quot;index&quot;:null}"><path d="M71.58644,152.31459c0,0 -1.52715,-3.35194 -1.52715,-5.00181c0,-1.50988 1.52715,-4.51474 1.52715,-4.51474c0,0 24.4263,0 32.96712,0c5.42861,0 13.31862,0 13.31862,0v9.51655c0,0 -18.9876,0 -27.25945,0c-6.91069,0 -19.0263,0 -19.0263,0z" data-paper-data="{&quot;index&quot;:null}" stroke="#0d39d6" stroke-width="2.5"/><path d="M116.08975,150.90864v-6.75709h6.75709v6.75709z" data-paper-data="{&quot;index&quot;:null}" stroke="none" stroke-width="0"/></g><g stroke-width="2.5"><path d="M454.40765,116.76905v-6.38743c0,0 34.22812,0 46.19621,0c7.60702,0 18.66314,0 18.66314,0v6.38743c0,0 -26.60696,0 -38.19816,0c-9.68382,0 -26.6612,0 -26.6612,0z" data-paper-data="{&quot;index&quot;:null}" stroke="#000000"/><path d="M456.43314,116.56072c0,0 -2.01651,-2.13073 -2.01651,-3.17951c0,-0.95979 2.01651,-2.86989 2.01651,-2.86989c0,0 32.25333,0 43.53093,0c7.16813,0 17.58637,0 17.58637,0c0,0 1.72554,2.07553 1.72554,3.09525c0,0.9962 -1.72554,2.95415 -1.72554,2.95415c0,0 -25.07188,0 -35.99432,0c-9.12511,0 -25.12298,0 -25.12298,0z" data-paper-data="{&quot;index&quot;:null}" stroke="#0d39d6"/></g><g stroke-width="2.5"><path d="M-40.09235,116.76906v-6.38743c0,0 34.22812,0 46.19621,0c7.60702,0 18.66314,0 18.66314,0v6.38743c0,0 -26.60696,0 -38.19816,0c-9.68382,0 -26.6612,0 -26.6612,0z" data-paper-data="{&quot;index&quot;:null}" stroke="#000000"/><path d="M-38.06686,116.56073c0,0 -2.01651,-2.13073 -2.01651,-3.17951c0,-0.95979 2.01651,-2.86989 2.01651,-2.86989c0,0 32.25333,0 43.53093,0c7.16813,0 17.58637,0 17.58637,0c0,0 1.72554,2.07553 1.72554,3.09525c0,0.9962 -1.72554,2.95415 -1.72554,2.95415c0,0 -25.07188,0 -35.99432,0c-9.12511,0 -25.12298,0 -25.12298,0z" data-paper-data="{&quot;index&quot;:null}" stroke="#0d39d6"/></g><g stroke-width="2.5"><path d="M130.14469,225.38882v-6.38743c0,0 34.22812,0 46.19621,0c7.60702,0 18.66314,0 18.66314,0v6.38743c0,0 -26.60696,0 -38.19816,0c-9.68382,0 -26.6612,0 -26.6612,0z" data-paper-data="{&quot;index&quot;:null}" stroke="#000000"/><path d="M132.17018,225.1805c0,0 -2.01651,-2.13073 -2.01651,-3.17951c0,-0.95979 2.01651,-2.86989 2.01651,-2.86989c0,0 32.25333,0 43.53093,0c7.16813,0 17.58637,0 17.58637,0c0,0 1.72554,2.07553 1.72554,3.09525c0,0.9962 -1.72554,2.95415 -1.72554,2.95415c0,0 -25.07188,0 -35.99432,0c-9.12511,0 -25.12298,0 -25.12298,0z" data-paper-data="{&quot;index&quot;:null}" stroke="#0d39d6"/></g><g stroke-width="2.5"><path d="M-10.35531,190.38882v-6.38743c0,0 34.22812,0 46.19621,0c7.60702,0 18.66314,0 18.66314,0v6.38743c0,0 -26.60696,0 -38.19816,0c-9.68382,0 -26.6612,0 -26.6612,0z" data-paper-data="{&quot;index&quot;:null}" stroke="#000000"/><path d="M-8.32982,190.1805c0,0 -2.01651,-2.13073 -2.01651,-3.17951c0,-0.95979 2.01651,-2.86989 2.01651,-2.86989c0,0 32.25333,0 43.53093,0c7.16813,0 17.58637,0 17.58637,0c0,0 1.72554,2.07553 1.72554,3.09525c0,0.9962 -1.72554,2.95415 -1.72554,2.95415c0,0 -25.07188,0 -35.99432,0c-9.12511,0 -25.12298,0 -25.12298,0z" data-paper-data="{&quot;index&quot;:null}" stroke="#0d39d6"/></g><g stroke-width="2.5"><path d="M424.14469,190.38882v-6.38743c0,0 34.22812,0 46.19621,0c7.60702,0 18.66314,0 18.66314,0v6.38743c0,0 -26.60696,0 -38.19816,0c-9.68382,0 -26.6612,0 -26.6612,0z" data-paper-data="{&quot;index&quot;:null}" stroke="#000000"/><path d="M426.17018,190.1805c0,0 -2.01651,-2.13073 -2.01651,-3.17951c0,-0.95979 2.01651,-2.86989 2.01651,-2.86989c0,0 32.25333,0 43.53093,0c7.16813,0 17.58637,0 17.58637,0c0,0 1.72554,2.07553 1.72554,3.09525c0,0.9962 -1.72554,2.95415 -1.72554,2.95415c0,0 -25.07188,0 -35.99432,0c-9.12511,0 -25.12298,0 -25.12298,0z" data-paper-data="{&quot;index&quot;:null}" stroke="#0d39d6"/></g><g data-paper-data="{&quot;index&quot;:null}" stroke-width="2.5"><path d="M89.18166,266.97837c0,0 0,-10.95348 0,-17.20129c0,-7.47842 0,-24.64472 0,-24.64472h10.04696c0,0 0,7.13318 0,12.04109c0,7.72159 0,29.80491 0,29.80491h-10.04696z" data-paper-data="{&quot;index&quot;:null}" stroke="#000000"/><path d="M89.50935,265.67152c0,0 0,-10.32151 0,-16.20886c0,-7.04693 0,-23.22284 0,-23.22284c0,0 3.07971,-1.11329 4.64666,-1.11329c1.60395,0 4.8686,1.11329 4.8686,1.11329c0,0 0,6.72165 0,11.3464c0,7.27609 0,28.08531 0,28.08531c0,0 -3.00444,1.30101 -4.51412,1.30101c-1.64966,0 -5.00114,-1.30101 -5.00114,-1.30101z" data-paper-data="{&quot;index&quot;:null}" stroke="#0d39d6"/></g><g data-paper-data="{&quot;index&quot;:null}" stroke-width="2.5"><path d="M79.82332,227.11807c-8.4429,0 -27.82315,0 -27.82315,0v-6.38743c0,0 8.05316,0 13.59404,0c8.71744,0 33.64886,0 33.64886,0v6.38743c0,0 -12.36615,0 -19.41975,0z" data-paper-data="{&quot;index&quot;:null}" stroke="#000000"/><path d="M97.76773,226.90974c0,0 -11.65269,0 -18.29933,0c-7.9558,0 -26.21791,0 -26.21791,0c0,0 -1.25686,-1.95795 -1.25686,-2.95415c0,-1.01972 1.25686,-3.09525 1.25686,-3.09525c0,0 7.58854,0 12.80974,0c8.21449,0 31.70749,0 31.70749,0c0,0 1.4688,1.9101 1.4688,2.86989c0,1.04878 -0.03018,3.17951 -0.03018,3.17951z" data-paper-data="{&quot;index&quot;:null}" stroke="#0d39d6"/></g><path d="M90.52908,230.89365v-6.1655h6.98756v6.1655z" data-paper-data="{&quot;index&quot;:null}" stroke="none" stroke-width="2.5"/></g></g></svg>