<svg version="1.1" xmlns="http://www.w3.org/2000/svg" xmlns:xlink="http://www.w3.org/1999/xlink" width="216.59259" height="215.59014" viewBox="0,0,216.59259,215.59014"><g transform="translate(-132.2438,-72.00181)"><g data-paper-data="{&quot;isPaintingLayer&quot;:true}" fill-rule="nonzero" stroke="#000000" stroke-width="7.5" stroke-linecap="butt" stroke-linejoin="miter" stroke-miterlimit="10" stroke-dasharray="" stroke-dashoffset="0" style="mix-blend-mode: normal"><path d="M340.29054,212.16262l-11.45916,21.71709l-79.02605,-41.69859l11.45915,-21.71708l4.88059,22.69547l16.74832,-11.11362l-1.74356,20.87927l16.74356,-11.45303l0.91845,21.74078l19.41483,-10.9481c0,0 0.2412,6.71239 0.36106,10.0479c0.11887,3.30814 0.35515,9.88368 0.35515,9.88368z" fill="#ffffff"/><path d="M259.79517,198.42219l-11.02263,-21.94187l79.84402,-40.11012l11.02263,21.94187l-21.30956,-9.20908l-0.68097,20.08867l-15.98366,-13.54645l-0.40192,20.28194l-18.23112,-11.87989l-2.36447,22.16316l-16.6409,-10.99369z" fill="#ffffff"/><path d="M143.37645,141.3784c21.21794,-53.38519 81.69574,-79.46189 135.08093,-58.24395c21.86055,8.68848 39.14203,23.96003 50.47212,42.63199c1.24656,2.05433 0.1329,6.38032 0.1329,6.38032l-93.23696,45.98268l91.63792,53.20025c0,0 3.86579,-1.24991 0.47752,4.11554c-26.21063,41.50571 -79.04641,59.80316 -126.32048,41.01409c-53.38519,-21.21794 -79.46189,-81.69574 -58.24395,-135.08093z" fill="#ff0000"/></g></g></svg>