<svg version="1.1" xmlns="http://www.w3.org/2000/svg" xmlns:xlink="http://www.w3.org/1999/xlink" width="53.4276" height="51.53917" viewBox="0,0,53.4276,51.53917"><g transform="translate(-205.04967,-115.55338)"><g data-paper-data="{&quot;isPaintingLayer&quot;:true}" fill-rule="nonzero" stroke-linecap="butt" stroke-linejoin="miter" stroke-miterlimit="10" stroke-dasharray="" stroke-dashoffset="0" style="mix-blend-mode: normal"><path d="M256.22727,141.32296c0,12.98951 -10.95282,23.51958 -24.4638,23.51958c-13.51098,0 -24.4638,-10.53008 -24.4638,-23.51958c0,-12.98951 10.95282,-23.51958 24.4638,-23.51958c13.51098,0 24.4638,10.53008 24.4638,23.51958z" fill="#66e8ff" stroke="#000000" stroke-width="4.5"/><path d="M248.86373,139.08964c0,5.4518 -4.59699,9.87136 -10.26765,9.87136c-5.67067,0 -10.26765,-4.41956 -10.26765,-9.87136c0,-5.4518 4.59699,-9.87136 10.26765,-9.87136c5.67067,0 10.26765,4.41956 10.26765,9.87136z" fill="#000000" stroke="#000000" stroke-width="4.5"/><path d="M247.57462,135.76754c0,2.71717 -2.29113,4.91987 -5.11738,4.91987c-2.82625,0 -5.11738,-2.2027 -5.11738,-4.91987c0,-2.71717 2.29113,-4.91987 5.11738,-4.91987c2.82625,0 5.11738,2.2027 5.11738,4.91987z" fill="#ffffff" stroke="none" stroke-width="0"/></g></g></svg>