<svg version="1.1" xmlns="http://www.w3.org/2000/svg" xmlns:xlink="http://www.w3.org/1999/xlink" width="103" height="103" viewBox="0,0,103,103"><defs><linearGradient x1="126.69666" y1="8.50732" x2="126.69666" y2="96.50735" gradientUnits="userSpaceOnUse" id="color-1"><stop offset="0" stop-color="#34445f"/><stop offset="1" stop-color="#34445f"/></linearGradient><linearGradient x1="126.71233" y1="9.502" x2="126.71233" y2="95.05292" gradientUnits="userSpaceOnUse" id="color-2"><stop offset="0" stop-color="#34445f"/><stop offset="1" stop-color="#3f5273"/></linearGradient><linearGradient x1="126.71233" y1="9.50197" x2="126.71233" y2="95.05292" gradientUnits="userSpaceOnUse" id="color-3"><stop offset="0" stop-color="#957b31"/><stop offset="1" stop-color="#957b31" stop-opacity="0"/></linearGradient><linearGradient x1="119.26964" y1="27.36491" x2="119.26964" y2="32.80572" gradientUnits="userSpaceOnUse" id="color-4"><stop offset="0" stop-color="#45667d"/><stop offset="1" stop-color="#658a92"/></linearGradient><linearGradient x1="126.71233" y1="9.50197" x2="126.71233" y2="95.05288" gradientUnits="userSpaceOnUse" id="color-5"><stop offset="0" stop-color="#3f5273" stop-opacity="0"/><stop offset="1" stop-color="#3f5273" stop-opacity="0"/></linearGradient></defs><g transform="translate(-75.19666,-1.00734)"><g data-paper-data="{&quot;isPaintingLayer&quot;:true}" fill-rule="nonzero" stroke-linecap="butt" stroke-linejoin="miter" stroke-miterlimit="10" stroke-dasharray="" stroke-dashoffset="0" style="mix-blend-mode: normal"><path d="M82.69666,52.50734c0,-24.30053 19.69947,-44 44,-44c24.30053,0 44,19.69947 44,44c0,24.30053 -19.69947,44 -44,44c-24.30053,0 -44,-19.69947 -44,-44z" fill="#000000" stroke="#000000" stroke-width="15"/><path d="M82.69666,52.50734c0,-24.30053 19.69947,-44 44,-44c24.30053,0 44,19.69947 44,44c0,24.30053 -19.69947,44 -44,44c-24.30053,0 -44,-19.69947 -44,-44z" fill="none" stroke="#ffffff" stroke-width="10"/><path d="M82.69666,52.50732c0,-24.30053 19.69947,-44 44,-44c24.30053,0 44,19.69947 44,44c0,24.30053 -19.69947,44 -44,44c-24.30053,0 -44,-19.69947 -44,-44z" fill="url(#color-1)" stroke="none" stroke-width="0"/><path d="M82.69666,52.50732c0,-24.30053 19.69947,-44 44,-44c24.30053,0 44,19.69947 44,44c0,24.30053 -19.69947,44 -44,44c-24.30053,0 -44,-19.69947 -44,-44z" fill="#000000" stroke="#000000" stroke-width="5"/><path d="M82.69666,52.50734c0,-24.30053 19.69947,-44 44,-44c24.30053,0 44,19.69947 44,44c0,24.30053 -19.69947,44 -44,44c-24.30053,0 -44,-19.69947 -44,-44z" fill="none" stroke="#000000" stroke-width="5"/><g><path d="M83.93688,52.27742c0,-23.62423 19.15122,-42.77544 42.77544,-42.77544c23.62423,0 42.77544,19.15122 42.77544,42.77544c0,23.62423 -19.15122,42.77544 -42.77544,42.77544c-23.62423,0 -42.77544,-19.15122 -42.77544,-42.77544z" fill="url(#color-2)" stroke="none" stroke-width="0"/><path d="M110.00167,13.56679c0,0 8.09136,-4.27997 16.71065,-4.06482c5.66531,0.14142 16.0264,3.10351 16.0264,3.10351l18.14487,63.15384c0,0 -20.48242,19.29354 -34.17126,19.29354c-12.15495,0 -37.41332,-22.21008 -37.41332,-22.21008z" fill="url(#color-3)" stroke="none" stroke-width="0"/><g><path d="M140.79611,59.58653l-4.97143,-34.62857c0,0 4.02368,-0.8042 6.80845,2.93579c1.55079,2.08273 4.16869,9.23155 5.80176,13.95122c0.87054,2.51592 0.78653,4.90211 -1.60757,8.86044c-1.54208,2.54963 -6.03121,8.88112 -6.03121,8.88112z" fill="#cccccc" stroke="#000000" stroke-width="2"/><path d="M104.43944,67.66012c0,0 -4.33202,-38.87683 15.17088,-46.11949c4.00706,-1.48808 11.76815,-2.18707 14.82133,0.53452c11.80706,10.52474 12.48627,46.79865 12.48627,46.79865l-10.94894,-1.61144c0,0 -2.84454,-7.74486 -11.2836,-7.72895c-9.49109,0.0179 -9.3229,8.12672 -9.3229,8.12672z" fill="#7a7a7a" stroke="#000000" stroke-width="2.5"/><path d="M105.94097,67.35471c0,0 -4.02326,-37.82155 14.08958,-44.22912c3.72145,-1.31649 10.92938,-1.93489 13.76494,0.47288c10.96551,9.3112 11.77336,43.7392 11.77336,43.7392c0,0 -6.89233,-0.42063 -7.27053,-1.52266c-0.24759,-0.72147 -0.71751,-5.47587 -4.46992,-8.25343c-0.82667,-0.61191 -2.87382,-1.29264 -4.22381,-1.40079c-2.75237,-0.22049 -7.4745,-0.44715 -10.75739,0.21134c-4.89309,0.98147 -6.43593,10.04388 -6.43593,10.04388z" fill="#cccccc" stroke="none" stroke-width="0"/><path d="M109.35487,35.73885c0,-1.61613 -0.98155,-10.34238 9.61434,-9.65823c2.24457,0.14493 4.66622,0.25659 6.3922,0.32777c1.41418,0.05832 2.24458,0.75053 2.8381,2.01382c0.59352,1.26328 0.77914,5.85861 0.77914,6.52642c0,0.7418 -0.3667,1.59738 -1.49939,1.5656c-2.151,-0.06035 -5.63946,-0.1381 -7.78822,-0.08155c-2.10956,0.05552 -5.61978,0.11076 -7.9307,0.47737c-2.33711,0.37076 -2.40547,-0.52349 -2.40547,-1.1712z" fill="#949494" stroke="#949494" stroke-width="1.5"/><path d="M109.35487,33.73884c0,-1.61612 -0.98155,-10.34238 9.61433,-9.65823c2.24457,0.14493 4.66622,0.25659 6.39219,0.32777c1.41418,0.05832 2.24459,0.75053 2.8381,2.01382c0.59352,1.26329 0.77915,5.85861 0.77915,6.52643c0,0.7418 -0.3667,1.59738 -1.49939,1.56559c-2.15099,-0.06036 -5.63947,-0.1381 -7.78822,-0.08155c-2.10956,0.05552 -5.61978,0.11077 -7.9307,0.47738c-2.33711,0.37076 -2.40546,-0.52349 -2.40546,-1.1712z" fill="#8dc1cd" stroke="#000000" stroke-width="1.5"/><path d="M111.55993,32.80572c0,0 -0.57593,-4.21917 1.40098,-4.77929c1.08894,-0.30853 2.80257,-0.27704 5.60672,-0.40195c1.99779,-0.08899 5.05787,-0.51175 6.53513,-0.04103c1.88994,0.60222 1.95466,3.67252 1.95466,3.67252c0,0 -4.35548,-0.59762 -6.75138,-0.35803c-2.72696,0.27269 -8.74611,1.90778 -8.74611,1.90778z" fill="url(#color-4)" stroke="none" stroke-width="0"/></g><path d="M90.62738,72.52599c7.11663,-2.7837 19.03597,-6.21827 33.85767,-5.81614c16.10985,0.25992 28.73149,4.6104 36.67929,8.35776c0.6851,0.32302 0.07759,2.06955 -1.39549,4.06224c-2.09389,2.83248 -5.93666,6.41744 -10.30186,9.30962c-6.86596,4.54907 -14.80317,6.43515 -24.40067,6.09972c-9.28579,-0.32454 -16.84455,-2.73399 -23.78349,-7.892c-4.86209,-3.6142 -8.42146,-8.58018 -10.41502,-11.3491c-0.84913,-1.17938 -0.85521,-2.53163 -0.24043,-2.7721z" fill="#5b450c" stroke="#413607" stroke-width="2.5"/><path d="M115.47206,66.83761l3.17916,26.77943c0,0 -1.31432,0.0902 -1.87771,-0.02531c-5.69187,-1.167 -10.73675,-3.4107 -15.4907,-6.94451c-1.26504,-0.94036 -3.52591,-3.03309 -3.52591,-3.03309l6.04652,-15.01188c0,0 3.77656,-0.81256 5.81805,-1.08963c2.26851,-0.30788 5.85058,-0.67501 5.85058,-0.67501z" fill="#271a11" stroke="#271a11" stroke-width="2.5"/><path d="M135.36745,67.60422c0,0 3.56851,0.48141 5.82602,0.86162c2.03159,0.34217 5.78026,1.27499 5.78026,1.27499c0,0 5.0432,13.77358 5.77854,15.70024c0.15672,0.41061 -4.04141,3.2666 -5.33585,4.16606c-4.86445,3.38009 -8.47845,3.71143 -14.2047,4.69595c-0.56679,0.09745 -2.5639,-0.26771 -2.5639,-0.26771l4.71963,-26.43116z" data-paper-data="{&quot;index&quot;:null}" fill="#271a11" stroke="#271a11" stroke-width="2.5"/><path d="M83.93689,52.27741c0,-23.62423 19.15122,-42.77544 42.77544,-42.77544c23.62423,0 42.77544,19.15122 42.77544,42.77544c0,23.62423 -19.15122,42.77544 -42.77544,42.77544c-23.62423,0 -42.77544,-19.15122 -42.77544,-42.77544z" fill="url(#color-5)" stroke="#000000" stroke-width="3.5"/></g></g></g></svg>