<svg viewBox="0,0,93.13682,91.087" height="91.087" width="93.13682" xmlns:xlink="http://www.w3.org/1999/xlink" xmlns="http://www.w3.org/2000/svg" version="1.1"><defs><radialGradient id="color-1" gradientUnits="userSpaceOnUse" r="24.41743" cy="284.37845" cx="77.85603"><stop stop-color="#000000" offset="0"></stop><stop stop-opacity="0" stop-color="#000000" offset="1"></stop></radialGradient><linearGradient id="color-2" gradientUnits="userSpaceOnUse" y2="298.79636" x2="76.89548" y1="268.18349" x1="76.89548"><stop stop-color="#5eeaff" offset="0"></stop><stop stop-color="#0097fc" offset="1"></stop></linearGradient><linearGradient id="color-3" gradientUnits="userSpaceOnUse" y2="336.66409" x2="49.9272" y1="315.33763" x1="40.01714"><stop stop-opacity="0" stop-color="#dcf6ff" offset="0"></stop><stop stop-color="#dcf6ff" offset="1"></stop></linearGradient><linearGradient id="color-4" gradientUnits="userSpaceOnUse" y2="317.87962" x2="43.17041" y1="313.37874" x1="41.07896"><stop stop-color="#a1e7ff" offset="0"></stop><stop stop-color="#87e3ff" offset="1"></stop></linearGradient><linearGradient id="color-5" gradientUnits="userSpaceOnUse" y2="310.55993" x2="44.23604" y1="306.38527" x1="42.29616"><stop stop-color="#a1e7ff" offset="0"></stop><stop stop-color="#87e3ff" offset="1"></stop></linearGradient><linearGradient id="color-6" gradientUnits="userSpaceOnUse" y2="315.22893" x2="34.18818" y1="311.05433" x1="32.24833"><stop stop-color="#a1e7ff" offset="0"></stop><stop stop-color="#87e3ff" offset="1"></stop></linearGradient><linearGradient id="color-7" gradientUnits="userSpaceOnUse" y2="316.90184" x2="44.34639" y1="314.873" x1="43.40365"><stop stop-color="#ff4e4e" offset="0"></stop><stop stop-color="#d31f1f" offset="1"></stop></linearGradient></defs><g transform="translate(-9.08861,-259.88891)"><g style="mix-blend-mode: normal" stroke-dashoffset="0" stroke-dasharray="" stroke-miterlimit="10" stroke-linejoin="miter" stroke-linecap="butt" fill-rule="nonzero" data-paper-data="{&quot;isPaintingLayer&quot;:true}"><g><path stroke-width="0" stroke="none" fill="url(#color-1)" data-paper-data="{&quot;index&quot;:null}" d="M53.39058,284.30635c0,-13.48539 10.93205,-24.41744 24.41742,-24.41744c13.48539,0 24.41743,10.93205 24.41743,24.41744c0,13.48539 -10.93206,24.41742 -24.41743,24.41742c-13.48539,0 -24.41742,-10.93205 -24.41742,-24.41742z"></path><path stroke-width="0" stroke="none" fill="url(#color-2)" data-paper-data="{&quot;index&quot;:null}" d="M61.58908,283.49c0,-8.45351 6.85294,-15.30645 15.30646,-15.30645c8.45351,0 15.30645,6.85294 15.30645,15.30645c0,8.45351 -6.85294,15.30646 -15.30645,15.30646c-8.45351,0 -15.30646,-6.85294 -15.30646,-15.30646z"></path><g stroke-width="0" stroke="none" fill="#ffffff" data-paper-data="{&quot;index&quot;:null}"><path d="M80.15924,278.11996c0.43426,-0.93946 1.5479,-1.34902 2.48738,-0.91474c0.93946,0.43426 1.34902,1.5479 0.91474,2.48735c-0.0154,0.0333 -1.57281,3.39499 -1.57281,3.39499l-3.35077,-1.66879c0,0 1.50606,-3.26555 1.52143,-3.29883z"></path><path data-paper-data="{&quot;index&quot;:null}" d="M78.73525,281.20797l3.34278,1.68608c0,0 -2.84294,6.15766 -2.85833,6.19094c-0.43426,0.93948 -1.54791,1.34902 -2.48738,0.91475c-0.93948,-0.43426 -1.34902,-1.54791 -0.91475,-2.48738c0.01538,-0.03328 2.91764,-6.3044 2.91764,-6.3044z"></path></g><g stroke-width="0" stroke="none" fill="#ffffff" data-paper-data="{&quot;index&quot;:null}"><path d="M78.16585,286.70081c0.93946,0.43426 1.34901,1.54791 0.91474,2.48735c-0.43426,0.93946 -1.54792,1.34902 -2.48738,0.91474c-0.0333,-0.0154 -3.39499,-1.5728 -3.39499,-1.5728l1.66879,-3.35078c0,0 3.26556,1.50606 3.29884,1.52143z"></path><path data-paper-data="{&quot;index&quot;:null}" d="M78.29537,286.76412l-1.68608,3.34278c0,0 -6.15767,-2.84294 -6.19096,-2.85834c-0.93948,-0.43428 -1.34902,-1.5479 -0.91474,-2.48735c0.43428,-0.93948 1.54793,-1.34902 2.4874,-0.91475c0.0333,0.0154 6.3044,2.91766 6.3044,2.91766z"></path></g><g data-paper-data="{&quot;index&quot;:null}"><g stroke-width="6" stroke="#207dbb" fill="#4d4d4d"><g><g><path d="M37.14097,332.72289l-17.38349,-37.40927l16.20907,-7.53209c0,0 2.09982,-0.98676 4.42883,-0.0283c2.32901,0.95846 3.69257,3.3705 3.69257,3.3705l14.66398,31.55689z"></path><path data-paper-data="{&quot;index&quot;:null}" d="M27.60235,337.15535l-14.66398,-31.55689c0,0 -0.96432,-2.59756 -0.19507,-4.99573c0.76925,-2.39818 2.87748,-3.36681 2.87748,-3.36681l16.20907,-7.53209l17.38349,37.40928z"></path></g><g data-paper-data="{&quot;index&quot;:null}"><path d="M47.99863,299.53954l14.66398,31.55689c0,0 0.96432,2.59757 0.19507,4.99573c-0.76925,2.39818 -2.87747,3.36681 -2.87747,3.36681l-16.20907,7.53209l-17.38349,-37.40928z"></path><path data-paper-data="{&quot;index&quot;:null}" d="M38.45999,303.97195l17.38349,37.40928l-16.20907,7.53209c0,0 -2.09982,0.98676 -4.42883,0.02829c-2.32901,-0.95846 -3.69257,-3.3705 -3.69257,-3.3705l-14.66398,-31.5569z"></path></g></g><g><g><path d="M36.10363,330.49057l-17.38349,-37.40927l16.20907,-7.53209c0,0 2.09982,-0.98676 4.42881,-0.0283c2.32901,0.95846 3.69258,3.3705 3.69258,3.3705l14.66397,31.5569z"></path><path data-paper-data="{&quot;index&quot;:null}" d="M26.56504,334.92309l-14.66398,-31.55691c0,0 -0.96432,-2.59756 -0.19507,-4.99573c0.76925,-2.39818 2.87748,-3.36681 2.87748,-3.36681l16.20907,-7.5321l17.38349,37.40928z"></path></g><g data-paper-data="{&quot;index&quot;:null}"><path d="M46.96131,297.30723l14.66398,31.5569c0,0 0.96432,2.59756 0.19508,4.99573c-0.76925,2.39818 -2.87748,3.36681 -2.87748,3.36681l-16.20907,7.53209l-17.38349,-37.40928z"></path><path data-paper-data="{&quot;index&quot;:null}" d="M37.42265,301.73967l17.38349,37.40927l-16.20907,7.53209c0,0 -2.09983,0.98676 -4.42883,0.02831c-2.32901,-0.95846 -3.69257,-3.3705 -3.69257,-3.3705l-14.66398,-31.55689z"></path></g></g></g><g><g stroke-width="6" stroke="#ffffff" fill="#4d4d4d"><g><g><path d="M38.96316,328.89625l-17.38349,-37.40927l16.20907,-7.53209c0,0 2.09982,-0.98676 4.42881,-0.02829c2.32901,0.95846 3.69257,3.3705 3.69257,3.3705l14.66398,31.55689z"></path><path data-paper-data="{&quot;index&quot;:null}" d="M29.42455,333.32871l-14.66397,-31.55689c0,0 -0.96432,-2.59757 -0.19507,-4.99573c0.76925,-2.39818 2.87748,-3.36681 2.87748,-3.36681l16.20907,-7.53211l17.38349,37.40928z"></path></g><g data-paper-data="{&quot;index&quot;:null}"><path d="M49.82081,295.71294l14.66398,31.55689c0,0 0.96432,2.59757 0.19508,4.99573c-0.76925,2.39818 -2.87748,3.36681 -2.87748,3.36681l-16.20907,7.53209l-17.3835,-37.40928z"></path><path data-paper-data="{&quot;index&quot;:null}" d="M40.28218,300.14535l17.38349,37.40928l-16.20907,7.53209c0,0 -2.09982,0.98675 -4.42881,0.02829c-2.32901,-0.95846 -3.69258,-3.3705 -3.69258,-3.3705l-14.66397,-31.55689z"></path></g></g><g><g><path d="M37.92587,326.66393l-17.38349,-37.40927l16.20907,-7.53209c0,0 2.09982,-0.98675 4.42881,-0.02829c2.32901,0.95846 3.69257,3.3705 3.69257,3.3705l14.66398,31.55689z"></path><path data-paper-data="{&quot;index&quot;:null}" d="M28.38724,331.09636l-14.66397,-31.55689c0,0 -0.96432,-2.59756 -0.19507,-4.99573c0.76925,-2.39818 2.87748,-3.36681 2.87748,-3.36681l16.20907,-7.53209l17.38349,37.40928z"></path></g><g data-paper-data="{&quot;index&quot;:null}"><path d="M48.78351,293.48059l14.66398,31.55689c0,0 0.96432,2.59757 0.19508,4.99574c-0.76925,2.39818 -2.87748,3.36681 -2.87748,3.36681l-16.20907,7.53209l-17.3835,-37.40927z"></path><path data-paper-data="{&quot;index&quot;:null}" d="M39.24486,297.91303l17.38349,37.40927l-16.20907,7.53209c0,0 -2.09982,0.98676 -4.42881,0.02829c-2.32901,-0.95846 -3.69257,-3.3705 -3.69257,-3.3705l-14.66398,-31.55689z"></path></g></g></g><g stroke-width="0" stroke="none"><g fill="#131313"><g><path d="M38.96316,328.89625l-17.38349,-37.40927l16.20907,-7.53209c0,0 2.09982,-0.98676 4.42881,-0.02829c2.32901,0.95846 3.69257,3.3705 3.69257,3.3705l14.66398,31.55689z"></path><path data-paper-data="{&quot;index&quot;:null}" d="M29.42455,333.32871l-14.66397,-31.55689c0,0 -0.96432,-2.59757 -0.19507,-4.99573c0.76925,-2.39818 2.87748,-3.36681 2.87748,-3.36681l16.20907,-7.53211l17.38349,37.40928z"></path></g><g data-paper-data="{&quot;index&quot;:null}"><path d="M49.82084,295.71294l14.66398,31.55689c0,0 0.96432,2.59757 0.19507,4.99573c-0.76925,2.39818 -2.87748,3.36681 -2.87748,3.36681l-16.20907,7.53209l-17.38349,-37.40928z"></path><path data-paper-data="{&quot;index&quot;:null}" d="M40.28218,300.14538l17.38349,37.40927l-16.20907,7.53209c0,0 -2.09982,0.98676 -4.42881,0.0283c-2.32901,-0.95846 -3.69258,-3.3705 -3.69258,-3.3705l-14.66397,-31.55689z"></path></g></g><g fill="#222222"><g><path d="M37.92587,326.66393l-17.38349,-37.40927l16.20907,-7.53209c0,0 2.09982,-0.98675 4.42881,-0.02829c2.32901,0.95846 3.69257,3.3705 3.69257,3.3705l14.66398,31.55689z"></path><path data-paper-data="{&quot;index&quot;:null}" d="M28.38724,331.09636l-14.66397,-31.55689c0,0 -0.96432,-2.59756 -0.19507,-4.99573c0.76925,-2.39818 2.87748,-3.36681 2.87748,-3.36681l16.20907,-7.53209l17.38349,37.40928z"></path></g><g data-paper-data="{&quot;index&quot;:null}"><path d="M48.78351,293.48059l14.66398,31.55689c0,0 0.96432,2.59757 0.19508,4.99574c-0.76925,2.39818 -2.87748,3.36681 -2.87748,3.36681l-16.20907,7.53209l-17.3835,-37.40927z"></path><path data-paper-data="{&quot;index&quot;:null}" d="M39.24488,297.91303l17.38349,37.40927l-16.20907,7.53209c0,0 -2.09982,0.98676 -4.42881,0.02829c-2.32901,-0.95846 -3.69258,-3.3705 -3.69258,-3.3705l-14.66397,-31.55689z"></path></g></g></g><g stroke-width="0" stroke="none" fill="#ffffff" data-paper-data="{&quot;index&quot;:null}"><path d="M48.30868,298.23068l12.58717,27.0876c0,0 0.82773,2.2297 0.16744,4.2882c-0.66029,2.05854 -2.46994,2.88999 -2.46994,2.88999l-13.91342,6.46534l-14.92152,-32.11113z"></path><path data-paper-data="{&quot;index&quot;:null}" d="M40.12098,302.03539l14.92154,32.11112l-13.91343,6.46534c0,0 -1.8024,0.84698 -3.80157,0.02429c-1.99917,-0.8227 -3.1696,-2.89314 -3.1696,-2.89314l-12.58717,-27.08761z"></path></g><g stroke-width="0" stroke="none" fill="#ffffff"><path d="M37.2308,322.93129l-14.92154,-32.11113l13.91343,-6.46534c0,0 1.80241,-0.847 3.80156,-0.02427c1.99917,0.8227 3.1696,2.89314 3.1696,2.89314l12.58717,27.08761z"></path><path data-paper-data="{&quot;index&quot;:null}" d="M29.04309,326.73595l-12.58718,-27.08761c0,0 -0.82774,-2.2297 -0.16745,-4.28821c0.66029,-2.05852 2.46995,-2.88996 2.46995,-2.88996l13.91342,-6.46534l14.92152,32.11113z"></path></g><g stroke-width="0" stroke="none" fill="#222222"><path data-paper-data="{&quot;index&quot;:null}" d="M24.85627,294.67557c-1.30277,0.60537 -2.84961,0.04003 -3.45496,-1.26272c-0.54728,-1.17776 -1.07879,-2.3323 -1.07879,-2.3323c0,0 2.21651,-1.06459 2.34152,-1.1227c0.09555,-0.04441 6.21243,-2.86646 6.21243,-2.86646l2.21447,4.6751c0,0 -6.16163,2.87515 -6.23466,2.90908z"></path><path data-paper-data="{&quot;index&quot;:null}" d="M35.0182,287.08522c0.60537,1.30277 0.04003,2.84961 -1.26272,3.45497c-0.07301,0.03393 -6.24376,2.88945 -6.24376,2.88945l-2.14536,-4.70725l8.58151,-4.00804c0,0 0.46494,1.06808 1.07031,2.37085z"></path></g><path stroke-width="0" stroke="none" fill="url(#color-3)" d="M61.1868,329.40215c-0.46456,2.17478 -2.27951,3.08895 -2.27951,3.08895l-18.04388,8.3847c0,0 -1.63583,0.71158 -3.59379,-0.16643c-1.95797,-0.87802 -3.04606,-2.81116 -3.04606,-2.81116l-7.49225,-16.12331l26.67244,-12.65786l7.57451,16.30035c0,0 0.60467,2.13031 0.20854,3.98476z"></path><g stroke-width="0" stroke="none"><g><path fill="url(#color-4)" d="M43.12627,317.90011c-3.72741,1.73206 -6.32747,-2.53236 -6.32747,-2.53236l8.56031,-3.97782c0,0 1.49457,4.77813 -2.23286,6.51019z"></path><path fill="url(#color-5)" d="M45.35343,307.50264c0.53569,1.15281 0.0354,2.5216 -1.11737,3.05727c-1.15281,0.53569 -2.52159,0.0354 -3.05728,-1.11737c-0.53569,-1.15279 -0.0354,-2.52159 1.11739,-3.05725c1.15279,-0.53569 2.52158,-0.0354 3.05725,1.11737z"></path><path fill="url(#color-6)" d="M35.30557,312.17172c0.53569,1.15281 0.03542,2.52159 -1.11737,3.05728c-1.15279,0.53569 -2.52158,0.0354 -3.05725,-1.11739c-0.53569,-1.15279 -0.03541,-2.52159 1.11737,-3.05725c1.15281,-0.53569 2.52159,-0.03542 3.05725,1.11737z"></path></g><g><g><path fill="#222222" d="M42.68797,317.68948c-3.72744,1.73206 -6.32747,-2.53235 -6.32747,-2.53235l8.56031,-3.97783c0,0 1.49459,4.7781 -2.23285,6.5102z"></path><path fill="url(#color-7)" d="M45.0838,314.7061c0,0 -0.17942,0.96596 -0.63734,1.56992c-0.60188,0.79382 -1.44357,1.2501 -1.44357,1.2501c0,0 -0.30156,-0.3819 -0.42513,-0.64784c-0.40213,-0.86539 0.18052,-1.7054 1.04593,-2.10752c0.54383,-0.2527 1.46013,-0.0646 1.46013,-0.0646z"></path></g><g><path fill="#222222" d="M43.79776,310.34942c-1.15281,0.53569 -2.5216,0.0354 -3.05728,-1.11737c-0.53569,-1.15281 -0.0354,-2.52159 1.11737,-3.05728c1.15281,-0.53569 2.52159,-0.0354 3.05728,1.11737c0.53569,1.15281 0.03541,2.52159 -1.11737,3.05728z"></path><g fill="#ffffff"><path d="M42.05806,308.88398c-0.59343,0.27576 -1.29807,0.01821 -1.57382,-0.5752c-0.27576,-0.59343 -0.01821,-1.29806 0.5752,-1.57381c0.59343,-0.27576 1.29805,-0.01821 1.5738,0.5752c0.27576,0.59343 0.01821,1.29805 -0.5752,1.5738z"></path><path d="M43.67352,308.35514c-0.13995,0.06504 -0.30613,0.00429 -0.37117,-0.13567c-0.06504,-0.13995 -0.0043,-0.30614 0.13566,-0.37119c0.13995,-0.06504 0.30613,-0.00428 0.37117,0.13567c0.06504,0.13995 0.0043,0.30613 -0.13566,0.37117z"></path></g></g><g><path fill="#222222" d="M33.74991,315.01842c-1.15281,0.53569 -2.5216,0.03542 -3.05729,-1.11737c-0.53569,-1.15281 -0.03541,-2.5216 1.11738,-3.05728c1.15281,-0.53569 2.52159,-0.03541 3.05728,1.11738c0.53569,1.15281 0.03542,2.52159 -1.11737,3.05728z"></path><g fill="#ffffff"><path d="M31.81326,313.52137c-0.59344,0.27576 -1.29806,0.01821 -1.57381,-0.5752c-0.27576,-0.59343 -0.01821,-1.29807 0.5752,-1.57382c0.59344,-0.27576 1.29807,-0.01821 1.57382,0.5752c0.27576,0.59344 0.01821,1.29807 -0.5752,1.57382z"></path><path d="M33.42871,312.99253c-0.13997,0.06504 -0.30617,0.00428 -0.37121,-0.13567c-0.06502,-0.13995 -0.0043,-0.30613 0.13566,-0.37117c0.13997,-0.06504 0.30615,-0.00429 0.3712,0.13567c0.06504,0.13997 0.00428,0.30616 -0.13567,0.3712z"></path></g></g></g></g></g></g></g></g></g></svg>