<svg version="1.1" xmlns="http://www.w3.org/2000/svg" xmlns:xlink="http://www.w3.org/1999/xlink" width="616.05435" height="141.96956" viewBox="0,0,616.05435,141.96956"><defs><linearGradient x1="187.25736" y1="314.82979" x2="187.25736" y2="333.43776" gradientUnits="userSpaceOnUse" id="color-1"><stop offset="0" stop-color="#171717"/><stop offset="1" stop-color="#171717" stop-opacity="0"/></linearGradient><linearGradient x1="111.10638" y1="314.82979" x2="111.10638" y2="333.43776" gradientUnits="userSpaceOnUse" id="color-2"><stop offset="0" stop-color="#171717"/><stop offset="1" stop-color="#171717" stop-opacity="0"/></linearGradient><linearGradient x1="34.9554" y1="314.82979" x2="34.9554" y2="333.43776" gradientUnits="userSpaceOnUse" id="color-3"><stop offset="0" stop-color="#171717"/><stop offset="1" stop-color="#171717" stop-opacity="0"/></linearGradient><linearGradient x1="571.09893" y1="315.17301" x2="571.09893" y2="333.78098" gradientUnits="userSpaceOnUse" id="color-4"><stop offset="0" stop-color="#171717"/><stop offset="1" stop-color="#171717" stop-opacity="0"/></linearGradient><linearGradient x1="494.94795" y1="315.17301" x2="494.94795" y2="333.78098" gradientUnits="userSpaceOnUse" id="color-5"><stop offset="0" stop-color="#171717"/><stop offset="1" stop-color="#171717" stop-opacity="0"/></linearGradient><linearGradient x1="418.79697" y1="315.17301" x2="418.79697" y2="333.78098" gradientUnits="userSpaceOnUse" id="color-6"><stop offset="0" stop-color="#171717"/><stop offset="1" stop-color="#171717" stop-opacity="0"/></linearGradient><linearGradient x1="342.64599" y1="315.17301" x2="342.64599" y2="333.78098" gradientUnits="userSpaceOnUse" id="color-7"><stop offset="0" stop-color="#171717"/><stop offset="1" stop-color="#171717" stop-opacity="0"/></linearGradient><linearGradient x1="187.38728" y1="280.2982" x2="187.38728" y2="298.90617" gradientUnits="userSpaceOnUse" id="color-8"><stop offset="0" stop-color="#171717"/><stop offset="1" stop-color="#171717" stop-opacity="0"/></linearGradient><linearGradient x1="111.2363" y1="280.2982" x2="111.2363" y2="298.90617" gradientUnits="userSpaceOnUse" id="color-9"><stop offset="0" stop-color="#171717"/><stop offset="1" stop-color="#171717" stop-opacity="0"/></linearGradient><linearGradient x1="418.92689" y1="281.2982" x2="418.92689" y2="299.90617" gradientUnits="userSpaceOnUse" id="color-10"><stop offset="0" stop-color="#171717"/><stop offset="1" stop-color="#171717" stop-opacity="0"/></linearGradient><linearGradient x1="342.77591" y1="281.2982" x2="342.77591" y2="299.90617" gradientUnits="userSpaceOnUse" id="color-11"><stop offset="0" stop-color="#171717"/><stop offset="1" stop-color="#171717" stop-opacity="0"/></linearGradient><linearGradient x1="188.38728" y1="245.76662" x2="188.38728" y2="264.37458" gradientUnits="userSpaceOnUse" id="color-12"><stop offset="0" stop-color="#171717"/><stop offset="1" stop-color="#171717" stop-opacity="0"/></linearGradient><linearGradient x1="342.38728" y1="246.76662" x2="342.38728" y2="265.37459" gradientUnits="userSpaceOnUse" id="color-13"><stop offset="0" stop-color="#171717"/><stop offset="1" stop-color="#171717" stop-opacity="0"/></linearGradient></defs><g transform="translate(5.00001,-227.96269)"><g data-paper-data="{&quot;isPaintingLayer&quot;:true}" fill-rule="nonzero" stroke="#000000" stroke-width="3.5" stroke-linecap="butt" stroke-linejoin="miter" stroke-miterlimit="10" stroke-dasharray="" stroke-dashoffset="0" style="mix-blend-mode: normal"><g><path d="M149.05195,367.83903v-53.00924h76.41082v53.00924z" fill="#2b2b2b"/><path d="M149.05195,367.63055v-16.31454h76.41082v16.31454z" fill="#212121"/><path d="M149.05195,333.43776v-18.60796h76.41082v18.60796z" fill="url(#color-1)"/><path d="M149.05195,315.09041v-16.31455h76.41082v16.31455z" fill="#3d3d3d"/><path d="M149.05195,314.8819v-7.97484h76.41082v7.97484z" fill="#303030"/><path d="M221.60691,315.09041v-16.31455h3.85586v16.31455z" data-paper-data="{&quot;index&quot;:null}" fill="#111111"/><path d="M217.79936,315.09041v-16.31455h3.85586v16.31455z" data-paper-data="{&quot;index&quot;:null}" fill="#212121"/><path d="M149.10483,315.09041v-16.31455h3.85586v16.31455z" data-paper-data="{&quot;index&quot;:null}" fill="#111111"/><path d="M153.07102,315.09041v-16.31455h3.85586v16.31455z" data-paper-data="{&quot;index&quot;:null}" fill="#212121"/></g><g><path d="M72.90097,367.83903v-53.00924h76.41082v53.00924z" fill="#2b2b2b"/><path d="M72.90097,367.63055v-16.31454h76.41082v16.31454z" fill="#212121"/><path d="M72.90097,333.43776v-18.60796h76.41082v18.60796z" fill="url(#color-2)"/><path d="M72.90097,315.09041v-16.31455h76.41082v16.31455z" fill="#3d3d3d"/><path d="M72.90097,314.8819v-7.97484h76.41082v7.97484z" fill="#303030"/><path d="M145.45593,315.09041v-16.31455h3.85586v16.31455z" data-paper-data="{&quot;index&quot;:null}" fill="#111111"/><path d="M141.64838,315.09041v-16.31455h3.85586v16.31455z" data-paper-data="{&quot;index&quot;:null}" fill="#212121"/><path d="M72.95385,315.09041v-16.31455h3.85586v16.31455z" data-paper-data="{&quot;index&quot;:null}" fill="#111111"/><path d="M76.92005,315.09041v-16.31455h3.85586v16.31455z" data-paper-data="{&quot;index&quot;:null}" fill="#212121"/></g><g><path d="M-3.25001,367.83903v-53.00924h76.41082v53.00924z" fill="#2b2b2b"/><path d="M-3.25001,367.63055v-16.31455h76.41082v16.31455z" fill="#212121"/><path d="M-3.25001,333.43776v-18.60797h76.41082v18.60797z" fill="url(#color-3)"/><path d="M-3.25001,315.09041v-16.31454h76.41082v16.31454z" fill="#3d3d3d"/><path d="M-3.25001,314.8819v-7.97484h76.41082v7.97484z" fill="#303030"/><path d="M69.30495,315.09041v-16.31454h3.85586v16.31454z" data-paper-data="{&quot;index&quot;:null}" fill="#111111"/><path d="M65.4974,315.09041v-16.31454h3.85586v16.31454z" data-paper-data="{&quot;index&quot;:null}" fill="#212121"/><path d="M-3.19713,315.09041v-16.31454h3.85586v16.31454z" data-paper-data="{&quot;index&quot;:null}" fill="#111111"/><path d="M0.76907,315.09041v-16.31454h3.85586v16.31454z" data-paper-data="{&quot;index&quot;:null}" fill="#212121"/></g><g><path d="M532.89352,368.18225v-53.00923h76.41082v53.00923z" fill="#2b2b2b"/><path d="M532.89352,367.97377v-16.31454h76.41082v16.31454z" fill="#212121"/><path d="M532.89352,333.78098v-18.60796h76.41082v18.60796z" fill="url(#color-4)"/><path d="M532.89352,315.43363v-16.31455h76.41082v16.31455z" fill="#3d3d3d"/><path d="M532.89352,315.22511v-7.97484h76.41082v7.97484z" fill="#303030"/><path d="M605.44848,315.43363v-16.31455h3.85586v16.31455z" data-paper-data="{&quot;index&quot;:null}" fill="#111111"/><path d="M601.64092,315.43363v-16.31455h3.85586v16.31455z" data-paper-data="{&quot;index&quot;:null}" fill="#212121"/><path d="M532.9464,315.43363v-16.31455h3.85586v16.31455z" data-paper-data="{&quot;index&quot;:null}" fill="#111111"/><path d="M536.91259,315.43363v-16.31455h3.85586v16.31455z" data-paper-data="{&quot;index&quot;:null}" fill="#212121"/></g><g><path d="M456.74254,368.18225v-53.00923h76.41082v53.00923z" fill="#2b2b2b"/><path d="M456.74254,367.97377v-16.31454h76.41082v16.31454z" fill="#212121"/><path d="M456.74254,333.78098v-18.60796h76.41082v18.60796z" fill="url(#color-5)"/><path d="M456.74254,315.43363v-16.31455h76.41082v16.31455z" fill="#3d3d3d"/><path d="M456.74254,315.22511v-7.97484h76.41082v7.97484z" fill="#303030"/><path d="M529.2975,315.43363v-16.31455h3.85586v16.31455z" data-paper-data="{&quot;index&quot;:null}" fill="#111111"/><path d="M525.48995,315.43363v-16.31455h3.85586v16.31455z" data-paper-data="{&quot;index&quot;:null}" fill="#212121"/><path d="M456.79542,315.43363v-16.31455h3.85586v16.31455z" data-paper-data="{&quot;index&quot;:null}" fill="#111111"/><path d="M460.76162,315.43363v-16.31455h3.85586v16.31455z" data-paper-data="{&quot;index&quot;:null}" fill="#212121"/></g><g><path d="M380.59156,368.18225v-53.00923h76.41082v53.00923z" fill="#2b2b2b"/><path d="M380.59156,367.97377v-16.31454h76.41082v16.31454z" fill="#212121"/><path d="M380.59156,333.78098v-18.60796h76.41082v18.60796z" fill="url(#color-6)"/><path d="M380.59156,315.43363v-16.31455h76.41082v16.31455z" fill="#3d3d3d"/><path d="M380.59156,315.22511v-7.97484h76.41082v7.97484z" fill="#303030"/><path d="M453.14652,315.43363v-16.31455h3.85586v16.31455z" data-paper-data="{&quot;index&quot;:null}" fill="#111111"/><path d="M449.33897,315.43363v-16.31455h3.85586v16.31455z" data-paper-data="{&quot;index&quot;:null}" fill="#212121"/><path d="M380.64445,315.43363v-16.31455h3.85586v16.31455z" data-paper-data="{&quot;index&quot;:null}" fill="#111111"/><path d="M384.61064,315.43363v-16.31455h3.85586v16.31455z" data-paper-data="{&quot;index&quot;:null}" fill="#212121"/></g><g><path d="M304.44058,368.18225v-53.00923h76.41082v53.00923z" fill="#2b2b2b"/><path d="M304.44058,367.97377v-16.31455h76.41082v16.31455z" fill="#212121"/><path d="M304.44058,333.78098v-18.60796h76.41082v18.60796z" fill="url(#color-7)"/><path d="M304.44058,315.43363v-16.31454h76.41082v16.31454z" fill="#3d3d3d"/><path d="M304.44058,315.22511v-7.97484h76.41082v7.97484z" fill="#303030"/><path d="M376.99554,315.43363v-16.31454h3.85586v16.31454z" data-paper-data="{&quot;index&quot;:null}" fill="#111111"/><path d="M373.18799,315.43363v-16.31454h3.85586v16.31454z" data-paper-data="{&quot;index&quot;:null}" fill="#212121"/><path d="M304.49347,315.43363v-16.31454h3.85586v16.31454z" data-paper-data="{&quot;index&quot;:null}" fill="#111111"/><path d="M308.45966,315.43363v-16.31454h3.85586v16.31454z" data-paper-data="{&quot;index&quot;:null}" fill="#212121"/></g><g><path d="M149.18187,333.30744v-53.00924h76.41082v53.00924z" fill="#2b2b2b"/><path d="M149.18187,333.09896v-16.31454h76.41082v16.31454z" fill="#212121"/><path d="M149.18187,298.90617v-18.60796h76.41082v18.60796z" fill="url(#color-8)"/><path d="M149.18187,280.55882v-16.31455h76.41082v16.31455z" fill="#3d3d3d"/><path d="M149.18187,280.35031v-7.97484h76.41082v7.97484z" fill="#303030"/><path d="M221.73683,280.55882v-16.31455h3.85586v16.31455z" data-paper-data="{&quot;index&quot;:null}" fill="#111111"/><path d="M217.92928,280.55882v-16.31455h3.85586v16.31455z" data-paper-data="{&quot;index&quot;:null}" fill="#212121"/><path d="M149.23475,280.55882v-16.31455h3.85586v16.31455z" data-paper-data="{&quot;index&quot;:null}" fill="#111111"/><path d="M153.20094,280.55882v-16.31455h3.85586v16.31455z" data-paper-data="{&quot;index&quot;:null}" fill="#212121"/></g><g><path d="M73.03089,333.30744v-53.00924h76.41082v53.00924z" fill="#2b2b2b"/><path d="M73.03089,333.09896v-16.31454h76.41082v16.31454z" fill="#212121"/><path d="M73.03089,298.90617v-18.60796h76.41082v18.60796z" fill="url(#color-9)"/><path d="M73.03089,280.55882v-16.31455h76.41082v16.31455z" fill="#3d3d3d"/><path d="M73.03089,280.35031v-7.97484h76.41082v7.97484z" fill="#303030"/><path d="M145.58585,280.55882v-16.31455h3.85586v16.31455z" data-paper-data="{&quot;index&quot;:null}" fill="#111111"/><path d="M141.7783,280.55882v-16.31455h3.85586v16.31455z" data-paper-data="{&quot;index&quot;:null}" fill="#212121"/><path d="M73.08377,280.55882v-16.31455h3.85586v16.31455z" data-paper-data="{&quot;index&quot;:null}" fill="#111111"/><path d="M77.04997,280.55882v-16.31455h3.85586v16.31455z" data-paper-data="{&quot;index&quot;:null}" fill="#212121"/></g><g><path d="M380.72148,334.30744v-53.00924h76.41082v53.00924z" fill="#2b2b2b"/><path d="M380.72148,334.09896v-16.31454h76.41082v16.31454z" fill="#212121"/><path d="M380.72148,299.90617v-18.60796h76.41082v18.60796z" fill="url(#color-10)"/><path d="M380.72148,281.55882v-16.31455h76.41082v16.31455z" fill="#3d3d3d"/><path d="M380.72148,281.35031v-7.97484h76.41082v7.97484z" fill="#303030"/><path d="M453.27644,281.55882v-16.31455h3.85586v16.31455z" data-paper-data="{&quot;index&quot;:null}" fill="#111111"/><path d="M449.46889,281.55882v-16.31455h3.85586v16.31455z" data-paper-data="{&quot;index&quot;:null}" fill="#212121"/><path d="M380.77436,281.55882v-16.31455h3.85586v16.31455z" data-paper-data="{&quot;index&quot;:null}" fill="#111111"/><path d="M384.74055,281.55882v-16.31455h3.85586v16.31455z" data-paper-data="{&quot;index&quot;:null}" fill="#212121"/></g><g><path d="M304.5705,334.30744v-53.00924h76.41082v53.00924z" fill="#2b2b2b"/><path d="M304.5705,334.09896v-16.31454h76.41082v16.31454z" fill="#212121"/><path d="M304.5705,299.90617v-18.60796h76.41082v18.60796z" fill="url(#color-11)"/><path d="M304.5705,281.55882v-16.31455h76.41082v16.31455z" fill="#3d3d3d"/><path d="M304.5705,281.35031v-7.97484h76.41082v7.97484z" fill="#303030"/><path d="M377.12546,281.55882v-16.31455h3.85586v16.31455z" data-paper-data="{&quot;index&quot;:null}" fill="#111111"/><path d="M373.31791,281.55882v-16.31455h3.85586v16.31455z" data-paper-data="{&quot;index&quot;:null}" fill="#212121"/><path d="M304.62338,281.55882v-16.31455h3.85586v16.31455z" data-paper-data="{&quot;index&quot;:null}" fill="#111111"/><path d="M308.58958,281.55882v-16.31455h3.85586v16.31455z" data-paper-data="{&quot;index&quot;:null}" fill="#212121"/></g><g><path d="M150.18187,298.77585v-53.00924h76.41082v53.00924z" fill="#2b2b2b"/><path d="M150.18187,298.56737v-16.31454h76.41082v16.31454z" fill="#212121"/><path d="M150.18187,264.37458v-18.60796h76.41082v18.60796z" fill="url(#color-12)"/><path d="M150.18187,246.02724v-16.31455h76.41082v16.31455z" fill="#3d3d3d"/><path d="M150.18187,245.81872v-7.97484h76.41082v7.97484z" fill="#303030"/><path d="M222.73683,246.02724v-16.31455h3.85586v16.31455z" data-paper-data="{&quot;index&quot;:null}" fill="#111111"/><path d="M218.92928,246.02724v-16.31455h3.85586v16.31455z" data-paper-data="{&quot;index&quot;:null}" fill="#212121"/><path d="M150.23475,246.02724v-16.31455h3.85586v16.31455z" data-paper-data="{&quot;index&quot;:null}" fill="#111111"/><path d="M154.20094,246.02724v-16.31455h3.85586v16.31455z" data-paper-data="{&quot;index&quot;:null}" fill="#212121"/></g><g><path d="M304.18187,299.77585v-53.00924h76.41082v53.00924z" fill="#2b2b2b"/><path d="M304.18187,299.56738v-16.31454h76.41082v16.31454z" fill="#212121"/><path d="M304.18187,265.37459v-18.60796h76.41082v18.60796z" fill="url(#color-13)"/><path d="M304.18187,247.02724v-16.31455h76.41082v16.31455z" fill="#3d3d3d"/><path d="M304.18187,246.81873v-7.97484h76.41082v7.97484z" fill="#303030"/><path d="M376.73683,247.02724v-16.31455h3.85586v16.31455z" data-paper-data="{&quot;index&quot;:null}" fill="#111111"/><path d="M372.92928,247.02724v-16.31455h3.85586v16.31455z" data-paper-data="{&quot;index&quot;:null}" fill="#212121"/><path d="M304.23475,247.02724v-16.31455h3.85586v16.31455z" data-paper-data="{&quot;index&quot;:null}" fill="#111111"/><path d="M308.20094,247.02724v-16.31455h3.85586v16.31455z" data-paper-data="{&quot;index&quot;:null}" fill="#212121"/></g></g></g></svg>