<svg version="1.1" xmlns="http://www.w3.org/2000/svg" xmlns:xlink="http://www.w3.org/1999/xlink" width="616.05435" height="237.38167" viewBox="0,0,616.05435,237.38167"><defs><linearGradient x1="263.40834" y1="314.82978" x2="263.40834" y2="333.43775" gradientUnits="userSpaceOnUse" id="color-1"><stop offset="0" stop-color="#171717"/><stop offset="1" stop-color="#171717" stop-opacity="0"/></linearGradient><linearGradient x1="187.25736" y1="314.82978" x2="187.25736" y2="333.43775" gradientUnits="userSpaceOnUse" id="color-2"><stop offset="0" stop-color="#171717"/><stop offset="1" stop-color="#171717" stop-opacity="0"/></linearGradient><linearGradient x1="111.10638" y1="314.82978" x2="111.10638" y2="333.43775" gradientUnits="userSpaceOnUse" id="color-3"><stop offset="0" stop-color="#171717"/><stop offset="1" stop-color="#171717" stop-opacity="0"/></linearGradient><linearGradient x1="34.9554" y1="314.82978" x2="34.9554" y2="333.43775" gradientUnits="userSpaceOnUse" id="color-4"><stop offset="0" stop-color="#171717"/><stop offset="1" stop-color="#171717" stop-opacity="0"/></linearGradient><linearGradient x1="187.25736" y1="276.92057" x2="187.25736" y2="295.52854" gradientUnits="userSpaceOnUse" id="color-5"><stop offset="0" stop-color="#171717"/><stop offset="1" stop-color="#171717" stop-opacity="0"/></linearGradient><linearGradient x1="571.09893" y1="315.17301" x2="571.09893" y2="333.78097" gradientUnits="userSpaceOnUse" id="color-6"><stop offset="0" stop-color="#171717"/><stop offset="1" stop-color="#171717" stop-opacity="0"/></linearGradient><linearGradient x1="494.94795" y1="315.17301" x2="494.94795" y2="333.78097" gradientUnits="userSpaceOnUse" id="color-7"><stop offset="0" stop-color="#171717"/><stop offset="1" stop-color="#171717" stop-opacity="0"/></linearGradient><linearGradient x1="418.79697" y1="315.17301" x2="418.79697" y2="333.78097" gradientUnits="userSpaceOnUse" id="color-8"><stop offset="0" stop-color="#171717"/><stop offset="1" stop-color="#171717" stop-opacity="0"/></linearGradient><linearGradient x1="342.64599" y1="315.17301" x2="342.64599" y2="333.78097" gradientUnits="userSpaceOnUse" id="color-9"><stop offset="0" stop-color="#171717"/><stop offset="1" stop-color="#171717" stop-opacity="0"/></linearGradient><linearGradient x1="263.40834" y1="276.67566" x2="263.40834" y2="295.28362" gradientUnits="userSpaceOnUse" id="color-10"><stop offset="0" stop-color="#171717"/><stop offset="1" stop-color="#171717" stop-opacity="0"/></linearGradient><linearGradient x1="263.40834" y1="243.73499" x2="263.40834" y2="262.34295" gradientUnits="userSpaceOnUse" id="color-11"><stop offset="0" stop-color="#171717"/><stop offset="1" stop-color="#171717" stop-opacity="0"/></linearGradient><linearGradient x1="417.42524" y1="260.22302" x2="417.42524" y2="278.83098" gradientUnits="userSpaceOnUse" id="color-12"><stop offset="0" stop-color="#171717"/><stop offset="1" stop-color="#171717" stop-opacity="0"/></linearGradient><linearGradient x1="341.27427" y1="260.22302" x2="341.27427" y2="278.83098" gradientUnits="userSpaceOnUse" id="color-13"><stop offset="0" stop-color="#171717"/><stop offset="1" stop-color="#171717" stop-opacity="0"/></linearGradient><linearGradient x1="341.27427" y1="222.31381" x2="341.27427" y2="240.92177" gradientUnits="userSpaceOnUse" id="color-14"><stop offset="0" stop-color="#171717"/><stop offset="1" stop-color="#171717" stop-opacity="0"/></linearGradient><linearGradient x1="417.42524" y1="222.0689" x2="417.42524" y2="240.67686" gradientUnits="userSpaceOnUse" id="color-15"><stop offset="0" stop-color="#171717"/><stop offset="1" stop-color="#171717" stop-opacity="0"/></linearGradient><linearGradient x1="417.42524" y1="189.12823" x2="417.42524" y2="207.73619" gradientUnits="userSpaceOnUse" id="color-16"><stop offset="0" stop-color="#171717"/><stop offset="1" stop-color="#171717" stop-opacity="0"/></linearGradient><linearGradient x1="495.63382" y1="260.56624" x2="495.63382" y2="279.1742" gradientUnits="userSpaceOnUse" id="color-17"><stop offset="0" stop-color="#171717"/><stop offset="1" stop-color="#171717" stop-opacity="0"/></linearGradient><linearGradient x1="494.26209" y1="205.61626" x2="494.26209" y2="224.22422" gradientUnits="userSpaceOnUse" id="color-18"><stop offset="0" stop-color="#171717"/><stop offset="1" stop-color="#171717" stop-opacity="0"/></linearGradient><linearGradient x1="494.26209" y1="167.46213" x2="494.26209" y2="186.07009" gradientUnits="userSpaceOnUse" id="color-19"><stop offset="0" stop-color="#171717"/><stop offset="1" stop-color="#171717" stop-opacity="0"/></linearGradient><linearGradient x1="494.26209" y1="150.35451" x2="494.26209" y2="168.96247" gradientUnits="userSpaceOnUse" id="color-20"><stop offset="0" stop-color="#171717"/><stop offset="1" stop-color="#171717" stop-opacity="0"/></linearGradient></defs><g transform="translate(5.00001,-132.55057)"><g data-paper-data="{&quot;isPaintingLayer&quot;:true}" fill-rule="nonzero" stroke="#000000" stroke-width="3.5" stroke-linecap="butt" stroke-linejoin="miter" stroke-miterlimit="10" stroke-dasharray="" stroke-dashoffset="0" style="mix-blend-mode: normal"><g><path d="M225.20293,367.83902v-53.00924h76.41082v53.00924z" fill="#2b2b2b"/><path d="M225.20293,367.63054v-16.31454h76.41082v16.31454z" fill="#212121"/><path d="M225.20293,333.43775v-18.60796h76.41082v18.60796z" fill="url(#color-1)"/><path d="M225.20293,315.0904v-16.31455h76.41082v16.31455z" fill="#3d3d3d"/><path d="M225.20293,314.88189v-7.97484h76.41082v7.97484z" fill="#303030"/><path d="M297.75788,315.0904v-16.31455h3.85586v16.31455z" data-paper-data="{&quot;index&quot;:null}" fill="#111111"/><path d="M293.95033,315.0904v-16.31455h3.85586v16.31455z" data-paper-data="{&quot;index&quot;:null}" fill="#212121"/><path d="M225.2558,315.0904v-16.31455h3.85586v16.31455z" data-paper-data="{&quot;index&quot;:null}" fill="#111111"/><path d="M229.222,315.0904v-16.31455h3.85586v16.31455z" data-paper-data="{&quot;index&quot;:null}" fill="#212121"/></g><g><path d="M149.05195,367.83902v-53.00924h76.41082v53.00924z" fill="#2b2b2b"/><path d="M149.05195,367.63054v-16.31454h76.41082v16.31454z" fill="#212121"/><path d="M149.05195,333.43775v-18.60796h76.41082v18.60796z" fill="url(#color-2)"/><path d="M149.05195,315.0904v-16.31455h76.41082v16.31455z" fill="#3d3d3d"/><path d="M149.05195,314.88189v-7.97484h76.41082v7.97484z" fill="#303030"/><path d="M221.60691,315.0904v-16.31455h3.85586v16.31455z" data-paper-data="{&quot;index&quot;:null}" fill="#111111"/><path d="M217.79936,315.0904v-16.31455h3.85586v16.31455z" data-paper-data="{&quot;index&quot;:null}" fill="#212121"/><path d="M149.10483,315.0904v-16.31455h3.85586v16.31455z" data-paper-data="{&quot;index&quot;:null}" fill="#111111"/><path d="M153.07102,315.0904v-16.31455h3.85586v16.31455z" data-paper-data="{&quot;index&quot;:null}" fill="#212121"/></g><g><path d="M72.90097,367.83902v-53.00924h76.41082v53.00924z" fill="#2b2b2b"/><path d="M72.90097,367.63054v-16.31454h76.41082v16.31454z" fill="#212121"/><path d="M72.90097,333.43775v-18.60796h76.41082v18.60796z" fill="url(#color-3)"/><path d="M72.90097,315.0904v-16.31455h76.41082v16.31455z" fill="#3d3d3d"/><path d="M72.90097,314.88189v-7.97484h76.41082v7.97484z" fill="#303030"/><path d="M145.45593,315.0904v-16.31455h3.85586v16.31455z" data-paper-data="{&quot;index&quot;:null}" fill="#111111"/><path d="M141.64838,315.0904v-16.31455h3.85586v16.31455z" data-paper-data="{&quot;index&quot;:null}" fill="#212121"/><path d="M72.95385,315.0904v-16.31455h3.85586v16.31455z" data-paper-data="{&quot;index&quot;:null}" fill="#111111"/><path d="M76.92005,315.0904v-16.31455h3.85586v16.31455z" data-paper-data="{&quot;index&quot;:null}" fill="#212121"/></g><g><path d="M-3.25001,367.83902v-53.00924h76.41082v53.00924z" fill="#2b2b2b"/><path d="M-3.25001,367.63054v-16.31455h76.41082v16.31455z" fill="#212121"/><path d="M-3.25001,333.43775v-18.60797h76.41082v18.60797z" fill="url(#color-4)"/><path d="M-3.25001,315.0904v-16.31454h76.41082v16.31454z" fill="#3d3d3d"/><path d="M-3.25001,314.88189v-7.97484h76.41082v7.97484z" fill="#303030"/><path d="M69.30495,315.0904v-16.31454h3.85586v16.31454z" data-paper-data="{&quot;index&quot;:null}" fill="#111111"/><path d="M65.4974,315.0904v-16.31454h3.85586v16.31454z" data-paper-data="{&quot;index&quot;:null}" fill="#212121"/><path d="M-3.19713,315.0904v-16.31454h3.85586v16.31454z" data-paper-data="{&quot;index&quot;:null}" fill="#111111"/><path d="M0.76907,315.0904v-16.31454h3.85586v16.31454z" data-paper-data="{&quot;index&quot;:null}" fill="#212121"/></g><g><path d="M149.05195,329.92981v-53.00924h76.41082v53.00924z" fill="#2b2b2b"/><path d="M149.05195,329.72133v-16.31454h76.41082v16.31454z" fill="#212121"/><path d="M149.05195,295.52854v-18.60796h76.41082v18.60796z" fill="url(#color-5)"/><path d="M149.05195,277.18119v-16.31455h76.41082v16.31455z" fill="#3d3d3d"/><path d="M149.05195,276.97268v-7.97484h76.41082v7.97484z" fill="#303030"/><path d="M221.60691,277.18119v-16.31455h3.85586v16.31455z" data-paper-data="{&quot;index&quot;:null}" fill="#111111"/><path d="M217.79936,277.18119v-16.31455h3.85586v16.31455z" data-paper-data="{&quot;index&quot;:null}" fill="#212121"/><path d="M149.10483,277.18119v-16.31455h3.85586v16.31455z" data-paper-data="{&quot;index&quot;:null}" fill="#111111"/><path d="M153.07102,277.18119v-16.31455h3.85586v16.31455z" data-paper-data="{&quot;index&quot;:null}" fill="#212121"/></g><g><path d="M532.89352,368.18224v-53.00923h76.41082v53.00923z" fill="#2b2b2b"/><path d="M532.89352,367.97376v-16.31454h76.41082v16.31454z" fill="#212121"/><path d="M532.89352,333.78097v-18.60796h76.41082v18.60796z" fill="url(#color-6)"/><path d="M532.89352,315.43362v-16.31455h76.41082v16.31455z" fill="#3d3d3d"/><path d="M532.89352,315.22511v-7.97484h76.41082v7.97484z" fill="#303030"/><path d="M605.44848,315.43362v-16.31455h3.85586v16.31455z" data-paper-data="{&quot;index&quot;:null}" fill="#111111"/><path d="M601.64092,315.43362v-16.31455h3.85586v16.31455z" data-paper-data="{&quot;index&quot;:null}" fill="#212121"/><path d="M532.9464,315.43362v-16.31455h3.85586v16.31455z" data-paper-data="{&quot;index&quot;:null}" fill="#111111"/><path d="M536.91259,315.43362v-16.31455h3.85586v16.31455z" data-paper-data="{&quot;index&quot;:null}" fill="#212121"/></g><g><path d="M456.74254,368.18224v-53.00923h76.41082v53.00923z" fill="#2b2b2b"/><path d="M456.74254,367.97376v-16.31454h76.41082v16.31454z" fill="#212121"/><path d="M456.74254,333.78097v-18.60796h76.41082v18.60796z" fill="url(#color-7)"/><path d="M456.74254,315.43362v-16.31455h76.41082v16.31455z" fill="#3d3d3d"/><path d="M456.74254,315.22511v-7.97484h76.41082v7.97484z" fill="#303030"/><path d="M529.2975,315.43362v-16.31455h3.85586v16.31455z" data-paper-data="{&quot;index&quot;:null}" fill="#111111"/><path d="M525.48995,315.43362v-16.31455h3.85586v16.31455z" data-paper-data="{&quot;index&quot;:null}" fill="#212121"/><path d="M456.79542,315.43362v-16.31455h3.85586v16.31455z" data-paper-data="{&quot;index&quot;:null}" fill="#111111"/><path d="M460.76162,315.43362v-16.31455h3.85586v16.31455z" data-paper-data="{&quot;index&quot;:null}" fill="#212121"/></g><g><path d="M380.59156,368.18224v-53.00923h76.41082v53.00923z" fill="#2b2b2b"/><path d="M380.59156,367.97376v-16.31454h76.41082v16.31454z" fill="#212121"/><path d="M380.59156,333.78097v-18.60796h76.41082v18.60796z" fill="url(#color-8)"/><path d="M380.59156,315.43362v-16.31455h76.41082v16.31455z" fill="#3d3d3d"/><path d="M380.59156,315.22511v-7.97484h76.41082v7.97484z" fill="#303030"/><path d="M453.14652,315.43362v-16.31455h3.85586v16.31455z" data-paper-data="{&quot;index&quot;:null}" fill="#111111"/><path d="M449.33897,315.43362v-16.31455h3.85586v16.31455z" data-paper-data="{&quot;index&quot;:null}" fill="#212121"/><path d="M380.64445,315.43362v-16.31455h3.85586v16.31455z" data-paper-data="{&quot;index&quot;:null}" fill="#111111"/><path d="M384.61064,315.43362v-16.31455h3.85586v16.31455z" data-paper-data="{&quot;index&quot;:null}" fill="#212121"/></g><g><path d="M304.44058,368.18224v-53.00923h76.41082v53.00923z" fill="#2b2b2b"/><path d="M304.44058,367.97376v-16.31455h76.41082v16.31455z" fill="#212121"/><path d="M304.44058,333.78097v-18.60796h76.41082v18.60796z" fill="url(#color-9)"/><path d="M304.44058,315.43362v-16.31454h76.41082v16.31454z" fill="#3d3d3d"/><path d="M304.44058,315.22511v-7.97484h76.41082v7.97484z" fill="#303030"/><path d="M376.99554,315.43362v-16.31454h3.85586v16.31454z" data-paper-data="{&quot;index&quot;:null}" fill="#111111"/><path d="M373.18799,315.43362v-16.31454h3.85586v16.31454z" data-paper-data="{&quot;index&quot;:null}" fill="#212121"/><path d="M304.49347,315.43362v-16.31454h3.85586v16.31454z" data-paper-data="{&quot;index&quot;:null}" fill="#111111"/><path d="M308.45966,315.43362v-16.31454h3.85586v16.31454z" data-paper-data="{&quot;index&quot;:null}" fill="#212121"/></g><g><path d="M225.20293,329.6849v-53.00923h76.41082v53.00923z" fill="#2b2b2b"/><path d="M225.20293,329.47641v-16.31454h76.41082v16.31454z" fill="#212121"/><path d="M225.20293,295.28362v-18.60796h76.41082v18.60796z" fill="url(#color-10)"/><path d="M225.20293,276.93627v-16.31455h76.41082v16.31455z" fill="#3d3d3d"/><path d="M225.20293,276.72777v-7.97484h76.41082v7.97484z" fill="#303030"/><path d="M297.75788,276.93627v-16.31455h3.85586v16.31455z" data-paper-data="{&quot;index&quot;:null}" fill="#111111"/><path d="M293.95034,276.93627v-16.31455h3.85586v16.31455z" data-paper-data="{&quot;index&quot;:null}" fill="#212121"/><path d="M225.25581,276.93627v-16.31455h3.85586v16.31455z" data-paper-data="{&quot;index&quot;:null}" fill="#111111"/><path d="M229.222,276.93627v-16.31455h3.85585v16.31455z" data-paper-data="{&quot;index&quot;:null}" fill="#212121"/></g><g><path d="M225.20293,296.74423v-53.00923h76.41082v53.00923z" fill="#2b2b2b"/><path d="M225.20293,296.53574v-16.31454h76.41082v16.31454z" fill="#212121"/><path d="M225.20293,262.34295v-18.60796h76.41082v18.60796z" fill="url(#color-11)"/><path d="M225.20293,243.9956v-16.31455h76.41082v16.31455z" fill="#3d3d3d"/><path d="M225.20293,243.7871v-7.97484h76.41082v7.97484z" fill="#303030"/><path d="M297.75788,243.9956v-16.31455h3.85586v16.31455z" data-paper-data="{&quot;index&quot;:null}" fill="#111111"/><path d="M293.95034,243.9956v-16.31455h3.85585v16.31455z" data-paper-data="{&quot;index&quot;:null}" fill="#212121"/><path d="M225.25581,243.9956v-16.31455h3.85586v16.31455z" data-paper-data="{&quot;index&quot;:null}" fill="#111111"/><path d="M229.222,243.9956v-16.31455h3.85586v16.31455z" data-paper-data="{&quot;index&quot;:null}" fill="#212121"/></g><g><path d="M379.21983,313.23226v-53.00923h76.41082v53.00923z" fill="#2b2b2b"/><path d="M379.21983,313.02377v-16.31454h76.41082v16.31454z" fill="#212121"/><path d="M379.21983,278.83098v-18.60796h76.41082v18.60796z" fill="url(#color-12)"/><path d="M379.21983,260.48363v-16.31455h76.41082v16.31455z" fill="#3d3d3d"/><path d="M379.21983,260.27513v-7.97484h76.41082v7.97484z" fill="#303030"/><path d="M451.77479,260.48363v-16.31455h3.85586v16.31455z" data-paper-data="{&quot;index&quot;:null}" fill="#111111"/><path d="M447.96724,260.48363v-16.31455h3.85586v16.31455z" data-paper-data="{&quot;index&quot;:null}" fill="#212121"/><path d="M379.27271,260.48363v-16.31455h3.85586v16.31455z" data-paper-data="{&quot;index&quot;:null}" fill="#111111"/><path d="M383.23891,260.48363v-16.31455h3.85586v16.31455z" data-paper-data="{&quot;index&quot;:null}" fill="#212121"/></g><g><path d="M303.06886,313.23226v-53.00923h76.41082v53.00923z" fill="#2b2b2b"/><path d="M303.06886,313.02377v-16.31454h76.41082v16.31454z" fill="#212121"/><path d="M303.06886,278.83098v-18.60796h76.41082v18.60796z" fill="url(#color-13)"/><path d="M303.06886,260.48363v-16.31455h76.41082v16.31455z" fill="#3d3d3d"/><path d="M303.06886,260.27513v-7.97484h76.41082v7.97484z" fill="#303030"/><path d="M375.62381,260.48363v-16.31455h3.85586v16.31455z" data-paper-data="{&quot;index&quot;:null}" fill="#111111"/><path d="M371.81627,260.48363v-16.31455h3.85585v16.31455z" data-paper-data="{&quot;index&quot;:null}" fill="#212121"/><path d="M303.12174,260.48363v-16.31455h3.85586v16.31455z" data-paper-data="{&quot;index&quot;:null}" fill="#111111"/><path d="M307.08793,260.48363v-16.31455h3.85586v16.31455z" data-paper-data="{&quot;index&quot;:null}" fill="#212121"/></g><g><path d="M303.06886,275.32305v-53.00924h76.41082v53.00924z" fill="#2b2b2b"/><path d="M303.06886,275.11456v-16.31454h76.41082v16.31454z" fill="#212121"/><path d="M303.06886,240.92177v-18.60796h76.41082v18.60796z" fill="url(#color-14)"/><path d="M303.06886,222.57442v-16.31455h76.41082v16.31455z" fill="#3d3d3d"/><path d="M303.06886,222.36592v-7.97484h76.41082v7.97484z" fill="#303030"/><path d="M375.62381,222.57442v-16.31455h3.85586v16.31455z" data-paper-data="{&quot;index&quot;:null}" fill="#111111"/><path d="M371.81627,222.57442v-16.31455h3.85585v16.31455z" data-paper-data="{&quot;index&quot;:null}" fill="#212121"/><path d="M303.12174,222.57442v-16.31455h3.85586v16.31455z" data-paper-data="{&quot;index&quot;:null}" fill="#111111"/><path d="M307.08793,222.57442v-16.31455h3.85586v16.31455z" data-paper-data="{&quot;index&quot;:null}" fill="#212121"/></g><g><path d="M379.21983,275.07813v-53.00924h76.41082v53.00924z" fill="#2b2b2b"/><path d="M379.21983,274.86965v-16.31454h76.41082v16.31454z" fill="#212121"/><path d="M379.21983,240.67686v-18.60796h76.41082v18.60796z" fill="url(#color-15)"/><path d="M379.21983,222.32951v-16.31455h76.41082v16.31455z" fill="#3d3d3d"/><path d="M379.21983,222.121v-7.97484h76.41082v7.97484z" fill="#303030"/><path d="M451.77479,222.32951v-16.31455h3.85586v16.31455z" data-paper-data="{&quot;index&quot;:null}" fill="#111111"/><path d="M447.96724,222.32951v-16.31455h3.85586v16.31455z" data-paper-data="{&quot;index&quot;:null}" fill="#212121"/><path d="M379.27271,222.32951v-16.31455h3.85586v16.31455z" data-paper-data="{&quot;index&quot;:null}" fill="#111111"/><path d="M383.23891,222.32951v-16.31455h3.85586v16.31455z" data-paper-data="{&quot;index&quot;:null}" fill="#212121"/></g><g><path d="M379.21983,242.13746v-53.00923h76.41082v53.00923z" fill="#2b2b2b"/><path d="M379.21983,241.92898v-16.31454h76.41082v16.31454z" fill="#212121"/><path d="M379.21983,207.73619v-18.60796h76.41082v18.60796z" fill="url(#color-16)"/><path d="M379.21983,189.38884v-16.31455h76.41082v16.31455z" fill="#3d3d3d"/><path d="M379.21983,189.18033v-7.97484h76.41082v7.97484z" fill="#303030"/><path d="M451.77479,189.38884v-16.31455h3.85586v16.31455z" data-paper-data="{&quot;index&quot;:null}" fill="#111111"/><path d="M447.96724,189.38884v-16.31455h3.85586v16.31455z" data-paper-data="{&quot;index&quot;:null}" fill="#212121"/><path d="M379.27271,189.38884v-16.31455h3.85586v16.31455z" data-paper-data="{&quot;index&quot;:null}" fill="#111111"/><path d="M383.23891,189.38884v-16.31455h3.85586v16.31455z" data-paper-data="{&quot;index&quot;:null}" fill="#212121"/></g><g><path d="M457.42841,313.57548v-53.00923h76.41082v53.00923z" fill="#2b2b2b"/><path d="M457.42841,313.36699v-16.31454h76.41082v16.31454z" fill="#212121"/><path d="M457.42841,279.1742v-18.60796h76.41082v18.60796z" fill="url(#color-17)"/><path d="M457.42841,260.82685v-16.31454h76.41082v16.31454z" fill="#3d3d3d"/><path d="M457.42841,260.61835v-7.97484h76.41082v7.97484z" fill="#303030"/><path d="M529.98336,260.82685v-16.31454h3.85586v16.31454z" data-paper-data="{&quot;index&quot;:null}" fill="#111111"/><path d="M526.17582,260.82685v-16.31454h3.85586v16.31454z" data-paper-data="{&quot;index&quot;:null}" fill="#212121"/><path d="M457.48129,260.82685v-16.31454h3.85586v16.31454z" data-paper-data="{&quot;index&quot;:null}" fill="#111111"/><path d="M461.44749,260.82685v-16.31454h3.85586v16.31454z" data-paper-data="{&quot;index&quot;:null}" fill="#212121"/></g><g><path d="M456.05668,258.62549v-53.00924h76.41082v53.00924z" fill="#2b2b2b"/><path d="M456.05668,258.41701v-16.31454h76.41082v16.31454z" fill="#212121"/><path d="M456.05668,224.22422v-18.60796h76.41082v18.60796z" fill="url(#color-18)"/><path d="M456.05668,205.87687v-16.31455h76.41082v16.31455z" fill="#3d3d3d"/><path d="M456.05668,205.66836v-7.97484h76.41082v7.97484z" fill="#303030"/><path d="M528.61164,205.87687v-16.31455h3.85586v16.31455z" data-paper-data="{&quot;index&quot;:null}" fill="#111111"/><path d="M524.80408,205.87687v-16.31455h3.85586v16.31455z" data-paper-data="{&quot;index&quot;:null}" fill="#212121"/><path d="M456.10956,205.87687v-16.31455h3.85586v16.31455z" data-paper-data="{&quot;index&quot;:null}" fill="#111111"/><path d="M460.07575,205.87687v-16.31455h3.85586v16.31455z" data-paper-data="{&quot;index&quot;:null}" fill="#212121"/></g><g><path d="M456.05668,220.47137v-53.00923h76.41082v53.00923z" fill="#2b2b2b"/><path d="M456.05668,220.26288v-16.31454h76.41082v16.31454z" fill="#212121"/><path d="M456.05668,186.07009v-18.60796h76.41082v18.60796z" fill="url(#color-19)"/><path d="M456.05668,167.72274v-16.31455h76.41082v16.31455z" fill="#3d3d3d"/><path d="M456.05668,167.51424v-7.97484h76.41082v7.97484z" fill="#303030"/><path d="M528.61163,167.72274v-16.31455h3.85586v16.31455z" data-paper-data="{&quot;index&quot;:null}" fill="#111111"/><path d="M524.80409,167.72274v-16.31455h3.85586v16.31455z" data-paper-data="{&quot;index&quot;:null}" fill="#212121"/><path d="M456.10956,167.72274v-16.31455h3.85586v16.31455z" data-paper-data="{&quot;index&quot;:null}" fill="#111111"/><path d="M460.07575,167.72274v-16.31455h3.85586v16.31455z" data-paper-data="{&quot;index&quot;:null}" fill="#212121"/></g><g><path d="M456.05668,203.36374v-53.00924h76.41082v53.00924z" fill="#2b2b2b"/><path d="M456.05668,203.15526v-16.31454h76.41082v16.31454z" fill="#212121"/><path d="M456.05668,168.96247v-18.60796h76.41082v18.60796z" fill="url(#color-20)"/><path d="M456.05668,150.61512v-16.31455h76.41082v16.31455z" fill="#3d3d3d"/><path d="M456.05668,150.40661v-7.97484h76.41082v7.97484z" fill="#303030"/><path d="M528.61163,150.61512v-16.31455h3.85586v16.31455z" data-paper-data="{&quot;index&quot;:null}" fill="#111111"/><path d="M524.80409,150.61512v-16.31455h3.85586v16.31455z" data-paper-data="{&quot;index&quot;:null}" fill="#212121"/><path d="M456.10956,150.61512v-16.31455h3.85586v16.31455z" data-paper-data="{&quot;index&quot;:null}" fill="#111111"/><path d="M460.07575,150.61512v-16.31455h3.85586v16.31455z" data-paper-data="{&quot;index&quot;:null}" fill="#212121"/></g></g></g></svg>