<svg version="1.1" xmlns="http://www.w3.org/2000/svg" xmlns:xlink="http://www.w3.org/1999/xlink" width="413.75239" height="73.56317" viewBox="0,0,413.75239,73.56317"><defs><linearGradient x1="111.10638" y1="314.82979" x2="111.10638" y2="333.43776" gradientUnits="userSpaceOnUse" id="color-1"><stop offset="0" stop-color="#171717"/><stop offset="1" stop-color="#171717" stop-opacity="0"/></linearGradient><linearGradient x1="34.9554" y1="314.82979" x2="34.9554" y2="333.43776" gradientUnits="userSpaceOnUse" id="color-2"><stop offset="0" stop-color="#171717"/><stop offset="1" stop-color="#171717" stop-opacity="0"/></linearGradient><linearGradient x1="368.79697" y1="314.8298" x2="368.79697" y2="333.43777" gradientUnits="userSpaceOnUse" id="color-3"><stop offset="0" stop-color="#171717"/><stop offset="1" stop-color="#171717" stop-opacity="0"/></linearGradient><linearGradient x1="240" y1="313.8298" x2="240" y2="332.43777" gradientUnits="userSpaceOnUse" id="color-4"><stop offset="0" stop-color="#171717"/><stop offset="1" stop-color="#171717" stop-opacity="0"/></linearGradient></defs><g transform="translate(5.00001,-296.02587)"><g data-paper-data="{&quot;isPaintingLayer&quot;:true}" fill-rule="nonzero" stroke="#000000" stroke-width="3.5" stroke-linecap="butt" stroke-linejoin="miter" stroke-miterlimit="10" stroke-dasharray="" stroke-dashoffset="0" style="mix-blend-mode: normal"><g><path d="M72.90097,367.83903v-53.00924h76.41082v53.00924z" fill="#2b2b2b"/><path d="M72.90097,367.63055v-16.31454h76.41082v16.31454z" fill="#212121"/><path d="M72.90097,333.43776v-18.60796h76.41082v18.60796z" fill="url(#color-1)"/><path d="M72.90097,315.09041v-16.31455h76.41082v16.31455z" fill="#3d3d3d"/><path d="M72.90097,314.8819v-7.97484h76.41082v7.97484z" fill="#303030"/><path d="M145.45593,315.09041v-16.31455h3.85586v16.31455z" data-paper-data="{&quot;index&quot;:null}" fill="#111111"/><path d="M141.64838,315.09041v-16.31455h3.85586v16.31455z" data-paper-data="{&quot;index&quot;:null}" fill="#212121"/><path d="M72.95385,315.09041v-16.31455h3.85586v16.31455z" data-paper-data="{&quot;index&quot;:null}" fill="#111111"/><path d="M76.92005,315.09041v-16.31455h3.85586v16.31455z" data-paper-data="{&quot;index&quot;:null}" fill="#212121"/></g><g><path d="M-3.25001,367.83903v-53.00924h76.41082v53.00924z" fill="#2b2b2b"/><path d="M-3.25001,367.63055v-16.31455h76.41082v16.31455z" fill="#212121"/><path d="M-3.25001,333.43776v-18.60797h76.41082v18.60797z" fill="url(#color-2)"/><path d="M-3.25001,315.09041v-16.31454h76.41082v16.31454z" fill="#3d3d3d"/><path d="M-3.25001,314.8819v-7.97484h76.41082v7.97484z" fill="#303030"/><path d="M69.30495,315.09041v-16.31454h3.85586v16.31454z" data-paper-data="{&quot;index&quot;:null}" fill="#111111"/><path d="M65.4974,315.09041v-16.31454h3.85586v16.31454z" data-paper-data="{&quot;index&quot;:null}" fill="#212121"/><path d="M-3.19713,315.09041v-16.31454h3.85586v16.31454z" data-paper-data="{&quot;index&quot;:null}" fill="#111111"/><path d="M0.76907,315.09041v-16.31454h3.85586v16.31454z" data-paper-data="{&quot;index&quot;:null}" fill="#212121"/></g><g><path d="M330.59156,367.83904v-53.00923h76.41082v53.00923z" fill="#2b2b2b"/><path d="M330.59156,367.63056v-16.31454h76.41082v16.31454z" fill="#212121"/><path d="M330.59156,333.43777v-18.60796h76.41082v18.60796z" fill="url(#color-3)"/><path d="M330.59156,315.09042v-16.31455h76.41082v16.31455z" fill="#3d3d3d"/><path d="M330.59156,314.8819v-7.97484h76.41082v7.97484z" fill="#303030"/><path d="M403.14652,315.09042v-16.31455h3.85586v16.31455z" data-paper-data="{&quot;index&quot;:null}" fill="#111111"/><path d="M399.33897,315.09042v-16.31455h3.85586v16.31455z" data-paper-data="{&quot;index&quot;:null}" fill="#212121"/><path d="M330.64445,315.09042v-16.31455h3.85586v16.31455z" data-paper-data="{&quot;index&quot;:null}" fill="#111111"/><path d="M334.61064,315.09042v-16.31455h3.85586v16.31455z" data-paper-data="{&quot;index&quot;:null}" fill="#212121"/></g><g><path d="M201.79459,366.83904v-53.00923h76.41082v53.00923z" fill="#2b2b2b"/><path d="M201.79459,366.63056v-16.31454h76.41082v16.31454z" fill="#212121"/><path d="M201.79459,332.43777v-18.60796h76.41082v18.60796z" fill="url(#color-4)"/><path d="M201.79459,314.09042v-16.31455h76.41082v16.31455z" fill="#3d3d3d"/><path d="M201.79459,313.8819v-7.97484h76.41082v7.97484z" fill="#303030"/><path d="M274.34955,314.09042v-16.31455h3.85586v16.31455z" data-paper-data="{&quot;index&quot;:null}" fill="#111111"/><path d="M270.542,314.09042v-16.31455h3.85586v16.31455z" data-paper-data="{&quot;index&quot;:null}" fill="#212121"/><path d="M201.84748,314.09042v-16.31455h3.85586v16.31455z" data-paper-data="{&quot;index&quot;:null}" fill="#111111"/><path d="M205.81367,314.09042v-16.31455h3.85586v16.31455z" data-paper-data="{&quot;index&quot;:null}" fill="#212121"/></g></g></g></svg>