<svg version="1.1" xmlns="http://www.w3.org/2000/svg" xmlns:xlink="http://www.w3.org/1999/xlink" width="564.05435" height="158.89214" viewBox="0,0,564.05435,158.89214"><defs><linearGradient x1="111.10638" y1="314.82979" x2="111.10638" y2="333.43776" gradientUnits="userSpaceOnUse" id="color-1"><stop offset="0" stop-color="#171717"/><stop offset="1" stop-color="#171717" stop-opacity="0"/></linearGradient><linearGradient x1="34.9554" y1="314.82979" x2="34.9554" y2="333.43776" gradientUnits="userSpaceOnUse" id="color-2"><stop offset="0" stop-color="#171717"/><stop offset="1" stop-color="#171717" stop-opacity="0"/></linearGradient><linearGradient x1="519.09893" y1="314.82979" x2="519.09893" y2="333.43776" gradientUnits="userSpaceOnUse" id="color-3"><stop offset="0" stop-color="#171717"/><stop offset="1" stop-color="#171717" stop-opacity="0"/></linearGradient><linearGradient x1="442.94795" y1="314.82979" x2="442.94795" y2="333.43776" gradientUnits="userSpaceOnUse" id="color-4"><stop offset="0" stop-color="#171717"/><stop offset="1" stop-color="#171717" stop-opacity="0"/></linearGradient><linearGradient x1="366.79697" y1="314.82979" x2="366.79697" y2="333.43776" gradientUnits="userSpaceOnUse" id="color-5"><stop offset="0" stop-color="#171717"/><stop offset="1" stop-color="#171717" stop-opacity="0"/></linearGradient><linearGradient x1="111.2363" y1="280.2982" x2="111.2363" y2="298.90617" gradientUnits="userSpaceOnUse" id="color-6"><stop offset="0" stop-color="#171717"/><stop offset="1" stop-color="#171717" stop-opacity="0"/></linearGradient><linearGradient x1="189.17134" y1="327.82979" x2="189.17134" y2="346.43776" gradientUnits="userSpaceOnUse" id="color-7"><stop offset="0" stop-color="#171717"/><stop offset="1" stop-color="#171717" stop-opacity="0"/></linearGradient><linearGradient x1="189.30126" y1="293.29819" x2="189.30126" y2="311.90617" gradientUnits="userSpaceOnUse" id="color-8"><stop offset="0" stop-color="#171717"/><stop offset="1" stop-color="#171717" stop-opacity="0"/></linearGradient><linearGradient x1="189.17134" y1="276.0324" x2="189.17134" y2="294.64037" gradientUnits="userSpaceOnUse" id="color-9"><stop offset="0" stop-color="#171717"/><stop offset="1" stop-color="#171717" stop-opacity="0"/></linearGradient><linearGradient x1="189.30126" y1="241.50081" x2="189.30126" y2="260.10878" gradientUnits="userSpaceOnUse" id="color-10"><stop offset="0" stop-color="#171717"/><stop offset="1" stop-color="#171717" stop-opacity="0"/></linearGradient></defs><g transform="translate(5.00001,-223.69688)"><g data-paper-data="{&quot;isPaintingLayer&quot;:true}" fill-rule="nonzero" stroke="#000000" stroke-width="3.5" stroke-linecap="butt" stroke-linejoin="miter" stroke-miterlimit="10" stroke-dasharray="" stroke-dashoffset="0" style="mix-blend-mode: normal"><g><path d="M72.90097,367.83903v-53.00924h76.41082v53.00924z" fill="#2b2b2b"/><path d="M72.90097,367.63055v-16.31454h76.41082v16.31454z" fill="#212121"/><path d="M72.90097,333.43776v-18.60796h76.41082v18.60796z" fill="url(#color-1)"/><path d="M72.90097,315.09041v-16.31455h76.41082v16.31455z" fill="#3d3d3d"/><path d="M72.90097,314.8819v-7.97484h76.41082v7.97484z" fill="#303030"/><path d="M145.45593,315.09041v-16.31455h3.85586v16.31455z" data-paper-data="{&quot;index&quot;:null}" fill="#111111"/><path d="M141.64838,315.09041v-16.31455h3.85586v16.31455z" data-paper-data="{&quot;index&quot;:null}" fill="#212121"/><path d="M72.95385,315.09041v-16.31455h3.85586v16.31455z" data-paper-data="{&quot;index&quot;:null}" fill="#111111"/><path d="M76.92005,315.09041v-16.31455h3.85586v16.31455z" data-paper-data="{&quot;index&quot;:null}" fill="#212121"/></g><g><path d="M-3.25001,367.83903v-53.00924h76.41082v53.00924z" fill="#2b2b2b"/><path d="M-3.25001,367.63055v-16.31455h76.41082v16.31455z" fill="#212121"/><path d="M-3.25001,333.43776v-18.60797h76.41082v18.60797z" fill="url(#color-2)"/><path d="M-3.25001,315.09041v-16.31454h76.41082v16.31454z" fill="#3d3d3d"/><path d="M-3.25001,314.8819v-7.97484h76.41082v7.97484z" fill="#303030"/><path d="M69.30495,315.09041v-16.31454h3.85586v16.31454z" data-paper-data="{&quot;index&quot;:null}" fill="#111111"/><path d="M65.4974,315.09041v-16.31454h3.85586v16.31454z" data-paper-data="{&quot;index&quot;:null}" fill="#212121"/><path d="M-3.19713,315.09041v-16.31454h3.85586v16.31454z" data-paper-data="{&quot;index&quot;:null}" fill="#111111"/><path d="M0.76907,315.09041v-16.31454h3.85586v16.31454z" data-paper-data="{&quot;index&quot;:null}" fill="#212121"/></g><g><path d="M480.89352,367.83903v-53.00923h76.41082v53.00923z" fill="#2b2b2b"/><path d="M480.89352,367.63055v-16.31454h76.41082v16.31454z" fill="#212121"/><path d="M480.89352,333.43776v-18.60796h76.41082v18.60796z" fill="url(#color-3)"/><path d="M480.89352,315.09041v-16.31455h76.41082v16.31455z" fill="#3d3d3d"/><path d="M480.89352,314.88189v-7.97484h76.41082v7.97484z" fill="#303030"/><path d="M553.44848,315.09041v-16.31455h3.85586v16.31455z" data-paper-data="{&quot;index&quot;:null}" fill="#111111"/><path d="M549.64092,315.09041v-16.31455h3.85586v16.31455z" data-paper-data="{&quot;index&quot;:null}" fill="#212121"/><path d="M480.9464,315.09041v-16.31455h3.85586v16.31455z" data-paper-data="{&quot;index&quot;:null}" fill="#111111"/><path d="M484.91259,315.09041v-16.31455h3.85586v16.31455z" data-paper-data="{&quot;index&quot;:null}" fill="#212121"/></g><g><path d="M404.74254,367.83903v-53.00923h76.41082v53.00923z" fill="#2b2b2b"/><path d="M404.74254,367.63055v-16.31454h76.41082v16.31454z" fill="#212121"/><path d="M404.74254,333.43776v-18.60796h76.41082v18.60796z" fill="url(#color-4)"/><path d="M404.74254,315.09041v-16.31455h76.41082v16.31455z" fill="#3d3d3d"/><path d="M404.74254,314.88189v-7.97484h76.41082v7.97484z" fill="#303030"/><path d="M477.2975,315.09041v-16.31455h3.85586v16.31455z" data-paper-data="{&quot;index&quot;:null}" fill="#111111"/><path d="M473.48995,315.09041v-16.31455h3.85586v16.31455z" data-paper-data="{&quot;index&quot;:null}" fill="#212121"/><path d="M404.79542,315.09041v-16.31455h3.85586v16.31455z" data-paper-data="{&quot;index&quot;:null}" fill="#111111"/><path d="M408.76162,315.09041v-16.31455h3.85586v16.31455z" data-paper-data="{&quot;index&quot;:null}" fill="#212121"/></g><g><path d="M328.59156,367.83903v-53.00923h76.41082v53.00923z" fill="#2b2b2b"/><path d="M328.59156,367.63055v-16.31454h76.41082v16.31454z" fill="#212121"/><path d="M328.59156,333.43776v-18.60796h76.41082v18.60796z" fill="url(#color-5)"/><path d="M328.59156,315.09041v-16.31455h76.41082v16.31455z" fill="#3d3d3d"/><path d="M328.59156,314.88189v-7.97484h76.41082v7.97484z" fill="#303030"/><path d="M401.14652,315.09041v-16.31455h3.85586v16.31455z" data-paper-data="{&quot;index&quot;:null}" fill="#111111"/><path d="M397.33897,315.09041v-16.31455h3.85586v16.31455z" data-paper-data="{&quot;index&quot;:null}" fill="#212121"/><path d="M328.64445,315.09041v-16.31455h3.85586v16.31455z" data-paper-data="{&quot;index&quot;:null}" fill="#111111"/><path d="M332.61064,315.09041v-16.31455h3.85586v16.31455z" data-paper-data="{&quot;index&quot;:null}" fill="#212121"/></g><g><path d="M73.03089,333.30744v-53.00924h76.41082v53.00924z" fill="#2b2b2b"/><path d="M73.03089,333.09896v-16.31454h76.41082v16.31454z" fill="#212121"/><path d="M73.03089,298.90617v-18.60796h76.41082v18.60796z" fill="url(#color-6)"/><path d="M73.03089,280.55882v-16.31455h76.41082v16.31455z" fill="#3d3d3d"/><path d="M73.03089,280.35031v-7.97484h76.41082v7.97484z" fill="#303030"/><path d="M145.58585,280.55882v-16.31455h3.85586v16.31455z" data-paper-data="{&quot;index&quot;:null}" fill="#111111"/><path d="M141.7783,280.55882v-16.31455h3.85586v16.31455z" data-paper-data="{&quot;index&quot;:null}" fill="#212121"/><path d="M73.08377,280.55882v-16.31455h3.85586v16.31455z" data-paper-data="{&quot;index&quot;:null}" fill="#111111"/><path d="M77.04997,280.55882v-16.31455h3.85586v16.31455z" data-paper-data="{&quot;index&quot;:null}" fill="#212121"/></g><g><path d="M150.96593,380.83903v-53.00924h76.41082v53.00924z" fill="#2b2b2b"/><path d="M150.96593,380.63055v-16.31454h76.41082v16.31454z" fill="#212121"/><path d="M150.96593,346.43776v-18.60796h76.41082v18.60796z" fill="url(#color-7)"/><path d="M150.96593,328.0904v-16.31455h76.41082v16.31455z" fill="#3d3d3d"/><path d="M150.96593,327.8819v-7.97484h76.41082v7.97484z" fill="#303030"/><path d="M223.52089,328.0904v-16.31455h3.85586v16.31455z" data-paper-data="{&quot;index&quot;:null}" fill="#111111"/><path d="M219.71334,328.0904v-16.31455h3.85586v16.31455z" data-paper-data="{&quot;index&quot;:null}" fill="#212121"/><path d="M151.01881,328.0904v-16.31455h3.85586v16.31455z" data-paper-data="{&quot;index&quot;:null}" fill="#111111"/><path d="M154.98501,328.0904v-16.31455h3.85586v16.31455z" data-paper-data="{&quot;index&quot;:null}" fill="#212121"/></g><g><path d="M151.09585,346.30744v-53.00924h76.41082v53.00924z" fill="#2b2b2b"/><path d="M151.09585,346.09896v-16.31454h76.41082v16.31454z" fill="#212121"/><path d="M151.09585,311.90617v-18.60796h76.41082v18.60796z" fill="url(#color-8)"/><path d="M151.09585,293.55882v-16.31455h76.41082v16.31455z" fill="#3d3d3d"/><path d="M151.09585,293.3503v-7.97484h76.41082v7.97484z" fill="#303030"/><path d="M223.65081,293.55882v-16.31455h3.85586v16.31455z" data-paper-data="{&quot;index&quot;:null}" fill="#111111"/><path d="M219.84326,293.55882v-16.31455h3.85586v16.31455z" data-paper-data="{&quot;index&quot;:null}" fill="#212121"/><path d="M151.14873,293.55882v-16.31455h3.85586v16.31455z" data-paper-data="{&quot;index&quot;:null}" fill="#111111"/><path d="M155.11493,293.55882v-16.31455h3.85586v16.31455z" data-paper-data="{&quot;index&quot;:null}" fill="#212121"/></g><g><path d="M150.96593,329.04164v-53.00924h76.41082v53.00924z" fill="#2b2b2b"/><path d="M150.96593,328.83316v-16.31454h76.41082v16.31454z" fill="#212121"/><path d="M150.96593,294.64037v-18.60796h76.41082v18.60796z" fill="url(#color-9)"/><path d="M150.96593,276.29302v-16.31455h76.41082v16.31455z" fill="#3d3d3d"/><path d="M150.96593,276.08451v-7.97484h76.41082v7.97484z" fill="#303030"/><path d="M223.52089,276.29302v-16.31455h3.85586v16.31455z" data-paper-data="{&quot;index&quot;:null}" fill="#111111"/><path d="M219.71334,276.29302v-16.31455h3.85586v16.31455z" data-paper-data="{&quot;index&quot;:null}" fill="#212121"/><path d="M151.01881,276.29302v-16.31455h3.85586v16.31455z" data-paper-data="{&quot;index&quot;:null}" fill="#111111"/><path d="M154.98501,276.29302v-16.31455h3.85586v16.31455z" data-paper-data="{&quot;index&quot;:null}" fill="#212121"/></g><g><path d="M151.09585,294.51005v-53.00924h76.41082v53.00924z" fill="#2b2b2b"/><path d="M151.09585,294.30157v-16.31454h76.41082v16.31454z" fill="#212121"/><path d="M151.09585,260.10878v-18.60796h76.41082v18.60796z" fill="url(#color-10)"/><path d="M151.09585,241.76143v-16.31455h76.41082v16.31455z" fill="#3d3d3d"/><path d="M151.09585,241.55292v-7.97484h76.41082v7.97484z" fill="#303030"/><path d="M223.65081,241.76143v-16.31455h3.85586v16.31455z" data-paper-data="{&quot;index&quot;:null}" fill="#111111"/><path d="M219.84326,241.76143v-16.31455h3.85586v16.31455z" data-paper-data="{&quot;index&quot;:null}" fill="#212121"/><path d="M151.14873,241.76143v-16.31455h3.85586v16.31455z" data-paper-data="{&quot;index&quot;:null}" fill="#111111"/><path d="M155.11493,241.76143v-16.31455h3.85586v16.31455z" data-paper-data="{&quot;index&quot;:null}" fill="#212121"/></g></g></g></svg>