<svg version="1.1" xmlns="http://www.w3.org/2000/svg" xmlns:xlink="http://www.w3.org/1999/xlink" width="114.0383" height="142.28116" viewBox="0,0,114.0383,142.28116"><g transform="translate(-182.37831,-108.83029)"><g data-paper-data="{&quot;isPaintingLayer&quot;:true}" fill-rule="nonzero" stroke-linejoin="miter" stroke-miterlimit="10" stroke-dasharray="" stroke-dashoffset="0" style="mix-blend-mode: normal"><path d="" data-paper-data="{&quot;index&quot;:null}" fill="#66fffc" stroke="none" stroke-width="2.5" stroke-linecap="butt"/><path d="" data-paper-data="{&quot;index&quot;:null}" fill="#4fc4c2" stroke="none" stroke-width="2.5" stroke-linecap="butt"/><path d="" data-paper-data="{&quot;index&quot;:null}" fill="none" stroke="#000000" stroke-width="2.5" stroke-linecap="butt"/><path d="M283.02301,156.3995c-2.30604,2.57671 -17.08641,1.65716 -25.9932,1.65716c-8.90678,0 -13.38335,-13.46132 -13.38335,-16.91924c0,-3.45792 19.30259,-3.60518 28.09482,-2.18126c16.79456,2.71992 21.64795,16.61113 11.28172,17.44334z" data-paper-data="{&quot;index&quot;:null}" fill="#95cadc" stroke="none" stroke-width="0" stroke-linecap="butt"/><path d="M280.68455,149.32371c-1.65293,1.84694 -12.24723,0.40798 -18.63146,0.40798c-6.38422,0 -5.30385,-2.82527 -5.30385,-5.30384c0,-2.47858 5.17544,-4.48787 11.55967,-4.48787c6.38422,0 17.2715,3.91323 12.37564,9.38373z" data-paper-data="{&quot;index&quot;:null}" fill="#fefefe" stroke="none" stroke-width="0" stroke-linecap="butt"/><g><path d="M215.52481,199.97459c0,13.21911 -11.77812,7.60198 -17.26104,7.60198c-5.48292,0 -11.28767,-3.6444 -11.28767,-16.86351c0,-13.21911 -3.44298,-31.55108 2.03994,-31.55108c1.6974,0 5.95965,-1.44895 9.92286,-1.62631c2.75697,-0.12338 5.36923,0.36859 6.87271,2.39171c3.31662,4.46293 2.37987,17.43395 2.37987,23.71389z" data-paper-data="{&quot;index&quot;:null}" fill="#9d0000" stroke="none" stroke-width="0" stroke-linecap="butt"/><path d="M187.24807,164.32982v-16.31952h18.22347v16.31952z" data-paper-data="{&quot;index&quot;:null}" fill="#d50000" stroke="none" stroke-width="0" stroke-linecap="butt"/><path d="M221.09252,206.01308l-26.9144,1.12269l-4.07989,-3.5359l-2.71992,-11.42367v-23.11933l1.63196,-18.49546l2.71992,-3.80788l14.68757,-2.44793" data-paper-data="{&quot;index&quot;:null}" fill="none" stroke="#000000" stroke-width="10" stroke-linecap="round"/><path d="M218.67993,226.09089c0,-4.86833 0,-15 0,-15h49c0,0 0,11.43695 0,16.5c0,4.31778 0.70385,12.5 -12,12c-8.57024,-0.33731 -19.47334,0.39404 -24.5,0c-12.75694,-1 -12.5,-8.8815 -12.5,-13.5z" fill="#d50000" stroke="#000000" stroke-width="10" stroke-linecap="butt"/><path d="M281.5252,183.10167c0,38.07309 -15.77915,36.12732 -37.71085,36.12732c-21.93169,0 -41.71085,1.94578 -41.71085,-36.12732c0,-38.07309 17.77915,-68.93743 39.71085,-68.93743c21.93169,0 39.71085,30.86433 39.71085,68.93743z" fill="#d50000" stroke="none" stroke-width="0" stroke-linecap="butt"/><path d="M216.85113,166.01196c0,25.06001 21.61792,39.46446 44.27767,38.42516c9.76522,-6.05375 12.27825,-36.6259 15.402,-32.84008c8.77741,10.63781 4.44027,35.55224 -3.4963,45.7755c-5.11954,6.5946 -11.73681,-0.34354 -17.29786,3.64626c-4.55254,3.26624 1.02081,25.16227 -3.5734,19.50382c-6.4972,3.79 -14.17657,7.0074 -22.943,2.93693c-4.19561,4.67989 1.60261,-26.38688 -4.99298,-26.38688c-1.21859,0 -18.19678,-7.43411 -18.27927,-28.34089c-0.05987,-15.1739 3.28735,-13.20487 3.28735,-22.4193c0,-21.91016 2.24884,-41.77567 4.35188,-41.77567c2.10304,0 3.2639,19.56496 3.2639,41.47512z" fill="#9d0000" stroke="none" stroke-width="0" stroke-linecap="butt"/><path d="M277.91359,162.17328c0,9.07635 0.55871,15.50255 -0.33032,27.98768c-1.35384,19.01288 -3.02748,29.26153 -20.87039,29.35666c-2.25999,0.01205 1.65915,15.67443 -1.24115,24.43485c-2.03706,2.42845 -11.08437,2.28435 -18.93866,2.15961c-9.87462,-0.35647 -6.0881,-27.84725 -6.88789,-28.70319c-1.12879,-5.43679 -16.61671,-0.43091 -18.53254,-12.05888c-6.67052,-10.7106 -3.5805,-22.19693 -3.5805,-25.96714c0,-27.63372 2.03154,-72.29325 35.48897,-64.6953c30.13513,6.84348 34.89251,19.85199 34.89251,47.48571z" fill="none" stroke="#000000" stroke-width="10" stroke-linecap="butt"/><path d="M294.09098,153.70821c0,10.5152 -13.50877,19.03945 -30.17268,19.03945c-16.66391,0 -30.17268,-8.52425 -30.17268,-19.03944c0,-10.5152 13.50878,-19.03944 30.17269,-19.03944c16.66391,0 30.17268,8.52425 30.17268,19.03945z" data-paper-data="{&quot;index&quot;:null}" fill="#49646d" stroke="none" stroke-width="0" stroke-linecap="butt"/><path d="M289.31959,151.26331c1.24478,8.62321 -4.14316,15.02281 -25.15927,18.76746c0,0 -15.9326,1.17124 -21.48228,-3.93769c-9.13242,-8.40712 -8.6509,-26.62609 -4.06819,-28.20463c33.30183,-11.47099 48.93089,1.05179 50.70975,13.37487z" data-paper-data="{&quot;index&quot;:null}" fill="none" stroke="#000000" stroke-width="10" stroke-linecap="butt"/></g></g></g></svg>