<svg version="1.1" xmlns="http://www.w3.org/2000/svg" xmlns:xlink="http://www.w3.org/1999/xlink" width="879.76756" height="838.2581" viewBox="0,0,879.76756,838.2581"><defs><linearGradient x1="486.83292" y1="307.32716" x2="486.83292" y2="341.80528" gradientUnits="userSpaceOnUse" id="color-1"><stop offset="0" stop-color="#171717"/><stop offset="1" stop-color="#171717" stop-opacity="0"/></linearGradient><linearGradient x1="345.73517" y1="307.32716" x2="345.73517" y2="341.80528" gradientUnits="userSpaceOnUse" id="color-2"><stop offset="0" stop-color="#171717"/><stop offset="1" stop-color="#171717" stop-opacity="0"/></linearGradient><linearGradient x1="204.63741" y1="307.32716" x2="204.63741" y2="341.80528" gradientUnits="userSpaceOnUse" id="color-3"><stop offset="0" stop-color="#171717"/><stop offset="1" stop-color="#171717" stop-opacity="0"/></linearGradient><linearGradient x1="63.53964" y1="307.32716" x2="63.53964" y2="341.80528" gradientUnits="userSpaceOnUse" id="color-4"><stop offset="0" stop-color="#171717"/><stop offset="1" stop-color="#171717" stop-opacity="0"/></linearGradient></defs><g transform="translate(220.83741,216.87905)"><g data-paper-data="{&quot;isPaintingLayer&quot;:true}" fill-rule="nonzero" stroke-linejoin="miter" stroke-miterlimit="10" stroke-dasharray="" stroke-dashoffset="0" style="mix-blend-mode: normal"><path d="M-29.49997,386.125v-71h546v71z" fill="#1a1a1a" stroke="#000000" stroke-width="3.5" stroke-linecap="butt"/><path d="M-38.79164,313.125v-245h541v245z" fill="#3f3f3f" stroke="none" stroke-width="0" stroke-linecap="butt"/><path d="M389.03934,194.10528c6.16516,-0.73709 9.52057,-18.22602 16.00609,-18.2063c7.43057,0.02259 15.11386,17.05733 23.00856,17.10301c15.59447,0.09024 149.97242,12.23885 -7.01018,12.75937c-5.10141,0.01692 -10.1059,10.02687 -15.00177,10.02938c-6.51457,0.00334 -6.83682,-9.46347 -12.93924,-10.18351c-20.52283,-2.42155 -22.23482,-9.32943 -4.06346,-11.50195z" fill="#000000" stroke="none" stroke-width="0" stroke-linecap="butt"/><path d="M281.03934,194.10528c6.16516,-0.73709 11.52057,-18.22602 18.00609,-18.2063c7.43057,0.02259 13.11386,17.05733 21.00856,17.10301c15.59447,0.09024 149.97242,12.23885 -7.01018,12.75937c-5.10141,0.01692 -10.1059,10.02687 -15.00177,10.02938c-6.51457,0.00334 -6.83682,-9.46347 -12.93924,-10.18351c-20.52283,-2.42155 -22.23482,-9.32943 -4.06346,-11.50195z" fill="#000000" stroke="none" stroke-width="0" stroke-linecap="butt"/><path d="M174.03936,193.10528c6.16516,-0.73709 11.52057,-18.22602 18.00609,-18.2063c7.43057,0.02259 13.11386,17.05733 21.00856,17.10301c15.59447,0.09024 149.97242,12.23885 -7.01018,12.75937c-5.10141,0.01692 -9.1059,12.02687 -14.00177,12.02938c-6.51457,0.00334 -7.83683,-11.46347 -13.93924,-12.18351c-20.52283,-2.42155 -22.23482,-9.32943 -4.06346,-11.50195z" fill="#000000" stroke="none" stroke-width="0" stroke-linecap="butt"/><path d="M-48.2083,208.125v-16c0,0 17.81725,-11 39.25,-11c7.41178,0 16.3246,12.10542 29.98196,12.29561c13.32575,0.18558 30.84432,2.85719 49.01568,0.68467c4.28399,-0.51218 5.17699,-11.28445 9.32986,-13.53221c1.8236,-0.98703 5.69731,-3.6801 7.67623,-3.67409c7.43057,0.02259 14.11386,16.05733 22.00856,16.10301c15.59448,0.09024 149.97242,12.23885 -7.01018,12.75937c-5.10141,0.01692 -10.1059,10.02687 -15.00177,10.02938c-6.51457,0.00334 -6.83683,-9.46347 -12.93924,-10.18351c-20.52282,-2.42155 -44.55924,1.29287 -59.06196,1.3947c-11.33358,0.07958 -21.50044,7.12307 -27.99913,7.12307c-21.88939,0 -35.25,-6 -35.25,-6z" fill="#000000" stroke="none" stroke-width="0" stroke-linecap="butt"/><path d="M-14.37497,318.125c0,0 0,-76.1729 0,-95c0,-7.96427 20.61519,-19 20.61519,-19h54.56962c0,0 20.61519,11.03573 20.61519,19c0,18.8271 0,95 0,95z" fill="none" stroke="#000000" stroke-width="15" stroke-linecap="butt"/><path d="M-13.7083,314.625c0,0 0,-76.1729 0,-95c0,-7.96427 20.61519,-19 20.61519,-19h54.56962c0,0 20.61519,11.03573 20.61519,19c0,18.8271 0,95 0,95z" fill="none" stroke="#070707" stroke-width="11.5" stroke-linecap="butt"/><path d="M-13.7083,317.125c0,0 0,-76.1729 0,-95c0,-7.96427 20.61519,-19 20.61519,-19h54.56962c0,0 20.61519,11.03573 20.61519,19c0,18.8271 0,95 0,95z" fill="none" stroke="#262626" stroke-width="5" stroke-linecap="butt"/><path d="M91.62503,318.125c0,0 0,-76.1729 0,-95c0,-7.96427 20.61519,-19 20.61519,-19h54.56962c0,0 20.61519,11.03573 20.61519,19c0,18.8271 0,95 0,95z" fill="none" stroke="#000000" stroke-width="15" stroke-linecap="butt"/><path d="M92.29171,314.625c0,0 0,-76.1729 0,-95c0,-7.96427 20.61519,-19 20.61519,-19h54.56962c0,0 20.61519,11.03573 20.61519,19c0,18.8271 0,95 0,95z" fill="none" stroke="#070707" stroke-width="11.5" stroke-linecap="butt"/><path d="M92.29171,317.125c0,0 0,-76.1729 0,-95c0,-7.96427 20.61519,-19 20.61519,-19h54.56962c0,0 20.61519,11.03573 20.61519,19c0,18.8271 0,95 0,95z" fill="none" stroke="#262626" stroke-width="5" stroke-linecap="butt"/><path d="M197.62505,318.125c0,0 0,-76.1729 0,-95c0,-7.96427 20.61519,-19 20.61519,-19h54.56962c0,0 20.61519,11.03573 20.61519,19c0,18.8271 0,95 0,95z" fill="none" stroke="#000000" stroke-width="15" stroke-linecap="butt"/><path d="M198.29171,314.625c0,0 0,-76.1729 0,-95c0,-7.96427 20.61519,-19 20.61519,-19h54.56962c0,0 20.61519,11.03573 20.61519,19c0,18.8271 0,95 0,95z" fill="none" stroke="#070707" stroke-width="11.5" stroke-linecap="butt"/><path d="M198.29171,317.125c0,0 0,-76.1729 0,-95c0,-7.96427 20.61519,-19 20.61519,-19h54.56962c0,0 20.61519,11.03573 20.61519,19c0,18.8271 0,95 0,95z" fill="none" stroke="#262626" stroke-width="5" stroke-linecap="butt"/><path d="M303.62499,318.125c0,0 0,-76.1729 0,-95c0,-7.96427 20.61519,-19 20.61519,-19h54.56962c0,0 20.61519,11.03573 20.61519,19c0,18.8271 0,95 0,95z" fill="none" stroke="#000000" stroke-width="15" stroke-linecap="butt"/><path d="M304.29169,314.625c0,0 0,-76.1729 0,-95c0,-7.96427 20.61519,-19 20.61519,-19h54.56962c0,0 20.61519,11.03573 20.61519,19c0,18.8271 0,95 0,95z" fill="none" stroke="#070707" stroke-width="11.5" stroke-linecap="butt"/><path d="M304.29169,317.125c0,0 0,-76.1729 0,-95c0,-7.96427 20.61519,-19 20.61519,-19h54.56962c0,0 20.61519,11.03573 20.61519,19c0,18.8271 0,95 0,95z" fill="none" stroke="#262626" stroke-width="5" stroke-linecap="butt"/><path d="M410.62503,317.125c0,0 0,-76.1729 0,-95c0,-7.96427 20.61519,-19 20.61519,-19h54.56962c0,0 20.61519,11.03573 20.61519,19c0,18.8271 0,95 0,95z" fill="none" stroke="#000000" stroke-width="15" stroke-linecap="butt"/><path d="M411.29172,313.625c0,0 0,-76.1729 0,-95c0,-7.96427 20.61519,-19 20.61519,-19h54.56962c0,0 20.61519,11.03573 20.61519,19c0,18.8271 0,95 0,95z" fill="none" stroke="#070707" stroke-width="11.5" stroke-linecap="butt"/><path d="M411.29172,316.125c0,0 0,-76.1729 0,-95c0,-7.96427 20.61519,-19 20.61519,-19h54.56962c0,0 20.61519,11.03573 20.61519,19c0,18.8271 0,95 0,95z" fill="none" stroke="#262626" stroke-width="5" stroke-linecap="butt"/><path d="M80.42504,77.625c0,0 0,76.1729 0,95c0,7.96427 -20.61519,19 -20.61519,19h-54.56962c0,0 -20.61519,-11.03573 -20.61519,-19c0,-18.8271 0,-95 0,-95z" data-paper-data="{&quot;index&quot;:null}" fill="none" stroke="#000000" stroke-width="15" stroke-linecap="butt"/><path d="M81.09168,81.125c0,0 0,76.1729 0,95c0,7.96427 -20.61519,19 -20.61519,19h-54.56962c0,0 -20.61519,-11.03573 -20.61519,-19c0,-18.8271 0,-95 0,-95z" data-paper-data="{&quot;index&quot;:null}" fill="none" stroke="#070707" stroke-width="11.5" stroke-linecap="butt"/><path d="M81.09168,78.625c0,0 0,76.1729 0,95c0,7.96427 -20.61519,19 -20.61519,19h-54.56962c0,0 -20.61519,-11.03573 -20.61519,-19c0,-18.8271 0,-95 0,-95z" data-paper-data="{&quot;index&quot;:null}" fill="none" stroke="#262626" stroke-width="5" stroke-linecap="butt"/><path d="M186.42503,77.625c0,0 0,76.1729 0,95c0,7.96427 -20.61519,19 -20.61519,19h-54.56962c0,0 -20.61519,-11.03573 -20.61519,-19c0,-18.8271 0,-95 0,-95z" data-paper-data="{&quot;index&quot;:null}" fill="none" stroke="#000000" stroke-width="15" stroke-linecap="butt"/><path d="M187.09171,81.125c0,0 0,76.1729 0,95c0,7.96427 -20.61519,19 -20.61519,19h-54.56962c0,0 -20.61519,-11.03573 -20.61519,-19c0,-18.8271 0,-95 0,-95z" data-paper-data="{&quot;index&quot;:null}" fill="none" stroke="#070707" stroke-width="11.5" stroke-linecap="butt"/><path d="M187.09171,78.625c0,0 0,76.1729 0,95c0,7.96427 -20.61519,19 -20.61519,19h-54.56962c0,0 -20.61519,-11.03573 -20.61519,-19c0,-18.8271 0,-95 0,-95z" data-paper-data="{&quot;index&quot;:null}" fill="none" stroke="#262626" stroke-width="5" stroke-linecap="butt"/><path d="M292.42502,77.625c0,0 0,76.1729 0,95c0,7.96427 -20.61519,19 -20.61519,19h-54.56962c0,0 -20.61519,-11.03573 -20.61519,-19c0,-18.8271 0,-95 0,-95z" data-paper-data="{&quot;index&quot;:null}" fill="none" stroke="#000000" stroke-width="15" stroke-linecap="butt"/><path d="M293.09167,81.125c0,0 0,76.1729 0,95c0,7.96427 -20.61519,19 -20.61519,19h-54.56962c0,0 -20.61519,-11.03573 -20.61519,-19c0,-18.8271 0,-95 0,-95z" data-paper-data="{&quot;index&quot;:null}" fill="none" stroke="#070707" stroke-width="11.5" stroke-linecap="butt"/><path d="M293.09167,78.625c0,0 0,76.1729 0,95c0,7.96427 -20.61519,19 -20.61519,19h-54.56962c0,0 -20.61519,-11.03573 -20.61519,-19c0,-18.8271 0,-95 0,-95z" data-paper-data="{&quot;index&quot;:null}" fill="none" stroke="#262626" stroke-width="5" stroke-linecap="butt"/><path d="M398.42505,77.625c0,0 0,76.1729 0,95c0,7.96427 -20.61519,19 -20.61519,19h-54.56962c0,0 -20.61519,-11.03573 -20.61519,-19c0,-18.8271 0,-95 0,-95z" data-paper-data="{&quot;index&quot;:null}" fill="none" stroke="#000000" stroke-width="15" stroke-linecap="butt"/><path d="M399.09172,81.125c0,0 0,76.1729 0,95c0,7.96427 -20.61519,19 -20.61519,19h-54.56962c0,0 -20.61519,-11.03573 -20.61519,-19c0,-18.8271 0,-95 0,-95z" data-paper-data="{&quot;index&quot;:null}" fill="none" stroke="#070707" stroke-width="11.5" stroke-linecap="butt"/><path d="M399.09172,78.625c0,0 0,76.1729 0,95c0,7.96427 -20.61519,19 -20.61519,19h-54.56962c0,0 -20.61519,-11.03573 -20.61519,-19c0,-18.8271 0,-95 0,-95z" data-paper-data="{&quot;index&quot;:null}" fill="none" stroke="#262626" stroke-width="5" stroke-linecap="butt"/><path d="M505.42504,78.625c0,0 0,76.1729 0,95c0,7.96427 -20.61519,19 -20.61519,19h-54.56962c0,0 -20.61519,-11.03573 -20.61519,-19c0,-18.8271 0,-95 0,-95z" data-paper-data="{&quot;index&quot;:null}" fill="none" stroke="#000000" stroke-width="15" stroke-linecap="butt"/><path d="M506.09172,82.125c0,0 0,76.1729 0,95c0,7.96427 -20.61519,19 -20.61519,19h-54.56962c0,0 -20.61519,-11.03573 -20.61519,-19c0,-18.8271 0,-95 0,-95z" data-paper-data="{&quot;index&quot;:null}" fill="none" stroke="#070707" stroke-width="11.5" stroke-linecap="butt"/><path d="M506.09172,79.625c0,0 0,76.1729 0,95c0,7.96427 -20.61519,19 -20.61519,19h-54.56962c0,0 -20.61519,-11.03573 -20.61519,-19c0,-18.8271 0,-95 0,-95z" data-paper-data="{&quot;index&quot;:null}" fill="none" stroke="#262626" stroke-width="5" stroke-linecap="butt"/><path d="M-12.79164,71.125v-99h541v99z" fill="#272727" stroke="none" stroke-width="0" stroke-linecap="butt"/><path d="M7.2917,73.125v-86h58v86z" fill="none" stroke="#000000" stroke-width="3.5" stroke-linecap="butt"/><path d="M65.29167,74.125v-86h58v86z" fill="none" stroke="#000000" stroke-width="3.5" stroke-linecap="butt"/><path d="M123.29171,74.125v-86h58v86z" fill="none" stroke="#000000" stroke-width="3.5" stroke-linecap="butt"/><path d="M181.29171,73.125v-86h58v86z" fill="none" stroke="#000000" stroke-width="3.5" stroke-linecap="butt"/><path d="M239.29171,74.125v-86h58v86z" fill="none" stroke="#000000" stroke-width="3.5" stroke-linecap="butt"/><path d="M297.29169,73.125v-86h58v86z" fill="none" stroke="#000000" stroke-width="3.5" stroke-linecap="butt"/><path d="M355.29172,74.125v-86h58v86z" fill="none" stroke="#000000" stroke-width="3.5" stroke-linecap="butt"/><path d="M413.29172,73.125v-86h58v86z" fill="none" stroke="#000000" stroke-width="3.5" stroke-linecap="butt"/><path d="" fill="#000000" stroke="none" stroke-width="1" stroke-linecap="butt"/><path d="" fill="#000000" stroke="none" stroke-width="1" stroke-linecap="butt"/><path d="" fill="#000000" stroke="none" stroke-width="1" stroke-linecap="butt"/><path d="" fill="#000000" stroke="none" stroke-width="0.5" stroke-linecap="butt"/><path d="" fill="#000000" stroke="none" stroke-width="0.5" stroke-linecap="butt"/><path d="" fill="#000000" stroke="none" stroke-width="0.5" stroke-linecap="butt"/><path d="" fill="#000000" stroke="none" stroke-width="0.5" stroke-linecap="butt"/><path d="" fill="#000000" stroke="none" stroke-width="0.5" stroke-linecap="butt"/><path d="" fill="#000000" stroke="none" stroke-width="0.5" stroke-linecap="butt"/><path d="" fill="#000000" stroke="none" stroke-width="0.5" stroke-linecap="butt"/><path d="" fill="#000000" stroke="none" stroke-width="0.5" stroke-linecap="butt"/><path d="" data-paper-data="{&quot;index&quot;:null}" fill="#000000" stroke="none" stroke-width="1" stroke-linecap="butt"/><path d="" data-paper-data="{&quot;index&quot;:null}" fill="#000000" stroke="none" stroke-width="1" stroke-linecap="butt"/><path d="" data-paper-data="{&quot;index&quot;:null}" fill="#000000" stroke="none" stroke-width="1" stroke-linecap="butt"/><path d="" data-paper-data="{&quot;index&quot;:null}" fill="#000000" stroke="none" stroke-width="0.5" stroke-linecap="butt"/><path d="" data-paper-data="{&quot;index&quot;:null}" fill="#000000" stroke="none" stroke-width="0.5" stroke-linecap="butt"/><path d="" data-paper-data="{&quot;index&quot;:null}" fill="#000000" stroke="none" stroke-width="0.5" stroke-linecap="butt"/><path d="" data-paper-data="{&quot;index&quot;:null}" fill="#000000" stroke="none" stroke-width="0.5" stroke-linecap="butt"/><path d="" data-paper-data="{&quot;index&quot;:null}" fill="#000000" stroke="none" stroke-width="0.5" stroke-linecap="butt"/><path d="" data-paper-data="{&quot;index&quot;:null}" fill="#000000" stroke="none" stroke-width="0.5" stroke-linecap="butt"/><path d="" data-paper-data="{&quot;index&quot;:null}" fill="#000000" stroke="none" stroke-width="0.5" stroke-linecap="butt"/><path d="" data-paper-data="{&quot;index&quot;:null}" fill="#000000" stroke="none" stroke-width="0.5" stroke-linecap="butt"/><g stroke="#000000" stroke-width="3.5" stroke-linecap="butt"><path d="M416.04332,405.54631v-98.21915h141.5792v98.21915z" fill="#2b2b2b"/><path d="M416.04332,405.16002v-30.22869h141.5792v30.22869z" fill="#212121"/><path d="M416.04332,341.80528v-34.4781h141.5792v34.4781z" fill="url(#color-1)"/><path d="M416.04332,307.81005v-30.22872h141.5792v30.22872z" fill="#3d3d3d"/><path d="M416.04332,307.42371v-14.77633h141.5792v14.77633z" fill="#303030"/><path d="M550.47808,307.81005v-30.22872h7.1444v30.22872z" data-paper-data="{&quot;index&quot;:null}" fill="#111111"/><path d="M543.42315,307.81005v-30.22872h7.14441v30.22872z" data-paper-data="{&quot;index&quot;:null}" fill="#212121"/><path d="M416.14129,307.81005v-30.22872h7.1444v30.22872z" data-paper-data="{&quot;index&quot;:null}" fill="#111111"/><path d="M423.49013,307.81005v-30.22872h7.1444v30.22872z" data-paper-data="{&quot;index&quot;:null}" fill="#212121"/></g><g stroke="#000000" stroke-width="3.5" stroke-linecap="butt"><path d="M274.94553,405.54631v-98.21915h141.5792v98.21915z" fill="#2b2b2b"/><path d="M274.94553,405.16002v-30.22869h141.5792v30.22869z" fill="#212121"/><path d="M274.94553,341.80528v-34.4781h141.5792v34.4781z" fill="url(#color-2)"/><path d="M274.94553,307.81005v-30.22872h141.5792v30.22872z" fill="#3d3d3d"/><path d="M274.94553,307.42371v-14.77633h141.5792v14.77633z" fill="#303030"/><path d="M409.38038,307.81005v-30.22872h7.1444v30.22872z" data-paper-data="{&quot;index&quot;:null}" fill="#111111"/><path d="M402.32549,307.81005v-30.22872h7.1444v30.22872z" data-paper-data="{&quot;index&quot;:null}" fill="#212121"/><path d="M275.04349,307.81005v-30.22872h7.1444v30.22872z" data-paper-data="{&quot;index&quot;:null}" fill="#111111"/><path d="M282.39234,307.81005v-30.22872h7.14441v30.22872z" data-paper-data="{&quot;index&quot;:null}" fill="#212121"/></g><g stroke="#000000" stroke-width="3.5" stroke-linecap="butt"><path d="M133.84778,405.54631v-98.21915h141.5792v98.21915z" fill="#2b2b2b"/><path d="M133.84778,405.16002v-30.22869h141.5792v30.22869z" fill="#212121"/><path d="M133.84778,341.80528v-34.4781h141.5792v34.4781z" fill="url(#color-3)"/><path d="M133.84778,307.81005v-30.22872h141.5792v30.22872z" fill="#3d3d3d"/><path d="M133.84778,307.42371v-14.77633h141.5792v14.77633z" fill="#303030"/><path d="M268.28257,307.81005v-30.22872h7.1444v30.22872z" data-paper-data="{&quot;index&quot;:null}" fill="#111111"/><path d="M261.22768,307.81005v-30.22872h7.14441v30.22872z" data-paper-data="{&quot;index&quot;:null}" fill="#212121"/><path d="M133.94575,307.81005v-30.22872h7.14441v30.22872z" data-paper-data="{&quot;index&quot;:null}" fill="#111111"/><path d="M141.2946,307.81005v-30.22872h7.1444v30.22872z" data-paper-data="{&quot;index&quot;:null}" fill="#212121"/></g><g stroke="#000000" stroke-width="3.5" stroke-linecap="butt"><path d="M-7.24997,405.54631v-98.21915h141.5792v98.21915z" fill="#2b2b2b"/><path d="M-7.24997,405.16002v-30.22871h141.5792v30.22871z" fill="#212121"/><path d="M-7.24997,341.80528v-34.47812h141.5792v34.47812z" fill="url(#color-4)"/><path d="M-7.24997,307.81005v-30.2287h141.5792v30.2287z" fill="#3d3d3d"/><path d="M-7.24997,307.42371v-14.77633h141.5792v14.77633z" fill="#303030"/><path d="M127.18484,307.81005v-30.2287h7.1444v30.2287z" data-paper-data="{&quot;index&quot;:null}" fill="#111111"/><path d="M120.12995,307.81005v-30.2287h7.1444v30.2287z" data-paper-data="{&quot;index&quot;:null}" fill="#212121"/><path d="M-7.15199,307.81005v-30.2287h7.1444v30.2287z" data-paper-data="{&quot;index&quot;:null}" fill="#111111"/><path d="M0.19685,307.81005v-30.2287h7.14441v30.2287z" data-paper-data="{&quot;index&quot;:null}" fill="#212121"/></g><path d="" data-paper-data="{&quot;index&quot;:null}" fill="#66fffc" stroke="none" stroke-width="5" stroke-linecap="butt"/><path d="" data-paper-data="{&quot;index&quot;:null}" fill="#4fc4c2" stroke="none" stroke-width="5" stroke-linecap="butt"/><path d="" data-paper-data="{&quot;index&quot;:null}" fill="none" stroke="#000000" stroke-width="5" stroke-linecap="butt"/><path d="M12.94805,239.75398c0,8.17744 -2.74957,14.80655 -6.14134,14.80655c-3.39178,0 -6.98264,-2.25444 -6.98264,-10.43188c0,-8.17744 -2.12984,-19.51773 1.26193,-19.51773c1.78046,0 8.1228,-2.57713 10.38984,0.47348c2.05167,2.7608 1.47221,10.78476 1.47221,14.66958z" data-paper-data="{&quot;index&quot;:null}" fill="#00398e" stroke="none" stroke-width="5" stroke-linecap="butt"/><path d="M-0.20768,227.80778v-10.09537h11.27317v10.09537z" data-paper-data="{&quot;index&quot;:null}" fill="#003dd6" stroke="none" stroke-width="5" stroke-linecap="butt"/><path d="M286.04658,-207.4125c25.02841,148.06969 -9.92551,293.18214 -87.75483,409.6624c27.32229,-137.3597 4.09667,-284.75482 -75.63717,-411.95115c24.94311,-4.67758 50.25945,-7.08003 75.63717,-7.1778c29.50324,0.05814 58.91792,3.23119 87.75483,9.46655zM436.15735,-142.74236c45.27704,31.29439 83.94703,71.20008 113.80223,117.4388c-87.00154,122.35635 -214.29785,200.22863 -351.66781,227.55342c116.50582,-77.84672 204.34196,-198.57182 237.86558,-344.99226zM610.24292,126.6192c4.67718,24.941 7.07973,50.25519 7.1779,75.63084c-0.00724,29.4913 -3.12701,58.89941 -9.30758,87.73582c-148.12481,25.07994 -293.29969,-9.87877 -409.82143,-87.73596c137.3596,27.32249 284.75482,4.10307 411.95115,-75.63067zM543.32851,440.12849c-31.23725,45.31329 -71.09318,84.03076 -117.29254,113.94201c-122.4718,-87.00533 -200.40476,-214.37571 -227.74425,-351.82058c77.85447,116.51735 198.59653,204.36261 345.03679,237.87859zM274.07501,614.46195c-24.99907,4.59888 -50.36463,6.91415 -75.78323,6.9171c-29.50541,-0.05764 -58.92231,-3.23085 -87.76134,-9.46665c-25.02619,-148.06741 9.93305,-293.18411 87.76134,-409.6625c-27.34053,137.45034 -4.07802,284.95839 75.78323,412.21204zM-39.58031,547.24873c-45.28059,-31.29741 -83.95279,-71.20752 -113.80854,-117.45137c87.00198,-122.35457 214.312,-200.22286 351.68059,-227.54746c-116.50739,77.848 -204.3496,198.57592 -237.87209,344.99886zM-213.67228,277.8808c-4.67285,-24.94143 -7.07111,-50.25565 -7.16513,-75.63091c0.05606,-29.50303 3.22709,-58.91771 9.46028,-87.75483c148.06959,-25.02818 293.18874,9.92551 409.66887,87.75483c-137.36128,-27.32272 -284.76666,-4.10525 -411.96402,75.63091zM-146.70699,-35.62218c31.29815,-45.27831 71.20825,-83.9483 117.4516,-113.80213c122.35351,87.00208 200.22286,214.30613 227.54716,351.67422c-77.84682,-116.50582 -198.5783,-204.34856 -344.99873,-237.87209z" fill-opacity="0.18863" fill="#ffffff" stroke="none" stroke-width="1.08178" stroke-linecap="square"/><g fill-opacity="0.43548" fill="#ffffff" stroke="none" stroke-width="0" stroke-linecap="butt"><path d="M432.40648,498.78617l-20.86239,9.3956l-68.1573,-185.39018z" data-paper-data="{&quot;origRot&quot;:0}"/><path d="M183.38151,523.38841l-22.54092,-3.9274l47.5942,-191.70219z" data-paper-data="{&quot;origPos&quot;:null}"/><path d="M-79.8688,483.52022l-21.35081,-18.36057l171.15264,-172.63392z" data-paper-data="{&quot;origPos&quot;:null,&quot;origRot&quot;:0}"/><path d="M-111.87603,-27.30187l12.69992,-24.39397l202.29812,124.26784z" data-paper-data="{&quot;origPos&quot;:null,&quot;origRot&quot;:0}"/><path d="M60.09914,485.2505l-19.77875,-11.50297l111.14027,-163.2874z" data-paper-data="{&quot;origPos&quot;:null,&quot;origRot&quot;:0}"/><path d="M304.27785,538.18036l-22.74071,2.52524l-7.84805,-197.36602z" data-paper-data="{&quot;origPos&quot;:null}"/><path d="M603.54713,420.93621l-15.13639,17.15827l-138.50179,-140.82682z" data-paper-data="{&quot;origPos&quot;:null,&quot;origRot&quot;:0}"/><path d="M604.72336,243.11945l-6.37246,21.97519l-185.33647,-68.3032z" data-paper-data="{&quot;origPos&quot;:null,&quot;origRot&quot;:0}"/><path d="M50.30738,-116.39253l18.83936,-12.98443l100.29735,170.16281z" data-paper-data="{&quot;origRot&quot;:0}"/><path d="M447.47093,-111.98379l17.33749,14.93079l-139.16582,140.17068z" data-paper-data="{&quot;origRot&quot;:0}"/><path d="M600.72754,-75.09267l14.72785,24.52987l-220.22991,111.83284z" data-paper-data="{&quot;origRot&quot;:0}"/><path d="M601.84204,108.72774l1.08485,22.85476l-197.46786,-4.62498z" data-paper-data="{&quot;origPos&quot;:null,&quot;origRot&quot;:0}"/><path d="M-111.47531,146.82418l-0.15796,-22.87994l197.11829,12.62197z" data-paper-data="{&quot;origPos&quot;:null,&quot;origRot&quot;:0}"/><path d="M-102.34706,309.39562l-10.08943,-20.53582l183.00205,-74.33164z" data-paper-data="{&quot;origRot&quot;:0}"/><path d="M563.8576,529.29663l-19.21391,12.42348l-95.23812,-173.0452z" data-paper-data="{&quot;origRot&quot;:0}"/><path d="M-66.95066,530.44561l-18.63101,-13.28164l125.75541,-152.31717z" data-paper-data="{&quot;origRot&quot;:0}"/><path d="M-167.95329,379.9336l-11.44283,-19.8136l177.60994,-86.42712z" data-paper-data="{&quot;origRot&quot;:0}"/><path d="M658.36634,342.00006l-10.89321,20.121l-166.60722,-106.09888z" data-paper-data="{&quot;origRot&quot;:0}"/><path d="M658.93015,160.0289l-1.3781,22.83897l-195.82658,-25.82409z" data-paper-data="{&quot;origRot&quot;:0}"/><path d="M633.88377,-7.46041l7.12858,21.74168l-191.57627,48.09852z" data-paper-data="{&quot;origRot&quot;:0}"/><path d="M553.67439,-137.37011l16.07346,16.28378l-150.04404,128.45905z" data-paper-data="{&quot;origRot&quot;:0}"/><path d="M135.64489,-197.06263l22.26511,-5.2709l31.78185,194.94835z" data-paper-data="{&quot;origRot&quot;:0}"/><path d="M309.09307,-169.97302l22.14439,5.75706l-63.10732,187.16946z" data-paper-data="{&quot;origRot&quot;:0}"/><path d="M-45.71018,-99.35361l14.80216,-17.44743l141.19593,138.12548z" data-paper-data="{&quot;origRot&quot;:0}"/><path d="M-173.00986,210.03506l-3.06194,-22.67468l197.12544,-12.50986z" data-paper-data="{&quot;origRot&quot;:0}"/><path d="M-176.0771,67.26477l2.70575,-22.71993l193.99045,37.18391z" data-paper-data="{&quot;origRot&quot;:0}"/><path d="M-149.09095,446.69936l-14.57901,-17.63435l160.76067,-114.76476z" data-paper-data="{&quot;origRot&quot;:0}"/><path d="M375.27709,563.34592l-22.21267,5.48761l-33.67993,-194.62939z"/><path d="M75.58331,545.0462l-21.15445,-8.71814l88.0006,-176.83559z"/></g><path d="M58.1128,236.1989c0,21.53508 -9.76109,20.43449 -23.3282,20.43449c-13.5671,0 -25.80262,1.10058 -25.80262,-20.43449c0,-21.53509 10.99831,-38.99271 24.56542,-38.99271c13.56709,0 24.5654,17.45762 24.5654,38.99271z" data-paper-data="{&quot;index&quot;:null}" fill="#003dd6" stroke="none" stroke-width="5" stroke-linecap="butt"/><path d="M18.10496,228.82287c0,14.02955 13.373,22.0937 27.39047,21.51186c6.04082,-3.38912 7.59542,-20.50457 9.52779,-18.38512c6.68016,7.32689 -1.7795,37.28449 -1.93309,39.98686c-0.08439,1.48504 -9.06734,3.14083 -13.14085,-1.39969c-0.76087,-0.8481 -0.91513,-2.3455 -1.25758,-4.77211c-0.38725,-2.74417 -0.92135,-6.39517 -1.10532,-6.41863c-4.91543,-0.62693 -7.50876,-2.50512 -7.47569,-1.79008c0.22641,4.89432 2.16494,13.33466 -0.95177,16.48086c-2.59544,2.61998 -9.83422,0.38349 -13.9143,0.38349c-0.75383,0 -3.83336,-21.1736 -3.8844,-32.878c-0.03704,-8.49494 2.03357,-7.39258 2.03357,-12.55118c0,-12.26614 1.39115,-23.38762 2.69212,-23.38762c1.30095,0 2.01908,10.95321 2.01908,23.21937z" data-paper-data="{&quot;index&quot;:null}" fill="#00398e" stroke="none" stroke-width="5" stroke-linecap="butt"/><path d="M55.87864,224.67485c0,5.25406 0.34562,17.63453 -0.20434,24.86186c-0.70645,9.2839 0.17395,15.01404 -1.72301,21.01539c-1.96815,1.8143 -8.29556,1.95714 -11.02674,0.29949c-3.8001,-2.30642 -1.96409,-7.01472 -3.15947,-10.46632c-0.72513,-2.09376 -5.43981,-1.60078 -8.1363,-1.58734c-1.39805,0.00696 2.2636,8.45492 -2.00498,13.2168c-1.26014,1.40577 -2.52662,3.17816 -7.38534,3.10595c-6.1085,-0.20635 -8.09639,-1.58279 -8.59114,-2.07827c-2.29573,-10.3471 -1.30714,-35.26889 -1.30714,-38.40538c0,-15.99646 1.25671,-41.84874 21.95372,-37.45048c18.6418,3.96152 21.58476,11.49183 21.58476,27.48829z" data-paper-data="{&quot;index&quot;:null}" fill="none" stroke="#000000" stroke-width="5" stroke-linecap="butt"/><path d="M9.8,254.62435l-5.72072,-0.33651l-2.52383,-2.18734l-1.68257,-7.06677v-14.30179l1.00955,-11.44142l1.68255,-2.35557l9.08583,-1.51431" data-paper-data="{&quot;index&quot;:null}" fill="none" stroke="#000000" stroke-width="5" stroke-linecap="round"/><path d="M65.88609,221.23718c0,6.50478 -8.35662,11.77795 -18.66503,11.77795c-10.30841,0 -18.66503,-5.27315 -18.66503,-11.77793c0,-6.50478 8.35662,-11.77793 18.66505,-11.77793c10.30841,0 18.66503,5.27315 18.66503,11.77793z" data-paper-data="{&quot;index&quot;:null}" fill="#49646d" stroke="none" stroke-width="5" stroke-linecap="butt"/><path d="M52.06041,212.11145c10.38923,1.68257 13.39157,10.27577 6.97895,10.79058c-1.42653,1.59397 -10.56976,1.02513 -16.07957,1.02513c-5.50979,0 -8.27903,-8.32727 -8.27903,-10.46637c0,-2.13908 11.94073,-2.23019 17.37966,-1.34934z" data-paper-data="{&quot;index&quot;:null}" fill="#95cadc" stroke="none" stroke-width="5" stroke-linecap="butt"/><path d="M57.59277,218.5249c-1.02252,1.14254 -7.57622,0.25239 -11.52556,0.25239c-3.94932,0 -3.28099,-1.74774 -3.28099,-3.28099c0,-1.53327 3.20158,-2.77622 7.1509,-2.77622c3.94932,0 10.68427,2.42074 7.65565,5.80484z" data-paper-data="{&quot;index&quot;:null}" fill="#fefefe" stroke="none" stroke-width="5" stroke-linecap="butt"/><path d="M31.56508,211.45095c20.60074,-7.09604 30.26899,0.65065 31.3694,8.2738c0.77003,5.33437 -2.56301,9.29322 -15.56372,11.60968c0,0 -9.85603,0.72454 -13.28909,-2.43589c-5.64938,-5.20071 -5.3515,-16.4711 -2.5166,-17.44759z" data-paper-data="{&quot;index&quot;:null}" fill="none" stroke="#000000" stroke-width="5" stroke-linecap="butt"/><path d="M41.57825,260.59229l-5.56745,-4.94886l11.59889,0.30931c0,0 -1.84204,2.36869 -2.95563,3.22528c-0.73742,0.56724 -3.07579,1.41427 -3.07579,1.41427z" data-paper-data="{&quot;index&quot;:null}" fill="#000000" stroke="none" stroke-width="5" stroke-linecap="butt"/><g stroke-width="5"><path d="M182.12185,217.47033c1.08869,7.9523 -6.45936,5.54319 -9.75776,5.99474c-3.2984,0.45156 -7.09054,-1.26276 -8.17923,-9.21507c-1.08869,-7.9523 -4.66967,-18.69683 -1.37128,-19.14839c1.02112,-0.13979 3.46585,-1.36247 5.83542,-1.79557c1.64837,-0.30128 3.26036,-0.22046 4.33143,0.87278c2.36275,2.41165 2.86749,10.29185 3.38468,14.06972z" data-paper-data="{&quot;index&quot;:null}" fill="#9d0000" stroke="none" stroke-linecap="butt"/><path d="M162.17564,198.35607l-1.34403,-9.81744l10.96281,-1.50083l1.34403,9.81744z" data-paper-data="{&quot;index&quot;:null}" fill="#d50000" stroke="none" stroke-linecap="butt"/><path d="M219.95395,200.59768c2.86704,20.9422 -6.77185,21.17145 -19.96544,22.97769c-13.19359,1.80623 -22.44872,3.34649 -25.31576,-17.59572c-2.86704,-20.9422 1.81665,-40.20646 15.01024,-42.0127c13.19359,-1.80623 27.40392,15.68852 30.27096,36.63072z" data-paper-data="{&quot;index&quot;:null}" fill="#d50000" stroke="none" stroke-linecap="butt"/><path d="M180.06599,196.51621c1.8678,13.64331 15.94624,19.70507 29.50035,17.27305c5.42332,-4.10005 4.65646,-20.95128 6.81781,-19.14744c3.92113,3.27254 1.12777,13.66341 2.02798,24.92546c0.81514,10.19775 -5.42703,3.94689 -15.33741,4.03813c-0.39607,0.00364 -3.70691,14.43884 -7.43851,14.95574c-34.15925,4.73175 -19.1538,-14.29816 -21.20224,-14.59006c-1.77097,-0.25236 16.92902,-1.91896 16.95734,-1.76532c-3.40094,-5.69353 -14.86249,-3.02338 -16.191,-12.42237c-1.16697,-8.25613 0.99339,-7.4598 0.30661,-12.47637c-1.63303,-11.92845 -1.76082,-22.92895 -0.49568,-23.10215c1.26514,-0.1732 3.42172,10.38286 5.05476,22.31131z" data-paper-data="{&quot;index&quot;:null}" fill="#9d0000" stroke="none" stroke-linecap="butt"/><path d="M216.30077,187.84242c0.69949,5.10942 2.68385,17.10303 3.11123,24.2046c0.28036,4.65837 1.51495,8.99093 -2.94376,10.59211c-3.12474,1.12214 -12.40022,-0.82095 -12.39188,2.44962c0.03356,13.141 -12.10809,19.36232 -28.1828,13.15199c-9.82383,-3.79535 -2.12927,-15.00992 -2.27779,-15.07437c-12.09784,-5.25015 24.62989,5.07338 12.92508,-1.00275c-6.93184,-3.59841 -10.03618,-9.9442 -11.25361,-18.83686c-2.12966,-15.55607 -4.34934,-40.86392 16.36342,-39.34221c18.65599,1.37061 22.52045,8.30179 24.65012,23.85785z" data-paper-data="{&quot;index&quot;:null}" fill="none" stroke="#000000" stroke-linecap="butt"/><path d="M182.70109,221.39815l-12.83111,2.13823l-2.74557,-1.79111l-2.57706,-6.64821l-1.90404,-13.90804l-0.54149,-11.26084l1.32263,-2.51474l8.63409,-2.68224" data-paper-data="{&quot;index&quot;:null}" fill="none" stroke="#000000" stroke-linecap="round"/><path d="M225.57504,183.16708c0.866,6.3257 -6.55852,12.56623 -16.58314,13.93862c-10.02461,1.37239 -18.85321,-2.64305 -19.71921,-8.96874c-0.866,-6.3257 6.55853,-12.56622 16.58314,-13.93862c10.02461,-1.37239 18.85321,2.64305 19.71921,8.96875z" data-paper-data="{&quot;index&quot;:null}" fill="#49646d" stroke="none" stroke-linecap="butt"/><path d="M219.13848,185.69762c-1.17505,1.74001 -10.1423,2.4041 -15.50042,3.13764c-5.35811,0.73354 -9.15974,-6.9958 -9.44453,-9.076c-0.28478,-2.0802 11.31507,-3.7585 16.72154,-3.62601c10.32722,0.25309 14.39094,8.21 8.2234,9.56437z" data-paper-data="{&quot;index&quot;:null}" fill="#95cadc" stroke="none" stroke-linecap="butt"/><path d="M217.14896,181.63358c-0.84225,1.24721 -7.33404,1.25408 -11.17465,1.77987c-3.8406,0.52579 -3.42335,-1.26281 -3.62748,-2.75385c-0.20413,-1.49106 2.74381,-3.12603 6.58442,-3.65182c3.8406,-0.52579 10.71241,0.93167 8.21771,4.62581z" data-paper-data="{&quot;index&quot;:null}" fill="#fefefe" stroke="none" stroke-linecap="butt"/><path d="M222.50335,182.08924c1.45901,5.085 -1.25519,9.37859 -13.58959,13.36211c0,0 -9.48822,2.01676 -13.24753,-0.5996c-6.18624,-4.3054 -7.39703,-15.30516 -4.77018,-16.63219c19.08888,-9.64332 29.52229,-3.39708 31.60731,3.86969z" data-paper-data="{&quot;index&quot;:null}" fill="none" stroke="#000000" stroke-linecap="butt"/><path d="M235.7518,223.82864c-0.25941,4.54085 -1.42536,13.6108 -6.95952,13.29464c-5.53416,-0.31616 -23.27398,-12.35893 -23.01458,-16.89978c0.25941,-4.54085 9.08514,-7.49037 14.6193,-7.17422c0,0 12.77034,10.25264 15.3548,10.77936z" fill="#9d0000" stroke="#000000" stroke-linecap="butt"/><path d="M211.74316,222.12468l-15.27394,-1.89249c0,0 7.65286,-5.82697 11.16453,-7.84485c2.90729,-1.6706 8.43685,-3.41854 8.43685,-3.41854c0,0 0.73491,3.66368 1.51503,5.24697c0.55992,1.13639 2.72821,3.36489 2.72821,3.36489z" fill="#9d0000" stroke="none" stroke-linecap="butt"/><path d="M202.20028,224.04398l-11.93663,0.10202" fill="none" stroke="#000000" stroke-linecap="round"/></g></g></g></svg>