<svg version="1.1" xmlns="http://www.w3.org/2000/svg" xmlns:xlink="http://www.w3.org/1999/xlink" width="114.03828" height="136.78493" viewBox="0,0,114.03828,136.78493"><g transform="translate(-182.37833,-111.60553)"><g data-paper-data="{&quot;isPaintingLayer&quot;:true}" fill-rule="nonzero" stroke-linejoin="miter" stroke-miterlimit="10" stroke-dasharray="" stroke-dashoffset="0" style="mix-blend-mode: normal"><path d="" data-paper-data="{&quot;index&quot;:null}" fill="#66fffc" stroke="none" stroke-width="2.5" stroke-linecap="butt"/><path d="" data-paper-data="{&quot;index&quot;:null}" fill="#4fc4c2" stroke="none" stroke-width="2.5" stroke-linecap="butt"/><path d="" data-paper-data="{&quot;index&quot;:null}" fill="none" stroke="#000000" stroke-width="2.5" stroke-linecap="butt"/><g><path d="M208.19148,186.21946c0,13.21911 -4.44479,23.93531 -9.92771,23.93531c-5.48292,0 -11.28767,-3.6444 -11.28767,-16.86351c0,-13.21911 -3.44298,-31.55108 2.03994,-31.55108c2.87817,0 13.1308,-4.16602 16.79557,0.7654c3.31662,4.46293 2.37987,17.43395 2.37987,23.71389z" fill="#9d0000" stroke="none" stroke-width="0" stroke-linecap="butt"/><path d="M187.24807,166.90802v-16.31952h18.22347v16.31952z" fill="#d50000" stroke="none" stroke-width="0" stroke-linecap="butt"/><path d="M281.52519,180.47256c0,34.81221 -15.77915,33.03309 -37.71085,33.03309c-21.93169,0 -41.71085,1.77913 -41.71085,-33.03309c0,-34.81221 17.77915,-63.03309 39.71085,-63.03309c21.93169,0 39.71085,28.22087 39.71085,63.03309z" fill="#d50000" stroke="none" stroke-width="0" stroke-linecap="butt"/><path d="M216.85113,167.90233c0,22.67926 21.61792,35.71526 44.27767,34.7747c9.76522,-5.47863 12.27825,-33.14637 15.402,-29.72021c10.7987,11.84418 -2.87663,60.27169 -3.1249,64.64017c-0.13644,2.40063 -14.65767,5.07723 -21.24265,-2.26265c-1.22997,-1.37097 -1.47933,-3.79159 -2.03292,-7.71431c-0.62602,-4.43607 -1.4894,-10.33802 -1.78681,-10.37595c-7.94596,-1.01347 -12.13817,-4.04963 -12.0847,-2.89371c0.36603,7.91183 3.49971,21.55596 -1.53857,26.64189c-4.19561,4.23529 -15.89739,0.61992 -22.49298,0.61992c-1.21859,0 -6.19678,-34.22786 -6.27927,-53.14845c-0.05987,-13.73235 3.28735,-11.95038 3.28735,-20.28942c0,-19.82865 2.24884,-37.8069 4.35188,-37.8069c2.10304,0 3.2639,17.70625 3.2639,37.53491z" fill="#9d0000" stroke="none" stroke-width="0" stroke-linecap="butt"/><path d="M277.91359,161.8435c0,8.49339 0.55871,28.50684 -0.33032,40.19007c-1.142,15.00773 0.28121,24.27069 -2.78529,33.97211c-3.18158,2.93288 -13.41005,3.16381 -17.82511,0.48417c-6.143,-3.7284 -3.17502,-11.33954 -5.10739,-16.91917c-1.17219,-3.38463 -8.79364,-2.58774 -13.1526,-2.56599c-2.25999,0.01128 3.65915,13.66768 -3.24115,21.36543c-2.03706,2.27248 -4.08437,5.13763 -11.93866,5.0209c-9.87462,-0.33357 -13.0881,-2.55865 -13.88789,-3.35962c-3.71112,-16.72645 -2.11304,-57.01342 -2.11304,-62.08365c0,-25.85884 2.03154,-67.64994 35.48897,-60.54c30.13513,6.40393 34.89251,18.57692 34.89251,44.43576z" fill="none" stroke="#000000" stroke-width="10" stroke-linecap="butt"/><path d="M203.42587,210.25794l-9.24773,-0.54398l-4.07989,-3.5359l-2.71992,-11.42367v-23.11933l1.63196,-18.49546l2.71992,-3.80788l14.68757,-2.44793" fill="none" stroke="#000000" stroke-width="10" stroke-linecap="round"/><path d="M294.09098,156.28641c0,10.5152 -13.50877,19.03945 -30.17268,19.03945c-16.66391,0 -30.17268,-8.52425 -30.17268,-19.03944c0,-10.5152 13.50878,-19.03944 30.17269,-19.03944c16.66391,0 30.17268,8.52425 30.17268,19.03945z" fill="#49646d" stroke="none" stroke-width="0" stroke-linecap="butt"/><path d="M283.02301,158.9777c-2.30604,2.57671 -17.08641,1.65716 -25.9932,1.65716c-8.90678,0 -13.38335,-13.46132 -13.38335,-16.91924c0,-3.45792 19.30259,-3.60518 28.09482,-2.18126c16.79456,2.71992 21.64795,16.61113 11.28172,17.44334z" fill="#95cadc" stroke="none" stroke-width="0" stroke-linecap="butt"/><path d="M280.68455,151.90191c-1.65293,1.84694 -12.24723,0.40798 -18.63146,0.40798c-6.38422,0 -5.30385,-2.82527 -5.30385,-5.30384c0,-2.47858 5.17544,-4.48787 11.55967,-4.48787c6.38422,0 17.2715,3.91323 12.37564,9.38373z" fill="#fefefe" stroke="none" stroke-width="0" stroke-linecap="butt"/><path d="M289.31959,153.84151c1.24478,8.62321 -4.14316,15.02281 -25.15927,18.76746c0,0 -15.9326,1.17124 -21.48228,-3.93769c-9.13242,-8.40712 -8.6509,-26.62609 -4.06819,-28.20463c33.30183,-11.47099 48.93089,1.05179 50.70975,13.37487z" fill="none" stroke="#000000" stroke-width="10" stroke-linecap="butt"/><path d="M254.79649,219.90532l-9,-8l18.75,0.5c0,0 -2.97774,3.82903 -4.77788,5.21376c-1.19205,0.91696 -4.97212,2.28625 -4.97212,2.28625z" fill="#000000" stroke="none" stroke-width="0" stroke-linecap="butt"/></g></g></g></svg>