<svg version="1.1" xmlns="http://www.w3.org/2000/svg" xmlns:xlink="http://www.w3.org/1999/xlink" width="39.77903" height="47.45532" viewBox="0,0,39.77903,47.45532"><g transform="translate(-219.964,-156.27164)"><g data-paper-data="{&quot;isPaintingLayer&quot;:true}" fill-rule="nonzero" stroke-linejoin="miter" stroke-miterlimit="10" stroke-dasharray="" stroke-dashoffset="0" style="mix-blend-mode: normal"><path d="" data-paper-data="{&quot;index&quot;:null}" fill="#66fffc" stroke="none" stroke-width="2.5" stroke-linecap="butt"/><path d="" data-paper-data="{&quot;index&quot;:null}" fill="#4fc4c2" stroke="none" stroke-width="2.5" stroke-linecap="butt"/><path d="" data-paper-data="{&quot;index&quot;:null}" fill="none" stroke="#000000" stroke-width="2.5" stroke-linecap="butt"/><g stroke-width="4"><path d="M229.09768,182.13171c0,4.53083 -1.52345,8.20379 -3.40271,8.20379c-1.87926,0 -3.86883,-1.24911 -3.86883,-5.77994c0,-4.53083 -1.18008,-10.81409 0.69919,-10.81409c0.98649,0 4.50056,-1.4279 5.75666,0.26234c1.13677,1.52966 0.8157,5.97546 0.8157,8.1279z" fill="#9d0000" stroke="none" stroke-linecap="butt"/><path d="M221.91935,175.51274v-5.59349h6.24607v5.59349z" fill="#d50000" stroke="none" stroke-linecap="butt"/><path d="M254.2327,180.16197c0,11.93183 -5.40828,11.32204 -12.92534,11.32204c-7.51705,0 -14.29633,0.60979 -14.29633,-11.32204c0,-11.93183 6.09378,-21.6045 13.61084,-21.6045c7.51705,0 13.61084,9.67266 13.61084,21.6045z" fill="#d50000" stroke="none" stroke-linecap="butt"/><path d="M232.06576,175.85354c0,7.77328 7.40951,12.24135 15.17611,11.91898c3.34701,-1.87779 4.20835,-11.36087 5.27901,-10.18656c3.70124,4.05958 -0.98596,20.65803 -1.07105,22.15532c-0.04676,0.82281 -5.02389,1.74021 -7.28089,-0.77552c-0.42157,-0.4699 -0.50704,-1.29956 -0.69678,-2.64407c-0.21457,-1.52046 -0.51049,-3.54334 -0.61243,-3.55634c-2.72347,-0.34737 -4.16034,-1.388 -4.14201,-0.99181c0.12546,2.71177 1.19952,7.38827 -0.52734,9.13147c-1.43804,1.45164 -5.44881,0.21248 -7.70944,0.21248c-0.41767,0 -2.12394,-11.73155 -2.15221,-18.21655c-0.02052,-4.70674 1.12673,-4.09598 1.12673,-6.95417c0,-6.79624 0.77079,-12.95826 1.4916,-12.95826c0.72081,0 1.1187,6.06879 1.1187,12.86504z" fill="#9d0000" stroke="none" stroke-linecap="butt"/><path d="M252.99483,173.77688c0,2.9111 0.1915,9.77068 -0.11322,13.77509c-0.39142,5.14388 0.09638,8.31874 -0.95465,11.64389c-1.09048,1.00524 -4.59627,1.08439 -6.10953,0.16595c-2.1055,-1.2779 -1.08823,-3.88661 -1.75055,-5.79902c-0.40177,-1.16008 -3.01401,-0.88694 -4.50803,-0.87949c-0.77461,0.00387 1.25417,4.68458 -1.1109,7.32297c-0.6982,0.77889 -1.39991,1.76092 -4.09196,1.72091c-3.38451,-0.11433 -4.48593,-0.87697 -4.76005,-1.1515c-1.27198,-5.73297 -0.72424,-19.54127 -0.72424,-21.27908c0,-8.86308 0.69631,-23.18692 12.16379,-20.75c10.32877,2.19494 11.95936,6.36721 11.95936,15.23029z" fill="none" stroke="#000000" stroke-linecap="butt"/><path d="M227.46427,190.37086l-3.16965,-0.18645l-1.39838,-1.21192l-0.93225,-3.91545v-7.92412l0.55935,-6.33929l0.93225,-1.30515l5.03414,-0.83902" fill="none" stroke="#000000" stroke-linecap="round"/><path d="M258.5396,171.8722c0,3.60407 -4.63011,6.52574 -10.34164,6.52574c-5.71153,0 -10.34164,-2.92167 -10.34164,-6.52574c0,-3.60407 4.63011,-6.52574 10.34165,-6.52574c5.71153,0 10.34164,2.92167 10.34164,6.52574z" fill="#49646d" stroke="none" stroke-linecap="butt"/><path d="M254.74607,172.79464c-0.79039,0.88316 -5.85634,0.56799 -8.90913,0.56799c-3.05279,0 -4.58712,-4.61385 -4.58712,-5.79904c0,-1.1852 6.61593,-1.23567 9.62946,-0.74762c5.75631,0.93225 7.4198,5.69344 3.86679,5.97868z" fill="#95cadc" stroke="none" stroke-linecap="butt"/><path d="M253.94457,170.36942c-0.56654,0.63304 -4.19772,0.13983 -6.38591,0.13983c-2.18818,0 -1.81789,-0.96836 -1.81789,-1.81788c0,-0.84953 1.77387,-1.53821 3.96206,-1.53821c2.18818,0 5.91978,1.34125 4.24173,3.21626z" fill="#fefefe" stroke="none" stroke-linecap="butt"/><path d="M256.90422,171.03421c0.42665,2.95559 -1.42006,5.14905 -8.6233,6.43252c0,0 -5.46088,0.40144 -7.36302,-1.34964c-3.13012,-2.88153 -2.96508,-9.12605 -1.39437,-9.6671c11.41415,-3.93166 16.77099,0.3605 17.38069,4.58422z" fill="none" stroke="#000000" stroke-linecap="butt"/><path d="M245.07148,193.67749l-3.08474,-2.74199l6.42653,0.17137c0,0 -1.02062,1.31239 -1.63761,1.78701c-0.40857,0.31429 -1.70419,0.78361 -1.70419,0.78361z" fill="#000000" stroke="none" stroke-linecap="butt"/></g></g></g></svg>