<svg version="1.1" xmlns="http://www.w3.org/2000/svg" xmlns:xlink="http://www.w3.org/1999/xlink" width="124.9726" height="138.58604" viewBox="0,0,124.9726,138.58604"><g transform="translate(-178.61714,-95.74962)"><g data-paper-data="{&quot;isPaintingLayer&quot;:true}" fill-rule="nonzero" stroke-linejoin="miter" stroke-miterlimit="10" stroke-dasharray="" stroke-dashoffset="0" style="mix-blend-mode: normal"><path d="" data-paper-data="{&quot;index&quot;:null}" fill="#66fffc" stroke="none" stroke-width="2.5" stroke-linecap="butt"/><path d="" data-paper-data="{&quot;index&quot;:null}" fill="#4fc4c2" stroke="none" stroke-width="2.5" stroke-linecap="butt"/><path d="" data-paper-data="{&quot;index&quot;:null}" fill="none" stroke="#000000" stroke-width="2.5" stroke-linecap="butt"/><g><path d="M297.85216,209.05201c-1.43765,7.35143 -5.36625,21.89057 -14.32581,20.13843c-8.95956,-1.75213 -35.21575,-25.36536 -33.77811,-32.71679c1.43765,-7.35143 16.49762,-10.19268 25.45718,-8.44055c0,0 18.54728,19.58213 22.64674,21.01891z" fill="#9d0000" stroke="#000000" stroke-width="10" stroke-linecap="butt"/><path d="M211.76364,186.69688c0,13.21911 -11.77812,7.60198 -17.26104,7.60198c-5.48292,0 -11.28767,-3.6444 -11.28767,-16.86351c0,-13.21911 -3.44298,-31.55108 2.03994,-31.55108c1.6974,0 5.95965,-1.44895 9.92286,-1.62631c2.75697,-0.12338 5.36923,0.36859 6.87271,2.39171c3.31662,4.46293 2.37987,17.43395 2.37987,23.71389z" data-paper-data="{&quot;index&quot;:null}" fill="#9d0000" stroke="none" stroke-width="0" stroke-linecap="butt"/><path d="M183.4869,151.05211v-16.31952h18.22347v16.31952z" data-paper-data="{&quot;index&quot;:null}" fill="#d50000" stroke="none" stroke-width="0" stroke-linecap="butt"/><path d="M277.26402,167.61665c0,34.81221 -15.77915,33.03309 -37.71085,33.03309c-21.93169,0 -37.37752,0.4458 -37.37752,-34.36642c0,-34.81221 11.94582,-65.19976 33.87752,-65.19976c21.93169,0 41.21085,31.72087 41.21085,66.53309z" data-paper-data="{&quot;index&quot;:null}" fill="#d50000" stroke="none" stroke-width="0" stroke-linecap="butt"/><path d="M213.08995,152.04643c0,22.67926 21.61792,35.71526 44.27767,34.7747c9.76522,-5.47863 12.27825,-33.14637 15.402,-29.72021c5.66713,6.21579 -1.21201,22.54675 -2.2589,41.12432c-0.94795,16.82193 -9.73706,5.22788 -25.92838,3.16293c-0.64709,-0.08254 -9.27406,22.73203 -15.47845,22.74188c-56.79524,0.09018 -28.05957,-27.60924 -31.33684,-28.54313c-2.83335,-0.80739 28.05204,0.6505 28.06393,0.90753c-4.27751,-10.04996 -23.576,-8.25338 -23.64415,-23.88663c-0.05987,-13.73235 3.28735,-11.95038 3.28735,-20.28942c0,-19.82865 2.24884,-37.8069 4.35188,-37.8069c2.10304,0 3.2639,17.70625 3.2639,37.53491z" data-paper-data="{&quot;index&quot;:null}" fill="#9d0000" stroke="none" stroke-width="0" stroke-linecap="butt"/><path d="M274.15242,145.9876c0,8.49339 0.55871,28.50684 -0.33032,40.19007c-0.58315,7.66377 0.46352,15.00907 -7.16952,16.62574c-5.34936,1.13299 -20.05027,-4.10959 -20.76725,1.22891c-2.88075,21.4499 -24.08224,28.88905 -48.92433,15.16469c-15.18189,-8.38745 -0.12137,-24.96759 -0.3493,-25.10593c-18.56745,-11.26924 39.05569,13.78029 21.31408,1.25108c-10.50697,-7.42007 -14.15482,-18.46807 -14.15482,-33.25033c0,-25.85884 2.03154,-67.64994 35.48897,-60.54c30.13513,6.40393 34.89251,18.57692 34.89251,44.43576z" data-paper-data="{&quot;index&quot;:null}" fill="none" stroke="#000000" stroke-width="10" stroke-linecap="butt"/><path d="M211.83135,193.23537l-21.4144,0.62269l-4.07989,-3.5359l-2.71992,-11.42367v-23.11933l1.63196,-18.49546l2.71992,-3.80788l14.68757,-2.44793" data-paper-data="{&quot;index&quot;:null}" fill="none" stroke="#000000" stroke-width="10" stroke-linecap="round"/><path d="M290.32981,140.4305c0,10.5152 -13.50877,19.03945 -30.17268,19.03945c-16.66391,0 -30.17268,-8.52425 -30.17268,-19.03944c0,-10.5152 13.50878,-19.03944 30.17269,-19.03944c16.66391,0 30.17268,8.52425 30.17268,19.03945z" data-paper-data="{&quot;index&quot;:null}" fill="#49646d" stroke="none" stroke-width="0" stroke-linecap="butt"/><path d="M279.26184,143.12179c-2.30604,2.57671 -17.08641,1.65716 -25.9932,1.65716c-8.90678,0 -13.38335,-13.46132 -13.38335,-16.91924c0,-3.45792 19.30259,-3.60518 28.09482,-2.18126c16.79456,2.71992 21.64795,16.61113 11.28172,17.44334z" data-paper-data="{&quot;index&quot;:null}" fill="#95cadc" stroke="none" stroke-width="0" stroke-linecap="butt"/><path d="M276.92338,136.046c-1.65293,1.84694 -12.24723,0.40798 -18.63146,0.40798c-6.38422,0 -5.30385,-2.82527 -5.30385,-5.30384c0,-2.47858 5.17544,-4.48787 11.55967,-4.48787c6.38422,0 17.2715,3.91323 12.37564,9.38373z" data-paper-data="{&quot;index&quot;:null}" fill="#fefefe" stroke="none" stroke-width="0" stroke-linecap="butt"/><path d="M285.55842,137.9856c1.24478,8.62321 -4.14316,15.02281 -25.15927,18.76746c0,0 -15.9326,1.17124 -21.48228,-3.93769c-9.13242,-8.40712 -8.6509,-26.62609 -4.06819,-28.20463c33.30183,-11.47099 48.93089,1.05179 50.70975,13.37487z" data-paper-data="{&quot;index&quot;:null}" fill="none" stroke="#000000" stroke-width="10" stroke-linecap="butt"/></g></g></g></svg>