<svg version="1.1" xmlns="http://www.w3.org/2000/svg" xmlns:xlink="http://www.w3.org/1999/xlink" width="576.41666" height="415.75" viewBox="0,0,576.41666,415.75"><g transform="translate(48.20834,27.875)"><g data-paper-data="{&quot;isPaintingLayer&quot;:true}" fill-rule="nonzero" stroke-linecap="butt" stroke-linejoin="miter" stroke-miterlimit="10" stroke-dasharray="" stroke-dashoffset="0" style="mix-blend-mode: normal"><path d="M-29.50001,386.125v-71h546v71z" fill="#1a1a1a" stroke="#000000" stroke-width="3.5"/><path d="M-38.79167,313.125v-245h541v245z" fill="#3f3f3f" stroke="none" stroke-width="0"/><path d="M389.0393,194.10528c6.16516,-0.73709 9.52057,-18.22602 16.00609,-18.2063c7.43057,0.02259 15.11386,17.05733 23.00856,17.10301c15.59447,0.09024 149.97242,12.23885 -7.01018,12.75937c-5.10141,0.01692 -10.1059,10.02687 -15.00177,10.02938c-6.51457,0.00334 -6.83682,-9.46347 -12.93924,-10.18351c-20.52283,-2.42155 -22.23482,-9.32943 -4.06346,-11.50195z" fill="#000000" stroke="none" stroke-width="0"/><path d="M281.0393,194.10528c6.16516,-0.73709 11.52057,-18.22602 18.00609,-18.2063c7.43057,0.02259 13.11386,17.05733 21.00856,17.10301c15.59447,0.09024 149.97242,12.23885 -7.01018,12.75937c-5.10141,0.01692 -10.1059,10.02687 -15.00177,10.02938c-6.51457,0.00334 -6.83682,-9.46347 -12.93924,-10.18351c-20.52283,-2.42155 -22.23482,-9.32943 -4.06346,-11.50195z" fill="#000000" stroke="none" stroke-width="0"/><path d="M174.0393,193.10528c6.16516,-0.73709 11.52057,-18.22602 18.00609,-18.2063c7.43057,0.02259 13.11386,17.05733 21.00856,17.10301c15.59447,0.09024 149.97242,12.23885 -7.01018,12.75937c-5.10141,0.01692 -9.1059,12.02687 -14.00177,12.02938c-6.51457,0.00334 -7.83683,-11.46347 -13.93924,-12.18351c-20.52283,-2.42155 -22.23482,-9.32943 -4.06346,-11.50195z" fill="#000000" stroke="none" stroke-width="0"/><path d="M-48.20834,208.125v-16c0,0 17.81725,-11 39.25,-11c7.41178,0 16.3246,12.10542 29.98196,12.29561c13.32575,0.18558 30.84432,2.85719 49.01568,0.68467c4.28399,-0.51218 5.17699,-11.28445 9.32986,-13.53221c1.8236,-0.98703 5.69731,-3.6801 7.67623,-3.67409c7.43057,0.02259 14.11386,16.05733 22.00856,16.10301c15.59448,0.09024 149.97242,12.23885 -7.01018,12.75937c-5.10141,0.01692 -10.1059,10.02687 -15.00177,10.02938c-6.51457,0.00334 -6.83683,-9.46347 -12.93924,-10.18351c-20.52282,-2.42155 -44.55924,1.29287 -59.06196,1.3947c-11.33358,0.07958 -21.50044,7.12307 -27.99913,7.12307c-21.88939,0 -35.25,-6 -35.25,-6z" fill="#000000" stroke="none" stroke-width="0"/><path d="M-14.37501,318.125c0,0 0,-76.1729 0,-95c0,-7.96427 20.61519,-19 20.61519,-19h54.56962c0,0 20.61519,11.03573 20.61519,19c0,18.8271 0,95 0,95z" fill="none" stroke="#000000" stroke-width="15"/><path d="M-13.70834,314.625c0,0 0,-76.1729 0,-95c0,-7.96427 20.61519,-19 20.61519,-19h54.56962c0,0 20.61519,11.03573 20.61519,19c0,18.8271 0,95 0,95z" fill="none" stroke="#070707" stroke-width="11.5"/><path d="M-13.70834,317.125c0,0 0,-76.1729 0,-95c0,-7.96427 20.61519,-19 20.61519,-19h54.56962c0,0 20.61519,11.03573 20.61519,19c0,18.8271 0,95 0,95z" fill="none" stroke="#262626" stroke-width="5"/><path d="M91.62499,318.125c0,0 0,-76.1729 0,-95c0,-7.96427 20.61519,-19 20.61519,-19h54.56962c0,0 20.61519,11.03573 20.61519,19c0,18.8271 0,95 0,95z" fill="none" stroke="#000000" stroke-width="15"/><path d="M92.29166,314.625c0,0 0,-76.1729 0,-95c0,-7.96427 20.61519,-19 20.61519,-19h54.56962c0,0 20.61519,11.03573 20.61519,19c0,18.8271 0,95 0,95z" fill="none" stroke="#070707" stroke-width="11.5"/><path d="M92.29166,317.125c0,0 0,-76.1729 0,-95c0,-7.96427 20.61519,-19 20.61519,-19h54.56962c0,0 20.61519,11.03573 20.61519,19c0,18.8271 0,95 0,95z" fill="none" stroke="#262626" stroke-width="5"/><path d="M197.62499,318.125c0,0 0,-76.1729 0,-95c0,-7.96427 20.61519,-19 20.61519,-19h54.56962c0,0 20.61519,11.03573 20.61519,19c0,18.8271 0,95 0,95z" fill="none" stroke="#000000" stroke-width="15"/><path d="M198.29166,314.625c0,0 0,-76.1729 0,-95c0,-7.96427 20.61519,-19 20.61519,-19h54.56962c0,0 20.61519,11.03573 20.61519,19c0,18.8271 0,95 0,95z" fill="none" stroke="#070707" stroke-width="11.5"/><path d="M198.29166,317.125c0,0 0,-76.1729 0,-95c0,-7.96427 20.61519,-19 20.61519,-19h54.56962c0,0 20.61519,11.03573 20.61519,19c0,18.8271 0,95 0,95z" fill="none" stroke="#262626" stroke-width="5"/><path d="M303.62499,318.125c0,0 0,-76.1729 0,-95c0,-7.96427 20.61519,-19 20.61519,-19h54.56962c0,0 20.61519,11.03573 20.61519,19c0,18.8271 0,95 0,95z" fill="none" stroke="#000000" stroke-width="15"/><path d="M304.29166,314.625c0,0 0,-76.1729 0,-95c0,-7.96427 20.61519,-19 20.61519,-19h54.56962c0,0 20.61519,11.03573 20.61519,19c0,18.8271 0,95 0,95z" fill="none" stroke="#070707" stroke-width="11.5"/><path d="M304.29166,317.125c0,0 0,-76.1729 0,-95c0,-7.96427 20.61519,-19 20.61519,-19h54.56962c0,0 20.61519,11.03573 20.61519,19c0,18.8271 0,95 0,95z" fill="none" stroke="#262626" stroke-width="5"/><path d="M410.62499,317.125c0,0 0,-76.1729 0,-95c0,-7.96427 20.61519,-19 20.61519,-19h54.56962c0,0 20.61519,11.03573 20.61519,19c0,18.8271 0,95 0,95z" fill="none" stroke="#000000" stroke-width="15"/><path d="M411.29166,313.625c0,0 0,-76.1729 0,-95c0,-7.96427 20.61519,-19 20.61519,-19h54.56962c0,0 20.61519,11.03573 20.61519,19c0,18.8271 0,95 0,95z" fill="none" stroke="#070707" stroke-width="11.5"/><path d="M411.29166,316.125c0,0 0,-76.1729 0,-95c0,-7.96427 20.61519,-19 20.61519,-19h54.56962c0,0 20.61519,11.03573 20.61519,19c0,18.8271 0,95 0,95z" fill="none" stroke="#262626" stroke-width="5"/><path d="M80.42499,77.625c0,0 0,76.1729 0,95c0,7.96427 -20.61519,19 -20.61519,19h-54.56962c0,0 -20.61519,-11.03573 -20.61519,-19c0,-18.8271 0,-95 0,-95z" data-paper-data="{&quot;index&quot;:null}" fill="none" stroke="#000000" stroke-width="15"/><path d="M81.09166,81.125c0,0 0,76.1729 0,95c0,7.96427 -20.61519,19 -20.61519,19h-54.56962c0,0 -20.61519,-11.03573 -20.61519,-19c0,-18.8271 0,-95 0,-95z" data-paper-data="{&quot;index&quot;:null}" fill="none" stroke="#070707" stroke-width="11.5"/><path d="M81.09166,78.625c0,0 0,76.1729 0,95c0,7.96427 -20.61519,19 -20.61519,19h-54.56962c0,0 -20.61519,-11.03573 -20.61519,-19c0,-18.8271 0,-95 0,-95z" data-paper-data="{&quot;index&quot;:null}" fill="none" stroke="#262626" stroke-width="5"/><path d="M186.42499,77.625c0,0 0,76.1729 0,95c0,7.96427 -20.61519,19 -20.61519,19h-54.56962c0,0 -20.61519,-11.03573 -20.61519,-19c0,-18.8271 0,-95 0,-95z" data-paper-data="{&quot;index&quot;:null}" fill="none" stroke="#000000" stroke-width="15"/><path d="M187.09166,81.125c0,0 0,76.1729 0,95c0,7.96427 -20.61519,19 -20.61519,19h-54.56962c0,0 -20.61519,-11.03573 -20.61519,-19c0,-18.8271 0,-95 0,-95z" data-paper-data="{&quot;index&quot;:null}" fill="none" stroke="#070707" stroke-width="11.5"/><path d="M187.09166,78.625c0,0 0,76.1729 0,95c0,7.96427 -20.61519,19 -20.61519,19h-54.56962c0,0 -20.61519,-11.03573 -20.61519,-19c0,-18.8271 0,-95 0,-95z" data-paper-data="{&quot;index&quot;:null}" fill="none" stroke="#262626" stroke-width="5"/><path d="M292.42499,77.625c0,0 0,76.1729 0,95c0,7.96427 -20.61519,19 -20.61519,19h-54.56962c0,0 -20.61519,-11.03573 -20.61519,-19c0,-18.8271 0,-95 0,-95z" data-paper-data="{&quot;index&quot;:null}" fill="none" stroke="#000000" stroke-width="15"/><path d="M293.09166,81.125c0,0 0,76.1729 0,95c0,7.96427 -20.61519,19 -20.61519,19h-54.56962c0,0 -20.61519,-11.03573 -20.61519,-19c0,-18.8271 0,-95 0,-95z" data-paper-data="{&quot;index&quot;:null}" fill="none" stroke="#070707" stroke-width="11.5"/><path d="M293.09166,78.625c0,0 0,76.1729 0,95c0,7.96427 -20.61519,19 -20.61519,19h-54.56962c0,0 -20.61519,-11.03573 -20.61519,-19c0,-18.8271 0,-95 0,-95z" data-paper-data="{&quot;index&quot;:null}" fill="none" stroke="#262626" stroke-width="5"/><path d="M398.42499,77.625c0,0 0,76.1729 0,95c0,7.96427 -20.61519,19 -20.61519,19h-54.56962c0,0 -20.61519,-11.03573 -20.61519,-19c0,-18.8271 0,-95 0,-95z" data-paper-data="{&quot;index&quot;:null}" fill="none" stroke="#000000" stroke-width="15"/><path d="M399.09166,81.125c0,0 0,76.1729 0,95c0,7.96427 -20.61519,19 -20.61519,19h-54.56962c0,0 -20.61519,-11.03573 -20.61519,-19c0,-18.8271 0,-95 0,-95z" data-paper-data="{&quot;index&quot;:null}" fill="none" stroke="#070707" stroke-width="11.5"/><path d="M399.09166,78.625c0,0 0,76.1729 0,95c0,7.96427 -20.61519,19 -20.61519,19h-54.56962c0,0 -20.61519,-11.03573 -20.61519,-19c0,-18.8271 0,-95 0,-95z" data-paper-data="{&quot;index&quot;:null}" fill="none" stroke="#262626" stroke-width="5"/><path d="M505.42499,78.625c0,0 0,76.1729 0,95c0,7.96427 -20.61519,19 -20.61519,19h-54.56962c0,0 -20.61519,-11.03573 -20.61519,-19c0,-18.8271 0,-95 0,-95z" data-paper-data="{&quot;index&quot;:null}" fill="none" stroke="#000000" stroke-width="15"/><path d="M506.09166,82.125c0,0 0,76.1729 0,95c0,7.96427 -20.61519,19 -20.61519,19h-54.56962c0,0 -20.61519,-11.03573 -20.61519,-19c0,-18.8271 0,-95 0,-95z" data-paper-data="{&quot;index&quot;:null}" fill="none" stroke="#070707" stroke-width="11.5"/><path d="M506.09166,79.625c0,0 0,76.1729 0,95c0,7.96427 -20.61519,19 -20.61519,19h-54.56962c0,0 -20.61519,-11.03573 -20.61519,-19c0,-18.8271 0,-95 0,-95z" data-paper-data="{&quot;index&quot;:null}" fill="none" stroke="#262626" stroke-width="5"/><path d="M-12.79168,71.125v-99h541v99z" fill="#272727" stroke="none" stroke-width="0"/><path d="M7.29166,73.125v-86h58v86z" fill="none" stroke="#000000" stroke-width="3.5"/><path d="M65.29166,74.125v-86h58v86z" fill="none" stroke="#000000" stroke-width="3.5"/><path d="M123.29166,74.125v-86h58v86z" fill="none" stroke="#000000" stroke-width="3.5"/><path d="M181.29166,73.125v-86h58v86z" fill="none" stroke="#000000" stroke-width="3.5"/><path d="M239.29166,74.125v-86h58v86z" fill="none" stroke="#000000" stroke-width="3.5"/><path d="M297.29166,73.125v-86h58v86z" fill="none" stroke="#000000" stroke-width="3.5"/><path d="M355.29166,74.125v-86h58v86z" fill="none" stroke="#000000" stroke-width="3.5"/><path d="M413.29166,73.125v-86h58v86z" fill="none" stroke="#000000" stroke-width="3.5"/></g></g></svg>