<svg version="1.1" xmlns="http://www.w3.org/2000/svg" xmlns:xlink="http://www.w3.org/1999/xlink" width="26.10166" height="47.64151" viewBox="0,0,26.10166,47.64151"><g transform="translate(-226.94917,-156.17925)"><g data-paper-data="{&quot;isPaintingLayer&quot;:true}" fill="#000000" fill-rule="nonzero" stroke-width="0" stroke-linecap="butt" stroke-linejoin="miter" stroke-miterlimit="10" stroke-dasharray="" stroke-dashoffset="0" style="mix-blend-mode: normal"><path d="M226.98319,199.60608c0,-5.57774 0,-30.71472 0,-39.98185c0,-2.14932 1.90274,-3.44498 3.62764,-3.44498c3.0521,0 13.11929,0 18.67518,0c2.2535,0 3.76482,1.1934 3.76482,3.19032c0,9.1144 0,34.96801 0,40.49118c0,2.02507 -1.55091,3.95119 -3.84971,3.95119c-5.4941,0 -15.26018,0 -18.33563,0c-1.82483,0 -3.8823,-2.06744 -3.8823,-4.20586z" stroke="#ffffff"/><path d="M226.94917,200.08878c0,-2.06111 1.67086,-3.73198 3.73198,-3.73198c2.06111,0 3.73198,1.67086 3.73198,3.73198c0,2.06111 -1.67086,3.73198 -3.73198,3.73198c-2.06111,0 -3.73198,-1.67086 -3.73198,-3.73198z" stroke="#000000"/><path d="M245.53112,200.08878c0,-2.06112 1.67086,-3.73197 3.73198,-3.73197c2.06112,0 3.73198,1.67086 3.73198,3.73197c0,2.06112 -1.67086,3.73198 -3.73198,3.73198c-2.06112,0 -3.73198,-1.67086 -3.73198,-3.73198z" stroke="#000000"/><path d="M226.94917,159.9288c0,-2.06112 1.67086,-3.73197 3.73198,-3.73197c2.06112,0 3.73198,1.67086 3.73198,3.73197c0,2.06112 -1.67086,3.73198 -3.73198,3.73198c-2.06112,0 -3.73198,-1.67086 -3.73198,-3.73198z" stroke="#000000"/><path d="M245.53112,159.92047c0,-2.06112 1.67086,-3.73198 3.73198,-3.73198c2.06112,0 3.73198,1.67086 3.73198,3.73198c0,2.06112 -1.67086,3.73198 -3.73198,3.73198c-2.06112,0 -3.73198,-1.67086 -3.73198,-3.73198z" stroke="#000000"/></g></g></svg>