<svg version="1.1" xmlns="http://www.w3.org/2000/svg" xmlns:xlink="http://www.w3.org/1999/xlink" width="851.14847" height="377.90639" viewBox="0,0,851.14847,377.90639"><defs><linearGradient x1="187.25736" y1="314.82978" x2="187.25736" y2="333.43775" gradientUnits="userSpaceOnUse" id="color-1"><stop offset="0" stop-color="#171717"/><stop offset="1" stop-color="#171717" stop-opacity="0"/></linearGradient><linearGradient x1="111.10638" y1="314.82978" x2="111.10638" y2="333.43775" gradientUnits="userSpaceOnUse" id="color-2"><stop offset="0" stop-color="#171717"/><stop offset="1" stop-color="#171717" stop-opacity="0"/></linearGradient><linearGradient x1="34.9554" y1="314.82978" x2="34.9554" y2="333.43775" gradientUnits="userSpaceOnUse" id="color-3"><stop offset="0" stop-color="#171717"/><stop offset="1" stop-color="#171717" stop-opacity="0"/></linearGradient><linearGradient x1="571.09893" y1="315.17301" x2="571.09893" y2="333.78097" gradientUnits="userSpaceOnUse" id="color-4"><stop offset="0" stop-color="#171717"/><stop offset="1" stop-color="#171717" stop-opacity="0"/></linearGradient><linearGradient x1="494.94795" y1="315.17301" x2="494.94795" y2="333.78097" gradientUnits="userSpaceOnUse" id="color-5"><stop offset="0" stop-color="#171717"/><stop offset="1" stop-color="#171717" stop-opacity="0"/></linearGradient><linearGradient x1="418.79697" y1="315.17301" x2="418.79697" y2="333.78097" gradientUnits="userSpaceOnUse" id="color-6"><stop offset="0" stop-color="#171717"/><stop offset="1" stop-color="#171717" stop-opacity="0"/></linearGradient><linearGradient x1="342.64599" y1="315.17301" x2="342.64599" y2="333.78097" gradientUnits="userSpaceOnUse" id="color-7"><stop offset="0" stop-color="#171717"/><stop offset="1" stop-color="#171717" stop-opacity="0"/></linearGradient><linearGradient x1="109.56304" y1="47.12832" x2="109.56304" y2="28.52035" gradientUnits="userSpaceOnUse" id="color-8"><stop offset="0" stop-color="#171717"/><stop offset="1" stop-color="#171717" stop-opacity="0"/></linearGradient><linearGradient x1="33.41207" y1="47.12832" x2="33.41207" y2="28.52035" gradientUnits="userSpaceOnUse" id="color-9"><stop offset="0" stop-color="#171717"/><stop offset="1" stop-color="#171717" stop-opacity="0"/></linearGradient><linearGradient x1="188.8007" y1="46.78509" x2="188.8007" y2="28.17713" gradientUnits="userSpaceOnUse" id="color-10"><stop offset="0" stop-color="#171717"/><stop offset="1" stop-color="#171717" stop-opacity="0"/></linearGradient><linearGradient x1="108.01971" y1="102.12831" x2="108.01971" y2="83.52034" gradientUnits="userSpaceOnUse" id="color-11"><stop offset="0" stop-color="#171717"/><stop offset="1" stop-color="#171717" stop-opacity="0"/></linearGradient><linearGradient x1="31.86873" y1="102.12831" x2="31.86873" y2="83.52034" gradientUnits="userSpaceOnUse" id="color-12"><stop offset="0" stop-color="#171717"/><stop offset="1" stop-color="#171717" stop-opacity="0"/></linearGradient><linearGradient x1="187.25736" y1="101.78509" x2="187.25736" y2="83.17713" gradientUnits="userSpaceOnUse" id="color-13"><stop offset="0" stop-color="#171717"/><stop offset="1" stop-color="#171717" stop-opacity="0"/></linearGradient><linearGradient x1="341.87432" y1="47.12831" x2="341.87432" y2="28.52034" gradientUnits="userSpaceOnUse" id="color-14"><stop offset="0" stop-color="#171717"/><stop offset="1" stop-color="#171717" stop-opacity="0"/></linearGradient><linearGradient x1="265.72334" y1="47.12831" x2="265.72334" y2="28.52034" gradientUnits="userSpaceOnUse" id="color-15"><stop offset="0" stop-color="#171717"/><stop offset="1" stop-color="#171717" stop-opacity="0"/></linearGradient><linearGradient x1="421.11197" y1="46.78508" x2="421.11197" y2="28.17712" gradientUnits="userSpaceOnUse" id="color-16"><stop offset="0" stop-color="#171717"/><stop offset="1" stop-color="#171717" stop-opacity="0"/></linearGradient><linearGradient x1="340.33099" y1="102.12831" x2="340.33099" y2="83.52034" gradientUnits="userSpaceOnUse" id="color-17"><stop offset="0" stop-color="#171717"/><stop offset="1" stop-color="#171717" stop-opacity="0"/></linearGradient><linearGradient x1="264.18001" y1="102.12831" x2="264.18001" y2="83.52034" gradientUnits="userSpaceOnUse" id="color-18"><stop offset="0" stop-color="#171717"/><stop offset="1" stop-color="#171717" stop-opacity="0"/></linearGradient><linearGradient x1="419.56864" y1="101.78508" x2="419.56864" y2="83.17712" gradientUnits="userSpaceOnUse" id="color-19"><stop offset="0" stop-color="#171717"/><stop offset="1" stop-color="#171717" stop-opacity="0"/></linearGradient><linearGradient x1="418.0253" y1="48.4567" x2="418.0253" y2="29.84873" gradientUnits="userSpaceOnUse" id="color-20"><stop offset="0" stop-color="#171717"/><stop offset="1" stop-color="#171717" stop-opacity="0"/></linearGradient><linearGradient x1="341.87433" y1="48.4567" x2="341.87433" y2="29.84873" gradientUnits="userSpaceOnUse" id="color-21"><stop offset="0" stop-color="#171717"/><stop offset="1" stop-color="#171717" stop-opacity="0"/></linearGradient><linearGradient x1="497.26296" y1="48.11347" x2="497.26296" y2="29.50551" gradientUnits="userSpaceOnUse" id="color-22"><stop offset="0" stop-color="#171717"/><stop offset="1" stop-color="#171717" stop-opacity="0"/></linearGradient><linearGradient x1="416.48197" y1="103.4567" x2="416.48197" y2="84.84873" gradientUnits="userSpaceOnUse" id="color-23"><stop offset="0" stop-color="#171717"/><stop offset="1" stop-color="#171717" stop-opacity="0"/></linearGradient><linearGradient x1="340.33099" y1="103.4567" x2="340.33099" y2="84.84873" gradientUnits="userSpaceOnUse" id="color-24"><stop offset="0" stop-color="#171717"/><stop offset="1" stop-color="#171717" stop-opacity="0"/></linearGradient><linearGradient x1="495.71962" y1="103.11347" x2="495.71962" y2="84.50551" gradientUnits="userSpaceOnUse" id="color-25"><stop offset="0" stop-color="#171717"/><stop offset="1" stop-color="#171717" stop-opacity="0"/></linearGradient><linearGradient x1="263.10638" y1="152.78509" x2="263.10638" y2="134.17712" gradientUnits="userSpaceOnUse" id="color-26"><stop offset="0" stop-color="#171717"/><stop offset="1" stop-color="#171717" stop-opacity="0"/></linearGradient><linearGradient x1="186.9554" y1="152.78509" x2="186.9554" y2="134.17712" gradientUnits="userSpaceOnUse" id="color-27"><stop offset="0" stop-color="#171717"/><stop offset="1" stop-color="#171717" stop-opacity="0"/></linearGradient><linearGradient x1="417.10638" y1="152.7851" x2="417.10638" y2="134.17712" gradientUnits="userSpaceOnUse" id="color-28"><stop offset="0" stop-color="#171717"/><stop offset="1" stop-color="#171717" stop-opacity="0"/></linearGradient><linearGradient x1="340.9554" y1="152.7851" x2="340.9554" y2="134.17712" gradientUnits="userSpaceOnUse" id="color-29"><stop offset="0" stop-color="#171717"/><stop offset="1" stop-color="#171717" stop-opacity="0"/></linearGradient><linearGradient x1="571.10638" y1="152.7851" x2="571.10638" y2="134.17712" gradientUnits="userSpaceOnUse" id="color-30"><stop offset="0" stop-color="#171717"/><stop offset="1" stop-color="#171717" stop-opacity="0"/></linearGradient><linearGradient x1="494.9554" y1="152.7851" x2="494.9554" y2="134.17712" gradientUnits="userSpaceOnUse" id="color-31"><stop offset="0" stop-color="#171717"/><stop offset="1" stop-color="#171717" stop-opacity="0"/></linearGradient><linearGradient x1="340.10638" y1="187.47766" x2="340.10638" y2="168.86968" gradientUnits="userSpaceOnUse" id="color-32"><stop offset="0" stop-color="#171717"/><stop offset="1" stop-color="#171717" stop-opacity="0"/></linearGradient><linearGradient x1="263.9554" y1="187.47766" x2="263.9554" y2="168.86969" gradientUnits="userSpaceOnUse" id="color-33"><stop offset="0" stop-color="#171717"/><stop offset="1" stop-color="#171717" stop-opacity="0"/></linearGradient><linearGradient x1="494.10638" y1="187.47766" x2="494.10638" y2="168.86968" gradientUnits="userSpaceOnUse" id="color-34"><stop offset="0" stop-color="#171717"/><stop offset="1" stop-color="#171717" stop-opacity="0"/></linearGradient><linearGradient x1="417.9554" y1="187.47766" x2="417.9554" y2="168.86969" gradientUnits="userSpaceOnUse" id="color-35"><stop offset="0" stop-color="#171717"/><stop offset="1" stop-color="#171717" stop-opacity="0"/></linearGradient><linearGradient x1="648.10638" y1="187.47766" x2="648.10638" y2="168.86968" gradientUnits="userSpaceOnUse" id="color-36"><stop offset="0" stop-color="#171717"/><stop offset="1" stop-color="#171717" stop-opacity="0"/></linearGradient><linearGradient x1="571.9554" y1="187.47766" x2="571.9554" y2="168.86969" gradientUnits="userSpaceOnUse" id="color-37"><stop offset="0" stop-color="#171717"/><stop offset="1" stop-color="#171717" stop-opacity="0"/></linearGradient><linearGradient x1="495.10638" y1="238.47766" x2="495.10638" y2="219.86969" gradientUnits="userSpaceOnUse" id="color-38"><stop offset="0" stop-color="#171717"/><stop offset="1" stop-color="#171717" stop-opacity="0"/></linearGradient><linearGradient x1="418.9554" y1="238.47766" x2="418.9554" y2="219.86969" gradientUnits="userSpaceOnUse" id="color-39"><stop offset="0" stop-color="#171717"/><stop offset="1" stop-color="#171717" stop-opacity="0"/></linearGradient><linearGradient x1="649.10638" y1="238.47766" x2="649.10638" y2="219.86969" gradientUnits="userSpaceOnUse" id="color-40"><stop offset="0" stop-color="#171717"/><stop offset="1" stop-color="#171717" stop-opacity="0"/></linearGradient><linearGradient x1="572.9554" y1="238.47766" x2="572.9554" y2="219.86969" gradientUnits="userSpaceOnUse" id="color-41"><stop offset="0" stop-color="#171717"/><stop offset="1" stop-color="#171717" stop-opacity="0"/></linearGradient><linearGradient x1="803.10638" y1="238.47766" x2="803.10638" y2="219.86969" gradientUnits="userSpaceOnUse" id="color-42"><stop offset="0" stop-color="#171717"/><stop offset="1" stop-color="#171717" stop-opacity="0"/></linearGradient><linearGradient x1="726.9554" y1="238.47766" x2="726.9554" y2="219.86969" gradientUnits="userSpaceOnUse" id="color-43"><stop offset="0" stop-color="#171717"/><stop offset="1" stop-color="#171717" stop-opacity="0"/></linearGradient></defs><g transform="translate(8.08668,7.97415)"><g data-paper-data="{&quot;isPaintingLayer&quot;:true}" fill-rule="nonzero" stroke="#000000" stroke-width="3.5" stroke-linecap="butt" stroke-linejoin="miter" stroke-miterlimit="10" stroke-dasharray="" stroke-dashoffset="0" style="mix-blend-mode: normal"><g><path d="M149.05195,367.83902v-53.00924h76.41082v53.00924z" fill="#2b2b2b"/><path d="M149.05195,367.63054v-16.31454h76.41082v16.31454z" fill="#212121"/><path d="M149.05195,333.43775v-18.60796h76.41082v18.60796z" fill="url(#color-1)"/><path d="M149.05195,315.0904v-16.31455h76.41082v16.31455z" fill="#3d3d3d"/><path d="M149.05195,314.88189v-7.97484h76.41082v7.97484z" fill="#303030"/><path d="M221.60691,315.0904v-16.31455h3.85586v16.31455z" data-paper-data="{&quot;index&quot;:null}" fill="#111111"/><path d="M217.79936,315.0904v-16.31455h3.85586v16.31455z" data-paper-data="{&quot;index&quot;:null}" fill="#212121"/><path d="M149.10483,315.0904v-16.31455h3.85586v16.31455z" data-paper-data="{&quot;index&quot;:null}" fill="#111111"/><path d="M153.07102,315.0904v-16.31455h3.85586v16.31455z" data-paper-data="{&quot;index&quot;:null}" fill="#212121"/></g><g><path d="M72.90097,367.83902v-53.00924h76.41082v53.00924z" fill="#2b2b2b"/><path d="M72.90097,367.63054v-16.31454h76.41082v16.31454z" fill="#212121"/><path d="M72.90097,333.43775v-18.60796h76.41082v18.60796z" fill="url(#color-2)"/><path d="M72.90097,315.0904v-16.31455h76.41082v16.31455z" fill="#3d3d3d"/><path d="M72.90097,314.88189v-7.97484h76.41082v7.97484z" fill="#303030"/><path d="M145.45593,315.0904v-16.31455h3.85586v16.31455z" data-paper-data="{&quot;index&quot;:null}" fill="#111111"/><path d="M141.64838,315.0904v-16.31455h3.85586v16.31455z" data-paper-data="{&quot;index&quot;:null}" fill="#212121"/><path d="M72.95385,315.0904v-16.31455h3.85586v16.31455z" data-paper-data="{&quot;index&quot;:null}" fill="#111111"/><path d="M76.92005,315.0904v-16.31455h3.85586v16.31455z" data-paper-data="{&quot;index&quot;:null}" fill="#212121"/></g><g><path d="M-3.25001,367.83902v-53.00924h76.41082v53.00924z" fill="#2b2b2b"/><path d="M-3.25001,367.63054v-16.31455h76.41082v16.31455z" fill="#212121"/><path d="M-3.25001,333.43775v-18.60797h76.41082v18.60797z" fill="url(#color-3)"/><path d="M-3.25001,315.0904v-16.31454h76.41082v16.31454z" fill="#3d3d3d"/><path d="M-3.25001,314.88189v-7.97484h76.41082v7.97484z" fill="#303030"/><path d="M69.30495,315.0904v-16.31454h3.85586v16.31454z" data-paper-data="{&quot;index&quot;:null}" fill="#111111"/><path d="M65.4974,315.0904v-16.31454h3.85586v16.31454z" data-paper-data="{&quot;index&quot;:null}" fill="#212121"/><path d="M-3.19713,315.0904v-16.31454h3.85586v16.31454z" data-paper-data="{&quot;index&quot;:null}" fill="#111111"/><path d="M0.76907,315.0904v-16.31454h3.85586v16.31454z" data-paper-data="{&quot;index&quot;:null}" fill="#212121"/></g><g><path d="M532.89352,368.18224v-53.00923h76.41082v53.00923z" fill="#2b2b2b"/><path d="M532.89352,367.97376v-16.31454h76.41082v16.31454z" fill="#212121"/><path d="M532.89352,333.78097v-18.60796h76.41082v18.60796z" fill="url(#color-4)"/><path d="M532.89352,315.43362v-16.31455h76.41082v16.31455z" fill="#3d3d3d"/><path d="M532.89352,315.22511v-7.97484h76.41082v7.97484z" fill="#303030"/><path d="M605.44848,315.43362v-16.31455h3.85586v16.31455z" data-paper-data="{&quot;index&quot;:null}" fill="#111111"/><path d="M601.64092,315.43362v-16.31455h3.85586v16.31455z" data-paper-data="{&quot;index&quot;:null}" fill="#212121"/><path d="M532.9464,315.43362v-16.31455h3.85586v16.31455z" data-paper-data="{&quot;index&quot;:null}" fill="#111111"/><path d="M536.91259,315.43362v-16.31455h3.85586v16.31455z" data-paper-data="{&quot;index&quot;:null}" fill="#212121"/></g><g><path d="M456.74254,368.18224v-53.00923h76.41082v53.00923z" fill="#2b2b2b"/><path d="M456.74254,367.97376v-16.31454h76.41082v16.31454z" fill="#212121"/><path d="M456.74254,333.78097v-18.60796h76.41082v18.60796z" fill="url(#color-5)"/><path d="M456.74254,315.43362v-16.31455h76.41082v16.31455z" fill="#3d3d3d"/><path d="M456.74254,315.22511v-7.97484h76.41082v7.97484z" fill="#303030"/><path d="M529.2975,315.43362v-16.31455h3.85586v16.31455z" data-paper-data="{&quot;index&quot;:null}" fill="#111111"/><path d="M525.48995,315.43362v-16.31455h3.85586v16.31455z" data-paper-data="{&quot;index&quot;:null}" fill="#212121"/><path d="M456.79542,315.43362v-16.31455h3.85586v16.31455z" data-paper-data="{&quot;index&quot;:null}" fill="#111111"/><path d="M460.76162,315.43362v-16.31455h3.85586v16.31455z" data-paper-data="{&quot;index&quot;:null}" fill="#212121"/></g><g><path d="M380.59156,368.18224v-53.00923h76.41082v53.00923z" fill="#2b2b2b"/><path d="M380.59156,367.97376v-16.31454h76.41082v16.31454z" fill="#212121"/><path d="M380.59156,333.78097v-18.60796h76.41082v18.60796z" fill="url(#color-6)"/><path d="M380.59156,315.43362v-16.31455h76.41082v16.31455z" fill="#3d3d3d"/><path d="M380.59156,315.22511v-7.97484h76.41082v7.97484z" fill="#303030"/><path d="M453.14652,315.43362v-16.31455h3.85586v16.31455z" data-paper-data="{&quot;index&quot;:null}" fill="#111111"/><path d="M449.33897,315.43362v-16.31455h3.85586v16.31455z" data-paper-data="{&quot;index&quot;:null}" fill="#212121"/><path d="M380.64445,315.43362v-16.31455h3.85586v16.31455z" data-paper-data="{&quot;index&quot;:null}" fill="#111111"/><path d="M384.61064,315.43362v-16.31455h3.85586v16.31455z" data-paper-data="{&quot;index&quot;:null}" fill="#212121"/></g><g><path d="M304.44058,368.18224v-53.00923h76.41082v53.00923z" fill="#2b2b2b"/><path d="M304.44058,367.97376v-16.31455h76.41082v16.31455z" fill="#212121"/><path d="M304.44058,333.78097v-18.60796h76.41082v18.60796z" fill="url(#color-7)"/><path d="M304.44058,315.43362v-16.31454h76.41082v16.31454z" fill="#3d3d3d"/><path d="M304.44058,315.22511v-7.97484h76.41082v7.97484z" fill="#303030"/><path d="M376.99554,315.43362v-16.31454h3.85586v16.31454z" data-paper-data="{&quot;index&quot;:null}" fill="#111111"/><path d="M373.18799,315.43362v-16.31454h3.85586v16.31454z" data-paper-data="{&quot;index&quot;:null}" fill="#212121"/><path d="M304.49347,315.43362v-16.31454h3.85586v16.31454z" data-paper-data="{&quot;index&quot;:null}" fill="#111111"/><path d="M308.45966,315.43362v-16.31454h3.85586v16.31454z" data-paper-data="{&quot;index&quot;:null}" fill="#212121"/></g><g data-paper-data="{&quot;index&quot;:null}"><path d="M147.76845,-5.88092v53.00924h-76.41082v-53.00924z" fill="#2b2b2b"/><path d="M147.76845,-5.67244v16.31454h-76.41082v-16.31454z" fill="#212121"/><path d="M147.76845,28.52035v18.60796h-76.41082v-18.60796z" fill="url(#color-8)"/><path d="M147.76845,46.8677v16.31455h-76.41082v-16.31455z" fill="#3d3d3d"/><path d="M147.76845,47.07621v7.97484h-76.41082v-7.97484z" fill="#303030"/><path d="M147.76844,46.8677v16.31455h-3.85586v-16.31455z" data-paper-data="{&quot;index&quot;:null}" fill="#111111"/><path d="M143.9609,46.8677v16.31455h-3.85586v-16.31455z" data-paper-data="{&quot;index&quot;:null}" fill="#212121"/><path d="M75.26636,46.8677v16.31455h-3.85586v-16.31455z" data-paper-data="{&quot;index&quot;:null}" fill="#111111"/><path d="M79.23256,46.8677v16.31455h-3.85586v-16.31455z" data-paper-data="{&quot;index&quot;:null}" fill="#212121"/></g><g data-paper-data="{&quot;index&quot;:null}"><path d="M71.61747,-5.88092v53.00924h-76.41082v-53.00924z" fill="#2b2b2b"/><path d="M71.61747,-5.67244v16.31454h-76.41082v-16.31454z" fill="#212121"/><path d="M71.61747,28.52035v18.60796h-76.41082v-18.60796z" fill="url(#color-9)"/><path d="M71.61747,46.8677v16.31455h-76.41082v-16.31455z" fill="#3d3d3d"/><path d="M71.61747,47.07621v7.97484h-76.41082v-7.97484z" fill="#303030"/><path d="M71.61747,46.8677v16.31455h-3.85586v-16.31455z" data-paper-data="{&quot;index&quot;:null}" fill="#111111"/><path d="M67.80992,46.8677v16.31455h-3.85586v-16.31455z" data-paper-data="{&quot;index&quot;:null}" fill="#212121"/><path d="M-0.8846,46.8677v16.31455h-3.85586v-16.31455z" data-paper-data="{&quot;index&quot;:null}" fill="#111111"/><path d="M3.08159,46.8677v16.31455h-3.85586v-16.31455z" data-paper-data="{&quot;index&quot;:null}" fill="#212121"/></g><g data-paper-data="{&quot;index&quot;:null}"><path d="M227.0061,-6.22414v53.00923h-76.41082v-53.00923z" fill="#2b2b2b"/><path d="M227.0061,-6.01566v16.31455h-76.41082v-16.31455z" fill="#212121"/><path d="M227.0061,28.17713v18.60796h-76.41082v-18.60796z" fill="url(#color-10)"/><path d="M227.0061,46.52448v16.31454h-76.41082v-16.31454z" fill="#3d3d3d"/><path d="M227.0061,46.73299v7.97484h-76.41082v-7.97484z" fill="#303030"/><path d="M227.0061,46.52448v16.31454h-3.85586v-16.31454z" data-paper-data="{&quot;index&quot;:null}" fill="#111111"/><path d="M223.19855,46.52448v16.31454h-3.85586v-16.31454z" data-paper-data="{&quot;index&quot;:null}" fill="#212121"/><path d="M154.50404,46.52448v16.31454h-3.85586v-16.31454z" data-paper-data="{&quot;index&quot;:null}" fill="#111111"/><path d="M158.47023,46.52448v16.31454h-3.85586v-16.31454z" data-paper-data="{&quot;index&quot;:null}" fill="#212121"/></g><g data-paper-data="{&quot;index&quot;:null}"><path d="M146.22512,49.11907v53.00924h-76.41082v-53.00924z" fill="#2b2b2b"/><path d="M146.22512,49.32755v16.31454h-76.41082v-16.31454z" fill="#212121"/><path d="M146.22512,83.52034v18.60796h-76.41082v-18.60796z" fill="url(#color-11)"/><path d="M146.22512,101.86769v16.31455h-76.41082v-16.31455z" fill="#3d3d3d"/><path d="M146.22512,102.0762v7.97484h-76.41082v-7.97484z" fill="#303030"/><path d="M146.22511,101.86769v16.31455h-3.85586v-16.31455z" data-paper-data="{&quot;index&quot;:null}" fill="#111111"/><path d="M142.41756,101.86769v16.31455h-3.85586v-16.31455z" data-paper-data="{&quot;index&quot;:null}" fill="#212121"/><path d="M73.72303,101.86769v16.31455h-3.85586v-16.31455z" data-paper-data="{&quot;index&quot;:null}" fill="#111111"/><path d="M77.68923,101.86769v16.31455h-3.85586v-16.31455z" data-paper-data="{&quot;index&quot;:null}" fill="#212121"/></g><g data-paper-data="{&quot;index&quot;:null}"><path d="M70.07414,49.11907v53.00924h-76.41082v-53.00924z" fill="#2b2b2b"/><path d="M70.07414,49.32755v16.31454h-76.41082v-16.31454z" fill="#212121"/><path d="M70.07414,83.52034v18.60796h-76.41082v-18.60796z" fill="url(#color-12)"/><path d="M70.07414,101.86769v16.31455h-76.41082v-16.31455z" fill="#3d3d3d"/><path d="M70.07414,102.0762v7.97484h-76.41082v-7.97484z" fill="#303030"/><path d="M70.07414,101.86769v16.31455h-3.85586v-16.31455z" data-paper-data="{&quot;index&quot;:null}" fill="#111111"/><path d="M66.26659,101.86769v16.31455h-3.85586v-16.31455z" data-paper-data="{&quot;index&quot;:null}" fill="#212121"/><path d="M-2.42794,101.86769v16.31455h-3.85586v-16.31455z" data-paper-data="{&quot;index&quot;:null}" fill="#111111"/><path d="M1.53825,101.86769v16.31455h-3.85586v-16.31455z" data-paper-data="{&quot;index&quot;:null}" fill="#212121"/></g><g data-paper-data="{&quot;index&quot;:null}"><path d="M225.46277,48.77586v53.00923h-76.41082v-53.00923z" fill="#2b2b2b"/><path d="M225.46277,48.98434v16.31455h-76.41082v-16.31455z" fill="#212121"/><path d="M225.46277,83.17713v18.60796h-76.41082v-18.60796z" fill="url(#color-13)"/><path d="M225.46277,101.52448v16.31454h-76.41082v-16.31454z" fill="#3d3d3d"/><path d="M225.46277,101.73298v7.97484h-76.41082v-7.97484z" fill="#303030"/><path d="M225.46277,101.52448v16.31454h-3.85586v-16.31454z" data-paper-data="{&quot;index&quot;:null}" fill="#111111"/><path d="M221.65522,101.52448v16.31454h-3.85586v-16.31454z" data-paper-data="{&quot;index&quot;:null}" fill="#212121"/><path d="M152.9607,101.52448v16.31454h-3.85586v-16.31454z" data-paper-data="{&quot;index&quot;:null}" fill="#111111"/><path d="M156.92689,101.52448v16.31454h-3.85586v-16.31454z" data-paper-data="{&quot;index&quot;:null}" fill="#212121"/></g><g data-paper-data="{&quot;index&quot;:null}"><path d="M380.07973,-5.88093v53.00924h-76.41082v-53.00924z" fill="#2b2b2b"/><path d="M380.07973,-5.67245v16.31454h-76.41082v-16.31454z" fill="#212121"/><path d="M380.07973,28.52034v18.60796h-76.41082v-18.60796z" fill="url(#color-14)"/><path d="M380.07973,46.86769v16.31455h-76.41082v-16.31455z" fill="#3d3d3d"/><path d="M380.07973,47.0762v7.97484h-76.41082v-7.97484z" fill="#303030"/><path d="M380.07972,46.86769v16.31455h-3.85586v-16.31455z" data-paper-data="{&quot;index&quot;:null}" fill="#111111"/><path d="M376.27217,46.86769v16.31455h-3.85586v-16.31455z" data-paper-data="{&quot;index&quot;:null}" fill="#212121"/><path d="M307.57764,46.86769v16.31455h-3.85586v-16.31455z" data-paper-data="{&quot;index&quot;:null}" fill="#111111"/><path d="M311.54384,46.86769v16.31455h-3.85586v-16.31455z" data-paper-data="{&quot;index&quot;:null}" fill="#212121"/></g><g data-paper-data="{&quot;index&quot;:null}"><path d="M303.92875,-5.88093v53.00924h-76.41082v-53.00924z" fill="#2b2b2b"/><path d="M303.92875,-5.67245v16.31454h-76.41082v-16.31454z" fill="#212121"/><path d="M303.92875,28.52034v18.60796h-76.41082v-18.60796z" fill="url(#color-15)"/><path d="M303.92875,46.86769v16.31455h-76.41082v-16.31455z" fill="#3d3d3d"/><path d="M303.92875,47.0762v7.97484h-76.41082v-7.97484z" fill="#303030"/><path d="M303.92875,46.86769v16.31455h-3.85586v-16.31455z" data-paper-data="{&quot;index&quot;:null}" fill="#111111"/><path d="M300.1212,46.86769v16.31455h-3.85586v-16.31455z" data-paper-data="{&quot;index&quot;:null}" fill="#212121"/><path d="M231.42667,46.86769v16.31455h-3.85586v-16.31455z" data-paper-data="{&quot;index&quot;:null}" fill="#111111"/><path d="M235.39286,46.86769v16.31455h-3.85586v-16.31455z" data-paper-data="{&quot;index&quot;:null}" fill="#212121"/></g><g data-paper-data="{&quot;index&quot;:null}"><path d="M459.31738,-6.22414v53.00923h-76.41082v-53.00923z" fill="#2b2b2b"/><path d="M459.31738,-6.01567v16.31455h-76.41082v-16.31455z" fill="#212121"/><path d="M459.31738,28.17712v18.60796h-76.41082v-18.60796z" fill="url(#color-16)"/><path d="M459.31738,46.52447v16.31454h-76.41082v-16.31454z" fill="#3d3d3d"/><path d="M459.31738,46.73298v7.97484h-76.41082v-7.97484z" fill="#303030"/><path d="M459.31738,46.52447v16.31454h-3.85586v-16.31454z" data-paper-data="{&quot;index&quot;:null}" fill="#111111"/><path d="M455.50983,46.52447v16.31454h-3.85586v-16.31454z" data-paper-data="{&quot;index&quot;:null}" fill="#212121"/><path d="M386.81531,46.52447v16.31454h-3.85586v-16.31454z" data-paper-data="{&quot;index&quot;:null}" fill="#111111"/><path d="M390.7815,46.52447v16.31454h-3.85586v-16.31454z" data-paper-data="{&quot;index&quot;:null}" fill="#212121"/></g><g data-paper-data="{&quot;index&quot;:null}"><path d="M378.5364,49.11908v53.00924h-76.41082v-53.00924z" fill="#2b2b2b"/><path d="M378.5364,49.32755v16.31454h-76.41082v-16.31454z" fill="#212121"/><path d="M378.5364,83.52034v18.60796h-76.41082v-18.60796z" fill="url(#color-17)"/><path d="M378.5364,101.86769v16.31455h-76.41082v-16.31455z" fill="#3d3d3d"/><path d="M378.5364,102.0762v7.97484h-76.41082v-7.97484z" fill="#303030"/><path d="M378.53639,101.86769v16.31455h-3.85586v-16.31455z" data-paper-data="{&quot;index&quot;:null}" fill="#111111"/><path d="M374.72884,101.86769v16.31455h-3.85586v-16.31455z" data-paper-data="{&quot;index&quot;:null}" fill="#212121"/><path d="M306.03431,101.86769v16.31455h-3.85586v-16.31455z" data-paper-data="{&quot;index&quot;:null}" fill="#111111"/><path d="M310.00051,101.86769v16.31455h-3.85586v-16.31455z" data-paper-data="{&quot;index&quot;:null}" fill="#212121"/></g><g data-paper-data="{&quot;index&quot;:null}"><path d="M302.38542,49.11908v53.00924h-76.41082v-53.00924z" fill="#2b2b2b"/><path d="M302.38542,49.32755v16.31454h-76.41082v-16.31454z" fill="#212121"/><path d="M302.38542,83.52034v18.60796h-76.41082v-18.60796z" fill="url(#color-18)"/><path d="M302.38542,101.86769v16.31455h-76.41082v-16.31455z" fill="#3d3d3d"/><path d="M302.38542,102.0762v7.97484h-76.41082v-7.97484z" fill="#303030"/><path d="M302.38542,101.86769v16.31455h-3.85586v-16.31455z" data-paper-data="{&quot;index&quot;:null}" fill="#111111"/><path d="M298.57787,101.86769v16.31455h-3.85586v-16.31455z" data-paper-data="{&quot;index&quot;:null}" fill="#212121"/><path d="M229.88334,101.86769v16.31455h-3.85586v-16.31455z" data-paper-data="{&quot;index&quot;:null}" fill="#111111"/><path d="M233.84953,101.86769v16.31455h-3.85586v-16.31455z" data-paper-data="{&quot;index&quot;:null}" fill="#212121"/></g><g data-paper-data="{&quot;index&quot;:null}"><path d="M457.77405,48.77585v53.00923h-76.41082v-53.00923z" fill="#2b2b2b"/><path d="M457.77405,48.98433v16.31455h-76.41082v-16.31455z" fill="#212121"/><path d="M457.77405,83.17712v18.60796h-76.41082v-18.60796z" fill="url(#color-19)"/><path d="M457.77405,101.52448v16.31454h-76.41082v-16.31454z" fill="#3d3d3d"/><path d="M457.77405,101.73298v7.97484h-76.41082v-7.97484z" fill="#303030"/><path d="M457.77405,101.52448v16.31454h-3.85586v-16.31454z" data-paper-data="{&quot;index&quot;:null}" fill="#111111"/><path d="M453.9665,101.52448v16.31454h-3.85586v-16.31454z" data-paper-data="{&quot;index&quot;:null}" fill="#212121"/><path d="M385.27198,101.52448v16.31454h-3.85586v-16.31454z" data-paper-data="{&quot;index&quot;:null}" fill="#111111"/><path d="M389.23817,101.52448v16.31454h-3.85586v-16.31454z" data-paper-data="{&quot;index&quot;:null}" fill="#212121"/></g><g data-paper-data="{&quot;index&quot;:null}"><path d="M456.23071,-4.55254v53.00924h-76.41082v-53.00924z" fill="#2b2b2b"/><path d="M456.23071,-4.34406v16.31454h-76.41082v-16.31454z" fill="#212121"/><path d="M456.23071,29.84873v18.60796h-76.41082v-18.60796z" fill="url(#color-20)"/><path d="M456.23071,48.19608v16.31455h-76.41082v-16.31455z" fill="#3d3d3d"/><path d="M456.23071,48.40459v7.97484h-76.41082v-7.97484z" fill="#303030"/><path d="M456.2307,48.19608v16.31455h-3.85586v-16.31455z" data-paper-data="{&quot;index&quot;:null}" fill="#111111"/><path d="M452.42315,48.19608v16.31455h-3.85586v-16.31455z" data-paper-data="{&quot;index&quot;:null}" fill="#212121"/><path d="M383.72862,48.19608v16.31455h-3.85586v-16.31455z" data-paper-data="{&quot;index&quot;:null}" fill="#111111"/><path d="M387.69482,48.19608v16.31455h-3.85586v-16.31455z" data-paper-data="{&quot;index&quot;:null}" fill="#212121"/></g><g data-paper-data="{&quot;index&quot;:null}"><path d="M380.07973,-4.55254v53.00924h-76.41082v-53.00924z" fill="#2b2b2b"/><path d="M380.07973,-4.34406v16.31454h-76.41082v-16.31454z" fill="#212121"/><path d="M380.07973,29.84873v18.60796h-76.41082v-18.60796z" fill="url(#color-21)"/><path d="M380.07973,48.19608v16.31455h-76.41082v-16.31455z" fill="#3d3d3d"/><path d="M380.07973,48.40459v7.97484h-76.41082v-7.97484z" fill="#303030"/><path d="M380.07973,48.19608v16.31455h-3.85586v-16.31455z" data-paper-data="{&quot;index&quot;:null}" fill="#111111"/><path d="M376.27218,48.19608v16.31455h-3.85586v-16.31455z" data-paper-data="{&quot;index&quot;:null}" fill="#212121"/><path d="M307.57766,48.19608v16.31455h-3.85586v-16.31455z" data-paper-data="{&quot;index&quot;:null}" fill="#111111"/><path d="M311.54385,48.19608v16.31455h-3.85586v-16.31455z" data-paper-data="{&quot;index&quot;:null}" fill="#212121"/></g><g data-paper-data="{&quot;index&quot;:null}"><path d="M535.46836,-4.89576v53.00923h-76.41081v-53.00923z" fill="#2b2b2b"/><path d="M535.46836,-4.68728v16.31455h-76.41081v-16.31455z" fill="#212121"/><path d="M535.46836,29.50551v18.60796h-76.41081v-18.60796z" fill="url(#color-22)"/><path d="M535.46836,47.85286v16.31454h-76.41081v-16.31454z" fill="#3d3d3d"/><path d="M535.46836,48.06137v7.97484h-76.41081v-7.97484z" fill="#303030"/><path d="M535.46836,47.85286v16.31454h-3.85586v-16.31454z" data-paper-data="{&quot;index&quot;:null}" fill="#111111"/><path d="M531.66081,47.85286v16.31454h-3.85585v-16.31454z" data-paper-data="{&quot;index&quot;:null}" fill="#212121"/><path d="M462.9663,47.85286v16.31454h-3.85586v-16.31454z" data-paper-data="{&quot;index&quot;:null}" fill="#111111"/><path d="M466.93249,47.85286v16.31454h-3.85586v-16.31454z" data-paper-data="{&quot;index&quot;:null}" fill="#212121"/></g><g data-paper-data="{&quot;index&quot;:null}"><path d="M454.68738,50.44746v53.00924h-76.41082v-53.00924z" fill="#2b2b2b"/><path d="M454.68738,50.65594v16.31454h-76.41082v-16.31454z" fill="#212121"/><path d="M454.68738,84.84873v18.60796h-76.41082v-18.60796z" fill="url(#color-23)"/><path d="M454.68738,103.19608v16.31455h-76.41082v-16.31455z" fill="#3d3d3d"/><path d="M454.68738,103.40459v7.97484h-76.41082v-7.97484z" fill="#303030"/><path d="M454.68737,103.19608v16.31455h-3.85586v-16.31455z" data-paper-data="{&quot;index&quot;:null}" fill="#111111"/><path d="M450.87982,103.19608v16.31455h-3.85586v-16.31455z" data-paper-data="{&quot;index&quot;:null}" fill="#212121"/><path d="M382.18529,103.19608v16.31455h-3.85586v-16.31455z" data-paper-data="{&quot;index&quot;:null}" fill="#111111"/><path d="M386.15149,103.19608v16.31455h-3.85586v-16.31455z" data-paper-data="{&quot;index&quot;:null}" fill="#212121"/></g><g data-paper-data="{&quot;index&quot;:null}"><path d="M378.5364,50.44746v53.00924h-76.41082v-53.00924z" fill="#2b2b2b"/><path d="M378.5364,50.65594v16.31454h-76.41082v-16.31454z" fill="#212121"/><path d="M378.5364,84.84873v18.60796h-76.41082v-18.60796z" fill="url(#color-24)"/><path d="M378.5364,103.19608v16.31455h-76.41082v-16.31455z" fill="#3d3d3d"/><path d="M378.5364,103.40459v7.97484h-76.41082v-7.97484z" fill="#303030"/><path d="M378.5364,103.19608v16.31455h-3.85586v-16.31455z" data-paper-data="{&quot;index&quot;:null}" fill="#111111"/><path d="M374.72885,103.19608v16.31455h-3.85586v-16.31455z" data-paper-data="{&quot;index&quot;:null}" fill="#212121"/><path d="M306.03432,103.19608v16.31455h-3.85586v-16.31455z" data-paper-data="{&quot;index&quot;:null}" fill="#111111"/><path d="M310.00051,103.19608v16.31455h-3.85586v-16.31455z" data-paper-data="{&quot;index&quot;:null}" fill="#212121"/></g><g data-paper-data="{&quot;index&quot;:null}"><path d="M533.92503,50.10424v53.00923h-76.41082v-53.00923z" fill="#2b2b2b"/><path d="M533.92503,50.31272v16.31455h-76.41082v-16.31455z" fill="#212121"/><path d="M533.92503,84.50551v18.60796h-76.41082v-18.60796z" fill="url(#color-25)"/><path d="M533.92503,102.85286v16.31454h-76.41082v-16.31454z" fill="#3d3d3d"/><path d="M533.92503,103.06137v7.97484h-76.41082v-7.97484z" fill="#303030"/><path d="M533.92503,102.85286v16.31454h-3.85586v-16.31454z" data-paper-data="{&quot;index&quot;:null}" fill="#111111"/><path d="M530.11748,102.85286v16.31454h-3.85586v-16.31454z" data-paper-data="{&quot;index&quot;:null}" fill="#212121"/><path d="M461.42296,102.85286v16.31454h-3.85586v-16.31454z" data-paper-data="{&quot;index&quot;:null}" fill="#111111"/><path d="M465.38915,102.85286v16.31454h-3.85586v-16.31454z" data-paper-data="{&quot;index&quot;:null}" fill="#212121"/></g><g data-paper-data="{&quot;index&quot;:null}"><path d="M301.31179,99.77585v53.00924h-76.41082v-53.00924z" fill="#2b2b2b"/><path d="M301.31179,99.98433v16.31454h-76.41082v-16.31454z" fill="#212121"/><path d="M301.31179,134.17712v18.60796h-76.41082v-18.60796z" fill="url(#color-26)"/><path d="M301.31179,152.52448v16.31455h-76.41082v-16.31455z" fill="#3d3d3d"/><path d="M301.31179,152.73298v7.97484h-76.41082v-7.97484z" fill="#303030"/><path d="M301.31179,152.52448v16.31455h-3.85586v-16.31455z" data-paper-data="{&quot;index&quot;:null}" fill="#111111"/><path d="M297.50424,152.52448v16.31455h-3.85586v-16.31455z" data-paper-data="{&quot;index&quot;:null}" fill="#212121"/><path d="M228.80971,152.52448v16.31455h-3.85586v-16.31455z" data-paper-data="{&quot;index&quot;:null}" fill="#111111"/><path d="M232.77591,152.52448v16.31455h-3.85586v-16.31455z" data-paper-data="{&quot;index&quot;:null}" fill="#212121"/></g><g data-paper-data="{&quot;index&quot;:null}"><path d="M225.16081,99.77585v53.00924h-76.41082v-53.00924z" fill="#2b2b2b"/><path d="M225.16081,99.98433v16.31455h-76.41082v-16.31455z" fill="#212121"/><path d="M225.16081,134.17712v18.60797h-76.41082v-18.60797z" fill="url(#color-27)"/><path d="M225.16081,152.52447v16.31454h-76.41082v-16.31454z" fill="#3d3d3d"/><path d="M225.16081,152.73298v7.97484h-76.41082v-7.97484z" fill="#303030"/><path d="M225.16081,152.52447v16.31454h-3.85586v-16.31454z" data-paper-data="{&quot;index&quot;:null}" fill="#111111"/><path d="M221.35326,152.52447v16.31454h-3.85586v-16.31454z" data-paper-data="{&quot;index&quot;:null}" fill="#212121"/><path d="M152.65873,152.52447v16.31454h-3.85586v-16.31454z" data-paper-data="{&quot;index&quot;:null}" fill="#111111"/><path d="M156.62493,152.52447v16.31454h-3.85586v-16.31454z" data-paper-data="{&quot;index&quot;:null}" fill="#212121"/></g><g data-paper-data="{&quot;index&quot;:null}"><path d="M455.31179,99.77586v53.00924h-76.41082v-53.00924z" fill="#2b2b2b"/><path d="M455.31179,99.98433v16.31454h-76.41082v-16.31454z" fill="#212121"/><path d="M455.31179,134.17712v18.60796h-76.41082v-18.60796z" fill="url(#color-28)"/><path d="M455.31179,152.52448v16.31455h-76.41082v-16.31455z" fill="#3d3d3d"/><path d="M455.31179,152.73299v7.97484h-76.41082v-7.97484z" fill="#303030"/><path d="M455.31179,152.52448v16.31455h-3.85586v-16.31455z" data-paper-data="{&quot;index&quot;:null}" fill="#111111"/><path d="M451.50424,152.52448v16.31455h-3.85586v-16.31455z" data-paper-data="{&quot;index&quot;:null}" fill="#212121"/><path d="M382.80971,152.52448v16.31455h-3.85586v-16.31455z" data-paper-data="{&quot;index&quot;:null}" fill="#111111"/><path d="M386.77591,152.52448v16.31455h-3.85586v-16.31455z" data-paper-data="{&quot;index&quot;:null}" fill="#212121"/></g><g data-paper-data="{&quot;index&quot;:null}"><path d="M379.16081,99.77586v53.00924h-76.41082v-53.00924z" fill="#2b2b2b"/><path d="M379.16081,99.98433v16.31455h-76.41082v-16.31455z" fill="#212121"/><path d="M379.16081,134.17712v18.60797h-76.41082v-18.60797z" fill="url(#color-29)"/><path d="M379.16081,152.52448v16.31454h-76.41082v-16.31454z" fill="#3d3d3d"/><path d="M379.16081,152.73299v7.97484h-76.41082v-7.97484z" fill="#303030"/><path d="M379.16081,152.52448v16.31454h-3.85586v-16.31454z" data-paper-data="{&quot;index&quot;:null}" fill="#111111"/><path d="M375.35326,152.52448v16.31454h-3.85586v-16.31454z" data-paper-data="{&quot;index&quot;:null}" fill="#212121"/><path d="M306.65873,152.52448v16.31454h-3.85586v-16.31454z" data-paper-data="{&quot;index&quot;:null}" fill="#111111"/><path d="M310.62493,152.52448v16.31454h-3.85586v-16.31454z" data-paper-data="{&quot;index&quot;:null}" fill="#212121"/></g><g data-paper-data="{&quot;index&quot;:null}"><path d="M609.31179,99.77586v53.00924h-76.41082v-53.00924z" fill="#2b2b2b"/><path d="M609.31179,99.98433v16.31454h-76.41082v-16.31454z" fill="#212121"/><path d="M609.31179,134.17712v18.60796h-76.41082v-18.60796z" fill="url(#color-30)"/><path d="M609.31179,152.52448v16.31455h-76.41082v-16.31455z" fill="#3d3d3d"/><path d="M609.31179,152.73299v7.97484h-76.41082v-7.97484z" fill="#303030"/><path d="M609.31179,152.52448v16.31455h-3.85586v-16.31455z" data-paper-data="{&quot;index&quot;:null}" fill="#111111"/><path d="M605.50424,152.52448v16.31455h-3.85586v-16.31455z" data-paper-data="{&quot;index&quot;:null}" fill="#212121"/><path d="M536.80971,152.52448v16.31455h-3.85586v-16.31455z" data-paper-data="{&quot;index&quot;:null}" fill="#111111"/><path d="M540.77591,152.52448v16.31455h-3.85586v-16.31455z" data-paper-data="{&quot;index&quot;:null}" fill="#212121"/></g><g data-paper-data="{&quot;index&quot;:null}"><path d="M533.16081,99.77586v53.00924h-76.41082v-53.00924z" fill="#2b2b2b"/><path d="M533.16081,99.98433v16.31455h-76.41082v-16.31455z" fill="#212121"/><path d="M533.16081,134.17712v18.60797h-76.41082v-18.60797z" fill="url(#color-31)"/><path d="M533.16081,152.52448v16.31454h-76.41082v-16.31454z" fill="#3d3d3d"/><path d="M533.16081,152.73299v7.97484h-76.41082v-7.97484z" fill="#303030"/><path d="M533.16081,152.52448v16.31454h-3.85586v-16.31454z" data-paper-data="{&quot;index&quot;:null}" fill="#111111"/><path d="M529.35326,152.52448v16.31454h-3.85586v-16.31454z" data-paper-data="{&quot;index&quot;:null}" fill="#212121"/><path d="M460.65873,152.52448v16.31454h-3.85586v-16.31454z" data-paper-data="{&quot;index&quot;:null}" fill="#111111"/><path d="M464.62493,152.52448v16.31454h-3.85586v-16.31454z" data-paper-data="{&quot;index&quot;:null}" fill="#212121"/></g><g data-paper-data="{&quot;index&quot;:null}"><path d="M378.31179,134.46842v53.00924h-76.41082v-53.00924z" fill="#2b2b2b"/><path d="M378.31179,134.67689v16.31454h-76.41082v-16.31454z" fill="#212121"/><path d="M378.31179,168.86968v18.60796h-76.41082v-18.60796z" fill="url(#color-32)"/><path d="M378.31179,187.21704v16.31455h-76.41082v-16.31455z" fill="#3d3d3d"/><path d="M378.31179,187.42555v7.97484h-76.41082v-7.97484z" fill="#303030"/><path d="M378.31179,187.21704v16.31455h-3.85586v-16.31455z" data-paper-data="{&quot;index&quot;:null}" fill="#111111"/><path d="M374.50424,187.21704v16.31455h-3.85586v-16.31455z" data-paper-data="{&quot;index&quot;:null}" fill="#212121"/><path d="M305.80971,187.21704v16.31455h-3.85586v-16.31455z" data-paper-data="{&quot;index&quot;:null}" fill="#111111"/><path d="M309.77591,187.21704v16.31455h-3.85586v-16.31455z" data-paper-data="{&quot;index&quot;:null}" fill="#212121"/></g><g data-paper-data="{&quot;index&quot;:null}"><path d="M302.16081,134.46842v53.00924h-76.41082v-53.00924z" fill="#2b2b2b"/><path d="M302.16081,134.6769v16.31455h-76.41082v-16.31455z" fill="#212121"/><path d="M302.16081,168.86969v18.60797h-76.41082v-18.60797z" fill="url(#color-33)"/><path d="M302.16081,187.21704v16.31454h-76.41082v-16.31454z" fill="#3d3d3d"/><path d="M302.16081,187.42555v7.97484h-76.41082v-7.97484z" fill="#303030"/><path d="M302.16081,187.21704v16.31454h-3.85586v-16.31454z" data-paper-data="{&quot;index&quot;:null}" fill="#111111"/><path d="M298.35326,187.21704v16.31454h-3.85586v-16.31454z" data-paper-data="{&quot;index&quot;:null}" fill="#212121"/><path d="M229.65873,187.21704v16.31454h-3.85586v-16.31454z" data-paper-data="{&quot;index&quot;:null}" fill="#111111"/><path d="M233.62493,187.21704v16.31454h-3.85586v-16.31454z" data-paper-data="{&quot;index&quot;:null}" fill="#212121"/></g><g data-paper-data="{&quot;index&quot;:null}"><path d="M532.31179,134.46842v53.00924h-76.41082v-53.00924z" fill="#2b2b2b"/><path d="M532.31179,134.67689v16.31454h-76.41082v-16.31454z" fill="#212121"/><path d="M532.31179,168.86968v18.60796h-76.41082v-18.60796z" fill="url(#color-34)"/><path d="M532.31179,187.21704v16.31455h-76.41082v-16.31455z" fill="#3d3d3d"/><path d="M532.31179,187.42555v7.97484h-76.41082v-7.97484z" fill="#303030"/><path d="M532.31179,187.21704v16.31455h-3.85586v-16.31455z" data-paper-data="{&quot;index&quot;:null}" fill="#111111"/><path d="M528.50424,187.21704v16.31455h-3.85586v-16.31455z" data-paper-data="{&quot;index&quot;:null}" fill="#212121"/><path d="M459.80971,187.21704v16.31455h-3.85586v-16.31455z" data-paper-data="{&quot;index&quot;:null}" fill="#111111"/><path d="M463.77591,187.21704v16.31455h-3.85586v-16.31455z" data-paper-data="{&quot;index&quot;:null}" fill="#212121"/></g><g data-paper-data="{&quot;index&quot;:null}"><path d="M456.16081,134.46842v53.00924h-76.41082v-53.00924z" fill="#2b2b2b"/><path d="M456.16081,134.6769v16.31455h-76.41082v-16.31455z" fill="#212121"/><path d="M456.16081,168.86969v18.60797h-76.41082v-18.60797z" fill="url(#color-35)"/><path d="M456.16081,187.21704v16.31454h-76.41082v-16.31454z" fill="#3d3d3d"/><path d="M456.16081,187.42555v7.97484h-76.41082v-7.97484z" fill="#303030"/><path d="M456.16081,187.21704v16.31454h-3.85586v-16.31454z" data-paper-data="{&quot;index&quot;:null}" fill="#111111"/><path d="M452.35326,187.21704v16.31454h-3.85586v-16.31454z" data-paper-data="{&quot;index&quot;:null}" fill="#212121"/><path d="M383.65873,187.21704v16.31454h-3.85586v-16.31454z" data-paper-data="{&quot;index&quot;:null}" fill="#111111"/><path d="M387.62493,187.21704v16.31454h-3.85586v-16.31454z" data-paper-data="{&quot;index&quot;:null}" fill="#212121"/></g><g data-paper-data="{&quot;index&quot;:null}"><path d="M686.31179,134.46842v53.00924h-76.41082v-53.00924z" fill="#2b2b2b"/><path d="M686.31179,134.67689v16.31454h-76.41082v-16.31454z" fill="#212121"/><path d="M686.31179,168.86968v18.60796h-76.41082v-18.60796z" fill="url(#color-36)"/><path d="M686.31179,187.21704v16.31455h-76.41082v-16.31455z" fill="#3d3d3d"/><path d="M686.31179,187.42555v7.97484h-76.41082v-7.97484z" fill="#303030"/><path d="M686.31179,187.21704v16.31455h-3.85586v-16.31455z" data-paper-data="{&quot;index&quot;:null}" fill="#111111"/><path d="M682.50424,187.21704v16.31455h-3.85586v-16.31455z" data-paper-data="{&quot;index&quot;:null}" fill="#212121"/><path d="M613.80971,187.21704v16.31455h-3.85586v-16.31455z" data-paper-data="{&quot;index&quot;:null}" fill="#111111"/><path d="M617.77591,187.21704v16.31455h-3.85586v-16.31455z" data-paper-data="{&quot;index&quot;:null}" fill="#212121"/></g><g data-paper-data="{&quot;index&quot;:null}"><path d="M610.16081,134.46842v53.00924h-76.41082v-53.00924z" fill="#2b2b2b"/><path d="M610.16081,134.6769v16.31455h-76.41082v-16.31455z" fill="#212121"/><path d="M610.16081,168.86969v18.60797h-76.41082v-18.60797z" fill="url(#color-37)"/><path d="M610.16081,187.21704v16.31454h-76.41082v-16.31454z" fill="#3d3d3d"/><path d="M610.16081,187.42555v7.97484h-76.41082v-7.97484z" fill="#303030"/><path d="M610.16081,187.21704v16.31454h-3.85586v-16.31454z" data-paper-data="{&quot;index&quot;:null}" fill="#111111"/><path d="M606.35326,187.21704v16.31454h-3.85586v-16.31454z" data-paper-data="{&quot;index&quot;:null}" fill="#212121"/><path d="M537.65873,187.21704v16.31454h-3.85586v-16.31454z" data-paper-data="{&quot;index&quot;:null}" fill="#111111"/><path d="M541.62493,187.21704v16.31454h-3.85586v-16.31454z" data-paper-data="{&quot;index&quot;:null}" fill="#212121"/></g><g data-paper-data="{&quot;index&quot;:null}"><path d="M533.31179,185.46842v53.00924h-76.41082v-53.00924z" fill="#2b2b2b"/><path d="M533.31179,185.6769v16.31454h-76.41082v-16.31454z" fill="#212121"/><path d="M533.31179,219.86969v18.60796h-76.41082v-18.60796z" fill="url(#color-38)"/><path d="M533.31179,238.21704v16.31455h-76.41082v-16.31455z" fill="#3d3d3d"/><path d="M533.31179,238.42555v7.97484h-76.41082v-7.97484z" fill="#303030"/><path d="M533.31179,238.21704v16.31455h-3.85586v-16.31455z" data-paper-data="{&quot;index&quot;:null}" fill="#111111"/><path d="M529.50424,238.21704v16.31455h-3.85586v-16.31455z" data-paper-data="{&quot;index&quot;:null}" fill="#212121"/><path d="M460.80971,238.21704v16.31455h-3.85586v-16.31455z" data-paper-data="{&quot;index&quot;:null}" fill="#111111"/><path d="M464.77591,238.21704v16.31455h-3.85586v-16.31455z" data-paper-data="{&quot;index&quot;:null}" fill="#212121"/></g><g data-paper-data="{&quot;index&quot;:null}"><path d="M457.16081,185.46842v53.00924h-76.41082v-53.00924z" fill="#2b2b2b"/><path d="M457.16081,185.6769v16.31455h-76.41082v-16.31455z" fill="#212121"/><path d="M457.16081,219.86969v18.60797h-76.41082v-18.60797z" fill="url(#color-39)"/><path d="M457.16081,238.21704v16.31454h-76.41082v-16.31454z" fill="#3d3d3d"/><path d="M457.16081,238.42555v7.97484h-76.41082v-7.97484z" fill="#303030"/><path d="M457.16081,238.21704v16.31454h-3.85586v-16.31454z" data-paper-data="{&quot;index&quot;:null}" fill="#111111"/><path d="M453.35326,238.21704v16.31454h-3.85586v-16.31454z" data-paper-data="{&quot;index&quot;:null}" fill="#212121"/><path d="M384.65873,238.21704v16.31454h-3.85586v-16.31454z" data-paper-data="{&quot;index&quot;:null}" fill="#111111"/><path d="M388.62493,238.21704v16.31454h-3.85586v-16.31454z" data-paper-data="{&quot;index&quot;:null}" fill="#212121"/></g><g data-paper-data="{&quot;index&quot;:null}"><path d="M687.31179,185.46842v53.00924h-76.41082v-53.00924z" fill="#2b2b2b"/><path d="M687.31179,185.6769v16.31454h-76.41082v-16.31454z" fill="#212121"/><path d="M687.31179,219.86969v18.60796h-76.41082v-18.60796z" fill="url(#color-40)"/><path d="M687.31179,238.21704v16.31455h-76.41082v-16.31455z" fill="#3d3d3d"/><path d="M687.31179,238.42555v7.97484h-76.41082v-7.97484z" fill="#303030"/><path d="M687.31179,238.21704v16.31455h-3.85586v-16.31455z" data-paper-data="{&quot;index&quot;:null}" fill="#111111"/><path d="M683.50424,238.21704v16.31455h-3.85586v-16.31455z" data-paper-data="{&quot;index&quot;:null}" fill="#212121"/><path d="M614.80971,238.21704v16.31455h-3.85586v-16.31455z" data-paper-data="{&quot;index&quot;:null}" fill="#111111"/><path d="M618.77591,238.21704v16.31455h-3.85586v-16.31455z" data-paper-data="{&quot;index&quot;:null}" fill="#212121"/></g><g data-paper-data="{&quot;index&quot;:null}"><path d="M611.16081,185.46842v53.00924h-76.41082v-53.00924z" fill="#2b2b2b"/><path d="M611.16081,185.6769v16.31455h-76.41082v-16.31455z" fill="#212121"/><path d="M611.16081,219.86969v18.60797h-76.41082v-18.60797z" fill="url(#color-41)"/><path d="M611.16081,238.21704v16.31454h-76.41082v-16.31454z" fill="#3d3d3d"/><path d="M611.16081,238.42555v7.97484h-76.41082v-7.97484z" fill="#303030"/><path d="M611.16081,238.21704v16.31454h-3.85586v-16.31454z" data-paper-data="{&quot;index&quot;:null}" fill="#111111"/><path d="M607.35326,238.21704v16.31454h-3.85586v-16.31454z" data-paper-data="{&quot;index&quot;:null}" fill="#212121"/><path d="M538.65873,238.21704v16.31454h-3.85586v-16.31454z" data-paper-data="{&quot;index&quot;:null}" fill="#111111"/><path d="M542.62493,238.21704v16.31454h-3.85586v-16.31454z" data-paper-data="{&quot;index&quot;:null}" fill="#212121"/></g><g data-paper-data="{&quot;index&quot;:null}"><path d="M841.31179,185.46842v53.00924h-76.41082v-53.00924z" fill="#2b2b2b"/><path d="M841.31179,185.6769v16.31454h-76.41082v-16.31454z" fill="#212121"/><path d="M841.31179,219.86969v18.60796h-76.41082v-18.60796z" fill="url(#color-42)"/><path d="M841.31179,238.21704v16.31455h-76.41082v-16.31455z" fill="#3d3d3d"/><path d="M841.31179,238.42555v7.97484h-76.41082v-7.97484z" fill="#303030"/><path d="M841.31179,238.21704v16.31455h-3.85586v-16.31455z" data-paper-data="{&quot;index&quot;:null}" fill="#111111"/><path d="M837.50424,238.21704v16.31455h-3.85586v-16.31455z" data-paper-data="{&quot;index&quot;:null}" fill="#212121"/><path d="M768.80971,238.21704v16.31455h-3.85586v-16.31455z" data-paper-data="{&quot;index&quot;:null}" fill="#111111"/><path d="M772.77591,238.21704v16.31455h-3.85586v-16.31455z" data-paper-data="{&quot;index&quot;:null}" fill="#212121"/></g><g data-paper-data="{&quot;index&quot;:null}"><path d="M765.16081,185.46842v53.00924h-76.41082v-53.00924z" fill="#2b2b2b"/><path d="M765.16081,185.6769v16.31455h-76.41082v-16.31455z" fill="#212121"/><path d="M765.16081,219.86969v18.60797h-76.41082v-18.60797z" fill="url(#color-43)"/><path d="M765.16081,238.21704v16.31454h-76.41082v-16.31454z" fill="#3d3d3d"/><path d="M765.16081,238.42555v7.97484h-76.41082v-7.97484z" fill="#303030"/><path d="M765.16081,238.21704v16.31454h-3.85586v-16.31454z" data-paper-data="{&quot;index&quot;:null}" fill="#111111"/><path d="M761.35326,238.21704v16.31454h-3.85586v-16.31454z" data-paper-data="{&quot;index&quot;:null}" fill="#212121"/><path d="M692.65873,238.21704v16.31454h-3.85586v-16.31454z" data-paper-data="{&quot;index&quot;:null}" fill="#111111"/><path d="M696.62493,238.21704v16.31454h-3.85586v-16.31454z" data-paper-data="{&quot;index&quot;:null}" fill="#212121"/></g></g></g></svg>