<svg version="1.1" xmlns="http://www.w3.org/2000/svg" xmlns:xlink="http://www.w3.org/1999/xlink" width="68.51322" height="83.43011" viewBox="0,0,68.51322,83.43011"><g transform="translate(-206.63893,-138.19028)"><g data-paper-data="{&quot;isPaintingLayer&quot;:true}" fill-rule="nonzero" stroke-width="5" stroke-linejoin="miter" stroke-miterlimit="10" stroke-dasharray="" stroke-dashoffset="0" style="mix-blend-mode: normal"><path d="M261.0492,169.08439c2.26704,-3.05061 8.60938,-0.47348 10.38984,-0.47348c3.39177,0 1.26193,11.34029 1.26193,19.51773c0,8.17744 -3.59086,10.43188 -6.98264,10.43188c-3.39177,0 -6.14134,-6.62911 -6.14134,-14.80655c0,-3.88482 -0.57946,-11.90878 1.47221,-14.66958z" data-paper-data="{&quot;index&quot;:null}" fill="#00398e" stroke="none" stroke-linecap="butt"/><path d="M261.45955,171.80777v-10.09537h11.27317v10.09537z" data-paper-data="{&quot;index&quot;:null}" fill="#003dd6" stroke="none" stroke-linecap="butt"/><path d="M238.97764,141.20618c13.56711,0 24.56542,17.45762 24.56542,38.99271c0,21.53507 -12.23552,20.43449 -25.80262,20.43449c-13.56711,0 -23.3282,1.10059 -23.3282,-20.43449c0,-21.53509 10.99831,-38.99271 24.5654,-38.99271z" data-paper-data="{&quot;index&quot;:null}" fill="#003dd6" stroke="none" stroke-linecap="butt"/><path d="M254.42005,172.82287c0,-12.26616 0.71813,-23.21937 2.01908,-23.21937c1.30097,0 2.69212,11.12148 2.69212,23.38762c0,5.1586 2.07061,4.05624 2.03357,12.55118c-0.05104,11.7044 -3.13057,32.878 -3.8844,32.878c-4.08008,0 -11.31886,2.23649 -13.9143,-0.38349c-3.11671,-3.1462 -1.17818,-11.58654 -0.95177,-16.48086c0.03307,-0.71504 -2.56026,1.16315 -7.47569,1.79008c-0.18397,0.02346 -0.71807,3.67446 -1.10532,6.41863c-0.34245,2.42661 -0.49671,3.92401 -1.25758,4.77211c-4.07351,4.54052 -13.05646,2.88473 -13.14085,1.39969c-0.15359,-2.70237 -8.61325,-32.65997 -1.93309,-39.98686c1.93237,-2.11945 3.48697,14.996 9.52779,18.38512c14.01747,0.58184 27.39047,-7.48231 27.39047,-21.51186z" data-paper-data="{&quot;index&quot;:null}" fill="#00398e" stroke="none" stroke-linecap="butt"/><path d="M216.64638,168.67483c0,-15.99646 2.94296,-23.52677 21.58476,-27.48829c20.69701,-4.39826 21.95372,21.45402 21.95372,37.45048c0,3.13649 0.98859,28.05828 -1.30714,38.40538c-0.49475,0.49548 -2.48264,1.87192 -8.59114,2.07827c-4.85872,0.07221 -6.1252,-1.70018 -7.38534,-3.10595c-4.26858,-4.76188 -0.60693,-13.20984 -2.00498,-13.2168c-2.69649,-0.01344 -7.41117,-0.50642 -8.1363,1.58734c-1.19538,3.4516 0.64063,8.1599 -3.15947,10.46632c-2.73118,1.65765 -9.05859,1.51481 -11.02674,-0.29949c-1.89696,-6.00135 -1.01656,-11.73149 -1.72301,-21.01539c-0.54996,-7.22733 -0.20434,-19.6078 -0.20434,-24.86186z" data-paper-data="{&quot;index&quot;:null}" fill="none" stroke="#000000" stroke-linecap="butt"/><path d="M260.87422,159.42063l9.08583,1.51431l1.68255,2.35557l1.00955,11.44142v14.30179l-1.68257,7.06677l-2.52383,2.18734l-5.72072,0.33651" data-paper-data="{&quot;index&quot;:null}" fill="none" stroke="#000000" stroke-linecap="round"/><path d="M206.63893,165.23719c0,-6.50478 8.35662,-11.77793 18.66503,-11.77793c10.30843,0 18.66505,5.27315 18.66505,11.77793c0,6.50478 -8.35662,11.77793 -18.66503,11.77793c-10.30841,0 -18.66503,-5.27317 -18.66503,-11.77795z" data-paper-data="{&quot;index&quot;:null}" fill="#49646d" stroke="none" stroke-linecap="butt"/><path d="M220.46462,156.11145c5.43893,-0.88085 17.37966,-0.78974 17.37966,1.34934c0,2.1391 -2.76924,10.46637 -8.27903,10.46637c-5.50981,0 -14.65304,0.56884 -16.07957,-1.02513c-6.41262,-0.51481 -3.41028,-9.10801 6.97895,-10.79058z" data-paper-data="{&quot;index&quot;:null}" fill="#95cadc" stroke="none" stroke-linecap="butt"/><path d="M214.93227,162.52491c-3.02862,-3.3841 3.70633,-5.80484 7.65565,-5.80484c3.94932,0 7.1509,1.24295 7.1509,2.77622c0,1.53325 0.66833,3.28099 -3.28099,3.28099c-3.94934,0 -10.50304,0.89015 -11.52556,-0.25239z" data-paper-data="{&quot;index&quot;:null}" fill="#fefefe" stroke="none" stroke-linecap="butt"/><path d="M240.95997,155.45095c2.8349,0.97649 3.13278,12.24688 -2.5166,17.44759c-3.43306,3.16043 -13.28909,2.43589 -13.28909,2.43589c-13.00071,-2.31646 -16.33375,-6.27531 -15.56372,-11.60968c1.10041,-7.62315 10.76866,-15.36984 31.3694,-8.2738z" data-paper-data="{&quot;index&quot;:null}" fill="none" stroke="#000000" stroke-linecap="butt"/><path d="M230.94677,204.59228c0,0 -2.33837,-0.84703 -3.07579,-1.41427c-1.11359,-0.85659 -2.95563,-3.22528 -2.95563,-3.22528l11.59889,-0.30931l-5.56745,4.94886z" data-paper-data="{&quot;index&quot;:null}" fill="#000000" stroke="none" stroke-linecap="butt"/></g></g></svg>