<svg version="1.1" xmlns="http://www.w3.org/2000/svg" xmlns:xlink="http://www.w3.org/1999/xlink" width="247.74452" height="273.78809" viewBox="0,0,247.74452,273.78809"><defs><linearGradient x1="68.23479" y1="192.82616" x2="68.23479" y2="233.92754" gradientUnits="userSpaceOnUse" id="color-1"><stop offset="0" stop-color="#48995e"/><stop offset="1" stop-color="#58a36c"/></linearGradient></defs><g transform="translate(41.37226,-72.57019)"><g data-paper-data="{&quot;isPaintingLayer&quot;:true}" fill-rule="nonzero" stroke-linejoin="miter" stroke-miterlimit="10" stroke-dasharray="" stroke-dashoffset="0" style="mix-blend-mode: normal"><path d="M206.37226,191.56898c0,65.7212 -55.45952,118.99876 -123.87226,118.99876c-68.41274,0 -123.87226,-53.27756 -123.87226,-118.99876c0,-65.7212 55.45952,-118.99879 123.87226,-118.99879c68.41274,0 123.87226,53.27756 123.87226,118.99879z" fill="none" stroke="none" stroke-width="0" stroke-linecap="butt"/><path d="M84.57562,265.96619c-5.00356,-2.38485 -13.16975,-4.82548 -20.11737,-8.13693c-7.72123,-3.6802 -14.11005,-8.177 -16.63781,-9.3818c-1.88236,-0.8972 -3.82029,-2.71754 -4.10584,-4.34072c-1.05637,-6.00561 -3.67483,-20.83869 -4.95424,-27.60908c-0.55774,-2.95147 -1.04023,-6.81424 -1.23488,-10.0688c-0.46122,-7.71099 5.09363,-10.25278 5.09363,-10.25278c0,0 9.84136,-5.76483 18.46884,-8.23481c8.11832,-2.32419 11.4518,-4.84846 19.096,-4.45378c6.17893,0.31904 7.80776,3.34472 9.02588,5.62689c1.70583,3.19592 2.85533,7.74177 3.83362,11.15095c1.58272,5.51536 3.35135,17.17849 4.12764,22.59726c0.25423,1.77455 1.55808,3.52768 3.41267,4.54402c2.14442,1.17521 5.22277,2.84256 8.5275,4.56896c7.28853,3.80755 15.82469,8.04857 19.96771,10.02582c6.59714,3.14845 5.06626,8.18857 0.62887,10.08144c-9.75254,4.16016 -26.20068,11.17649 -31.6675,13.50851c-3.48595,1.487 -9.86376,2.09116 -13.46473,0.37486z" fill="none" stroke="#ffffff" stroke-width="7" stroke-linecap="butt"/><path d="M85.31004,266.7006c-5.00356,-2.38485 -13.16975,-4.82548 -20.11737,-8.13693c-7.72123,-3.6802 -14.11005,-8.177 -16.63781,-9.3818c-1.88236,-0.8972 -3.82029,-2.71754 -4.10584,-4.34072c-1.05637,-6.00561 -3.67483,-20.83869 -4.95424,-27.60908c-0.55774,-2.95147 -0.67302,-6.81424 -0.86767,-10.0688c-0.46122,-7.71099 1.52225,-8.13362 4.72642,-10.25278c3.76442,-2.4897 9.84136,-5.76483 18.46884,-8.23481c8.11832,-2.32419 11.4518,-4.84846 19.096,-4.45378c6.17893,0.31904 7.80776,3.34472 9.02588,5.62689c1.70583,3.19592 2.85533,7.74177 3.83362,11.15095c1.58272,5.51536 3.35135,17.17849 4.12764,22.59726c0.25423,1.77455 1.55808,3.52768 3.41267,4.54402c2.14442,1.17521 5.22277,2.84256 8.5275,4.56896c7.28853,3.80755 15.82469,8.04857 19.96771,10.02582c6.59714,3.14845 5.06626,8.18857 0.62887,10.08144c-9.75254,4.16016 -26.20068,11.17649 -31.6675,13.50851c-3.48595,1.487 -9.86376,2.09116 -13.46473,0.37486z" fill="#a2b2ba" stroke="none" stroke-width="0" stroke-linecap="butt"/><path d="M98.19049,227.38612l-51.40958,20.93105" fill="none" stroke="#303030" stroke-width="2" stroke-linecap="round"/><path d="M105.53472,230.69098l-50.66457,20.982" fill="none" stroke="#546368" stroke-width="3" stroke-linecap="round"/><path d="M49.17908,216.04978c-0.71921,-2.62654 -0.69139,-5.22623 -1.27929,-7.39607c-1.24155,-3.59431 3.29184,-5.85731 3.29184,-5.85731c0,0 22.84151,-8.54973 26.82137,-9.78348c1.98437,-0.61514 4.43388,0.29563 5.06255,2.63881c1.669,6.2207 4.48594,18.45622 5.46762,22.11519c0.56489,2.10548 0.21552,4.55416 -1.85122,5.25062c-2.86273,0.96474 -7.09444,2.41561 -10.995,3.84847c-7.12756,2.61831 -13.38115,5.22277 -16.44784,6.34931c-2.42705,0.89155 -6.14333,1.85925 -7.68271,-3.26193c0,0 -1.03266,-8.9564 -2.38734,-13.90362z" fill="url(#color-1)" stroke="#2c3233" stroke-width="1.5" stroke-linecap="butt"/><path d="M49.17908,216.04978c-0.71921,-2.62654 -0.69139,-5.22623 -1.27929,-7.39607c-1.24155,-3.59431 3.29184,-5.85731 3.29184,-5.85731c0,0 22.84151,-8.54973 26.82137,-9.78348c1.98437,-0.61514 4.43388,0.29563 5.06255,2.63881c1.669,6.2207 4.48594,18.45622 5.46762,22.11519c0.56489,2.10548 0.21552,4.55416 -1.85122,5.25062c-2.86273,0.96474 -7.09444,2.41561 -10.995,3.84847c-7.12756,2.61831 -13.38115,5.22277 -16.44784,6.34931c-2.42705,0.89155 -6.14333,1.85925 -7.68271,-3.26193c0,0 -1.03266,-8.9564 -2.38734,-13.90362z" fill="none" stroke="#2c3233" stroke-width="1.5" stroke-linecap="butt"/><path d="M65.1927,258.56367c-7.72123,-3.6802 -14.11005,-8.177 -16.63781,-9.3818c-1.88236,-0.8972 -3.82029,-2.71754 -4.10584,-4.34072c-1.05637,-6.00561 -3.67483,-20.83869 -4.95424,-27.60908c-0.55774,-2.95147 -1.40744,-6.81424 -1.60209,-10.0688c-0.46122,-7.71099 5.46084,-10.25278 5.46084,-10.25278c0,0 9.84136,-5.76483 18.46884,-8.23481c5.0426,-2.48067 15.9127,-5.00509 20.79737,-5.18345c1.04084,-0.03801 3.45835,0.96341 3.95711,1.35822c2.35633,1.86522 2.85182,4.03243 3.3674,4.99837c1.70583,3.19592 2.85533,7.74177 3.83362,11.15095c1.58272,5.51536 3.35135,17.17849 4.12764,22.59726c0.25423,1.77455 1.55808,3.52768 3.41267,4.54402c2.14442,1.17521 5.22277,2.84256 8.5275,4.56896c7.28853,3.80755 15.82469,8.04857 19.96771,10.02582c6.59714,3.14845 5.06626,8.18857 0.62887,10.08144c-9.75254,4.16016 -26.20068,11.17649 -31.6675,13.50851c-3.48595,1.487 -9.86376,2.09116 -13.46473,0.37486c0,0 -13.16975,-4.82545 -20.11737,-8.13691z" fill="none" stroke="#000000" stroke-width="3" stroke-linecap="butt"/><text transform="translate(19.59696,328.8125) scale(1.06338,1.06338)" font-size="40" xml:space="preserve" fill="#ffffff" fill-rule="nonzero" stroke="none" stroke-width="1" stroke-linecap="butt" stroke-linejoin="miter" stroke-miterlimit="10" stroke-dasharray="" stroke-dashoffset="0" font-family="Handwriting" font-weight="normal" text-anchor="start" style="mix-blend-mode: normal"><tspan x="0" dy="0">costume</tspan></text></g></g></svg>