<svg version="1.1" xmlns="http://www.w3.org/2000/svg" xmlns:xlink="http://www.w3.org/1999/xlink" width="114.0383" height="148.6158" viewBox="0,0,114.0383,148.6158"><g transform="translate(-182.37831,-94.80574)"><g data-paper-data="{&quot;isPaintingLayer&quot;:true}" fill-rule="nonzero" stroke-linejoin="miter" stroke-miterlimit="10" stroke-dasharray="" stroke-dashoffset="0" style="mix-blend-mode: normal"><path d="" data-paper-data="{&quot;index&quot;:null}" fill="#66fffc" stroke="none" stroke-width="2.5" stroke-linecap="butt"/><path d="" data-paper-data="{&quot;index&quot;:null}" fill="#4fc4c2" stroke="none" stroke-width="2.5" stroke-linecap="butt"/><path d="" data-paper-data="{&quot;index&quot;:null}" fill="none" stroke="#000000" stroke-width="2.5" stroke-linecap="butt"/><g><path d="M215.52481,185.753c0,13.21911 -11.77812,7.60198 -17.26104,7.60198c-5.48292,0 -11.28767,-3.6444 -11.28767,-16.86351c0,-13.21911 -3.44298,-31.55108 2.03994,-31.55108c1.6974,0 5.95965,-1.44895 9.92286,-1.62631c2.75697,-0.12338 5.36923,0.36859 6.87271,2.39171c3.31662,4.46293 2.37987,17.43395 2.37987,23.71389z" data-paper-data="{&quot;index&quot;:null}" fill="#9d0000" stroke="none" stroke-width="0" stroke-linecap="butt"/><path d="M187.24807,150.10823v-16.31952h18.22347v16.31952z" data-paper-data="{&quot;index&quot;:null}" fill="#d50000" stroke="none" stroke-width="0" stroke-linecap="butt"/><path d="M281.02519,166.67277c0,34.81221 -15.77915,33.03309 -37.71085,33.03309c-21.93169,0 -37.37752,0.4458 -37.37752,-34.36642c0,-34.81221 11.94582,-65.19976 33.87752,-65.19976c21.93169,0 41.21085,31.72087 41.21085,66.53309z" data-paper-data="{&quot;index&quot;:null}" fill="#d50000" stroke="none" stroke-width="0" stroke-linecap="butt"/><path d="M216.85112,151.10255c0,22.67926 21.61792,35.71526 44.27767,34.7747c9.76522,-5.47863 12.27825,-33.14637 15.402,-29.72021c5.66713,6.21579 -1.21201,22.54675 -2.2589,41.12432c-0.94795,16.82193 8.17579,35.87802 8.05781,37.95394c-0.06743,1.18638 -14.16085,7.24728 -20.76534,3.75904c-6.7596,-3.57017 -6.07041,-16.74725 -9.40112,-20.45979c-1.22997,-1.37097 -1.47933,-3.79159 -2.03292,-7.71431c-0.62602,-4.43607 -1.4894,-10.33802 -1.78681,-10.37595c-7.94596,-1.01347 -18.80484,-6.04963 -18.75137,-4.89371c-4.27751,-10.04996 -23.576,-8.25338 -23.64415,-23.88663c-0.05987,-13.73235 3.28735,-11.95038 3.28735,-20.28942c0,-19.82865 2.24884,-37.8069 4.35188,-37.8069c2.10304,0 3.2639,17.70625 3.2639,37.53491z" data-paper-data="{&quot;index&quot;:null}" fill="#9d0000" stroke="none" stroke-width="0" stroke-linecap="butt"/><path d="M277.91359,145.04372c0,8.49339 0.55871,28.50684 -0.33032,40.19007c-0.281,3.69289 -6.06398,11.11986 -4.54564,15.63955c4.65213,13.84811 12.57706,28.02785 10.26512,35.34208c-3.18158,2.93288 -18.51482,5.61143 -22.92988,2.93179c-6.143,-3.7284 -11.39407,-27.79669 -13.32644,-33.37632c-2.73407,-7.89442 -14.92129,-6.17902 -20.85948,-10.3726c-10.50697,-7.42007 -18.65482,-19.46807 -18.65482,-34.25033c0,-25.85884 2.03154,-67.64994 35.48897,-60.54c30.13513,6.40393 34.89251,18.57692 34.89251,44.43576z" data-paper-data="{&quot;index&quot;:null}" fill="none" stroke="#000000" stroke-width="10" stroke-linecap="butt"/><path d="M221.09252,191.79149l-26.9144,1.12269l-4.07989,-3.5359l-2.71992,-11.42367v-23.11933l1.63196,-18.49546l2.71992,-3.80788l14.68757,-2.44793" data-paper-data="{&quot;index&quot;:null}" fill="none" stroke="#000000" stroke-width="10" stroke-linecap="round"/><path d="M235.11333,199.10813c-1.43765,7.35143 -5.36625,21.89057 -14.32581,20.13843c-8.95956,-1.75213 -27.21575,-6.86536 -25.77811,-14.21679c1.43765,-7.35143 7.49762,-19.69268 16.45718,-17.94055c0,0 19.54728,10.58213 23.64674,12.01891z" fill="#9d0000" stroke="#000000" stroke-width="10" stroke-linecap="butt"/><path d="M294.09098,139.48662c0,10.5152 -13.50877,19.03945 -30.17268,19.03945c-16.66391,0 -30.17268,-8.52425 -30.17268,-19.03944c0,-10.5152 13.50878,-19.03944 30.17269,-19.03944c16.66391,0 30.17268,8.52425 30.17268,19.03945z" data-paper-data="{&quot;index&quot;:null}" fill="#49646d" stroke="none" stroke-width="0" stroke-linecap="butt"/><path d="M283.02301,142.17791c-2.30604,2.57671 -17.08641,1.65716 -25.9932,1.65716c-8.90678,0 -13.38335,-13.46132 -13.38335,-16.91924c0,-3.45792 19.30259,-3.60518 28.09482,-2.18126c16.79456,2.71992 21.64795,16.61113 11.28172,17.44334z" data-paper-data="{&quot;index&quot;:null}" fill="#95cadc" stroke="none" stroke-width="0" stroke-linecap="butt"/><path d="M280.68455,135.10212c-1.65293,1.84694 -12.24723,0.40798 -18.63146,0.40798c-6.38422,0 -5.30385,-2.82527 -5.30385,-5.30384c0,-2.47858 5.17544,-4.48787 11.55967,-4.48787c6.38422,0 17.2715,3.91323 12.37564,9.38373z" data-paper-data="{&quot;index&quot;:null}" fill="#fefefe" stroke="none" stroke-width="0" stroke-linecap="butt"/><path d="M289.31959,137.04172c1.24478,8.62321 -4.14316,15.02281 -25.15927,18.76746c0,0 -15.9326,1.17124 -21.48228,-3.93769c-9.13242,-8.40712 -8.6509,-26.62609 -4.06819,-28.20463c33.30183,-11.47099 48.93089,1.05179 50.70975,13.37487z" data-paper-data="{&quot;index&quot;:null}" fill="none" stroke="#000000" stroke-width="10" stroke-linecap="butt"/></g></g></g></svg>