<svg version="1.1" xmlns="http://www.w3.org/2000/svg" xmlns:xlink="http://www.w3.org/1999/xlink" width="582.5" height="387" viewBox="0,0,582.5,387"><g transform="translate(35.75,16.9375)"><g data-paper-data="{&quot;isPaintingLayer&quot;:true}" fill-rule="nonzero" stroke-linecap="butt" stroke-linejoin="miter" stroke-miterlimit="10" stroke-dasharray="" stroke-dashoffset="0" style="mix-blend-mode: normal"><path d="M-35.75,370.0625v-387h521v387z" fill="#ffffff" stroke="none" stroke-width="NaN"/><path d="" fill="#000000" stroke="none" stroke-width="1"/><path d="" fill="#000000" stroke="none" stroke-width="1"/><path d="" fill="#000000" stroke="none" stroke-width="1"/><path d="" fill="#000000" stroke="none" stroke-width="0.5"/><path d="" fill="#000000" stroke="none" stroke-width="0.5"/><path d="" fill="#000000" stroke="none" stroke-width="0.5"/><path d="" fill="#000000" stroke="none" stroke-width="0.5"/><path d="" fill="#000000" stroke="none" stroke-width="0.5"/><path d="" fill="#000000" stroke="none" stroke-width="0.5"/><path d="" fill="#000000" stroke="none" stroke-width="0.5"/><path d="" fill="#000000" stroke="none" stroke-width="0.5"/><path d="" data-paper-data="{&quot;index&quot;:null}" fill="#000000" stroke="none" stroke-width="1"/><path d="" data-paper-data="{&quot;index&quot;:null}" fill="#000000" stroke="none" stroke-width="1"/><path d="" data-paper-data="{&quot;index&quot;:null}" fill="#000000" stroke="none" stroke-width="1"/><path d="" data-paper-data="{&quot;index&quot;:null}" fill="#000000" stroke="none" stroke-width="0.5"/><path d="" data-paper-data="{&quot;index&quot;:null}" fill="#000000" stroke="none" stroke-width="0.5"/><path d="" data-paper-data="{&quot;index&quot;:null}" fill="#000000" stroke="none" stroke-width="0.5"/><path d="" data-paper-data="{&quot;index&quot;:null}" fill="#000000" stroke="none" stroke-width="0.5"/><path d="" data-paper-data="{&quot;index&quot;:null}" fill="#000000" stroke="none" stroke-width="0.5"/><path d="" data-paper-data="{&quot;index&quot;:null}" fill="#000000" stroke="none" stroke-width="0.5"/><path d="" data-paper-data="{&quot;index&quot;:null}" fill="#000000" stroke="none" stroke-width="0.5"/><path d="" data-paper-data="{&quot;index&quot;:null}" fill="#000000" stroke="none" stroke-width="0.5"/><path d="" data-paper-data="{&quot;index&quot;:null}" fill="#66fffc" stroke="none" stroke-width="5"/><path d="" data-paper-data="{&quot;index&quot;:null}" fill="#4fc4c2" stroke="none" stroke-width="5"/><path d="" data-paper-data="{&quot;index&quot;:null}" fill="none" stroke="#000000" stroke-width="5"/><path d="M141.89585,85.4375c0,1.05608 -0.44612,1.66603 -0.96145,2.01833c-0.09703,1.6151 -0.17314,3.22151 0.63694,4.74993c0.42702,0.80569 1.55746,1.09492 1.95113,1.91742c1.55582,3.25056 2.71481,7.26352 -2.45929,8.72361c-4.88745,1.3792 -6.30472,-2.42171 -9.74176,-4.15194c-1.13977,-0.57377 -2.51717,-0.4727 -3.72369,-0.88817c-2.09684,-0.72205 -5.0912,-1.84525 -7.69783,-3.30727c0.02374,0.18603 -0.00022,0.37674 -0.08632,0.57417c-0.76944,1.7643 -3.5548,1.51763 -5.18598,2.53942c-0.88119,0.55198 -1.27663,1.84376 -2.27504,2.1342c-1.80961,0.52642 -3.78023,-0.05441 -5.65125,0.17157c-1.42243,0.1718 -2.74452,0.97271 -4.17666,1.01541c-1.82612,0.05445 -3.6214,-0.48595 -5.4321,-0.72892l-0.28185,-0.04026c-0.16156,0.67007 -0.62265,1.40139 -1.80851,1.69785c-2.42535,0.60634 -3.03169,-1.81901 -3.03169,-1.81901c-1.22189,-4.97691 -1.07464,-9.50566 -1.07464,-14.60634c0,-5.24836 -0.60704,-11.19777 0.03228,-16.40045c0.12856,-1.04623 0.82049,-1.9613 1,-3c0.39736,-2.29925 -0.32236,-4.68904 0,-7c0.14562,-1.04398 0.84707,-1.95706 1,-3c1.00181,-6.83199 -1.20784,-14.18919 0,-21c0.27278,-1.53816 1.1333,-2.91154 1.69995,-4.36731c0.91322,-0.23134 2.25497,0.11381 2.73966,-0.69401c0.73982,-1.23304 -0.75543,-3.28819 0.26034,-4.30599c0.93276,-0.93464 7.43289,-0.73223 8.76777,-0.73223c0.58559,0 10.16225,-0.01374 10.47277,0.04511c3.20583,0.60752 6.12402,2.43634 9.35756,2.87293c3.78355,0.51086 7.83389,-0.5873 11.57013,0.11424c2.73803,0.51411 5.65593,1.70723 6.90924,4.51101c1.99285,4.45819 -1.18471,9.97836 -1.82843,14.26217c-0.18105,1.2049 0.26547,2.51391 -0.17157,3.65125c-0.07434,0.19348 -0.20005,0.35476 -0.35372,0.49828c1.52006,-0.09309 2.28009,1.42697 2.28009,1.42697c1.28752,2.59893 1.9386,5.47075 3.06598,8.14305c0.50075,1.18697 1.78425,1.99923 2.09069,3.25053c0.45397,1.85371 0.08622,3.81609 0.10727,5.72446c0.0055,0.49874 0.0586,7.44322 -0.1903,7.95671c-1.98072,4.08616 -3.70057,3.44456 -7.3097,3.54329c-0.99963,0.02734 -2.01464,0.17048 -3,0c-0.0476,-0.00823 -0.09618,-0.02675 -0.14525,-0.05293c0.43443,0.79619 1.03488,1.53073 1.37898,2.35737c0.63037,0.30976 1.26627,0.93472 1.26627,2.19556zM142.39585,75.9375c0.27693,0.01045 2.48259,0.7668 2.6903,-0.45671c0.33731,-1.987 -0.21642,-4.02803 -0.1903,-6.04329c0.01848,-1.42551 0.46149,-2.89462 0.10726,-4.27554c-0.27724,-1.0808 -1.47288,-1.72256 -1.90931,-2.74947c-0.85681,-2.01608 -1.39829,-4.16468 -2.19905,-6.20076c0.00453,0.17786 -0.00016,0.35504 -0.01764,0.53123c-0.13571,1.36765 -0.66666,2.66667 -1,4c0.01791,5.08505 -0.87641,10.08698 -0.97442,15.20988c1.48179,-0.05329 2.9142,-0.03718 3.49316,-0.01534zM115.01249,83.28412c0.08137,-0.40846 0.15188,-0.81852 -0.15487,-0.81852c0.01138,0.28314 0.06767,0.5547 0.15487,0.81852zM96.13284,95.01741l1.66681,0.23812c1.48914,0.22844 2.96183,0.73965 4.4674,0.6853c1.31517,-0.04748 2.51377,-0.8543 3.82334,-0.98459c1.44358,-0.14362 2.95139,0.56136 4.34875,0.17157c0.81585,-0.22758 0.91196,-1.62822 1.72496,-1.8658c0.22346,-0.0653 0.4513,-0.08455 0.68125,-0.07198c-0.62914,-1.534 -0.3259,-3.37883 -0.82696,-4.9794c-0.50387,-1.60954 -2.10174,-2.90937 -2.11625,-4.59588c-0.01602,-1.86255 1.35462,-3.47022 2.03194,-5.20533c1.97451,0 4.2182,-0.99524 5.92355,0c2.24577,1.31063 2.13224,5.88414 2.03822,8.0281c-0.02775,0.63286 -0.63315,1.36723 -0.26393,1.88196c2.73046,3.80665 10.1429,4.02472 13.83836,5.86069c2.19313,1.08959 3.89642,3.2009 6.25824,3.84806c0.43609,0.1195 -0.16473,-0.93333 -0.45929,-1.27639c-0.6344,-0.73883 -1.62844,-1.20419 -2.04887,-2.08258c-1.14882,-2.40024 -0.7834,-5.22573 -1.00436,-7.91146c-2.31418,-2.47424 -4.37636,-4.15673 -2.65482,-8.1072c-0.63844,-6.03127 1.33411,-12.65999 1.35341,-18.51855c0.78599,-3.14394 0.28674,-6.53369 1.17157,-9.65125c0.25742,-0.90698 1.63458,-1.13088 2,-2c0.30426,-0.72364 -0.2765,-1.57079 -0.17157,-2.34875c0.47042,-3.48765 3.2094,-8.07582 2.17157,-11.73783c-0.7378,-2.60332 -9.70808,-1.44331 -10.72626,-1.45697c-3.81813,-0.05123 -5.02565,-0.03756 -9.04935,-1.25104c-1.5127,-0.45621 -2.83701,-1.48968 -4.38746,-1.79381c-3.11639,-0.61131 -6.35145,0.04511 -9.52723,0.04511c-1.33334,0 -2.67954,0.1848 -4,0c-0.47318,-0.06622 -1.08326,-1.18621 -1.23223,-0.73223c-0.38487,1.17286 0.89543,2.63553 0.26034,3.69401c-0.60233,1.00389 -2.17356,0.87066 -3.26034,1.30599c-1.35849,7.39211 0.73583,15.20649 -0.30005,22.63269c-0.14562,1.04398 -0.84707,1.95706 -1,3c-0.33853,2.30864 0.37153,4.69643 0,7c-0.16784,1.04064 -0.86685,1.95435 -1,3c-0.62514,4.90923 0.03228,10.65026 0.03228,15.59955c0,3.33595 -0.11791,6.43132 0.23699,9.5799z" fill="#9966ff" stroke="none" stroke-width="0.5"/><path d="M103.62808,58.66974c0.37668,-0.37667 0.75335,-0.59283 1.11292,-0.69976c-0.61762,-4.9228 -2.57728,-9.02643 3.4231,-12.70797c2.42056,-1.48514 9.83849,-2.11209 12.63221,-1.29222c1.81691,0.53321 4.59623,0.86927 4.98582,2.7223c0.45974,2.18671 -2.22107,3.88353 -3.17183,5.90569c-0.4732,1.00644 -0.47248,2.22768 -1.08782,3.15406c-0.78249,1.17801 -2.20844,1.82807 -3,3c-0.6924,1.02513 -0.43935,2.6259 -1.35886,3.45343c-2.79635,2.51663 -7.4061,1.73224 -10.76777,1.73224l-2.76777,-1.73224c0,0 -1.76776,-1.76776 0,-3.53553zM109.9279,59.1735c1.63618,0.06855 3.28643,0.01421 3.70018,-0.50376c0.54632,-0.68393 0.16077,-1.81481 0.64114,-2.54657c0.7761,-1.18223 2.21346,-1.82469 3,-3c0.55404,-0.8279 0.31086,-2.05171 0.91218,-2.84594c0.43681,-0.57693 1.0549,-0.96975 1.68402,-1.35218c-1.14302,0.16208 -2.31353,0.00996 -3.46957,0.01245c-1.96795,0.00424 -3.89641,-0.25202 -5.76825,0.6755c-3.69607,1.83143 -1.21423,4.63267 -0.76403,7.42405c0.1136,0.70433 0.09273,1.42007 0.06433,2.13645z" fill="#9966ff" stroke="none" stroke-width="0.5"/><path d="M210.62808,96.20527c-1.76776,-1.76776 0,-3.53553 0,-3.53553l0.26777,0.76776c0.07944,-4.45915 1.69704,-6.52317 3.12126,-10.76918c0.70954,-2.11536 0.52397,-4.43392 0.91101,-6.63128c0.45041,-2.55709 2.28975,-4.68661 3.03459,-7.17393c0.61447,-2.05196 -0.06687,-4.28363 -0.06687,-6.42562c0,-4 0,-8 0,-12c0,-2.79499 0.77151,-6.58608 0.11427,-9.25279c-0.62822,-2.54901 -2.62013,-1.95344 -4.86062,-2.25938c-0.59638,-0.08143 -1.25356,-0.43705 -1.79695,-0.17813c-0.73702,0.35117 -1.09492,1.21128 -1.64238,1.81692c-0.84885,0.21372 -1.9276,0.02218 -2.54656,0.64114c-0.61896,0.61896 -0.16027,1.81513 -0.64114,2.54657c-0.7599,1.15583 -2.23211,1.73572 -2.95113,2.91741c-1.42194,2.33696 -0.67549,7.28686 -0.67549,9.76826c0,2.98991 -0.83374,8.4333 -0.10727,11.27554c0.2731,1.06849 1.46944,1.69504 1.89355,2.71307c0.6214,1.49157 0.94597,3.10147 1.19401,4.69815c0.41599,2.67773 0.67855,5.37708 1.00754,8.06689c0.10843,0.88653 -0.30212,1.82118 -0.05308,2.67891c0.40202,1.38458 1.50288,2.48981 1.95166,3.85995c0.57805,1.76478 0.88177,3.61715 1.10143,5.46115c0.09055,0.76014 -0.52543,1.60743 -0.17813,2.28964c0.49775,0.97774 1.63871,1.4593 2.45807,2.18895c0,0 1.76776,1.76776 0,3.53553c-1.76776,1.76776 -3.53554,0 -3.53554,0c-0.83569,-0.89919 -1.87769,-1.656 -2.68791,-2.57277c-0.03984,0.36375 -0.17838,0.76302 -0.4642,1.19175c-1.38675,2.08012 -3.46688,0.69337 -3.46688,0.69337l-3.81743,-2.90048c-0.33858,-4.74759 -1.69137,-7.92119 -3.17454,-12.41047c-0.80089,-2.42416 -1.721,-4.84235 -2.08899,-7.36872c-0.18692,-1.28329 0.26246,-2.61643 0.02029,-3.89045c-0.19633,-1.03285 -0.9338,-1.88771 -1.30557,-2.87113c-1.59519,-4.21967 -1.69243,-5.12332 -2.72827,-9.33342c-0.01235,-2.8385 1.0468,-5.83555 0.10956,-8.51489c-0.55031,-1.57319 -2.44121,-2.4298 -3,-4c-0.37974,-1.06706 -0.48377,-2.92499 -0.16374,-4.6127c-1.75292,1.58989 -4.13146,2.67321 -5.15485,4.77884c-0.44431,0.91416 0.16626,2.02716 0.1903,3.04329c0.07096,2.99916 0,6 0,9c0,6.66666 0,13.33334 0,20c0,4.69873 0.15343,8.77423 -0.47088,13h0.47088v3c0,1.38071 -1.11929,2.5 -2.5,2.5c-0.82832,0 -1.56254,-0.40283 -2.01746,-1.02327l-2.98254,-3.97673l0.22514,-0.16886l-0.59686,-0.54057c-0.007,-1.02204 0.2986,-2.09531 -0.02103,-3.06611c-0.73302,-2.22643 -2.65421,-4.01809 -3.07498,-6.324c-0.62437,-3.42171 -0.73304,-6.92013 -1.57691,-10.4009c-0.79722,-3.28834 -2.77575,-6.23624 -3.41619,-9.55867c-0.27051,-1.40332 0.17937,-2.89004 -0.12903,-4.28552c-0.3397,-1.5371 -1.28392,-2.87996 -1.7844,-4.37247c-0.47743,-1.42377 -0.6713,-2.93195 -1.14305,-4.35761c-0.24206,-0.73154 -0.59274,-1.52466 -0.9492,-2.35555c-2.4589,5.18285 -3.87357,10.3758 -5.06452,16.32284c-0.51361,2.56472 0.23279,5.28199 -0.30936,7.84084c-0.68776,3.24608 -3.07724,5.98109 -3.70473,9.23936c-0.73834,3.83388 0.04511,8.591 0.04511,12.52723c0,0 0,2.5 -2.5,2.5c-2.5,0 -2.5,-2.5 -2.5,-2.5c0,-4.24331 -0.75098,-9.33906 0.0451,-13.47277c0.63323,-3.28811 3.02904,-6.05437 3.72309,-9.33017c0.52469,-2.47642 -0.21445,-5.10364 0.26282,-7.58963c1.51689,-7.90103 3.50843,-14.85319 7.68385,-21.77233l1.1317,-4.52877c0.25256,-1.11342 1.24826,-1.94463 2.4381,-1.94463c1.32992,0 2.4173,1.03846 2.4955,2.34873l0.21397,3.11843l-0.01856,0.00127c0.00778,0.02804 0.01543,0.05612 0.02295,0.08425c0.31133,1.16343 -0.30026,2.43613 -0.04364,3.61285c0.99632,4.56856 3.82764,9.02992 4.84887,13.60217c0.32207,1.44197 -0.11296,2.9771 0.15706,4.42971c0.59528,3.20245 2.58403,6.12583 3.35208,9.25538c0.39548,1.61144 0.19631,3.3253 0.54184,4.94818c0.206,0.96752 0.91335,1.78507 1.09863,2.75677c0.33966,1.78131 -0.03828,3.77023 0.79241,5.38219c0.07749,0.15037 0.16304,0.29658 0.25422,0.43982c0,-1.78048 0,-3.56096 0,-5.34144c0,-8 0,-16 0,-24c0,-0.53704 -0.06394,-9.40249 0.1903,-9.95671c0.82832,-1.80566 2.69546,-2.91951 4.07747,-4.34659c1.14577,-1.18313 6.82567,-7.70169 9.41187,-5.90089c5.35531,3.72897 -0.267,6.75063 1.19207,10.41362c0.61675,1.54836 2.49273,2.4124 3,4c0.18819,0.58895 0.11727,7.96331 0.10956,9.48511c1.00316,3.93665 3.1869,7.90453 3.96616,11.79545c0.26901,1.34319 -0.16951,2.7529 0.02029,4.10955c0.31873,2.27819 1.1886,4.44727 1.91101,6.63128c1.32046,3.99205 3.38206,7.26221 2.82546,11.58953l2.09511,1.05546c-0.55195,-2.21516 0.09863,-4.77859 -0.64687,-6.97413c-0.51557,-1.51839 -1.65542,-2.78993 -2.08718,-4.33425c-0.29811,-1.06628 0.08502,-2.22257 -0.05308,-3.32109c-0.3324,-2.64417 -0.65117,-5.29007 -0.99246,-7.93311c-0.30751,-2.38148 -2.33958,-4.25686 -2.91244,-6.58878c-0.126,-0.51293 -0.10726,-7.07056 -0.10726,-8.72446c0,-4.8985 -1.12529,-11.72619 1.3245,-16.23174c0.69036,-1.26967 2.24083,-1.88437 3.04887,-3.08259c0.69166,-1.02563 0.48413,-2.5787 1.35886,-3.45343c0.87473,-0.87473 2.30229,-0.9059 3.45344,-1.35886c0.78588,-0.72769 1.34986,-1.82038 2.35762,-2.18308c5.04387,-1.81531 11.34791,0.54824 13.34243,5.56249c0.46187,1.16116 0.09585,2.4977 0.11428,3.74721c0.09338,6.33015 0,12.66931 0,19c0,0.074 0.02494,7.24083 -0.06688,7.57438c-0.63719,2.31473 -2.58293,4.35662 -2.96541,6.82607c-0.38003,2.45366 -0.31844,5.0084 -1.08899,7.36872c-1.20846,3.70176 -2.97472,5.53686 -2.87873,9.23082l-1.73224,2.76776c0,0 -1.76777,1.76776 -3.53554,0z" fill="#9966ff" stroke="none" stroke-width="0.5"/><path d="M247.63191,24.31947c1.11803,2.23607 -1.11803,3.35411 -1.11803,3.35411l-0.61803,-1.23607c0,6.5072 -0.64514,13.3654 0.00666,19.84486c0.14261,1.4177 0.28717,2.87025 0.80304,4.19843c0.46407,1.19481 1.77856,1.98716 2.08303,3.23225c0.65913,2.69536 -0.3424,5.5808 0.07498,8.32401c0.32016,2.10423 2.41315,3.61002 2.92502,5.676c0.97491,3.93488 0.61498,8.47732 -0.25925,12.72446h0.36652v4c0,1.38071 -1.11929,2.5 -2.5,2.5c-1.1246,0 -2.07576,-0.74256 -2.38994,-1.76412l-0.77828,-2.33482c-0.96685,-0.59837 -2.12191,-0.99361 -2.81856,-1.88358c-0.76113,-0.97234 -0.7537,-2.35977 -1.2852,-3.47434c-0.61372,-1.28699 -1.77849,-2.325 -2.13825,-3.7047c-0.43681,-1.67523 0.13889,-3.48917 -0.18118,-5.19057c-0.25147,-1.33672 -0.80998,-2.62435 -1.50859,-3.7914c-0.53658,-0.89638 -1.72386,-1.33422 -2.13465,-2.29478c-1.45374,-3.39936 -2.26455,-8.73978 -2.19849,-12.48732c-0.32812,-0.65624 -0.7409,-1.28263 -1.11334,-1.92325c-0.13378,2.13244 0.32998,5.24529 -0.15231,7.2314c-0.38917,1.60264 -1.44214,2.99132 -1.84633,4.59024c-0.48024,1.89973 0.27109,3.93608 0.01274,5.87847c-0.25156,1.89128 -0.50023,3.81448 -1.15793,5.60547c-0.38687,1.05347 -1.63769,1.68079 -1.91697,2.76775c-0.76947,2.99478 0.10727,6.18349 0.10727,9.27554c0,6 0,12 0,18c0,0 0,2.5 -2.5,2.5c-2.5,0 -2.5,-2.5 -2.5,-2.5c0,-6 0,-12 0,-18c0,-0.94872 -0.03123,-10.15811 0.10726,-10.72446c0.30447,-1.24509 1.61904,-2.03741 2.08303,-3.23225c1.42427,-3.66773 0.01105,-6.91661 0.8548,-10.51606c0.38436,-1.63968 1.44691,-3.06379 1.86758,-4.69454c1.05087,-4.07377 -0.32087,-8.04651 1.1285,-12.28271c0.70999,-2.07516 0.70285,-5.28539 2.79014,-5.9589c6.64871,-2.14536 4.75823,7.31649 5.1018,8.83454c0.32906,1.45394 1.33334,2.66667 2,4c0.04941,3.35424 0.43643,8.23228 1.76268,11.31848c0.35396,0.82368 1.46861,1.11583 1.90419,1.89942c0.95869,1.72462 1.77687,3.56728 2.20532,5.49337c0.3479,1.56399 -0.30506,3.25204 0.08572,4.80587c0.28885,1.14852 1.37845,1.9417 1.88094,3.0141c0.1532,0.32694 0.20715,0.69898 0.25668,1.07073c0.13492,-2.44985 0.6759,-4.94188 0.07861,-7.30313c-0.57482,-2.27241 -2.66715,-4.01577 -3.07498,-6.324c-0.44521,-2.51975 0.71176,-5.1977 0.07498,-7.67599c-0.27928,-1.08696 -1.53016,-1.71426 -1.91697,-2.76775c-0.65783,-1.79163 -0.93144,-3.71231 -1.15812,-5.60737c-0.78857,-6.59237 -0.03217,-13.71886 -0.03217,-20.34934l3.38196,-3.23607c0,0 2.23607,-1.11803 3.3541,1.11804z" fill="#9966ff" stroke="none" stroke-width="0.5"/><path d="M297.63191,68.31946c1.11804,2.23607 -1.11804,3.35411 -1.11804,3.35411l-2.32746,1.13564c-1.45499,0.3538 -2.88883,1.31286 -4.36495,1.06141c-1.1458,-0.19518 -1.61578,-1.74184 -2.65737,-2.25762c-1.06128,-0.52554 -2.32519,-0.46172 -3.46722,-0.7752c-1.0165,-0.27902 -2.02301,-0.60429 -3,-1c-0.77952,-0.31573 -1.50132,-1.49943 -2.25639,-1.12902c-0.79816,0.39156 -0.48026,1.71232 -0.69248,2.57565c-0.31268,1.27204 -0.73087,2.52829 -0.88194,3.82944c-0.54368,4.68256 -0.0678,14.92385 -8.42693,11.63332c-1.78884,-0.70417 -2.77715,-2.65907 -4.16572,-3.9886c-1.06288,-2.96706 -2.60721,-5.78123 -3.33247,-8.84833c-1.28427,-5.43119 0.93513,-11.58716 -0.01282,-17.07231c-0.62322,-3.60614 -1.88941,-7.14163 -0.96541,-10.97483c0.34933,-1.4492 1.58483,-2.56827 2,-4c0.74152,-2.55717 -0.01966,-5.60675 1.38959,-7.86574c0.65855,-1.05564 2.26934,-1.16445 3.08049,-2.10791c0.88118,-1.02492 0.54095,-3.23689 1.83893,-3.61397c2.35794,-0.68503 5.0101,0.08132 7.30376,0.95782c1.24899,0.4773 1.61095,2.2403 2.77706,2.89448c0.59658,0.33468 1.3622,-0.12687 2.0433,-0.1903c0,0 2.5,0 2.5,2.5c0,2.5 -2.5,2.5 -2.5,2.5c-1.3189,-0.06343 -2.75668,0.36057 -3.95671,-0.1903c-1.35586,-0.62241 -2.0109,-2.23563 -3.22294,-3.10551c-0.73001,-0.52394 -1.68892,-1.38576 -2.50205,-1.00333c-0.71607,0.33678 0.12849,1.72096 -0.35526,2.34718c-0.70894,0.91774 -2.23462,0.95627 -2.91951,1.89209c-1.09793,1.50019 -0.18314,4.61785 -0.61042,6.13426c-0.40429,1.43484 -1.62444,2.55737 -2,4c-0.80406,3.08859 0.5685,6.13522 1.0346,9.02517c0.87159,5.40411 -1.33452,11.66548 -0.01283,16.92769c0.6198,2.46767 1.89851,4.72635 2.66753,7.15167c0.61143,0.67047 1.16287,1.40102 1.83428,2.0114c0.16895,0.15359 0.53773,0.4428 0.64172,0.23953c2.02504,-3.95858 0.24588,-8.59185 2.04941,-12.77676c0.83814,-1.94482 1.41569,-4.47262 3.30752,-5.42435c1.64409,-0.82709 6.70543,1.26901 8.74361,1.87098c1.50101,0.44333 3.13572,0.51926 4.53278,1.2248c0.65449,0.33053 0.63475,1.55129 1.34264,1.74238c0.60672,0.16378 1.09004,-0.62573 1.63505,-0.93859l1.67253,-0.86436c0,0 2.23606,-1.11804 3.3541,1.11803z" fill="#9966ff" stroke="none" stroke-width="0.5"/><path d="M359.39585,78.9375c2.5,0 2.5,2.5 2.5,2.5l-0.16374,0.11012c0.65172,1.91766 2.22564,3.49544 3.85845,4.69382c0.38916,0.28562 0.78132,0.9387 1.23091,0.76293c0.76917,-0.3007 0.85258,-1.56566 1.61768,-1.87658c0.92642,-0.37649 2.05557,0.32873 3,0c1.2994,-0.45229 2.09407,-1.84217 2.83008,-3.00463c1.13556,-1.79349 0.63279,-5.04608 0.62663,-6.68567c-0.00813,-2.16583 0.45002,-4.36855 0.05106,-6.49734c-0.44315,-2.36455 -1.94114,-4.4026 -2.88786,-6.61421c-0.16623,-0.73038 0.04967,-1.68084 -0.4987,-2.19111c-0.78458,-0.73007 -2.15199,-0.46708 -3.0254,-1.08816c-2.10067,-1.49379 -3.22457,-4.18779 -5.45343,-5.48255c-0.91147,-0.52947 -2.09612,-0.45768 -3,-1c-0.80845,-0.48507 -1.19164,-1.51478 -2,-2c-0.87212,-0.52349 -2.01174,-0.45112 -2.90229,-0.94262c-0.8671,-0.47856 -1.73717,-1.00051 -2.57106,-1.5764c-0.67557,2.24965 -1.40708,4.50227 -1.73649,6.73916c-0.27256,1.85084 0.34603,3.81063 -0.16614,5.60995c-0.25811,0.90679 -1.73908,1.09401 -2,2c-0.40148,1.39405 0.36356,2.9108 0.17157,4.34875c-0.23521,1.76175 -0.49898,3.62541 -1.43773,5.13466c-0.63477,1.02054 -2.32966,1.00245 -3,2c-0.69131,1.02876 -0.21748,2.53303 -0.7862,3.63431c-1.23742,2.39617 -4.7362,6.94072 -7.92551,7.40345c-1.59618,0.23158 -3.09744,-0.90084 -4.64616,-1.35125c-0.54746,-0.60564 -0.88639,-1.50872 -1.64238,-1.81692c-1.08538,-0.44249 -2.55968,0.41129 -3.50507,-0.2816c-0.92082,-0.67488 -0.34871,-2.47647 -1.23684,-3.1938c-0.93198,-0.75275 -2.46386,-0.11854 -3.53313,-0.65881c-2.40189,-1.21359 -6.05296,-5.82681 -7.05454,-8.16411c-1.66838,-3.89338 -1.21371,-7.92587 -1.21371,-12.01139c0,-5.65966 -0.56468,-11.62708 0.01172,-17.24182c0.46614,-4.54078 2.01252,-8.09002 1.98828,-12.75818c0,0 0,-2.5 2.5,-2.5c2.5,0 2.5,2.5 2.5,2.5c-0.00806,1.78225 0.22095,3.58142 -0.02416,5.34676c-0.37322,2.68802 -1.71929,5.19456 -1.98756,7.89506c-0.54186,5.45454 0.01173,11.25949 0.01173,16.75818c0,3.28827 -0.5532,6.86373 0.78628,9.98861c0.65193,1.52088 3.37923,5.06122 4.94546,5.83589c1.39349,0.68923 3.24876,0.37524 4.46688,1.34119c0.75954,0.60232 -0.0031,2.21245 0.76315,2.8062c0.66156,0.51262 1.71569,-0.58694 2.49493,-0.2816c0.99721,0.39076 1.57175,1.45539 2.35762,2.18308c4.48122,2.14736 5.2011,-6.13655 6.64213,-8.31349c0.66339,-1.00217 2.29,-1.03029 3,-2c1.68329,-2.29903 -0.04414,-5.77548 0.73384,-8.51659c0.25742,-0.90698 1.73993,-1.09377 2,-2c0.40395,-1.40758 -0.35805,-2.93828 -0.16614,-4.39005c0.4371,-3.30665 1.81203,-6.66238 2.60204,-9.97461c-0.13695,-0.20155 -0.2672,-0.40758 -0.39017,-0.61825c-0.68345,-1.17087 -0.20683,-2.70495 -0.23602,-4.06039c-0.03478,-1.61477 -0.17207,-3.24276 -0.02864,-4.84922l-0.55149,-0.76403c0,0 -1.38675,-2.08012 0.69338,-3.46687c0.4856,-0.32373 0.93341,-0.45853 1.33462,-0.47496c0.65104,-1.58902 1.17102,-3.34452 2.48782,-4.39502c4.784,-3.81652 9.67424,-0.4933 13.76734,1.75859c2.31192,1.27194 4.68033,2.57664 6.56475,4.42375c0,0 1.76776,1.76777 0,3.53553c-1.76776,1.76776 -3.53553,0 -3.53553,0c-1.51302,-1.5538 -3.53781,-2.52592 -5.43526,-3.57625c-2.01023,-1.11276 -3.34934,-2.78797 -5.68619,-2.69397c-2.88049,0.11587 -3.94314,2.27497 -4.342,4.78989l0.62395,0.9881c0.03994,1.38658 0.23204,6.59202 0.08947,8.0031c1.98057,1.68598 4.75486,2.34889 6.83213,3.59474c0.80854,0.48492 1.19155,1.51493 2,2c0.90388,0.54232 2.10249,0.4472 3,1c2.24897,1.38518 3.47147,4.04885 5.61764,5.58852c1.1689,0.83858 2.90906,0.80125 3.90353,1.84077c0.94338,0.98611 1.00087,2.53926 1.5013,3.80889c1.05347,2.45509 2.60609,4.76259 3.11214,7.38579c0.0703,0.36442 0.05128,7.44076 0.05106,7.50266c-0.01279,3.72329 0.52999,6.03879 -1.37338,9.31433c-0.32569,0.5605 -4.75639,4.81448 -5.16992,4.99537c-0.91618,0.40077 -2.06977,-0.36699 -3,0c-0.98955,0.39039 -1.32663,1.99258 -2.38232,2.12342c-5.36435,0.66487 -9.20514,-4.36416 -10.91065,-8.54324l-0.16373,-1.88988c0,0 0,-2.5 2.5,-2.5z" fill="#9966ff" stroke="none" stroke-width="0.5"/><path d="M105.39585,137.9375l-0.38675,0.41987c1.66662,-1.10238 6.23971,-3.94464 7.07706,-5.87658c0.40421,-0.93258 -0.16626,-2.02717 -0.1903,-3.04329c-0.03942,-1.6662 -0.16788,-3.34181 0,-5c0.07888,-0.77911 1.37615,-1.78661 0.73223,-2.23224c-0.82572,-0.57143 -1.95263,0.4698 -2.92677,0.7135c-4.25621,1.06477 -6.47707,1.06653 -9.53769,4.2865c0,0 -0.48868,0.48868 -1.2091,0.69523c0.19047,0.91415 0.42862,1.761 0.73408,2.48916c0.6426,1.53185 2.10905,2.62462 2.74555,4.15902c0.53426,1.28794 0.95258,2.61851 1.28011,3.97673c0.72913,-0.58791 1.6816,-0.58791 1.6816,-0.58791zM100.1641,120.262c1.38711,-0.79161 3.07907,-0.85041 4.62541,-1.24985c2.95906,-0.76436 8.68045,-2.57909 11.37411,-0.34241c1.49102,1.23807 0.60075,3.83421 0.73223,5.76776c0.03404,0.50047 0.03017,9.43876 -0.1903,9.95671c-1.26883,2.98072 -6.28765,6.35451 -8.92294,8.12342l-2.38675,0.41987c0,0 -0.43107,0 -0.93521,-0.179c0.34313,2.85217 0.41577,5.75553 0.43111,8.58293c0.0041,0.06131 0.0041,0.09607 0.0041,0.09607v5v0c0,1.38071 -1.11929,2.5 -2.5,2.5c-1.38071,0 -2.5,-1.11929 -2.5,-2.5v-5c0,0 0,-0.01674 0.00137,-0.04747c-0.0042,-4.97609 -0.1396,-10.34202 -2.07453,-14.90887c-0.65234,-1.53967 -2.13223,-2.63953 -2.75842,-4.19001c-1.53589,-3.80298 -1.64319,-9.49615 -2.14911,-13.54356c0,0 -0.31009,-2.48069 2.17061,-2.79078c2.48069,-0.31009 2.79078,2.17061 2.79078,2.17061c0.13678,1.09419 0.23213,2.41419 0.34353,3.80969c0.58433,-0.64341 1.1971,-1.24883 1.94403,-1.6751z" fill="#9966ff" stroke="none" stroke-width="0.5"/><path d="M143.39585,165.9375c-1.74655,0 -2.27293,-1.22017 -2.43157,-1.95565c-6.24724,0.1217 -12.21536,0.23922 -17.82326,-3.38208c-1.46189,-0.94402 -3.45737,-1.63464 -4.07698,-3.26078c-0.62618,-1.6434 0.66917,-3.45767 0.85053,-5.20695c0.16,-1.5432 -0.34098,-3.18688 0.17157,-4.65125c0.67948,-1.94133 3.28185,-2.81145 3.91697,-4.76775c0.64603,-1.98991 -0.10727,-4.18339 -0.10727,-6.27554c0,-7 0,-14 0,-21c0,0 0,-2.5 2.5,-2.5c2.5,0 2.5,2.5 2.5,2.5c0,7 0,14 0,21c0,0.27497 0.03839,7.29402 -0.10727,7.72446c-0.48906,1.44528 -1.52071,2.65763 -2.45938,3.86051c-0.43588,0.55856 -1.41535,0.69454 -1.62366,1.37174c-0.32863,1.06831 0.34732,2.24494 0.17157,3.34875c-0.1583,0.99426 -1.36484,1.80958 -1.14947,2.79305c0.14691,0.67084 1.29931,0.45183 1.92302,0.73922c1.25322,0.57745 2.43817,1.2985 3.70189,1.85258c3.38286,1.48322 7.74635,1.15214 11.72548,0.92934c0.22165,-1.64618 0.59579,-3.28137 0.83655,-4.9251c0.16463,-1.12396 -0.26576,-2.32631 0.08487,-3.40679c0.40511,-1.24836 1.62859,-2.10539 2.10127,-3.32976c0.51395,-1.33129 0.64527,-2.78652 0.80729,-4.20433c0.45457,-3.97785 -0.61501,-7.0572 1.34244,-10.98467c1.4697,-2.94882 4.74308,-4.7989 6.02992,-7.83198c0.64057,-1.50983 0.24144,-3.31094 0.79065,-4.85635c0.38019,-1.06982 1.53494,-1.74146 1.93209,-2.80511c0.47704,-1.27762 -0.46761,-3.22712 0.62497,-4.04331c1.55263,-1.15985 3.84518,-0.48816 5.76777,-0.73224c0,0 2.5,0 2.5,2.5c0,2.5 -2.5,2.5 -2.5,2.5c-0.74408,-0.24408 -1.60932,-1.20679 -2.23224,-0.73224c-0.54465,0.41492 0.80964,1.29738 0.62497,1.95669c-0.34215,1.22156 -1.64231,1.99984 -2.06791,3.19489c-0.56809,1.59512 -0.16857,3.45897 -0.85334,5.00759c-1.82302,4.1228 -4.14777,4.29378 -6.12944,8.04725c-1.58397,3.00019 -0.44064,6.13395 -0.85421,9.27215c-0.24908,1.89002 -0.49997,3.81078 -1.15387,5.60148c-0.3954,1.0828 -1.56702,1.77287 -1.93757,2.86443c-0.27802,0.81896 0.20377,1.73656 0.08487,2.59321c-0.19967,1.43855 -0.55559,2.86522 -0.77954,4.30101c0.7395,0.19842 1.79828,0.76659 1.79828,2.39353c0,1.82325 -1.3297,2.31681 -2.0496,2.45041c-0.1336,0.7199 -0.62715,2.04959 -2.4504,2.04959z" fill="#9966ff" stroke="none" stroke-width="0.5"/><path d="M180.63191,140.31947c1.11803,2.23607 -1.11803,3.35411 -1.11803,3.35411l-3.11803,1.26393c-0.91626,0 -1.81366,-0.00063 -2.69574,-0.00594c0.03388,0.2748 0.06768,0.5496 0.10122,0.82441c0.27169,2.22531 -0.83501,4.60837 -0.09579,6.72483c0.27929,0.79963 1.49272,0.96455 1.8658,1.72496c0.70347,1.43383 0.83324,3.0836 1.24986,4.62541l0.07465,1.60634c0,0 0,2.5 -2.5,2.5c-2.5,0 -2.5,-2.5 -2.5,-2.5l0.07464,-0.39366c-0.25005,-1.12486 -0.22617,-2.34829 -0.75014,-3.37459c-0.4728,-0.92609 -1.81486,-1.28549 -2.1342,-2.27504c-0.43254,-1.34032 -0.0262,-6.27527 -0.256,-8.10226c-0.06191,-0.49227 -0.12428,-0.98457 -0.18631,-1.47696c-5.10021,-0.24055 -9.88996,-0.95234 -15.17647,-3.0563c0,0 -2.32119,-0.92847 -1.39272,-3.24966c0.92847,-2.32119 3.24967,-1.39272 3.24967,-1.39272c4.45013,1.78983 8.49086,2.44521 12.73024,2.68455c-0.12053,-1.17014 -0.22438,-2.34175 -0.30119,-3.51547c-0.44779,-6.84244 -2.84609,-12.85914 -2.85752,-19.84789c0,0 0,-2.5 2.5,-2.5c2.5,0 2.5,2.5 2.5,2.5c-0.0122,6.86531 2.37399,12.74731 2.84611,19.51028c0.09291,1.33095 0.21921,2.65913 0.36313,3.9857c1.06948,0.00593 2.16365,0.00402 3.29076,0.00402l0.88196,-0.73607c0,0 2.23607,-1.11803 3.3541,1.11804z" fill="#9966ff" stroke="none" stroke-width="0.5"/><path d="M183.89585,156.4375c0.01328,-1.47531 0.3968,-2.98761 0.06687,-4.42562c-0.33336,-1.45296 -1.68544,-2.54286 -2,-4c-0.39212,-1.81642 -0.05512,-3.71615 -0.06687,-5.57438c-0.03795,-5.99946 0,-12.0004 0,-18c0,0 0,-2.5 2.5,-2.5c2.5,0 2.5,2.5 2.5,2.5c0,4.33334 0,8.66666 0,13c0,3.14195 -0.7695,6.36324 -0.06688,9.42562c0.33336,1.45296 1.68544,2.54286 2,4c1.05596,4.89148 0.06688,11.54867 0.06688,16.57438v3c0,1.38071 -1.11929,2.5 -2.5,2.5c-1.38071,0 -2.5,-1.11929 -2.5,-2.5v-3c0,-3.66607 -0.03302,-7.33407 0,-11z" fill="#9966ff" stroke="none" stroke-width="0.5"/><path d="M205.16361,161.20527c-1.76776,1.76776 -3.53554,0 -3.53554,0l-1.73222,-2.7749c0.00506,-1.73872 -0.01201,-7.86647 0.19467,-8.85596c1.12358,-5.37929 4.04071,-7.18263 6.52928,-11.59033c1.31164,-2.32315 0.98734,-5.24742 1.30821,-7.8959c0.33999,-2.8063 1.34432,-5.57585 2.77246,-8.03647c-0.59706,-0.06319 -1.19285,-0.12215 -1.77383,-0.11653c-6.74667,0.06533 -14.08986,0.74678 -20.61612,-1.24897c-1.76608,-0.54007 -3.52831,-1.16664 -5.1395,-2.06929c-1.31982,-0.73941 -2.19343,-2.17101 -3.56575,-2.8077c-0.6692,-0.31048 -1.47295,0.08553 -2.20943,0.12829c0,0 -2.5,0 -2.5,-2.5c0,-2.5 2.5,-2.5 2.5,-2.5c1.26352,0.04277 2.61825,-0.345 3.79056,0.12829c3.04427,1.22906 5.437,3.88675 8.57951,4.83691c6.08841,1.84087 12.88424,0.95616 19.16287,1.03247c0.14225,0.00173 0.28451,0.0052 0.42679,0.00994c0.97576,-1.49768 2.83084,-0.87932 2.83084,-0.87932c0.96223,0.33046 1.99016,0.51492 2.91495,0.9286c0.34751,-0.06718 0.56718,-0.21328 0.4838,-0.52062c-0.27731,-1.02223 -1.93031,-0.87255 -2.89547,-1.30881l-0.96582,-0.86883c0,0 -1.85863,-1.67198 -0.18666,-3.53061c1.67198,-1.85863 3.5306,-0.18666 3.5306,-0.18666l0.96582,0.86883c1.51301,1.79303 4.84778,3.05339 4.53905,5.37909c-0.15659,1.1796 -0.92287,2.11386 -1.9351,2.87991c0.24651,0.17098 0.50409,0.32369 0.77868,0.44855c1.34951,0.61363 2.91518,0.54093 4.37277,0.81139l0.0971,0.01942c0,0 2.45145,0.49029 1.96116,2.94174c-0.49029,2.45145 -2.94174,1.96116 -2.94174,1.96116l-0.09709,-0.01942c-1.81101,-0.38326 -3.73904,-0.40343 -5.43304,-1.14977c-0.63706,-0.28067 -1.23975,-0.63368 -1.82829,-1.01552c-0.04268,0.07729 -0.07116,0.12001 -0.07116,0.12001c-3.62302,5.25919 -1.49248,10.94149 -4.46637,16.55352c-0.40051,0.7558 -0.82979,1.42199 -1.2692,2.03697c0.46835,0.65859 0.91789,1.34106 1.61216,1.71307c0.60294,0.32307 1.35956,-0.16986 2.0433,-0.1903c1.91423,-0.05724 3.84134,-0.21118 5.72662,-0.56022c0.27786,-0.68138 0.89642,-1.43978 2.27338,-1.43978c2.5,0 2.5,2.5 2.5,2.5l-1.89366,3.42535c-2.80768,0.68931 -5.7159,1.13467 -8.60634,1.07465c-1.32014,-0.02741 -2.76654,0.38155 -3.95671,-0.1903c-1.08551,-0.52157 -1.8886,-1.45742 -2.70344,-2.37602c-0.76114,1.15611 -1.39193,2.46208 -1.74844,4.2142c-0.08759,0.4305 -0.08858,6.84777 -0.09142,7.85926l0.26778,-0.7749c0,0 1.76776,1.76776 0,3.53553z" fill="#9966ff" stroke="none" stroke-width="0.5"/><path d="M293.89585,160.4375c0,2.5 -2.5,2.5 -2.5,2.5l-3.86151,-0.15313c-3.51787,-2.83311 -7.49209,-3.77573 -11.87495,-4.94943c-1.73885,-0.46565 -3.63864,-0.38486 -5.28396,-1.11517c-1.56985,-0.69681 -2.65258,-2.20874 -4.13985,-3.06781c-0.0853,-0.04927 -0.17354,-0.09202 -0.26408,-0.12967c-0.0409,0.37554 -0.06691,0.78121 -0.07565,1.22562v4.6896c0,1.38071 -1.11929,2.5 -2.5,2.5c-1.38071,0 -2.5,-1.11929 -2.5,-2.5v-3.9546c-0.92776,1.62067 -2.14231,3.19156 -3.73224,4.72236c-0.91005,0.87621 -1.63961,2.06901 -2.81106,2.54193c-2.97314,1.2003 -8.77674,0.1903 -11.9567,0.1903l-2.76777,-1.73224c0,0 -1.76776,-1.76776 0,-3.53553c1.76776,-1.76776 3.53554,0 3.53554,0l-0.76776,0.26776c2.66666,0 5.33465,-0.08393 8,0c0.68371,0.02153 1.40648,0.44008 2.04329,0.1903c0.58382,-0.22899 0.75803,-1.00244 1.18894,-1.45807c0.88219,-0.93277 1.96719,-1.68035 2.74519,-2.70165c3.50533,-4.60152 2.52258,-11.17486 2.52258,-16.53059c0,-2.68185 0.69428,-5.40923 0.1903,-8.04329c-0.31255,-1.63357 -3.17298,-1.01522 -4.70168,-1.67042c-1.01366,-0.43445 -1.65816,-1.57197 -2.71308,-1.89356c-1.97796,-0.60298 -8.4651,0.31267 -10.22121,0.87408c-2.21546,0.70825 -2.06468,4.01845 -2.4163,5.48882c-1.044,4.36568 -0.86395,6.86615 -1.13803,11.24437c-0.07434,1.18752 -0.938,2.44347 -0.4719,3.53823c0.27179,0.63838 1.43533,-0.06375 2.07027,0.21598c0.98042,0.43194 1.60885,1.51688 2.62608,1.85306c1.02334,0.3382 2.2437,-0.34635 3.23225,0.08303c1.15872,0.5033 1.87404,1.69463 2.81106,2.54193c0,0 1.76776,1.76776 0,3.53553c-1.76776,1.76776 -3.53554,0 -3.53554,0c-0.39631,-0.48603 -0.59657,-1.25221 -1.18894,-1.45807c-0.87185,-0.30299 -1.89283,0.37705 -2.76775,0.08303c-1.26359,-0.42463 -2.20011,-1.51517 -3.37392,-2.14694c-1.26675,-0.68179 -3.25229,-0.51493 -3.92973,-1.78402c-1.01701,-1.90521 -0.37457,-4.3043 -0.47189,-6.46177c-0.20519,-4.54904 0.13796,-8.01687 1.28732,-12.45705c1.05492,-4.07534 0.81816,-6.86606 5.15835,-8.80975c2.51164,-1.1248 10.93248,-1.89985 13.77879,-1.12592c1.25573,0.34144 2.0908,1.59385 3.28692,2.10644c3.29725,1.41303 5.62212,0.13658 7.29832,4.32958c0.20457,0.51173 0.20314,6.2451 0.19477,8.78857c0.00476,-0.04936 0.00995,-0.09869 0.0156,-0.14798c0.1611,-1.40753 0.85876,-2.71356 1.0595,-4.11598c0.53612,-3.74561 -0.30653,-6.99786 1.18437,-10.68594c0.4524,-1.11911 1.64553,-1.76648 2.4683,-2.64973c0,0 1.76777,-1.76776 3.53553,0c1.76776,1.76776 0,3.53553 0,3.53553c-3.06043,2.69792 -1.70802,6.78558 -2.24508,10.55213c-0.19433,1.36289 -0.88167,2.629 -1.04275,3.99622c-0.26072,2.2129 0.31398,4.50098 0.18169,6.71023c2.04859,-0.98091 4.13211,-1.96252 5.79393,-3.63067c2.97717,-2.98851 4.69449,-7.08124 7.77669,-10.16344c1.50923,-1.50923 3.18866,-2.87102 5,-4c0.42744,-0.26641 1.53069,-0.28618 1.31631,-0.74195c-0.26352,-0.56024 -1.24849,-0.11744 -1.82578,-0.34118c-0.93423,-0.36207 -1.79112,-0.90064 -2.66105,-1.39775c-4.03103,-2.30345 -8.02441,-4.43762 -12.17975,-6.5153c0,0 -2.23607,-1.11804 -1.11803,-3.35411c1.11804,-2.23607 3.3541,-1.11803 3.3541,-1.11803c4.98487,2.49244 10.6655,4.7734 15.1592,8.08696c1.48918,1.09809 3.86917,1.83388 4.17422,3.65882c0.68847,4.11868 -3.63625,5.63946 -5.86648,7.42365c-4.24092,3.39273 -5.89855,8.28976 -9.58752,11.99147c-2.7879,2.79753 -6.43148,4.10043 -9.67802,5.97617c1.37984,1.01641 2.63382,2.33572 3.70099,2.81674c1.39798,0.63013 3.03814,0.45862 4.52184,0.84598c4.32374,1.12885 8.99426,2.08558 12.31925,5.08941l2.13849,-0.15313c0,0 2.5,0 2.5,2.5zM263.94095,143.96473c0.45495,-1.83563 0.08307,-3.76046 -0.045,-5.66809c-0.00006,2.17719 -0.00747,4.2621 -0.13112,6.26664c0.06675,-0.19691 0.12598,-0.39626 0.17612,-0.59855z" fill="#9966ff" stroke="none" stroke-width="0.5"/><path d="M331.89692,146.93052c0.40518,0.08764 0.83594,0.30846 1.26669,0.73922c1.76776,1.76776 0,3.53553 0,3.53553l-2,2c-0.45241,0.45241 -1.07741,0.73224 -1.76776,0.73224c-1.38071,0 -2.5,-1.11929 -2.5,-2.5v-3c0,-5.32333 0.04473,-10.64927 0.00015,-15.97242c-0.01926,-2.30026 -0.20823,-4.3571 -0.0292,-6.41223c-2.29747,3.11402 -4.6386,6.07467 -6.75474,9.38342c-1.12072,1.75233 -1.65208,4.19235 -3.48446,5.17673c-1.69547,0.91082 -4.15723,0.84493 -5.77028,-0.20498c-1.33366,-0.86806 -0.60139,-3.22057 -1.505,-4.53039c-0.6855,-0.99365 -2.29775,-1.03923 -3.00981,-2.01402c-0.68748,-0.94115 -0.39154,-2.33558 -0.92459,-3.37204c-0.40666,-0.79073 -0.9722,-1.4817 -1.53954,-2.17278c0.03796,2.6961 0.01748,5.4001 0.01748,8.11872c0,2.97878 0.39198,6.36017 -0.01873,9.30546c-0.18227,1.30707 -0.43752,2.61082 -0.64204,3.91793c0.8863,0.8965 0.61222,2.2669 0.61222,2.2669l-0.99092,4.95459c-0.20986,1.16847 -1.23165,2.05513 -2.46053,2.05513c-1.38071,0 -2.5,-1.11929 -2.5,-2.5v-3c0.01214,-2.78921 0.61422,-5.54572 1.01873,-8.30546c0.40041,-2.73172 -0.01873,-5.93123 -0.01873,-8.69454c0.00002,-6.29083 0.15059,-12.51846 -0.68633,-18.73675c-0.0451,-0.11158 -0.09004,-0.22317 -0.13486,-0.33477c0,0 -0.28611,-0.71527 -0.14363,-1.51053c-0.00039,-0.00231 -0.00077,-0.00464 -0.00116,-0.00696c0,0 -0.411,-2.46599 2.05498,-2.87698c2.46598,-0.41099 2.87698,2.05499 2.87698,2.05499c0.07265,0.43914 0.14029,0.87821 0.20323,1.31722c1.93662,4.44642 4.70348,7.77456 6.90517,12.0799c0.39941,0.78104 -0.05117,1.88885 0.47896,2.58778c0.7231,0.95333 2.34603,0.97763 2.99019,1.98598c0.62893,0.98451 0.24182,2.32912 0.49499,3.46961c0.29393,1.32406 1.23354,-2.41646 1.89022,-3.60319c2.40851,-4.35261 5.66316,-7.78815 8.50399,-11.83233l1.96564,-2.94845c0.44513,-0.68926 1.2201,-1.14551 2.10163,-1.14551c1.25484,0 2.29374,0.92451 2.47274,2.12954l0.81524,4.89143l-0.0192,0.0032c0.01446,0.05793 0.02855,0.11597 0.04228,0.17413c0.63356,2.68502 0.1656,5.51546 0.1888,8.27412c0.0407,4.83924 0.00778,9.68079 0.00123,14.52059z" fill="#9966ff" stroke="none" stroke-width="0.5"/><path d="M356.35172,161.9375c0.34804,-0.53143 0.96179,-1 2.04413,-1c2.5,0 2.5,2.5 2.5,2.5l-2.5,3.5c-4.32858,0 -8.67289,0.09194 -13,0c-1.32013,-0.02805 -2.7323,0.30401 -3.95671,-0.1903c-0.01443,-0.00582 -0.02879,-0.01176 -0.04308,-0.01781c-0.30629,0.13386 -0.64458,0.20811 -1.00021,0.20811c-1.38071,0 -2.5,-1.11929 -2.5,-2.5v-1.58698c-0.06378,-0.28821 -0.07836,-0.60815 0,-0.94522v-0.46779c0,-5.2114 -0.67616,-11.0846 -0.29953,-16.45541c-0.22915,-0.1902 -0.46168,-0.37363 -0.70047,-0.54459c0,0 -2,-1.5 -0.5,-3.5c0.73614,-0.98152 1.59269,-1.12008 2.27418,-1.00667c0.10971,-0.28928 0.20326,-0.58265 0.25685,-0.88604c0.40226,-2.27755 -0.82833,-5.41299 -1.01887,-7.36094c-0.31191,-3.18867 -0.22719,-6.52784 -0.1273,-9.83086c-0.74024,-0.17687 -1.88486,-0.72386 -1.88486,-2.41548c0,-1.7806 1.26821,-2.29299 1.99809,-2.44043c0.00124,-0.18697 0.00191,-0.3735 0.00191,-0.55957c0,0 0,-2.5 2.5,-2.5c2.5,0 2.5,2.5 2.5,2.5c0,0.16626 -0.00059,0.33293 -0.00171,0.5c4.50057,0 9.00114,0 13.50171,0h2c0,0 2.5,0 2.5,2.5c0,2.5 -2.5,2.5 -2.5,2.5c-4.63144,0 -10.45457,0 -15.62964,0c-0.10224,3.11344 -0.18294,6.2581 0.11747,9.25366c0.42814,4.26924 1.57662,4.61815 0.98113,8.63906c-0.1548,1.04527 -0.82131,1.9665 -1.00124,3.00774c-0.00495,0.02866 -0.00985,0.05736 -0.01471,0.08608c0.10937,0.05292 0.22173,0.10044 0.33756,0.14175c2.76364,0.98574 7.29149,-1.10059 10.20943,-1.12829h1c0,0 2.5,0 2.5,2.5c0,2.5 -2.5,2.5 -2.5,2.5h-1c-3.87379,-0.0481 -6.99074,1.97662 -10.96162,1.09543c-0.05024,3.6192 0.28308,7.42034 0.41212,10.95468c0.04949,0.26693 0.0495,0.44989 0.0495,0.44989v1.93699c1.95844,1.45086 4.71949,0.56301 7.5,0.56301c1.98529,0 3.97058,0 5.95587,0z" fill="#9966ff" stroke="none" stroke-width="0.5"/><path d="M383.7826,158.51763c-2.08013,1.38675 -3.46688,-0.69338 -3.46688,-0.69338l-1.36,-2.34321c-4.13194,-0.88298 -7.73552,-3.2373 -11.14695,-5.86265c0.03443,3.26062 0.0777,6.51975 0.08576,9.77268c0.00133,0.03007 0.00133,0.04643 0.00133,0.04643l-0.00122,0.00024c0.00079,0.33332 0.00122,0.66658 0.00122,0.99976l-2.5,-0.5l-2.5,0.5c0,-4.35345 -0.06805,-8.7174 -0.10332,-13.08175c-0.54809,-0.4586 -0.89668,-1.14771 -0.89668,-1.91825c0,-0.76112 0.34013,-1.44281 0.87669,-1.90134c-0.01357,-7.83046 0.17312,-15.65278 1.14261,-23.40874c0,0 0.13483,-1.07868 0.93797,-1.72453c-0.61545,-0.44915 -1.3117,-1.30781 -0.82899,-2.75595c0.79057,-2.37171 3.16228,-1.58114 3.16228,-1.58114c1.67372,0.5642 3.40002,0.99147 5.02115,1.6926c1.89952,0.82153 3.29366,2.58646 5.19966,3.39282c3.08974,1.30715 6.73896,2.12504 8.908,4.68442c2.72361,3.21376 3.4369,7.5253 2.39032,11.55858c-0.26901,1.03671 -1.63601,1.43683 -2.18307,2.35762c-0.53841,0.90622 -0.40362,2.13083 -1,3c-1.21695,1.77358 -4.98696,5.15995 -7.16992,5.99537c-1.53708,0.58824 -2.86081,0.88902 -4.14873,1.04134c1.06612,0.94205 2.12849,1.87687 3.22856,2.37397c1.38895,0.62763 2.93572,0.82097 4.40358,1.23145l2.64001,3.65679c0,0 1.38675,2.08013 -0.69338,3.46688zM368.39394,142.9375c4.83002,-0.00849 9.93793,-0.244 12.87527,-4.81433c0.56991,-0.88674 0.45319,-2.09883 1,-3c0.42352,-0.69797 1.56016,-0.8674 1.81693,-1.64238c0.62477,-1.88567 -0.36004,-5.00985 -1.60968,-6.44142c-1.7161,-1.96595 -4.69784,-2.27735 -7.09201,-3.31558c-1.93658,-0.8398 -3.3701,-2.62099 -5.3135,-3.4449c-0.41164,-0.17451 -0.83073,-0.32921 -1.25409,-0.47255c0.11252,0.51838 0.05966,0.94125 0.05966,0.94125c-0.91879,7.35036 -1.11619,14.76561 -1.11196,22.18992z" fill="#9966ff" stroke="none" stroke-width="0.5"/><path d="M173.881,261.19311c-3.18651,1.66158 -7.45759,1.64258 -10.94927,1.50842c-1.62568,-0.06246 -5.30446,-0.25309 -6.93131,-0.96614c-4.33452,-1.89983 -10.00157,-8.02814 -9.97943,-13.00567c0.00839,-1.88599 0.61605,-3.18767 1.3514,-4.40446c-0.31525,-0.06761 -0.6301,-0.15626 -0.9443,-0.26846c-2.22848,-0.79581 -3.66663,-2.52293 -5.08546,-4.26245c-5.29087,-6.48669 -4.83205,-15.6339 -4.82178,-23.59122c0.00331,-2.57066 0.01104,-7.41914 1.40062,-9.60743c0.87877,-1.38389 4.24249,-2.88117 5.73134,-3.62864c0,0 0.98816,-0.49407 1.97913,-0.16844c0.59653,-4.7257 2.1215,-9.1852 5.89134,-12.88323c3.58739,-3.51905 9.88977,-4.78136 14.55943,-6.11569c4.0285,-1.15112 9.03131,-2.8111 13.1618,-0.89917c4.24976,1.96714 8.03957,5.71479 11.82826,8.703c1.3502,0.3618 2.73332,0.61227 4.11574,0.77411c1.10637,0.85267 2.46439,1.45322 3.31911,2.55801c3.76769,4.87005 2.98708,14.63048 -1.65891,18.45665c-0.57331,0.47214 -1.11761,0.84504 -1.64468,1.14169c1.07316,0.88504 0.76827,2.40943 0.76827,2.40943c-0.99447,4.56755 0.1139,12.49399 4.32488,15.52974c3.61561,2.60654 8.53793,4.90278 10.49906,9.19433c2.74515,6.0072 0.40491,15.66423 -7.70265,14.74886c-1.17348,-0.13249 -2.15582,-0.96743 -3.25691,-1.39431c-2.24496,-0.87035 -4.58265,-1.52325 -6.94684,-1.97929c-2.98829,-1.78376 -5.95451,-2.14253 -9.18091,-3.29004c-1.84467,4.65954 -5.38404,9.12318 -9.82793,11.44041zM152.73921,238.30856c0.24542,0.07362 0.45814,0.16486 0.64229,0.26932c0.1233,-0.04904 0.24592,-0.09837 0.36768,-0.14761c-0.82853,-0.77676 -1.59042,-1.6149 -2.26309,-2.52464c-4.87588,-6.59432 -3.77227,-14.81997 -6.18296,-22.05204c-0.02281,-2.04883 -0.05909,-4.11762 -0.00924,-6.16886c-1.1815,0.4126 -2.59282,0.58356 -3.17366,1.62583c-0.82313,1.47702 -0.60184,5.20508 -0.59937,6.89257c0.00807,5.52899 -0.09911,10.96814 1.62041,16.20557c0.8191,2.49486 2.18711,5.84248 4.97234,6.94076c0.51991,0.20502 1.09008,0.2632 1.68746,0.22233c0.33331,-0.65046 1.18805,-1.78826 2.93816,-1.26323zM153.48474,244.36444c-1.10439,2.05006 -2.4867,1.98508 -2.46404,4.31209c0.01286,1.32048 1.05675,2.59468 1.76819,3.55096c2.94699,3.96115 5.47852,5.29076 10.32107,5.47722c2.65249,0.10213 6.13051,0.2852 8.55073,-0.99158c3.47128,-1.83127 6.31842,-5.60406 7.60779,-9.30629c-0.28239,-0.11935 -0.57274,-0.21708 -0.87473,-0.28365c-3.1876,-0.7027 -7.0337,0.4601 -10.25,-0.25c-0.98532,-0.21754 -1.76082,-0.99169 -2.68126,-1.40515c-2.21161,-0.99346 -4.53983,-2.08667 -6.74033,-3.39031l-1.23294,0.26996c-1.19285,0.35779 -2.42055,0.82282 -3.66773,1.22912c-0.09232,0.27097 -0.20073,0.53514 -0.33674,0.78763zM189.98028,197.82484c-1.15828,-0.3861 -1.56233,-1.1493 -1.67258,-1.82919c-0.68117,-0.22518 -1.35325,-0.47586 -2.01378,-0.7413c-1.16203,-0.46696 -3.46734,-1.98247 -4.83997,-2.05212c-2.15388,-0.1093 -7.34278,2.55411 -9.01647,3.86432c-1.68913,1.32229 -0.91874,3.78297 -0.68706,5.56769c0.61716,4.7541 1.61869,11.19536 7.53013,9.86744c0,0 0.65126,-0.13026 1.34957,0.07919c1.80883,-0.51555 3.66205,-1.02816 5.43303,-1.33548c3.16138,-0.54861 7.41836,0.28858 9.20547,-3.37738c0.40001,-0.82056 0.26238,-5.31833 0.25479,-5.5516c-0.07528,-2.3135 -0.3414,-3.82894 -2.17023,-5.28779c-0.20262,-0.01139 -0.40497,-0.02697 -0.60702,-0.04647c-0.44636,0.61874 -1.30699,1.32899 -2.76589,0.84269zM177.29718,187.50573c-2.86343,-1.44803 -7.09601,0.31743 -9.8382,1.10083c-3.68832,1.05369 -9.65352,2.01721 -12.44057,4.88431c-5.32799,5.48101 -4.67204,12.55002 -4.77985,19.56181c2.33389,7.00166 0.83656,16.61269 7.18406,22.02385c2.97788,2.53859 6.68257,4.2596 10.15659,5.86169c0.64258,0.29633 1.12659,0.94768 1.81874,1.09485c3.19789,0.67995 7.02974,-0.49689 10.25,0.25c1.17228,0.2719 2.20574,0.92023 3.25214,1.54361c0.34835,0.10828 0.62183,0.2798 0.83652,0.48236c0.38973,0.21321 0.78659,0.40882 1.19803,0.56709c3.39046,1.30418 6.59265,1.60274 9.71721,3.48739c2.4116,0.40667 4.78115,1.11566 7.05316,2.02071c0.49585,0.19752 2.61896,1.72394 3.64016,1.1126c2.60956,-1.56222 1.71547,-7.57569 -0.12778,-9.31235c-3.15202,-2.96975 -7.94088,-4.67511 -10.45525,-8.24302c-3.58909,-5.09293 -4.80023,-12.04492 -3.69275,-17.97862c0,0 0.01931,-0.09652 0.0694,-0.24742c-1.24993,0.1289 -2.5818,0.17025 -4.16026,0.44545c-2.48001,0.43238 -5.11369,1.28835 -7.54989,1.95417l-1.50677,-0.2474c-1.28222,0.21266 -2.35715,0.17962 -4.17145,-0.63225c-4.9035,-2.19425 -6.33606,-9.20561 -6.95915,-13.96337c-0.15304,-1.1686 -0.54624,-5.26221 -0.15476,-6.32049c0.50588,-1.36755 1.40891,-2.6093 2.46771,-3.61182c1.75425,-1.66101 6.55088,-3.93891 10.01581,-4.79474c-0.59861,-0.37787 -1.20564,-0.72713 -1.82283,-1.03924z" fill="#9966ff" stroke="none" stroke-width="0.5"/><path d="M191.77085,198.20313c0,2.5 -2.5,2.5 -2.5,2.5l-0.13197,-0.26393c-2.64757,1.25875 -4.80697,1.01642 -7.15393,2.44932c0,0 -2.18539,1.2141 -3.3995,-0.97129c-1.2141,-2.18539 0.97128,-3.3995 0.97128,-3.3995c2.73258,-1.43003 4.75249,-1.15476 7.34607,-2.55068l2.36804,-0.26393c0,0 2.5,0 2.5,2.5z" fill="#ffffff" stroke="none" stroke-width="0.5"/><path d="M546.75,291.0625c0,2.5 -2.5,2.5 -2.5,2.5h-3c-10.70841,0 -21.22855,0.52406 -31.91088,0.99841c-11.6599,0.51776 -23.45939,0.00141 -35.13335,0.00203c-6.68393,0.05677 -13.14262,0.52543 -19.77854,0.99327c-3.28244,0.23142 -6.60099,-0.37303 -9.87176,-0.01244c-2.34045,0.25802 -4.56408,1.16033 -6.84841,1.73141c-7.63644,1.90911 -15.33516,4.19131 -23.12908,5.35458c-12.97536,1.93661 -26.78946,1.43346 -39.72793,-0.31435c-4.96721,-0.671 -10.08011,-1.0856 -15.00162,-2.03037c-8.17232,-1.56883 -16.08396,-4.49156 -24.25468,-6.0654c-20.25791,-3.90206 -41.02352,-3.66475 -61.55321,-3.72316c-6.57619,-0.01917 -13.87414,0.44469 -20.3747,-0.59126c-2.70627,-0.43128 -5.16405,-1.93856 -7.86803,-2.38395c-7.07059,-1.16465 -14.71659,-1.04134 -21.89126,-1.59656c-6.65373,-0.5149 -13.24071,-1.8197 -19.86276,-2.37072c-2.756,-0.22933 -5.58101,0.48131 -8.29646,-0.04254c-2.53118,-0.4883 -4.64656,-2.28914 -7.1166,-3.02686c-2.4321,-0.72639 -5.04563,-0.56652 -7.55796,-0.92838c-6.71841,-0.01007 -12.58869,-2.03015 -19.17461,-3.01859c-2.92098,-0.43839 -5.89284,-0.41432 -8.83899,-0.62524c-7.29829,-0.52248 -15.41049,-1.16777 -22.69856,-0.33901c-1.69614,0.19288 -3.33732,0.82105 -5.04292,0.89212c-6.67644,0.27817 -12.85729,-2.12089 -19.34049,-2.91792c-7.09305,-0.872 -14.9384,-0.15019 -22.1032,-0.35262c-12.21414,-2.02124 -24.2548,-1.63245 -36.624,-1.63245c-16,0 -32,0 -48,0c0,0 -2.5,0 -2.5,-2.5c0,-2.5 2.5,-2.5 2.5,-2.5c16,0 32,0 48,0c12.51691,0 24.74273,-0.42033 37.10387,1.65553c7.199,0.18622 15.03928,-0.50629 22.16892,0.3594c6.20738,0.75371 12.19596,3.18389 18.57737,2.8928c1.62458,-0.07411 3.18335,-0.69536 4.79961,-0.87557c7.56976,-0.84399 15.94025,-0.20947 23.51564,0.33043c3.06232,0.21825 6.15007,0.20838 9.18642,0.66229c6.47447,0.96788 12.23302,2.99164 18.82539,2.98141c2.80852,0.39807 5.72033,0.27252 8.44204,1.07162c2.39813,0.70409 4.42682,2.51275 6.8834,2.97314c2.52394,0.47302 5.14431,-0.25328 7.70354,-0.04254c6.6141,0.54464 13.19139,1.85503 19.83589,2.36857c7.34606,0.56777 15.16914,0.45084 22.41009,1.66414c2.66276,0.44618 5.08036,1.94221 7.74721,2.36326c6.25084,0.98689 13.28195,0.51196 19.60537,0.5295c20.84566,0.05931 41.91587,-0.14855 62.48469,3.81339c8.17031,1.57376 16.081,4.49631 24.25159,6.0648c4.83095,0.92739 9.8527,1.32709 14.72834,1.98572c12.47761,1.68555 25.80598,2.19194 38.32049,0.32412c10.13061,-1.51202 19.97449,-5.97006 30.10465,-7.1033c1.44453,-0.1616 8.50793,0.10367 10.12824,-0.01244c6.74401,-0.48328 13.31972,-0.94817 20.11162,-1.0058c11.62076,-0.00072 23.37015,0.52111 34.97649,0.0011c10.74041,-0.48121 21.32261,-1.00159 32.08912,-1.00159h3c0,0 2.5,0 2.5,2.5z" fill="#a679ff" stroke="none" stroke-width="0.5"/><path d="M63.3885,339.16903c0.14764,0.24804 0.30078,0.49048 0.46652,0.72006zM62.72004,338.01095c0.37097,-0.16054 2.2842,-0.86659 3.29092,1.14686c1.11803,2.23607 -1.11803,3.3541 -1.11803,3.3541l-5.19816,0.15068c-0.45333,-0.78107 -0.59546,-1.86252 -1.36,-2.34321c-1.03019,-0.64772 -2.4555,-0.27156 -3.57126,-0.75725c-2.15282,-0.93713 -6.33959,-4.38683 -7.29831,-6.32958c-0.58434,-1.18409 -0.16195,-2.63659 -0.1903,-3.95671c-0.11269,-5.2466 2.50042,-8.97082 4.12829,-13.79057c0.38003,-1.12518 0.55329,-2.34711 1.15726,-3.3697c0.72006,-1.21915 1.84537,-2.14823 2.74673,-3.24019c0.10321,-0.12503 0.41543,-0.46771 0.2647,-0.40803c-0.8695,0.34429 -1.56989,1.13109 -2.49152,1.28975c-1.6425,0.28278 -3.34353,-0.18405 -5,0c-1.36596,0.15177 -2.63315,0.85646 -4,1c-1.05979,0.1113 -2.26124,-0.77219 -3.18742,-0.2452c-1.12727,0.6414 -1.37101,2.2037 -2.11803,3.26393c-0.95996,1.36245 -2,2.66667 -3,4c0,0 -1.5,2 -3.5,0.5c-2,-1.5 -0.5,-3.5 -0.5,-3.5c0.79335,-1.05781 6.14604,-8.31444 6.88197,-8.73607c1.39374,-0.7985 3.2221,-0.02047 4.81258,-0.2452c2.98877,-0.42231 5.98841,-0.79645 9,-1c1.84715,-0.12484 3.94066,-1.69487 5.50848,-0.71025c1.70305,1.06955 2.45588,3.59003 2.2647,5.59197c-0.1827,1.91309 -2.32164,3.07894 -3.25327,4.75981c-0.98593,1.77884 -1.10563,3.92622 -1.90475,5.79644c-0.62912,1.47236 -2.52941,4.49687 -2.84198,6.44375c-0.65397,4.07331 0.53022,6.62137 4.54367,8.31326c1.41286,0.5956 3.16858,0.3693 4.42874,1.24275c0.64483,0.44695 1.09596,1.09135 1.50502,1.77864z" fill="#9966ff" stroke="none" stroke-width="0.5"/><path d="M93.68191,328.52427c-2.24842,-1.09298 -1.15544,-3.3414 -1.15544,-3.3414l0.81639,-1.49441c0.31473,-1.55299 0.73359,-3.08846 0.9442,-4.65896c0.16457,-1.22723 -0.26355,-2.55361 0.17813,-3.71036c0.29014,-0.75985 1.29971,-1.05839 1.80487,-1.6792c-0.41605,-0.40165 -0.87594,-0.74926 -1.38456,-1.02764c-0.56378,-0.30857 -1.26614,0.22184 -1.90034,0.32602c-2.88253,0.47349 -5.58342,1.72392 -8.3429,2.68225c-1.00963,0.35063 -2.29303,-0.12313 -3.16874,0.48959c-0.5417,0.37902 -0.21794,1.30418 -0.32692,1.95626c0,0 -0.79057,2.37171 -3.16228,1.58114c-2.37171,-0.79057 -1.58114,-3.16228 -1.58114,-3.16228c0.55769,-1.34791 0.56377,-3.09647 1.67308,-4.04374c1.28313,-1.09568 3.26302,-0.88787 4.83126,-1.51041c3.08918,-1.22631 6.2136,-2.63348 9.52103,-2.96174c1.40504,-0.13945 2.96758,-0.65081 4.23572,-0.02999c0.01601,0.00784 0.03198,0.0157 0.04793,0.0236c0.58464,-3.98839 1.57958,-7.45249 1.56268,-11.68715c0,0 0,-2.5 2.5,-2.5c2.5,0 2.5,2.5 2.5,2.5c-0.01802,5.1044 -1.22355,9.17848 -1.83562,14.19259c-0.06203,0.50819 -0.06913,1.02634 -0.06697,1.54563c2.85505,4.01844 3.80036,9.57558 3.90123,14.17939c0.06833,3.11881 0.48074,6.57832 -1.37201,9.39672c-0.98256,1.49466 -2.58457,2.48101 -3.75304,3.83529c-1.04951,1.21641 -1.62772,2.86146 -2.88638,3.85991c-1.02881,0.81612 -2.46443,0.90812 -3.69664,1.36218l-1.79057,0.12829c0,0 -2.5,0 -2.5,-2.5c0,-2.5 2.5,-2.5 2.5,-2.5l0.20943,0.12829c0.76779,-0.21261 1.69722,-0.12082 2.30336,-0.63782c0.93496,-0.79747 1.24656,-2.13281 2.04255,-3.06902c1.00069,-1.17696 2.39326,-1.99827 3.31803,-3.23578c1.71652,-2.29703 0.78731,-6.86927 0.43831,-9.51725c-0.16206,-1.22955 -0.40997,-2.68183 -0.8155,-4.13469c0.00197,0.07132 -0.00041,0.14224 -0.00835,0.21261c-0.19602,1.73777 -0.67797,3.43123 -1.01696,5.14685l-1.22245,2.69979c0,0 -1.09298,2.24842 -3.3414,1.15544z" fill="#9966ff" stroke="none" stroke-width="0.5"/><path d="M121.89293,323.51191c-2.23607,1.11803 -3.3541,-1.11803 -3.3541,-1.11803l-1.24864,-2.84196c-0.45592,-4.10331 -1.01025,-8.14374 -1.01529,-12.27608c0,0 0,-2.5 2.5,-2.5c2.5,0 2.5,2.5 2.5,2.5c-0.00527,3.94518 0.54943,7.8064 0.98471,11.72392l0.75136,1.15804c0,0 1.11803,2.23607 -1.11803,3.3541z" fill="#9966ff" stroke="none" stroke-width="0.5"/><path d="M129.77489,315.77584c-2.5,0 -2.5,-2.5 -2.5,-2.5c0,-1 0,-3 0,-4c0,0 0,-2.5 2.5,-2.5c2.5,0 2.5,2.5 2.5,2.5c0,1 0,2 0,3v1c0,0 0,2.5 -2.5,2.5z" fill="#9966ff" stroke="none" stroke-width="0.5"/><path d="M136.27489,307.27584c0,-1.38071 1.11929,-2.5 2.5,-2.5c1.38071,0 2.5,1.11929 2.5,2.5c0,1.38071 -1.11929,2.5 -2.5,2.5c-1.38071,0 -2.5,-1.11929 -2.5,-2.5z" fill="#9966ff" stroke="none" stroke-width="0.5"/><path d="M156.77489,342.77584c-2.5,0 -2.5,-2.5 -2.5,-2.5v-2c0,-0.79578 0.06268,-1.59634 0.11036,-2.39556c-1.80812,0.55919 -3.68685,0.8971 -5.66984,0.89485c-1.55732,-0.00177 -3.03124,-0.71596 -4.54687,-1.07394c0,0 -2.42536,-0.60634 -1.81902,-3.0317c0.60634,-2.42536 3.0317,-1.81902 3.0317,-1.81902c3.00315,0.80539 5.7646,0.56447 8.4005,-0.24022c-0.42404,-1.32597 -0.95519,-2.6279 -1.28145,-3.97415c-2.20635,0.76171 -4.62585,1.09 -6.79691,1.96092c0,0 -2.32119,0.92848 -3.24967,-1.39272c-0.92848,-2.32119 1.39272,-3.24967 1.39272,-3.24967c1.59599,-0.63667 3.1533,-1.38046 4.78796,-1.91001c1.03101,-0.334 2.24035,-0.20325 3.23291,-0.58281c-0.17478,-2.30521 -0.29441,-4.64652 -0.57309,-6.8759c0,0 -0.31009,-2.48069 2.17061,-2.79078c2.48069,-0.31009 2.79078,2.17061 2.79078,2.17061c0.096,0.76799 0.17382,1.54654 0.2417,2.33077c0.98377,-0.89765 2.03189,-1.72366 3.22265,-2.2872c1.68437,-0.79714 3.64505,-0.77701 5.46757,-1.16552l0.0971,-0.01942c0,0 2.45145,-0.49029 2.94174,1.96116c0.49029,2.45145 -1.96116,2.94174 -1.96116,2.94174l-0.0971,0.01942c-1.44608,0.26521 -2.99868,0.18978 -4.33824,0.79564c-2.09236,0.94633 -3.26783,3.15531 -4.75278,4.97833c0.05296,0.4873 0.11198,0.97094 0.17909,1.4497c0.17977,1.28229 0.63237,2.50553 1.07156,3.73223c3.48515,-1.79347 6.86155,-4.11872 10.43334,-5.71197l-1.48617,0.2852c0,0 0,-2.5 2.5,-2.5c2.5,0 2.5,2.5 2.5,2.5l-1.48617,4.2852c-3.9029,1.7212 -7.60699,4.29265 -11.51773,6.28202c0.00767,1.77016 0.0039,4.13281 0.0039,4.43278v2c0,0 0,2.5 -2.5,2.5z" fill="#9966ff" stroke="none" stroke-width="0.5"/><path d="M162.27489,359.27584c0,2.5 -2.5,2.5 -2.5,2.5l-3.72446,-0.10727c-5.10739,-3.22681 -9.86359,-4.90005 -13.35567,-10.00598c0,0 -1.38675,-2.08013 0.69338,-3.46688c2.08013,-1.38675 3.46688,0.69338 3.46688,0.69338c2.67029,4.14391 6.72594,5.18642 10.64433,7.99402l2.27554,-0.10727c0,0 2.5,0 2.5,2.5z" fill="#9966ff" stroke="none" stroke-width="0.5"/><path d="M188.43801,356.38836c-2.11252,-1.33689 -0.77563,-3.4494 -0.77563,-3.4494l2.09016,-3.30283c1.76497,-2.78497 3.21223,-5.75928 4.86008,-8.6151c0.50614,-0.87717 1.48808,-1.49682 1.76955,-2.46964c0.30362,-1.04939 -0.09116,-2.18323 -0.10727,-3.27554c-0.02189,-1.48451 -0.02984,-2.96976 -0.03052,-4.45528c-0.60141,0.3819 -1.21009,0.74052 -1.8951,0.8884c-0.65539,0.14148 -1.35134,0.23502 -2.07438,0.29315c0,0.07654 0,0.15307 0,0.22961c0.53143,0.34804 1,0.9618 1,2.04412c0,2.5 -2.5,2.5 -2.5,2.5l-3.5,-2.5c0,-0.7566 0,-1.5132 0,-2.2698c-1.91534,-0.09092 -3.81593,-0.2302 -5.5,-0.2302c0,0 -2.5,0 -2.5,-2.5c0,-2.5 2.5,-2.5 2.5,-2.5c1.64279,0 3.5731,0.18759 5.5,0.30117c0,-1.26706 0,-2.53411 0,-3.80117c0,0 0,-2.5 2.5,-2.5c2.5,0 2.5,2.5 2.5,2.5c0,1.24494 0,2.48988 0,3.73482c0.31875,-0.04426 0.62794,-0.09965 0.92562,-0.16795c1.12233,-0.2575 2.04103,-1.07039 3.06257,-1.61251c0.00632,-1.31845 0.01181,-2.63668 0.01181,-3.95437c0,0 0,-2.5 2.5,-2.5c2.5,0 2.5,2.5 2.5,2.5c0,0.99598 0.00261,1.99218 0.00617,2.98849c1.31059,-0.08911 2.62564,-0.16095 3.90644,-0.42053l0.0971,-0.01942c0,0 2.45145,-0.49029 2.94174,1.96116c0.49029,2.45145 -1.96116,2.94174 -1.96116,2.94174l-0.0971,0.01942c-1.62374,0.32083 -3.22951,0.75398 -4.86834,0.98055c0.00259,1.84991 -0.00212,3.69964 -0.02485,5.54858c-0.01937,1.57511 0.32195,3.20884 -0.10727,4.72446c-0.37928,1.3393 -1.55209,2.31486 -2.23045,3.53036c-1.63799,2.93496 -3.16399,5.93798 -4.9596,8.77924l-2.09016,3.30283c0,0 -1.33689,2.11252 -3.4494,0.77563z" fill="#9966ff" stroke="none" stroke-width="0.5"/><path d="M231.77489,349.77584c2.5,0 2.5,2.5 2.5,2.5l-1.71084,4.37218c-7.33004,2.43852 -13.85303,3.90619 -21.51769,4.48834c-2.14724,0.16309 -4.60438,1.45126 -6.45112,0.34367c-2.01155,-1.20644 -3.15021,-3.86476 -3.32036,-6.20419c-0.36231,-4.9816 4.38067,-6.759 7.17288,-9.21253c5.74905,-5.05172 7.3169,-13.2069 12.55935,-18.55523c0,0 1.76777,-1.76777 3.53553,0c1.76777,1.76777 0,3.53553 0,3.53553c-4.08159,3.97448 -5.728,10.15697 -9.17394,14.74632c-1.1295,1.50428 -2.39776,2.91743 -3.79562,4.17625c-1.15903,1.04374 -2.83323,1.52445 -3.7701,2.77145c-0.5932,0.78957 -1.33837,1.56905 -1.52811,2.53822c-0.12296,0.62812 0.05411,1.66033 0.67964,1.79581c2.21168,0.47903 4.4054,-1.16787 6.66501,-1.29098c6.27949,-0.34213 11.38825,-1.8883 17.36618,-3.87701l-1.71084,0.37218c0,0 0,-2.5 2.5,-2.5z" fill="#9966ff" stroke="none" stroke-width="0.5"/><path d="M240.30399,357.71922c-2.44337,0.52909 -2.97246,-1.91428 -2.97246,-1.91428l-0.67874,-3.2269c-1.3775,-2.74045 -3.0324,-5.35235 -4.87789,-7.8022c0,0 -1.5,-2 0.5,-3.5c2,-1.5 3.5,0.5 3.5,0.5c2.13805,2.86224 4.00198,5.94389 5.59425,9.14208l0.84913,3.82883c0,0 0.52909,2.44337 -1.91428,2.97246z" fill="#9966ff" stroke="none" stroke-width="0.5"/><path d="M271.85502,330.6626c-1.38675,2.08013 -3.46688,0.69338 -3.46688,0.69338l-3.81744,-2.90048c-0.0986,-1.39321 -0.19721,-2.78643 -0.29581,-4.17964c0,0 0,-2.5 2.5,-2.5c2.5,0 2.5,2.5 2.5,2.5c-0.0986,0.60679 -0.19721,1.21357 -0.29581,1.82036l2.18256,1.09952c0,0 2.08013,1.38675 0.69338,3.46688z" fill="#9966ff" stroke="none" stroke-width="0.5"/><path d="M254.77489,360.77584c-2.5,0 -2.5,-2.5 -2.5,-2.5l1.38197,-4.23607c4.02138,-1.98972 6.5053,-4.20189 9.95546,-7.10888c2.20934,-1.86151 3.98619,-3.80512 6.13259,-5.15505c-2.65667,0 -5.31334,0 -7.97001,0c0,0 -2.5,0 -2.5,-2.5c0,-2.5 2.5,-2.5 2.5,-2.5c4,0 8,0 12,0l3,0c1.38071,0 2.5,1.11929 2.5,2.5c0,0.79812 -0.374,1.50888 -0.9563,1.9666l-3.88631,3.10905l-0.1793,-0.22412c-5.32534,5.72231 -11.57022,10.95847 -18.36006,14.38454l1.38197,-0.23607c0,0 0,2.5 -2.5,2.5z" fill="#9966ff" stroke="none" stroke-width="0.5"/><path d="M290.27489,350.27584c0,2.5 -2.5,2.5 -2.5,2.5c-4.83441,0 -10.60367,0 -15.5,0c0,2.16667 0,4.33333 0,6.5l0.26777,-0.76777c0,0 1.76777,1.76777 0,3.53553c-1.76777,1.76777 -3.53553,0 -3.53553,0l-1.73223,-2.76777c0,-2.33333 0,-4.66667 0,-7c0,0 0,-2.17731 2.03194,-2.46806c0.29074,-2.03194 2.46806,-2.03194 2.46806,-2.03194c5,0 10,0 15,0h1c0,0 2.5,0 2.5,2.5z" fill="#9966ff" stroke="none" stroke-width="0.5"/><path d="M315.00713,336.04361c-1.76777,-1.76777 0,-3.53553 0,-3.53553l0.26803,0.80372c-0.03812,-4.01132 -1.3076,-7.66464 -1.84894,-11.59627c-0.34306,0.022 -0.65903,0.08853 -0.88355,0.32809c-0.72081,0.76912 -0.23351,2.27639 -1,3c-0.99648,0.94074 -2.56014,0.98232 -3.81106,1.54193c-1.48172,0.66285 -2.80556,1.73784 -4.38233,2.12342c-1.48131,0.36224 -3.04959,0.04459 -4.57438,0.06688c0,0 -2.5,0 -2.5,-2.5c0,-2.5 2.5,-2.5 2.5,-2.5c1.14187,0.02229 2.31946,0.35109 3.42562,0.06688c1.31574,-0.33807 2.35726,-1.36981 3.61767,-1.87658c0.69164,-0.27809 1.68358,0.08994 2.18894,-0.45807c0.71459,-0.7749 0.23712,-2.27259 1,-3c0.96865,-0.92362 2.52925,-0.89853 3.72312,-1.50352c0.18435,-0.09342 0.36585,-0.18875 0.54481,-0.28573c-0.00091,-2.09619 -0.00017,-4.31212 -0.00017,-4.44298c0,0 0,-2.5 2.5,-2.5c2.5,0 2.5,2.5 2.5,2.5c0,0.41619 -0.0063,0.83266 -0.01592,1.24927c1.3132,-0.85769 2.65541,-1.63935 4.19629,-2.18835c0.2529,-0.70917 0.86039,-1.56092 2.31962,-1.56092c2.5,0 2.5,2.5 2.5,2.5l-2.05165,3.45947c-2.71913,0.41458 -4.80401,2.1042 -7.0057,3.69994c0.01332,0.2116 0.02947,0.42307 0.04883,0.63439c0.41423,4.52008 1.92388,8.61121 2.00826,13.17025l-1.73197,2.80372c0,0 -1.76777,1.76777 -3.53553,0z" fill="#9966ff" stroke="none" stroke-width="0.5"/><path d="M319.27489,351.27584c0,2.5 -2.5,2.5 -2.5,2.5h-1c-5.07185,-0.01924 -6.88383,-1.15204 -11.45745,-3.39797c-1.59041,-0.78099 -3.42769,-1.05782 -4.91877,-2.01493c-1.33122,-0.85449 -2.26103,-2.21289 -3.39154,-3.31934c0,0 -1.76777,-1.76777 0,-3.53553c1.76777,-1.76777 3.53553,0 3.53553,0c0.86949,0.89355 1.5526,2.01763 2.60846,2.68066c1.32251,0.83048 2.96287,1.01344 4.36599,1.69898c4.23241,2.06788 4.76201,2.90825 9.25778,2.88812h1c0,0 2.5,0 2.5,2.5z" fill="#9966ff" stroke="none" stroke-width="0.5"/><path d="M350.27489,348.27584c0,2.5 -2.5,2.5 -2.5,2.5l-4.08013,-1.11325c-0.77087,-1.22076 -1.95219,-2.26422 -2.3126,-3.66229c-1.1301,-4.38368 0.40542,-8.04454 0.92501,-12.12492c0.4042,-3.17423 -0.03228,-6.39968 -0.03228,-9.59954c0,0 0,-2.5 2.5,-2.5c2.5,0 2.5,2.5 2.5,2.5c0,0.57552 0.00996,10.05669 -0.03228,10.40046c-0.40303,3.27979 -1.91726,6.34994 -1.07499,9.87508c0.22334,0.93472 1.12493,1.55847 1.6874,2.33771l-0.08013,-1.11325c0,0 2.5,0 2.5,2.5z" fill="#9966ff" stroke="none" stroke-width="0.5"/><path d="M377.50457,346.34818c0.10897,0.17796 0.22556,0.35817 0.35045,0.54091zM376.78849,344.98256c0.49528,-0.19709 2.26708,-0.73554 3.22247,1.17525c1.11803,2.23607 -1.11803,3.3541 -1.11803,3.3541l-5.19816,0.15068c-1.57366,-2.40766 -2.84143,-5.1141 -3.37957,-7.93963c-0.21029,-1.10417 0.05958,-2.30287 -0.33492,-3.35538c-0.52321,-1.39589 -1.56608,-2.537 -2.34912,-3.8055c0,0 -1.28624,-2.14373 0.85749,-3.42997c2.14373,-1.28624 3.42997,0.85749 3.42997,0.85749c0.93195,1.58981 2.14856,3.04402 2.79584,4.76943c1.18898,3.16938 0.87966,5.50226 2.07402,8.22353z" fill="#9966ff" stroke="none" stroke-width="0.5"/><path d="M402.77489,329.77584c-2.5,0 -2.5,-2.5 -2.5,-2.5l0.1482,-3.86022c-0.65247,0.00139 -1.2961,0.06729 -1.92374,0.25295c-1.02734,0.3039 -1.66955,1.37052 -2.62608,1.85306c-3.05151,1.53939 -6.98703,2.71213 -10.11358,4.05207c0,0 -2.29786,0.9848 -3.28266,-1.31306c-0.9848,-2.29786 1.31306,-3.28266 1.31306,-3.28266c3.09665,-1.32714 6.85889,-2.44697 9.88642,-3.94793c1.19431,-0.5921 2.08971,-1.78948 3.37392,-2.14694c0.47448,-0.13207 4.14766,-0.11446 6.26061,-0.09795c0.43607,-0.39443 0.92488,-0.69228 1.50714,-0.81901c0.32089,-0.06984 0.63963,-0.09075 0.95671,-0.07345v-0.11685h3c1.38071,0 2.5,1.11929 2.5,2.5c0,1.18975 -0.83109,2.18539 -1.9444,2.43804l-3.42274,0.85568c-0.28151,0.21661 -0.58181,0.42162 -0.82317,0.66298l0.1903,3.04329c0,0 0,2.5 -2.5,2.5z" fill="#9966ff" stroke="none" stroke-width="0.5"/><path d="M409.65686,346.03978c2.23607,-1.11803 3.3541,1.11803 3.3541,1.11803l0.5317,4.8858c-1.27035,1.18064 -2.21534,2.86267 -3.81106,3.54193c-1.52135,0.6476 -3.30363,0.15518 -4.95671,0.1903c-2.66606,0.05665 -5.33333,0 -8,0c0,0 -2.5,0 -2.5,-2.5c0,-2.5 2.5,-2.5 2.5,-2.5c2.66667,0 5.33431,-0.07202 8,0c1.01604,0.02745 2.11071,0.5945 3.04329,0.1903c1.00666,-0.43631 1.45929,-1.63871 2.18894,-2.45807l-1.4683,0.8858c0,0 -1.11803,-2.23607 1.11803,-3.3541z" fill="#9966ff" stroke="none" stroke-width="0.5"/><path d="M440.77489,327.77584c-2.5,0 -2.5,-2.5 -2.5,-2.5c0,-1 0,-3 0,-4c0,0 0,-2.5 2.5,-2.5c2.5,0 2.5,2.5 2.5,2.5c0,1 0,2 0,3v1c0,0 0,2.5 -2.5,2.5z" fill="#9966ff" stroke="none" stroke-width="0.5"/><path d="M439.34954,361.88218c-0.60634,-2.42536 1.81902,-3.0317 1.81902,-3.0317l2.95653,-0.45297c0.53765,-2.24175 0.91121,-3.44215 0.85747,-6.11951c-0.03785,-1.88553 -1.09315,-3.7946 -0.62944,-5.62262c0.64329,-2.53593 3.23645,-4.26409 3.95407,-6.78c0.2667,-0.93504 1.44847,-2.21117 0.69995,-2.83178c-0.85043,-0.7051 -2.13508,0.60321 -3.23223,0.73223c-0.80331,0.09447 -1.65106,-0.2999 -2.42562,-0.06688c-1.42751,0.42946 -2.56187,1.60757 -4,2c-0.31364,0.08558 -5.95801,0.06688 -6.57438,0.06688c0,0 -2.5,0 -2.5,-2.5c0,-2.5 2.5,-2.5 2.5,-2.5c1.80868,0 3.69362,0.58794 5.42562,0.06688c1.42751,-0.42946 2.56187,-1.60757 4,-2c1.14964,-0.31371 2.38517,-0.14338 3.57438,-0.06688c2.26441,0.14568 5.20908,-0.91678 6.76777,0.73223c1.94052,2.05297 0.84715,8.42889 -0.55332,10.92803c-0.72457,1.29301 -2.42035,2.02552 -2.79266,3.46019c-0.36409,1.40295 0.75307,2.8278 0.78477,4.27688c0.11697,5.3472 -0.50833,5.48289 -2.55675,9.981l-5.04347,1.54703c0,0 -2.42536,0.60634 -3.0317,-1.81902z" fill="#9966ff" stroke="none" stroke-width="0.5"/></g></g></svg>