<svg version="1.1" xmlns="http://www.w3.org/2000/svg" xmlns:xlink="http://www.w3.org/1999/xlink" width="309.93117" height="162.56758" viewBox="0,0,309.93117,162.56758"><g transform="translate(-86.30499,-101.13307)"><g data-paper-data="{&quot;isPaintingLayer&quot;:true}" fill-rule="nonzero" stroke-linejoin="miter" stroke-miterlimit="10" stroke-dasharray="" stroke-dashoffset="0" style="mix-blend-mode: normal"><path d="" fill="#000000" stroke="none" stroke-width="1" stroke-linecap="butt"/><path d="" fill="#000000" stroke="none" stroke-width="1" stroke-linecap="butt"/><path d="" fill="#000000" stroke="none" stroke-width="1" stroke-linecap="butt"/><path d="" fill="#000000" stroke="none" stroke-width="0.5" stroke-linecap="butt"/><path d="" fill="#000000" stroke="none" stroke-width="0.5" stroke-linecap="butt"/><path d="" fill="#000000" stroke="none" stroke-width="0.5" stroke-linecap="butt"/><path d="" fill="#000000" stroke="none" stroke-width="0.5" stroke-linecap="butt"/><path d="" fill="#000000" stroke="none" stroke-width="0.5" stroke-linecap="butt"/><path d="" fill="#000000" stroke="none" stroke-width="0.5" stroke-linecap="butt"/><path d="" fill="#000000" stroke="none" stroke-width="0.5" stroke-linecap="butt"/><path d="" fill="#000000" stroke="none" stroke-width="0.5" stroke-linecap="butt"/><path d="" data-paper-data="{&quot;index&quot;:null}" fill="#000000" stroke="none" stroke-width="1" stroke-linecap="butt"/><path d="" data-paper-data="{&quot;index&quot;:null}" fill="#000000" stroke="none" stroke-width="1" stroke-linecap="butt"/><path d="" data-paper-data="{&quot;index&quot;:null}" fill="#000000" stroke="none" stroke-width="1" stroke-linecap="butt"/><path d="" data-paper-data="{&quot;index&quot;:null}" fill="#000000" stroke="none" stroke-width="0.5" stroke-linecap="butt"/><path d="" data-paper-data="{&quot;index&quot;:null}" fill="#000000" stroke="none" stroke-width="0.5" stroke-linecap="butt"/><path d="" data-paper-data="{&quot;index&quot;:null}" fill="#000000" stroke="none" stroke-width="0.5" stroke-linecap="butt"/><path d="" data-paper-data="{&quot;index&quot;:null}" fill="#000000" stroke="none" stroke-width="0.5" stroke-linecap="butt"/><path d="" data-paper-data="{&quot;index&quot;:null}" fill="#000000" stroke="none" stroke-width="0.5" stroke-linecap="butt"/><path d="" data-paper-data="{&quot;index&quot;:null}" fill="#000000" stroke="none" stroke-width="0.5" stroke-linecap="butt"/><path d="" data-paper-data="{&quot;index&quot;:null}" fill="#000000" stroke="none" stroke-width="0.5" stroke-linecap="butt"/><path d="" data-paper-data="{&quot;index&quot;:null}" fill="#000000" stroke="none" stroke-width="0.5" stroke-linecap="butt"/><path d="" data-paper-data="{&quot;index&quot;:null}" fill="#66fffc" stroke="none" stroke-width="5" stroke-linecap="butt"/><path d="" data-paper-data="{&quot;index&quot;:null}" fill="#4fc4c2" stroke="none" stroke-width="5" stroke-linecap="butt"/><path d="" data-paper-data="{&quot;index&quot;:null}" fill="none" stroke="#000000" stroke-width="5" stroke-linecap="butt"/><g><path d="M376.15179,109.88701c0,0 -15.9713,-12.49168 -20.17019,10.00838c-4.45351,21.64781 24.78105,19.073 24.06541,39.5597c-0.94901,7.63465 -5.64951,18.01205 -17.44074,15.55035c-11.53255,-2.40769 -7.21682,-23.59375 -7.21682,-23.59375" fill="none" stroke="#000000" stroke-width="10" stroke-linecap="round"/><path d="M346.97938,106.73323c0,0 2.47749,68.1543 -11.82519,68.70577c-17.29295,-0.36168 -15.50751,-68.96858 -15.50751,-68.96858" fill="none" stroke="#000000" stroke-width="10" stroke-linecap="round"/><path d="M283.67575,147.92054c0,0 -4.80284,-0.03887 -6.30957,-0.05346c-1.04425,-0.01011 -1.83393,0.58378 -1.81378,1.61966c0.0964,4.95522 -0.02323,19.66824 -4.63167,24.10502c-2.14199,2.0622 -10.07508,2.12381 -12.67826,-5.80721c-4.46657,-13.60814 -2.9492,-41.03932 0.29369,-52.12689c3.92583,-13.42256 13.83857,-7.6849 13.83857,-7.6849" fill="none" stroke="#000000" stroke-width="10" stroke-linecap="round"/><path d="M283.67575,147.92055c0,0 -4.80284,-0.03887 -6.30957,-0.05346c-1.04425,-0.01011 -1.83393,0.58376 -1.81378,1.61965c0.09641,4.95522 -0.02321,19.66824 -4.63166,24.10502c-5.81723,5.60054 -12.85864,-3.08621 -13.71026,-6.09659c-0.82372,-2.91172 -3.8072,-34.28794 1.32569,-51.83752c3.92582,-13.42255 13.83857,-7.6849 13.83857,-7.6849" fill="none" stroke="#000000" stroke-width="10" stroke-linecap="round"/><path d="M246.88176,106.13307c0,0 0.99737,27.87016 0.85726,40.19944c-0.09355,8.23215 -1.05109,23.58609 -1.46106,28.93491c-0.11319,1.4768 -0.36388,-0.36556 -0.61173,-1.21483c-0.60477,-2.07233 -3.6454,-11.10169 -6.47517,-22.30773c-1.97219,-7.80996 -3.43649,-16.94751 -5.60761,-24.38724c-2.42404,-8.30639 -4.99567,-14.52893 -5.9062,-17.649c-0.32612,-1.11748 -1.30211,-3.1832 -1.31133,-1.98863c-0.05154,6.67479 -0.50931,68.32173 -0.50931,68.32173" fill="none" stroke="#000000" stroke-width="10" stroke-linecap="round"/><path d="M216.39531,139.37912c0,18.36127 -3.78893,35.87417 -7.49021,35.87417c-5.27817,0 -10.38117,-1.48122 -10.9068,-41.65609c-0.24021,-18.3597 3.52612,-27.4641 7.2274,-27.4641c7.11787,0 11.16961,14.88475 11.16961,33.24602z" fill="none" stroke="#000000" stroke-width="10" stroke-linecap="butt"/><path d="M145.68483,176.50738c0,0 9.9522,-61.41699 11.3055,-69.21837c0.26349,-1.51892 12.58071,68.50535 12.58071,68.50535" fill="none" stroke="#000000" stroke-width="10" stroke-linecap="round"/><path d="M169.55114,175.53154c0,0 11.26596,-69.76145 11.52945,-68.24253c1.3533,7.80138 9.72861,68.69274 9.72861,68.69274" data-paper-data="{&quot;index&quot;:null}" fill="none" stroke="#000000" stroke-width="10" stroke-linecap="round"/><path d="M131.83777,119.80231c0,0 4.22196,-0.13374 7.45121,8.27733c2.04199,4.89708 2.68937,18.01058 2.86155,20.05213c0.30436,3.60887 -5.94228,6.21813 -5.94228,6.21813" fill="none" stroke="#000000" stroke-width="10" stroke-linecap="round"/><path d="M103.93958,132.22909c-0.57704,-1.89178 -0.40584,-4.81895 -0.40584,-6.39135c0,-0.63267 1.1038,-5.94307 4.524,-6.86281c2.5605,-0.68855 8.62574,-0.4333 12.87398,0.75646c2.4026,0.67288 4.34844,6.37122 3.53532,10.8779c-0.63753,3.53352 -2.46236,4.59375 -4.28385,4.59375c-2.1202,0 -7.27273,0.10722 -10.81298,-0.13426c-2.27048,-0.15488 -4.98396,-1.37535 -5.43062,-2.8397z" fill="none" stroke="#000000" stroke-width="10" stroke-linecap="butt"/><path d="M95.64812,174.78869c-0.37959,-5.6952 -1.65202,-29.6093 2.28136,-47.75995c1.01526,-4.68495 3.83009,-18.38649 12.82256,-20.38236c5.43133,-1.20548 15.85842,1.08626 20.00775,12.05479c3.4118,9.0189 4.12402,21.33936 4.81345,31.98429c0.69612,10.74821 1.35221,19.79493 1.22779,23.41519c-0.03521,1.02462 -0.51532,1.5909 -1.32192,1.59792c-1.7363,0.0151 -8.85489,0.07426 -11.88713,0.09942c-0.84938,0.00705 -1.47436,-0.62368 -1.6373,-1.65031c-0.45136,-2.84384 -0.50812,-8.74165 -0.49466,-12.41688c0.00289,-0.78988 -0.3529,-1.53741 -0.76772,-2.13975c-0.57655,-0.83718 -1.69336,-1.38217 -2.78419,-1.363c-2.02949,0.03567 -5.51141,0.09724 -6.85416,0.15759c-1.29677,0.05828 -2.66984,1.99102 -2.68721,3.16897c-0.0413,2.80163 -0.20931,14.19744 -0.20931,14.19744c0,0 -9.92966,0.27045 -10.74478,0.27753c-0.92526,0.00805 -1.71027,-0.42723 -1.7645,-1.24088z" fill="none" stroke="#000000" stroke-width="10" stroke-linecap="butt"/><path d="M95.64812,174.78869c-0.37959,-5.6952 -1.65202,-29.6093 2.28136,-47.75995c1.01526,-4.68495 3.83009,-18.38649 12.82256,-20.38236c5.43133,-1.20548 15.85842,1.08626 20.00775,12.05479c3.4118,9.0189 4.12402,21.33936 4.81345,31.98429c0.69612,10.74821 1.35221,19.79493 1.22779,23.41519c-0.03521,1.02462 -0.51532,1.5909 -1.32192,1.59792c-1.7363,0.0151 -8.85489,0.07426 -11.88713,0.09942c-0.84938,0.00705 -1.47436,-0.62368 -1.6373,-1.65031c-0.45136,-2.84384 -0.50812,-8.74165 -0.49466,-12.41688c0.00289,-0.78988 -0.35291,-1.53742 -0.76773,-2.13976c-0.57655,-0.83718 -1.69336,-1.38217 -2.78419,-1.36299c-2.02949,0.03567 -5.51141,0.09724 -6.85416,0.15759c-1.29678,0.05828 -2.66984,1.99102 -2.6872,3.16897c-0.04131,2.80163 -0.20932,14.19744 -0.20932,14.19744c0,0 -9.92966,0.27045 -10.74478,0.27753c-0.92526,0.00805 -1.71027,-0.42723 -1.7645,-1.24088z" fill="none" stroke="#000000" stroke-width="10" stroke-linecap="butt"/><path d="M103.93958,132.22909c-0.57705,-1.89179 -0.40584,-4.81895 -0.40584,-6.39135c0,-0.63267 1.1038,-5.94308 4.524,-6.86281c2.56049,-0.68855 8.62574,-0.43331 12.87398,0.75646c2.40261,0.67287 4.34844,6.37121 3.53532,10.87791c-0.63754,3.53352 -2.46236,4.59376 -4.28385,4.59376c-2.1202,0 -7.27273,0.10722 -10.81298,-0.13426c-2.27047,-0.15487 -4.98396,-1.37535 -5.43062,-2.8397z" fill="none" stroke="#000000" stroke-width="10" stroke-linecap="butt"/><path d="M131.83777,119.80231c0,0 4.22196,-0.13374 7.45121,8.27733c2.04199,4.89708 2.68937,18.01058 2.86155,20.05213c0.30436,3.60887 -5.94228,6.21813 -5.94228,6.21813" fill="none" stroke="#000000" stroke-width="10" stroke-linecap="round"/><path d="M145.68483,176.50738c0,0 9.9522,-61.41699 11.3055,-69.21837c0.26349,-1.51892 12.58071,68.50535 12.58071,68.50535" fill="none" stroke="#000000" stroke-width="10" stroke-linecap="round"/><path d="M169.55114,175.79435c0,0 11.26596,-70.02427 11.52944,-68.50535c1.3533,7.80138 9.72861,68.69274 9.72861,68.69274" data-paper-data="{&quot;index&quot;:null}" fill="none" stroke="#000000" stroke-width="10" stroke-linecap="round"/><path d="M216.39531,139.37912c0,15.77214 -2.40786,30.91831 -5.76602,34.87622c-0.55127,0.64972 -2.83527,0.98148 -3.38273,0.90493c-4.64483,-0.64949 -8.77805,-5.62412 -9.24826,-41.56307c-0.24021,-18.3597 3.52611,-27.4641 7.2274,-27.4641c7.11787,0 11.16961,14.88475 11.16961,33.24602z" fill="none" stroke="#000000" stroke-width="10" stroke-linecap="butt"/><path d="M246.88178,106.13308c0,0 0.99737,27.87016 0.85726,40.19944c-0.09355,8.23215 -1.31391,23.58609 -1.72387,28.93491c-0.11319,1.4768 -0.10107,-0.36556 -0.34892,-1.21483c-0.60477,-2.07234 -3.6454,-11.1017 -6.47517,-22.30774c-1.97219,-7.80996 -3.43648,-16.94751 -5.60761,-24.38724c-2.42405,-8.30638 -6.04693,-16.36862 -6.95746,-19.48869c-0.32612,-1.11748 -0.25086,1.02183 -0.26008,2.2164c-0.05154,6.67479 -0.50931,65.9564 -0.50931,65.9564" fill="none" stroke="#000000" stroke-width="10" stroke-linecap="round"/><path d="M283.67575,147.92054c0,0 -4.80284,-0.03887 -6.30957,-0.05346c-1.04425,-0.01011 -1.83393,0.58378 -1.81378,1.61966c0.0964,4.95522 -0.02323,19.66824 -4.63167,24.10502c-2.14199,2.0622 -10.07508,2.12381 -12.67826,-5.80721c-4.46657,-13.60814 -2.9492,-41.03932 0.29369,-52.12689c3.92583,-13.42256 13.83857,-7.6849 13.83857,-7.6849" fill="none" stroke="#000000" stroke-width="10" stroke-linecap="round"/><path d="M346.97938,106.73323c0,0 2.47749,68.1543 -11.82519,68.70577c-17.29295,-0.36167 -15.50751,-68.96858 -15.50751,-68.96858" fill="none" stroke="#000000" stroke-width="10" stroke-linecap="round"/><path d="M376.15179,109.88701c0,0 -15.9713,-12.49168 -20.17019,10.00838c-4.45351,21.64781 24.78105,19.07301 24.06541,39.5597c-0.94901,7.63465 -5.64951,18.01205 -17.44074,15.55035c-11.53255,-2.4077 -7.21682,-23.59374 -7.21682,-23.59374" fill="none" stroke="#000000" stroke-width="10" stroke-linecap="round"/><path d="M376.15179,109.88701c0,0 -15.9713,-12.49168 -20.17019,10.00838c-4.45351,21.64781 24.78105,19.073 24.06541,39.5597c-0.94901,7.63465 -5.64951,18.01205 -17.44074,15.55035c-11.53255,-2.40769 -7.21682,-23.59375 -7.21682,-23.59375" fill="none" stroke="#000000" stroke-width="6" stroke-linecap="round"/><path d="M346.97938,106.73323c0,0 2.47749,68.1543 -11.82519,68.70577c-17.29295,-0.36168 -15.50751,-68.96858 -15.50751,-68.96858" fill="none" stroke="#000000" stroke-width="6" stroke-linecap="round"/><path d="M283.67575,147.92054c0,0 -4.80284,-0.03887 -6.30957,-0.05346c-1.04425,-0.01011 -1.83393,0.58378 -1.81378,1.61966c0.0964,4.95522 -0.02323,19.66824 -4.63167,24.10502c-2.14199,2.0622 -10.07508,2.12381 -12.67826,-5.80721c-4.46657,-13.60814 -2.9492,-41.03932 0.29369,-52.12689c3.92583,-13.42256 13.83857,-7.6849 13.83857,-7.6849" fill="none" stroke="#000000" stroke-width="6" stroke-linecap="round"/><path d="M283.67575,147.92055c0,0 -4.80284,-0.03887 -6.30957,-0.05346c-1.04425,-0.01011 -1.83393,0.58376 -1.81378,1.61965c0.09641,4.95522 -0.02321,19.66824 -4.63166,24.10502c-5.81723,5.60054 -12.85864,-3.08621 -13.71026,-6.09659c-0.82372,-2.91172 -3.8072,-34.28794 1.32569,-51.83752c3.92582,-13.42255 13.83857,-7.6849 13.83857,-7.6849" fill="none" stroke="#ffffff" stroke-width="4" stroke-linecap="round"/><path d="M246.88176,106.13307c0,0 0.99737,27.87016 0.85726,40.19944c-0.09355,8.23215 -1.05109,23.58609 -1.46106,28.93491c-0.11319,1.4768 -0.36388,-0.36556 -0.61173,-1.21483c-0.60477,-2.07233 -3.6454,-11.10169 -6.47517,-22.30773c-1.97219,-7.80996 -3.43649,-16.94751 -5.60761,-24.38724c-2.42404,-8.30639 -4.99567,-14.52893 -5.9062,-17.649c-0.32612,-1.11748 -1.30211,-3.1832 -1.31133,-1.98863c-0.05154,6.67479 -0.50931,68.32173 -0.50931,68.32173" fill="none" stroke="#000000" stroke-width="6" stroke-linecap="round"/><path d="M216.39531,139.37912c0,18.36127 -3.78893,35.87417 -7.49021,35.87417c-5.27817,0 -10.38117,-1.48122 -10.9068,-41.65609c-0.24021,-18.3597 3.52612,-27.4641 7.2274,-27.4641c7.11787,0 11.16961,14.88475 11.16961,33.24602z" fill="none" stroke="#000000" stroke-width="6" stroke-linecap="butt"/><path d="M145.68483,176.50738c0,0 9.9522,-61.41699 11.3055,-69.21837c0.26349,-1.51892 12.58071,68.50535 12.58071,68.50535" fill="none" stroke="#000000" stroke-width="6" stroke-linecap="round"/><path d="M169.55114,175.53154c0,0 11.26596,-69.76145 11.52945,-68.24253c1.3533,7.80138 9.72861,68.69274 9.72861,68.69274" data-paper-data="{&quot;index&quot;:null}" fill="none" stroke="#000000" stroke-width="6" stroke-linecap="round"/><path d="M131.83777,119.80231c0,0 4.22196,-0.13374 7.45121,8.27733c2.04199,4.89708 2.68937,18.01058 2.86155,20.05213c0.30436,3.60887 -5.94228,6.21813 -5.94228,6.21813" fill="none" stroke="#000000" stroke-width="6" stroke-linecap="round"/><path d="M103.93958,132.22909c-0.57704,-1.89178 -0.40584,-4.81895 -0.40584,-6.39135c0,-0.63267 1.1038,-5.94307 4.524,-6.86281c2.5605,-0.68855 8.62574,-0.4333 12.87398,0.75646c2.4026,0.67288 4.34844,6.37122 3.53532,10.8779c-0.63753,3.53352 -2.46236,4.59375 -4.28385,4.59375c-2.1202,0 -7.27273,0.10722 -10.81298,-0.13426c-2.27048,-0.15488 -4.98396,-1.37535 -5.43062,-2.8397z" fill="none" stroke="#000000" stroke-width="6" stroke-linecap="butt"/><path d="M95.64812,174.78869c-0.37959,-5.6952 -1.65202,-29.6093 2.28136,-47.75995c1.01526,-4.68495 3.83009,-18.38649 12.82256,-20.38236c5.43133,-1.20548 15.85842,1.08626 20.00775,12.05479c3.4118,9.0189 4.12402,21.33936 4.81345,31.98429c0.69612,10.74821 1.35221,19.79493 1.22779,23.41519c-0.03521,1.02462 -0.51532,1.5909 -1.32192,1.59792c-1.7363,0.0151 -8.85489,0.07426 -11.88713,0.09942c-0.84938,0.00705 -1.47436,-0.62368 -1.6373,-1.65031c-0.45136,-2.84384 -0.50812,-8.74165 -0.49466,-12.41688c0.00289,-0.78988 -0.3529,-1.53741 -0.76772,-2.13975c-0.57655,-0.83718 -1.69336,-1.38217 -2.78419,-1.363c-2.02949,0.03567 -5.51141,0.09724 -6.85416,0.15759c-1.29677,0.05828 -2.66984,1.99102 -2.68721,3.16897c-0.0413,2.80163 -0.20931,14.19744 -0.20931,14.19744c0,0 -9.92966,0.27045 -10.74478,0.27753c-0.92526,0.00805 -1.71027,-0.42723 -1.7645,-1.24088z" fill="none" stroke="#000000" stroke-width="6" stroke-linecap="butt"/><path d="M95.64812,174.78869c-0.37959,-5.6952 -1.65202,-29.6093 2.28136,-47.75995c1.01526,-4.68495 3.83009,-18.38649 12.82256,-20.38236c5.43133,-1.20548 15.85842,1.08626 20.00775,12.05479c3.4118,9.0189 4.12402,21.33936 4.81345,31.98429c0.69612,10.74821 1.35221,19.79493 1.22779,23.41519c-0.03521,1.02462 -0.51532,1.5909 -1.32192,1.59792c-1.7363,0.0151 -8.85489,0.07426 -11.88713,0.09942c-0.84938,0.00705 -1.47436,-0.62368 -1.6373,-1.65031c-0.45136,-2.84384 -0.50812,-8.74165 -0.49466,-12.41688c0.00289,-0.78988 -0.35291,-1.53742 -0.76773,-2.13976c-0.57655,-0.83718 -1.69336,-1.38217 -2.78419,-1.36299c-2.02949,0.03567 -5.51141,0.09724 -6.85416,0.15759c-1.29678,0.05828 -2.66984,1.99102 -2.6872,3.16897c-0.04131,2.80163 -0.20932,14.19744 -0.20932,14.19744c0,0 -9.92966,0.27045 -10.74478,0.27753c-0.92526,0.00805 -1.71027,-0.42723 -1.7645,-1.24088z" fill="none" stroke="#ffffff" stroke-width="4" stroke-linecap="butt"/><path d="M103.93958,132.22909c-0.57705,-1.89179 -0.40584,-4.81895 -0.40584,-6.39135c0,-0.63267 1.1038,-5.94308 4.524,-6.86281c2.56049,-0.68855 8.62574,-0.43331 12.87398,0.75646c2.40261,0.67287 4.34844,6.37121 3.53532,10.87791c-0.63754,3.53352 -2.46236,4.59376 -4.28385,4.59376c-2.1202,0 -7.27273,0.10722 -10.81298,-0.13426c-2.27047,-0.15487 -4.98396,-1.37535 -5.43062,-2.8397z" fill="none" stroke="#ffffff" stroke-width="4" stroke-linecap="butt"/><path d="M131.83777,119.80231c0,0 4.22196,-0.13374 7.45121,8.27733c2.04199,4.89708 2.68937,18.01058 2.86155,20.05213c0.30436,3.60887 -5.94228,6.21813 -5.94228,6.21813" fill="none" stroke="#ffffff" stroke-width="4" stroke-linecap="round"/><path d="M145.68483,176.50738c0,0 9.9522,-61.41699 11.3055,-69.21837c0.26349,-1.51892 12.58071,68.50535 12.58071,68.50535" fill="none" stroke="#ffffff" stroke-width="4" stroke-linecap="round"/><path d="M169.55114,175.79435c0,0 11.26596,-70.02427 11.52944,-68.50535c1.3533,7.80138 9.72861,68.69274 9.72861,68.69274" data-paper-data="{&quot;index&quot;:null}" fill="none" stroke="#ffffff" stroke-width="4" stroke-linecap="round"/><path d="M216.39531,139.37912c0,15.77214 -2.40786,30.91831 -5.76602,34.87622c-0.55127,0.64972 -2.83527,0.98148 -3.38273,0.90493c-4.64483,-0.64949 -8.77805,-5.62412 -9.24826,-41.56307c-0.24021,-18.3597 3.52611,-27.4641 7.2274,-27.4641c7.11787,0 11.16961,14.88475 11.16961,33.24602z" fill="none" stroke="#ffffff" stroke-width="4" stroke-linecap="butt"/><path d="M246.88178,106.13308c0,0 0.99737,27.87016 0.85726,40.19944c-0.09355,8.23215 -1.31391,23.58609 -1.72387,28.93491c-0.11319,1.4768 -0.10107,-0.36556 -0.34892,-1.21483c-0.60477,-2.07234 -3.6454,-11.1017 -6.47517,-22.30774c-1.97219,-7.80996 -3.43648,-16.94751 -5.60761,-24.38724c-2.42405,-8.30638 -6.04693,-16.36862 -6.95746,-19.48869c-0.32612,-1.11748 -0.25086,1.02183 -0.26008,2.2164c-0.05154,6.67479 -0.50931,65.9564 -0.50931,65.9564" fill="none" stroke="#ffffff" stroke-width="4" stroke-linecap="round"/><path d="M283.67575,147.92054c0,0 -4.80284,-0.03887 -6.30957,-0.05346c-1.04425,-0.01011 -1.83393,0.58378 -1.81378,1.61966c0.0964,4.95522 -0.02323,19.66824 -4.63167,24.10502c-2.14199,2.0622 -10.07508,2.12381 -12.67826,-5.80721c-4.46657,-13.60814 -2.9492,-41.03932 0.29369,-52.12689c3.92583,-13.42256 13.83857,-7.6849 13.83857,-7.6849" fill="none" stroke="#ffffff" stroke-width="4" stroke-linecap="round"/><path d="M346.97938,106.73323c0,0 2.47749,68.1543 -11.82519,68.70577c-17.29295,-0.36167 -15.50751,-68.96858 -15.50751,-68.96858" fill="none" stroke="#ffffff" stroke-width="4" stroke-linecap="round"/><path d="M376.15179,109.88701c0,0 -15.9713,-12.49168 -20.17019,10.00838c-4.45351,21.64781 24.78105,19.07301 24.06541,39.5597c-0.94901,7.63465 -5.64951,18.01205 -17.44074,15.55035c-11.53255,-2.4077 -7.21682,-23.59374 -7.21682,-23.59374" fill="none" stroke="#ffffff" stroke-width="4" stroke-linecap="round"/><text transform="translate(89.09134,235.71237) scale(1.11454,1.51288)" font-size="40" xml:space="preserve" fill="#ffffff" fill-rule="nonzero" stroke="#000000" stroke-width="5" stroke-linecap="butt" stroke-linejoin="miter" stroke-miterlimit="10" stroke-dasharray="" stroke-dashoffset="0" font-family="Handwriting" font-weight="normal" text-anchor="start" style="mix-blend-mode: normal"><tspan x="0" dy="0">PLATFORMER</tspan></text><text transform="translate(89.09134,235.46241) scale(1.11454,1.49205)" font-size="40" xml:space="preserve" fill="#ffffff" fill-rule="nonzero" stroke="#000000" stroke-width="0" stroke-linecap="butt" stroke-linejoin="miter" stroke-miterlimit="10" stroke-dasharray="" stroke-dashoffset="0" font-family="Handwriting" font-weight="normal" text-anchor="start" style="mix-blend-mode: normal"><tspan x="0" dy="0">PLATFORMER</tspan></text></g></g></g></svg>