<svg version="1.1" xmlns="http://www.w3.org/2000/svg" xmlns:xlink="http://www.w3.org/1999/xlink" width="114.0383" height="137.68005" viewBox="0,0,114.0383,137.68005"><g transform="translate(-182.37831,-108.11781)"><g data-paper-data="{&quot;isPaintingLayer&quot;:true}" fill-rule="nonzero" stroke-linejoin="miter" stroke-miterlimit="10" stroke-dasharray="" stroke-dashoffset="0" style="mix-blend-mode: normal"><path d="" data-paper-data="{&quot;index&quot;:null}" fill="#66fffc" stroke="none" stroke-width="2.5" stroke-linecap="butt"/><path d="" data-paper-data="{&quot;index&quot;:null}" fill="#4fc4c2" stroke="none" stroke-width="2.5" stroke-linecap="butt"/><path d="" data-paper-data="{&quot;index&quot;:null}" fill="none" stroke="#000000" stroke-width="2.5" stroke-linecap="butt"/><g><path d="M215.52481,199.26212c0,13.21911 -11.77812,7.60198 -17.26104,7.60198c-5.48292,0 -11.28767,-3.6444 -11.28767,-16.86351c0,-13.21911 -3.44298,-31.55108 2.03994,-31.55108c1.6974,0 5.95965,-1.44895 9.92286,-1.62631c2.75697,-0.12338 5.36923,0.36859 6.87271,2.39171c3.31662,4.46293 2.37987,17.43395 2.37987,23.71389z" data-paper-data="{&quot;index&quot;:null}" fill="#9d0000" stroke="none" stroke-width="0" stroke-linecap="butt"/><path d="M187.24807,163.61735v-16.31952h18.22347v16.31952z" data-paper-data="{&quot;index&quot;:null}" fill="#d50000" stroke="none" stroke-width="0" stroke-linecap="butt"/><path d="M221.09252,205.30061l-26.9144,1.12269l-4.07989,-3.5359l-2.71992,-11.42367v-23.11933l1.63196,-18.49546l2.71992,-3.80788l14.68757,-2.44793" data-paper-data="{&quot;index&quot;:null}" fill="none" stroke="#000000" stroke-width="10" stroke-linecap="round"/><path d="M251.94268,229.06998c-1.61664,-4.59207 -4.9811,-14.1488 -4.9811,-14.1488l21.22698,-7.47298c0,0 3.79791,10.78794 5.47921,15.56368c1.43382,4.07276 10.85894,16.32015 5.18956,17.78598c-3.82467,0.98887 -13.32693,5.63958 -15.63535,6.03452c-5.85843,1.0023 -9.74562,-13.40598 -11.2793,-17.7624z" fill="#9d0000" stroke="#000000" stroke-width="10" stroke-linecap="butt"/><path d="M281.5252,182.3892c0,38.07309 -15.77915,36.12732 -37.71085,36.12732c-21.93169,0 -41.71085,1.94578 -41.71085,-36.12732c0,-38.07309 17.77915,-68.93743 39.71085,-68.93743c21.93169,0 39.71085,30.86433 39.71085,68.93743z" fill="#d50000" stroke="none" stroke-width="0" stroke-linecap="butt"/><path d="M216.85113,165.29949c0,25.06001 21.61792,39.46446 44.27767,38.42516c9.76522,-6.05375 12.27825,-36.6259 15.402,-32.84008c8.77741,10.63781 4.44027,35.55224 -3.4963,45.7755c-5.11954,6.5946 -11.73681,-0.34354 -17.29786,3.64626c-0.90055,0.6461 -0.4005,12.02119 -3.8674,13.76777c-14.0593,7.08289 -28.52058,5.77519 -32.206,1.23605c-6.43195,3.75193 -15.66336,-10.52952 -6.178,-17.74915c8.44371,-6.42679 17.37057,-1.2008 10.74202,-1.2008c-1.21859,0 -18.19678,-7.43411 -18.27927,-28.34089c-0.05987,-15.1739 3.28735,-13.20487 3.28735,-22.4193c0,-21.91016 2.24884,-41.77567 4.35188,-41.77567c2.10304,0 3.2639,19.56496 3.2639,41.47512z" fill="#9d0000" stroke="none" stroke-width="0" stroke-linecap="butt"/><path d="M277.91359,161.4608c0,9.07635 0.55871,15.50255 -0.33032,27.98768c-1.35384,19.01288 -3.02748,29.26153 -20.87039,29.35666c-2.25999,0.01205 -2.84085,8.17443 -5.74115,16.93485c-8.79872,3.81731 -47.95801,7.88196 -37.27902,-17.96259c1.48539,-3.59485 24.55041,2.00199 14.20247,-2.08099c0.12121,-0.68679 -14.86671,0.56909 -16.78254,-11.05888c-6.67052,-10.7106 -3.5805,-22.19693 -3.5805,-25.96714c0,-27.63372 2.03154,-72.29325 35.48897,-64.6953c30.13513,6.84348 34.89251,19.85199 34.89251,47.48571z" fill="none" stroke="#000000" stroke-width="10" stroke-linecap="butt"/><path d="M294.09098,152.99573c0,10.5152 -13.50877,19.03945 -30.17268,19.03945c-16.66391,0 -30.17268,-8.52425 -30.17268,-19.03944c0,-10.5152 13.50878,-19.03944 30.17269,-19.03944c16.66391,0 30.17268,8.52425 30.17268,19.03945z" data-paper-data="{&quot;index&quot;:null}" fill="#49646d" stroke="none" stroke-width="0" stroke-linecap="butt"/><path d="M283.02301,155.68703c-2.30604,2.57671 -17.08641,1.65716 -25.9932,1.65716c-8.90678,0 -13.38335,-13.46132 -13.38335,-16.91924c0,-3.45792 19.30259,-3.60518 28.09482,-2.18126c16.79456,2.71992 21.64795,16.61113 11.28172,17.44334z" data-paper-data="{&quot;index&quot;:null}" fill="#95cadc" stroke="none" stroke-width="0" stroke-linecap="butt"/><path d="M280.68455,148.61123c-1.65293,1.84694 -12.24723,0.40798 -18.63146,0.40798c-6.38422,0 -5.30385,-2.82527 -5.30385,-5.30384c0,-2.47858 5.17544,-4.48787 11.55967,-4.48787c6.38422,0 17.2715,3.91323 12.37564,9.38373z" data-paper-data="{&quot;index&quot;:null}" fill="#fefefe" stroke="none" stroke-width="0" stroke-linecap="butt"/><path d="M289.31959,150.55084c1.24478,8.62321 -4.14316,15.02281 -25.15927,18.76746c0,0 -15.9326,1.17124 -21.48228,-3.93769c-9.13242,-8.40712 -8.6509,-26.62609 -4.06819,-28.20463c33.30183,-11.47099 48.93089,1.05179 50.70975,13.37487z" data-paper-data="{&quot;index&quot;:null}" fill="none" stroke="#000000" stroke-width="10" stroke-linecap="butt"/><path d="M261.64505,237.55964c0,0 -2.43551,-3.99263 -4.15343,-6.80891c-2.80799,-4.60326 -11.09657,-18.19109 -11.09657,-18.19109l17.5,-1.25l8.25,19.75z" fill="#9d0000" stroke="none" stroke-width="NaN" stroke-linecap="butt"/><path d="M229.89505,216.80964l17,6" fill="none" stroke="#000000" stroke-width="10" stroke-linecap="round"/></g></g></g></svg>