<svg viewBox="0,0,154,158" height="158" width="154" xmlns:xlink="http://www.w3.org/1999/xlink" xmlns="http://www.w3.org/2000/svg" version="1.1"><defs><linearGradient id="color-1" gradientUnits="userSpaceOnUse" y2="204.77477" x2="240" y1="155.22524" x1="240"><stop stop-color="#132ed2" offset="0"></stop><stop stop-color="#09158e" offset="1"></stop></linearGradient></defs><g transform="translate(-167.5,-100.4)"><g style="mix-blend-mode: normal" stroke-dashoffset="0" stroke-dasharray="" stroke-miterlimit="10" stroke-linejoin="miter" stroke-linecap="butt" fill-rule="nonzero" data-paper-data="{&quot;isPaintingLayer&quot;:true}"><path stroke-width="10" stroke="#000000" fill="url(#color-1)" d="M215.22523,194.88883c0,-9.89983 0,-24.43965 0,-30c0,-4.31732 3.75071,-9.66358 9.02477,-9.66358c10.05042,0 25.63278,0 31.33333,0c4.14806,0 9.19144,5.13211 9.19144,9.33025c0,5.67127 0,20.98952 0,31c0,5.37468 -5.04338,9.2193 -9.19144,9.2193c-5.57597,0 -20.60658,0 -30.66667,0c-5.62183,0 -9.69144,-4.16941 -9.69144,-9.88597z"></path><path stroke-width="4" stroke="#ffffff" fill="#c60909" d="M215.22523,194.88881c0,-9.89983 0,-24.43965 0,-30c0,-4.31732 3.75072,-9.66358 9.02478,-9.66358c10.05042,0 25.63279,0 31.33334,0c4.14805,0 9.19144,5.13211 9.19144,9.33025c0,5.67128 0,20.98952 0,31c0,5.37467 -5.04338,9.2193 -9.19144,9.2193c-5.57597,0 -20.60659,0 -30.66667,0c-5.62184,0 -9.69144,-4.16942 -9.69144,-9.88597z"></path><path stroke-width="0" stroke="none" fill="none" d="M167.5,258.4v-158h154v158z"></path><path stroke-width="0" stroke="none" fill="none" d="M194.5,225.39999v-88h103v88z"></path></g></g></svg>