<svg viewBox="0,0,72.45361,96.67152" height="96.67152" width="72.45361" xmlns:xlink="http://www.w3.org/1999/xlink" xmlns="http://www.w3.org/2000/svg" version="1.1"><g transform="translate(-203.50483,-138.67614)"><g style="mix-blend-mode: normal" stroke-dashoffset="0" stroke-dasharray="" stroke-miterlimit="10" stroke-linejoin="miter" stroke-linecap="butt" fill-rule="nonzero" data-paper-data="{&quot;isPaintingLayer&quot;:true}"><path stroke-width="1" stroke="none" fill="#000000" d=""></path><path stroke-width="1" stroke="none" fill="#000000" d=""></path><path stroke-width="1" stroke="none" fill="#000000" d=""></path><path stroke-width="0.5" stroke="none" fill="#000000" d=""></path><path stroke-width="0.5" stroke="none" fill="#000000" d=""></path><path stroke-width="0.5" stroke="none" fill="#000000" d=""></path><path stroke-width="0.5" stroke="none" fill="#000000" d=""></path><path stroke-width="0.5" stroke="none" fill="#000000" d=""></path><path stroke-width="0.5" stroke="none" fill="#000000" d=""></path><path stroke-width="0.5" stroke="none" fill="#000000" d=""></path><path stroke-width="0.5" stroke="none" fill="#000000" d=""></path><g><path stroke-width="0.5" stroke="none" fill="#e2dd49" d="M211.99939,179.45788c-2.24614,-1.2835 -4.90631,-0.52779 -5.64223,-1.76686c-0.32591,-0.54875 0.72885,-2.89333 0.65449,-3.58602c-0.11841,-1.10295 0.06468,-2.44776 0.49393,-4.2236c0.75347,-3.11712 6.91747,-9.58866 10.22444,-7.38402c3.96868,2.64578 -0.56569,7.62547 -0.73064,10.70831c-0.05326,0.99534 0.22976,3.26375 -0.69092,3.78986z"></path><path stroke-width="0.5" stroke="none" fill="#858000" d="M217.37285,176.4509c2.49645,4.99291 0.60413,11.15285 0.625,16.73505c0.01846,4.9358 0.42354,10.40469 -0.77748,15.20873c-0.93825,3.753 -8.78134,3.23631 -9.84558,-0.2353c-1.83593,-5.98888 -2.99966,-17.96258 -1.44682,-24.17394c-1.45202,-0.87493 -2.42314,-2.46691 -2.42314,-4.28571c0,-2.38462 0.17167,-1.63362 2.40548,-2.13359c1.64342,-1.00844 10.44244,-3.15544 11.46254,-1.11525z"></path><path stroke-width="5" stroke="#000000" fill="none" d="M237.65004,191.69548c-4.28012,0.96586 -8.24997,21.59421 -14.18482,21.37143c-7.92392,-0.29745 -15.34602,-1.72251 -16.98795,-4.4572c-2.19846,-3.66164 -3.56236,-39.24215 1.00843,-43.50411c1.59707,-1.48917 13.29834,-4.25375 20.54327,-4.24835c7.49495,0.00559 12.7884,2.83553 14.54717,4.55753c4.24799,4.15919 -2.38257,25.70672 -4.92611,26.2807z"></path></g><g><path stroke-width="0.5" stroke="none" fill="#e2dd49" d="M258.48311,199.91831c0,4.98039 -10.02743,6.6326 -11.33923,4.79049l-2.44168,-3.81774l-0.53512,0.13378h-0.61553l-0.59715,0.14929h-5.99069l-0.77975,-0.19494l-0.42469,-0.03267l-0.01372,0.00915l-0.07022,-0.0156l-0.20212,-0.01555h-0.00716l-0.00318,-0.0008l-0.08028,-0.00618l-0.16674,-0.05558l-0.86435,-0.21609l-0.54117,-0.12026h-0.05617l-0.4494,-0.11235l-0.07477,-0.01662l-0.00831,-0.00415l-0.46597,-0.11649l-0.08885,-0.04739l-0.77884,-0.05991l-1.49767,-0.49922l-0.30362,-0.19321l-0.35131,-0.07807l-0.99845,-0.49922l-0.61025,-0.52307l-0.68921,-0.41353l-1.01738,-1.01738l-0.05507,-0.01101l-0.0771,-0.12116l-0.09851,-0.09851l-0.59109,-0.98514l-0.6168,-0.96925l-0.04406,-0.13217l-0.07389,-0.12314l0.01478,-0.05418l-0.16607,-0.49822l-0.45793,-0.53425l-0.24961,-0.49922l-0.06294,-0.28324l-0.07667,-0.12778l0.00706,-0.0259l-0.13873,-0.21801l-0.24961,-0.74884l-0.01504,-0.19547l-0.09226,-0.17299l-0.49922,-1.9969v-0.61553l-0.14929,-0.59715v-0.97113l-0.20398,-1.83585l-0.22721,-1.36326l0.03333,-0.41657l-0.10136,-0.40542v-4.18891l-0.15252,-0.32198l-0.20992,-1.04962l-0.44363,-1.5527l-0.02323,-0.69702l-0.16915,-0.67658v-0.29125l-0.23234,-2.78809l0.03419,-0.20939l-0.05146,-0.20583v-6.91251l-0.03115,-0.04673l0.03115,-0.14019v-0.13932l0.27864,-1.11456l0.07038,-0.31671l-0.00231,-0.04854l0.15252,-0.76258v-2.00102l0.19494,-0.77975l0.06164,-0.80138l0.14645,-0.43934l-0.01478,-0.05418l0.07389,-0.12314l0.04406,-0.13217l0.6168,-0.96925l0.59109,-0.98514l0.09851,-0.09851l0.0771,-0.12116l0.02371,-0.00474l0.17441,-0.26162l0.06125,-0.05568l0.03034,-0.07701l1.12034,-1.56847l0.00376,-0.0677l0.11502,-0.09859l0.00894,-0.01252l0.9175,-0.78157l0.40842,-0.35008c-0.32657,-0.6645 -0.50997,-1.41206 -0.50997,-2.20246c0,-1.00258 0.29508,-1.93624 0.80314,-2.71887l0.00423,-0.07621l0.11384,-0.09757c0.49413,-0.69549 1.16169,-1.25915 1.93961,-1.62792l0.90156,-0.45078l0.53753,-0.11945l0.48586,-0.25913l0.81216,-0.20304l1.3155,-0.4385l0.45314,-0.03486l0.42089,-0.17147l1.15394,-0.16485l0.69156,-0.27662l0.53749,-0.07329l0.49747,-0.21629l1.1107,-0.18512l0.37666,-0.12555l0.80138,-0.06164l0.77975,-0.19494h2.50025l0.64591,-0.12918l0.88302,-0.22076h0.61553l0.59715,-0.14929h1.67066l0.04673,-0.03115l0.14019,0.03115h0.13932l1.11456,0.27864l1.12151,0.24922l0.12461,0.06231l0.13932,0.03483l0.01488,0.02603l0.31432,0.10477l0.30362,0.19321l0.35131,0.07807l0.49922,0.24961l0.23989,0.20562l0.29754,0.10627l0.02822,0.01882l0.15824,0.03956l0.48586,0.25913l0.53753,0.11945l0.99845,0.49922l0.23915,0.20499l0.34828,-0.09499l0.5509,0.33054l0.62327,0.15582l0.18969,0.33196l0.16643,0.09986l0.74812,0.29925l0.424,0.30622l0.49255,0.17591l0.6939,0.4626l0.07653,0.00425l0.84178,0.98207l0.87008,0.95709l-0.00527,0.07646l0.26807,0.53614l0.07367,0.09823l0.65194,0.16298l0.09795,0.17142l0.19713,0.01095l1.67705,1.95656l0.16374,0.32747l0.65004,1.0834l0.11788,0.38732l0.23704,0.32821l0.49922,1.24806l0.05535,0.4059l0.1832,0.3664l0.44327,1.99472l0.41766,1.25298l0.00854,0.11105l0.05566,0.09648l0.49922,1.74728l0.02323,0.69702l0.16915,0.67658v1.64156l0.1356,0.9492l0.10704,0.32112l0.02423,0.31502l0.13525,0.28554l0.24961,1.24806l-0.00676,0.14191l0.0536,0.13157l0.24961,1.74728l-0.03703,0.35797l0.08728,0.34914v1.41542l0.42689,3.20169l0.45249,2.03621l-0.00151,0.05736l0.09155,0.41196l0.27864,1.11456v0.13932l0.03115,0.14019l-0.03115,0.04673v3.16833l-0.10136,0.40542l0.03333,0.41657l-0.18158,1.08949v0.58464l-0.14929,0.59715v0.61553l-0.34994,1.39975v0.38292l-0.19494,0.77975l-0.05467,0.71076v0.00716l-0.0008,0.00318l-0.00618,0.08028l-0.05558,0.16674l-0.17669,0.70675l0.1006,0.36886l-0.33054,0.5509l-0.15582,0.62327l-0.33196,0.18969l-0.0044,0.00734l-0.04406,0.13217l-0.43151,0.67809l-0.3119,0.74077l-0.74884,0.99845l-0.27931,0.22694l-0.18516,0.3086l-0.9968,0.9968l-0.53563,0.71418l-0.65703,0.53384l-0.56946,0.62641l-2.24651,1.49767l-0.29754,0.10627l-0.23989,0.20562l-0.53706,0.26853c0.06618,0.31432 0.10104,0.64765 0.10104,1.00041z"></path><path stroke-width="0.5" stroke="none" fill="#858000" d="M266.88023,209.47148c-0.52434,0.88611 -2.76598,3.05331 -2.85483,3.89815c-0.216,2.05383 0.73598,4.10714 0.04064,6.32851c-1.96939,6.29152 -6.71454,9.09607 -12.89437,6.88899c-4.82541,-1.72336 -2.65919,-6.71596 -2.00078,-10.04836c0.27969,-1.41558 -1.3321,-2.62809 -1.49767,-4.06151c-0.07663,-0.66342 1.6061,-1.47241 0.99401,-1.73952c-1.42912,-0.62367 -11.24992,1.32693 -12.26035,-0.44131l-0.63283,-1.10745c-0.52038,1.17633 -1.08532,2.3522 -1.06515,3.5379c0.05694,3.34586 -0.9309,6.88418 0.18995,10.03722c0.46308,1.3027 2.28806,5.63069 0.36719,6.72833l-0.70301,0.40172c-2.55165,4.21674 -11.93874,3.40488 -14.78783,-0.39392c-4.70992,-6.27989 -2.1248,-15.44831 -2.05543,-22.76405c0.00879,-0.92738 0.00888,-8.60218 1.19015,-9.27719l1.17385,-0.67077c-1.70619,-3.82846 -1.90779,-7.78617 -2.34515,-12.19373c-0.78615,-7.92245 0.4359,-15.3593 2.03523,-22.8059c-0.30291,-0.61848 -0.30291,-1.23063 -0.30291,-1.23063l0.04855,-0.7399c0.70807,-3.53966 1.19659,-6.59111 2.79172,-9.55615c0.07342,-0.35761 0.14581,-0.71581 0.21702,-1.07465l9.06612,-3.54796c0,0 -4.58818,9.18418 -5.99212,18.01795c-1.57723,9.92413 0.01386,19.66769 0.10181,20.54007c0.1934,1.91844 -0.13708,6.02083 2.38087,8.89596c2.30734,2.63466 5.40974,5.11719 7.06224,5.47597c4.67293,1.01454 18.20017,3.04776 20.45142,1.4787c1.02769,-0.71627 6.07053,-5.70572 8.78505,-9.15694c2.39516,-3.04519 3.94241,-6.66882 5.40723,-6.2503c3.12495,0.89284 0.14749,9.89889 -0.62103,11.82033c0,0 -0.31533,0.78832 -1.02656,1.39793c1.45393,3.36334 0.1944,9.14949 -1.26303,11.6125z"></path><path stroke-width="5" stroke="#000000" fill="none" d="M262.31258,226.98636c-0.42901,1.18753 -12.86573,2.92359 -14.3861,0.05823c-1.00865,-1.90094 -1.85621,-9.28121 -0.80696,-13.69895c0.49303,-2.07582 3.05341,-3.53434 3.05341,-3.53434c0,0 -13.15959,0.09466 -13.8487,1.19743c-2.06596,3.30614 2.08748,15.15589 -1.24416,19.10307c-4.15246,4.91964 -15.19878,1.89866 -15.74049,0.91538c-3.28203,-5.9573 -0.41093,-46.14589 -0.41093,-53.87995c0,-11.12219 -0.36085,-22.52108 5.92696,-29.35521c5.35882,-5.82443 7.99652,-6.61588 15.71567,-6.61588c3.98591,0 14.47849,1.44081 20.01206,6.33644c5.04973,4.46758 5.24656,11.97912 7.09851,20.55256c4.66024,21.57425 -3.32182,53.25382 -5.36926,58.92121z"></path></g><path stroke-width="1" stroke="none" fill="#000000" d=""></path><path stroke-width="1" stroke="none" fill="#000000" d=""></path><path stroke-width="1" stroke="none" fill="#000000" d=""></path><path stroke-width="0.5" stroke="none" fill="#000000" d=""></path><path stroke-width="0.5" stroke="none" fill="#000000" d=""></path><path stroke-width="0.5" stroke="none" fill="#000000" d=""></path><path stroke-width="0.5" stroke="none" fill="#000000" d=""></path><path stroke-width="0.5" stroke="none" fill="#000000" d=""></path><path stroke-width="0.5" stroke="none" fill="#000000" d=""></path><path stroke-width="0.5" stroke="none" fill="#000000" d=""></path><path stroke-width="0.5" stroke="none" fill="#000000" d=""></path><g><path stroke-width="0.5" stroke="none" fill="#97c8d7" d="M257.8528,154.51996c1.47561,0 2.77815,0.87293 3.55571,2.20431c1.06003,-0.30736 2.10363,-0.40236 2.53992,-0.28815c0.44501,0.11648 0.85808,0.32766 1.23798,0.61608l1.70923,-0.50333h0.43061l2.1564,0.63502l0.58811,1.2123l1.02919,0.69275l0.2902,1.36735l0.05942,0.06096l0.01094,0.27053l0.17854,0.84123v0.50723l-0.10417,0.49088l0.02043,0.50542l-0.2153,1.26806l-0.2466,0.61323l-0.12496,0.66239l-0.2721,0.64105l0.12318,0.58041l0.63553,1.2477l0.64719,2.5048l-0.04231,0.08884l0.00973,0.02005l-1.05426,2.17322l-1.03962,2.18299l-0.01961,0.00049l-0.0429,0.08844l-1.94871,0.57386l-0.0012,0.00127l-0.00238,-0.00021l-0.20409,0.0601h-0.64592l-0.67258,-0.19807l-0.69124,-0.06263l-1.20293,-0.47232l-1.34795,-0.45365l-0.79151,-0.23309l-0.65123,-0.40912l-0.69507,-0.29241l-0.03916,-0.03074l-0.29552,0.11603l-0.5818,0.05272l-0.01753,0.00459l-0.26189,0.19631l-0.64591,0.25362l-0.55979,0.05072l-0.51673,0.20289l-0.69124,0.06263l-0.67258,0.19807h-0.22149l-0.09043,0.00819l-0.14922,0.09374l-0.86123,0.25361h-0.53093l-0.51509,0.15168h-0.6521l-0.61308,0.05555l-0.67258,0.19807h-4.30612l-0.41674,-0.12272l-0.42908,0.02407l-1.07653,-0.25362l-0.47201,-0.26336l-1.03513,-0.24386l-0.75733,-0.42256l-0.78918,-0.332l-0.42251,-0.33179l-0.19045,-0.11218l-0.52638,-0.53145l-0.59449,-0.42016l-0.43061,-0.50723l-0.11284,-0.22154l-0.02332,-0.02355l-0.00115,-0.02451l-0.30044,-0.58979l-0.28633,-0.19273l-0.1344,-0.63327l-0.28511,-0.55973l0.08678,-0.37477l-0.20636,-0.9723v-0.42938l-0.02688,-0.04748l0.02688,-0.14243v-0.14156l0.24034,-1.13243l0.21497,-1.13949l0.05375,-0.12661l0.03004,-0.14156l0.04206,-0.0283l0.08946,-0.21076l0.22916,-0.31492l0.01193,-0.25306l0.13228,-0.13356c-0.43607,-1.29571 -0.86147,-2.88341 -0.69207,-3.61508c-0.08918,-0.40697 -0.13663,-0.83369 -0.13663,-1.27347c0,-2.74147 1.84353,-4.97575 4.14998,-5.07659c0.42763,-0.17711 0.86339,-0.16136 1.30644,0.13731c0.03884,0.02618 0.07718,0.05248 0.11502,0.07887c0.60166,0.21591 1.14754,0.58256 1.60592,1.06263l0.91081,-0.23842l0.96138,-0.2831h0.12017l0.12092,-0.03166l0.04031,0.03166h2.8821l0.04031,-0.03166l0.12091,0.03166h0.12017l0.86123,0.25361h0.2153c0.56597,0 1.10646,0.12842 1.60165,0.36186c0.73973,-0.70229 1.6804,-1.1227 2.70446,-1.1227z"></path><path stroke-width="0.5" stroke="none" fill="#4b636d" d="M270.75314,177.34243c-0.90861,3.99025 -7.69715,4.93964 -10.53198,4.58353c-0.16313,-0.0205 -0.34085,-0.02874 -0.52298,-0.03697c-0.45543,-0.06484 -0.88899,-0.2133 -1.28931,-0.43196c-0.17097,0.0904 -0.34779,0.17297 -0.5303,0.24696c-0.66438,0.26938 -3.41072,-1.01212 -4.21174,-1.0461c-6.31509,-0.26793 -14.65501,-1.54513 -17.21436,-9.69471c-0.8514,-2.71104 -2.36893,-10.58872 -0.40223,-11.9125c0.75022,-1.49733 2.13394,-2.5018 3.71685,-2.5018c0.36705,0 1.73288,0.0079 1.73288,0.0079c-0.8676,4.60434 3.02685,10.03348 6.04437,12.57226c4.37439,3.68037 13.74436,3.72319 19.78686,1.47252c3.49751,-1.30274 5.64688,-5.00723 5.67199,-4.98752c0,0 -1.76052,9.57852 -2.25006,11.7284z"></path><path stroke-width="5" stroke="#000000" fill="none" d="M270.54016,176.63167c-4.03935,3.75977 -12.30187,3.98298 -16.32621,3.98298c-2.80623,0 -9.25993,-0.48915 -13.27627,-3.38426c-3.43406,-2.47538 -4.67807,-7.2199 -4.86146,-9.26563c-0.19358,-2.15962 -0.13553,-7.85564 3.19633,-10.38518c4.09743,-3.11075 11.88746,-2.87097 14.94139,-2.87097c2.78888,0 10.72052,-1.01492 14.79125,2.05847c3.50474,2.64607 4.45325,8.94368 4.45325,10.54366c0,0 -0.71197,7.26731 -2.91828,9.32093z"></path><path stroke-width="0.5" stroke="none" fill="#ffffff" d="M267.89966,163.72722c0,2.41253 -2.63019,1.91195 -2.63019,1.91195c-3.71235,0 -7.36927,-0.87601 -11.08161,-0.87601c0,0 -2.47874,0 -2.47874,-2.41252c0,-2.41253 1.73627,-2.65341 1.73627,-2.65341c1.37168,-0.69054 6.32538,-1.05738 9.9585,0.06318c2.70353,0.83384 4.4958,2.93751 4.4958,3.96682z"></path></g></g></g></svg>