<svg version="1.1" xmlns="http://www.w3.org/2000/svg" xmlns:xlink="http://www.w3.org/1999/xlink" width="576.41666" height="434.51695" viewBox="0,0,576.41666,434.51695"><defs><linearGradient x1="-7.49996" y1="117.26695" x2="119.50004" y2="117.26695" gradientUnits="userSpaceOnUse" id="color-1"><stop offset="0" stop-color="#91f0ff"/><stop offset="1" stop-color="#91f0ff" stop-opacity="0"/></linearGradient><radialGradient cx="171.81234" cy="221.40077" r="68.03697" gradientUnits="userSpaceOnUse" id="color-2"><stop offset="0" stop-color="#ffffff"/><stop offset="1" stop-color="#ffffff" stop-opacity="0"/></radialGradient><linearGradient x1="171.35625" y1="219.19594" x2="259.00014" y2="219.19594" gradientUnits="userSpaceOnUse" id="color-3"><stop offset="0" stop-color="#ffffff"/><stop offset="1" stop-color="#ffffff" stop-opacity="0"/></linearGradient><linearGradient x1="171.60456" y1="219.56722" x2="83.96058" y2="219.56722" gradientUnits="userSpaceOnUse" id="color-4"><stop offset="0" stop-color="#ffffff"/><stop offset="1" stop-color="#ffffff" stop-opacity="0"/></linearGradient><linearGradient x1="171.59532" y1="219.19311" x2="213.67841" y2="296.07265" gradientUnits="userSpaceOnUse" id="color-5"><stop offset="0" stop-color="#ffffff"/><stop offset="1" stop-color="#ffffff" stop-opacity="0"/></linearGradient><linearGradient x1="171.38885" y1="219.5891" x2="129.30579" y2="142.70956" gradientUnits="userSpaceOnUse" id="color-6"><stop offset="0" stop-color="#ffffff"/><stop offset="1" stop-color="#ffffff" stop-opacity="0"/></linearGradient><linearGradient x1="171.26968" y1="219.19311" x2="129.18663" y2="296.07272" gradientUnits="userSpaceOnUse" id="color-7"><stop offset="0" stop-color="#ffffff"/><stop offset="1" stop-color="#ffffff" stop-opacity="0"/></linearGradient><linearGradient x1="171.47614" y1="219.5891" x2="213.55924" y2="142.70956" gradientUnits="userSpaceOnUse" id="color-8"><stop offset="0" stop-color="#ffffff"/><stop offset="1" stop-color="#ffffff" stop-opacity="0"/></linearGradient><linearGradient x1="493.50005" y1="117.26695" x2="366.50005" y2="117.26695" gradientUnits="userSpaceOnUse" id="color-9"><stop offset="0" stop-color="#31daff"/><stop offset="1" stop-color="#31daff" stop-opacity="0"/></linearGradient></defs><g transform="translate(48.20829,28.73305)"><g data-paper-data="{&quot;isPaintingLayer&quot;:true}" fill-rule="nonzero" stroke-linejoin="miter" stroke-miterlimit="10" stroke-dasharray="" stroke-dashoffset="0" style="mix-blend-mode: normal"><path d="M-29.49996,386.125v-71h546v71z" fill="#1a1a1a" stroke="#000000" stroke-width="3.5" stroke-linecap="butt"/><path d="M-38.79163,313.125v-245h541v245z" fill="#3f3f3f" stroke="none" stroke-width="0" stroke-linecap="butt"/><path d="M389.03936,194.10528c6.16516,-0.73709 9.52057,-18.22602 16.00609,-18.2063c7.43057,0.02259 15.11386,17.05733 23.00856,17.10301c15.59447,0.09024 149.97242,12.23885 -7.01018,12.75937c-5.10141,0.01692 -10.1059,10.02687 -15.00177,10.02938c-6.51457,0.00334 -6.83682,-9.46347 -12.93924,-10.18351c-20.52283,-2.42155 -22.23482,-9.32943 -4.06346,-11.50195z" fill="#000000" stroke="none" stroke-width="0" stroke-linecap="butt"/><path d="M281.03934,194.10528c6.16516,-0.73709 11.52057,-18.22602 18.00609,-18.2063c7.43057,0.02259 13.11386,17.05733 21.00856,17.10301c15.59447,0.09024 149.97242,12.23885 -7.01018,12.75937c-5.10141,0.01692 -10.1059,10.02687 -15.00177,10.02938c-6.51457,0.00334 -6.83682,-9.46347 -12.93924,-10.18351c-20.52283,-2.42155 -22.23482,-9.32943 -4.06346,-11.50195z" fill="#000000" stroke="none" stroke-width="0" stroke-linecap="butt"/><path d="M174.03936,193.10528c6.16516,-0.73709 11.52057,-18.22602 18.00609,-18.2063c7.43057,0.02259 13.11386,17.05733 21.00856,17.10301c15.59447,0.09024 149.97242,12.23885 -7.01018,12.75937c-5.10141,0.01692 -9.1059,12.02687 -14.00177,12.02938c-6.51457,0.00334 -7.83683,-11.46347 -13.93924,-12.18351c-20.52283,-2.42155 -22.23482,-9.32943 -4.06346,-11.50195z" fill="#000000" stroke="none" stroke-width="0" stroke-linecap="butt"/><path d="M-48.20829,208.125v-16c0,0 17.81725,-11 39.25,-11c7.41178,0 16.3246,12.10542 29.98196,12.29561c13.32575,0.18558 30.84432,2.85719 49.01568,0.68467c4.28399,-0.51218 5.17699,-11.28445 9.32986,-13.53221c1.8236,-0.98703 5.69731,-3.6801 7.67623,-3.67409c7.43057,0.02259 14.11386,16.05733 22.00856,16.10301c15.59448,0.09024 149.97242,12.23885 -7.01018,12.75937c-5.10141,0.01692 -10.1059,10.02687 -15.00177,10.02938c-6.51457,0.00334 -6.83683,-9.46347 -12.93924,-10.18351c-20.52282,-2.42155 -44.55924,1.29287 -59.06196,1.3947c-11.33358,0.07958 -21.50044,7.12307 -27.99913,7.12307c-21.88939,0 -35.25,-6 -35.25,-6z" fill="#000000" stroke="none" stroke-width="0" stroke-linecap="butt"/><path d="M-14.37496,318.125c0,0 0,-76.1729 0,-95c0,-7.96427 20.61519,-19 20.61519,-19h54.56962c0,0 20.61519,11.03573 20.61519,19c0,18.8271 0,95 0,95z" fill="none" stroke="#000000" stroke-width="15" stroke-linecap="butt"/><path d="M-13.70829,314.625c0,0 0,-76.1729 0,-95c0,-7.96427 20.61519,-19 20.61519,-19h54.56962c0,0 20.61519,11.03573 20.61519,19c0,18.8271 0,95 0,95z" fill="none" stroke="#070707" stroke-width="11.5" stroke-linecap="butt"/><path d="M-13.70829,317.125c0,0 0,-76.1729 0,-95c0,-7.96427 20.61519,-19 20.61519,-19h54.56962c0,0 20.61519,11.03573 20.61519,19c0,18.8271 0,95 0,95z" fill="none" stroke="#262626" stroke-width="5" stroke-linecap="butt"/><path d="M91.62504,318.125c0,0 0,-76.1729 0,-95c0,-7.96427 20.61519,-19 20.61519,-19h54.56962c0,0 20.61519,11.03573 20.61519,19c0,18.8271 0,95 0,95z" fill="none" stroke="#000000" stroke-width="15" stroke-linecap="butt"/><path d="M92.29172,314.625c0,0 0,-76.1729 0,-95c0,-7.96427 20.61519,-19 20.61519,-19h54.56962c0,0 20.61519,11.03573 20.61519,19c0,18.8271 0,95 0,95z" fill="none" stroke="#070707" stroke-width="11.5" stroke-linecap="butt"/><path d="M92.29172,317.125c0,0 0,-76.1729 0,-95c0,-7.96427 20.61519,-19 20.61519,-19h54.56962c0,0 20.61519,11.03573 20.61519,19c0,18.8271 0,95 0,95z" fill="none" stroke="#262626" stroke-width="5" stroke-linecap="butt"/><path d="M197.62505,318.125c0,0 0,-76.1729 0,-95c0,-7.96427 20.61519,-19 20.61519,-19h54.56962c0,0 20.61519,11.03573 20.61519,19c0,18.8271 0,95 0,95z" fill="none" stroke="#000000" stroke-width="15" stroke-linecap="butt"/><path d="M198.29173,314.625c0,0 0,-76.1729 0,-95c0,-7.96427 20.61519,-19 20.61519,-19h54.56962c0,0 20.61519,11.03573 20.61519,19c0,18.8271 0,95 0,95z" fill="none" stroke="#070707" stroke-width="11.5" stroke-linecap="butt"/><path d="M198.29173,317.125c0,0 0,-76.1729 0,-95c0,-7.96427 20.61519,-19 20.61519,-19h54.56962c0,0 20.61519,11.03573 20.61519,19c0,18.8271 0,95 0,95z" fill="none" stroke="#262626" stroke-width="5" stroke-linecap="butt"/><path d="M-44.15842,358.39246l9.43586,-106.17613l521.96686,46.38713l-9.43586,106.17613z" fill="#00ff89" stroke="none" stroke-width="0" stroke-linecap="butt"/><path d="M-44.32388,359.39677l6.16058,-69.32139l521.96687,46.38713l-6.16058,69.32139z" fill="#456500" stroke="none" stroke-width="0" stroke-linecap="butt"/><path d="M-37.83957,286.40409l1.48439,-16.70294l521.96686,46.38713l-1.48439,16.70294z" fill="#26a542" stroke="none" stroke-width="0" stroke-linecap="butt"/><path d="M-39.44075,304.44984l1.62451,-18.27964l521.96687,46.38713l-1.62451,18.27964z" fill="#1f8836" stroke="none" stroke-width="0" stroke-linecap="butt"/><path d="M303.62501,318.125c0,0 0,-76.1729 0,-95c0,-7.96427 20.61519,-19 20.61519,-19h54.56962c0,0 20.61519,11.03573 20.61519,19c0,18.8271 0,95 0,95z" fill="none" stroke="#000000" stroke-width="15" stroke-linecap="butt"/><path d="M304.2917,314.625c0,0 0,-76.1729 0,-95c0,-7.96427 20.61519,-19 20.61519,-19h54.56962c0,0 20.61519,11.03573 20.61519,19c0,18.8271 0,95 0,95z" fill="none" stroke="#070707" stroke-width="11.5" stroke-linecap="butt"/><path d="M304.2917,317.125c0,0 0,-76.1729 0,-95c0,-7.96427 20.61519,-19 20.61519,-19h54.56962c0,0 20.61519,11.03573 20.61519,19c0,18.8271 0,95 0,95z" fill="none" stroke="#262626" stroke-width="5" stroke-linecap="butt"/><path d="M410.62505,317.125c0,0 0,-76.1729 0,-95c0,-7.96427 20.61519,-19 20.61519,-19h54.56962c0,0 20.61519,11.03573 20.61519,19c0,18.8271 0,95 0,95z" fill="none" stroke="#000000" stroke-width="15" stroke-linecap="butt"/><path d="M411.29173,313.625c0,0 0,-76.1729 0,-95c0,-7.96427 20.61519,-19 20.61519,-19h54.56962c0,0 20.61519,11.03573 20.61519,19c0,18.8271 0,95 0,95z" fill="none" stroke="#070707" stroke-width="11.5" stroke-linecap="butt"/><path d="M411.29173,316.125c0,0 0,-76.1729 0,-95c0,-7.96427 20.61519,-19 20.61519,-19h54.56962c0,0 20.61519,11.03573 20.61519,19c0,18.8271 0,95 0,95z" fill="none" stroke="#262626" stroke-width="5" stroke-linecap="butt"/><path d="M80.42505,77.625c0,0 0,76.1729 0,95c0,7.96427 -20.61519,19 -20.61519,19h-54.56962c0,0 -20.61519,-11.03573 -20.61519,-19c0,-18.8271 0,-95 0,-95z" data-paper-data="{&quot;index&quot;:null}" fill="none" stroke="#000000" stroke-width="15" stroke-linecap="butt"/><path d="M-23.16829,369.78978v-106.59459h524.02402v106.59459z" fill="#00ff89" stroke="none" stroke-width="0" stroke-linecap="butt"/><path d="M-23.2442,370.80481v-69.5946h524.02403v69.5946z" fill="#456500" stroke="none" stroke-width="0" stroke-linecap="butt"/><path d="M-23.24673,297.52467v-16.76877h524.02402v16.76877z" fill="#26a542" stroke="none" stroke-width="0" stroke-linecap="butt"/><path d="M-23.2442,315.64131v-18.35168h524.02403v18.35168z" fill="#1f8836" stroke="none" stroke-width="0" stroke-linecap="butt"/><path d="M81.09168,81.125c0,0 0,76.1729 0,95c0,7.96427 -20.61519,19 -20.61519,19h-54.56962c0,0 -20.61519,-11.03573 -20.61519,-19c0,-18.8271 0,-95 0,-95z" data-paper-data="{&quot;index&quot;:null}" fill="none" stroke="#070707" stroke-width="11.5" stroke-linecap="butt"/><path d="M81.09168,78.625c0,0 0,76.1729 0,95c0,7.96427 -20.61519,19 -20.61519,19h-54.56962c0,0 -20.61519,-11.03573 -20.61519,-19c0,-18.8271 0,-95 0,-95z" data-paper-data="{&quot;index&quot;:null}" fill="none" stroke="#262626" stroke-width="5" stroke-linecap="butt"/><path d="M186.42503,77.625c0,0 0,76.1729 0,95c0,7.96427 -20.61519,19 -20.61519,19h-54.56962c0,0 -20.61519,-11.03573 -20.61519,-19c0,-18.8271 0,-95 0,-95z" data-paper-data="{&quot;index&quot;:null}" fill="none" stroke="#000000" stroke-width="15" stroke-linecap="butt"/><path d="M187.09173,81.125c0,0 0,76.1729 0,95c0,7.96427 -20.61519,19 -20.61519,19h-54.56962c0,0 -20.61519,-11.03573 -20.61519,-19c0,-18.8271 0,-95 0,-95z" data-paper-data="{&quot;index&quot;:null}" fill="none" stroke="#070707" stroke-width="11.5" stroke-linecap="butt"/><path d="M187.09173,78.625c0,0 0,76.1729 0,95c0,7.96427 -20.61519,19 -20.61519,19h-54.56962c0,0 -20.61519,-11.03573 -20.61519,-19c0,-18.8271 0,-95 0,-95z" data-paper-data="{&quot;index&quot;:null}" fill="none" stroke="#262626" stroke-width="5" stroke-linecap="butt"/><path d="M292.42503,77.625c0,0 0,76.1729 0,95c0,7.96427 -20.61519,19 -20.61519,19h-54.56962c0,0 -20.61519,-11.03573 -20.61519,-19c0,-18.8271 0,-95 0,-95z" data-paper-data="{&quot;index&quot;:null}" fill="none" stroke="#000000" stroke-width="15" stroke-linecap="butt"/><path d="M293.09169,81.125c0,0 0,76.1729 0,95c0,7.96427 -20.61519,19 -20.61519,19h-54.56962c0,0 -20.61519,-11.03573 -20.61519,-19c0,-18.8271 0,-95 0,-95z" data-paper-data="{&quot;index&quot;:null}" fill="none" stroke="#070707" stroke-width="11.5" stroke-linecap="butt"/><path d="M293.09169,78.625c0,0 0,76.1729 0,95c0,7.96427 -20.61519,19 -20.61519,19h-54.56962c0,0 -20.61519,-11.03573 -20.61519,-19c0,-18.8271 0,-95 0,-95z" data-paper-data="{&quot;index&quot;:null}" fill="none" stroke="#262626" stroke-width="5" stroke-linecap="butt"/><path d="M398.42506,77.625c0,0 0,76.1729 0,95c0,7.96427 -20.61519,19 -20.61519,19h-54.56962c0,0 -20.61519,-11.03573 -20.61519,-19c0,-18.8271 0,-95 0,-95z" data-paper-data="{&quot;index&quot;:null}" fill="none" stroke="#000000" stroke-width="15" stroke-linecap="butt"/><path d="M399.09175,81.125c0,0 0,76.1729 0,95c0,7.96427 -20.61519,19 -20.61519,19h-54.56962c0,0 -20.61519,-11.03573 -20.61519,-19c0,-18.8271 0,-95 0,-95z" data-paper-data="{&quot;index&quot;:null}" fill="none" stroke="#070707" stroke-width="11.5" stroke-linecap="butt"/><path d="M399.09175,78.625c0,0 0,76.1729 0,95c0,7.96427 -20.61519,19 -20.61519,19h-54.56962c0,0 -20.61519,-11.03573 -20.61519,-19c0,-18.8271 0,-95 0,-95z" data-paper-data="{&quot;index&quot;:null}" fill="none" stroke="#262626" stroke-width="5" stroke-linecap="butt"/><path d="M505.42505,78.625c0,0 0,76.1729 0,95c0,7.96427 -20.61519,19 -20.61519,19h-54.56962c0,0 -20.61519,-11.03573 -20.61519,-19c0,-18.8271 0,-95 0,-95z" data-paper-data="{&quot;index&quot;:null}" fill="none" stroke="#000000" stroke-width="15" stroke-linecap="butt"/><path d="M506.09174,82.125c0,0 0,76.1729 0,95c0,7.96427 -20.61519,19 -20.61519,19h-54.56962c0,0 -20.61519,-11.03573 -20.61519,-19c0,-18.8271 0,-95 0,-95z" data-paper-data="{&quot;index&quot;:null}" fill="none" stroke="#070707" stroke-width="11.5" stroke-linecap="butt"/><path d="M506.09174,79.625c0,0 0,76.1729 0,95c0,7.96427 -20.61519,19 -20.61519,19h-54.56962c0,0 -20.61519,-11.03573 -20.61519,-19c0,-18.8271 0,-95 0,-95z" data-paper-data="{&quot;index&quot;:null}" fill="none" stroke="#262626" stroke-width="5" stroke-linecap="butt"/><path d="M-12.79163,71.125v-99h541v99z" fill="#272727" stroke="none" stroke-width="0" stroke-linecap="butt"/><path d="M7.29171,73.125v-86h58v86z" fill="none" stroke="#000000" stroke-width="3.5" stroke-linecap="butt"/><path d="M65.29166,74.125v-86h58v86z" fill="none" stroke="#000000" stroke-width="3.5" stroke-linecap="butt"/><path d="M-7.49996,255.26695v-284h127v292z" fill="url(#color-1)" stroke="none" stroke-width="0" stroke-linecap="butt"/><path d="M123.29172,74.125v-86h58v86z" fill="none" stroke="#000000" stroke-width="3.5" stroke-linecap="butt"/><path d="M181.29173,73.125v-86h58v86z" fill="none" stroke="#000000" stroke-width="3.5" stroke-linecap="butt"/><path d="M239.2917,74.125v-86h58v86z" fill="none" stroke="#000000" stroke-width="3.5" stroke-linecap="butt"/><path d="M297.2917,73.125v-86h58v86z" fill="none" stroke="#000000" stroke-width="3.5" stroke-linecap="butt"/><path d="M355.29173,74.125v-86h58v86z" fill="none" stroke="#000000" stroke-width="3.5" stroke-linecap="butt"/><path d="M413.29173,73.125v-86h58v86z" fill="none" stroke="#000000" stroke-width="3.5" stroke-linecap="butt"/><path d="" fill="#000000" stroke="none" stroke-width="1" stroke-linecap="butt"/><path d="" fill="#000000" stroke="none" stroke-width="1" stroke-linecap="butt"/><path d="" fill="#000000" stroke="none" stroke-width="1" stroke-linecap="butt"/><path d="" fill="#000000" stroke="none" stroke-width="0.5" stroke-linecap="butt"/><path d="" fill="#000000" stroke="none" stroke-width="0.5" stroke-linecap="butt"/><path d="" fill="#000000" stroke="none" stroke-width="0.5" stroke-linecap="butt"/><path d="" fill="#000000" stroke="none" stroke-width="0.5" stroke-linecap="butt"/><path d="" fill="#000000" stroke="none" stroke-width="0.5" stroke-linecap="butt"/><path d="" fill="#000000" stroke="none" stroke-width="0.5" stroke-linecap="butt"/><path d="" fill="#000000" stroke="none" stroke-width="0.5" stroke-linecap="butt"/><path d="" fill="#000000" stroke="none" stroke-width="0.5" stroke-linecap="butt"/><path d="" data-paper-data="{&quot;index&quot;:null}" fill="#000000" stroke="none" stroke-width="1" stroke-linecap="butt"/><path d="" data-paper-data="{&quot;index&quot;:null}" fill="#000000" stroke="none" stroke-width="1" stroke-linecap="butt"/><path d="" data-paper-data="{&quot;index&quot;:null}" fill="#000000" stroke="none" stroke-width="1" stroke-linecap="butt"/><path d="" data-paper-data="{&quot;index&quot;:null}" fill="#000000" stroke="none" stroke-width="0.5" stroke-linecap="butt"/><path d="" data-paper-data="{&quot;index&quot;:null}" fill="#000000" stroke="none" stroke-width="0.5" stroke-linecap="butt"/><path d="" data-paper-data="{&quot;index&quot;:null}" fill="#000000" stroke="none" stroke-width="0.5" stroke-linecap="butt"/><path d="" data-paper-data="{&quot;index&quot;:null}" fill="#000000" stroke="none" stroke-width="0.5" stroke-linecap="butt"/><path d="" data-paper-data="{&quot;index&quot;:null}" fill="#000000" stroke="none" stroke-width="0.5" stroke-linecap="butt"/><path d="" data-paper-data="{&quot;index&quot;:null}" fill="#000000" stroke="none" stroke-width="0.5" stroke-linecap="butt"/><path d="" data-paper-data="{&quot;index&quot;:null}" fill="#000000" stroke="none" stroke-width="0.5" stroke-linecap="butt"/><path d="" data-paper-data="{&quot;index&quot;:null}" fill="#000000" stroke="none" stroke-width="0.5" stroke-linecap="butt"/><path d="M378.15173,34.56562c0,0 -15.9713,-12.49168 -20.17019,10.00838c-4.45351,21.64781 24.78105,19.073 24.06541,39.5597c-0.94901,7.63465 -5.64951,18.01205 -17.44074,15.55035c-11.53255,-2.40769 -7.21682,-23.59375 -7.21682,-23.59375" fill="none" stroke="#000000" stroke-width="10" stroke-linecap="round"/><path d="M348.97932,31.41184c0,0 2.47749,68.1543 -11.82519,68.70577c-17.29295,-0.36168 -15.50751,-68.96858 -15.50751,-68.96858" fill="none" stroke="#000000" stroke-width="10" stroke-linecap="round"/><path d="M285.67566,72.59915c0,0 -4.80284,-0.03887 -6.30957,-0.05346c-1.04425,-0.01011 -1.83393,0.58378 -1.81378,1.61966c0.0964,4.95522 -0.02323,19.66824 -4.63167,24.10502c-2.14199,2.0622 -10.07508,2.12381 -12.67826,-5.80721c-4.46657,-13.60814 -2.9492,-41.03932 0.29369,-52.12689c3.92583,-13.42256 13.83857,-7.6849 13.83857,-7.6849" fill="none" stroke="#000000" stroke-width="10" stroke-linecap="round"/><path d="M285.67566,72.59916c0,0 -4.80284,-0.03887 -6.30957,-0.05346c-1.04425,-0.01011 -1.83393,0.58376 -1.81378,1.61965c0.09641,4.95522 -0.02321,19.66824 -4.63166,24.10502c-5.81723,5.60054 -12.85864,-3.08621 -13.71026,-6.09659c-0.82372,-2.91172 -3.8072,-34.28794 1.32569,-51.83752c3.92582,-13.42255 13.83857,-7.6849 13.83857,-7.6849" fill="none" stroke="#000000" stroke-width="10" stroke-linecap="round"/><path d="M248.88168,30.81168c0,0 0.99737,27.87016 0.85726,40.19944c-0.09355,8.23215 -1.05109,23.58609 -1.46106,28.93491c-0.11319,1.4768 -0.36388,-0.36556 -0.61173,-1.21483c-0.60477,-2.07233 -3.6454,-11.10169 -6.47517,-22.30773c-1.97219,-7.80996 -3.43649,-16.94751 -5.60761,-24.38724c-2.42404,-8.30639 -4.99567,-14.52893 -5.9062,-17.649c-0.32612,-1.11748 -1.30211,-3.1832 -1.31133,-1.98863c-0.05154,6.67479 -0.50931,68.32173 -0.50931,68.32173" fill="none" stroke="#000000" stroke-width="10" stroke-linecap="round"/><path d="M218.39523,64.05773c0,18.36127 -3.78893,35.87417 -7.49021,35.87417c-5.27817,0 -10.38117,-1.48122 -10.9068,-41.65609c-0.24021,-18.3597 3.52612,-27.4641 7.2274,-27.4641c7.11787,0 11.16961,14.88475 11.16961,33.24602z" fill="none" stroke="#000000" stroke-width="10" stroke-linecap="butt"/><path d="M147.68473,101.18599c0,0 9.9522,-61.41699 11.3055,-69.21837c0.26349,-1.51892 12.58071,68.50535 12.58071,68.50535" fill="none" stroke="#000000" stroke-width="10" stroke-linecap="round"/><path d="M171.55107,100.21015c0,0 11.26596,-69.76145 11.52945,-68.24253c1.3533,7.80138 9.72861,68.69274 9.72861,68.69274" data-paper-data="{&quot;index&quot;:null}" fill="none" stroke="#000000" stroke-width="10" stroke-linecap="round"/><path d="M133.83767,44.48092c0,0 4.22196,-0.13374 7.45121,8.27733c2.04199,4.89708 2.68937,18.01058 2.86155,20.05213c0.30436,3.60887 -5.94228,6.21813 -5.94228,6.21813" fill="none" stroke="#000000" stroke-width="10" stroke-linecap="round"/><path d="M105.9395,56.9077c-0.57704,-1.89178 -0.40584,-4.81895 -0.40584,-6.39135c0,-0.63267 1.1038,-5.94307 4.524,-6.86281c2.5605,-0.68855 8.62574,-0.4333 12.87398,0.75646c2.4026,0.67288 4.34844,6.37122 3.53532,10.8779c-0.63753,3.53352 -2.46236,4.59375 -4.28385,4.59375c-2.1202,0 -7.27273,0.10722 -10.81298,-0.13426c-2.27048,-0.15488 -4.98396,-1.37535 -5.43062,-2.8397z" fill="none" stroke="#000000" stroke-width="10" stroke-linecap="butt"/><path d="M97.64804,99.4673c-0.37959,-5.6952 -1.65202,-29.6093 2.28136,-47.75995c1.01526,-4.68495 3.83009,-18.38649 12.82256,-20.38236c5.43133,-1.20548 15.85842,1.08626 20.00775,12.05479c3.4118,9.0189 4.12402,21.33936 4.81345,31.98429c0.69612,10.74821 1.35221,19.79493 1.22779,23.41519c-0.03521,1.02462 -0.51532,1.5909 -1.32192,1.59792c-1.7363,0.0151 -8.85489,0.07426 -11.88713,0.09942c-0.84938,0.00705 -1.47436,-0.62368 -1.6373,-1.65031c-0.45136,-2.84384 -0.50812,-8.74165 -0.49466,-12.41688c0.00289,-0.78988 -0.3529,-1.53741 -0.76772,-2.13975c-0.57655,-0.83718 -1.69336,-1.38217 -2.78419,-1.363c-2.02949,0.03567 -5.51141,0.09724 -6.85416,0.15759c-1.29677,0.05828 -2.66984,1.99102 -2.68721,3.16897c-0.0413,2.80163 -0.20931,14.19744 -0.20931,14.19744c0,0 -9.92966,0.27045 -10.74478,0.27753c-0.92526,0.00805 -1.71027,-0.42723 -1.7645,-1.24088z" fill="none" stroke="#000000" stroke-width="10" stroke-linecap="butt"/><path d="M97.64804,99.4673c-0.37959,-5.6952 -1.65202,-29.6093 2.28136,-47.75995c1.01526,-4.68495 3.83009,-18.38649 12.82256,-20.38236c5.43133,-1.20548 15.85842,1.08626 20.00775,12.05479c3.4118,9.0189 4.12402,21.33936 4.81345,31.98429c0.69612,10.74821 1.35221,19.79493 1.22779,23.41519c-0.03521,1.02462 -0.51532,1.5909 -1.32192,1.59792c-1.7363,0.0151 -8.85489,0.07426 -11.88713,0.09942c-0.84938,0.00705 -1.47436,-0.62368 -1.6373,-1.65031c-0.45136,-2.84384 -0.50812,-8.74165 -0.49466,-12.41688c0.00289,-0.78988 -0.35291,-1.53742 -0.76773,-2.13976c-0.57655,-0.83718 -1.69336,-1.38217 -2.78419,-1.36299c-2.02949,0.03567 -5.51141,0.09724 -6.85416,0.15759c-1.29678,0.05828 -2.66984,1.99102 -2.6872,3.16897c-0.04131,2.80163 -0.20932,14.19744 -0.20932,14.19744c0,0 -9.92966,0.27045 -10.74478,0.27753c-0.92526,0.00805 -1.71027,-0.42723 -1.7645,-1.24088z" fill="none" stroke="#000000" stroke-width="10" stroke-linecap="butt"/><path d="M105.9395,56.9077c-0.57705,-1.89179 -0.40584,-4.81895 -0.40584,-6.39135c0,-0.63267 1.1038,-5.94308 4.524,-6.86281c2.56049,-0.68855 8.62574,-0.43331 12.87398,0.75646c2.40261,0.67287 4.34844,6.37121 3.53532,10.87791c-0.63754,3.53352 -2.46236,4.59376 -4.28385,4.59376c-2.1202,0 -7.27273,0.10722 -10.81298,-0.13426c-2.27047,-0.15487 -4.98396,-1.37535 -5.43062,-2.8397z" fill="none" stroke="#000000" stroke-width="10" stroke-linecap="butt"/><path d="M133.83767,44.48092c0,0 4.22196,-0.13374 7.45121,8.27733c2.04199,4.89708 2.68937,18.01058 2.86155,20.05213c0.30436,3.60887 -5.94228,6.21813 -5.94228,6.21813" fill="none" stroke="#000000" stroke-width="10" stroke-linecap="round"/><path d="M147.68473,101.18599c0,0 9.9522,-61.41699 11.3055,-69.21837c0.26349,-1.51892 12.58071,68.50535 12.58071,68.50535" fill="none" stroke="#000000" stroke-width="10" stroke-linecap="round"/><path d="M171.55107,100.47296c0,0 11.26596,-70.02427 11.52944,-68.50535c1.3533,7.80138 9.72861,68.69274 9.72861,68.69274" data-paper-data="{&quot;index&quot;:null}" fill="none" stroke="#000000" stroke-width="10" stroke-linecap="round"/><path d="M218.39523,64.05773c0,15.77214 -2.40786,30.91831 -5.76602,34.87622c-0.55127,0.64972 -2.83527,0.98148 -3.38273,0.90493c-4.64483,-0.64949 -8.77805,-5.62412 -9.24826,-41.56307c-0.24021,-18.3597 3.52611,-27.4641 7.2274,-27.4641c7.11787,0 11.16961,14.88475 11.16961,33.24602z" fill="none" stroke="#000000" stroke-width="10" stroke-linecap="butt"/><path d="M248.88169,30.81169c0,0 0.99737,27.87016 0.85726,40.19944c-0.09355,8.23215 -1.31391,23.58609 -1.72387,28.93491c-0.11319,1.4768 -0.10107,-0.36556 -0.34892,-1.21483c-0.60477,-2.07234 -3.6454,-11.1017 -6.47517,-22.30774c-1.97219,-7.80996 -3.43648,-16.94751 -5.60761,-24.38724c-2.42405,-8.30638 -6.04693,-16.36862 -6.95746,-19.48869c-0.32612,-1.11748 -0.25086,1.02183 -0.26008,2.2164c-0.05154,6.67479 -0.50931,65.9564 -0.50931,65.9564" fill="none" stroke="#000000" stroke-width="10" stroke-linecap="round"/><path d="M285.67566,72.59915c0,0 -4.80284,-0.03887 -6.30957,-0.05346c-1.04425,-0.01011 -1.83393,0.58378 -1.81378,1.61966c0.0964,4.95522 -0.02323,19.66824 -4.63167,24.10502c-2.14199,2.0622 -10.07508,2.12381 -12.67826,-5.80721c-4.46657,-13.60814 -2.9492,-41.03932 0.29369,-52.12689c3.92583,-13.42256 13.83857,-7.6849 13.83857,-7.6849" fill="none" stroke="#000000" stroke-width="10" stroke-linecap="round"/><path d="M348.97932,31.41184c0,0 2.47749,68.1543 -11.82519,68.70577c-17.29295,-0.36167 -15.50751,-68.96858 -15.50751,-68.96858" fill="none" stroke="#000000" stroke-width="10" stroke-linecap="round"/><path d="M378.15173,34.56562c0,0 -15.9713,-12.49168 -20.17019,10.00838c-4.45351,21.64781 24.78105,19.07301 24.06541,39.5597c-0.94901,7.63465 -5.64951,18.01205 -17.44074,15.55035c-11.53255,-2.4077 -7.21682,-23.59374 -7.21682,-23.59374" fill="none" stroke="#000000" stroke-width="10" stroke-linecap="round"/><path d="M378.15173,34.56562c0,0 -15.9713,-12.49168 -20.17019,10.00838c-4.45351,21.64781 24.78105,19.073 24.06541,39.5597c-0.94901,7.63465 -5.64951,18.01205 -17.44074,15.55035c-11.53255,-2.40769 -7.21682,-23.59375 -7.21682,-23.59375" fill="none" stroke="#000000" stroke-width="6" stroke-linecap="round"/><path d="M348.97932,31.41184c0,0 2.47749,68.1543 -11.82519,68.70577c-17.29295,-0.36168 -15.50751,-68.96858 -15.50751,-68.96858" fill="none" stroke="#000000" stroke-width="6" stroke-linecap="round"/><path d="M285.67566,72.59915c0,0 -4.80284,-0.03887 -6.30957,-0.05346c-1.04425,-0.01011 -1.83393,0.58378 -1.81378,1.61966c0.0964,4.95522 -0.02323,19.66824 -4.63167,24.10502c-2.14199,2.0622 -10.07508,2.12381 -12.67826,-5.80721c-4.46657,-13.60814 -2.9492,-41.03932 0.29369,-52.12689c3.92583,-13.42256 13.83857,-7.6849 13.83857,-7.6849" fill="none" stroke="#000000" stroke-width="6" stroke-linecap="round"/><path d="M285.67566,72.59916c0,0 -4.80284,-0.03887 -6.30957,-0.05346c-1.04425,-0.01011 -1.83393,0.58376 -1.81378,1.61965c0.09641,4.95522 -0.02321,19.66824 -4.63166,24.10502c-5.81723,5.60054 -12.85864,-3.08621 -13.71026,-6.09659c-0.82372,-2.91172 -3.8072,-34.28794 1.32569,-51.83752c3.92582,-13.42255 13.83857,-7.6849 13.83857,-7.6849" fill="none" stroke="#ffffff" stroke-width="4" stroke-linecap="round"/><path d="M248.88168,30.81168c0,0 0.99737,27.87016 0.85726,40.19944c-0.09355,8.23215 -1.05109,23.58609 -1.46106,28.93491c-0.11319,1.4768 -0.36388,-0.36556 -0.61173,-1.21483c-0.60477,-2.07233 -3.6454,-11.10169 -6.47517,-22.30773c-1.97219,-7.80996 -3.43649,-16.94751 -5.60761,-24.38724c-2.42404,-8.30639 -4.99567,-14.52893 -5.9062,-17.649c-0.32612,-1.11748 -1.30211,-3.1832 -1.31133,-1.98863c-0.05154,6.67479 -0.50931,68.32173 -0.50931,68.32173" fill="none" stroke="#000000" stroke-width="6" stroke-linecap="round"/><path d="M218.39523,64.05773c0,18.36127 -3.78893,35.87417 -7.49021,35.87417c-5.27817,0 -10.38117,-1.48122 -10.9068,-41.65609c-0.24021,-18.3597 3.52612,-27.4641 7.2274,-27.4641c7.11787,0 11.16961,14.88475 11.16961,33.24602z" fill="none" stroke="#000000" stroke-width="6" stroke-linecap="butt"/><path d="M147.68473,101.18599c0,0 9.9522,-61.41699 11.3055,-69.21837c0.26349,-1.51892 12.58071,68.50535 12.58071,68.50535" fill="none" stroke="#000000" stroke-width="6" stroke-linecap="round"/><path d="M171.55107,100.21015c0,0 11.26596,-69.76145 11.52945,-68.24253c1.3533,7.80138 9.72861,68.69274 9.72861,68.69274" data-paper-data="{&quot;index&quot;:null}" fill="none" stroke="#000000" stroke-width="6" stroke-linecap="round"/><path d="M133.83767,44.48092c0,0 4.22196,-0.13374 7.45121,8.27733c2.04199,4.89708 2.68937,18.01058 2.86155,20.05213c0.30436,3.60887 -5.94228,6.21813 -5.94228,6.21813" fill="none" stroke="#000000" stroke-width="6" stroke-linecap="round"/><path d="M105.9395,56.9077c-0.57704,-1.89178 -0.40584,-4.81895 -0.40584,-6.39135c0,-0.63267 1.1038,-5.94307 4.524,-6.86281c2.5605,-0.68855 8.62574,-0.4333 12.87398,0.75646c2.4026,0.67288 4.34844,6.37122 3.53532,10.8779c-0.63753,3.53352 -2.46236,4.59375 -4.28385,4.59375c-2.1202,0 -7.27273,0.10722 -10.81298,-0.13426c-2.27048,-0.15488 -4.98396,-1.37535 -5.43062,-2.8397z" fill="none" stroke="#000000" stroke-width="6" stroke-linecap="butt"/><path d="M97.64804,99.4673c-0.37959,-5.6952 -1.65202,-29.6093 2.28136,-47.75995c1.01526,-4.68495 3.83009,-18.38649 12.82256,-20.38236c5.43133,-1.20548 15.85842,1.08626 20.00775,12.05479c3.4118,9.0189 4.12402,21.33936 4.81345,31.98429c0.69612,10.74821 1.35221,19.79493 1.22779,23.41519c-0.03521,1.02462 -0.51532,1.5909 -1.32192,1.59792c-1.7363,0.0151 -8.85489,0.07426 -11.88713,0.09942c-0.84938,0.00705 -1.47436,-0.62368 -1.6373,-1.65031c-0.45136,-2.84384 -0.50812,-8.74165 -0.49466,-12.41688c0.00289,-0.78988 -0.3529,-1.53741 -0.76772,-2.13975c-0.57655,-0.83718 -1.69336,-1.38217 -2.78419,-1.363c-2.02949,0.03567 -5.51141,0.09724 -6.85416,0.15759c-1.29677,0.05828 -2.66984,1.99102 -2.68721,3.16897c-0.0413,2.80163 -0.20931,14.19744 -0.20931,14.19744c0,0 -9.92966,0.27045 -10.74478,0.27753c-0.92526,0.00805 -1.71027,-0.42723 -1.7645,-1.24088z" fill="none" stroke="#000000" stroke-width="6" stroke-linecap="butt"/><path d="M97.64804,99.4673c-0.37959,-5.6952 -1.65202,-29.6093 2.28136,-47.75995c1.01526,-4.68495 3.83009,-18.38649 12.82256,-20.38236c5.43133,-1.20548 15.85842,1.08626 20.00775,12.05479c3.4118,9.0189 4.12402,21.33936 4.81345,31.98429c0.69612,10.74821 1.35221,19.79493 1.22779,23.41519c-0.03521,1.02462 -0.51532,1.5909 -1.32192,1.59792c-1.7363,0.0151 -8.85489,0.07426 -11.88713,0.09942c-0.84938,0.00705 -1.47436,-0.62368 -1.6373,-1.65031c-0.45136,-2.84384 -0.50812,-8.74165 -0.49466,-12.41688c0.00289,-0.78988 -0.35291,-1.53742 -0.76773,-2.13976c-0.57655,-0.83718 -1.69336,-1.38217 -2.78419,-1.36299c-2.02949,0.03567 -5.51141,0.09724 -6.85416,0.15759c-1.29678,0.05828 -2.66984,1.99102 -2.6872,3.16897c-0.04131,2.80163 -0.20932,14.19744 -0.20932,14.19744c0,0 -9.92966,0.27045 -10.74478,0.27753c-0.92526,0.00805 -1.71027,-0.42723 -1.7645,-1.24088z" fill="none" stroke="#ffffff" stroke-width="4" stroke-linecap="butt"/><path d="M105.9395,56.9077c-0.57705,-1.89179 -0.40584,-4.81895 -0.40584,-6.39135c0,-0.63267 1.1038,-5.94308 4.524,-6.86281c2.56049,-0.68855 8.62574,-0.43331 12.87398,0.75646c2.40261,0.67287 4.34844,6.37121 3.53532,10.87791c-0.63754,3.53352 -2.46236,4.59376 -4.28385,4.59376c-2.1202,0 -7.27273,0.10722 -10.81298,-0.13426c-2.27047,-0.15487 -4.98396,-1.37535 -5.43062,-2.8397z" fill="none" stroke="#ffffff" stroke-width="4" stroke-linecap="butt"/><path d="M133.83767,44.48092c0,0 4.22196,-0.13374 7.45121,8.27733c2.04199,4.89708 2.68937,18.01058 2.86155,20.05213c0.30436,3.60887 -5.94228,6.21813 -5.94228,6.21813" fill="none" stroke="#ffffff" stroke-width="4" stroke-linecap="round"/><path d="M147.68473,101.18599c0,0 9.9522,-61.41699 11.3055,-69.21837c0.26349,-1.51892 12.58071,68.50535 12.58071,68.50535" fill="none" stroke="#ffffff" stroke-width="4" stroke-linecap="round"/><path d="M171.55107,100.47296c0,0 11.26596,-70.02427 11.52944,-68.50535c1.3533,7.80138 9.72861,68.69274 9.72861,68.69274" data-paper-data="{&quot;index&quot;:null}" fill="none" stroke="#ffffff" stroke-width="4" stroke-linecap="round"/><path d="M218.39523,64.05773c0,15.77214 -2.40786,30.91831 -5.76602,34.87622c-0.55127,0.64972 -2.83527,0.98148 -3.38273,0.90493c-4.64483,-0.64949 -8.77805,-5.62412 -9.24826,-41.56307c-0.24021,-18.3597 3.52611,-27.4641 7.2274,-27.4641c7.11787,0 11.16961,14.88475 11.16961,33.24602z" fill="none" stroke="#ffffff" stroke-width="4" stroke-linecap="butt"/><path d="M248.88169,30.81169c0,0 0.99737,27.87016 0.85726,40.19944c-0.09355,8.23215 -1.31391,23.58609 -1.72387,28.93491c-0.11319,1.4768 -0.10107,-0.36556 -0.34892,-1.21483c-0.60477,-2.07234 -3.6454,-11.1017 -6.47517,-22.30774c-1.97219,-7.80996 -3.43648,-16.94751 -5.60761,-24.38724c-2.42405,-8.30638 -6.04693,-16.36862 -6.95746,-19.48869c-0.32612,-1.11748 -0.25086,1.02183 -0.26008,2.2164c-0.05154,6.67479 -0.50931,65.9564 -0.50931,65.9564" fill="none" stroke="#ffffff" stroke-width="4" stroke-linecap="round"/><path d="M285.67566,72.59915c0,0 -4.80284,-0.03887 -6.30957,-0.05346c-1.04425,-0.01011 -1.83393,0.58378 -1.81378,1.61966c0.0964,4.95522 -0.02323,19.66824 -4.63167,24.10502c-2.14199,2.0622 -10.07508,2.12381 -12.67826,-5.80721c-4.46657,-13.60814 -2.9492,-41.03932 0.29369,-52.12689c3.92583,-13.42256 13.83857,-7.6849 13.83857,-7.6849" fill="none" stroke="#ffffff" stroke-width="4" stroke-linecap="round"/><path d="M348.97932,31.41184c0,0 2.47749,68.1543 -11.82519,68.70577c-17.29295,-0.36167 -15.50751,-68.96858 -15.50751,-68.96858" fill="none" stroke="#ffffff" stroke-width="4" stroke-linecap="round"/><path d="M378.15173,34.56562c0,0 -15.9713,-12.49168 -20.17019,10.00838c-4.45351,21.64781 24.78105,19.07301 24.06541,39.5597c-0.94901,7.63465 -5.64951,18.01205 -17.44074,15.55035c-11.53255,-2.4077 -7.21682,-23.59374 -7.21682,-23.59374" fill="none" stroke="#ffffff" stroke-width="4" stroke-linecap="round"/><text transform="translate(91.09125,160.39098) scale(1.11454,1.51288)" font-size="40" xml:space="preserve" fill="#ffffff" fill-rule="nonzero" stroke="#000000" stroke-width="4" stroke-linecap="butt" stroke-linejoin="miter" stroke-miterlimit="10" stroke-dasharray="" stroke-dashoffset="0" font-family="Handwriting" font-weight="normal" text-anchor="start" style="mix-blend-mode: normal"><tspan x="0" dy="0">PLATFORMER</tspan></text><path d="" data-paper-data="{&quot;index&quot;:null}" fill="#66fffc" stroke="none" stroke-width="5" stroke-linecap="butt"/><path d="" data-paper-data="{&quot;index&quot;:null}" fill="#4fc4c2" stroke="none" stroke-width="5" stroke-linecap="butt"/><path d="M239.19527,221.40077c0,37.57582 -30.16833,68.03696 -67.38282,68.03696c-37.21449,0 -67.38283,-30.46121 -67.38283,-68.03696c0,-37.57583 30.16833,-68.03698 67.38283,-68.03698c37.2145,0 67.38283,30.46121 67.38283,68.03698z" fill="url(#color-2)" stroke="none" stroke-width="0" stroke-linecap="butt"/><g stroke="none" stroke-width="0" stroke-linecap="round"><path d="M259.00014,246.19726l-87.64392,-27.46419l87.39565,-26.53845" data-paper-data="{&quot;origPos&quot;:null}" fill="url(#color-3)"/><path d="M84.20889,192.5659l87.39565,26.53846l-87.64391,27.46418" data-paper-data="{&quot;origPos&quot;:null,&quot;index&quot;:null}" fill="url(#color-4)"/></g><g data-paper-data="{&quot;origRot&quot;:0}" stroke="none" stroke-width="0" stroke-linecap="round"><path d="M189.99337,309.03764l-17.99197,-90.06679l65.24287,63.91911" data-paper-data="{&quot;origPos&quot;:null}" fill="url(#color-5)"/><path d="M153.11003,129.96236l18.68481,89.4045l-66.17415,-63.69242" data-paper-data="{&quot;origPos&quot;:null,&quot;index&quot;:null}" fill="url(#color-6)"/></g><g data-paper-data="{&quot;origRot&quot;:0,&quot;index&quot;:null}" stroke="none" stroke-width="0" stroke-linecap="round"><path d="M105.62077,282.88996l65.24293,-63.9191l-17.99198,90.06673" data-paper-data="{&quot;origPos&quot;:null}" fill="url(#color-7)"/><path d="M237.24427,155.6745l-66.17414,63.69243l18.68485,-89.4045" data-paper-data="{&quot;origPos&quot;:null,&quot;index&quot;:null}" fill="url(#color-8)"/></g><path d="" data-paper-data="{&quot;index&quot;:null}" fill="none" stroke="#000000" stroke-width="5" stroke-linecap="butt"/><g stroke-width="5"><path d="M157.97477,237.15815c1.08869,7.9523 -6.45936,5.54319 -9.75776,5.99474c-3.2984,0.45156 -7.09054,-1.26276 -8.17923,-9.21507c-1.08869,-7.9523 -4.66967,-18.69683 -1.37128,-19.14839c1.02112,-0.13979 3.46585,-1.36247 5.83542,-1.79557c1.64837,-0.30128 3.26036,-0.22046 4.33143,0.87278c2.36275,2.41165 2.86749,10.29185 3.38468,14.06972z" data-paper-data="{&quot;index&quot;:null}" fill="#9d0000" stroke="none" stroke-linecap="butt"/><path d="M138.02855,218.04389l-1.34403,-9.81744l10.96281,-1.50083l1.34403,9.81744z" data-paper-data="{&quot;index&quot;:null}" fill="#d50000" stroke="none" stroke-linecap="butt"/><path d="M195.80687,220.2855c2.86704,20.9422 -6.77185,21.17145 -19.96544,22.97769c-13.19359,1.80623 -22.44872,3.34649 -25.31576,-17.59572c-2.86704,-20.9422 1.81665,-40.20646 15.01024,-42.0127c13.19359,-1.80623 27.40392,15.68852 30.27096,36.63072z" data-paper-data="{&quot;index&quot;:null}" fill="#d50000" stroke="none" stroke-linecap="butt"/><path d="M155.91891,216.20403c1.8678,13.64331 15.94624,19.70507 29.50035,17.27305c5.42332,-4.10005 4.65646,-20.95128 6.81781,-19.14744c3.92113,3.27254 1.12777,13.66341 2.02798,24.92546c0.81514,10.19775 -5.42703,3.94689 -15.33741,4.03813c-0.39607,0.00364 -3.70691,14.43884 -7.43851,14.95574c-34.15925,4.73175 -19.1538,-14.29816 -21.20224,-14.59006c-1.77097,-0.25236 16.92902,-1.91896 16.95734,-1.76532c-3.40094,-5.69353 -14.86249,-3.02338 -16.191,-12.42237c-1.16697,-8.25613 0.99339,-7.4598 0.30661,-12.47637c-1.63303,-11.92845 -1.76082,-22.92895 -0.49568,-23.10215c1.26514,-0.1732 3.42172,10.38286 5.05476,22.31131z" data-paper-data="{&quot;index&quot;:null}" fill="#9d0000" stroke="none" stroke-linecap="butt"/><path d="M192.15369,207.53024c0.69949,5.10942 2.68385,17.10303 3.11123,24.2046c0.28036,4.65837 1.51495,8.99093 -2.94376,10.59211c-3.12474,1.12214 -12.40022,-0.82095 -12.39188,2.44962c0.03356,13.141 -12.10809,19.36232 -28.1828,13.15199c-9.82383,-3.79535 -2.12927,-15.00992 -2.27779,-15.07437c-12.09784,-5.25015 24.62989,5.07338 12.92508,-1.00275c-6.93184,-3.59841 -10.03618,-9.9442 -11.25361,-18.83686c-2.12966,-15.55607 -4.34934,-40.86392 16.36342,-39.34221c18.65599,1.37061 22.52045,8.30179 24.65012,23.85785z" data-paper-data="{&quot;index&quot;:null}" fill="none" stroke="#000000" stroke-linecap="butt"/><path d="M158.55399,241.08597l-12.83111,2.13823l-2.74557,-1.79111l-2.57706,-6.64821l-1.90404,-13.90804l-0.54149,-11.26084l1.32263,-2.51474l8.63409,-2.68224" data-paper-data="{&quot;index&quot;:null}" fill="none" stroke="#000000" stroke-linecap="round"/><path d="M201.42796,202.8549c0.866,6.3257 -6.55852,12.56623 -16.58314,13.93862c-10.02461,1.37239 -18.85321,-2.64305 -19.71921,-8.96874c-0.866,-6.3257 6.55853,-12.56622 16.58314,-13.93862c10.02461,-1.37239 18.85321,2.64305 19.71921,8.96875z" data-paper-data="{&quot;index&quot;:null}" fill="#49646d" stroke="none" stroke-linecap="butt"/><path d="M194.99138,205.38544c-1.17505,1.74001 -10.1423,2.4041 -15.50042,3.13764c-5.35811,0.73354 -9.15974,-6.9958 -9.44453,-9.076c-0.28478,-2.0802 11.31507,-3.7585 16.72154,-3.62601c10.32722,0.25309 14.39094,8.21 8.2234,9.56437z" data-paper-data="{&quot;index&quot;:null}" fill="#95cadc" stroke="none" stroke-linecap="butt"/><path d="M193.00188,201.3214c-0.84225,1.24721 -7.33404,1.25408 -11.17465,1.77987c-3.8406,0.52579 -3.42335,-1.26281 -3.62748,-2.75385c-0.20413,-1.49106 2.74381,-3.12603 6.58442,-3.65182c3.8406,-0.52579 10.71241,0.93167 8.21771,4.62581z" data-paper-data="{&quot;index&quot;:null}" fill="#fefefe" stroke="none" stroke-linecap="butt"/><path d="M198.35625,201.77706c1.45901,5.085 -1.25519,9.37859 -13.58959,13.36211c0,0 -9.48822,2.01676 -13.24753,-0.5996c-6.18624,-4.3054 -7.39703,-15.30516 -4.77018,-16.63219c19.08888,-9.64332 29.52229,-3.39708 31.60731,3.86969z" data-paper-data="{&quot;index&quot;:null}" fill="none" stroke="#000000" stroke-linecap="butt"/><path d="M211.60472,243.51646c-0.25941,4.54085 -1.42536,13.6108 -6.95952,13.29464c-5.53416,-0.31616 -23.27398,-12.35893 -23.01458,-16.89978c0.25941,-4.54085 9.08514,-7.49037 14.6193,-7.17422c0,0 12.77034,10.25264 15.3548,10.77936z" fill="#9d0000" stroke="#000000" stroke-linecap="butt"/><path d="M187.59608,241.8125l-15.27394,-1.89249c0,0 7.65286,-5.82697 11.16453,-7.84485c2.90729,-1.6706 8.43685,-3.41854 8.43685,-3.41854c0,0 0.73491,3.66368 1.51503,5.24697c0.55992,1.13639 2.72821,3.36489 2.72821,3.36489z" fill="#9d0000" stroke="none" stroke-linecap="butt"/><path d="M178.0532,243.7318l-11.93663,0.10202" fill="none" stroke="#000000" stroke-linecap="round"/></g><text transform="translate(91.09125,159.64098) scale(1.11454,1.49205)" font-size="40" xml:space="preserve" fill="#ffffff" fill-rule="nonzero" stroke="#000000" stroke-width="0" stroke-linecap="butt" stroke-linejoin="miter" stroke-miterlimit="10" stroke-dasharray="" stroke-dashoffset="0" font-family="Handwriting" font-weight="normal" text-anchor="start" style="mix-blend-mode: normal"><tspan x="0" dy="0">PLATFORMER</tspan></text><path d="M-7.49996,252.26695v-277h23v281z" fill="#8de8f7" stroke="none" stroke-width="0" stroke-linecap="butt"/><path d="M12.94806,239.75398c0,8.17744 -2.74957,14.80655 -6.14134,14.80655c-3.39178,0 -6.98264,-2.25444 -6.98264,-10.43188c0,-8.17744 -2.12984,-19.51773 1.26193,-19.51773c1.78046,0 8.1228,-2.57713 10.38984,0.47348c2.05167,2.7608 1.47221,10.78476 1.47221,14.66958z" data-paper-data="{&quot;index&quot;:null}" fill="#00398e" stroke="none" stroke-width="5" stroke-linecap="butt"/><path d="M-0.20768,227.80778v-10.09537h11.27317v10.09537z" data-paper-data="{&quot;index&quot;:null}" fill="#003dd6" stroke="none" stroke-width="5" stroke-linecap="butt"/><path d="M58.11281,236.1989c0,21.53508 -9.76109,20.43449 -23.3282,20.43449c-13.5671,0 -25.80262,1.10058 -25.80262,-20.43449c0,-21.53509 10.99831,-38.99271 24.56542,-38.99271c13.56709,0 24.5654,17.45762 24.5654,38.99271z" data-paper-data="{&quot;index&quot;:null}" fill="#003dd6" stroke="none" stroke-width="5" stroke-linecap="butt"/><path d="M18.10496,228.82287c0,14.02955 13.373,22.0937 27.39047,21.51186c6.04082,-3.38912 7.59542,-20.50457 9.52779,-18.38512c6.68016,7.32689 -1.7795,37.28449 -1.93309,39.98686c-0.08439,1.48504 -9.06734,3.14083 -13.14085,-1.39969c-0.76087,-0.8481 -0.91513,-2.3455 -1.25758,-4.77211c-0.38725,-2.74417 -0.92135,-6.39517 -1.10532,-6.41863c-4.91543,-0.62693 -7.50876,-2.50512 -7.47569,-1.79008c0.22641,4.89432 2.16494,13.33466 -0.95177,16.48086c-2.59544,2.61998 -9.83422,0.38349 -13.9143,0.38349c-0.75383,0 -3.83336,-21.1736 -3.8844,-32.878c-0.03704,-8.49494 2.03357,-7.39258 2.03357,-12.55118c0,-12.26614 1.39115,-23.38762 2.69212,-23.38762c1.30095,0 2.01908,10.95321 2.01908,23.21937z" data-paper-data="{&quot;index&quot;:null}" fill="#00398e" stroke="none" stroke-width="5" stroke-linecap="butt"/><path d="M55.87865,224.67485c0,5.25406 0.34562,17.63453 -0.20434,24.86186c-0.70645,9.2839 0.17395,15.01404 -1.72301,21.01539c-1.96815,1.8143 -8.29556,1.95714 -11.02674,0.29949c-3.8001,-2.30642 -1.96409,-7.01472 -3.15947,-10.46632c-0.72513,-2.09376 -5.43981,-1.60078 -8.1363,-1.58734c-1.39805,0.00696 2.2636,8.45492 -2.00498,13.2168c-1.26014,1.40577 -2.52662,3.17816 -7.38534,3.10595c-6.1085,-0.20635 -8.09639,-1.58279 -8.59114,-2.07827c-2.29573,-10.3471 -1.30714,-35.26889 -1.30714,-38.40538c0,-15.99646 1.25671,-41.84874 21.95372,-37.45048c18.6418,3.96152 21.58476,11.49183 21.58476,27.48829z" data-paper-data="{&quot;index&quot;:null}" fill="none" stroke="#000000" stroke-width="5" stroke-linecap="butt"/><path d="M9.8,254.62435l-5.72072,-0.33651l-2.52383,-2.18734l-1.68257,-7.06677v-14.30179l1.00955,-11.44142l1.68255,-2.35557l9.08583,-1.51431" data-paper-data="{&quot;index&quot;:null}" fill="none" stroke="#000000" stroke-width="5" stroke-linecap="round"/><path d="M65.8861,221.23718c0,6.50478 -8.35662,11.77795 -18.66503,11.77795c-10.30841,0 -18.66503,-5.27315 -18.66503,-11.77793c0,-6.50478 8.35662,-11.77793 18.66505,-11.77793c10.30841,0 18.66503,5.27315 18.66503,11.77793z" data-paper-data="{&quot;index&quot;:null}" fill="#49646d" stroke="none" stroke-width="5" stroke-linecap="butt"/><path d="M52.06042,212.11145c10.38923,1.68257 13.39157,10.27577 6.97895,10.79058c-1.42653,1.59397 -10.56976,1.02513 -16.07957,1.02513c-5.50979,0 -8.27903,-8.32727 -8.27903,-10.46637c0,-2.13908 11.94073,-2.23019 17.37966,-1.34934z" data-paper-data="{&quot;index&quot;:null}" fill="#95cadc" stroke="none" stroke-width="5" stroke-linecap="butt"/><path d="M57.59278,218.5249c-1.02252,1.14254 -7.57622,0.25239 -11.52556,0.25239c-3.94932,0 -3.28099,-1.74774 -3.28099,-3.28099c0,-1.53327 3.20158,-2.77622 7.1509,-2.77622c3.94932,0 10.68427,2.42074 7.65565,5.80484z" data-paper-data="{&quot;index&quot;:null}" fill="#fefefe" stroke="none" stroke-width="5" stroke-linecap="butt"/><path d="M31.56508,211.45095c20.60074,-7.09604 30.26899,0.65065 31.3694,8.2738c0.77003,5.33437 -2.56301,9.29322 -15.56372,11.60968c0,0 -9.85603,0.72454 -13.28909,-2.43589c-5.64938,-5.20071 -5.3515,-16.4711 -2.5166,-17.44759z" data-paper-data="{&quot;index&quot;:null}" fill="none" stroke="#000000" stroke-width="5" stroke-linecap="butt"/><path d="M41.57826,260.59229l-5.56745,-4.94886l11.59889,0.30931c0,0 -1.84204,2.36869 -2.95563,3.22528c-0.73742,0.56724 -3.07579,1.41427 -3.07579,1.41427z" data-paper-data="{&quot;index&quot;:null}" fill="#000000" stroke="none" stroke-width="5" stroke-linecap="butt"/><path d="M493.50005,-20.73305v284h-127v-292z" data-paper-data="{&quot;index&quot;:null}" fill="url(#color-9)" stroke="none" stroke-width="0" stroke-linecap="butt"/><path d="M489.50005,-13.73305v277h-23v-281z" data-paper-data="{&quot;index&quot;:null}" fill="#54d2f7" stroke="none" stroke-width="0" stroke-linecap="butt"/><path d="M485.40704,176.4414l7.22665,-7.39313l24.78576,24.22762l-7.22665,7.39313z" data-paper-data="{&quot;index&quot;:null}" fill="#53be30" stroke="none" stroke-width="0" stroke-linecap="butt"/><path d="M451.20611,204.1594l31.01442,-31.72891l29.11518,28.45955l-31.01442,31.72891z" data-paper-data="{&quot;index&quot;:null}" fill="#53be30" stroke="none" stroke-width="0" stroke-linecap="butt"/><path d="M517.07156,192.94771c5.51322,5.38907 5.61387,14.22712 0.22479,19.74035c-5.38907,5.51322 -14.22713,5.61386 -19.74035,0.22479c-5.51322,-5.38907 -5.61387,-14.22712 -0.22479,-19.74035c5.38907,-5.51322 14.22712,-5.61387 19.74035,-0.22479z" data-paper-data="{&quot;index&quot;:null}" fill="#53be30" stroke="none" stroke-width="0" stroke-linecap="butt"/><path d="M486.97628,225.02011l21.46711,-21.96165l9.41214,9.20019l-21.46711,21.96165z" data-paper-data="{&quot;index&quot;:null}" fill="#53be30" stroke="none" stroke-width="0" stroke-linecap="butt"/><path d="M494.26012,216.56994c5.51322,5.38907 5.61387,14.22712 0.22479,19.74035c-5.38907,5.51322 -14.22712,5.61387 -19.74035,0.22479c-5.51322,-5.38907 -5.61387,-14.22712 -0.22479,-19.74035c5.38907,-5.51322 14.22712,-5.61387 19.74035,-0.22479z" data-paper-data="{&quot;index&quot;:null}" fill="#53be30" stroke="none" stroke-width="0" stroke-linecap="butt"/><path d="M450.88915,213.15338l5.43648,-5.56172l25.52686,24.95203l-5.43648,5.56172z" data-paper-data="{&quot;index&quot;:null}" fill="#53be30" stroke="none" stroke-width="0" stroke-linecap="butt"/><path d="M493.30352,169.71492c5.51322,5.38907 5.61387,14.22712 0.22479,19.74035c-5.38907,5.51322 -14.22712,5.61387 -19.74035,0.22479c-5.51322,-5.38907 -5.61387,-14.22712 -0.22479,-19.74035c5.38907,-5.51322 14.22713,-5.61386 19.74035,-0.22479z" data-paper-data="{&quot;index&quot;:null}" fill="#53be30" stroke="none" stroke-width="0" stroke-linecap="butt"/><path d="M450.38557,193.69827l23.41866,-23.95817l8.6991,8.5032l-23.41866,23.95817z" data-paper-data="{&quot;index&quot;:null}" fill="#53be30" stroke="none" stroke-width="0" stroke-linecap="butt"/><path d="M470.44404,193.24367c5.51322,5.38907 5.61387,14.22712 0.22479,19.74035c-5.38907,5.51322 -14.22712,5.61387 -19.74035,0.22479c-5.51322,-5.38907 -5.61387,-14.22712 -0.22479,-19.74035c5.38907,-5.51322 14.22712,-5.61387 19.74035,-0.22479z" data-paper-data="{&quot;index&quot;:null}" fill="#53be30" stroke="none" stroke-width="0" stroke-linecap="butt"/><path d="M498.15789,188.66557c8.35225,8.16417 8.79649,21.25488 0.99224,29.23893c-7.80425,7.98404 -20.90169,7.83802 -29.25394,-0.32615c-8.35225,-8.16417 -8.79649,-21.25488 -0.99224,-29.23893c7.80425,-7.98404 20.90169,-7.83802 29.25394,0.32615z" data-paper-data="{&quot;index&quot;:null}" fill="#ffffff" stroke="none" stroke-width="0" stroke-linecap="butt"/><path d="M491.29104,195.69059c4.10423,4.0118 4.17915,10.59115 0.16735,14.69537c-4.0118,4.10423 -10.59115,4.17914 -14.69537,0.16734c-4.10423,-4.0118 -4.17915,-10.59114 -0.16734,-14.69537c4.0118,-4.10423 10.59114,-4.17915 14.69537,-0.16734z" data-paper-data="{&quot;index&quot;:null}" fill="#000000" stroke="none" stroke-width="0" stroke-linecap="butt"/><path d="M486.23201,195.23965c2.02739,1.98174 2.0644,5.23177 0.08266,7.25916c-1.98174,2.02739 -5.23177,2.0644 -7.25916,0.08266c-2.02739,-1.98174 -2.0644,-5.23177 -0.08266,-7.25916c1.98174,-2.02739 5.23177,-2.0644 7.25916,-0.08266z" data-paper-data="{&quot;index&quot;:null}" fill="#ffffff" stroke="none" stroke-width="0" stroke-linecap="butt"/><path d="M486.04794,209.05364c1.23622,1.20838 1.25878,3.19011 0.0504,4.42632c-1.20838,1.23622 -3.19011,1.25878 -4.42632,0.0504c-1.23622,-1.20838 -1.25878,-3.19011 -0.0504,-4.42632c1.20838,-1.23622 3.19011,-1.25878 4.42632,-0.0504z" data-paper-data="{&quot;index&quot;:null}" fill="#ffffff" stroke="none" stroke-width="0" stroke-linecap="butt"/><path d="M313.73165,261.80873l29.73793,-64.66677l30.93189,64.10072z" data-paper-data="{&quot;index&quot;:null}" fill="#ff0000" stroke="none" stroke-width="0" stroke-linecap="butt"/><path d="M371.71534,259.48571l-27.45332,0.21431l0.80834,-55.4576z" data-paper-data="{&quot;index&quot;:null}" fill="#b70000" stroke="#ac0000" stroke-width="2.5" stroke-linecap="round"/></g></g></svg>