<svg version="1.1" xmlns="http://www.w3.org/2000/svg" xmlns:xlink="http://www.w3.org/1999/xlink" width="731.82415" height="372.96956" viewBox="0,0,731.82415,372.96956"><defs><linearGradient x1="187.25736" y1="314.82979" x2="187.25736" y2="333.43776" gradientUnits="userSpaceOnUse" id="color-1"><stop offset="0" stop-color="#171717"/><stop offset="1" stop-color="#171717" stop-opacity="0"/></linearGradient><linearGradient x1="111.10638" y1="314.82979" x2="111.10638" y2="333.43776" gradientUnits="userSpaceOnUse" id="color-2"><stop offset="0" stop-color="#171717"/><stop offset="1" stop-color="#171717" stop-opacity="0"/></linearGradient><linearGradient x1="34.9554" y1="314.82979" x2="34.9554" y2="333.43776" gradientUnits="userSpaceOnUse" id="color-3"><stop offset="0" stop-color="#171717"/><stop offset="1" stop-color="#171717" stop-opacity="0"/></linearGradient><linearGradient x1="571.09893" y1="315.17301" x2="571.09893" y2="333.78098" gradientUnits="userSpaceOnUse" id="color-4"><stop offset="0" stop-color="#171717"/><stop offset="1" stop-color="#171717" stop-opacity="0"/></linearGradient><linearGradient x1="494.94795" y1="315.17301" x2="494.94795" y2="333.78098" gradientUnits="userSpaceOnUse" id="color-5"><stop offset="0" stop-color="#171717"/><stop offset="1" stop-color="#171717" stop-opacity="0"/></linearGradient><linearGradient x1="418.79697" y1="315.17301" x2="418.79697" y2="333.78098" gradientUnits="userSpaceOnUse" id="color-6"><stop offset="0" stop-color="#171717"/><stop offset="1" stop-color="#171717" stop-opacity="0"/></linearGradient><linearGradient x1="342.64599" y1="315.17301" x2="342.64599" y2="333.78098" gradientUnits="userSpaceOnUse" id="color-7"><stop offset="0" stop-color="#171717"/><stop offset="1" stop-color="#171717" stop-opacity="0"/></linearGradient><linearGradient x1="187.38728" y1="280.2982" x2="187.38728" y2="298.90617" gradientUnits="userSpaceOnUse" id="color-8"><stop offset="0" stop-color="#171717"/><stop offset="1" stop-color="#171717" stop-opacity="0"/></linearGradient><linearGradient x1="111.2363" y1="280.2982" x2="111.2363" y2="298.90617" gradientUnits="userSpaceOnUse" id="color-9"><stop offset="0" stop-color="#171717"/><stop offset="1" stop-color="#171717" stop-opacity="0"/></linearGradient><linearGradient x1="418.92689" y1="281.2982" x2="418.92689" y2="299.90617" gradientUnits="userSpaceOnUse" id="color-10"><stop offset="0" stop-color="#171717"/><stop offset="1" stop-color="#171717" stop-opacity="0"/></linearGradient><linearGradient x1="342.77591" y1="281.2982" x2="342.77591" y2="299.90617" gradientUnits="userSpaceOnUse" id="color-11"><stop offset="0" stop-color="#171717"/><stop offset="1" stop-color="#171717" stop-opacity="0"/></linearGradient><linearGradient x1="188.38728" y1="245.76662" x2="188.38728" y2="264.37458" gradientUnits="userSpaceOnUse" id="color-12"><stop offset="0" stop-color="#171717"/><stop offset="1" stop-color="#171717" stop-opacity="0"/></linearGradient><linearGradient x1="342.38728" y1="246.76662" x2="342.38728" y2="265.37459" gradientUnits="userSpaceOnUse" id="color-13"><stop offset="0" stop-color="#171717"/><stop offset="1" stop-color="#171717" stop-opacity="0"/></linearGradient><linearGradient x1="534.56678" y1="52.06515" x2="534.56678" y2="33.45718" gradientUnits="userSpaceOnUse" id="color-14"><stop offset="0" stop-color="#171717"/><stop offset="1" stop-color="#171717" stop-opacity="0"/></linearGradient><linearGradient x1="610.71776" y1="52.06515" x2="610.71776" y2="33.45718" gradientUnits="userSpaceOnUse" id="color-15"><stop offset="0" stop-color="#171717"/><stop offset="1" stop-color="#171717" stop-opacity="0"/></linearGradient><linearGradient x1="686.86873" y1="52.06515" x2="686.86873" y2="33.45718" gradientUnits="userSpaceOnUse" id="color-16"><stop offset="0" stop-color="#171717"/><stop offset="1" stop-color="#171717" stop-opacity="0"/></linearGradient><linearGradient x1="494.94795" y1="265.76662" x2="494.94795" y2="284.37459" gradientUnits="userSpaceOnUse" id="color-17"><stop offset="0" stop-color="#171717"/><stop offset="1" stop-color="#171717" stop-opacity="0"/></linearGradient><linearGradient x1="226.87619" y1="51.72193" x2="226.87619" y2="33.11396" gradientUnits="userSpaceOnUse" id="color-18"><stop offset="0" stop-color="#171717"/><stop offset="1" stop-color="#171717" stop-opacity="0"/></linearGradient><linearGradient x1="303.02717" y1="51.72193" x2="303.02717" y2="33.11396" gradientUnits="userSpaceOnUse" id="color-19"><stop offset="0" stop-color="#171717"/><stop offset="1" stop-color="#171717" stop-opacity="0"/></linearGradient><linearGradient x1="379.17815" y1="51.72193" x2="379.17815" y2="33.11396" gradientUnits="userSpaceOnUse" id="color-20"><stop offset="0" stop-color="#171717"/><stop offset="1" stop-color="#171717" stop-opacity="0"/></linearGradient><linearGradient x1="534.43686" y1="86.59674" x2="534.43686" y2="67.98877" gradientUnits="userSpaceOnUse" id="color-21"><stop offset="0" stop-color="#171717"/><stop offset="1" stop-color="#171717" stop-opacity="0"/></linearGradient><linearGradient x1="610.58784" y1="86.59674" x2="610.58784" y2="67.98877" gradientUnits="userSpaceOnUse" id="color-22"><stop offset="0" stop-color="#171717"/><stop offset="1" stop-color="#171717" stop-opacity="0"/></linearGradient><linearGradient x1="302.89725" y1="85.59674" x2="302.89725" y2="66.98877" gradientUnits="userSpaceOnUse" id="color-23"><stop offset="0" stop-color="#171717"/><stop offset="1" stop-color="#171717" stop-opacity="0"/></linearGradient><linearGradient x1="379.04823" y1="85.59674" x2="379.04823" y2="66.98877" gradientUnits="userSpaceOnUse" id="color-24"><stop offset="0" stop-color="#171717"/><stop offset="1" stop-color="#171717" stop-opacity="0"/></linearGradient><linearGradient x1="533.43686" y1="121.12832" x2="533.43686" y2="102.52036" gradientUnits="userSpaceOnUse" id="color-25"><stop offset="0" stop-color="#171717"/><stop offset="1" stop-color="#171717" stop-opacity="0"/></linearGradient><linearGradient x1="379.43686" y1="120.12832" x2="379.43686" y2="101.52035" gradientUnits="userSpaceOnUse" id="color-26"><stop offset="0" stop-color="#171717"/><stop offset="1" stop-color="#171717" stop-opacity="0"/></linearGradient><linearGradient x1="494.94795" y1="270.17301" x2="494.94795" y2="288.78098" gradientUnits="userSpaceOnUse" id="color-27"><stop offset="0" stop-color="#171717"/><stop offset="1" stop-color="#171717" stop-opacity="0"/></linearGradient><linearGradient x1="494.94795" y1="220.76662" x2="494.94795" y2="239.37459" gradientUnits="userSpaceOnUse" id="color-28"><stop offset="0" stop-color="#171717"/><stop offset="1" stop-color="#171717" stop-opacity="0"/></linearGradient></defs><g transform="translate(5.00001,3.03731)"><g data-paper-data="{&quot;isPaintingLayer&quot;:true}" fill-rule="nonzero" stroke="#000000" stroke-width="3.5" stroke-linecap="butt" stroke-linejoin="miter" stroke-miterlimit="10" stroke-dasharray="" stroke-dashoffset="0" style="mix-blend-mode: normal"><g><path d="M149.05195,367.83903v-53.00924h76.41082v53.00924z" fill="#2b2b2b"/><path d="M149.05195,367.63055v-16.31454h76.41082v16.31454z" fill="#212121"/><path d="M149.05195,333.43776v-18.60796h76.41082v18.60796z" fill="url(#color-1)"/><path d="M149.05195,315.09041v-16.31455h76.41082v16.31455z" fill="#3d3d3d"/><path d="M149.05195,314.8819v-7.97484h76.41082v7.97484z" fill="#303030"/><path d="M221.60691,315.09041v-16.31455h3.85586v16.31455z" data-paper-data="{&quot;index&quot;:null}" fill="#111111"/><path d="M217.79936,315.09041v-16.31455h3.85586v16.31455z" data-paper-data="{&quot;index&quot;:null}" fill="#212121"/><path d="M149.10483,315.09041v-16.31455h3.85586v16.31455z" data-paper-data="{&quot;index&quot;:null}" fill="#111111"/><path d="M153.07102,315.09041v-16.31455h3.85586v16.31455z" data-paper-data="{&quot;index&quot;:null}" fill="#212121"/></g><g><path d="M72.90097,367.83903v-53.00924h76.41082v53.00924z" fill="#2b2b2b"/><path d="M72.90097,367.63055v-16.31454h76.41082v16.31454z" fill="#212121"/><path d="M72.90097,333.43776v-18.60796h76.41082v18.60796z" fill="url(#color-2)"/><path d="M72.90097,315.09041v-16.31455h76.41082v16.31455z" fill="#3d3d3d"/><path d="M72.90097,314.8819v-7.97484h76.41082v7.97484z" fill="#303030"/><path d="M145.45593,315.09041v-16.31455h3.85586v16.31455z" data-paper-data="{&quot;index&quot;:null}" fill="#111111"/><path d="M141.64838,315.09041v-16.31455h3.85586v16.31455z" data-paper-data="{&quot;index&quot;:null}" fill="#212121"/><path d="M72.95385,315.09041v-16.31455h3.85586v16.31455z" data-paper-data="{&quot;index&quot;:null}" fill="#111111"/><path d="M76.92005,315.09041v-16.31455h3.85586v16.31455z" data-paper-data="{&quot;index&quot;:null}" fill="#212121"/></g><g><path d="M-3.25001,367.83903v-53.00924h76.41082v53.00924z" fill="#2b2b2b"/><path d="M-3.25001,367.63055v-16.31455h76.41082v16.31455z" fill="#212121"/><path d="M-3.25001,333.43776v-18.60797h76.41082v18.60797z" fill="url(#color-3)"/><path d="M-3.25001,315.09041v-16.31454h76.41082v16.31454z" fill="#3d3d3d"/><path d="M-3.25001,314.8819v-7.97484h76.41082v7.97484z" fill="#303030"/><path d="M69.30495,315.09041v-16.31454h3.85586v16.31454z" data-paper-data="{&quot;index&quot;:null}" fill="#111111"/><path d="M65.4974,315.09041v-16.31454h3.85586v16.31454z" data-paper-data="{&quot;index&quot;:null}" fill="#212121"/><path d="M-3.19713,315.09041v-16.31454h3.85586v16.31454z" data-paper-data="{&quot;index&quot;:null}" fill="#111111"/><path d="M0.76907,315.09041v-16.31454h3.85586v16.31454z" data-paper-data="{&quot;index&quot;:null}" fill="#212121"/></g><g><path d="M532.89352,368.18225v-53.00923h76.41082v53.00923z" fill="#2b2b2b"/><path d="M532.89352,367.97377v-16.31454h76.41082v16.31454z" fill="#212121"/><path d="M532.89352,333.78098v-18.60796h76.41082v18.60796z" fill="url(#color-4)"/><path d="M532.89352,315.43363v-16.31455h76.41082v16.31455z" fill="#3d3d3d"/><path d="M532.89352,315.22511v-7.97484h76.41082v7.97484z" fill="#303030"/><path d="M605.44848,315.43363v-16.31455h3.85586v16.31455z" data-paper-data="{&quot;index&quot;:null}" fill="#111111"/><path d="M601.64092,315.43363v-16.31455h3.85586v16.31455z" data-paper-data="{&quot;index&quot;:null}" fill="#212121"/><path d="M532.9464,315.43363v-16.31455h3.85586v16.31455z" data-paper-data="{&quot;index&quot;:null}" fill="#111111"/><path d="M536.91259,315.43363v-16.31455h3.85586v16.31455z" data-paper-data="{&quot;index&quot;:null}" fill="#212121"/></g><g><path d="M456.74254,368.18225v-53.00923h76.41082v53.00923z" fill="#2b2b2b"/><path d="M456.74254,367.97377v-16.31454h76.41082v16.31454z" fill="#212121"/><path d="M456.74254,333.78098v-18.60796h76.41082v18.60796z" fill="url(#color-5)"/><path d="M456.74254,315.43363v-16.31455h76.41082v16.31455z" fill="#3d3d3d"/><path d="M456.74254,315.22511v-7.97484h76.41082v7.97484z" fill="#303030"/><path d="M529.2975,315.43363v-16.31455h3.85586v16.31455z" data-paper-data="{&quot;index&quot;:null}" fill="#111111"/><path d="M525.48995,315.43363v-16.31455h3.85586v16.31455z" data-paper-data="{&quot;index&quot;:null}" fill="#212121"/><path d="M456.79542,315.43363v-16.31455h3.85586v16.31455z" data-paper-data="{&quot;index&quot;:null}" fill="#111111"/><path d="M460.76162,315.43363v-16.31455h3.85586v16.31455z" data-paper-data="{&quot;index&quot;:null}" fill="#212121"/></g><g><path d="M380.59156,368.18225v-53.00923h76.41082v53.00923z" fill="#2b2b2b"/><path d="M380.59156,367.97377v-16.31454h76.41082v16.31454z" fill="#212121"/><path d="M380.59156,333.78098v-18.60796h76.41082v18.60796z" fill="url(#color-6)"/><path d="M380.59156,315.43363v-16.31455h76.41082v16.31455z" fill="#3d3d3d"/><path d="M380.59156,315.22511v-7.97484h76.41082v7.97484z" fill="#303030"/><path d="M453.14652,315.43363v-16.31455h3.85586v16.31455z" data-paper-data="{&quot;index&quot;:null}" fill="#111111"/><path d="M449.33897,315.43363v-16.31455h3.85586v16.31455z" data-paper-data="{&quot;index&quot;:null}" fill="#212121"/><path d="M380.64445,315.43363v-16.31455h3.85586v16.31455z" data-paper-data="{&quot;index&quot;:null}" fill="#111111"/><path d="M384.61064,315.43363v-16.31455h3.85586v16.31455z" data-paper-data="{&quot;index&quot;:null}" fill="#212121"/></g><g><path d="M304.44058,368.18225v-53.00923h76.41082v53.00923z" fill="#2b2b2b"/><path d="M304.44058,367.97377v-16.31455h76.41082v16.31455z" fill="#212121"/><path d="M304.44058,333.78098v-18.60796h76.41082v18.60796z" fill="url(#color-7)"/><path d="M304.44058,315.43363v-16.31454h76.41082v16.31454z" fill="#3d3d3d"/><path d="M304.44058,315.22511v-7.97484h76.41082v7.97484z" fill="#303030"/><path d="M376.99554,315.43363v-16.31454h3.85586v16.31454z" data-paper-data="{&quot;index&quot;:null}" fill="#111111"/><path d="M373.18799,315.43363v-16.31454h3.85586v16.31454z" data-paper-data="{&quot;index&quot;:null}" fill="#212121"/><path d="M304.49347,315.43363v-16.31454h3.85586v16.31454z" data-paper-data="{&quot;index&quot;:null}" fill="#111111"/><path d="M308.45966,315.43363v-16.31454h3.85586v16.31454z" data-paper-data="{&quot;index&quot;:null}" fill="#212121"/></g><g><path d="M149.18187,333.30744v-53.00924h76.41082v53.00924z" fill="#2b2b2b"/><path d="M149.18187,333.09896v-16.31454h76.41082v16.31454z" fill="#212121"/><path d="M149.18187,298.90617v-18.60796h76.41082v18.60796z" fill="url(#color-8)"/><path d="M149.18187,280.55882v-16.31455h76.41082v16.31455z" fill="#3d3d3d"/><path d="M149.18187,280.35031v-7.97484h76.41082v7.97484z" fill="#303030"/><path d="M221.73683,280.55882v-16.31455h3.85586v16.31455z" data-paper-data="{&quot;index&quot;:null}" fill="#111111"/><path d="M217.92928,280.55882v-16.31455h3.85586v16.31455z" data-paper-data="{&quot;index&quot;:null}" fill="#212121"/><path d="M149.23475,280.55882v-16.31455h3.85586v16.31455z" data-paper-data="{&quot;index&quot;:null}" fill="#111111"/><path d="M153.20094,280.55882v-16.31455h3.85586v16.31455z" data-paper-data="{&quot;index&quot;:null}" fill="#212121"/></g><g><path d="M73.03089,333.30744v-53.00924h76.41082v53.00924z" fill="#2b2b2b"/><path d="M73.03089,333.09896v-16.31454h76.41082v16.31454z" fill="#212121"/><path d="M73.03089,298.90617v-18.60796h76.41082v18.60796z" fill="url(#color-9)"/><path d="M73.03089,280.55882v-16.31455h76.41082v16.31455z" fill="#3d3d3d"/><path d="M73.03089,280.35031v-7.97484h76.41082v7.97484z" fill="#303030"/><path d="M145.58585,280.55882v-16.31455h3.85586v16.31455z" data-paper-data="{&quot;index&quot;:null}" fill="#111111"/><path d="M141.7783,280.55882v-16.31455h3.85586v16.31455z" data-paper-data="{&quot;index&quot;:null}" fill="#212121"/><path d="M73.08377,280.55882v-16.31455h3.85586v16.31455z" data-paper-data="{&quot;index&quot;:null}" fill="#111111"/><path d="M77.04997,280.55882v-16.31455h3.85586v16.31455z" data-paper-data="{&quot;index&quot;:null}" fill="#212121"/></g><g><path d="M380.72148,334.30744v-53.00924h76.41082v53.00924z" fill="#2b2b2b"/><path d="M380.72148,334.09896v-16.31454h76.41082v16.31454z" fill="#212121"/><path d="M380.72148,299.90617v-18.60796h76.41082v18.60796z" fill="url(#color-10)"/><path d="M380.72148,281.55882v-16.31455h76.41082v16.31455z" fill="#3d3d3d"/><path d="M380.72148,281.35031v-7.97484h76.41082v7.97484z" fill="#303030"/><path d="M453.27644,281.55882v-16.31455h3.85586v16.31455z" data-paper-data="{&quot;index&quot;:null}" fill="#111111"/><path d="M449.46889,281.55882v-16.31455h3.85586v16.31455z" data-paper-data="{&quot;index&quot;:null}" fill="#212121"/><path d="M380.77436,281.55882v-16.31455h3.85586v16.31455z" data-paper-data="{&quot;index&quot;:null}" fill="#111111"/><path d="M384.74055,281.55882v-16.31455h3.85586v16.31455z" data-paper-data="{&quot;index&quot;:null}" fill="#212121"/></g><g><path d="M304.5705,334.30744v-53.00924h76.41082v53.00924z" fill="#2b2b2b"/><path d="M304.5705,334.09896v-16.31454h76.41082v16.31454z" fill="#212121"/><path d="M304.5705,299.90617v-18.60796h76.41082v18.60796z" fill="url(#color-11)"/><path d="M304.5705,281.55882v-16.31455h76.41082v16.31455z" fill="#3d3d3d"/><path d="M304.5705,281.35031v-7.97484h76.41082v7.97484z" fill="#303030"/><path d="M377.12546,281.55882v-16.31455h3.85586v16.31455z" data-paper-data="{&quot;index&quot;:null}" fill="#111111"/><path d="M373.31791,281.55882v-16.31455h3.85586v16.31455z" data-paper-data="{&quot;index&quot;:null}" fill="#212121"/><path d="M304.62338,281.55882v-16.31455h3.85586v16.31455z" data-paper-data="{&quot;index&quot;:null}" fill="#111111"/><path d="M308.58958,281.55882v-16.31455h3.85586v16.31455z" data-paper-data="{&quot;index&quot;:null}" fill="#212121"/></g><g><path d="M150.18187,298.77585v-53.00924h76.41082v53.00924z" fill="#2b2b2b"/><path d="M150.18187,298.56737v-16.31454h76.41082v16.31454z" fill="#212121"/><path d="M150.18187,264.37458v-18.60796h76.41082v18.60796z" fill="url(#color-12)"/><path d="M150.18187,246.02724v-16.31455h76.41082v16.31455z" fill="#3d3d3d"/><path d="M150.18187,245.81872v-7.97484h76.41082v7.97484z" fill="#303030"/><path d="M222.73683,246.02724v-16.31455h3.85586v16.31455z" data-paper-data="{&quot;index&quot;:null}" fill="#111111"/><path d="M218.92928,246.02724v-16.31455h3.85586v16.31455z" data-paper-data="{&quot;index&quot;:null}" fill="#212121"/><path d="M150.23475,246.02724v-16.31455h3.85586v16.31455z" data-paper-data="{&quot;index&quot;:null}" fill="#111111"/><path d="M154.20094,246.02724v-16.31455h3.85586v16.31455z" data-paper-data="{&quot;index&quot;:null}" fill="#212121"/></g><g><path d="M304.18187,299.77585v-53.00924h76.41082v53.00924z" fill="#2b2b2b"/><path d="M304.18187,299.56738v-16.31454h76.41082v16.31454z" fill="#212121"/><path d="M304.18187,265.37459v-18.60796h76.41082v18.60796z" fill="url(#color-13)"/><path d="M304.18187,247.02724v-16.31455h76.41082v16.31455z" fill="#3d3d3d"/><path d="M304.18187,246.81873v-7.97484h76.41082v7.97484z" fill="#303030"/><path d="M376.73683,247.02724v-16.31455h3.85586v16.31455z" data-paper-data="{&quot;index&quot;:null}" fill="#111111"/><path d="M372.92928,247.02724v-16.31455h3.85586v16.31455z" data-paper-data="{&quot;index&quot;:null}" fill="#212121"/><path d="M304.23475,247.02724v-16.31455h3.85586v16.31455z" data-paper-data="{&quot;index&quot;:null}" fill="#111111"/><path d="M308.20094,247.02724v-16.31455h3.85586v16.31455z" data-paper-data="{&quot;index&quot;:null}" fill="#212121"/></g><g data-paper-data="{&quot;index&quot;:null}"><path d="M572.77219,-0.94409v53.00924h-76.41082v-53.00924z" fill="#2b2b2b"/><path d="M572.77219,-0.73561v16.31454h-76.41082v-16.31454z" fill="#212121"/><path d="M572.77219,33.45718v18.60796h-76.41082v-18.60796z" fill="url(#color-14)"/><path d="M572.77219,51.80453v16.31455h-76.41082v-16.31455z" fill="#3d3d3d"/><path d="M572.77219,52.01304v7.97484h-76.41082v-7.97484z" fill="#303030"/><path d="M500.21723,51.80453v16.31455h-3.85586v-16.31455z" data-paper-data="{&quot;index&quot;:null}" fill="#111111"/><path d="M504.02478,51.80453v16.31455h-3.85586v-16.31455z" data-paper-data="{&quot;index&quot;:null}" fill="#212121"/><path d="M572.71931,51.80453v16.31455h-3.85586v-16.31455z" data-paper-data="{&quot;index&quot;:null}" fill="#111111"/><path d="M568.75312,51.80453v16.31455h-3.85586v-16.31455z" data-paper-data="{&quot;index&quot;:null}" fill="#212121"/></g><g data-paper-data="{&quot;index&quot;:null}"><path d="M648.92317,-0.94409v53.00924h-76.41082v-53.00924z" fill="#2b2b2b"/><path d="M648.92317,-0.73561v16.31454h-76.41082v-16.31454z" fill="#212121"/><path d="M648.92317,33.45718v18.60796h-76.41082v-18.60796z" fill="url(#color-15)"/><path d="M648.92317,51.80453v16.31455h-76.41082v-16.31455z" fill="#3d3d3d"/><path d="M648.92317,52.01304v7.97484h-76.41082v-7.97484z" fill="#303030"/><path d="M576.36821,51.80453v16.31455h-3.85586v-16.31455z" data-paper-data="{&quot;index&quot;:null}" fill="#111111"/><path d="M580.17576,51.80453v16.31455h-3.85586v-16.31455z" data-paper-data="{&quot;index&quot;:null}" fill="#212121"/><path d="M648.87029,51.80453v16.31455h-3.85586v-16.31455z" data-paper-data="{&quot;index&quot;:null}" fill="#111111"/><path d="M644.90409,51.80453v16.31455h-3.85586v-16.31455z" data-paper-data="{&quot;index&quot;:null}" fill="#212121"/></g><g data-paper-data="{&quot;index&quot;:null}"><path d="M725.07415,-0.94409v53.00924h-76.41082v-53.00924z" fill="#2b2b2b"/><path d="M725.07415,-0.73561v16.31455h-76.41082v-16.31455z" fill="#212121"/><path d="M725.07415,33.45718v18.60797h-76.41082v-18.60797z" fill="url(#color-16)"/><path d="M725.07415,51.80453v16.31454h-76.41082v-16.31454z" fill="#3d3d3d"/><path d="M725.07415,52.01304v7.97484h-76.41082v-7.97484z" fill="#303030"/><path d="M652.51919,51.80453v16.31454h-3.85586v-16.31454z" data-paper-data="{&quot;index&quot;:null}" fill="#111111"/><path d="M656.32674,51.80453v16.31454h-3.85586v-16.31454z" data-paper-data="{&quot;index&quot;:null}" fill="#212121"/><path d="M725.02127,51.80453v16.31454h-3.85586v-16.31454z" data-paper-data="{&quot;index&quot;:null}" fill="#111111"/><path d="M721.05507,51.80453v16.31454h-3.85586v-16.31454z" data-paper-data="{&quot;index&quot;:null}" fill="#212121"/></g><g data-paper-data="{&quot;index&quot;:null}"><path d="M456.74254,318.77586v-53.00923h76.41082v53.00923z" fill="#2b2b2b"/><path d="M456.74254,318.56738v-16.31454h76.41082v16.31454z" fill="#212121"/><path d="M456.74254,284.37459v-18.60796h76.41082v18.60796z" fill="url(#color-17)"/><path d="M456.74254,266.02724v-16.31455h76.41082v16.31455z" fill="#3d3d3d"/><path d="M456.74254,265.81872v-7.97484h76.41082v7.97484z" fill="#303030"/><path d="M529.2975,266.02724v-16.31455h3.85586v16.31455z" data-paper-data="{&quot;index&quot;:null}" fill="#111111"/><path d="M525.48994,266.02724v-16.31455h3.85586v16.31455z" data-paper-data="{&quot;index&quot;:null}" fill="#212121"/><path d="M456.79542,266.02724v-16.31455h3.85586v16.31455z" data-paper-data="{&quot;index&quot;:null}" fill="#111111"/><path d="M460.76161,266.02724v-16.31455h3.85586v16.31455z" data-paper-data="{&quot;index&quot;:null}" fill="#212121"/></g><g data-paper-data="{&quot;index&quot;:null}"><path d="M265.0816,-1.28731v53.00923h-76.41082v-53.00923z" fill="#2b2b2b"/><path d="M265.0816,-1.07883v16.31454h-76.41082v-16.31454z" fill="#212121"/><path d="M265.0816,33.11396v18.60796h-76.41082v-18.60796z" fill="url(#color-18)"/><path d="M265.0816,51.46131v16.31455h-76.41082v-16.31455z" fill="#3d3d3d"/><path d="M265.0816,51.66983v7.97484h-76.41082v-7.97484z" fill="#303030"/><path d="M192.52663,51.46131v16.31455h-3.85586v-16.31455z" data-paper-data="{&quot;index&quot;:null}" fill="#111111"/><path d="M196.33418,51.46131v16.31455h-3.85586v-16.31455z" data-paper-data="{&quot;index&quot;:null}" fill="#212121"/><path d="M265.02872,51.46131v16.31455h-3.85586v-16.31455z" data-paper-data="{&quot;index&quot;:null}" fill="#111111"/><path d="M261.06252,51.46131v16.31455h-3.85586v-16.31455z" data-paper-data="{&quot;index&quot;:null}" fill="#212121"/></g><g data-paper-data="{&quot;index&quot;:null}"><path d="M341.23258,-1.28731v53.00923h-76.41082v-53.00923z" fill="#2b2b2b"/><path d="M341.23258,-1.07883v16.31454h-76.41082v-16.31454z" fill="#212121"/><path d="M341.23258,33.11396v18.60796h-76.41082v-18.60796z" fill="url(#color-19)"/><path d="M341.23258,51.46131v16.31455h-76.41082v-16.31455z" fill="#3d3d3d"/><path d="M341.23258,51.66983v7.97484h-76.41082v-7.97484z" fill="#303030"/><path d="M268.67762,51.46131v16.31455h-3.85586v-16.31455z" data-paper-data="{&quot;index&quot;:null}" fill="#111111"/><path d="M272.48517,51.46131v16.31455h-3.85586v-16.31455z" data-paper-data="{&quot;index&quot;:null}" fill="#212121"/><path d="M341.17969,51.46131v16.31455h-3.85586v-16.31455z" data-paper-data="{&quot;index&quot;:null}" fill="#111111"/><path d="M337.2135,51.46131v16.31455h-3.85586v-16.31455z" data-paper-data="{&quot;index&quot;:null}" fill="#212121"/></g><g data-paper-data="{&quot;index&quot;:null}"><path d="M417.38356,-1.28731v53.00923h-76.41082v-53.00923z" fill="#2b2b2b"/><path d="M417.38356,-1.07883v16.31455h-76.41082v-16.31455z" fill="#212121"/><path d="M417.38356,33.11396v18.60796h-76.41082v-18.60796z" fill="url(#color-20)"/><path d="M417.38356,51.46131v16.31454h-76.41082v-16.31454z" fill="#3d3d3d"/><path d="M417.38356,51.66983v7.97484h-76.41082v-7.97484z" fill="#303030"/><path d="M344.8286,51.46131v16.31454h-3.85586v-16.31454z" data-paper-data="{&quot;index&quot;:null}" fill="#111111"/><path d="M348.63615,51.46131v16.31454h-3.85586v-16.31454z" data-paper-data="{&quot;index&quot;:null}" fill="#212121"/><path d="M417.33067,51.46131v16.31454h-3.85586v-16.31454z" data-paper-data="{&quot;index&quot;:null}" fill="#111111"/><path d="M413.36448,51.46131v16.31454h-3.85586v-16.31454z" data-paper-data="{&quot;index&quot;:null}" fill="#212121"/></g><g data-paper-data="{&quot;index&quot;:null}"><path d="M572.64227,33.5875v53.00924h-76.41082v-53.00924z" fill="#2b2b2b"/><path d="M572.64227,33.79598v16.31454h-76.41082v-16.31454z" fill="#212121"/><path d="M572.64227,67.98877v18.60796h-76.41082v-18.60796z" fill="url(#color-21)"/><path d="M572.64227,86.33612v16.31455h-76.41082v-16.31455z" fill="#3d3d3d"/><path d="M572.64227,86.54463v7.97484h-76.41082v-7.97484z" fill="#303030"/><path d="M500.08731,86.33612v16.31455h-3.85586v-16.31455z" data-paper-data="{&quot;index&quot;:null}" fill="#111111"/><path d="M503.89486,86.33612v16.31455h-3.85586v-16.31455z" data-paper-data="{&quot;index&quot;:null}" fill="#212121"/><path d="M572.58939,86.33612v16.31455h-3.85586v-16.31455z" data-paper-data="{&quot;index&quot;:null}" fill="#111111"/><path d="M568.6232,86.33612v16.31455h-3.85586v-16.31455z" data-paper-data="{&quot;index&quot;:null}" fill="#212121"/></g><g data-paper-data="{&quot;index&quot;:null}"><path d="M648.79325,33.5875v53.00924h-76.41082v-53.00924z" fill="#2b2b2b"/><path d="M648.79325,33.79598v16.31454h-76.41082v-16.31454z" fill="#212121"/><path d="M648.79325,67.98877v18.60796h-76.41082v-18.60796z" fill="url(#color-22)"/><path d="M648.79325,86.33612v16.31455h-76.41082v-16.31455z" fill="#3d3d3d"/><path d="M648.79325,86.54463v7.97484h-76.41082v-7.97484z" fill="#303030"/><path d="M576.23829,86.33612v16.31455h-3.85586v-16.31455z" data-paper-data="{&quot;index&quot;:null}" fill="#111111"/><path d="M580.04584,86.33612v16.31455h-3.85586v-16.31455z" data-paper-data="{&quot;index&quot;:null}" fill="#212121"/><path d="M648.74037,86.33612v16.31455h-3.85586v-16.31455z" data-paper-data="{&quot;index&quot;:null}" fill="#111111"/><path d="M644.77417,86.33612v16.31455h-3.85586v-16.31455z" data-paper-data="{&quot;index&quot;:null}" fill="#212121"/></g><g data-paper-data="{&quot;index&quot;:null}"><path d="M341.10266,32.5875v53.00924h-76.41082v-53.00924z" fill="#2b2b2b"/><path d="M341.10266,32.79598v16.31454h-76.41082v-16.31454z" fill="#212121"/><path d="M341.10266,66.98877v18.60796h-76.41082v-18.60796z" fill="url(#color-23)"/><path d="M341.10266,85.33612v16.31455h-76.41082v-16.31455z" fill="#3d3d3d"/><path d="M341.10266,85.54463v7.97484h-76.41082v-7.97484z" fill="#303030"/><path d="M268.5477,85.33612v16.31455h-3.85586v-16.31455z" data-paper-data="{&quot;index&quot;:null}" fill="#111111"/><path d="M272.35525,85.33612v16.31455h-3.85586v-16.31455z" data-paper-data="{&quot;index&quot;:null}" fill="#212121"/><path d="M341.04978,85.33612v16.31455h-3.85586v-16.31455z" data-paper-data="{&quot;index&quot;:null}" fill="#111111"/><path d="M337.08359,85.33612v16.31455h-3.85586v-16.31455z" data-paper-data="{&quot;index&quot;:null}" fill="#212121"/></g><g data-paper-data="{&quot;index&quot;:null}"><path d="M417.25364,32.5875v53.00924h-76.41082v-53.00924z" fill="#2b2b2b"/><path d="M417.25364,32.79598v16.31454h-76.41082v-16.31454z" fill="#212121"/><path d="M417.25364,66.98877v18.60796h-76.41082v-18.60796z" fill="url(#color-24)"/><path d="M417.25364,85.33612v16.31455h-76.41082v-16.31455z" fill="#3d3d3d"/><path d="M417.25364,85.54463v7.97484h-76.41082v-7.97484z" fill="#303030"/><path d="M344.69868,85.33612v16.31455h-3.85586v-16.31455z" data-paper-data="{&quot;index&quot;:null}" fill="#111111"/><path d="M348.50623,85.33612v16.31455h-3.85586v-16.31455z" data-paper-data="{&quot;index&quot;:null}" fill="#212121"/><path d="M417.20076,85.33612v16.31455h-3.85586v-16.31455z" data-paper-data="{&quot;index&quot;:null}" fill="#111111"/><path d="M413.23456,85.33612v16.31455h-3.85586v-16.31455z" data-paper-data="{&quot;index&quot;:null}" fill="#212121"/></g><g data-paper-data="{&quot;index&quot;:null}"><path d="M571.64227,68.11909v53.00924h-76.41082v-53.00924z" fill="#2b2b2b"/><path d="M571.64227,68.32757v16.31454h-76.41082v-16.31454z" fill="#212121"/><path d="M571.64227,102.52036v18.60796h-76.41082v-18.60796z" fill="url(#color-25)"/><path d="M571.64227,120.8677v16.31455h-76.41082v-16.31455z" fill="#3d3d3d"/><path d="M571.64227,121.07622v7.97484h-76.41082v-7.97484z" fill="#303030"/><path d="M499.08731,120.8677v16.31455h-3.85586v-16.31455z" data-paper-data="{&quot;index&quot;:null}" fill="#111111"/><path d="M502.89486,120.8677v16.31455h-3.85586v-16.31455z" data-paper-data="{&quot;index&quot;:null}" fill="#212121"/><path d="M571.58939,120.8677v16.31455h-3.85586v-16.31455z" data-paper-data="{&quot;index&quot;:null}" fill="#111111"/><path d="M567.6232,120.8677v16.31455h-3.85586v-16.31455z" data-paper-data="{&quot;index&quot;:null}" fill="#212121"/></g><g data-paper-data="{&quot;index&quot;:null}"><path d="M417.64226,67.11909v53.00924h-76.41082v-53.00924z" fill="#2b2b2b"/><path d="M417.64226,67.32756v16.31454h-76.41082v-16.31454z" fill="#212121"/><path d="M417.64226,101.52035v18.60796h-76.41082v-18.60796z" fill="url(#color-26)"/><path d="M417.64226,119.8677v16.31455h-76.41082v-16.31455z" fill="#3d3d3d"/><path d="M417.64226,120.07621v7.97484h-76.41082v-7.97484z" fill="#303030"/><path d="M345.0873,119.8677v16.31455h-3.85586v-16.31455z" data-paper-data="{&quot;index&quot;:null}" fill="#111111"/><path d="M348.89485,119.8677v16.31455h-3.85586v-16.31455z" data-paper-data="{&quot;index&quot;:null}" fill="#212121"/><path d="M417.58938,119.8677v16.31455h-3.85586v-16.31455z" data-paper-data="{&quot;index&quot;:null}" fill="#111111"/><path d="M413.62319,119.8677v16.31455h-3.85586v-16.31455z" data-paper-data="{&quot;index&quot;:null}" fill="#212121"/></g><g><path d="M456.74254,323.18225v-53.00923h76.41082v53.00923z" fill="#2b2b2b"/><path d="M456.74254,322.97377v-16.31454h76.41082v16.31454z" fill="#212121"/><path d="M456.74254,288.78098v-18.60796h76.41082v18.60796z" fill="url(#color-27)"/><path d="M456.74254,270.43363v-16.31455h76.41082v16.31455z" fill="#3d3d3d"/><path d="M456.74254,270.22511v-7.97484h76.41082v7.97484z" fill="#303030"/><path d="M529.2975,270.43363v-16.31455h3.85586v16.31455z" data-paper-data="{&quot;index&quot;:null}" fill="#111111"/><path d="M525.48995,270.43363v-16.31455h3.85586v16.31455z" data-paper-data="{&quot;index&quot;:null}" fill="#212121"/><path d="M456.79542,270.43363v-16.31455h3.85586v16.31455z" data-paper-data="{&quot;index&quot;:null}" fill="#111111"/><path d="M460.76162,270.43363v-16.31455h3.85586v16.31455z" data-paper-data="{&quot;index&quot;:null}" fill="#212121"/></g><g data-paper-data="{&quot;index&quot;:null}"><path d="M456.74254,273.77585v-53.00923h76.41082v53.00923z" fill="#2b2b2b"/><path d="M456.74254,273.56738v-16.31454h76.41082v16.31454z" fill="#212121"/><path d="M456.74254,239.37459v-18.60796h76.41082v18.60796z" fill="url(#color-28)"/><path d="M456.74254,221.02724v-16.31455h76.41082v16.31455z" fill="#3d3d3d"/><path d="M456.74254,220.81872v-7.97484h76.41082v7.97484z" fill="#303030"/><path d="M529.2975,221.02724v-16.31455h3.85586v16.31455z" data-paper-data="{&quot;index&quot;:null}" fill="#111111"/><path d="M525.48994,221.02724v-16.31455h3.85586v16.31455z" data-paper-data="{&quot;index&quot;:null}" fill="#212121"/><path d="M456.79542,221.02724v-16.31455h3.85586v16.31455z" data-paper-data="{&quot;index&quot;:null}" fill="#111111"/><path d="M460.76161,221.02724v-16.31455h3.85586v16.31455z" data-paper-data="{&quot;index&quot;:null}" fill="#212121"/></g></g></g></svg>