<svg version="1.1" xmlns="http://www.w3.org/2000/svg" xmlns:xlink="http://www.w3.org/1999/xlink" width="616.05435" height="107.43798" viewBox="0,0,616.05435,107.43798"><defs><linearGradient x1="263.40834" y1="314.82978" x2="263.40834" y2="333.43775" gradientUnits="userSpaceOnUse" id="color-1"><stop offset="0" stop-color="#171717"/><stop offset="1" stop-color="#171717" stop-opacity="0"/></linearGradient><linearGradient x1="187.25736" y1="314.82978" x2="187.25736" y2="333.43775" gradientUnits="userSpaceOnUse" id="color-2"><stop offset="0" stop-color="#171717"/><stop offset="1" stop-color="#171717" stop-opacity="0"/></linearGradient><linearGradient x1="111.10638" y1="314.82978" x2="111.10638" y2="333.43775" gradientUnits="userSpaceOnUse" id="color-3"><stop offset="0" stop-color="#171717"/><stop offset="1" stop-color="#171717" stop-opacity="0"/></linearGradient><linearGradient x1="34.9554" y1="314.82978" x2="34.9554" y2="333.43775" gradientUnits="userSpaceOnUse" id="color-4"><stop offset="0" stop-color="#171717"/><stop offset="1" stop-color="#171717" stop-opacity="0"/></linearGradient><linearGradient x1="571.09893" y1="315.17301" x2="571.09893" y2="333.78097" gradientUnits="userSpaceOnUse" id="color-5"><stop offset="0" stop-color="#171717"/><stop offset="1" stop-color="#171717" stop-opacity="0"/></linearGradient><linearGradient x1="494.94795" y1="315.17301" x2="494.94795" y2="333.78097" gradientUnits="userSpaceOnUse" id="color-6"><stop offset="0" stop-color="#171717"/><stop offset="1" stop-color="#171717" stop-opacity="0"/></linearGradient><linearGradient x1="418.79697" y1="315.17301" x2="418.79697" y2="333.78097" gradientUnits="userSpaceOnUse" id="color-7"><stop offset="0" stop-color="#171717"/><stop offset="1" stop-color="#171717" stop-opacity="0"/></linearGradient><linearGradient x1="342.64599" y1="315.17301" x2="342.64599" y2="333.78097" gradientUnits="userSpaceOnUse" id="color-8"><stop offset="0" stop-color="#171717"/><stop offset="1" stop-color="#171717" stop-opacity="0"/></linearGradient><linearGradient x1="262.82021" y1="280.29819" x2="262.82021" y2="298.90616" gradientUnits="userSpaceOnUse" id="color-9"><stop offset="0" stop-color="#171717"/><stop offset="1" stop-color="#171717" stop-opacity="0"/></linearGradient></defs><g transform="translate(5.00001,-262.49426)"><g data-paper-data="{&quot;isPaintingLayer&quot;:true}" fill-rule="nonzero" stroke="#000000" stroke-width="3.5" stroke-linecap="butt" stroke-linejoin="miter" stroke-miterlimit="10" stroke-dasharray="" stroke-dashoffset="0" style="mix-blend-mode: normal"><g><path d="M225.20293,367.83902v-53.00924h76.41082v53.00924z" fill="#2b2b2b"/><path d="M225.20293,367.63054v-16.31454h76.41082v16.31454z" fill="#212121"/><path d="M225.20293,333.43775v-18.60796h76.41082v18.60796z" fill="url(#color-1)"/><path d="M225.20293,315.0904v-16.31455h76.41082v16.31455z" fill="#3d3d3d"/><path d="M225.20293,314.88189v-7.97484h76.41082v7.97484z" fill="#303030"/><path d="M297.75788,315.0904v-16.31455h3.85586v16.31455z" data-paper-data="{&quot;index&quot;:null}" fill="#111111"/><path d="M293.95033,315.0904v-16.31455h3.85586v16.31455z" data-paper-data="{&quot;index&quot;:null}" fill="#212121"/><path d="M225.2558,315.0904v-16.31455h3.85586v16.31455z" data-paper-data="{&quot;index&quot;:null}" fill="#111111"/><path d="M229.222,315.0904v-16.31455h3.85586v16.31455z" data-paper-data="{&quot;index&quot;:null}" fill="#212121"/></g><g><path d="M149.05195,367.83902v-53.00924h76.41082v53.00924z" fill="#2b2b2b"/><path d="M149.05195,367.63054v-16.31454h76.41082v16.31454z" fill="#212121"/><path d="M149.05195,333.43775v-18.60796h76.41082v18.60796z" fill="url(#color-2)"/><path d="M149.05195,315.0904v-16.31455h76.41082v16.31455z" fill="#3d3d3d"/><path d="M149.05195,314.88189v-7.97484h76.41082v7.97484z" fill="#303030"/><path d="M221.60691,315.0904v-16.31455h3.85586v16.31455z" data-paper-data="{&quot;index&quot;:null}" fill="#111111"/><path d="M217.79936,315.0904v-16.31455h3.85586v16.31455z" data-paper-data="{&quot;index&quot;:null}" fill="#212121"/><path d="M149.10483,315.0904v-16.31455h3.85586v16.31455z" data-paper-data="{&quot;index&quot;:null}" fill="#111111"/><path d="M153.07102,315.0904v-16.31455h3.85586v16.31455z" data-paper-data="{&quot;index&quot;:null}" fill="#212121"/></g><g><path d="M72.90097,367.83902v-53.00924h76.41082v53.00924z" fill="#2b2b2b"/><path d="M72.90097,367.63054v-16.31454h76.41082v16.31454z" fill="#212121"/><path d="M72.90097,333.43775v-18.60796h76.41082v18.60796z" fill="url(#color-3)"/><path d="M72.90097,315.0904v-16.31455h76.41082v16.31455z" fill="#3d3d3d"/><path d="M72.90097,314.88189v-7.97484h76.41082v7.97484z" fill="#303030"/><path d="M145.45593,315.0904v-16.31455h3.85586v16.31455z" data-paper-data="{&quot;index&quot;:null}" fill="#111111"/><path d="M141.64838,315.0904v-16.31455h3.85586v16.31455z" data-paper-data="{&quot;index&quot;:null}" fill="#212121"/><path d="M72.95385,315.0904v-16.31455h3.85586v16.31455z" data-paper-data="{&quot;index&quot;:null}" fill="#111111"/><path d="M76.92005,315.0904v-16.31455h3.85586v16.31455z" data-paper-data="{&quot;index&quot;:null}" fill="#212121"/></g><g><path d="M-3.25001,367.83902v-53.00924h76.41082v53.00924z" fill="#2b2b2b"/><path d="M-3.25001,367.63054v-16.31455h76.41082v16.31455z" fill="#212121"/><path d="M-3.25001,333.43775v-18.60797h76.41082v18.60797z" fill="url(#color-4)"/><path d="M-3.25001,315.0904v-16.31454h76.41082v16.31454z" fill="#3d3d3d"/><path d="M-3.25001,314.88189v-7.97484h76.41082v7.97484z" fill="#303030"/><path d="M69.30495,315.0904v-16.31454h3.85586v16.31454z" data-paper-data="{&quot;index&quot;:null}" fill="#111111"/><path d="M65.4974,315.0904v-16.31454h3.85586v16.31454z" data-paper-data="{&quot;index&quot;:null}" fill="#212121"/><path d="M-3.19713,315.0904v-16.31454h3.85586v16.31454z" data-paper-data="{&quot;index&quot;:null}" fill="#111111"/><path d="M0.76907,315.0904v-16.31454h3.85586v16.31454z" data-paper-data="{&quot;index&quot;:null}" fill="#212121"/></g><g><path d="M532.89352,368.18224v-53.00923h76.41082v53.00923z" fill="#2b2b2b"/><path d="M532.89352,367.97376v-16.31454h76.41082v16.31454z" fill="#212121"/><path d="M532.89352,333.78097v-18.60796h76.41082v18.60796z" fill="url(#color-5)"/><path d="M532.89352,315.43362v-16.31455h76.41082v16.31455z" fill="#3d3d3d"/><path d="M532.89352,315.22511v-7.97484h76.41082v7.97484z" fill="#303030"/><path d="M605.44848,315.43362v-16.31455h3.85586v16.31455z" data-paper-data="{&quot;index&quot;:null}" fill="#111111"/><path d="M601.64092,315.43362v-16.31455h3.85586v16.31455z" data-paper-data="{&quot;index&quot;:null}" fill="#212121"/><path d="M532.9464,315.43362v-16.31455h3.85586v16.31455z" data-paper-data="{&quot;index&quot;:null}" fill="#111111"/><path d="M536.91259,315.43362v-16.31455h3.85586v16.31455z" data-paper-data="{&quot;index&quot;:null}" fill="#212121"/></g><g><path d="M456.74254,368.18224v-53.00923h76.41082v53.00923z" fill="#2b2b2b"/><path d="M456.74254,367.97376v-16.31454h76.41082v16.31454z" fill="#212121"/><path d="M456.74254,333.78097v-18.60796h76.41082v18.60796z" fill="url(#color-6)"/><path d="M456.74254,315.43362v-16.31455h76.41082v16.31455z" fill="#3d3d3d"/><path d="M456.74254,315.22511v-7.97484h76.41082v7.97484z" fill="#303030"/><path d="M529.2975,315.43362v-16.31455h3.85586v16.31455z" data-paper-data="{&quot;index&quot;:null}" fill="#111111"/><path d="M525.48995,315.43362v-16.31455h3.85586v16.31455z" data-paper-data="{&quot;index&quot;:null}" fill="#212121"/><path d="M456.79542,315.43362v-16.31455h3.85586v16.31455z" data-paper-data="{&quot;index&quot;:null}" fill="#111111"/><path d="M460.76162,315.43362v-16.31455h3.85586v16.31455z" data-paper-data="{&quot;index&quot;:null}" fill="#212121"/></g><g><path d="M380.59156,368.18224v-53.00923h76.41082v53.00923z" fill="#2b2b2b"/><path d="M380.59156,367.97376v-16.31454h76.41082v16.31454z" fill="#212121"/><path d="M380.59156,333.78097v-18.60796h76.41082v18.60796z" fill="url(#color-7)"/><path d="M380.59156,315.43362v-16.31455h76.41082v16.31455z" fill="#3d3d3d"/><path d="M380.59156,315.22511v-7.97484h76.41082v7.97484z" fill="#303030"/><path d="M453.14652,315.43362v-16.31455h3.85586v16.31455z" data-paper-data="{&quot;index&quot;:null}" fill="#111111"/><path d="M449.33897,315.43362v-16.31455h3.85586v16.31455z" data-paper-data="{&quot;index&quot;:null}" fill="#212121"/><path d="M380.64445,315.43362v-16.31455h3.85586v16.31455z" data-paper-data="{&quot;index&quot;:null}" fill="#111111"/><path d="M384.61064,315.43362v-16.31455h3.85586v16.31455z" data-paper-data="{&quot;index&quot;:null}" fill="#212121"/></g><g><path d="M304.44058,368.18224v-53.00923h76.41082v53.00923z" fill="#2b2b2b"/><path d="M304.44058,367.97376v-16.31455h76.41082v16.31455z" fill="#212121"/><path d="M304.44058,333.78097v-18.60796h76.41082v18.60796z" fill="url(#color-8)"/><path d="M304.44058,315.43362v-16.31454h76.41082v16.31454z" fill="#3d3d3d"/><path d="M304.44058,315.22511v-7.97484h76.41082v7.97484z" fill="#303030"/><path d="M376.99554,315.43362v-16.31454h3.85586v16.31454z" data-paper-data="{&quot;index&quot;:null}" fill="#111111"/><path d="M373.18799,315.43362v-16.31454h3.85586v16.31454z" data-paper-data="{&quot;index&quot;:null}" fill="#212121"/><path d="M304.49347,315.43362v-16.31454h3.85586v16.31454z" data-paper-data="{&quot;index&quot;:null}" fill="#111111"/><path d="M308.45966,315.43362v-16.31454h3.85586v16.31454z" data-paper-data="{&quot;index&quot;:null}" fill="#212121"/></g><g><path d="M224.6148,333.30743v-53.00924h76.41082v53.00924z" fill="#2b2b2b"/><path d="M224.6148,333.09895v-16.31454h76.41082v16.31454z" fill="#212121"/><path d="M224.6148,298.90616v-18.60796h76.41082v18.60796z" fill="url(#color-9)"/><path d="M224.6148,280.55881v-16.31455h76.41082v16.31455z" fill="#3d3d3d"/><path d="M224.6148,280.3503v-7.97484h76.41082v7.97484z" fill="#303030"/><path d="M297.16975,280.55881v-16.31455h3.85586v16.31455z" data-paper-data="{&quot;index&quot;:null}" fill="#111111"/><path d="M293.3622,280.55881v-16.31455h3.85586v16.31455z" data-paper-data="{&quot;index&quot;:null}" fill="#212121"/><path d="M224.66767,280.55881v-16.31455h3.85586v16.31455z" data-paper-data="{&quot;index&quot;:null}" fill="#111111"/><path d="M228.63387,280.55881v-16.31455h3.85586v16.31455z" data-paper-data="{&quot;index&quot;:null}" fill="#212121"/></g></g></g></svg>