<svg version="1.1" xmlns="http://www.w3.org/2000/svg" xmlns:xlink="http://www.w3.org/1999/xlink" width="543.95542" height="85.56317" viewBox="0,0,543.95542,85.56317"><defs><linearGradient x1="361.79697" y1="327.8298" x2="361.79697" y2="346.43776" gradientUnits="userSpaceOnUse" id="color-1"><stop offset="0" stop-color="#171717"/><stop offset="1" stop-color="#171717" stop-opacity="0"/></linearGradient><linearGradient x1="211" y1="322.52235" x2="211" y2="341.13032" gradientUnits="userSpaceOnUse" id="color-2"><stop offset="0" stop-color="#171717"/><stop offset="1" stop-color="#171717" stop-opacity="0"/></linearGradient><linearGradient x1="34.9554" y1="314.82978" x2="34.9554" y2="333.43775" gradientUnits="userSpaceOnUse" id="color-3"><stop offset="0" stop-color="#171717"/><stop offset="1" stop-color="#171717" stop-opacity="0"/></linearGradient><linearGradient x1="499" y1="314.82979" x2="499" y2="333.43776" gradientUnits="userSpaceOnUse" id="color-4"><stop offset="0" stop-color="#171717"/><stop offset="1" stop-color="#171717" stop-opacity="0"/></linearGradient></defs><g transform="translate(5.00001,-297.02586)"><g data-paper-data="{&quot;isPaintingLayer&quot;:true}" fill-rule="nonzero" stroke="#000000" stroke-width="3.5" stroke-linecap="butt" stroke-linejoin="miter" stroke-miterlimit="10" stroke-dasharray="" stroke-dashoffset="0" style="mix-blend-mode: normal"><g><path d="M323.59156,380.83903v-53.00923h76.41082v53.00923z" fill="#2b2b2b"/><path d="M323.59156,380.63055v-16.31454h76.41082v16.31454z" fill="#212121"/><path d="M323.59156,346.43776v-18.60796h76.41082v18.60796z" fill="url(#color-1)"/><path d="M323.59156,328.09041v-16.31455h76.41082v16.31455z" fill="#3d3d3d"/><path d="M323.59156,327.8819v-7.97484h76.41082v7.97484z" fill="#303030"/><path d="M396.14652,328.09041v-16.31455h3.85586v16.31455z" data-paper-data="{&quot;index&quot;:null}" fill="#111111"/><path d="M392.33897,328.09041v-16.31455h3.85586v16.31455z" data-paper-data="{&quot;index&quot;:null}" fill="#212121"/><path d="M323.64445,328.09041v-16.31455h3.85586v16.31455z" data-paper-data="{&quot;index&quot;:null}" fill="#111111"/><path d="M327.61064,328.09041v-16.31455h3.85586v16.31455z" data-paper-data="{&quot;index&quot;:null}" fill="#212121"/></g><g><path d="M172.79459,375.53159v-53.00924h76.41082v53.00924z" fill="#2b2b2b"/><path d="M172.79459,375.32311v-16.31454h76.41082v16.31454z" fill="#212121"/><path d="M172.79459,341.13032v-18.60796h76.41082v18.60796z" fill="url(#color-2)"/><path d="M172.79459,322.78297v-16.31455h76.41082v16.31455z" fill="#3d3d3d"/><path d="M172.79459,322.57446v-7.97484h76.41082v7.97484z" fill="#303030"/><path d="M245.34955,322.78297v-16.31455h3.85586v16.31455z" data-paper-data="{&quot;index&quot;:null}" fill="#111111"/><path d="M241.542,322.78297v-16.31455h3.85586v16.31455z" data-paper-data="{&quot;index&quot;:null}" fill="#212121"/><path d="M172.84747,322.78297v-16.31455h3.85586v16.31455z" data-paper-data="{&quot;index&quot;:null}" fill="#111111"/><path d="M176.81367,322.78297v-16.31455h3.85586v16.31455z" data-paper-data="{&quot;index&quot;:null}" fill="#212121"/></g><g><path d="M-3.25001,367.83902v-53.00924h76.41082v53.00924z" fill="#2b2b2b"/><path d="M-3.25001,367.63054v-16.31455h76.41082v16.31455z" fill="#212121"/><path d="M-3.25001,333.43775v-18.60797h76.41082v18.60797z" fill="url(#color-3)"/><path d="M-3.25001,315.0904v-16.31454h76.41082v16.31454z" fill="#3d3d3d"/><path d="M-3.25001,314.88189v-7.97484h76.41082v7.97484z" fill="#303030"/><path d="M69.30495,315.0904v-16.31454h3.85586v16.31454z" data-paper-data="{&quot;index&quot;:null}" fill="#111111"/><path d="M65.4974,315.0904v-16.31454h3.85586v16.31454z" data-paper-data="{&quot;index&quot;:null}" fill="#212121"/><path d="M-3.19713,315.0904v-16.31454h3.85586v16.31454z" data-paper-data="{&quot;index&quot;:null}" fill="#111111"/><path d="M0.76907,315.0904v-16.31454h3.85586v16.31454z" data-paper-data="{&quot;index&quot;:null}" fill="#212121"/></g><g><path d="M460.79459,367.83903v-53.00924h76.41082v53.00924z" fill="#2b2b2b"/><path d="M460.79459,367.63055v-16.31454h76.41082v16.31454z" fill="#212121"/><path d="M460.79459,333.43776v-18.60796h76.41082v18.60796z" fill="url(#color-4)"/><path d="M460.79459,315.09041v-16.31455h76.41082v16.31455z" fill="#3d3d3d"/><path d="M460.79459,314.8819v-7.97484h76.41082v7.97484z" fill="#303030"/><path d="M533.34955,315.09041v-16.31455h3.85586v16.31455z" data-paper-data="{&quot;index&quot;:null}" fill="#111111"/><path d="M529.542,315.09041v-16.31455h3.85586v16.31455z" data-paper-data="{&quot;index&quot;:null}" fill="#212121"/><path d="M460.84747,315.09041v-16.31455h3.85586v16.31455z" data-paper-data="{&quot;index&quot;:null}" fill="#111111"/><path d="M464.81367,315.09041v-16.31455h3.85586v16.31455z" data-paper-data="{&quot;index&quot;:null}" fill="#212121"/></g></g></g></svg>