<svg version="1.1" xmlns="http://www.w3.org/2000/svg" xmlns:xlink="http://www.w3.org/1999/xlink" width="384.80456" height="250.41042" viewBox="0,0,384.80456,250.41042"><defs><radialGradient cx="80.19901" cy="284.94604" r="24.41743" gradientUnits="userSpaceOnUse" id="color-1"><stop offset="0" stop-color="#000000"/><stop offset="1" stop-color="#000000" stop-opacity="0"/></radialGradient><linearGradient x1="79.23846" y1="268.75108" x2="79.23846" y2="299.36395" gradientUnits="userSpaceOnUse" id="color-2"><stop offset="0" stop-color="#5eeaff"/><stop offset="1" stop-color="#0097fc"/></linearGradient><linearGradient x1="42.36012" y1="315.90522" x2="52.27018" y2="337.23168" gradientUnits="userSpaceOnUse" id="color-3"><stop offset="0" stop-color="#dcf6ff" stop-opacity="0"/><stop offset="1" stop-color="#dcf6ff"/></linearGradient><linearGradient x1="43.42194" y1="313.94633" x2="45.51339" y2="318.44721" gradientUnits="userSpaceOnUse" id="color-4"><stop offset="0" stop-color="#a1e7ff"/><stop offset="1" stop-color="#87e3ff"/></linearGradient><linearGradient x1="44.63914" y1="306.95286" x2="46.57902" y2="311.12752" gradientUnits="userSpaceOnUse" id="color-5"><stop offset="0" stop-color="#a1e7ff"/><stop offset="1" stop-color="#87e3ff"/></linearGradient><linearGradient x1="34.59131" y1="311.62192" x2="36.53116" y2="315.79652" gradientUnits="userSpaceOnUse" id="color-6"><stop offset="0" stop-color="#a1e7ff"/><stop offset="1" stop-color="#87e3ff"/></linearGradient><linearGradient x1="45.74663" y1="315.44059" x2="46.68937" y2="317.46943" gradientUnits="userSpaceOnUse" id="color-7"><stop offset="0" stop-color="#ff4e4e"/><stop offset="1" stop-color="#d31f1f"/></linearGradient></defs><g transform="translate(-11.43159,-101.13307)"><g data-paper-data="{&quot;isPaintingLayer&quot;:true}" fill-rule="nonzero" stroke-linejoin="miter" stroke-miterlimit="10" stroke-dasharray="" stroke-dashoffset="0" style="mix-blend-mode: normal"><g stroke-linecap="butt"><path d="M55.73356,284.87394c0,-13.48539 10.93205,-24.41744 24.41742,-24.41744c13.48539,0 24.41743,10.93205 24.41743,24.41744c0,13.48539 -10.93206,24.41742 -24.41743,24.41742c-13.48539,0 -24.41742,-10.93205 -24.41742,-24.41742z" data-paper-data="{&quot;index&quot;:null}" fill="url(#color-1)" stroke="none" stroke-width="0"/><path d="M63.93206,284.05759c0,-8.45351 6.85294,-15.30645 15.30646,-15.30645c8.45351,0 15.30645,6.85294 15.30645,15.30645c0,8.45351 -6.85294,15.30646 -15.30645,15.30646c-8.45351,0 -15.30646,-6.85294 -15.30646,-15.30646z" data-paper-data="{&quot;index&quot;:null}" fill="url(#color-2)" stroke="none" stroke-width="0"/><g data-paper-data="{&quot;index&quot;:null}" fill="#ffffff" stroke="none" stroke-width="0"><path d="M82.50222,278.68755c0.43426,-0.93946 1.5479,-1.34902 2.48738,-0.91474c0.93946,0.43426 1.34902,1.5479 0.91474,2.48735c-0.0154,0.0333 -1.57281,3.39499 -1.57281,3.39499l-3.35077,-1.66879c0,0 1.50606,-3.26555 1.52143,-3.29883z"/><path d="M81.07823,281.77556l3.34278,1.68608c0,0 -2.84294,6.15766 -2.85833,6.19094c-0.43426,0.93948 -1.54791,1.34902 -2.48738,0.91475c-0.93948,-0.43426 -1.34902,-1.54791 -0.91475,-2.48738c0.01538,-0.03328 2.91764,-6.3044 2.91764,-6.3044z" data-paper-data="{&quot;index&quot;:null}"/></g><g data-paper-data="{&quot;index&quot;:null}" fill="#ffffff" stroke="none" stroke-width="0"><path d="M80.50883,287.2684c0.93946,0.43426 1.34901,1.54791 0.91474,2.48735c-0.43426,0.93946 -1.54792,1.34902 -2.48738,0.91474c-0.0333,-0.0154 -3.39499,-1.5728 -3.39499,-1.5728l1.66879,-3.35078c0,0 3.26556,1.50606 3.29884,1.52143z"/><path d="M80.63835,287.33171l-1.68608,3.34278c0,0 -6.15767,-2.84294 -6.19096,-2.85834c-0.93948,-0.43428 -1.34902,-1.5479 -0.91474,-2.48735c0.43428,-0.93948 1.54793,-1.34902 2.4874,-0.91475c0.0333,0.0154 6.3044,2.91766 6.3044,2.91766z" data-paper-data="{&quot;index&quot;:null}"/></g><g data-paper-data="{&quot;index&quot;:null}"><g fill="#4d4d4d" stroke="#207dbb" stroke-width="6"><g><g><path d="M39.48395,333.29048l-17.38349,-37.40927l16.20907,-7.53209c0,0 2.09982,-0.98676 4.42883,-0.0283c2.32901,0.95846 3.69257,3.3705 3.69257,3.3705l14.66398,31.55689z"/><path d="M29.94533,337.72294l-14.66398,-31.55689c0,0 -0.96432,-2.59756 -0.19507,-4.99573c0.76925,-2.39818 2.87748,-3.36681 2.87748,-3.36681l16.20907,-7.53209l17.38349,37.40928z" data-paper-data="{&quot;index&quot;:null}"/></g><g data-paper-data="{&quot;index&quot;:null}"><path d="M50.34161,300.10713l14.66398,31.55689c0,0 0.96432,2.59757 0.19507,4.99573c-0.76925,2.39818 -2.87747,3.36681 -2.87747,3.36681l-16.20907,7.53209l-17.38349,-37.40928z"/><path d="M40.80297,304.53954l17.38349,37.40928l-16.20907,7.53209c0,0 -2.09982,0.98676 -4.42883,0.02829c-2.32901,-0.95846 -3.69257,-3.3705 -3.69257,-3.3705l-14.66398,-31.5569z" data-paper-data="{&quot;index&quot;:null}"/></g></g><g><g><path d="M38.44661,331.05816l-17.38349,-37.40927l16.20907,-7.53209c0,0 2.09982,-0.98676 4.42881,-0.0283c2.32901,0.95846 3.69258,3.3705 3.69258,3.3705l14.66397,31.5569z"/><path d="M28.90802,335.49068l-14.66398,-31.55691c0,0 -0.96432,-2.59756 -0.19507,-4.99573c0.76925,-2.39818 2.87748,-3.36681 2.87748,-3.36681l16.20907,-7.5321l17.38349,37.40928z" data-paper-data="{&quot;index&quot;:null}"/></g><g data-paper-data="{&quot;index&quot;:null}"><path d="M49.30429,297.87482l14.66398,31.5569c0,0 0.96432,2.59756 0.19508,4.99573c-0.76925,2.39818 -2.87748,3.36681 -2.87748,3.36681l-16.20907,7.53209l-17.38349,-37.40928z"/><path d="M39.76563,302.30726l17.38349,37.40927l-16.20907,7.53209c0,0 -2.09983,0.98676 -4.42883,0.02831c-2.32901,-0.95846 -3.69257,-3.3705 -3.69257,-3.3705l-14.66398,-31.55689z" data-paper-data="{&quot;index&quot;:null}"/></g></g></g><g><g fill="#4d4d4d" stroke="#ffffff" stroke-width="6"><g><g><path d="M41.30614,329.46384l-17.38349,-37.40927l16.20907,-7.53209c0,0 2.09982,-0.98676 4.42881,-0.02829c2.32901,0.95846 3.69257,3.3705 3.69257,3.3705l14.66398,31.55689z"/><path d="M31.76753,333.8963l-14.66397,-31.55689c0,0 -0.96432,-2.59757 -0.19507,-4.99573c0.76925,-2.39818 2.87748,-3.36681 2.87748,-3.36681l16.20907,-7.53211l17.38349,37.40928z" data-paper-data="{&quot;index&quot;:null}"/></g><g data-paper-data="{&quot;index&quot;:null}"><path d="M52.16379,296.28053l14.66398,31.55689c0,0 0.96432,2.59757 0.19508,4.99573c-0.76925,2.39818 -2.87748,3.36681 -2.87748,3.36681l-16.20907,7.53209l-17.3835,-37.40928z"/><path d="M42.62516,300.71294l17.38349,37.40928l-16.20907,7.53209c0,0 -2.09982,0.98675 -4.42881,0.02829c-2.32901,-0.95846 -3.69258,-3.3705 -3.69258,-3.3705l-14.66397,-31.55689z" data-paper-data="{&quot;index&quot;:null}"/></g></g><g><g><path d="M40.26885,327.23152l-17.38349,-37.40927l16.20907,-7.53209c0,0 2.09982,-0.98675 4.42881,-0.02829c2.32901,0.95846 3.69257,3.3705 3.69257,3.3705l14.66398,31.55689z"/><path d="M30.73022,331.66395l-14.66397,-31.55689c0,0 -0.96432,-2.59756 -0.19507,-4.99573c0.76925,-2.39818 2.87748,-3.36681 2.87748,-3.36681l16.20907,-7.53209l17.38349,37.40928z" data-paper-data="{&quot;index&quot;:null}"/></g><g data-paper-data="{&quot;index&quot;:null}"><path d="M51.12649,294.04818l14.66398,31.55689c0,0 0.96432,2.59757 0.19508,4.99574c-0.76925,2.39818 -2.87748,3.36681 -2.87748,3.36681l-16.20907,7.53209l-17.3835,-37.40927z"/><path d="M41.58784,298.48062l17.38349,37.40927l-16.20907,7.53209c0,0 -2.09982,0.98676 -4.42881,0.02829c-2.32901,-0.95846 -3.69257,-3.3705 -3.69257,-3.3705l-14.66398,-31.55689z" data-paper-data="{&quot;index&quot;:null}"/></g></g></g><g stroke="none" stroke-width="0"><g fill="#131313"><g><path d="M41.30614,329.46384l-17.38349,-37.40927l16.20907,-7.53209c0,0 2.09982,-0.98676 4.42881,-0.02829c2.32901,0.95846 3.69257,3.3705 3.69257,3.3705l14.66398,31.55689z"/><path d="M31.76753,333.8963l-14.66397,-31.55689c0,0 -0.96432,-2.59757 -0.19507,-4.99573c0.76925,-2.39818 2.87748,-3.36681 2.87748,-3.36681l16.20907,-7.53211l17.38349,37.40928z" data-paper-data="{&quot;index&quot;:null}"/></g><g data-paper-data="{&quot;index&quot;:null}"><path d="M52.16382,296.28053l14.66398,31.55689c0,0 0.96432,2.59757 0.19507,4.99573c-0.76925,2.39818 -2.87748,3.36681 -2.87748,3.36681l-16.20907,7.53209l-17.38349,-37.40928z"/><path d="M42.62516,300.71297l17.38349,37.40927l-16.20907,7.53209c0,0 -2.09982,0.98676 -4.42881,0.0283c-2.32901,-0.95846 -3.69258,-3.3705 -3.69258,-3.3705l-14.66397,-31.55689z" data-paper-data="{&quot;index&quot;:null}"/></g></g><g fill="#222222"><g><path d="M40.26885,327.23152l-17.38349,-37.40927l16.20907,-7.53209c0,0 2.09982,-0.98675 4.42881,-0.02829c2.32901,0.95846 3.69257,3.3705 3.69257,3.3705l14.66398,31.55689z"/><path d="M30.73022,331.66395l-14.66397,-31.55689c0,0 -0.96432,-2.59756 -0.19507,-4.99573c0.76925,-2.39818 2.87748,-3.36681 2.87748,-3.36681l16.20907,-7.53209l17.38349,37.40928z" data-paper-data="{&quot;index&quot;:null}"/></g><g data-paper-data="{&quot;index&quot;:null}"><path d="M51.12649,294.04818l14.66398,31.55689c0,0 0.96432,2.59757 0.19508,4.99574c-0.76925,2.39818 -2.87748,3.36681 -2.87748,3.36681l-16.20907,7.53209l-17.3835,-37.40927z"/><path d="M41.58786,298.48062l17.38349,37.40927l-16.20907,7.53209c0,0 -2.09982,0.98676 -4.42881,0.02829c-2.32901,-0.95846 -3.69258,-3.3705 -3.69258,-3.3705l-14.66397,-31.55689z" data-paper-data="{&quot;index&quot;:null}"/></g></g></g><g data-paper-data="{&quot;index&quot;:null}" fill="#ffffff" stroke="none" stroke-width="0"><path d="M50.65166,298.79827l12.58717,27.0876c0,0 0.82773,2.2297 0.16744,4.2882c-0.66029,2.05854 -2.46994,2.88999 -2.46994,2.88999l-13.91342,6.46534l-14.92152,-32.11113z"/><path d="M42.46396,302.60298l14.92154,32.11112l-13.91343,6.46534c0,0 -1.8024,0.84698 -3.80157,0.02429c-1.99917,-0.8227 -3.1696,-2.89314 -3.1696,-2.89314l-12.58717,-27.08761z" data-paper-data="{&quot;index&quot;:null}"/></g><g fill="#ffffff" stroke="none" stroke-width="0"><path d="M39.57378,323.49888l-14.92154,-32.11113l13.91343,-6.46534c0,0 1.80241,-0.847 3.80156,-0.02427c1.99917,0.8227 3.1696,2.89314 3.1696,2.89314l12.58717,27.08761z"/><path d="M31.38607,327.30354l-12.58718,-27.08761c0,0 -0.82774,-2.2297 -0.16745,-4.28821c0.66029,-2.05852 2.46995,-2.88996 2.46995,-2.88996l13.91342,-6.46534l14.92152,32.11113z" data-paper-data="{&quot;index&quot;:null}"/></g><g fill="#222222" stroke="none" stroke-width="0"><path d="M27.19925,295.24316c-1.30277,0.60537 -2.84961,0.04003 -3.45496,-1.26272c-0.54728,-1.17776 -1.07879,-2.3323 -1.07879,-2.3323c0,0 2.21651,-1.06459 2.34152,-1.1227c0.09555,-0.04441 6.21243,-2.86646 6.21243,-2.86646l2.21447,4.6751c0,0 -6.16163,2.87515 -6.23466,2.90908z" data-paper-data="{&quot;index&quot;:null}"/><path d="M37.36118,287.65281c0.60537,1.30277 0.04003,2.84961 -1.26272,3.45497c-0.07301,0.03393 -6.24376,2.88945 -6.24376,2.88945l-2.14536,-4.70725l8.58151,-4.00804c0,0 0.46494,1.06808 1.07031,2.37085z" data-paper-data="{&quot;index&quot;:null}"/></g><path d="M63.52978,329.96974c-0.46456,2.17478 -2.27951,3.08895 -2.27951,3.08895l-18.04388,8.3847c0,0 -1.63583,0.71158 -3.59379,-0.16643c-1.95797,-0.87802 -3.04606,-2.81116 -3.04606,-2.81116l-7.49225,-16.12331l26.67244,-12.65786l7.57451,16.30035c0,0 0.60467,2.13031 0.20854,3.98476z" fill="url(#color-3)" stroke="none" stroke-width="0"/><g stroke="none" stroke-width="0"><g><path d="M45.46925,318.4677c-3.72741,1.73206 -6.32747,-2.53236 -6.32747,-2.53236l8.56031,-3.97782c0,0 1.49457,4.77813 -2.23286,6.51019z" fill="url(#color-4)"/><path d="M47.69641,308.07023c0.53569,1.15281 0.0354,2.5216 -1.11737,3.05727c-1.15281,0.53569 -2.52159,0.0354 -3.05728,-1.11737c-0.53569,-1.15279 -0.0354,-2.52159 1.11739,-3.05725c1.15279,-0.53569 2.52158,-0.0354 3.05725,1.11737z" fill="url(#color-5)"/><path d="M37.64855,312.73931c0.53569,1.15281 0.03542,2.52159 -1.11737,3.05728c-1.15279,0.53569 -2.52158,0.0354 -3.05725,-1.11739c-0.53569,-1.15279 -0.03541,-2.52159 1.11737,-3.05725c1.15281,-0.53569 2.52159,-0.03542 3.05725,1.11737z" fill="url(#color-6)"/></g><g><g><path d="M45.03095,318.25707c-3.72744,1.73206 -6.32747,-2.53235 -6.32747,-2.53235l8.56031,-3.97783c0,0 1.49459,4.7781 -2.23285,6.5102z" fill="#222222"/><path d="M47.42678,315.27369c0,0 -0.17942,0.96596 -0.63734,1.56992c-0.60188,0.79382 -1.44357,1.2501 -1.44357,1.2501c0,0 -0.30156,-0.3819 -0.42513,-0.64784c-0.40213,-0.86539 0.18052,-1.7054 1.04593,-2.10752c0.54383,-0.2527 1.46013,-0.0646 1.46013,-0.0646z" fill="url(#color-7)"/></g><g><path d="M46.14074,310.91701c-1.15281,0.53569 -2.5216,0.0354 -3.05728,-1.11737c-0.53569,-1.15281 -0.0354,-2.52159 1.11737,-3.05728c1.15281,-0.53569 2.52159,-0.0354 3.05728,1.11737c0.53569,1.15281 0.03541,2.52159 -1.11737,3.05728z" fill="#222222"/><g fill="#ffffff"><path d="M44.40104,309.45157c-0.59343,0.27576 -1.29807,0.01821 -1.57382,-0.5752c-0.27576,-0.59343 -0.01821,-1.29806 0.5752,-1.57381c0.59343,-0.27576 1.29805,-0.01821 1.5738,0.5752c0.27576,0.59343 0.01821,1.29805 -0.5752,1.5738z"/><path d="M46.0165,308.92273c-0.13995,0.06504 -0.30613,0.00429 -0.37117,-0.13567c-0.06504,-0.13995 -0.0043,-0.30614 0.13566,-0.37119c0.13995,-0.06504 0.30613,-0.00428 0.37117,0.13567c0.06504,0.13995 0.0043,0.30613 -0.13566,0.37117z"/></g></g><g><path d="M36.09289,315.58601c-1.15281,0.53569 -2.5216,0.03542 -3.05729,-1.11737c-0.53569,-1.15281 -0.03541,-2.5216 1.11738,-3.05728c1.15281,-0.53569 2.52159,-0.03541 3.05728,1.11738c0.53569,1.15281 0.03542,2.52159 -1.11737,3.05728z" fill="#222222"/><g fill="#ffffff"><path d="M34.15624,314.08896c-0.59344,0.27576 -1.29806,0.01821 -1.57381,-0.5752c-0.27576,-0.59343 -0.01821,-1.29807 0.5752,-1.57382c0.59344,-0.27576 1.29807,-0.01821 1.57382,0.5752c0.27576,0.59344 0.01821,1.29807 -0.5752,1.57382z"/><path d="M35.77169,313.56012c-0.13997,0.06504 -0.30617,0.00428 -0.37121,-0.13567c-0.06502,-0.13995 -0.0043,-0.30613 0.13566,-0.37117c0.13997,-0.06504 0.30615,-0.00429 0.3712,0.13567c0.06504,0.13997 0.00428,0.30616 -0.13567,0.3712z"/></g></g></g></g></g></g></g><g><g stroke="#000000"><path d="M376.15179,111.88701c0,0 -15.9713,-12.49168 -20.17019,10.00838c-4.45351,21.64781 24.78105,19.073 24.06541,39.5597c-0.94901,7.63465 -5.64951,18.01205 -17.44074,15.55035c-11.53255,-2.40769 -7.21682,-23.59375 -7.21682,-23.59375" fill="none" stroke-width="10" stroke-linecap="round"/><path d="M346.97938,108.73323c0,0 2.47749,68.1543 -11.82519,68.70577c-17.29295,-0.36168 -15.50751,-68.96858 -15.50751,-68.96858" fill="none" stroke-width="10" stroke-linecap="round"/><path d="M283.67575,149.92054c0,0 -4.80284,-0.03887 -6.30957,-0.05346c-1.04425,-0.01011 -1.83393,0.58378 -1.81378,1.61966c0.0964,4.95522 -0.02323,19.66824 -4.63167,24.10502c-2.14199,2.0622 -10.07508,2.12381 -12.67826,-5.80721c-4.46657,-13.60814 -2.9492,-41.03932 0.29369,-52.12689c3.92583,-13.42256 13.83857,-7.6849 13.83857,-7.6849" fill="none" stroke-width="10" stroke-linecap="round"/><path d="M283.67575,149.92055c0,0 -4.80284,-0.03887 -6.30957,-0.05346c-1.04425,-0.01011 -1.83393,0.58376 -1.81378,1.61965c0.09641,4.95522 -0.02321,19.66824 -4.63166,24.10502c-5.81723,5.60054 -12.85864,-3.08621 -13.71026,-6.09659c-0.82372,-2.91172 -3.8072,-34.28794 1.32569,-51.83752c3.92582,-13.42255 13.83857,-7.6849 13.83857,-7.6849" fill="none" stroke-width="10" stroke-linecap="round"/><path d="M246.88176,108.13307c0,0 0.99737,27.87016 0.85726,40.19944c-0.09355,8.23215 -1.05109,23.58609 -1.46106,28.93491c-0.11319,1.4768 -0.36388,-0.36556 -0.61173,-1.21483c-0.60477,-2.07233 -3.6454,-11.10169 -6.47517,-22.30773c-1.97219,-7.80996 -3.43649,-16.94751 -5.60761,-24.38724c-2.42404,-8.30639 -4.99567,-14.52893 -5.9062,-17.649c-0.32612,-1.11748 -1.30211,-3.1832 -1.31133,-1.98863c-0.05154,6.67479 -0.50931,68.32173 -0.50931,68.32173" fill="none" stroke-width="10" stroke-linecap="round"/><path d="M216.39531,141.37912c0,18.36127 -3.78893,35.87417 -7.49021,35.87417c-5.27817,0 -10.38117,-1.48122 -10.9068,-41.65609c-0.24021,-18.3597 3.52612,-27.4641 7.2274,-27.4641c7.11787,0 11.16961,14.88475 11.16961,33.24602z" fill="none" stroke-width="10" stroke-linecap="butt"/><path d="M145.68483,178.50738c0,0 9.9522,-61.41699 11.3055,-69.21837c0.26349,-1.51892 12.58071,68.50535 12.58071,68.50535" fill="none" stroke-width="10" stroke-linecap="round"/><path d="M169.55114,177.53154c0,0 11.26596,-69.76145 11.52945,-68.24253c1.3533,7.80138 9.72861,68.69274 9.72861,68.69274" data-paper-data="{&quot;index&quot;:null}" fill="none" stroke-width="10" stroke-linecap="round"/><path d="M131.83777,121.80231c0,0 4.22196,-0.13374 7.45121,8.27733c2.04199,4.89708 2.68937,18.01058 2.86155,20.05213c0.30436,3.60887 -5.94228,6.21813 -5.94228,6.21813" fill="none" stroke-width="10" stroke-linecap="round"/><path d="M103.93958,134.22909c-0.57704,-1.89178 -0.40584,-4.81895 -0.40584,-6.39135c0,-0.63267 1.1038,-5.94307 4.524,-6.86281c2.5605,-0.68855 8.62574,-0.4333 12.87398,0.75646c2.4026,0.67288 4.34844,6.37122 3.53532,10.8779c-0.63753,3.53352 -2.46236,4.59375 -4.28385,4.59375c-2.1202,0 -7.27273,0.10722 -10.81298,-0.13426c-2.27048,-0.15488 -4.98396,-1.37535 -5.43062,-2.8397z" fill="none" stroke-width="10" stroke-linecap="butt"/><path d="M95.64812,176.78869c-0.37959,-5.6952 -1.65202,-29.6093 2.28136,-47.75995c1.01526,-4.68495 3.83009,-18.38649 12.82256,-20.38236c5.43133,-1.20548 15.85842,1.08626 20.00775,12.05479c3.4118,9.0189 4.12402,21.33936 4.81345,31.98429c0.69612,10.74821 1.35221,19.79493 1.22779,23.41519c-0.03521,1.02462 -0.51532,1.5909 -1.32192,1.59792c-1.7363,0.0151 -8.85489,0.07426 -11.88713,0.09942c-0.84938,0.00705 -1.47436,-0.62368 -1.6373,-1.65031c-0.45136,-2.84384 -0.50812,-8.74165 -0.49466,-12.41688c0.00289,-0.78988 -0.3529,-1.53741 -0.76772,-2.13975c-0.57655,-0.83718 -1.69336,-1.38217 -2.78419,-1.363c-2.02949,0.03567 -5.51141,0.09724 -6.85416,0.15759c-1.29677,0.05828 -2.66984,1.99102 -2.68721,3.16897c-0.0413,2.80163 -0.20931,14.19744 -0.20931,14.19744c0,0 -9.92966,0.27045 -10.74478,0.27753c-0.92526,0.00805 -1.71027,-0.42723 -1.7645,-1.24088z" fill="none" stroke-width="10" stroke-linecap="butt"/><path d="M95.64812,176.78869c-0.37959,-5.6952 -1.65202,-29.6093 2.28136,-47.75995c1.01526,-4.68495 3.83009,-18.38649 12.82256,-20.38236c5.43133,-1.20548 15.85842,1.08626 20.00775,12.05479c3.4118,9.0189 4.12402,21.33936 4.81345,31.98429c0.69612,10.74821 1.35221,19.79493 1.22779,23.41519c-0.03521,1.02462 -0.51532,1.5909 -1.32192,1.59792c-1.7363,0.0151 -8.85489,0.07426 -11.88713,0.09942c-0.84938,0.00705 -1.47436,-0.62368 -1.6373,-1.65031c-0.45136,-2.84384 -0.50812,-8.74165 -0.49466,-12.41688c0.00289,-0.78988 -0.35291,-1.53742 -0.76773,-2.13976c-0.57655,-0.83718 -1.69336,-1.38217 -2.78419,-1.36299c-2.02949,0.03567 -5.51141,0.09724 -6.85416,0.15759c-1.29678,0.05828 -2.66984,1.99102 -2.6872,3.16897c-0.04131,2.80163 -0.20932,14.19744 -0.20932,14.19744c0,0 -9.92966,0.27045 -10.74478,0.27753c-0.92526,0.00805 -1.71027,-0.42723 -1.7645,-1.24088z" fill="none" stroke-width="10" stroke-linecap="butt"/><path d="M103.93958,134.22909c-0.57705,-1.89179 -0.40584,-4.81895 -0.40584,-6.39135c0,-0.63267 1.1038,-5.94308 4.524,-6.86281c2.56049,-0.68855 8.62574,-0.43331 12.87398,0.75646c2.40261,0.67287 4.34844,6.37121 3.53532,10.87791c-0.63754,3.53352 -2.46236,4.59376 -4.28385,4.59376c-2.1202,0 -7.27273,0.10722 -10.81298,-0.13426c-2.27047,-0.15487 -4.98396,-1.37535 -5.43062,-2.8397z" fill="none" stroke-width="10" stroke-linecap="butt"/><path d="M131.83777,121.80231c0,0 4.22196,-0.13374 7.45121,8.27733c2.04199,4.89708 2.68937,18.01058 2.86155,20.05213c0.30436,3.60887 -5.94228,6.21813 -5.94228,6.21813" fill="none" stroke-width="10" stroke-linecap="round"/><path d="M145.68483,178.50738c0,0 9.9522,-61.41699 11.3055,-69.21837c0.26349,-1.51892 12.58071,68.50535 12.58071,68.50535" fill="none" stroke-width="10" stroke-linecap="round"/><path d="M169.55114,177.79435c0,0 11.26596,-70.02427 11.52944,-68.50535c1.3533,7.80138 9.72861,68.69274 9.72861,68.69274" data-paper-data="{&quot;index&quot;:null}" fill="none" stroke-width="10" stroke-linecap="round"/><path d="M216.39531,141.37912c0,15.77214 -2.40786,30.91831 -5.76602,34.87622c-0.55127,0.64972 -2.83527,0.98148 -3.38273,0.90493c-4.64483,-0.64949 -8.77805,-5.62412 -9.24826,-41.56307c-0.24021,-18.3597 3.52611,-27.4641 7.2274,-27.4641c7.11787,0 11.16961,14.88475 11.16961,33.24602z" fill="none" stroke-width="10" stroke-linecap="butt"/><path d="M246.88178,108.13308c0,0 0.99737,27.87016 0.85726,40.19944c-0.09355,8.23215 -1.31391,23.58609 -1.72387,28.93491c-0.11319,1.4768 -0.10107,-0.36556 -0.34892,-1.21483c-0.60477,-2.07234 -3.6454,-11.1017 -6.47517,-22.30774c-1.97219,-7.80996 -3.43648,-16.94751 -5.60761,-24.38724c-2.42405,-8.30638 -6.04693,-16.36862 -6.95746,-19.48869c-0.32612,-1.11748 -0.25086,1.02183 -0.26008,2.2164c-0.05154,6.67479 -0.50931,65.9564 -0.50931,65.9564" fill="none" stroke-width="10" stroke-linecap="round"/><path d="M283.67575,149.92054c0,0 -4.80284,-0.03887 -6.30957,-0.05346c-1.04425,-0.01011 -1.83393,0.58378 -1.81378,1.61966c0.0964,4.95522 -0.02323,19.66824 -4.63167,24.10502c-2.14199,2.0622 -10.07508,2.12381 -12.67826,-5.80721c-4.46657,-13.60814 -2.9492,-41.03932 0.29369,-52.12689c3.92583,-13.42256 13.83857,-7.6849 13.83857,-7.6849" fill="none" stroke-width="10" stroke-linecap="round"/><path d="M346.97938,108.73323c0,0 2.47749,68.1543 -11.82519,68.70577c-17.29295,-0.36167 -15.50751,-68.96858 -15.50751,-68.96858" fill="none" stroke-width="10" stroke-linecap="round"/><path d="M376.15179,111.88701c0,0 -15.9713,-12.49168 -20.17019,10.00838c-4.45351,21.64781 24.78105,19.07301 24.06541,39.5597c-0.94901,7.63465 -5.64951,18.01205 -17.44074,15.55035c-11.53255,-2.4077 -7.21682,-23.59374 -7.21682,-23.59374" fill="none" stroke-width="10" stroke-linecap="round"/><path d="M376.15179,111.88701c0,0 -15.9713,-12.49168 -20.17019,10.00838c-4.45351,21.64781 24.78105,19.073 24.06541,39.5597c-0.94901,7.63465 -5.64951,18.01205 -17.44074,15.55035c-11.53255,-2.40769 -7.21682,-23.59375 -7.21682,-23.59375" fill="none" stroke-width="6" stroke-linecap="round"/><path d="M346.97938,108.73323c0,0 2.47749,68.1543 -11.82519,68.70577c-17.29295,-0.36168 -15.50751,-68.96858 -15.50751,-68.96858" fill="none" stroke-width="6" stroke-linecap="round"/><path d="M283.67575,149.92054c0,0 -4.80284,-0.03887 -6.30957,-0.05346c-1.04425,-0.01011 -1.83393,0.58378 -1.81378,1.61966c0.0964,4.95522 -0.02323,19.66824 -4.63167,24.10502c-2.14199,2.0622 -10.07508,2.12381 -12.67826,-5.80721c-4.46657,-13.60814 -2.9492,-41.03932 0.29369,-52.12689c3.92583,-13.42256 13.83857,-7.6849 13.83857,-7.6849" fill="none" stroke-width="6" stroke-linecap="round"/><path d="M283.67575,149.92055c0,0 -4.80284,-0.03887 -6.30957,-0.05346c-1.04425,-0.01011 -1.83393,0.58376 -1.81378,1.61965c0.09641,4.95522 -0.02321,19.66824 -4.63166,24.10502c-5.81723,5.60054 -12.85864,-3.08621 -13.71026,-6.09659c-0.82372,-2.91172 -3.8072,-34.28794 1.32569,-51.83752c3.92582,-13.42255 13.83857,-7.6849 13.83857,-7.6849" fill="none" stroke-width="4" stroke-linecap="round"/><path d="M246.88176,108.13307c0,0 0.99737,27.87016 0.85726,40.19944c-0.09355,8.23215 -1.05109,23.58609 -1.46106,28.93491c-0.11319,1.4768 -0.36388,-0.36556 -0.61173,-1.21483c-0.60477,-2.07233 -3.6454,-11.10169 -6.47517,-22.30773c-1.97219,-7.80996 -3.43649,-16.94751 -5.60761,-24.38724c-2.42404,-8.30639 -4.99567,-14.52893 -5.9062,-17.649c-0.32612,-1.11748 -1.30211,-3.1832 -1.31133,-1.98863c-0.05154,6.67479 -0.50931,68.32173 -0.50931,68.32173" fill="none" stroke-width="6" stroke-linecap="round"/><path d="M216.39531,141.37912c0,18.36127 -3.78893,35.87417 -7.49021,35.87417c-5.27817,0 -10.38117,-1.48122 -10.9068,-41.65609c-0.24021,-18.3597 3.52612,-27.4641 7.2274,-27.4641c7.11787,0 11.16961,14.88475 11.16961,33.24602z" fill="none" stroke-width="6" stroke-linecap="butt"/><path d="M145.68483,178.50738c0,0 9.9522,-61.41699 11.3055,-69.21837c0.26349,-1.51892 12.58071,68.50535 12.58071,68.50535" fill="none" stroke-width="6" stroke-linecap="round"/><path d="M169.55114,177.53154c0,0 11.26596,-69.76145 11.52945,-68.24253c1.3533,7.80138 9.72861,68.69274 9.72861,68.69274" data-paper-data="{&quot;index&quot;:null}" fill="none" stroke-width="6" stroke-linecap="round"/><path d="M131.83777,121.80231c0,0 4.22196,-0.13374 7.45121,8.27733c2.04199,4.89708 2.68937,18.01058 2.86155,20.05213c0.30436,3.60887 -5.94228,6.21813 -5.94228,6.21813" fill="none" stroke-width="6" stroke-linecap="round"/><path d="M103.93958,134.22909c-0.57704,-1.89178 -0.40584,-4.81895 -0.40584,-6.39135c0,-0.63267 1.1038,-5.94307 4.524,-6.86281c2.5605,-0.68855 8.62574,-0.4333 12.87398,0.75646c2.4026,0.67288 4.34844,6.37122 3.53532,10.8779c-0.63753,3.53352 -2.46236,4.59375 -4.28385,4.59375c-2.1202,0 -7.27273,0.10722 -10.81298,-0.13426c-2.27048,-0.15488 -4.98396,-1.37535 -5.43062,-2.8397z" fill="none" stroke-width="6" stroke-linecap="butt"/><path d="M95.64812,176.78869c-0.37959,-5.6952 -1.65202,-29.6093 2.28136,-47.75995c1.01526,-4.68495 3.83009,-18.38649 12.82256,-20.38236c5.43133,-1.20548 15.85842,1.08626 20.00775,12.05479c3.4118,9.0189 4.12402,21.33936 4.81345,31.98429c0.69612,10.74821 1.35221,19.79493 1.22779,23.41519c-0.03521,1.02462 -0.51532,1.5909 -1.32192,1.59792c-1.7363,0.0151 -8.85489,0.07426 -11.88713,0.09942c-0.84938,0.00705 -1.47436,-0.62368 -1.6373,-1.65031c-0.45136,-2.84384 -0.50812,-8.74165 -0.49466,-12.41688c0.00289,-0.78988 -0.3529,-1.53741 -0.76772,-2.13975c-0.57655,-0.83718 -1.69336,-1.38217 -2.78419,-1.363c-2.02949,0.03567 -5.51141,0.09724 -6.85416,0.15759c-1.29677,0.05828 -2.66984,1.99102 -2.68721,3.16897c-0.0413,2.80163 -0.20931,14.19744 -0.20931,14.19744c0,0 -9.92966,0.27045 -10.74478,0.27753c-0.92526,0.00805 -1.71027,-0.42723 -1.7645,-1.24088z" fill="none" stroke-width="6" stroke-linecap="butt"/><path d="M95.64812,176.78869c-0.37959,-5.6952 -1.65202,-29.6093 2.28136,-47.75995c1.01526,-4.68495 3.83009,-18.38649 12.82256,-20.38236c5.43133,-1.20548 15.85842,1.08626 20.00775,12.05479c3.4118,9.0189 4.12402,21.33936 4.81345,31.98429c0.69612,10.74821 1.35221,19.79493 1.22779,23.41519c-0.03521,1.02462 -0.51532,1.5909 -1.32192,1.59792c-1.7363,0.0151 -8.85489,0.07426 -11.88713,0.09942c-0.84938,0.00705 -1.47436,-0.62368 -1.6373,-1.65031c-0.45136,-2.84384 -0.50812,-8.74165 -0.49466,-12.41688c0.00289,-0.78988 -0.35291,-1.53742 -0.76773,-2.13976c-0.57655,-0.83718 -1.69336,-1.38217 -2.78419,-1.36299c-2.02949,0.03567 -5.51141,0.09724 -6.85416,0.15759c-1.29678,0.05828 -2.66984,1.99102 -2.6872,3.16897c-0.04131,2.80163 -0.20932,14.19744 -0.20932,14.19744c0,0 -9.92966,0.27045 -10.74478,0.27753c-0.92526,0.00805 -1.71027,-0.42723 -1.7645,-1.24088z" fill="none" stroke-width="4" stroke-linecap="butt"/><path d="M103.93958,134.22909c-0.57705,-1.89179 -0.40584,-4.81895 -0.40584,-6.39135c0,-0.63267 1.1038,-5.94308 4.524,-6.86281c2.56049,-0.68855 8.62574,-0.43331 12.87398,0.75646c2.40261,0.67287 4.34844,6.37121 3.53532,10.87791c-0.63754,3.53352 -2.46236,4.59376 -4.28385,4.59376c-2.1202,0 -7.27273,0.10722 -10.81298,-0.13426c-2.27047,-0.15487 -4.98396,-1.37535 -5.43062,-2.8397z" fill="none" stroke-width="4" stroke-linecap="butt"/><path d="M131.83777,121.80231c0,0 4.22196,-0.13374 7.45121,8.27733c2.04199,4.89708 2.68937,18.01058 2.86155,20.05213c0.30436,3.60887 -5.94228,6.21813 -5.94228,6.21813" fill="none" stroke-width="4" stroke-linecap="round"/><path d="M145.68483,178.50738c0,0 9.9522,-61.41699 11.3055,-69.21837c0.26349,-1.51892 12.58071,68.50535 12.58071,68.50535" fill="none" stroke-width="4" stroke-linecap="round"/><path d="M169.55114,177.79435c0,0 11.26596,-70.02427 11.52944,-68.50535c1.3533,7.80138 9.72861,68.69274 9.72861,68.69274" data-paper-data="{&quot;index&quot;:null}" fill="none" stroke-width="4" stroke-linecap="round"/><path d="M216.39531,141.37912c0,15.77214 -2.40786,30.91831 -5.76602,34.87622c-0.55127,0.64972 -2.83527,0.98148 -3.38273,0.90493c-4.64483,-0.64949 -8.77805,-5.62412 -9.24826,-41.56307c-0.24021,-18.3597 3.52611,-27.4641 7.2274,-27.4641c7.11787,0 11.16961,14.88475 11.16961,33.24602z" fill="none" stroke-width="4" stroke-linecap="butt"/><path d="M246.88178,108.13308c0,0 0.99737,27.87016 0.85726,40.19944c-0.09355,8.23215 -1.31391,23.58609 -1.72387,28.93491c-0.11319,1.4768 -0.10107,-0.36556 -0.34892,-1.21483c-0.60477,-2.07234 -3.6454,-11.1017 -6.47517,-22.30774c-1.97219,-7.80996 -3.43648,-16.94751 -5.60761,-24.38724c-2.42405,-8.30638 -6.04693,-16.36862 -6.95746,-19.48869c-0.32612,-1.11748 -0.25086,1.02183 -0.26008,2.2164c-0.05154,6.67479 -0.50931,65.9564 -0.50931,65.9564" fill="none" stroke-width="4" stroke-linecap="round"/><path d="M283.67575,149.92054c0,0 -4.80284,-0.03887 -6.30957,-0.05346c-1.04425,-0.01011 -1.83393,0.58378 -1.81378,1.61966c0.0964,4.95522 -0.02323,19.66824 -4.63167,24.10502c-2.14199,2.0622 -10.07508,2.12381 -12.67826,-5.80721c-4.46657,-13.60814 -2.9492,-41.03932 0.29369,-52.12689c3.92583,-13.42256 13.83857,-7.6849 13.83857,-7.6849" fill="none" stroke-width="4" stroke-linecap="round"/><path d="M346.97938,108.73323c0,0 2.47749,68.1543 -11.82519,68.70577c-17.29295,-0.36167 -15.50751,-68.96858 -15.50751,-68.96858" fill="none" stroke-width="4" stroke-linecap="round"/><path d="M376.15179,111.88701c0,0 -15.9713,-12.49168 -20.17019,10.00838c-4.45351,21.64781 24.78105,19.07301 24.06541,39.5597c-0.94901,7.63465 -5.64951,18.01205 -17.44074,15.55035c-11.53255,-2.4077 -7.21682,-23.59374 -7.21682,-23.59374" fill="none" stroke-width="4" stroke-linecap="round"/><text transform="translate(89.09134,237.71237) scale(1.11454,1.51288)" font-size="40" xml:space="preserve" fill="#ffffff" fill-rule="nonzero" stroke="#000000" stroke-width="5" stroke-linecap="butt" stroke-linejoin="miter" stroke-miterlimit="10" stroke-dasharray="" stroke-dashoffset="0" font-family="Handwriting" font-weight="normal" text-anchor="start" style="mix-blend-mode: normal"><tspan x="0" dy="0">PLATFORMER</tspan></text><text transform="translate(89.09134,237.46241) scale(1.11454,1.49205)" font-size="40" xml:space="preserve" fill="#ffffff" fill-rule="nonzero" stroke="#000000" stroke-width="0" stroke-linecap="butt" stroke-linejoin="miter" stroke-miterlimit="10" stroke-dasharray="" stroke-dashoffset="0" font-family="Handwriting" font-weight="normal" text-anchor="start" style="mix-blend-mode: normal"><tspan x="0" dy="0">PLATFORMER</tspan></text></g><g stroke="#000000"><path d="M376.15179,112.88701c0,0 -15.9713,-12.49168 -20.17019,10.00838c-4.45351,21.64781 24.78105,19.073 24.06541,39.5597c-0.94901,7.63465 -5.64951,18.01205 -17.44074,15.55035c-11.53255,-2.40769 -7.21682,-23.59375 -7.21682,-23.59375" fill="none" stroke-width="10" stroke-linecap="round"/><path d="M346.97938,109.73323c0,0 2.47749,68.1543 -11.82519,68.70577c-17.29295,-0.36168 -15.50751,-68.96858 -15.50751,-68.96858" fill="none" stroke-width="10" stroke-linecap="round"/><path d="M283.67575,150.92054c0,0 -4.80284,-0.03887 -6.30957,-0.05346c-1.04425,-0.01011 -1.83393,0.58378 -1.81378,1.61966c0.0964,4.95522 -0.02323,19.66824 -4.63167,24.10502c-2.14199,2.0622 -10.07508,2.12381 -12.67826,-5.80721c-4.46657,-13.60814 -2.9492,-41.03932 0.29369,-52.12689c3.92583,-13.42256 13.83857,-7.6849 13.83857,-7.6849" fill="none" stroke-width="10" stroke-linecap="round"/><path d="M283.67575,150.92055c0,0 -4.80284,-0.03887 -6.30957,-0.05346c-1.04425,-0.01011 -1.83393,0.58376 -1.81378,1.61965c0.09641,4.95522 -0.02321,19.66824 -4.63166,24.10502c-5.81723,5.60054 -12.85864,-3.08621 -13.71026,-6.09659c-0.82372,-2.91172 -3.8072,-34.28794 1.32569,-51.83752c3.92582,-13.42255 13.83857,-7.6849 13.83857,-7.6849" fill="none" stroke-width="10" stroke-linecap="round"/><path d="M246.88176,109.13307c0,0 0.99737,27.87016 0.85726,40.19944c-0.09355,8.23215 -1.05109,23.58609 -1.46106,28.93491c-0.11319,1.4768 -0.36388,-0.36556 -0.61173,-1.21483c-0.60477,-2.07233 -3.6454,-11.10169 -6.47517,-22.30773c-1.97219,-7.80996 -3.43649,-16.94751 -5.60761,-24.38724c-2.42404,-8.30639 -4.99567,-14.52893 -5.9062,-17.649c-0.32612,-1.11748 -1.30211,-3.1832 -1.31133,-1.98863c-0.05154,6.67479 -0.50931,68.32173 -0.50931,68.32173" fill="none" stroke-width="10" stroke-linecap="round"/><path d="M216.39531,142.37912c0,18.36127 -3.78893,35.87417 -7.49021,35.87417c-5.27817,0 -10.38117,-1.48122 -10.9068,-41.65609c-0.24021,-18.3597 3.52612,-27.4641 7.2274,-27.4641c7.11787,0 11.16961,14.88475 11.16961,33.24602z" fill="none" stroke-width="10" stroke-linecap="butt"/><path d="M145.68483,179.50738c0,0 9.9522,-61.41699 11.3055,-69.21837c0.26349,-1.51892 12.58071,68.50535 12.58071,68.50535" fill="none" stroke-width="10" stroke-linecap="round"/><path d="M169.55114,178.53154c0,0 11.26596,-69.76145 11.52945,-68.24253c1.3533,7.80138 9.72861,68.69274 9.72861,68.69274" data-paper-data="{&quot;index&quot;:null}" fill="none" stroke-width="10" stroke-linecap="round"/><path d="M131.83777,122.80231c0,0 4.22196,-0.13374 7.45121,8.27733c2.04199,4.89708 2.68937,18.01058 2.86155,20.05213c0.30436,3.60887 -5.94228,6.21813 -5.94228,6.21813" fill="none" stroke-width="10" stroke-linecap="round"/><path d="M103.93958,135.22909c-0.57704,-1.89178 -0.40584,-4.81895 -0.40584,-6.39135c0,-0.63267 1.1038,-5.94307 4.524,-6.86281c2.5605,-0.68855 8.62574,-0.4333 12.87398,0.75646c2.4026,0.67288 4.34844,6.37122 3.53532,10.8779c-0.63753,3.53352 -2.46236,4.59375 -4.28385,4.59375c-2.1202,0 -7.27273,0.10722 -10.81298,-0.13426c-2.27048,-0.15488 -4.98396,-1.37535 -5.43062,-2.8397z" fill="none" stroke-width="10" stroke-linecap="butt"/><path d="M95.64812,177.78869c-0.37959,-5.6952 -1.65202,-29.6093 2.28136,-47.75995c1.01526,-4.68495 3.83009,-18.38649 12.82256,-20.38236c5.43133,-1.20548 15.85842,1.08626 20.00775,12.05479c3.4118,9.0189 4.12402,21.33936 4.81345,31.98429c0.69612,10.74821 1.35221,19.79493 1.22779,23.41519c-0.03521,1.02462 -0.51532,1.5909 -1.32192,1.59792c-1.7363,0.0151 -8.85489,0.07426 -11.88713,0.09942c-0.84938,0.00705 -1.47436,-0.62368 -1.6373,-1.65031c-0.45136,-2.84384 -0.50812,-8.74165 -0.49466,-12.41688c0.00289,-0.78988 -0.3529,-1.53741 -0.76772,-2.13975c-0.57655,-0.83718 -1.69336,-1.38217 -2.78419,-1.363c-2.02949,0.03567 -5.51141,0.09724 -6.85416,0.15759c-1.29677,0.05828 -2.66984,1.99102 -2.68721,3.16897c-0.0413,2.80163 -0.20931,14.19744 -0.20931,14.19744c0,0 -9.92966,0.27045 -10.74478,0.27753c-0.92526,0.00805 -1.71027,-0.42723 -1.7645,-1.24088z" fill="none" stroke-width="10" stroke-linecap="butt"/><path d="M95.64812,177.78869c-0.37959,-5.6952 -1.65202,-29.6093 2.28136,-47.75995c1.01526,-4.68495 3.83009,-18.38649 12.82256,-20.38236c5.43133,-1.20548 15.85842,1.08626 20.00775,12.05479c3.4118,9.0189 4.12402,21.33936 4.81345,31.98429c0.69612,10.74821 1.35221,19.79493 1.22779,23.41519c-0.03521,1.02462 -0.51532,1.5909 -1.32192,1.59792c-1.7363,0.0151 -8.85489,0.07426 -11.88713,0.09942c-0.84938,0.00705 -1.47436,-0.62368 -1.6373,-1.65031c-0.45136,-2.84384 -0.50812,-8.74165 -0.49466,-12.41688c0.00289,-0.78988 -0.35291,-1.53742 -0.76773,-2.13976c-0.57655,-0.83718 -1.69336,-1.38217 -2.78419,-1.36299c-2.02949,0.03567 -5.51141,0.09724 -6.85416,0.15759c-1.29678,0.05828 -2.66984,1.99102 -2.6872,3.16897c-0.04131,2.80163 -0.20932,14.19744 -0.20932,14.19744c0,0 -9.92966,0.27045 -10.74478,0.27753c-0.92526,0.00805 -1.71027,-0.42723 -1.7645,-1.24088z" fill="none" stroke-width="10" stroke-linecap="butt"/><path d="M103.93958,135.22909c-0.57705,-1.89179 -0.40584,-4.81895 -0.40584,-6.39135c0,-0.63267 1.1038,-5.94308 4.524,-6.86281c2.56049,-0.68855 8.62574,-0.43331 12.87398,0.75646c2.40261,0.67287 4.34844,6.37121 3.53532,10.87791c-0.63754,3.53352 -2.46236,4.59376 -4.28385,4.59376c-2.1202,0 -7.27273,0.10722 -10.81298,-0.13426c-2.27047,-0.15487 -4.98396,-1.37535 -5.43062,-2.8397z" fill="none" stroke-width="10" stroke-linecap="butt"/><path d="M131.83777,122.80231c0,0 4.22196,-0.13374 7.45121,8.27733c2.04199,4.89708 2.68937,18.01058 2.86155,20.05213c0.30436,3.60887 -5.94228,6.21813 -5.94228,6.21813" fill="none" stroke-width="10" stroke-linecap="round"/><path d="M145.68483,179.50738c0,0 9.9522,-61.41699 11.3055,-69.21837c0.26349,-1.51892 12.58071,68.50535 12.58071,68.50535" fill="none" stroke-width="10" stroke-linecap="round"/><path d="M169.55114,178.79435c0,0 11.26596,-70.02427 11.52944,-68.50535c1.3533,7.80138 9.72861,68.69274 9.72861,68.69274" data-paper-data="{&quot;index&quot;:null}" fill="none" stroke-width="10" stroke-linecap="round"/><path d="M216.39531,142.37912c0,15.77214 -2.40786,30.91831 -5.76602,34.87622c-0.55127,0.64972 -2.83527,0.98148 -3.38273,0.90493c-4.64483,-0.64949 -8.77805,-5.62412 -9.24826,-41.56307c-0.24021,-18.3597 3.52611,-27.4641 7.2274,-27.4641c7.11787,0 11.16961,14.88475 11.16961,33.24602z" fill="none" stroke-width="10" stroke-linecap="butt"/><path d="M246.88178,109.13308c0,0 0.99737,27.87016 0.85726,40.19944c-0.09355,8.23215 -1.31391,23.58609 -1.72387,28.93491c-0.11319,1.4768 -0.10107,-0.36556 -0.34892,-1.21483c-0.60477,-2.07234 -3.6454,-11.1017 -6.47517,-22.30774c-1.97219,-7.80996 -3.43648,-16.94751 -5.60761,-24.38724c-2.42405,-8.30638 -6.04693,-16.36862 -6.95746,-19.48869c-0.32612,-1.11748 -0.25086,1.02183 -0.26008,2.2164c-0.05154,6.67479 -0.50931,65.9564 -0.50931,65.9564" fill="none" stroke-width="10" stroke-linecap="round"/><path d="M283.67575,150.92054c0,0 -4.80284,-0.03887 -6.30957,-0.05346c-1.04425,-0.01011 -1.83393,0.58378 -1.81378,1.61966c0.0964,4.95522 -0.02323,19.66824 -4.63167,24.10502c-2.14199,2.0622 -10.07508,2.12381 -12.67826,-5.80721c-4.46657,-13.60814 -2.9492,-41.03932 0.29369,-52.12689c3.92583,-13.42256 13.83857,-7.6849 13.83857,-7.6849" fill="none" stroke-width="10" stroke-linecap="round"/><path d="M346.97938,109.73323c0,0 2.47749,68.1543 -11.82519,68.70577c-17.29295,-0.36167 -15.50751,-68.96858 -15.50751,-68.96858" fill="none" stroke-width="10" stroke-linecap="round"/><path d="M376.15179,112.88701c0,0 -15.9713,-12.49168 -20.17019,10.00838c-4.45351,21.64781 24.78105,19.07301 24.06541,39.5597c-0.94901,7.63465 -5.64951,18.01205 -17.44074,15.55035c-11.53255,-2.4077 -7.21682,-23.59374 -7.21682,-23.59374" fill="none" stroke-width="10" stroke-linecap="round"/><path d="M376.15179,112.88701c0,0 -15.9713,-12.49168 -20.17019,10.00838c-4.45351,21.64781 24.78105,19.073 24.06541,39.5597c-0.94901,7.63465 -5.64951,18.01205 -17.44074,15.55035c-11.53255,-2.40769 -7.21682,-23.59375 -7.21682,-23.59375" fill="none" stroke-width="6" stroke-linecap="round"/><path d="M346.97938,109.73323c0,0 2.47749,68.1543 -11.82519,68.70577c-17.29295,-0.36168 -15.50751,-68.96858 -15.50751,-68.96858" fill="none" stroke-width="6" stroke-linecap="round"/><path d="M283.67575,150.92054c0,0 -4.80284,-0.03887 -6.30957,-0.05346c-1.04425,-0.01011 -1.83393,0.58378 -1.81378,1.61966c0.0964,4.95522 -0.02323,19.66824 -4.63167,24.10502c-2.14199,2.0622 -10.07508,2.12381 -12.67826,-5.80721c-4.46657,-13.60814 -2.9492,-41.03932 0.29369,-52.12689c3.92583,-13.42256 13.83857,-7.6849 13.83857,-7.6849" fill="none" stroke-width="6" stroke-linecap="round"/><path d="M283.67575,150.92055c0,0 -4.80284,-0.03887 -6.30957,-0.05346c-1.04425,-0.01011 -1.83393,0.58376 -1.81378,1.61965c0.09641,4.95522 -0.02321,19.66824 -4.63166,24.10502c-5.81723,5.60054 -12.85864,-3.08621 -13.71026,-6.09659c-0.82372,-2.91172 -3.8072,-34.28794 1.32569,-51.83752c3.92582,-13.42255 13.83857,-7.6849 13.83857,-7.6849" fill="none" stroke-width="4" stroke-linecap="round"/><path d="M246.88176,109.13307c0,0 0.99737,27.87016 0.85726,40.19944c-0.09355,8.23215 -1.05109,23.58609 -1.46106,28.93491c-0.11319,1.4768 -0.36388,-0.36556 -0.61173,-1.21483c-0.60477,-2.07233 -3.6454,-11.10169 -6.47517,-22.30773c-1.97219,-7.80996 -3.43649,-16.94751 -5.60761,-24.38724c-2.42404,-8.30639 -4.99567,-14.52893 -5.9062,-17.649c-0.32612,-1.11748 -1.30211,-3.1832 -1.31133,-1.98863c-0.05154,6.67479 -0.50931,68.32173 -0.50931,68.32173" fill="none" stroke-width="6" stroke-linecap="round"/><path d="M216.39531,142.37912c0,18.36127 -3.78893,35.87417 -7.49021,35.87417c-5.27817,0 -10.38117,-1.48122 -10.9068,-41.65609c-0.24021,-18.3597 3.52612,-27.4641 7.2274,-27.4641c7.11787,0 11.16961,14.88475 11.16961,33.24602z" fill="none" stroke-width="6" stroke-linecap="butt"/><path d="M145.68483,179.50738c0,0 9.9522,-61.41699 11.3055,-69.21837c0.26349,-1.51892 12.58071,68.50535 12.58071,68.50535" fill="none" stroke-width="6" stroke-linecap="round"/><path d="M169.55114,178.53154c0,0 11.26596,-69.76145 11.52945,-68.24253c1.3533,7.80138 9.72861,68.69274 9.72861,68.69274" data-paper-data="{&quot;index&quot;:null}" fill="none" stroke-width="6" stroke-linecap="round"/><path d="M131.83777,122.80231c0,0 4.22196,-0.13374 7.45121,8.27733c2.04199,4.89708 2.68937,18.01058 2.86155,20.05213c0.30436,3.60887 -5.94228,6.21813 -5.94228,6.21813" fill="none" stroke-width="6" stroke-linecap="round"/><path d="M103.93958,135.22909c-0.57704,-1.89178 -0.40584,-4.81895 -0.40584,-6.39135c0,-0.63267 1.1038,-5.94307 4.524,-6.86281c2.5605,-0.68855 8.62574,-0.4333 12.87398,0.75646c2.4026,0.67288 4.34844,6.37122 3.53532,10.8779c-0.63753,3.53352 -2.46236,4.59375 -4.28385,4.59375c-2.1202,0 -7.27273,0.10722 -10.81298,-0.13426c-2.27048,-0.15488 -4.98396,-1.37535 -5.43062,-2.8397z" fill="none" stroke-width="6" stroke-linecap="butt"/><path d="M95.64812,177.78869c-0.37959,-5.6952 -1.65202,-29.6093 2.28136,-47.75995c1.01526,-4.68495 3.83009,-18.38649 12.82256,-20.38236c5.43133,-1.20548 15.85842,1.08626 20.00775,12.05479c3.4118,9.0189 4.12402,21.33936 4.81345,31.98429c0.69612,10.74821 1.35221,19.79493 1.22779,23.41519c-0.03521,1.02462 -0.51532,1.5909 -1.32192,1.59792c-1.7363,0.0151 -8.85489,0.07426 -11.88713,0.09942c-0.84938,0.00705 -1.47436,-0.62368 -1.6373,-1.65031c-0.45136,-2.84384 -0.50812,-8.74165 -0.49466,-12.41688c0.00289,-0.78988 -0.3529,-1.53741 -0.76772,-2.13975c-0.57655,-0.83718 -1.69336,-1.38217 -2.78419,-1.363c-2.02949,0.03567 -5.51141,0.09724 -6.85416,0.15759c-1.29677,0.05828 -2.66984,1.99102 -2.68721,3.16897c-0.0413,2.80163 -0.20931,14.19744 -0.20931,14.19744c0,0 -9.92966,0.27045 -10.74478,0.27753c-0.92526,0.00805 -1.71027,-0.42723 -1.7645,-1.24088z" fill="none" stroke-width="6" stroke-linecap="butt"/><path d="M95.64812,177.78869c-0.37959,-5.6952 -1.65202,-29.6093 2.28136,-47.75995c1.01526,-4.68495 3.83009,-18.38649 12.82256,-20.38236c5.43133,-1.20548 15.85842,1.08626 20.00775,12.05479c3.4118,9.0189 4.12402,21.33936 4.81345,31.98429c0.69612,10.74821 1.35221,19.79493 1.22779,23.41519c-0.03521,1.02462 -0.51532,1.5909 -1.32192,1.59792c-1.7363,0.0151 -8.85489,0.07426 -11.88713,0.09942c-0.84938,0.00705 -1.47436,-0.62368 -1.6373,-1.65031c-0.45136,-2.84384 -0.50812,-8.74165 -0.49466,-12.41688c0.00289,-0.78988 -0.35291,-1.53742 -0.76773,-2.13976c-0.57655,-0.83718 -1.69336,-1.38217 -2.78419,-1.36299c-2.02949,0.03567 -5.51141,0.09724 -6.85416,0.15759c-1.29678,0.05828 -2.66984,1.99102 -2.6872,3.16897c-0.04131,2.80163 -0.20932,14.19744 -0.20932,14.19744c0,0 -9.92966,0.27045 -10.74478,0.27753c-0.92526,0.00805 -1.71027,-0.42723 -1.7645,-1.24088z" fill="none" stroke-width="4" stroke-linecap="butt"/><path d="M103.93958,135.22909c-0.57705,-1.89179 -0.40584,-4.81895 -0.40584,-6.39135c0,-0.63267 1.1038,-5.94308 4.524,-6.86281c2.56049,-0.68855 8.62574,-0.43331 12.87398,0.75646c2.40261,0.67287 4.34844,6.37121 3.53532,10.87791c-0.63754,3.53352 -2.46236,4.59376 -4.28385,4.59376c-2.1202,0 -7.27273,0.10722 -10.81298,-0.13426c-2.27047,-0.15487 -4.98396,-1.37535 -5.43062,-2.8397z" fill="none" stroke-width="4" stroke-linecap="butt"/><path d="M131.83777,122.80231c0,0 4.22196,-0.13374 7.45121,8.27733c2.04199,4.89708 2.68937,18.01058 2.86155,20.05213c0.30436,3.60887 -5.94228,6.21813 -5.94228,6.21813" fill="none" stroke-width="4" stroke-linecap="round"/><path d="M145.68483,179.50738c0,0 9.9522,-61.41699 11.3055,-69.21837c0.26349,-1.51892 12.58071,68.50535 12.58071,68.50535" fill="none" stroke-width="4" stroke-linecap="round"/><path d="M169.55114,178.79435c0,0 11.26596,-70.02427 11.52944,-68.50535c1.3533,7.80138 9.72861,68.69274 9.72861,68.69274" data-paper-data="{&quot;index&quot;:null}" fill="none" stroke-width="4" stroke-linecap="round"/><path d="M216.39531,142.37912c0,15.77214 -2.40786,30.91831 -5.76602,34.87622c-0.55127,0.64972 -2.83527,0.98148 -3.38273,0.90493c-4.64483,-0.64949 -8.77805,-5.62412 -9.24826,-41.56307c-0.24021,-18.3597 3.52611,-27.4641 7.2274,-27.4641c7.11787,0 11.16961,14.88475 11.16961,33.24602z" fill="none" stroke-width="4" stroke-linecap="butt"/><path d="M246.88178,109.13308c0,0 0.99737,27.87016 0.85726,40.19944c-0.09355,8.23215 -1.31391,23.58609 -1.72387,28.93491c-0.11319,1.4768 -0.10107,-0.36556 -0.34892,-1.21483c-0.60477,-2.07234 -3.6454,-11.1017 -6.47517,-22.30774c-1.97219,-7.80996 -3.43648,-16.94751 -5.60761,-24.38724c-2.42405,-8.30638 -6.04693,-16.36862 -6.95746,-19.48869c-0.32612,-1.11748 -0.25086,1.02183 -0.26008,2.2164c-0.05154,6.67479 -0.50931,65.9564 -0.50931,65.9564" fill="none" stroke-width="4" stroke-linecap="round"/><path d="M283.67575,150.92054c0,0 -4.80284,-0.03887 -6.30957,-0.05346c-1.04425,-0.01011 -1.83393,0.58378 -1.81378,1.61966c0.0964,4.95522 -0.02323,19.66824 -4.63167,24.10502c-2.14199,2.0622 -10.07508,2.12381 -12.67826,-5.80721c-4.46657,-13.60814 -2.9492,-41.03932 0.29369,-52.12689c3.92583,-13.42256 13.83857,-7.6849 13.83857,-7.6849" fill="none" stroke-width="4" stroke-linecap="round"/><path d="M346.97938,109.73323c0,0 2.47749,68.1543 -11.82519,68.70577c-17.29295,-0.36167 -15.50751,-68.96858 -15.50751,-68.96858" fill="none" stroke-width="4" stroke-linecap="round"/><path d="M376.15179,112.88701c0,0 -15.9713,-12.49168 -20.17019,10.00838c-4.45351,21.64781 24.78105,19.07301 24.06541,39.5597c-0.94901,7.63465 -5.64951,18.01205 -17.44074,15.55035c-11.53255,-2.4077 -7.21682,-23.59374 -7.21682,-23.59374" fill="none" stroke-width="4" stroke-linecap="round"/><text transform="translate(89.09134,238.71237) scale(1.11454,1.51288)" font-size="40" xml:space="preserve" fill="#ffffff" fill-rule="nonzero" stroke="#000000" stroke-width="5" stroke-linecap="butt" stroke-linejoin="miter" stroke-miterlimit="10" stroke-dasharray="" stroke-dashoffset="0" font-family="Handwriting" font-weight="normal" text-anchor="start" style="mix-blend-mode: normal"><tspan x="0" dy="0">PLATFORMER</tspan></text><text transform="translate(89.09134,238.46241) scale(1.11454,1.49205)" font-size="40" xml:space="preserve" fill="#ffffff" fill-rule="nonzero" stroke="#000000" stroke-width="0" stroke-linecap="butt" stroke-linejoin="miter" stroke-miterlimit="10" stroke-dasharray="" stroke-dashoffset="0" font-family="Handwriting" font-weight="normal" text-anchor="start" style="mix-blend-mode: normal"><tspan x="0" dy="0">PLATFORMER</tspan></text></g><g><path d="M376.15179,109.88701c0,0 -15.9713,-12.49168 -20.17019,10.00838c-4.45351,21.64781 24.78105,19.073 24.06541,39.5597c-0.94901,7.63465 -5.64951,18.01205 -17.44074,15.55035c-11.53255,-2.40769 -7.21682,-23.59375 -7.21682,-23.59375" fill="none" stroke="#000000" stroke-width="10" stroke-linecap="round"/><path d="M346.97938,106.73323c0,0 2.47749,68.1543 -11.82519,68.70577c-17.29295,-0.36168 -15.50751,-68.96858 -15.50751,-68.96858" fill="none" stroke="#000000" stroke-width="10" stroke-linecap="round"/><path d="M283.67575,147.92054c0,0 -4.80284,-0.03887 -6.30957,-0.05346c-1.04425,-0.01011 -1.83393,0.58378 -1.81378,1.61966c0.0964,4.95522 -0.02323,19.66824 -4.63167,24.10502c-2.14199,2.0622 -10.07508,2.12381 -12.67826,-5.80721c-4.46657,-13.60814 -2.9492,-41.03932 0.29369,-52.12689c3.92583,-13.42256 13.83857,-7.6849 13.83857,-7.6849" fill="none" stroke="#000000" stroke-width="10" stroke-linecap="round"/><path d="M283.67575,147.92055c0,0 -4.80284,-0.03887 -6.30957,-0.05346c-1.04425,-0.01011 -1.83393,0.58376 -1.81378,1.61965c0.09641,4.95522 -0.02321,19.66824 -4.63166,24.10502c-5.81723,5.60054 -12.85864,-3.08621 -13.71026,-6.09659c-0.82372,-2.91172 -3.8072,-34.28794 1.32569,-51.83752c3.92582,-13.42255 13.83857,-7.6849 13.83857,-7.6849" fill="none" stroke="#000000" stroke-width="10" stroke-linecap="round"/><path d="M246.88176,106.13307c0,0 0.99737,27.87016 0.85726,40.19944c-0.09355,8.23215 -1.05109,23.58609 -1.46106,28.93491c-0.11319,1.4768 -0.36388,-0.36556 -0.61173,-1.21483c-0.60477,-2.07233 -3.6454,-11.10169 -6.47517,-22.30773c-1.97219,-7.80996 -3.43649,-16.94751 -5.60761,-24.38724c-2.42404,-8.30639 -4.99567,-14.52893 -5.9062,-17.649c-0.32612,-1.11748 -1.30211,-3.1832 -1.31133,-1.98863c-0.05154,6.67479 -0.50931,68.32173 -0.50931,68.32173" fill="none" stroke="#000000" stroke-width="10" stroke-linecap="round"/><path d="M216.39531,139.37912c0,18.36127 -3.78893,35.87417 -7.49021,35.87417c-5.27817,0 -10.38117,-1.48122 -10.9068,-41.65609c-0.24021,-18.3597 3.52612,-27.4641 7.2274,-27.4641c7.11787,0 11.16961,14.88475 11.16961,33.24602z" fill="none" stroke="#000000" stroke-width="10" stroke-linecap="butt"/><path d="M145.68483,176.50738c0,0 9.9522,-61.41699 11.3055,-69.21837c0.26349,-1.51892 12.58071,68.50535 12.58071,68.50535" fill="none" stroke="#000000" stroke-width="10" stroke-linecap="round"/><path d="M169.55114,175.53154c0,0 11.26596,-69.76145 11.52945,-68.24253c1.3533,7.80138 9.72861,68.69274 9.72861,68.69274" data-paper-data="{&quot;index&quot;:null}" fill="none" stroke="#000000" stroke-width="10" stroke-linecap="round"/><path d="M131.83777,119.80231c0,0 4.22196,-0.13374 7.45121,8.27733c2.04199,4.89708 2.68937,18.01058 2.86155,20.05213c0.30436,3.60887 -5.94228,6.21813 -5.94228,6.21813" fill="none" stroke="#000000" stroke-width="10" stroke-linecap="round"/><path d="M103.93958,132.22909c-0.57704,-1.89178 -0.40584,-4.81895 -0.40584,-6.39135c0,-0.63267 1.1038,-5.94307 4.524,-6.86281c2.5605,-0.68855 8.62574,-0.4333 12.87398,0.75646c2.4026,0.67288 4.34844,6.37122 3.53532,10.8779c-0.63753,3.53352 -2.46236,4.59375 -4.28385,4.59375c-2.1202,0 -7.27273,0.10722 -10.81298,-0.13426c-2.27048,-0.15488 -4.98396,-1.37535 -5.43062,-2.8397z" fill="none" stroke="#000000" stroke-width="10" stroke-linecap="butt"/><path d="M95.64812,174.78869c-0.37959,-5.6952 -1.65202,-29.6093 2.28136,-47.75995c1.01526,-4.68495 3.83009,-18.38649 12.82256,-20.38236c5.43133,-1.20548 15.85842,1.08626 20.00775,12.05479c3.4118,9.0189 4.12402,21.33936 4.81345,31.98429c0.69612,10.74821 1.35221,19.79493 1.22779,23.41519c-0.03521,1.02462 -0.51532,1.5909 -1.32192,1.59792c-1.7363,0.0151 -8.85489,0.07426 -11.88713,0.09942c-0.84938,0.00705 -1.47436,-0.62368 -1.6373,-1.65031c-0.45136,-2.84384 -0.50812,-8.74165 -0.49466,-12.41688c0.00289,-0.78988 -0.3529,-1.53741 -0.76772,-2.13975c-0.57655,-0.83718 -1.69336,-1.38217 -2.78419,-1.363c-2.02949,0.03567 -5.51141,0.09724 -6.85416,0.15759c-1.29677,0.05828 -2.66984,1.99102 -2.68721,3.16897c-0.0413,2.80163 -0.20931,14.19744 -0.20931,14.19744c0,0 -9.92966,0.27045 -10.74478,0.27753c-0.92526,0.00805 -1.71027,-0.42723 -1.7645,-1.24088z" fill="none" stroke="#000000" stroke-width="10" stroke-linecap="butt"/><path d="M95.64812,174.78869c-0.37959,-5.6952 -1.65202,-29.6093 2.28136,-47.75995c1.01526,-4.68495 3.83009,-18.38649 12.82256,-20.38236c5.43133,-1.20548 15.85842,1.08626 20.00775,12.05479c3.4118,9.0189 4.12402,21.33936 4.81345,31.98429c0.69612,10.74821 1.35221,19.79493 1.22779,23.41519c-0.03521,1.02462 -0.51532,1.5909 -1.32192,1.59792c-1.7363,0.0151 -8.85489,0.07426 -11.88713,0.09942c-0.84938,0.00705 -1.47436,-0.62368 -1.6373,-1.65031c-0.45136,-2.84384 -0.50812,-8.74165 -0.49466,-12.41688c0.00289,-0.78988 -0.35291,-1.53742 -0.76773,-2.13976c-0.57655,-0.83718 -1.69336,-1.38217 -2.78419,-1.36299c-2.02949,0.03567 -5.51141,0.09724 -6.85416,0.15759c-1.29678,0.05828 -2.66984,1.99102 -2.6872,3.16897c-0.04131,2.80163 -0.20932,14.19744 -0.20932,14.19744c0,0 -9.92966,0.27045 -10.74478,0.27753c-0.92526,0.00805 -1.71027,-0.42723 -1.7645,-1.24088z" fill="none" stroke="#000000" stroke-width="10" stroke-linecap="butt"/><path d="M103.93958,132.22909c-0.57705,-1.89179 -0.40584,-4.81895 -0.40584,-6.39135c0,-0.63267 1.1038,-5.94308 4.524,-6.86281c2.56049,-0.68855 8.62574,-0.43331 12.87398,0.75646c2.40261,0.67287 4.34844,6.37121 3.53532,10.87791c-0.63754,3.53352 -2.46236,4.59376 -4.28385,4.59376c-2.1202,0 -7.27273,0.10722 -10.81298,-0.13426c-2.27047,-0.15487 -4.98396,-1.37535 -5.43062,-2.8397z" fill="none" stroke="#000000" stroke-width="10" stroke-linecap="butt"/><path d="M131.83777,119.80231c0,0 4.22196,-0.13374 7.45121,8.27733c2.04199,4.89708 2.68937,18.01058 2.86155,20.05213c0.30436,3.60887 -5.94228,6.21813 -5.94228,6.21813" fill="none" stroke="#000000" stroke-width="10" stroke-linecap="round"/><path d="M145.68483,176.50738c0,0 9.9522,-61.41699 11.3055,-69.21837c0.26349,-1.51892 12.58071,68.50535 12.58071,68.50535" fill="none" stroke="#000000" stroke-width="10" stroke-linecap="round"/><path d="M169.55114,175.79435c0,0 11.26596,-70.02427 11.52944,-68.50535c1.3533,7.80138 9.72861,68.69274 9.72861,68.69274" data-paper-data="{&quot;index&quot;:null}" fill="none" stroke="#000000" stroke-width="10" stroke-linecap="round"/><path d="M216.39531,139.37912c0,15.77214 -2.40786,30.91831 -5.76602,34.87622c-0.55127,0.64972 -2.83527,0.98148 -3.38273,0.90493c-4.64483,-0.64949 -8.77805,-5.62412 -9.24826,-41.56307c-0.24021,-18.3597 3.52611,-27.4641 7.2274,-27.4641c7.11787,0 11.16961,14.88475 11.16961,33.24602z" fill="none" stroke="#000000" stroke-width="10" stroke-linecap="butt"/><path d="M246.88178,106.13308c0,0 0.99737,27.87016 0.85726,40.19944c-0.09355,8.23215 -1.31391,23.58609 -1.72387,28.93491c-0.11319,1.4768 -0.10107,-0.36556 -0.34892,-1.21483c-0.60477,-2.07234 -3.6454,-11.1017 -6.47517,-22.30774c-1.97219,-7.80996 -3.43648,-16.94751 -5.60761,-24.38724c-2.42405,-8.30638 -6.04693,-16.36862 -6.95746,-19.48869c-0.32612,-1.11748 -0.25086,1.02183 -0.26008,2.2164c-0.05154,6.67479 -0.50931,65.9564 -0.50931,65.9564" fill="none" stroke="#000000" stroke-width="10" stroke-linecap="round"/><path d="M283.67575,147.92054c0,0 -4.80284,-0.03887 -6.30957,-0.05346c-1.04425,-0.01011 -1.83393,0.58378 -1.81378,1.61966c0.0964,4.95522 -0.02323,19.66824 -4.63167,24.10502c-2.14199,2.0622 -10.07508,2.12381 -12.67826,-5.80721c-4.46657,-13.60814 -2.9492,-41.03932 0.29369,-52.12689c3.92583,-13.42256 13.83857,-7.6849 13.83857,-7.6849" fill="none" stroke="#000000" stroke-width="10" stroke-linecap="round"/><path d="M346.97938,106.73323c0,0 2.47749,68.1543 -11.82519,68.70577c-17.29295,-0.36167 -15.50751,-68.96858 -15.50751,-68.96858" fill="none" stroke="#000000" stroke-width="10" stroke-linecap="round"/><path d="M376.15179,109.88701c0,0 -15.9713,-12.49168 -20.17019,10.00838c-4.45351,21.64781 24.78105,19.07301 24.06541,39.5597c-0.94901,7.63465 -5.64951,18.01205 -17.44074,15.55035c-11.53255,-2.4077 -7.21682,-23.59374 -7.21682,-23.59374" fill="none" stroke="#000000" stroke-width="10" stroke-linecap="round"/><path d="M376.15179,109.88701c0,0 -15.9713,-12.49168 -20.17019,10.00838c-4.45351,21.64781 24.78105,19.073 24.06541,39.5597c-0.94901,7.63465 -5.64951,18.01205 -17.44074,15.55035c-11.53255,-2.40769 -7.21682,-23.59375 -7.21682,-23.59375" fill="none" stroke="#000000" stroke-width="6" stroke-linecap="round"/><path d="M346.97938,106.73323c0,0 2.47749,68.1543 -11.82519,68.70577c-17.29295,-0.36168 -15.50751,-68.96858 -15.50751,-68.96858" fill="none" stroke="#000000" stroke-width="6" stroke-linecap="round"/><path d="M283.67575,147.92054c0,0 -4.80284,-0.03887 -6.30957,-0.05346c-1.04425,-0.01011 -1.83393,0.58378 -1.81378,1.61966c0.0964,4.95522 -0.02323,19.66824 -4.63167,24.10502c-2.14199,2.0622 -10.07508,2.12381 -12.67826,-5.80721c-4.46657,-13.60814 -2.9492,-41.03932 0.29369,-52.12689c3.92583,-13.42256 13.83857,-7.6849 13.83857,-7.6849" fill="none" stroke="#000000" stroke-width="6" stroke-linecap="round"/><path d="M283.67575,147.92055c0,0 -4.80284,-0.03887 -6.30957,-0.05346c-1.04425,-0.01011 -1.83393,0.58376 -1.81378,1.61965c0.09641,4.95522 -0.02321,19.66824 -4.63166,24.10502c-5.81723,5.60054 -12.85864,-3.08621 -13.71026,-6.09659c-0.82372,-2.91172 -3.8072,-34.28794 1.32569,-51.83752c3.92582,-13.42255 13.83857,-7.6849 13.83857,-7.6849" fill="none" stroke="#ffffff" stroke-width="4" stroke-linecap="round"/><path d="M246.88176,106.13307c0,0 0.99737,27.87016 0.85726,40.19944c-0.09355,8.23215 -1.05109,23.58609 -1.46106,28.93491c-0.11319,1.4768 -0.36388,-0.36556 -0.61173,-1.21483c-0.60477,-2.07233 -3.6454,-11.10169 -6.47517,-22.30773c-1.97219,-7.80996 -3.43649,-16.94751 -5.60761,-24.38724c-2.42404,-8.30639 -4.99567,-14.52893 -5.9062,-17.649c-0.32612,-1.11748 -1.30211,-3.1832 -1.31133,-1.98863c-0.05154,6.67479 -0.50931,68.32173 -0.50931,68.32173" fill="none" stroke="#000000" stroke-width="6" stroke-linecap="round"/><path d="M216.39531,139.37912c0,18.36127 -3.78893,35.87417 -7.49021,35.87417c-5.27817,0 -10.38117,-1.48122 -10.9068,-41.65609c-0.24021,-18.3597 3.52612,-27.4641 7.2274,-27.4641c7.11787,0 11.16961,14.88475 11.16961,33.24602z" fill="none" stroke="#000000" stroke-width="6" stroke-linecap="butt"/><path d="M145.68483,176.50738c0,0 9.9522,-61.41699 11.3055,-69.21837c0.26349,-1.51892 12.58071,68.50535 12.58071,68.50535" fill="none" stroke="#000000" stroke-width="6" stroke-linecap="round"/><path d="M169.55114,175.53154c0,0 11.26596,-69.76145 11.52945,-68.24253c1.3533,7.80138 9.72861,68.69274 9.72861,68.69274" data-paper-data="{&quot;index&quot;:null}" fill="none" stroke="#000000" stroke-width="6" stroke-linecap="round"/><path d="M131.83777,119.80231c0,0 4.22196,-0.13374 7.45121,8.27733c2.04199,4.89708 2.68937,18.01058 2.86155,20.05213c0.30436,3.60887 -5.94228,6.21813 -5.94228,6.21813" fill="none" stroke="#000000" stroke-width="6" stroke-linecap="round"/><path d="M103.93958,132.22909c-0.57704,-1.89178 -0.40584,-4.81895 -0.40584,-6.39135c0,-0.63267 1.1038,-5.94307 4.524,-6.86281c2.5605,-0.68855 8.62574,-0.4333 12.87398,0.75646c2.4026,0.67288 4.34844,6.37122 3.53532,10.8779c-0.63753,3.53352 -2.46236,4.59375 -4.28385,4.59375c-2.1202,0 -7.27273,0.10722 -10.81298,-0.13426c-2.27048,-0.15488 -4.98396,-1.37535 -5.43062,-2.8397z" fill="none" stroke="#000000" stroke-width="6" stroke-linecap="butt"/><path d="M95.64812,174.78869c-0.37959,-5.6952 -1.65202,-29.6093 2.28136,-47.75995c1.01526,-4.68495 3.83009,-18.38649 12.82256,-20.38236c5.43133,-1.20548 15.85842,1.08626 20.00775,12.05479c3.4118,9.0189 4.12402,21.33936 4.81345,31.98429c0.69612,10.74821 1.35221,19.79493 1.22779,23.41519c-0.03521,1.02462 -0.51532,1.5909 -1.32192,1.59792c-1.7363,0.0151 -8.85489,0.07426 -11.88713,0.09942c-0.84938,0.00705 -1.47436,-0.62368 -1.6373,-1.65031c-0.45136,-2.84384 -0.50812,-8.74165 -0.49466,-12.41688c0.00289,-0.78988 -0.3529,-1.53741 -0.76772,-2.13975c-0.57655,-0.83718 -1.69336,-1.38217 -2.78419,-1.363c-2.02949,0.03567 -5.51141,0.09724 -6.85416,0.15759c-1.29677,0.05828 -2.66984,1.99102 -2.68721,3.16897c-0.0413,2.80163 -0.20931,14.19744 -0.20931,14.19744c0,0 -9.92966,0.27045 -10.74478,0.27753c-0.92526,0.00805 -1.71027,-0.42723 -1.7645,-1.24088z" fill="none" stroke="#000000" stroke-width="6" stroke-linecap="butt"/><path d="M95.64812,174.78869c-0.37959,-5.6952 -1.65202,-29.6093 2.28136,-47.75995c1.01526,-4.68495 3.83009,-18.38649 12.82256,-20.38236c5.43133,-1.20548 15.85842,1.08626 20.00775,12.05479c3.4118,9.0189 4.12402,21.33936 4.81345,31.98429c0.69612,10.74821 1.35221,19.79493 1.22779,23.41519c-0.03521,1.02462 -0.51532,1.5909 -1.32192,1.59792c-1.7363,0.0151 -8.85489,0.07426 -11.88713,0.09942c-0.84938,0.00705 -1.47436,-0.62368 -1.6373,-1.65031c-0.45136,-2.84384 -0.50812,-8.74165 -0.49466,-12.41688c0.00289,-0.78988 -0.35291,-1.53742 -0.76773,-2.13976c-0.57655,-0.83718 -1.69336,-1.38217 -2.78419,-1.36299c-2.02949,0.03567 -5.51141,0.09724 -6.85416,0.15759c-1.29678,0.05828 -2.66984,1.99102 -2.6872,3.16897c-0.04131,2.80163 -0.20932,14.19744 -0.20932,14.19744c0,0 -9.92966,0.27045 -10.74478,0.27753c-0.92526,0.00805 -1.71027,-0.42723 -1.7645,-1.24088z" fill="none" stroke="#ffffff" stroke-width="4" stroke-linecap="butt"/><path d="M103.93958,132.22909c-0.57705,-1.89179 -0.40584,-4.81895 -0.40584,-6.39135c0,-0.63267 1.1038,-5.94308 4.524,-6.86281c2.56049,-0.68855 8.62574,-0.43331 12.87398,0.75646c2.40261,0.67287 4.34844,6.37121 3.53532,10.87791c-0.63754,3.53352 -2.46236,4.59376 -4.28385,4.59376c-2.1202,0 -7.27273,0.10722 -10.81298,-0.13426c-2.27047,-0.15487 -4.98396,-1.37535 -5.43062,-2.8397z" fill="none" stroke="#ffffff" stroke-width="4" stroke-linecap="butt"/><path d="M131.83777,119.80231c0,0 4.22196,-0.13374 7.45121,8.27733c2.04199,4.89708 2.68937,18.01058 2.86155,20.05213c0.30436,3.60887 -5.94228,6.21813 -5.94228,6.21813" fill="none" stroke="#ffffff" stroke-width="4" stroke-linecap="round"/><path d="M145.68483,176.50738c0,0 9.9522,-61.41699 11.3055,-69.21837c0.26349,-1.51892 12.58071,68.50535 12.58071,68.50535" fill="none" stroke="#ffffff" stroke-width="4" stroke-linecap="round"/><path d="M169.55114,175.79435c0,0 11.26596,-70.02427 11.52944,-68.50535c1.3533,7.80138 9.72861,68.69274 9.72861,68.69274" data-paper-data="{&quot;index&quot;:null}" fill="none" stroke="#ffffff" stroke-width="4" stroke-linecap="round"/><path d="M216.39531,139.37912c0,15.77214 -2.40786,30.91831 -5.76602,34.87622c-0.55127,0.64972 -2.83527,0.98148 -3.38273,0.90493c-4.64483,-0.64949 -8.77805,-5.62412 -9.24826,-41.56307c-0.24021,-18.3597 3.52611,-27.4641 7.2274,-27.4641c7.11787,0 11.16961,14.88475 11.16961,33.24602z" fill="none" stroke="#ffffff" stroke-width="4" stroke-linecap="butt"/><path d="M246.88178,106.13308c0,0 0.99737,27.87016 0.85726,40.19944c-0.09355,8.23215 -1.31391,23.58609 -1.72387,28.93491c-0.11319,1.4768 -0.10107,-0.36556 -0.34892,-1.21483c-0.60477,-2.07234 -3.6454,-11.1017 -6.47517,-22.30774c-1.97219,-7.80996 -3.43648,-16.94751 -5.60761,-24.38724c-2.42405,-8.30638 -6.04693,-16.36862 -6.95746,-19.48869c-0.32612,-1.11748 -0.25086,1.02183 -0.26008,2.2164c-0.05154,6.67479 -0.50931,65.9564 -0.50931,65.9564" fill="none" stroke="#ffffff" stroke-width="4" stroke-linecap="round"/><path d="M283.67575,147.92054c0,0 -4.80284,-0.03887 -6.30957,-0.05346c-1.04425,-0.01011 -1.83393,0.58378 -1.81378,1.61966c0.0964,4.95522 -0.02323,19.66824 -4.63167,24.10502c-2.14199,2.0622 -10.07508,2.12381 -12.67826,-5.80721c-4.46657,-13.60814 -2.9492,-41.03932 0.29369,-52.12689c3.92583,-13.42256 13.83857,-7.6849 13.83857,-7.6849" fill="none" stroke="#ffffff" stroke-width="4" stroke-linecap="round"/><path d="M346.97938,106.73323c0,0 2.47749,68.1543 -11.82519,68.70577c-17.29295,-0.36167 -15.50751,-68.96858 -15.50751,-68.96858" fill="none" stroke="#ffffff" stroke-width="4" stroke-linecap="round"/><path d="M376.15179,109.88701c0,0 -15.9713,-12.49168 -20.17019,10.00838c-4.45351,21.64781 24.78105,19.07301 24.06541,39.5597c-0.94901,7.63465 -5.64951,18.01205 -17.44074,15.55035c-11.53255,-2.4077 -7.21682,-23.59374 -7.21682,-23.59374" fill="none" stroke="#ffffff" stroke-width="4" stroke-linecap="round"/><text transform="translate(89.09134,235.71237) scale(1.11454,1.51288)" font-size="40" xml:space="preserve" fill="#ffffff" fill-rule="nonzero" stroke="#000000" stroke-width="5" stroke-linecap="butt" stroke-linejoin="miter" stroke-miterlimit="10" stroke-dasharray="" stroke-dashoffset="0" font-family="Handwriting" font-weight="normal" text-anchor="start" style="mix-blend-mode: normal"><tspan x="0" dy="0">PLATFORMER</tspan></text><text transform="translate(89.09134,235.46241) scale(1.11454,1.49205)" font-size="40" xml:space="preserve" fill="#ffffff" fill-rule="nonzero" stroke="#000000" stroke-width="0" stroke-linecap="butt" stroke-linejoin="miter" stroke-miterlimit="10" stroke-dasharray="" stroke-dashoffset="0" font-family="Handwriting" font-weight="normal" text-anchor="start" style="mix-blend-mode: normal"><tspan x="0" dy="0">PLATFORMER</tspan></text></g></g></g></g></svg>