<svg version="1.1" xmlns="http://www.w3.org/2000/svg" xmlns:xlink="http://www.w3.org/1999/xlink" width="33.25" height="16.78268" viewBox="0,0,33.25,16.78268"><g transform="translate(-224.5625,-168.92565)"><g data-paper-data="{&quot;isPaintingLayer&quot;:true}" fill="#66e5ff" fill-rule="nonzero" stroke="none" stroke-width="0" stroke-linecap="butt" stroke-linejoin="miter" stroke-miterlimit="10" stroke-dasharray="" stroke-dashoffset="0" style="mix-blend-mode: normal"><path d="M241.9375,177.20833c8.76752,0 15.875,1.90279 15.875,4.25c0,2.34721 -7.10748,4.25 -15.875,4.25c-8.76752,0 -15.875,-1.90279 -15.875,-4.25c0,-2.34721 7.10748,-4.25 15.875,-4.25z" data-paper-data="{&quot;index&quot;:null}"/><path d="M228.4375,169.45833c2.14011,0 3.875,3.08426 3.875,6.88889c0,3.80463 -1.73489,6.88889 -3.875,6.88889c-2.14011,0 -3.875,-3.08426 -3.875,-6.88889c0,-3.80463 1.73489,-6.88889 3.875,-6.88889z"/><path d="M235.73742,177.34052c-1.84936,-4.05266 -1.41827,-7.78893 0.96286,-8.34518c2.38114,-0.55626 5.81062,2.27815 7.65999,6.33081c1.84936,4.05266 1.41827,7.78892 -0.96286,8.34517c-2.38114,0.55626 -5.81062,-2.27814 -7.65999,-6.3308z"/></g></g></svg>