<svg version="1.1" xmlns="http://www.w3.org/2000/svg" xmlns:xlink="http://www.w3.org/1999/xlink" width="33.25" height="24.59202" viewBox="0,0,33.25,24.59202"><g transform="translate(-224.5625,-168.92565)"><g data-paper-data="{&quot;isPaintingLayer&quot;:true}" fill="#66e5ff" fill-rule="nonzero" stroke="none" stroke-width="0" stroke-linecap="butt" stroke-linejoin="miter" stroke-miterlimit="10" stroke-dasharray="" stroke-dashoffset="0" style="mix-blend-mode: normal"><path d="M241.9375,177.20833c8.76752,0 15.875,1.90279 15.875,4.25c0,2.34721 -7.10748,4.25 -15.875,4.25c-8.76752,0 -15.875,-1.90279 -15.875,-4.25c0,-2.34721 7.10748,-4.25 15.875,-4.25z" data-paper-data="{&quot;index&quot;:null}"/><path d="M224.5625,176.34722c0,3.80463 1.73489,6.88889 3.875,6.88889c2.14011,0 3.875,-3.08426 3.875,-6.88889c0,-3.80463 -1.73489,-6.88889 -3.875,-6.88889c-2.14011,0 -3.875,3.08426 -3.875,6.88889z"/><path d="M231.43123,192.19105c1.14459,2.16082 4.86737,1.62571 8.31507,-1.19521c3.4477,-2.82092 5.31475,-6.8594 4.17016,-9.02022c-1.14459,-2.16082 -4.86738,-1.6257 -8.31508,1.19521c-3.4477,2.82092 -5.31474,6.8594 -4.17015,9.02022z"/><path d="M243.39741,183.67132c2.38113,-0.55625 2.81222,-4.29251 0.96286,-8.34517c-1.84937,-4.05266 -5.27885,-6.88707 -7.65999,-6.33081c-2.38113,0.55625 -2.81222,4.29252 -0.96286,8.34518c1.84937,4.05266 5.27885,6.88706 7.65999,6.3308z"/></g></g></svg>