<svg version="1.1" xmlns="http://www.w3.org/2000/svg" xmlns:xlink="http://www.w3.org/1999/xlink" width="33.25" height="24.05935" viewBox="0,0,33.25,24.05935"><g transform="translate(-224.5625,-169.45833)"><g data-paper-data="{&quot;isPaintingLayer&quot;:true}" fill="#66e5ff" fill-rule="nonzero" stroke="none" stroke-width="0" stroke-linecap="butt" stroke-linejoin="miter" stroke-miterlimit="10" stroke-dasharray="" stroke-dashoffset="0" style="mix-blend-mode: normal"><path d="M241.9375,177.20833c8.76752,0 15.875,1.90279 15.875,4.25c0,2.34721 -7.10748,4.25 -15.875,4.25c-8.76752,0 -15.875,-1.90279 -15.875,-4.25c0,-2.34721 7.10748,-4.25 15.875,-4.25z" data-paper-data="{&quot;index&quot;:null}"/><path d="M228.4375,169.45833c2.14011,0 3.875,3.08426 3.875,6.88889c0,3.80463 -1.73489,6.88889 -3.875,6.88889c-2.14011,0 -3.875,-3.08426 -3.875,-6.88889c0,-3.80463 1.73489,-6.88889 3.875,-6.88889z"/><path d="M235.60138,183.17083c3.4477,-2.82091 7.17049,-3.35603 8.31508,-1.19521c1.14459,2.16082 -0.72246,6.1993 -4.17016,9.02022c-3.4477,2.82092 -7.17048,3.35603 -8.31507,1.19521c-1.14459,-2.16082 0.72245,-6.1993 4.17015,-9.02022z"/></g></g></svg>