<svg version="1.1" xmlns="http://www.w3.org/2000/svg" xmlns:xlink="http://www.w3.org/1999/xlink" width="44.98184" height="38.22424" viewBox="0,0,44.98184,38.22424"><g transform="translate(-217.50908,-160.88787)"><g data-paper-data="{&quot;isPaintingLayer&quot;:true}" fill="#393b47" fill-rule="nonzero" stroke="none" stroke-width="0" stroke-linecap="butt" stroke-linejoin="miter" stroke-miterlimit="10" stroke-dasharray="" stroke-dashoffset="0" style="mix-blend-mode: normal"><path d="M245.59555,160.88788h9.65275v3.41298h-9.65275z" data-paper-data="{&quot;index&quot;:null}"/><path d="M245.51188,176.1398v-12.15607h11.53993v12.15607z" data-paper-data="{&quot;index&quot;:null}"/><path d="M227.6687,188.9092v-13.15696h25.32v13.15696z" data-paper-data="{&quot;index&quot;:null}"/><path d="M227.71429,199.0819v-10.69067h3.376v10.69067z" data-paper-data="{&quot;index&quot;:null}"/><path d="M249.62058,198.55519v-10.69067h3.376v10.69067z" data-paper-data="{&quot;index&quot;:null}"/><path d="M256.6767,172.75136v-4.24h5.81422v4.24z" data-paper-data="{&quot;index&quot;:null}"/><path d="M225.002,180.82641v-5.02795h2.77404v5.02795z"/><path d="M222.57471,178.57251v-5.02795h2.77404v5.02795z"/><path d="M219.93636,176.39398v-5.02795h2.77404v5.02795z"/><path d="M217.50908,174.14007v-5.02795h2.77404v5.02795z"/><path d="M230.63318,199.11212v-2.57143h2.71429v2.57143z"/><path d="M249.63318,199.11212v-2.57143h5.42857v2.57143z"/><path d="M252.69623,178.08552v-2.71429h2.14286v2.71429z"/></g></g></svg>