<svg version="1.1" xmlns="http://www.w3.org/2000/svg" xmlns:xlink="http://www.w3.org/1999/xlink" width="951.33333" height="102.83334" viewBox="0,0,951.33333,102.83334"><g transform="translate(235.6666,-97.5)"><g data-paper-data="{&quot;isPaintingLayer&quot;:true}" fill-rule="nonzero" stroke="none" stroke-width="0" stroke-linecap="butt" stroke-linejoin="miter" stroke-miterlimit="10" stroke-dasharray="" stroke-dashoffset="0" style="mix-blend-mode: normal"><path d="M-235.66659,199.98651v-41.61889h951.33333v41.61889z" fill="#4a4d5c"/><path d="M433.00005,102.70236v-5.20236h0.5v5.20236z" fill="#60c3fa"/><path d="M88.83335,199.98651v-41.61889h5.66666v41.61889z" fill="#78434a"/><path d="M94.5,199.63969v-40.92524h2v40.92524z" fill="#434553"/><path d="M132.83335,199.98651v-41.61889h5.66666v41.61889z" fill="#78434a"/><path d="M138.5,199.63969v-40.92524h2v40.92524z" fill="#434553"/><path d="M175.16669,199.98651v-41.61889h5.66666v41.61889z" fill="#78434a"/><path d="M180.83336,199.63969v-40.92524h2v40.92524z" fill="#434553"/><path d="M217.16669,199.98651v-41.61889h5.66666v41.61889z" fill="#78434a"/><path d="M222.83336,199.63969v-40.92524h2v40.92524z" fill="#434553"/><path d="M264.1667,199.98651v-41.61889h5.66666v41.61889z" fill="#78434a"/><path d="M269.83335,199.98651v-40.92524h2v40.92524z" fill="#434553"/><path d="M311.50001,199.98651v-41.61889h5.66667v41.61889z" fill="#78434a"/><path d="M317.1667,199.63969v-40.92524h2v40.92524z" fill="#434553"/><path d="M38.5,200.33334v-41.61889h5.66667v41.61889z" fill="#78434a"/><path d="M44.16668,199.98651v-40.92524h2v40.92524z" fill="#434553"/><path d="M-16.5,199.98651v-41.61889h5.66667v41.61889z" fill="#78434a"/><path d="M-10.83333,199.63969v-40.92524h2v40.92524z" fill="#434553"/><path d="M-68.83332,199.98651v-41.61889h5.66667v41.61889z" fill="#78434a"/><path d="M-63.16666,199.63969v-40.92524h2v40.92524z" fill="#434553"/><path d="M-121.5,200.33333v-41.61889h5.66666v41.61889z" fill="#78434a"/><path d="M-115.83333,199.98651v-40.92524h2v40.92524z" fill="#434553"/><path d="M362.83337,199.98651v-41.61889h5.66666v41.61889z" fill="#78434a"/><path d="M368.50001,199.63969v-40.92524h2v40.92524z" fill="#434553"/><path d="M413.83337,199.98651v-41.61889h5.66666v41.61889z" fill="#78434a"/><path d="M419.50001,199.63969v-40.92524h2v40.92524z" fill="#434553"/><path d="M469.83337,200.33333v-41.61889h5.66666v41.61889z" fill="#78434a"/><path d="M475.50001,199.98651v-40.92524h2v40.92524z" fill="#434553"/><path d="M525.16667,199.98651v-41.61889h5.66666v41.61889z" fill="#78434a"/><path d="M530.83336,199.63968v-40.92524h2v40.92524z" fill="#434553"/><path d="M578.16667,199.98651v-41.61889h5.66666v41.61889z" fill="#78434a"/><path d="M583.83336,199.63968v-40.92524h2v40.92524z" fill="#434553"/><path d="M-120,169.85617v-4.76883h720.5v4.76883z" fill="#a995c4"/><path d="M-121,193.22344v-5.7226h720.5v5.7226z" fill="#a995c4"/></g></g></svg>