<svg version="1.1" xmlns="http://www.w3.org/2000/svg" xmlns:xlink="http://www.w3.org/1999/xlink" width="19.21359" height="19.4215" viewBox="0,0,19.21359,19.4215"><g transform="translate(-230.3932,-170.28925)"><g data-paper-data="{&quot;isPaintingLayer&quot;:true}" fill-rule="nonzero" stroke="none" stroke-width="0" stroke-linecap="butt" stroke-linejoin="miter" stroke-miterlimit="10" stroke-dasharray="" stroke-dashoffset="0" style="mix-blend-mode: normal"><path d="M234.32711,187.25212v-14.65864h10.00795v14.65864z" fill="#efefed"/><path d="M230.3932,180.63328v-2.96941h4.8358v2.96941z" fill="#ebf0ef"/><path d="M243.72276,187.10323v-14.4762h4.1043v14.4762z" fill="#eaeae7"/><path d="M247.79074,184.04616v-7.91246h0.83538v7.91246z" fill="#eaeae7"/><path d="M248.62612,181.2588v-2.78736h0.98067v2.78736z" fill="#0e0e0e"/><g fill="#f7f7f4"><path d="M244.994,187.37298v-5.93434h2.83306v5.93434z"/><path d="M246.88271,189.71075v-2.33778h0.94435v2.33778z"/></g><g fill="#f7f7f4"><path d="M247.82705,172.62702v5.93435h-2.83306v-5.93435z" data-paper-data="{&quot;index&quot;:null}"/><path d="M247.82705,170.28925v2.33777h-0.94436v-2.33777z" data-paper-data="{&quot;index&quot;:null}"/></g><path d="M234.13865,176.63643v-1.29677h3.67273v1.29677z" fill="#fcd29b"/><path d="M237.77677,179.30818v-2.60422h3.67273v2.60422z" fill="#fcd29b"/><path d="M234.25235,184.48112v-1.29678h3.67273v1.29678z" fill="#fcd29b"/></g></g></svg>