<svg version="1.1" xmlns="http://www.w3.org/2000/svg" xmlns:xlink="http://www.w3.org/1999/xlink" width="102.57029" height="24.10441" viewBox="0,0,102.57029,24.10441"><g transform="translate(-188.6762,-168.29853)"><g data-paper-data="{&quot;isPaintingLayer&quot;:true}" fill-rule="nonzero" stroke="none" stroke-width="0" stroke-linecap="butt" stroke-linejoin="miter" stroke-miterlimit="10" stroke-dasharray="" stroke-dashoffset="0" style="mix-blend-mode: normal"><path d="M188.77238,191.66145v-23.32866h92.54496v23.32866z" fill="#78434a"/><path d="M188.75352,191.52682v-23.22827h5.79231v23.22827z" fill="#8f5f65"/><path d="M281.29152,191.70147v-23.40292h9.95497v23.40292z" fill="#4783c0"/><path d="M275.2046,191.52682v-23.22827h6.11271v23.22827z" fill="#8f5f65"/><path d="M194.51692,182.09577v-5.41411h19.56065v5.41411z" fill="#6b3238"/><path d="M213.90293,177.03096v-5.41411h16.94092v5.41411z" fill="#6b3238"/><path d="M214.07757,187.16058v-5.23946h17.11557v5.23946z" fill="#6b3238"/><path d="M245.86363,173.71264v-5.41411h29.16633v5.41411z" fill="#6b3238"/><path d="M263.3285,178.2535v-5.76341h11.87611v5.76341z" fill="#6b3238"/><path d="M254.42142,186.11269v-5.58876h5.23946v5.58876z" fill="#6b3238"/><path d="M240.44952,186.1127h13.97189v5.4141h-13.97189z" fill="#6b3238"/><path d="M188.6762,192.40294v-1.04789h92.8253v1.04789z" fill="#573136"/></g></g></svg>