<svg version="1.1" xmlns="http://www.w3.org/2000/svg" xmlns:xlink="http://www.w3.org/1999/xlink" width="500.30554" height="44.41664" viewBox="0,0,500.30554,44.41664"><g transform="translate(86.55555,-160.58336)"><g data-paper-data="{&quot;isPaintingLayer&quot;:true}" fill-rule="nonzero" stroke="none" stroke-width="0" stroke-linecap="butt" stroke-linejoin="miter" stroke-miterlimit="10" stroke-dasharray="" stroke-dashoffset="0" style="mix-blend-mode: normal"><path d="M366.08333,195.08333v-34h47.66666v34z" fill="#2d2941"/><path d="M365.69444,192.58334v-28h7v28z" fill="#f6f497"/><path d="M220.12501,195.37502v-34.25h145.75v34.25z" fill="#60c9f6"/><path d="M220.00001,192.00002v-28h146v28z" fill="#3895f4"/><path d="M225.25001,187.50002v-18.5h135.5v18.5z" fill="#a1b4f6"/><path d="M246.12501,187.75002v-10.25h6v10.25z" fill="#808fc5"/><path d="M282.12501,187.50002v-18.5h3.25v18.5z" fill="#808fc5"/><path d="M324.37501,187.50002v-18.5h3.25v18.5z" fill="#808fc5"/><path d="M335.12501,186.75002v-17.5h4v17.5z" fill="#1d1d1d"/><path d="M338.87501,186.75002v-17.5h11.5v17.5z" fill="#808fc5"/><path d="M338.62501,181.50002v-7.75h11.25v7.75z" fill="#1d1d1d"/><path d="M349.93057,181.75002v-8h10.94444v8z" fill="#808fc5"/><path d="M355.37501,181.75002v-7.94444h1.5v7.94444z" fill="#596388"/><path d="M219.94444,195.33335v-3.5h14v3.5z" fill="#3895f4"/><path d="M219.94444,164.08335v-3h13.75v3z" fill="#3994ef"/><path d="M350.94444,167.33335v-6.25h15v6.25z" fill="#3895f4"/><path d="M350.94444,195.58335v-3.75h15v3.75z" fill="#3895f4"/><path d="M274.19444,195.83335v-3.75h31.5v3.75z" fill="#f9ffff"/><path d="M274.44445,164.33336v-3.75h31.5v3.75z" fill="#f9ffff"/><path d="M365.94444,193.33333v-28.75h3.25v28.75z" fill="#8f9567"/><path d="M212.69446,192.58334v-28h7v28z" fill="#f6f497"/><path d="M67.12501,195.37502v-34.25h145.75v34.25z" fill="#60c9f6"/><path d="M67.00001,192.00002v-28h146v28z" fill="#3895f4"/><path d="M72.25001,187.50002v-18.5h135.5v18.5z" fill="#a1b4f6"/><path d="M93.12501,187.75002v-10.25h6v10.25z" fill="#808fc5"/><path d="M129.125,187.50002v-18.5h3.25v18.5z" fill="#808fc5"/><path d="M171.37501,187.50002v-18.5h3.25v18.5z" fill="#808fc5"/><path d="M182.12501,186.75002v-17.5h4v17.5z" fill="#1d1d1d"/><path d="M185.87501,186.75002v-17.5h11.5v17.5z" fill="#808fc5"/><path d="M185.62501,181.50002v-7.75h11.25v7.75z" fill="#1d1d1d"/><path d="M196.93057,181.75002v-8h10.94444v8z" fill="#808fc5"/><path d="M202.37501,181.75002v-7.94444h1.5v7.94444z" fill="#596388"/><path d="M66.94446,195.33335v-3.5h14v3.5z" fill="#3895f4"/><path d="M66.94446,164.08335v-3h13.75v3z" fill="#3994ef"/><path d="M197.94446,167.33335v-6.25h15v6.25z" fill="#3895f4"/><path d="M197.94446,195.58335v-3.75h15v3.75z" fill="#3895f4"/><path d="M121.19445,195.83335v-3.75h31.5v3.75z" fill="#f9ffff"/><path d="M121.44446,164.33336v-3.75h31.5v3.75z" fill="#f9ffff"/><path d="M212.94446,193.33333v-28.75h3.25v28.75z" fill="#8f9567"/><path d="M59.19446,192.58334v-28h7v28z" fill="#f6f497"/><path d="M-86.37499,195.37502v-34.25h145.75v34.25z" fill="#60c9f6"/><path d="M-86.49999,192.00002v-28h146v28z" fill="#3895f4"/><path d="M-81.24999,187.50002v-18.5h135.5v18.5z" fill="#a1b4f6"/><path d="M-60.37499,187.75002v-10.25h6v10.25z" fill="#808fc5"/><path d="M-24.375,187.50002v-18.5h3.25v18.5z" fill="#808fc5"/><path d="M17.87501,187.50002v-18.5h3.25v18.5z" fill="#808fc5"/><path d="M28.625,186.75002v-17.5h4v17.5z" fill="#1d1d1d"/><path d="M32.375,186.75002v-17.5h11.5v17.5z" fill="#808fc5"/><path d="M32.125,181.50002v-7.75h11.25v7.75z" fill="#1d1d1d"/><path d="M43.43057,181.75002v-8h10.94444v8z" fill="#808fc5"/><path d="M48.87501,181.75002v-7.94444h1.5v7.94444z" fill="#596388"/><path d="M-86.55555,195.33335v-3.5h14v3.5z" fill="#3895f4"/><path d="M-86.55555,164.08335v-3h13.75v3z" fill="#3994ef"/><path d="M44.44446,167.33335v-6.25h15v6.25z" fill="#3895f4"/><path d="M44.44446,195.58335v-3.75h15v3.75z" fill="#3895f4"/><path d="M-32.30555,195.83335v-3.75h31.5v3.75z" fill="#f9ffff"/><path d="M-32.05554,164.33336v-3.75h31.5v3.75z" fill="#f9ffff"/><path d="M59.44446,193.33333v-28.75h3.25v28.75z" fill="#8f9567"/><path d="M78.75,205v-10h29v10z" fill="#202020"/><path d="M89.25,198.5v-8h8v8z" fill="#e6e6e6"/></g></g></svg>