<svg version="1.1" xmlns="http://www.w3.org/2000/svg" xmlns:xlink="http://www.w3.org/1999/xlink" width="500.13889" height="44.41664" viewBox="0,0,500.13889,44.41664"><g transform="translate(124.05555,-160.58336)"><g data-paper-data="{&quot;isPaintingLayer&quot;:true}" fill-rule="nonzero" stroke="none" stroke-width="0" stroke-linecap="butt" stroke-linejoin="miter" stroke-miterlimit="10" stroke-dasharray="" stroke-dashoffset="0" style="mix-blend-mode: normal"><path d="M328.41667,195.08333v-34h47.66667v34z" fill="#2d2941"/><path d="M328.19444,192.58334v-28h7v28z" fill="#f6f497"/><path d="M182.62501,195.37502v-34.25h145.75v34.25z" fill="#60c9f6"/><path d="M182.50001,192.00002v-28h146v28z" fill="#3895f4"/><path d="M187.75001,187.50002v-18.5h135.5v18.5z" fill="#a1b4f6"/><path d="M208.62501,187.75002v-10.25h6v10.25z" fill="#808fc5"/><path d="M244.62501,187.50002v-18.5h3.25v18.5z" fill="#808fc5"/><path d="M286.87501,187.50002v-18.5h3.25v18.5z" fill="#808fc5"/><path d="M297.62501,186.75002v-17.5h4v17.5z" fill="#1d1d1d"/><path d="M301.37501,186.75002v-17.5h11.5v17.5z" fill="#808fc5"/><path d="M301.12501,181.50002v-7.75h11.25v7.75z" fill="#1d1d1d"/><path d="M312.43057,181.75002v-8h10.94444v8z" fill="#808fc5"/><path d="M317.87501,181.75002v-7.94444h1.5v7.94444z" fill="#596388"/><path d="M182.44444,195.33335v-3.5h14v3.5z" fill="#3895f4"/><path d="M182.44444,164.08335v-3h13.75v3z" fill="#3994ef"/><path d="M313.44444,167.33335v-6.25h15v6.25z" fill="#3895f4"/><path d="M313.44444,195.58335v-3.75h15v3.75z" fill="#3895f4"/><path d="M236.69444,195.83335v-3.75h31.5v3.75z" fill="#f9ffff"/><path d="M236.94445,164.33336v-3.75h31.5v3.75z" fill="#f9ffff"/><path d="M328.44444,193.33333v-28.75h3.25v28.75z" fill="#8f9567"/><path d="M175.19446,192.58334v-28h7v28z" fill="#f6f497"/><path d="M29.62501,195.37502v-34.25h145.75v34.25z" fill="#60c9f6"/><path d="M29.50001,192.00002v-28h146v28z" fill="#3895f4"/><path d="M34.75001,187.50002v-18.5h135.5v18.5z" fill="#a1b4f6"/><path d="M55.62501,187.75002v-10.25h6v10.25z" fill="#808fc5"/><path d="M91.625,187.50002v-18.5h3.25v18.5z" fill="#808fc5"/><path d="M133.87501,187.50002v-18.5h3.25v18.5z" fill="#808fc5"/><path d="M144.62501,186.75002v-17.5h4v17.5z" fill="#1d1d1d"/><path d="M148.37501,186.75002v-17.5h11.5v17.5z" fill="#808fc5"/><path d="M148.12501,181.50002v-7.75h11.25v7.75z" fill="#1d1d1d"/><path d="M159.43057,181.75002v-8h10.94444v8z" fill="#808fc5"/><path d="M164.87501,181.75002v-7.94444h1.5v7.94444z" fill="#596388"/><path d="M29.44446,195.33335v-3.5h14v3.5z" fill="#3895f4"/><path d="M29.44446,164.08335v-3h13.75v3z" fill="#3994ef"/><path d="M160.44446,167.33335v-6.25h15v6.25z" fill="#3895f4"/><path d="M160.44446,195.58335v-3.75h15v3.75z" fill="#3895f4"/><path d="M83.69445,195.83335v-3.75h31.5v3.75z" fill="#f9ffff"/><path d="M83.94446,164.33336v-3.75h31.5v3.75z" fill="#f9ffff"/><path d="M175.44446,193.33333v-28.75h3.25v28.75z" fill="#8f9567"/><path d="M21.69446,192.58334v-28h7v28z" fill="#f6f497"/><path d="M-123.87499,195.37502v-34.25h145.75v34.25z" fill="#60c9f6"/><path d="M-123.99999,192.00002v-28h146v28z" fill="#3895f4"/><path d="M-118.74999,187.50002v-18.5h135.5v18.5z" fill="#a1b4f6"/><path d="M-97.87499,187.75002v-10.25h6v10.25z" fill="#808fc5"/><path d="M-61.875,187.50002v-18.5h3.25v18.5z" fill="#808fc5"/><path d="M-19.62499,187.50002v-18.5h3.25v18.5z" fill="#808fc5"/><path d="M-8.875,186.75002v-17.5h4v17.5z" fill="#1d1d1d"/><path d="M-5.125,186.75002v-17.5h11.5v17.5z" fill="#808fc5"/><path d="M-5.375,181.50002v-7.75h11.25v7.75z" fill="#1d1d1d"/><path d="M5.93057,181.75002v-8h10.94444v8z" fill="#808fc5"/><path d="M11.37501,181.75002v-7.94444h1.5v7.94444z" fill="#596388"/><path d="M-124.05555,195.33335v-3.5h14v3.5z" fill="#3895f4"/><path d="M-124.05555,164.08335v-3h13.75v3z" fill="#3994ef"/><path d="M6.94446,167.33335v-6.25h15v6.25z" fill="#3895f4"/><path d="M6.94446,195.58335v-3.75h15v3.75z" fill="#3895f4"/><path d="M-69.80555,195.83335v-3.75h31.5v3.75z" fill="#f9ffff"/><path d="M-69.55554,164.33336v-3.75h31.5v3.75z" fill="#f9ffff"/><path d="M21.94446,193.33333v-28.75h3.25v28.75z" fill="#8f9567"/><path d="M78.75,205v-10h29v10z" fill="#202020"/><path d="M89.25,198.5v-8h8v8z" fill="#e6e6e6"/></g></g></svg>