<svg version="1.1" xmlns="http://www.w3.org/2000/svg" xmlns:xlink="http://www.w3.org/1999/xlink" width="45" height="29" viewBox="0,0,45,29"><defs><radialGradient cx="101" cy="200.25" r="14.25" gradientUnits="userSpaceOnUse" id="color-1"><stop offset="0" stop-color="#ff0000"/><stop offset="1" stop-color="#ff0000" stop-opacity="0"/></radialGradient><radialGradient cx="84.5" cy="199.75" r="14.25" gradientUnits="userSpaceOnUse" id="color-2"><stop offset="0" stop-color="#ff0000"/><stop offset="1" stop-color="#ff0000" stop-opacity="0"/></radialGradient></defs><g transform="translate(-70.25,-185.5)"><g data-paper-data="{&quot;isPaintingLayer&quot;:true}" fill-rule="nonzero" stroke="none" stroke-width="0" stroke-linecap="butt" stroke-linejoin="miter" stroke-miterlimit="10" stroke-dasharray="" stroke-dashoffset="0" style="mix-blend-mode: normal"><path d="M86.75,200.25c0,-7.87006 6.37994,-14.25 14.25,-14.25c7.87006,0 14.25,6.37994 14.25,14.25c0,7.87006 -6.37994,14.25 -14.25,14.25c-7.87006,0 -14.25,-6.37994 -14.25,-14.25z" fill="url(#color-1)"/><path d="M70.25,199.75c0,-7.87006 6.37994,-14.25 14.25,-14.25c7.87006,0 14.25,6.37994 14.25,14.25c0,7.87006 -6.37994,14.25 -14.25,14.25c-7.87006,0 -14.25,-6.37994 -14.25,-14.25z" fill="url(#color-2)"/><path d="M78.75,205v-10h29v10z" fill="#202020"/><path d="M89.25,198.5v-8h8v8z" fill="#e6e6e6"/></g></g></svg>