<svg version="1.1" xmlns="http://www.w3.org/2000/svg" xmlns:xlink="http://www.w3.org/1999/xlink" width="499.97221" height="44.41664" viewBox="0,0,499.97221,44.41664"><g transform="translate(161.55555,-160.58336)"><g data-paper-data="{&quot;isPaintingLayer&quot;:true}" fill-rule="nonzero" stroke="none" stroke-width="0" stroke-linecap="butt" stroke-linejoin="miter" stroke-miterlimit="10" stroke-dasharray="" stroke-dashoffset="0" style="mix-blend-mode: normal"><path d="M290.75,195.08333v-34h47.66666v34z" fill="#2d2941"/><path d="M290.69444,192.58334v-28h7v28z" fill="#f6f497"/><path d="M145.125,195.37502v-34.25h145.75v34.25z" fill="#60c9f6"/><path d="M145,192.00002v-28h146v28z" fill="#3895f4"/><path d="M150.25,187.50002v-18.5h135.5v18.5z" fill="#a1b4f6"/><path d="M171.12501,187.75002v-10.25h6v10.25z" fill="#808fc5"/><path d="M207.12501,187.50002v-18.5h3.25v18.5z" fill="#808fc5"/><path d="M249.37501,187.50002v-18.5h3.25v18.5z" fill="#808fc5"/><path d="M260.12501,186.75002v-17.5h4v17.5z" fill="#1d1d1d"/><path d="M263.87501,186.75002v-17.5h11.5v17.5z" fill="#808fc5"/><path d="M263.62501,181.50002v-7.75h11.25v7.75z" fill="#1d1d1d"/><path d="M274.93057,181.75002v-8h10.94444v8z" fill="#808fc5"/><path d="M280.37501,181.75002v-7.94444h1.5v7.94444z" fill="#596388"/><path d="M144.94444,195.33335v-3.5h14v3.5z" fill="#3895f4"/><path d="M144.94444,164.08335v-3h13.75v3z" fill="#3994ef"/><path d="M275.94444,167.33335v-6.25h15v6.25z" fill="#3895f4"/><path d="M275.94444,195.58335v-3.75h15v3.75z" fill="#3895f4"/><path d="M199.19444,195.83335v-3.75h31.5v3.75z" fill="#f9ffff"/><path d="M199.44445,164.33336v-3.75h31.5v3.75z" fill="#f9ffff"/><path d="M290.94444,193.33333v-28.75h3.25v28.75z" fill="#8f9567"/><path d="M137.69446,192.58334v-28h7v28z" fill="#f6f497"/><path d="M-7.87499,195.37502v-34.25h145.75v34.25z" fill="#60c9f6"/><path d="M-7.99999,192.00002v-28h146v28z" fill="#3895f4"/><path d="M-2.74999,187.50002v-18.5h135.5v18.5z" fill="#a1b4f6"/><path d="M18.12501,187.75002v-10.25h6v10.25z" fill="#808fc5"/><path d="M54.125,187.50002v-18.5h3.25v18.5z" fill="#808fc5"/><path d="M96.37501,187.50002v-18.5h3.25v18.5z" fill="#808fc5"/><path d="M107.12501,186.75002v-17.5h4v17.5z" fill="#1d1d1d"/><path d="M110.87501,186.75002v-17.5h11.5v17.5z" fill="#808fc5"/><path d="M110.62501,181.50002v-7.75h11.25v7.75z" fill="#1d1d1d"/><path d="M121.93057,181.75002v-8h10.94444v8z" fill="#808fc5"/><path d="M127.37501,181.75002v-7.94444h1.5v7.94444z" fill="#596388"/><path d="M-8.05554,195.33335v-3.5h14v3.5z" fill="#3895f4"/><path d="M-8.05554,164.08335v-3h13.75v3z" fill="#3994ef"/><path d="M122.94446,167.33335v-6.25h15v6.25z" fill="#3895f4"/><path d="M122.94446,195.58335v-3.75h15v3.75z" fill="#3895f4"/><path d="M46.19445,195.83335v-3.75h31.5v3.75z" fill="#f9ffff"/><path d="M46.44446,164.33336v-3.75h31.5v3.75z" fill="#f9ffff"/><path d="M137.94446,193.33333v-28.75h3.25v28.75z" fill="#8f9567"/><path d="M-15.80554,192.58334v-28h7v28z" fill="#f6f497"/><path d="M-161.37499,195.37502v-34.25h145.75v34.25z" fill="#60c9f6"/><path d="M-161.49999,192.00002v-28h146v28z" fill="#3895f4"/><path d="M-156.24999,187.50002v-18.5h135.5v18.5z" fill="#a1b4f6"/><path d="M-135.37499,187.75002v-10.25h6v10.25z" fill="#808fc5"/><path d="M-99.375,187.50002v-18.5h3.25v18.5z" fill="#808fc5"/><path d="M-57.12499,187.50002v-18.5h3.25v18.5z" fill="#808fc5"/><path d="M-46.375,186.75002v-17.5h4v17.5z" fill="#1d1d1d"/><path d="M-42.625,186.75002v-17.5h11.5v17.5z" fill="#808fc5"/><path d="M-42.875,181.50002v-7.75h11.25v7.75z" fill="#1d1d1d"/><path d="M-31.56943,181.75002v-8h10.94444v8z" fill="#808fc5"/><path d="M-26.12499,181.75002v-7.94444h1.5v7.94444z" fill="#596388"/><path d="M-161.55555,195.33335v-3.5h14v3.5z" fill="#3895f4"/><path d="M-161.55555,164.08335v-3h13.75v3z" fill="#3994ef"/><path d="M-30.55554,167.33335v-6.25h15v6.25z" fill="#3895f4"/><path d="M-30.55554,195.58335v-3.75h15v3.75z" fill="#3895f4"/><path d="M-107.30555,195.83335v-3.75h31.5v3.75z" fill="#f9ffff"/><path d="M-107.05554,164.33336v-3.75h31.5v3.75z" fill="#f9ffff"/><path d="M-15.55554,193.33333v-28.75h3.25v28.75z" fill="#8f9567"/><path d="M78.75,205v-10h29v10z" fill="#202020"/><path d="M89.25,198.5v-8h8v8z" fill="#e6e6e6"/></g></g></svg>