<svg version="1.1" xmlns="http://www.w3.org/2000/svg" xmlns:xlink="http://www.w3.org/1999/xlink" width="20.49312" height="19.57106" viewBox="0,0,20.49312,19.57106"><g transform="translate(-229.75344,-170.21447)"><g data-paper-data="{&quot;isPaintingLayer&quot;:true}" fill-rule="nonzero" stroke-width="0" stroke-linecap="butt" stroke-linejoin="miter" stroke-miterlimit="10" stroke-dasharray="" stroke-dashoffset="0" style="mix-blend-mode: normal"><path d="M230.46043,186.9722v-14.37455h19.78613v14.37455z" fill="#667e54" stroke="#000000"/><path d="M233.68643,189.78553v-19.57106h13.33413v19.57106z" fill="#667e54" stroke="#000000"/><path d="M231.6433,186.56229v-13.12459h17.4204v13.12459z" fill="#f6e454" stroke="none"/><path d="M236.50919,178.22571v-2.95716h7.68864v2.95716z" fill="#f55353" stroke="none"/><path d="M236.50919,184.73147v-9.46294h2.76002v9.46294z" fill="#f55353" stroke="none"/><path d="M236.70633,184.73147v-2.76002h7.4915v2.76002z" fill="#f55353" stroke="none"/><path d="M229.75344,186.9722v-14.37455h19.78613v14.37455z" fill="#f6e454" stroke="#000000"/><path d="M232.97944,189.78553v-19.57106h13.33413v19.57106z" fill="#f6e454" stroke="#000000"/><path d="M230.9363,186.56229v-13.12459h17.4204v13.12459z" fill="#f6e454" stroke="none"/><path d="M235.8022,178.22571v-2.95716h7.68864v2.95716z" fill="#f55353" stroke="none"/><path d="M235.8022,184.73147v-9.46294h2.76002v9.46294z" fill="#f55353" stroke="none"/><path d="M235.99934,184.73147v-2.76002h7.4915v2.76002z" fill="#f55353" stroke="none"/></g></g></svg>