<svg version="1.1" xmlns="http://www.w3.org/2000/svg" xmlns:xlink="http://www.w3.org/1999/xlink" width="495.74306" height="192.17646" viewBox="0,0,495.74306,192.17646"><g transform="translate(5.68121,-143.58033)"><g data-paper-data="{&quot;isPaintingLayer&quot;:true}" fill-rule="nonzero" stroke="none" stroke-width="0" stroke-linecap="butt" stroke-linejoin="miter" stroke-miterlimit="10" stroke-dasharray="" stroke-dashoffset="0" style="mix-blend-mode: normal"><path d="M28.59754,335.27941v-32.37692h66.75028v32.37692z" fill="#667e54"/><path d="M-3.77918,335.21878v-32.37692h32.37692v32.37692z" fill="#9fca25"/><path d="M94.54233,335.5181v-32.37692h66.75028v32.37692z" fill="#667e54"/><path d="M62.16561,335.45747v-32.37692h32.37692v32.37692z" fill="#9fca25"/><path d="M158.34392,335.5181v-32.37692h66.75028v32.37692z" fill="#667e54"/><path d="M125.9672,335.45747v-32.37692h32.37692v32.37692z" fill="#9fca25"/><path d="M224.28871,335.75679v-32.37692h66.75028v32.37692z" fill="#667e54"/><path d="M191.91199,335.69616v-32.37692h32.37692v32.37692z" fill="#9fca25"/><path d="M293.56519,335.5181v-32.37692h66.75028v32.37692z" fill="#667e54"/><path d="M261.18847,335.45747v-32.37692h32.37692v32.37692z" fill="#9fca25"/><path d="M359.50998,335.75679v-32.37692h66.75028v32.37692z" fill="#667e54"/><path d="M327.13326,335.69616v-32.37692h32.37692v32.37692z" fill="#9fca25"/><path d="M423.31157,335.75679v-32.37692h66.75028v32.37692z" fill="#667e54"/><path d="M390.93485,335.69616v-32.37692h32.37692v32.37692z" fill="#9fca25"/><path d="M456.87964,334.98258v-32.37692h32.37692v32.37692z" fill="#9fca25"/><path d="M28.83623,296.47533v-32.37692h66.75028v32.37692z" fill="#667e54"/><path d="M-3.54049,296.41471v-32.37692h32.37692v32.37692z" fill="#9fca25"/><path d="M94.78102,296.71403v-32.37692h44.84824v32.37692z" fill="#667e54"/><path d="M62.4043,296.6534v-32.37692h32.37692v32.37692z" fill="#9fca25"/><path d="M27.17039,256.719v-32.37692h66.75028v32.37692z" fill="#667e54"/><path d="M-5.20633,256.65837v-32.37692h32.37692v32.37692z" fill="#9fca25"/><path d="M93.11519,256.95769v-32.37692h68.6548v32.37692z" fill="#667e54"/><path d="M60.73847,256.89706v-32.37692h32.37692v32.37692z" fill="#9fca25"/><path d="M27.40908,216.96267v-32.37692h66.75028v32.37692z" fill="#667e54"/><path d="M-4.96764,216.90204v-32.37692h32.37692v32.37692z" fill="#9fca25"/><path d="M358.79641,296.95271v-32.37692h66.75028v32.37692z" fill="#667e54"/><path d="M326.41969,296.89208v-32.37692h32.37692v32.37692z" fill="#9fca25"/><path d="M422.59799,296.95271v-32.37692h66.75028v32.37692z" fill="#667e54"/><path d="M390.22127,296.89208v-32.37692h32.37692v32.37692z" fill="#9fca25"/><path d="M456.16606,296.17851v-32.37692h32.37692v32.37692z" fill="#9fca25"/><path d="M422.83668,257.19638v-32.37692h66.75028v32.37692z" fill="#667e54"/><path d="M390.45996,257.13575v-32.37692h32.37692v32.37692z" fill="#9fca25"/><path d="M456.40475,256.42218v-32.37692h32.37692v32.37692z" fill="#9fca25"/><path d="M423.07537,216.48778v-32.37692h66.75028v32.37692z" fill="#667e54"/><path d="M390.69865,216.42715v-32.37692h32.37692v32.37692z" fill="#9fca25"/><path d="M456.64344,215.71358v-32.37692h32.37692v32.37692z" fill="#9fca25"/><path d="M422.3618,176.73145v-32.37692h66.75028v32.37692z" fill="#667e54"/><path d="M455.92987,175.95725v-32.37692h32.37692v32.37692z" fill="#9fca25"/><path d="M26.69551,177.20633v-32.37692h42.94372v32.37692z" fill="#667e54"/><path d="M-5.68121,177.1457v-32.37692h32.37692v32.37692z" fill="#9fca25"/></g></g></svg>