<svg version="1.1" xmlns="http://www.w3.org/2000/svg" xmlns:xlink="http://www.w3.org/1999/xlink" width="618.00001" height="44.41664" viewBox="0,0,618.00001,44.41664"><g transform="translate(60.80553,-160.58336)"><g data-paper-data="{&quot;isPaintingLayer&quot;:true}" fill-rule="nonzero" stroke="none" stroke-width="0" stroke-linecap="butt" stroke-linejoin="miter" stroke-miterlimit="10" stroke-dasharray="" stroke-dashoffset="0" style="mix-blend-mode: normal"><path d="M92.69445,192.58334v-28h7v28z" fill="#f6f497"/><path d="M-52.87499,195.37502v-34.25h145.75v34.25z" fill="#60c9f6"/><path d="M-52.99999,192.00002v-28h146v28z" fill="#3895f4"/><path d="M-47.74999,187.50002v-18.5h135.5v18.5z" fill="#a1b4f6"/><path d="M-26.87499,187.75002v-10.25h6v10.25z" fill="#808fc5"/><path d="M9.12501,187.50002v-18.5h3.25v18.5z" fill="#808fc5"/><path d="M51.37501,187.50002v-18.5h3.25v18.5z" fill="#808fc5"/><path d="M62.12501,186.75002v-17.5h4v17.5z" fill="#1d1d1d"/><path d="M65.87501,186.75002v-17.5h11.5v17.5z" fill="#808fc5"/><path d="M65.62501,181.50002v-7.75h11.25v7.75z" fill="#1d1d1d"/><path d="M76.93058,181.75002v-8h10.94444v8z" fill="#808fc5"/><path d="M82.37502,181.75002v-7.94444h1.5v7.94444z" fill="#596388"/><path d="M77.94445,167.33335v-6.25h15v6.25z" fill="#3895f4"/><path d="M77.94445,195.58335v-3.75h15v3.75z" fill="#3895f4"/><path d="M1.19445,195.83335v-3.75h31.5v3.75z" fill="#f9ffff"/><path d="M1.44446,164.33336v-3.75h31.5v3.75z" fill="#f9ffff"/><path d="M92.94445,193.33333v-28.75h3.25v28.75z" fill="#8f9567"/><path d="M-53.05555,195.33335v-3.5h14v3.5z" fill="#3895f4"/><path d="M-53.05555,164.08335v-3h13.75v3z" fill="#3994ef"/><path d="M-60.80553,192.58334v-28h7v28z" fill="#f6f497"/><path d="M550.19448,192.58334v-28h7v28z" fill="#f6f497"/><path d="M404.62501,195.37502v-34.25h145.75v34.25z" fill="#60c9f6"/><path d="M404.50001,192.00002v-28h146v28z" fill="#3895f4"/><path d="M409.75001,187.50002v-18.5h135.5v18.5z" fill="#a1b4f6"/><path d="M430.62501,187.75002v-10.25h6v10.25z" fill="#808fc5"/><path d="M466.62501,187.50002v-18.5h3.25v18.5z" fill="#808fc5"/><path d="M508.87501,187.50002v-18.5h3.25v18.5z" fill="#808fc5"/><path d="M519.62501,186.75002v-17.5h4v17.5z" fill="#1d1d1d"/><path d="M523.37501,186.75002v-17.5h11.5v17.5z" fill="#808fc5"/><path d="M523.12501,181.50002v-7.75h11.25v7.75z" fill="#1d1d1d"/><path d="M534.43057,181.75002v-8h10.94444v8z" fill="#808fc5"/><path d="M539.87501,181.75002v-7.94444h1.5v7.94444z" fill="#596388"/><path d="M404.44446,195.33335v-3.5h14v3.5z" fill="#3895f4"/><path d="M404.44446,164.08335v-3h13.75v3z" fill="#3994ef"/><path d="M535.44448,167.33335v-6.25h15v6.25z" fill="#3895f4"/><path d="M535.44448,195.58335v-3.75h15v3.75z" fill="#3895f4"/><path d="M458.69445,195.83335v-3.75h31.5v3.75z" fill="#f9ffff"/><path d="M458.94446,164.33336v-3.75h31.5v3.75z" fill="#f9ffff"/><path d="M550.44448,193.33333v-28.75h3.25v28.75z" fill="#8f9567"/><path d="M397.19446,192.58334v-28h7v28z" fill="#f6f497"/><path d="M251.62501,195.37502v-34.25h145.75v34.25z" fill="#60c9f6"/><path d="M251.50001,192.00002v-28h146v28z" fill="#3895f4"/><path d="M256.75001,187.50002v-18.5h135.5v18.5z" fill="#a1b4f6"/><path d="M277.62501,187.75002v-10.25h6v10.25z" fill="#808fc5"/><path d="M313.62501,187.50002v-18.5h3.25v18.5z" fill="#808fc5"/><path d="M355.87501,187.50002v-18.5h3.25v18.5z" fill="#808fc5"/><path d="M366.625,186.75002v-17.5h4v17.5z" fill="#1d1d1d"/><path d="M370.375,186.75002v-17.5h11.5v17.5z" fill="#808fc5"/><path d="M370.125,181.50002v-7.75h11.25v7.75z" fill="#1d1d1d"/><path d="M381.43057,181.75002v-8h10.94444v8z" fill="#808fc5"/><path d="M386.87501,181.75002v-7.94444h1.5v7.94444z" fill="#596388"/><path d="M251.44446,195.33335v-3.5h14v3.5z" fill="#3895f4"/><path d="M251.44446,164.08335v-3h13.75v3z" fill="#3994ef"/><path d="M382.44446,167.33335v-6.25h15v6.25z" fill="#3895f4"/><path d="M382.44446,195.58335v-3.75h15v3.75z" fill="#3895f4"/><path d="M305.69445,195.83335v-3.75h31.5v3.75z" fill="#f9ffff"/><path d="M305.94446,164.33336v-3.75h31.5v3.75z" fill="#f9ffff"/><path d="M397.44446,193.33333v-28.75h3.25v28.75z" fill="#8f9567"/><path d="M244.69446,192.58334v-28h7v28z" fill="#f6f497"/><path d="M99.12501,195.37502v-34.25h145.75v34.25z" fill="#60c9f6"/><path d="M99.00001,192.00002v-28h146v28z" fill="#3895f4"/><path d="M104.25001,187.50002v-18.5h135.5v18.5z" fill="#a1b4f6"/><path d="M125.12501,187.75002v-10.25h6v10.25z" fill="#808fc5"/><path d="M161.125,187.50002v-18.5h3.25v18.5z" fill="#808fc5"/><path d="M203.375,187.50002v-18.5h3.25v18.5z" fill="#808fc5"/><path d="M214.12501,186.75002v-17.5h4v17.5z" fill="#1d1d1d"/><path d="M217.87501,186.75002v-17.5h11.5v17.5z" fill="#808fc5"/><path d="M217.62501,181.50002v-7.75h11.25v7.75z" fill="#1d1d1d"/><path d="M228.93057,181.75002v-8h10.94444v8z" fill="#808fc5"/><path d="M234.37501,181.75002v-7.94444h1.5v7.94444z" fill="#596388"/><path d="M98.94445,195.33335v-3.5h14v3.5z" fill="#3895f4"/><path d="M98.94445,164.08335v-3h13.75v3z" fill="#3994ef"/><path d="M229.94446,167.33335v-6.25h15v6.25z" fill="#3895f4"/><path d="M229.94446,195.58335v-3.75h15v3.75z" fill="#3895f4"/><path d="M153.19445,195.83335v-3.75h31.5v3.75z" fill="#f9ffff"/><path d="M153.44446,164.33336v-3.75h31.5v3.75z" fill="#f9ffff"/><path d="M244.94446,193.33333v-28.75h3.25v28.75z" fill="#8f9567"/><path d="M78.75,205v-10h29v10z" fill="#202020"/><path d="M89.25,198.5v-8h8v8z" fill="#e6e6e6"/></g></g></svg>