<svg version="1.1" xmlns="http://www.w3.org/2000/svg" xmlns:xlink="http://www.w3.org/1999/xlink" width="712.94449" height="44.41664" viewBox="0,0,712.94449,44.41664"><g transform="translate(-78.75,-160.58336)"><g data-paper-data="{&quot;isPaintingLayer&quot;:true}" fill-rule="nonzero" stroke="none" stroke-width="0" stroke-linecap="butt" stroke-linejoin="miter" stroke-miterlimit="10" stroke-dasharray="" stroke-dashoffset="0" style="mix-blend-mode: normal"><g><path d="M632.69445,192.58334v-28h7v28z" fill="#f6f497"/><path d="M487.12501,195.37502v-34.25h145.75v34.25z" fill="#60c9f6"/><path d="M487.00001,192.00002v-28h146v28z" fill="#3895f4"/><path d="M492.25001,187.50002v-18.5h135.5v18.5z" fill="#a1b4f6"/><path d="M513.12501,187.75002v-10.25h6v10.25z" fill="#808fc5"/><path d="M549.12501,187.50002v-18.5h3.25v18.5z" fill="#808fc5"/><path d="M591.37501,187.50002v-18.5h3.25v18.5z" fill="#808fc5"/><path d="M602.12501,186.75002v-17.5h4v17.5z" fill="#1d1d1d"/><path d="M605.87501,186.75002v-17.5h11.5v17.5z" fill="#808fc5"/><path d="M605.62501,181.50002v-7.75h11.25v7.75z" fill="#1d1d1d"/><path d="M616.93058,181.75002v-8h10.94444v8z" fill="#808fc5"/><path d="M622.37502,181.75002v-7.94444h1.5v7.94444z" fill="#596388"/><path d="M617.94445,167.33335v-6.25h15v6.25z" fill="#3895f4"/><path d="M617.94445,195.58335v-3.75h15v3.75z" fill="#3895f4"/><path d="M541.19445,195.83335v-3.75h31.5v3.75z" fill="#f9ffff"/><path d="M541.44446,164.33336v-3.75h31.5v3.75z" fill="#f9ffff"/><path d="M632.94445,193.33333v-28.75h3.25v28.75z" fill="#8f9567"/><path d="M486.94444,195.33335v-3.5h14v3.5z" fill="#3895f4"/><path d="M486.94444,164.08335v-3h13.75v3z" fill="#3994ef"/><path d="M479.19447,192.58334v-28h7v28z" fill="#f6f497"/></g><path d="M784.69449,192.58334v-28h7v28z" fill="#f6f497"/><path d="M639.12501,195.37502v-34.25h145.75v34.25z" fill="#60c9f6"/><path d="M639.00001,192.00002v-28h146v28z" fill="#3895f4"/><path d="M644.25001,187.50002v-18.5h135.5v18.5z" fill="#a1b4f6"/><path d="M665.12501,187.75002v-10.25h6v10.25z" fill="#808fc5"/><path d="M701.12501,187.50002v-18.5h3.25v18.5z" fill="#808fc5"/><path d="M743.37501,187.50002v-18.5h3.25v18.5z" fill="#808fc5"/><path d="M754.12501,186.75002v-17.5h4v17.5z" fill="#1d1d1d"/><path d="M757.87501,186.75002v-17.5h11.5v17.5z" fill="#808fc5"/><path d="M757.62501,181.50002v-7.75h11.25v7.75z" fill="#1d1d1d"/><path d="M768.93058,181.75002v-8h10.94444v8z" fill="#808fc5"/><path d="M774.37501,181.75002v-7.94444h1.5v7.94444z" fill="#596388"/><path d="M638.94445,195.33335v-3.5h14v3.5z" fill="#3895f4"/><path d="M638.94445,164.08335v-3h13.75v3z" fill="#3994ef"/><path d="M769.94449,167.33335v-6.25h15v6.25z" fill="#3895f4"/><path d="M769.94449,195.58335v-3.75h15v3.75z" fill="#3895f4"/><path d="M693.19445,195.83335v-3.75h31.5v3.75z" fill="#f9ffff"/><path d="M693.44448,164.33336v-3.75h31.5v3.75z" fill="#f9ffff"/><path d="M784.94449,193.33333v-28.75h3.25v28.75z" fill="#8f9567"/><path d="M78.75,205v-10h29v10z" fill="#202020"/><path d="M89.25,198.5v-8h8v8z" fill="#e6e6e6"/></g></g></svg>