<svg version="1.1" xmlns="http://www.w3.org/2000/svg" xmlns:xlink="http://www.w3.org/1999/xlink" width="78.38009" height="34.375" viewBox="0,0,78.38009,34.375"><g transform="translate(-207.74482,-163.0625)"><g data-paper-data="{&quot;isPaintingLayer&quot;:true}" fill-rule="nonzero" stroke="none" stroke-width="0" stroke-linecap="butt" stroke-linejoin="miter" stroke-miterlimit="10" stroke-dasharray="" stroke-dashoffset="0" style="mix-blend-mode: normal"><path d="M212.17496,195.2394v-30.07477h72.02624v30.07477z" fill="#2b2d3c"/><path d="M279.20039,192.29276v-24.69324h6.92452v24.69324z" fill="#2b2d3c"/><path d="M231.87492,165.41341v-2.22591h11.625v2.22591z" fill="#2b2d3c"/><path d="M231.49991,197.3125v-1.97591h12.125v1.97591z" fill="#2b2d3c"/><path d="M229.25518,166.77845v-3.71595h7.25v3.71595z" fill="#ebd857"/><path d="M228.88018,197.4375v-3.96262h7.5v3.96262z" fill="#ebd857"/><path d="M207.74482,195.28819v-30.42151h57.39583v30.42151z" fill="#fbe65d"/><path d="M256.63018,192.25633v-24.65141h8.5v24.65141z" fill="#d1bf4d"/><path d="M207.75522,189.25311v-18.74958h57.25v18.74958z" fill="#f7ce59"/><path d="M224.75519,191.97861v-24.37371h31.75v24.37371z" fill="#f5fffe"/><path d="M256.63018,189.62562v-19.12209h8.5v19.12209z" fill="#c5a347"/><path d="M236.8125,186.36206v-14.5h9.375v14.5z" fill="#f7ce59"/><path d="M241.4375,186.36206v-14.5h4.625v14.5z" fill="#fbe65d"/><path d="M246.0625,186.23706v-14.375h3v14.375z" fill="#d3dcdb"/></g></g></svg>