<svg version="1.1" xmlns="http://www.w3.org/2000/svg" xmlns:xlink="http://www.w3.org/1999/xlink" width="40" height="22.22223" viewBox="0,0,40,22.22223"><g transform="translate(-220,-168.88888)"><g data-paper-data="{&quot;isPaintingLayer&quot;:true}" fill-rule="nonzero" stroke="none" stroke-width="0" stroke-linecap="butt" stroke-linejoin="miter" stroke-miterlimit="10" stroke-dasharray="" stroke-dashoffset="0" style="mix-blend-mode: normal"><path d="M255.67953,171.01156v10.31445h-15.53866v-10.31445z" data-paper-data="{&quot;index&quot;:null}" fill="#e6e6ee"/><path d="M254.87581,173.42273v13.26144h-14.19911v-13.26144z" data-paper-data="{&quot;index&quot;:null}" fill="#000000"/><path d="M242.28415,188.82742v-2.27723h11.25213v2.27723z" fill="#000000"/><path d="M220.11195,186.74386v-13.61609h20.3009v13.61609z" fill="#e6e6ee"/><path d="M224.46596,175.78343v-6.89455h16.04593v6.89455z" fill="#e6e6ee"/><path d="M222.48497,174.21648v-3.44726h1.98097v3.44726z" fill="#e6e6ee"/><path d="M222.68305,189.25707v-2.5071h1.98097v2.5071z" fill="#e6e6ee"/><path d="M224.565,191.11112v-4.51784h15.84783v4.51784z" fill="#e6e6ee"/><path d="M220,174.12699v-0.95238h20.4867v0.95238z" fill="#b0afbd"/><path d="M220.11195,187.02382v-1.19048h20.37476v1.19048z" fill="#b0afbd"/><path d="M239.5238,186.19048v-12.69842h1.11111v12.69842z" fill="#b0afbd"/><path d="M240.63491,173.49207v-0.63491h14.92064v0.63491z" fill="#cbcad9"/><path d="M255.55556,181.42858v-5.07936h1.26984v5.07936z" fill="#d95c3c"/><path d="M256.50794,180.4762v-3.49206h3.49206v3.49206z" fill="#d95c3c"/><path d="M256.90476,180.23809v-3.01587h1.26984v3.01587z" fill="#c45337"/><path d="M244.84127,171.50794v-0.79364h6.50794v0.79364z" fill="#ffffff"/></g></g></svg>