<svg version="1.1" xmlns="http://www.w3.org/2000/svg" xmlns:xlink="http://www.w3.org/1999/xlink" width="93.54801" height="47.80481" viewBox="0,0,93.54801,47.80481"><g transform="translate(-193.226,-156.0976)"><g data-paper-data="{&quot;isPaintingLayer&quot;:true}" stroke-miterlimit="10" stroke-dasharray="" stroke-dashoffset="0" style="mix-blend-mode: normal"><path d="M196.65079,198.98132v-1.72049h1.52931v1.72049z" fill="#68cdeb" fill-rule="nonzero" stroke="none" stroke-width="0" stroke-linecap="butt" stroke-linejoin="miter"/><path d="M196.79522,197.00748c0,-4.7548 0,-40.68006 0,-40.68006h89.97879c0,0 0,35.9281 0,40.68149c0,1.01014 -1.15347,1.83723 -2.66688,1.83723c-7.75344,0 -71.61819,0 -84.89866,0c-1.55205,0 -2.41322,-0.8278 -2.41322,-1.83865z" fill="#40aed0" fill-rule="nonzero" stroke="none" stroke-width="0" stroke-linecap="butt" stroke-linejoin="miter"/><path d="M197.71857,196.89259v-40.68007h88.14015v40.68007z" fill="#97d7eb" fill-rule="nonzero" stroke="none" stroke-width="0" stroke-linecap="butt" stroke-linejoin="miter"/><g fill-rule="evenodd" stroke-width="1"><path d="M205.34713,185.05585c0.2668,0.21001 0.83054,0.67563 -0.26996,1.82625c-1.10048,1.15061 -3.67242,0.94575 -3.96534,0.89057c-1.14152,-0.17507 -2.53282,-0.43713 -3.97925,-1.2687c-4.20587,-2.38972 -3.38801,-7.46756 -1.82312,-8.01151c1.52827,-0.55085 1.62235,2.70186 3.31644,4.97792c0.73522,1.01712 1.7448,1.52679 2.5909,1.88584c1.20571,0.46673 3.8334,-0.55597 4.1303,-0.30037z" fill="#ffab19" stroke="#001026" stroke-linecap="round" stroke-linejoin="round"/><path d="M196.79548,180.21014c0.40969,1.1555 1.29683,2.84024 1.29683,2.84024c0,0 -1.29597,-0.60355 -2.17573,-0.0903c-0.70721,0.38598 -0.70425,1.26519 -0.6767,1.54995c-0.39118,-0.59287 -0.85958,-1.39999 -0.9974,-2.82379c-0.13783,-1.4238 0.50224,-2.98063 1.27364,-3.07497c0.75836,-0.01691 0.84358,0.59821 1.27935,1.59886z" fill="#ffffff" stroke="none" stroke-linecap="butt" stroke-linejoin="miter"/></g><path d="M206.54346,189.42643c-0.77952,0.34038 -3.48295,1.61603 -6.71341,2.03897l-0.16173,0.01112c-0.16173,0.01112 -0.27363,0.19088 -0.2238,0.35951c0.49256,1.04626 1.36153,3.11811 -0.88473,3.39688c-2.16884,0.29256 -5.02872,-5.84821 -3.14775,-6.99082c0.83203,-0.41091 1.44181,-0.0227 1.76262,0.19419c0.17976,0.1119 0.3733,0.14638 0.57374,0.14216c0.4921,-0.07208 1.39888,-0.23004 2.11901,-0.46119c1.81623,-0.55507 2.26539,-0.83449 3.14302,-1.27722c0.87763,-0.44271 2.91344,-1.55775 4.125,-0.06389c1.05251,1.26584 0.14884,2.30299 -0.59197,2.65027z" fill="#ffab19" fill-rule="evenodd" stroke="#001026" stroke-width="0.5" stroke-linecap="round" stroke-linejoin="round"/><path d="M214.13269,182.47139c0.16597,0.18932 2.03072,3.39707 2.92904,2.83822c1.07385,-0.64739 2.63401,-2.00691 3.79997,-0.48123c1.16597,1.52568 -1.85247,3.22447 -3.07849,3.60512c-2.88474,0.72416 -4.6456,-1.94589 -4.99977,-2.648c-0.35418,-0.70211 -0.98087,-1.89209 -0.80157,-2.89853c0.2318,-1.07697 1.5962,-1.11346 2.15082,-0.41559z" fill="#ffab19" fill-rule="evenodd" stroke="#001026" stroke-width="0.5" stroke-linecap="round" stroke-linejoin="round"/><g fill-rule="evenodd" stroke-width="0.5"><path d="M212.56458,191.49757c0.68188,0.8803 2.19356,2.70719 2.19356,2.70719c0,0 5.70786,0.01842 5.21134,2.80551c-0.29653,1.6645 -3.15259,1.55507 -6.84534,0.53776c-0.22536,-0.08008 -0.44383,-0.19888 -0.60978,-0.3882c-0.72058,-0.8872 -2.7731,-3.48939 -4.05253,-5.27491c-1.88388,-2.65202 -3.51859,-4.4609 -3.51859,-4.4609c-2.71793,-3.79907 0.1944,-4.67806 1.57058,-6.34992c1.25048,-1.41469 1.62111,-1.02915 3.86094,-0.15086c1.28164,0.42802 2.03514,0.68207 2.89365,0.79508c1.2843,0.18886 0.72104,2.00555 0.20025,2.91121c0,0 -0.7971,1.3357 -1.43135,1.98153c-0.77796,0.77997 -1.34593,1.27787 -1.87251,1.54349z" fill="#ffab19" stroke="#001026" stroke-linecap="round" stroke-linejoin="round"/><path d="M209.8233,188.05379c0,0 -0.49789,-0.56796 -1.01379,-1.25894c-0.65006,-0.83469 -1.32081,-1.55326 -0.33283,-2.61534c0.86228,-0.8049 1.74102,-1.92637 3.28295,-0.49346c1.47831,1.3417 0.57043,2.1784 0.57043,2.1784c-1.16195,1.59022 -2.50675,2.18933 -2.50675,2.18933z" fill="#ffffff" stroke="none" stroke-linecap="butt" stroke-linejoin="miter"/></g><path d="M204.54366,183.83827c0.65851,1.23558 1.73327,2.82489 -0.13123,3.65092c-2.51144,0.87053 -3.71858,-3.33832 -3.86431,-4.76212c-0.13461,-1.26206 1.00977,-1.85694 1.97861,-2.36329c1.87829,-0.90346 3.46494,-1.73906 4.90987,-0.88256c1.81134,1.04158 0.14195,2.3417 -0.94992,2.86606c-0.6565,0.32237 -1.3199,0.68344 -1.79398,0.87854c-0.15061,0.17286 -0.2307,0.39821 -0.14905,0.61246z" fill="#ffab19" fill-rule="evenodd" stroke="#001026" stroke-width="0.5" stroke-linecap="round" stroke-linejoin="round"/><g fill-rule="evenodd" stroke-width="0.5"><path d="M221.38519,159.92036c0.12993,-0.05673 0.31657,0.01645 0.3277,0.1782l0.26856,4.32122c0,0 2.15329,2.2607 2.66119,3.66915c0.8594,2.3497 0.58779,4.09853 0.58779,4.09853c0,0 2.60355,1.30253 2.67498,3.59173c0.07143,2.2892 -2.37658,6.16639 -9.90913,6.30216c-7.53255,0.13577 -13.02597,-2.87975 -14.98818,-7.78227c-1.96221,-4.90252 3.31114,-9.39464 3.02372,-9.12634l0.42153,-7.07382c-0.01112,-0.16173 0.20311,-0.24338 0.34416,-0.13838l4.13905,3.89249c0,0 1.85916,-0.34774 3.69231,-0.10103c1.09766,0.11567 2.01289,0.3586 2.87563,0.67205z" fill="#ffab19" stroke="#001026" stroke-linecap="butt" stroke-linejoin="miter"/><path d="M225.08672,172.32164c0,0 2.54683,1.17261 2.61825,3.4618c0.07143,2.2892 -2.49694,5.94526 -9.94517,6.0561c-9.71251,0.26659 -13.17106,-6.10064 -9.84652,-9.7418c3.33143,-3.67988 7.15547,0.63576 10.44845,0.98278c2.82157,0.30298 3.5657,-2.08055 6.72499,-0.75889z" fill="#ffffff" stroke="none" stroke-linecap="butt" stroke-linejoin="miter"/><path d="M212.15533,174.29123c0.02758,-0.15484 0.20311,-0.24338 0.35105,-0.17709c0.68721,0.40199 2.66719,1.39374 4.96216,1.96236c2.06962,0.48853 3.32902,0.59308 3.93035,0.58039c0.20044,-0.00422 0.32081,0.2169 0.2089,0.39665c-0.53459,0.98309 -2.52277,3.62425 -6.54588,2.66789c-3.45361,-1.01465 -3.36063,-3.55412 -2.90659,-5.43021z" fill="#ffffff" stroke="#001026" stroke-linecap="round" stroke-linejoin="round"/><path d="M232.13341,174.01634c-2.0814,1.14684 -4.87538,0.68902 -4.87538,0.68902" fill="none" stroke="#001026" stroke-linecap="round" stroke-linejoin="round"/><path d="M230.85781,178.26216c-2.47318,-0.24092 -3.85182,-1.24535 -3.85182,-1.24535" fill="none" stroke="#001026" stroke-linecap="round" stroke-linejoin="round"/><path d="M218.38619,172.04645c0.8129,0.14482 1.65072,0.37395 1.64115,0.65182c-0.05783,0.54883 -0.83157,1.52925 -1.45782,1.45763c-0.71056,-0.04671 -2.16396,-1.30409 -2.05362,-1.92344c0.04404,-0.47141 1.0961,-0.32393 1.87029,-0.186z" fill="#001026" stroke="#001026" stroke-linecap="round" stroke-linejoin="round"/><path d="M201.07036,168.36253c0,0 3.13592,1.67694 4.27697,3.1183" fill="none" stroke="#001026" stroke-linecap="round" stroke-linejoin="round"/><path d="M205.22207,172.85635c-1.78175,0.36153 -4.57039,-0.5746 -4.57039,-0.5746" fill="none" stroke="#001026" stroke-linecap="round" stroke-linejoin="round"/><g><path d="M223.76078,168.33123c0.81224,1.94192 0.49924,3.923 -0.70875,4.42668c-1.208,0.50368 -2.84381,-0.62645 -3.69477,-2.57527c-0.81224,-1.94192 -0.49924,-3.923 0.70875,-4.42668c1.21489,-0.54239 2.88253,0.63335 3.69477,2.57527z" fill="#ffffff" stroke="#001026" stroke-linecap="round" stroke-linejoin="round"/><path d="M223.21285,170.51007c-0.07586,0.4258 -0.44761,0.71902 -0.83469,0.65006c-0.38709,-0.06896 -0.6347,-0.47252 -0.55885,-0.89832c0.07586,-0.4258 0.44761,-0.71902 0.83469,-0.65006c0.38709,0.06896 0.6347,0.47252 0.55885,0.89832" fill="#001026" stroke="none" stroke-linecap="butt" stroke-linejoin="miter"/></g><g><path d="M213.96772,167.70482c0.85784,1.91011 0.40804,3.98662 -0.76815,4.53591c-1.40844,0.50791 -3.01512,-0.33746 -3.87296,-2.24756c-0.89657,-1.917 -0.58091,-4.13724 0.77082,-4.77506c1.35861,-0.67654 3.01245,0.57661 3.8703,2.48673z" fill="#ffffff" stroke="#001026" stroke-linecap="round" stroke-linejoin="round"/><path d="M213.33548,169.90861c-0.07586,0.4258 -0.44761,0.71902 -0.83469,0.65006c-0.38709,-0.06896 -0.6347,-0.47252 -0.55885,-0.89832c0.07586,-0.4258 0.44761,-0.71902 0.83469,-0.65006c0.3802,0.10768 0.6347,0.47252 0.55885,0.89832" fill="#001026" stroke="none" stroke-linecap="butt" stroke-linejoin="miter"/></g></g><path d="M193.23285,199.65055v-43.55296h3.56238v43.55296z" fill="#68cdeb" fill-rule="nonzero" stroke="none" stroke-width="0" stroke-linecap="butt" stroke-linejoin="miter"/><path d="M196.76303,196.86037c0,-4.7548 -0.11491,-40.68006 -0.11491,-40.68006l1.21055,-0.00615l0.26436,40.78372l10.9745,-0.04173l21.52468,-0.02913l-0.61541,1.84258c0,0 -28.88543,-0.03055 -30.83057,-0.03055c-1.55205,0 -2.41323,-0.8278 -2.41323,-1.83865z" fill="#40aed0" fill-rule="nonzero" stroke="none" stroke-width="0" stroke-linecap="butt" stroke-linejoin="miter"/><path d="M193.226,203.9024v-5.28611h31.02717v5.28611z" fill="#68cdeb" fill-rule="nonzero" stroke="none" stroke-width="0" stroke-linecap="butt" stroke-linejoin="miter"/><text transform="translate(228.43898,178.40799) scale(0.12631,0.12631)" font-size="40" xml:space="preserve" fill="#000000" fill-rule="nonzero" stroke="#000000" stroke-width="4" stroke-linecap="butt" stroke-linejoin="miter" stroke-miterlimit="10" stroke-dasharray="" stroke-dashoffset="0" font-family="Pixel" font-weight="normal" text-anchor="start" style="mix-blend-mode: normal"><tspan x="0" dy="0">SCRATCH EXCLUSIVE</tspan></text><text transform="translate(228.45257,177.88603) scale(0.12631,0.12631)" font-size="40" xml:space="preserve" fill="#ffffff" fill-rule="nonzero" stroke="#ffffff" stroke-width="4" stroke-linecap="butt" stroke-linejoin="miter" stroke-miterlimit="10" stroke-dasharray="" stroke-dashoffset="0" font-family="Pixel" font-weight="normal" text-anchor="start" style="mix-blend-mode: normal"><tspan x="0" dy="0">SCRATCH EXCLUSIVE</tspan></text></g></g></svg>