<svg version="1.1" xmlns="http://www.w3.org/2000/svg" xmlns:xlink="http://www.w3.org/1999/xlink" width="172.28189" height="24.10151" viewBox="0,0,172.28189,24.10151"><g transform="translate(-138.32531,-168.30143)"><g data-paper-data="{&quot;isPaintingLayer&quot;:true}" fill-rule="nonzero" stroke="none" stroke-width="0" stroke-linecap="butt" stroke-linejoin="miter" stroke-miterlimit="10" stroke-dasharray="" stroke-dashoffset="0" style="mix-blend-mode: normal"><path d="M138.6288,191.66433v-23.32866h162.04926v23.32866z" fill="#78434a"/><path d="M300.65223,191.70435v-23.40292h9.95497v23.40292z" fill="#4783c0"/><path d="M138.95336,191.879v-23.22827h5.76341v23.22827z" fill="#8f5f65"/><path d="M295.43856,191.5297v-23.22827h5.23946v23.22827z" fill="#8f5f65"/><path d="M144.96195,174.06483v-5.58876h27.59449v5.58876z" fill="#6b3238"/><path d="M172.55644,180.17753v-6.1127h6.28735v6.1127z" fill="#6b3238"/><path d="M144.78731,187.86207v-6.28735h8.38314v6.28735z" fill="#6b3238"/><path d="M184.6072,191.5297v-5.93805h31.61141v5.93805z" fill="#6b3238"/><path d="M216.21861,185.76629v-6.1127h29.34098v6.1127z" fill="#6b3238"/><path d="M183.90861,180.35218v-6.28735h21.48179v6.28735z" fill="#6b3238"/><path d="M245.55959,180.17753v-6.1127h6.8113v6.1127z" fill="#6b3238"/><path d="M289.92035,181.40007v-12.924h5.23946v12.924z" fill="#6b3238"/><path d="M271.75689,181.40007v-5.58876h19.21135v5.58876z" fill="#6b3238"/><path d="M280.48932,186.81418v-5.41411h5.58876v5.41411z" fill="#6b3238"/><path d="M138.32531,192.40294v-1.04789h162.07396v1.04789z" fill="#573136"/></g></g></svg>