<svg version="1.1" xmlns="http://www.w3.org/2000/svg" xmlns:xlink="http://www.w3.org/1999/xlink" width="500.13888" height="44.41664" viewBox="0,0,500.13888,44.41664"><g transform="translate(199.05555,-160.58336)"><g data-paper-data="{&quot;isPaintingLayer&quot;:true}" fill-rule="nonzero" stroke="none" stroke-width="0" stroke-linecap="butt" stroke-linejoin="miter" stroke-miterlimit="10" stroke-dasharray="" stroke-dashoffset="0" style="mix-blend-mode: normal"><path d="M253.41667,195.08333v-34h47.66666v34z" fill="#2d2941"/><path d="M253.19444,192.58334v-28h7v28z" fill="#f6f497"/><path d="M107.625,195.37502v-34.25h145.75v34.25z" fill="#60c9f6"/><path d="M107.5,192.00002v-28h146v28z" fill="#3895f4"/><path d="M112.75,187.50002v-18.5h135.5v18.5z" fill="#a1b4f6"/><path d="M133.625,187.75002v-10.25h6v10.25z" fill="#808fc5"/><path d="M169.62501,187.50002v-18.5h3.25v18.5z" fill="#808fc5"/><path d="M211.87501,187.50002v-18.5h3.25v18.5z" fill="#808fc5"/><path d="M222.62501,186.75002v-17.5h4v17.5z" fill="#1d1d1d"/><path d="M226.37501,186.75002v-17.5h11.5v17.5z" fill="#808fc5"/><path d="M226.12501,181.50002v-7.75h11.25v7.75z" fill="#1d1d1d"/><path d="M237.43057,181.75002v-8h10.94444v8z" fill="#808fc5"/><path d="M242.87501,181.75002v-7.94444h1.5v7.94444z" fill="#596388"/><path d="M107.44444,195.33335v-3.5h14v3.5z" fill="#3895f4"/><path d="M107.44444,164.08335v-3h13.75v3z" fill="#3994ef"/><path d="M238.44444,167.33335v-6.25h15v6.25z" fill="#3895f4"/><path d="M238.44444,195.58335v-3.75h15v3.75z" fill="#3895f4"/><path d="M161.69444,195.83335v-3.75h31.5v3.75z" fill="#f9ffff"/><path d="M161.94445,164.33336v-3.75h31.5v3.75z" fill="#f9ffff"/><path d="M253.44444,193.33333v-28.75h3.25v28.75z" fill="#8f9567"/><path d="M100.19446,192.58334v-28h7v28z" fill="#f6f497"/><path d="M-45.37499,195.37502v-34.25h145.75v34.25z" fill="#60c9f6"/><path d="M-45.49999,192.00002v-28h146v28z" fill="#3895f4"/><path d="M-40.24999,187.50002v-18.5h135.5v18.5z" fill="#a1b4f6"/><path d="M-19.37499,187.75002v-10.25h6v10.25z" fill="#808fc5"/><path d="M16.625,187.50002v-18.5h3.25v18.5z" fill="#808fc5"/><path d="M58.87501,187.50002v-18.5h3.25v18.5z" fill="#808fc5"/><path d="M69.62501,186.75002v-17.5h4v17.5z" fill="#1d1d1d"/><path d="M73.37501,186.75002v-17.5h11.5v17.5z" fill="#808fc5"/><path d="M73.12501,181.50002v-7.75h11.25v7.75z" fill="#1d1d1d"/><path d="M84.43057,181.75002v-8h10.94444v8z" fill="#808fc5"/><path d="M89.87501,181.75002v-7.94444h1.5v7.94444z" fill="#596388"/><path d="M-45.55554,195.33335v-3.5h14v3.5z" fill="#3895f4"/><path d="M-45.55554,164.08335v-3h13.75v3z" fill="#3994ef"/><path d="M85.44446,167.33335v-6.25h15v6.25z" fill="#3895f4"/><path d="M85.44446,195.58335v-3.75h15v3.75z" fill="#3895f4"/><path d="M8.69445,195.83335v-3.75h31.5v3.75z" fill="#f9ffff"/><path d="M8.94446,164.33336v-3.75h31.5v3.75z" fill="#f9ffff"/><path d="M100.44446,193.33333v-28.75h3.25v28.75z" fill="#8f9567"/><path d="M-53.30554,192.58334v-28h7v28z" fill="#f6f497"/><path d="M-198.87498,195.37502v-34.25h145.75v34.25z" fill="#60c9f6"/><path d="M-198.99998,192.00002v-28h146v28z" fill="#3895f4"/><path d="M-193.74998,187.50002v-18.5h135.5v18.5z" fill="#a1b4f6"/><path d="M-172.87498,187.75002v-10.25h6v10.25z" fill="#808fc5"/><path d="M-136.875,187.50002v-18.5h3.25v18.5z" fill="#808fc5"/><path d="M-94.62499,187.50002v-18.5h3.25v18.5z" fill="#808fc5"/><path d="M-83.875,186.75002v-17.5h4v17.5z" fill="#1d1d1d"/><path d="M-80.125,186.75002v-17.5h11.5v17.5z" fill="#808fc5"/><path d="M-80.375,181.50002v-7.75h11.25v7.75z" fill="#1d1d1d"/><path d="M-69.06943,181.75002v-8h10.94444v8z" fill="#808fc5"/><path d="M-63.62499,181.75002v-7.94444h1.5v7.94444z" fill="#596388"/><path d="M-199.05555,195.33335v-3.5h14v3.5z" fill="#3895f4"/><path d="M-199.05555,164.08335v-3h13.75v3z" fill="#3994ef"/><path d="M-68.05554,167.33335v-6.25h15v6.25z" fill="#3895f4"/><path d="M-68.05554,195.58335v-3.75h15v3.75z" fill="#3895f4"/><path d="M-144.80555,195.83335v-3.75h31.5v3.75z" fill="#f9ffff"/><path d="M-144.55554,164.33336v-3.75h31.5v3.75z" fill="#f9ffff"/><path d="M-53.05554,193.33333v-28.75h3.25v28.75z" fill="#8f9567"/><path d="M78.75,205v-10h29v10z" fill="#202020"/><path d="M89.25,198.5v-8h8v8z" fill="#e6e6e6"/></g></g></svg>