<svg version="1.1" xmlns="http://www.w3.org/2000/svg" xmlns:xlink="http://www.w3.org/1999/xlink" width="51.17316" height="86.83998" viewBox="0,0,51.17316,86.83998"><g transform="translate(-213.45261,-136.85995)"><g data-paper-data="{&quot;isPaintingLayer&quot;:true}" fill-rule="nonzero" stroke="none" stroke-width="0" stroke-linecap="butt" stroke-linejoin="miter" stroke-miterlimit="10" stroke-dasharray="" stroke-dashoffset="0" style="mix-blend-mode: normal"><path d="M261.10145,208.66739c0,0 -5.18952,-0.02528 -6.85907,-0.03341c-0.96012,-0.00468 4.1628,1.93327 4.1628,1.93327l-3.7459,1.50419l-15.82274,-8.19279l10.17027,-4.93558l15.40497,8.37552z" data-paper-data="{&quot;index&quot;:null}" fill="#e85d5d"/><path d="M245.46178,216.67934c0,0 -5.18952,-0.02527 -6.85907,-0.0334c-0.96012,-0.00467 4.1628,1.93327 4.1628,1.93327l-3.74589,1.50419l-15.82274,-8.19279l10.17027,-4.93558l15.40497,8.37552z" data-paper-data="{&quot;index&quot;:null}" fill="#e85d5d"/><path d="M238.83654,208.11626v-4.0382l16.00322,8.07639v3.58951z" data-paper-data="{&quot;index&quot;:null}" fill="#c44e4e"/><path d="M214.07354,179.13636l-0.14956,-6.87989l2.74445,-0.9598l-3.21582,-1.75485l14.53028,-7.9043l2.24344,17.49884z" data-paper-data="{&quot;index&quot;:null}" fill="#ff6666"/><path d="M235.76017,202.76727l-2.51082,1.69222l-19.66716,-9.52512l0.19225,-25.66916l3.37204,1.72601l-2.54038,1.42833l9.07667,4.76917l-0.33647,-31.10591l22.13544,13.31126l0.59825,48.90703z" data-paper-data="{&quot;index&quot;:null}" fill="#e05a5a"/><path d="M245.33217,208.20139l-0.71919,-48.90525l-21.26654,-13.1633l18.24666,-9.27289l22.57094,10.76844l-0.13652,51.00098z" data-paper-data="{&quot;index&quot;:null}" fill="#ff6666"/><path d="M232.76889,204.46232v-12.26415l-19.14403,-9.27289l5.83295,-3.73907l19.74229,10.46939v11.6659z" data-paper-data="{&quot;index&quot;:null}" fill="#ff6666"/><path d="M229.17939,211.49178l0.29913,-8.82421l3.14082,1.34607l-0.14957,8.97376z" data-paper-data="{&quot;index&quot;:null}" fill="#c44e4e"/><path d="M223.04732,215.82909v-4.0382l16.00322,8.07639v3.58951z" data-paper-data="{&quot;index&quot;:null}" fill="#c44e4e"/><path d="M239.05054,217.22501l0.14956,-3.58951l6.13207,3.14082v3.58951z" data-paper-data="{&quot;index&quot;:null}" fill="#c44e4e"/><path d="M254.83976,209.36261l0.14956,-3.58951l6.13208,3.14082v3.58951z" data-paper-data="{&quot;index&quot;:null}" fill="#c44e4e"/><path d="M261.03627,212.439l0.14956,-3.73907l3.43994,-1.49562v3.88863z" data-paper-data="{&quot;index&quot;:null}" fill="#ff6666"/><path d="M254.6902,215.79382l0.14956,-3.73907l3.43994,-1.49563v3.88863z" data-paper-data="{&quot;index&quot;:null}" fill="#ff6666"/><path d="M245.20332,220.34513l0.14956,-3.73907l3.43994,-1.49563v3.88863z" data-paper-data="{&quot;index&quot;:null}" fill="#ff6666"/><path d="M238.85725,223.69993l0.14956,-3.73907l3.43994,-1.49562v3.88863z" data-paper-data="{&quot;index&quot;:null}" fill="#ff6666"/><path d="M232.46977,212.93754l0.14957,-8.8242l2.99125,-1.04694v8.82421z" data-paper-data="{&quot;index&quot;:null}" fill="#ff6666"/><path d="M235.76015,215.03142l3.43995,-1.1965l0.14956,3.29038z" data-paper-data="{&quot;index&quot;:null}" fill="#ff6666"/><path d="M251.39982,207.01946l3.43994,-1.1965l0.14956,3.58951z" data-paper-data="{&quot;index&quot;:null}" fill="#ff6666"/><path d="M249.28816,178.21962l-2.14813,0.15586l-0.19967,-16.36583l15.12973,-7.13923l0.90119,1.53289l-0.85108,14.68337z" data-paper-data="{&quot;index&quot;:null}" fill="#000000"/><path d="M249.15552,178.14078l-0.1857,-15.22034l14.07075,-6.63953l0.0466,15.08124z" data-paper-data="{&quot;index&quot;:null}" fill="#baffff"/><path d="M249.22081,178.08941l-0.00777,-2.94769l11.37454,-5.72695v-11.96502l2.393,-1.1965v15.2554z" data-paper-data="{&quot;index&quot;:null}" fill="#94caca"/><path d="M250.56687,167.02178v-3.62402l6.28164,-2.65762l-0.1208,3.38242z" data-paper-data="{&quot;index&quot;:null}" fill="#ffffff"/></g></g></svg>