<svg version="1.1" xmlns="http://www.w3.org/2000/svg" xmlns:xlink="http://www.w3.org/1999/xlink" width="37.77938" height="23.16596" viewBox="0,0,37.77938,23.16596"><g transform="translate(-221.11031,-168.41702)"><g data-paper-data="{&quot;isPaintingLayer&quot;:true}" fill-rule="nonzero" stroke="none" stroke-width="0" stroke-linecap="butt" stroke-linejoin="miter" stroke-miterlimit="10" stroke-dasharray="" stroke-dashoffset="0" style="mix-blend-mode: normal"><path d="M229.70036,186.6277v-11.64493h19.6814v11.64493z" fill="#ced2d1"/><path d="M221.33338,182.53957v-3.84034h8.46206v3.84034z" fill="#ced2d1"/><path d="M246.62447,188.98146v-16.7241h8.08174v16.7241z" fill="#ced2d1"/><path d="M254.51605,182.53957v-4.70753h4.37364v4.70753z" fill="#ced2d1"/><path d="M254.51605,186.13217v-11.64493h1.14096v11.64493z" fill="#0e0e0e"/><path d="M257.27335,182.53957v-4.58364h1.52127v4.58364z" fill="#1d1d1d"/><path d="M226.65782,182.53957v-3.84034h2.94745v3.84034z" fill="#1d1d1d"/><path d="M235.9756,175.97383v-0.99105h7.32111v0.99105z" fill="#1d1d1d"/><path d="M239.5301,177.33653v-1.61047h3.7666v1.61047z" fill="#1d1d1d"/><path d="M237.11654,177.33653v-1.48659h2.47206v1.48659z" fill="#1d1d1d"/><path d="M246.81463,191.58298v-8.30011h7.7965v8.30011z" fill="#191919"/><path d="M246.71955,176.59324v-8.17622h7.7965v8.17622z" fill="#dde2e0"/><path d="M226.7529,182.53957v-3.71646h0.76063v3.71646z" fill="#000000"/><path d="M225.05609,182.46335v-3.71646h0.76063v3.71646z" fill="#bfc3c2"/><path d="M223.41781,182.53957v-3.71646h0.76063v3.71646z" fill="#bfc3c2"/><path d="M224.15286,182.4824v-3.73553h0.87766v3.73553z" fill="#d9dddc"/><path d="M222.63158,182.55864v-3.81175h0.81914v3.81175z" fill="#e3e8e7"/><path d="M221.11031,182.55864v-3.81175h0.81915v3.81175z" fill="#ebf0ef"/><path d="M244.57295,186.59911v-11.58775h2.04786v11.58775z" fill="#bfc3c2"/><path d="M246.62081,176.68853v-1.60093h7.78188v1.60093z" fill="#d4d9d7"/><path d="M246.67931,173.71537v-1.60094h7.78188v1.60094z" fill="#d4d9d7"/></g></g></svg>