<svg version="1.1" xmlns="http://www.w3.org/2000/svg" xmlns:xlink="http://www.w3.org/1999/xlink" width="77.69988" height="34.125" viewBox="0,0,77.69988,34.125"><g transform="translate(-187.44077,-163.1875)"><g data-paper-data="{&quot;isPaintingLayer&quot;:true}" fill-rule="nonzero" stroke="none" stroke-width="0" stroke-linecap="butt" stroke-linejoin="miter" stroke-miterlimit="10" stroke-dasharray="" stroke-dashoffset="0" style="mix-blend-mode: normal"><path d="M187.44077,194.9894v-29.94977h72.02624v29.94977z" fill="#2b2d3c"/><path d="M222.26046,165.53841v-2.22591h11.625v2.22591z" fill="#2b2d3c"/><path d="M221.51045,197.1875v-1.97591h12.125v1.97591z" fill="#2b2d3c"/><path d="M229.25518,166.90345v-3.71595h7.25v3.71595z" fill="#fbe65d"/><path d="M228.88018,197.3125v-3.96262h7.5v3.96262z" fill="#fbe65d"/><path d="M207.74482,195.28819v-30.42151h57.39583v30.42151z" fill="#fbe65d"/><path d="M216.25518,192.25633v-24.65141h8.5v24.65141z" fill="#d1bf4d"/><path d="M207.75522,189.25311v-18.74958h57.25v18.74958z" fill="#f7ce59"/><path d="M224.75519,191.97861v-24.37371h31.75v24.37371z" fill="#f5fffe"/><path d="M216.25518,189.62562v-19.12209h8.5v19.12209z" fill="#c5a347"/><path d="M236.8125,186.36206v-14.5h9.375v14.5z" fill="#f7ce59"/><path d="M241.4375,186.36206v-14.5h4.625v14.5z" fill="#fbe65d"/><path d="M233.9375,186.36206v-14.5h3v14.5z" fill="#d3dcdb"/></g></g></svg>