<svg version="1.1" xmlns="http://www.w3.org/2000/svg" xmlns:xlink="http://www.w3.org/1999/xlink" width="611.25" height="44.41664" viewBox="0,0,611.25,44.41664"><g transform="translate(51.05555,-160.58336)"><g data-paper-data="{&quot;isPaintingLayer&quot;:true}" fill-rule="nonzero" stroke="none" stroke-width="0" stroke-linecap="butt" stroke-linejoin="miter" stroke-miterlimit="10" stroke-dasharray="" stroke-dashoffset="0" style="mix-blend-mode: normal"><path d="M553.19445,192.58334v-28h7v28z" fill="#f6f497"/><path d="M407.62501,195.37502v-34.25h145.75v34.25z" fill="#60c9f6"/><path d="M407.50001,192.00002v-28h146v28z" fill="#3895f4"/><path d="M412.75001,187.50002v-18.5h135.5v18.5z" fill="#a1b4f6"/><path d="M433.62501,187.75002v-10.25h6v10.25z" fill="#808fc5"/><path d="M469.62501,187.50002v-18.5h3.25v18.5z" fill="#808fc5"/><path d="M511.87501,187.50002v-18.5h3.25v18.5z" fill="#808fc5"/><path d="M522.62501,186.75002v-17.5h4v17.5z" fill="#1d1d1d"/><path d="M526.37501,186.75002v-17.5h11.5v17.5z" fill="#808fc5"/><path d="M526.12501,181.50002v-7.75h11.25v7.75z" fill="#1d1d1d"/><path d="M537.43058,181.75002v-8h10.94444v8z" fill="#808fc5"/><path d="M542.87501,181.75002v-7.94444h1.5v7.94444z" fill="#596388"/><path d="M407.44444,195.33335v-3.5h14v3.5z" fill="#3895f4"/><path d="M407.44444,164.08335v-3h13.75v3z" fill="#3994ef"/><path d="M538.44445,167.33335v-6.25h15v6.25z" fill="#3895f4"/><path d="M538.44445,195.58335v-3.75h15v3.75z" fill="#3895f4"/><path d="M461.69445,195.83335v-3.75h31.5v3.75z" fill="#f9ffff"/><path d="M461.94445,164.33336v-3.75h31.5v3.75z" fill="#f9ffff"/><path d="M553.44445,193.33333v-28.75h3.25v28.75z" fill="#8f9567"/><path d="M400.19446,192.58334v-28h7v28z" fill="#f6f497"/><path d="M254.62501,195.37502v-34.25h145.75v34.25z" fill="#60c9f6"/><path d="M254.50001,192.00002v-28h146v28z" fill="#3895f4"/><path d="M259.75001,187.50002v-18.5h135.5v18.5z" fill="#a1b4f6"/><path d="M280.62501,187.75002v-10.25h6v10.25z" fill="#808fc5"/><path d="M316.62501,187.50002v-18.5h3.25v18.5z" fill="#808fc5"/><path d="M358.87501,187.50002v-18.5h3.25v18.5z" fill="#808fc5"/><path d="M369.62501,186.75002v-17.5h4v17.5z" fill="#1d1d1d"/><path d="M373.37501,186.75002v-17.5h11.5v17.5z" fill="#808fc5"/><path d="M373.12501,181.50002v-7.75h11.25v7.75z" fill="#1d1d1d"/><path d="M384.43057,181.75002v-8h10.94444v8z" fill="#808fc5"/><path d="M389.87501,181.75002v-7.94444h1.5v7.94444z" fill="#596388"/><path d="M254.44446,195.33335v-3.5h14v3.5z" fill="#3895f4"/><path d="M254.44446,164.08335v-3h13.75v3z" fill="#3994ef"/><path d="M385.44446,167.33335v-6.25h15v6.25z" fill="#3895f4"/><path d="M385.44446,195.58335v-3.75h15v3.75z" fill="#3895f4"/><path d="M308.69445,195.83335v-3.75h31.5v3.75z" fill="#f9ffff"/><path d="M308.94446,164.33336v-3.75h31.5v3.75z" fill="#f9ffff"/><path d="M400.44446,193.33333v-28.75h3.25v28.75z" fill="#8f9567"/><path d="M247.19446,192.58334v-28h7v28z" fill="#f6f497"/><path d="M101.62501,195.37502v-34.25h145.75v34.25z" fill="#60c9f6"/><path d="M101.50001,192.00002v-28h146v28z" fill="#3895f4"/><path d="M106.75001,187.50002v-18.5h135.5v18.5z" fill="#a1b4f6"/><path d="M127.62501,187.75002v-10.25h6v10.25z" fill="#808fc5"/><path d="M163.625,187.50002v-18.5h3.25v18.5z" fill="#808fc5"/><path d="M205.87501,187.50002v-18.5h3.25v18.5z" fill="#808fc5"/><path d="M216.625,186.75002v-17.5h4v17.5z" fill="#1d1d1d"/><path d="M220.375,186.75002v-17.5h11.5v17.5z" fill="#808fc5"/><path d="M220.125,181.50002v-7.75h11.25v7.75z" fill="#1d1d1d"/><path d="M231.43057,181.75002v-8h10.94444v8z" fill="#808fc5"/><path d="M236.87501,181.75002v-7.94444h1.5v7.94444z" fill="#596388"/><path d="M101.44446,195.33335v-3.5h14v3.5z" fill="#3895f4"/><path d="M101.44446,164.08335v-3h13.75v3z" fill="#3994ef"/><path d="M232.44446,167.33335v-6.25h15v6.25z" fill="#3895f4"/><path d="M232.44446,195.58335v-3.75h15v3.75z" fill="#3895f4"/><path d="M155.69445,195.83335v-3.75h31.5v3.75z" fill="#f9ffff"/><path d="M155.94446,164.33336v-3.75h31.5v3.75z" fill="#f9ffff"/><path d="M247.44446,193.33333v-28.75h3.25v28.75z" fill="#8f9567"/><path d="M94.69446,192.58334v-28h7v28z" fill="#f6f497"/><path d="M-50.87499,195.37502v-34.25h145.75v34.25z" fill="#60c9f6"/><path d="M-50.99999,192.00002v-28h146v28z" fill="#3895f4"/><path d="M-45.74999,187.50002v-18.5h135.5v18.5z" fill="#a1b4f6"/><path d="M-24.87499,187.75002v-10.25h6v10.25z" fill="#808fc5"/><path d="M11.125,187.50002v-18.5h3.25v18.5z" fill="#808fc5"/><path d="M53.375,187.50002v-18.5h3.25v18.5z" fill="#808fc5"/><path d="M64.12501,186.75002v-17.5h4v17.5z" fill="#1d1d1d"/><path d="M67.87501,186.75002v-17.5h11.5v17.5z" fill="#808fc5"/><path d="M67.62501,181.50002v-7.75h11.25v7.75z" fill="#1d1d1d"/><path d="M78.93057,181.75002v-8h10.94444v8z" fill="#808fc5"/><path d="M84.37501,181.75002v-7.94444h1.5v7.94444z" fill="#596388"/><path d="M-51.05555,195.33335v-3.5h14v3.5z" fill="#3895f4"/><path d="M-51.05555,164.08335v-3h13.75v3z" fill="#3994ef"/><path d="M79.94446,167.33335v-6.25h15v6.25z" fill="#3895f4"/><path d="M79.94446,195.58335v-3.75h15v3.75z" fill="#3895f4"/><path d="M3.19445,195.83335v-3.75h31.5v3.75z" fill="#f9ffff"/><path d="M3.44446,164.33336v-3.75h31.5v3.75z" fill="#f9ffff"/><path d="M94.94446,193.33333v-28.75h3.25v28.75z" fill="#8f9567"/><path d="M78.75,205v-10h29v10z" fill="#202020"/><path d="M89.25,198.5v-8h8v8z" fill="#e6e6e6"/></g></g></svg>