<svg version="1.1" xmlns="http://www.w3.org/2000/svg" xmlns:xlink="http://www.w3.org/1999/xlink" width="35.90626" height="60.9323" viewBox="0,0,35.90626,60.9323"><g transform="translate(-222.04687,-149.53385)"><g data-paper-data="{&quot;isPaintingLayer&quot;:true}" fill-rule="nonzero" stroke="none" stroke-width="0" stroke-linecap="butt" stroke-linejoin="miter" stroke-miterlimit="10" stroke-dasharray="" stroke-dashoffset="0" style="mix-blend-mode: normal"><path d="M255.48024,199.9184c0,0 -3.64129,-0.01774 -4.81275,-0.02344c-0.67368,-0.00329 2.92088,1.3565 2.92088,1.3565l-2.62835,1.05543l-11.10221,-5.74857l7.13609,-3.46311l10.80908,5.87678z" data-paper-data="{&quot;index&quot;:null}" fill="#e85d5d"/><path d="M244.50649,205.54008c0,0 -3.64129,-0.01774 -4.81275,-0.02344c-0.67368,-0.00328 2.92088,1.3565 2.92088,1.3565l-2.62835,1.05543l-11.10221,-5.74857l7.13609,-3.46311l10.80908,5.87678z" data-paper-data="{&quot;index&quot;:null}" fill="#e85d5d"/><path d="M239.85781,199.53169v-2.83345l11.22885,5.66689v2.51862z" data-paper-data="{&quot;index&quot;:null}" fill="#c44e4e"/><path d="M222.48255,179.19759l-0.10494,-4.82736l1.92568,-0.67345l-2.25642,-1.23131l10.19534,-5.54615l1.57414,12.27827z" data-paper-data="{&quot;index&quot;:null}" fill="#ff6666"/><path d="M237.69925,195.77851l-1.76175,1.18737l-13.79969,-6.68341l0.13489,-18.01107l2.36603,1.21108l-1.78249,1.0022l6.36875,3.34634l-0.23609,-21.82583l15.53159,9.34l0.41977,34.31619z" data-paper-data="{&quot;index&quot;:null}" fill="#e05a5a"/><path d="M244.41555,199.5914l-0.50463,-34.31494l-14.92192,-9.23618l12.80298,-6.50643l15.83717,7.5558l-0.09579,35.78544z" data-paper-data="{&quot;index&quot;:null}" fill="#ff6666"/><path d="M235.60036,196.96785v-8.60529l-13.43263,-6.50643l4.09276,-2.62356l13.85241,7.34597v8.18552z" data-paper-data="{&quot;index&quot;:null}" fill="#ff6666"/><path d="M233.08176,201.90015l0.20989,-6.19161l2.20379,0.94449l-0.10495,6.29654z" data-paper-data="{&quot;index&quot;:null}" fill="#c44e4e"/><path d="M228.77911,204.94349v-2.83345l11.22885,5.66689v2.51862z" data-paper-data="{&quot;index&quot;:null}" fill="#c44e4e"/><path d="M240.00796,205.92295l0.10494,-2.51862l4.30264,2.20379v2.51862z" data-paper-data="{&quot;index&quot;:null}" fill="#c44e4e"/><path d="M251.08665,200.4062l0.10494,-2.51862l4.30265,2.20379v2.51862z" data-paper-data="{&quot;index&quot;:null}" fill="#c44e4e"/><path d="M255.43452,202.56478l0.10494,-2.62356l2.41367,-1.04942v2.7285z" data-paper-data="{&quot;index&quot;:null}" fill="#ff6666"/><path d="M250.98172,204.91874l0.10494,-2.62356l2.41367,-1.04943v2.7285z" data-paper-data="{&quot;index&quot;:null}" fill="#ff6666"/><path d="M244.32514,208.11222l0.10494,-2.62356l2.41367,-1.04943v2.7285z" data-paper-data="{&quot;index&quot;:null}" fill="#ff6666"/><path d="M239.87234,210.46615l0.10494,-2.62356l2.41367,-1.04942v2.7285z" data-paper-data="{&quot;index&quot;:null}" fill="#ff6666"/><path d="M235.39048,202.91459l0.10495,-6.1916l2.09885,-0.7346v6.19161z" data-paper-data="{&quot;index&quot;:null}" fill="#ff6666"/><path d="M237.69922,204.38379l2.41368,-0.83954l0.10494,2.30873z" data-paper-data="{&quot;index&quot;:null}" fill="#ff6666"/><path d="M248.67299,198.7621l2.41367,-0.83954l0.10494,2.51862z" data-paper-data="{&quot;index&quot;:null}" fill="#ff6666"/><path d="M247.19131,178.55435l-1.50726,0.10936l-0.1401,-11.48328l10.61595,-5.00932l0.63233,1.07557l-0.59717,10.30276z" data-paper-data="{&quot;index&quot;:null}" fill="#000000"/><path d="M247.09824,178.49903l-0.1303,-10.67953l9.87291,-4.6587l0.0327,10.58193z" data-paper-data="{&quot;index&quot;:null}" fill="#baffff"/><path d="M247.14405,178.463l-0.00545,-2.06828l7.98108,-4.01838v-8.3954l1.67908,-0.83954v10.70413z" data-paper-data="{&quot;index&quot;:null}" fill="#94caca"/><path d="M248.08853,170.69726v-2.54284l4.40759,-1.86475l-0.08476,2.37331z" data-paper-data="{&quot;index&quot;:null}" fill="#ffffff"/></g></g></svg>