<svg version="1.1" xmlns="http://www.w3.org/2000/svg" xmlns:xlink="http://www.w3.org/1999/xlink" width="347.13888" height="44.41664" viewBox="0,0,347.13888,44.41664"><g transform="translate(83.05555,-160.58336)"><g data-paper-data="{&quot;isPaintingLayer&quot;:true}" fill-rule="nonzero" stroke="none" stroke-width="0" stroke-linecap="butt" stroke-linejoin="miter" stroke-miterlimit="10" stroke-dasharray="" stroke-dashoffset="0" style="mix-blend-mode: normal"><path d="M216.41667,195.08333v-34h47.66666v34z" fill="#2d2941"/><path d="M216.19444,192.58334v-28h7v28z" fill="#f6f497"/><path d="M70.625,195.37502v-34.25h145.75v34.25z" fill="#60c9f6"/><path d="M70.5,192.00002v-28h146v28z" fill="#3895f4"/><path d="M75.75,187.50002v-18.5h135.5v18.5z" fill="#a1b4f6"/><path d="M96.625,187.75002v-10.25h6v10.25z" fill="#808fc5"/><path d="M132.625,187.50002v-18.5h3.25v18.5z" fill="#808fc5"/><path d="M174.875,187.50002v-18.5h3.25v18.5z" fill="#808fc5"/><path d="M185.625,186.75002v-17.5h4v17.5z" fill="#1d1d1d"/><path d="M189.375,186.75002v-17.5h11.5v17.5z" fill="#808fc5"/><path d="M189.125,181.50002v-7.75h11.25v7.75z" fill="#1d1d1d"/><path d="M200.43057,181.75002v-8h10.94444v8z" fill="#808fc5"/><path d="M205.87501,181.75002v-7.94444h1.5v7.94444z" fill="#596388"/><path d="M70.44444,195.33335v-3.5h14v3.5z" fill="#3895f4"/><path d="M70.44444,164.08335v-3h13.75v3z" fill="#3994ef"/><path d="M201.44444,167.33335v-6.25h15v6.25z" fill="#3895f4"/><path d="M201.44444,195.58335v-3.75h15v3.75z" fill="#3895f4"/><path d="M124.69444,195.83335v-3.75h31.5v3.75z" fill="#f9ffff"/><path d="M124.94445,164.33336v-3.75h31.5v3.75z" fill="#f9ffff"/><path d="M216.44444,193.33333v-28.75h3.25v28.75z" fill="#8f9567"/><path d="M62.69446,192.58334v-28h7v28z" fill="#f6f497"/><path d="M-82.87499,195.37502v-34.25h145.75v34.25z" fill="#60c9f6"/><path d="M-82.99999,192.00002v-28h146v28z" fill="#3895f4"/><path d="M-77.74999,187.50002v-18.5h135.5v18.5z" fill="#a1b4f6"/><path d="M-56.87499,187.75002v-10.25h6v10.25z" fill="#808fc5"/><path d="M-20.875,187.50002v-18.5h3.25v18.5z" fill="#808fc5"/><path d="M21.37501,187.50002v-18.5h3.25v18.5z" fill="#808fc5"/><path d="M32.12501,186.75002v-17.5h4v17.5z" fill="#1d1d1d"/><path d="M35.87501,186.75002v-17.5h11.5v17.5z" fill="#808fc5"/><path d="M35.62501,181.50002v-7.75h11.25v7.75z" fill="#1d1d1d"/><path d="M46.93057,181.75002v-8h10.94444v8z" fill="#808fc5"/><path d="M52.37501,181.75002v-7.94444h1.5v7.94444z" fill="#596388"/><path d="M-83.05555,195.33335v-3.5h14v3.5z" fill="#3895f4"/><path d="M-83.05555,164.08335v-3h13.75v3z" fill="#3994ef"/><path d="M47.94446,167.33335v-6.25h15v6.25z" fill="#3895f4"/><path d="M47.94446,195.58335v-3.75h15v3.75z" fill="#3895f4"/><path d="M-28.80555,195.83335v-3.75h31.5v3.75z" fill="#f9ffff"/><path d="M-28.55554,164.33336v-3.75h31.5v3.75z" fill="#f9ffff"/><path d="M62.94446,193.33333v-28.75h3.25v28.75z" fill="#8f9567"/><path d="M78.75,205v-10h29v10z" fill="#202020"/><path d="M89.25,198.5v-8h8v8z" fill="#e6e6e6"/></g></g></svg>