<svg version="1.1" xmlns="http://www.w3.org/2000/svg" xmlns:xlink="http://www.w3.org/1999/xlink" width="547.94449" height="44.41664" viewBox="0,0,547.94449,44.41664"><g transform="translate(-78.75,-160.58336)"><g data-paper-data="{&quot;isPaintingLayer&quot;:true}" fill-rule="nonzero" stroke="none" stroke-width="0" stroke-linecap="butt" stroke-linejoin="miter" stroke-miterlimit="10" stroke-dasharray="" stroke-dashoffset="0" style="mix-blend-mode: normal"><g><path d="M467.69445,192.58334v-28h7v28z" fill="#f6f497"/><path d="M322.12501,195.37502v-34.25h145.75v34.25z" fill="#60c9f6"/><path d="M322.00001,192.00002v-28h146v28z" fill="#3895f4"/><path d="M327.25001,187.50002v-18.5h135.5v18.5z" fill="#a1b4f6"/><path d="M348.12501,187.75002v-10.25h6v10.25z" fill="#808fc5"/><path d="M384.12501,187.50002v-18.5h3.25v18.5z" fill="#808fc5"/><path d="M426.37501,187.50002v-18.5h3.25v18.5z" fill="#808fc5"/><path d="M437.12501,186.75002v-17.5h4v17.5z" fill="#1d1d1d"/><path d="M440.87501,186.75002v-17.5h11.5v17.5z" fill="#808fc5"/><path d="M440.62501,181.50002v-7.75h11.25v7.75z" fill="#1d1d1d"/><path d="M451.93058,181.75002v-8h10.94444v8z" fill="#808fc5"/><path d="M457.37502,181.75002v-7.94444h1.5v7.94444z" fill="#596388"/><path d="M452.94445,167.33335v-6.25h15v6.25z" fill="#3895f4"/><path d="M452.94445,195.58335v-3.75h15v3.75z" fill="#3895f4"/><path d="M376.19445,195.83335v-3.75h31.5v3.75z" fill="#f9ffff"/><path d="M376.44446,164.33336v-3.75h31.5v3.75z" fill="#f9ffff"/><path d="M467.94445,193.33333v-28.75h3.25v28.75z" fill="#8f9567"/><path d="M321.94444,195.33335v-3.5h14v3.5z" fill="#3895f4"/><path d="M321.94444,164.08335v-3h13.75v3z" fill="#3994ef"/><path d="M314.19447,192.58334v-28h7v28z" fill="#f6f497"/></g><path d="M619.69449,192.58334v-28h7v28z" fill="#f6f497"/><path d="M474.12501,195.37502v-34.25h145.75v34.25z" fill="#60c9f6"/><path d="M474.00001,192.00002v-28h146v28z" fill="#3895f4"/><path d="M479.25001,187.50002v-18.5h135.5v18.5z" fill="#a1b4f6"/><path d="M500.12501,187.75002v-10.25h6v10.25z" fill="#808fc5"/><path d="M536.12501,187.50002v-18.5h3.25v18.5z" fill="#808fc5"/><path d="M578.37501,187.50002v-18.5h3.25v18.5z" fill="#808fc5"/><path d="M589.12501,186.75002v-17.5h4v17.5z" fill="#1d1d1d"/><path d="M592.87501,186.75002v-17.5h11.5v17.5z" fill="#808fc5"/><path d="M592.62501,181.50002v-7.75h11.25v7.75z" fill="#1d1d1d"/><path d="M603.93058,181.75002v-8h10.94444v8z" fill="#808fc5"/><path d="M609.37501,181.75002v-7.94444h1.5v7.94444z" fill="#596388"/><path d="M473.94445,195.33335v-3.5h14v3.5z" fill="#3895f4"/><path d="M473.94445,164.08335v-3h13.75v3z" fill="#3994ef"/><path d="M604.94449,167.33335v-6.25h15v6.25z" fill="#3895f4"/><path d="M604.94449,195.58335v-3.75h15v3.75z" fill="#3895f4"/><path d="M528.19445,195.83335v-3.75h31.5v3.75z" fill="#f9ffff"/><path d="M528.44448,164.33336v-3.75h31.5v3.75z" fill="#f9ffff"/><path d="M619.94449,193.33333v-28.75h3.25v28.75z" fill="#8f9567"/><path d="M78.75,205v-10h29v10z" fill="#202020"/><path d="M89.25,198.5v-8h8v8z" fill="#e6e6e6"/></g></g></svg>