<svg version="1.1" xmlns="http://www.w3.org/2000/svg" xmlns:xlink="http://www.w3.org/1999/xlink" width="495.50686" height="113.61605" viewBox="0,0,495.50686,113.61605"><g transform="translate(5.68121,-143.58033)"><g data-paper-data="{&quot;isPaintingLayer&quot;:true}" fill-rule="nonzero" stroke="none" stroke-width="0" stroke-linecap="butt" stroke-linejoin="miter" stroke-miterlimit="10" stroke-dasharray="" stroke-dashoffset="0" style="mix-blend-mode: normal"><path d="M27.17039,256.719v-32.37692h66.75028v32.37692z" fill="#667e54"/><path d="M-5.20633,256.65837v-32.37692h32.37692v32.37692z" fill="#9fca25"/><path d="M93.11519,256.95769v-32.37692h68.6548v32.37692z" fill="#667e54"/><path d="M60.73847,256.89706v-32.37692h32.37692v32.37692z" fill="#9fca25"/><path d="M27.40908,216.96267v-32.37692h66.75028v32.37692z" fill="#667e54"/><path d="M-4.96764,216.90204v-32.37692h32.37692v32.37692z" fill="#9fca25"/><path d="M422.83668,257.19638v-32.37692h66.75028v32.37692z" fill="#667e54"/><path d="M390.45996,257.13575v-32.37692h32.37692v32.37692z" fill="#9fca25"/><path d="M456.40475,256.42218v-32.37692h32.37692v32.37692z" fill="#9fca25"/><path d="M423.07537,216.48778v-32.37692h66.75028v32.37692z" fill="#667e54"/><path d="M390.69865,216.42715v-32.37692h32.37692v32.37692z" fill="#9fca25"/><path d="M456.64344,215.71358v-32.37692h32.37692v32.37692z" fill="#9fca25"/><path d="M422.3618,176.73145v-32.37692h66.75028v32.37692z" fill="#667e54"/><path d="M455.92987,175.95725v-32.37692h32.37692v32.37692z" fill="#9fca25"/><path d="M26.69551,177.20633v-32.37692h42.94372v32.37692z" fill="#667e54"/><path d="M-5.68121,177.1457v-32.37692h32.37692v32.37692z" fill="#9fca25"/></g></g></svg>