<svg version="1.1" xmlns="http://www.w3.org/2000/svg" xmlns:xlink="http://www.w3.org/1999/xlink" width="31.87814" height="28.95356" viewBox="0,0,31.87814,28.95356"><g transform="translate(-225.1493,-165.32816)"><g data-paper-data="{&quot;isPaintingLayer&quot;:true}" fill-rule="nonzero" stroke="none" stroke-width="0" stroke-linecap="butt" stroke-linejoin="miter" stroke-miterlimit="10" stroke-dasharray="" stroke-dashoffset="0" style="mix-blend-mode: normal"><path d="M233.58929,194.28172v-28.95356h11.9774v28.95356z" data-paper-data="{&quot;index&quot;:null}" fill="#ff6666"/><path d="M232.15244,176.36463c-1.4597,0 -5.85024,0 -5.85024,0c0,0 -0.875,-2.45971 -0.875,-3.5951c0,-0.95868 0.875,-2.77721 0.875,-2.77721h7.94319l0.25,7.99731c0,0 -1.46986,-1.625 -2.34295,-1.625z" data-paper-data="{&quot;index&quot;:null}" fill="#ff6666"/><path d="M226.1493,189.63268c0,0 -1,-2.16497 -1,-3.36315c0,-1.1859 1,-3.78944 1,-3.78944c0,0 4.3056,0 5.87814,0c1.05399,0 2.89063,-1.625 2.89063,-1.625l-0.25,8.77759z" data-paper-data="{&quot;index&quot;:null}" fill="#ff6666"/><path d="M244.65244,179.64453v-3.5h12.125v3.5z" data-paper-data="{&quot;index&quot;:null}" fill="#ffffff"/><path d="M254.40244,181.01953v-6h2.625v6z" data-paper-data="{&quot;index&quot;:null}" fill="#ffffff"/><path d="M244.52744,192.14453v-24.625h0.875v24.625z" data-paper-data="{&quot;index&quot;:null}" fill="#e05a5a"/></g></g></svg>