<svg version="1.1" xmlns="http://www.w3.org/2000/svg" xmlns:xlink="http://www.w3.org/1999/xlink" width="31.27914" height="30.78591" viewBox="0,0,31.27914,30.78591"><g transform="translate(-224.36043,-163.04454)"><g data-paper-data="{&quot;isPaintingLayer&quot;:true}" fill="#393b47" fill-rule="nonzero" stroke="none" stroke-width="0" stroke-linecap="butt" stroke-linejoin="miter" stroke-miterlimit="10" stroke-dasharray="" stroke-dashoffset="0" style="mix-blend-mode: normal"><path d="M246.80952,190.78118h5.58578v3.04927h-5.58578z" data-paper-data="{&quot;index&quot;:null}"/><path d="M252.45363,182.31023v9.78985h-8.64984v-9.78985z" data-paper-data="{&quot;index&quot;:null}"/><path d="M249.5322,173.96342v10.08029h-19.39908v-10.08029z" data-paper-data="{&quot;index&quot;:null}"/><path d="M232.7546,163.04455v11.16899h-2.58655v-11.16899z" data-paper-data="{&quot;index&quot;:null}"/><path d="M249.53823,163.59482v11.16899h-2.58655v-11.16899z" data-paper-data="{&quot;index&quot;:null}"/><path d="M232.22652,181.59264v3.85219h-2.12535v-3.85219z" data-paper-data="{&quot;index&quot;:null}"/><path d="M230.36684,183.31948v3.85219h-2.12535v-3.85219z" data-paper-data="{&quot;index&quot;:null}"/><path d="M228.34545,184.98857v3.85219h-2.12534v-3.85219z" data-paper-data="{&quot;index&quot;:null}"/><path d="M226.48578,186.71542v3.85219h-2.12534v-3.85219z" data-paper-data="{&quot;index&quot;:null}"/><path d="M250.94988,182.25605v2.07957h-1.64177v-2.07957z" data-paper-data="{&quot;index&quot;:null}"/><path d="M253.99414,181.3655v6.32079h-4.77778v-6.32079z" data-paper-data="{&quot;index&quot;:null}"/><path d="M255.63957,185.41261v2.29847h-1.81963v-2.29847z" data-paper-data="{&quot;index&quot;:null}"/></g></g></svg>