<svg version="1.1" xmlns="http://www.w3.org/2000/svg" xmlns:xlink="http://www.w3.org/1999/xlink" width="33.97089" height="16.11633" viewBox="0,0,33.97089,16.11633"><g transform="translate(-223.01456,-171.94184)"><g data-paper-data="{&quot;isPaintingLayer&quot;:true}" fill-rule="nonzero" stroke="none" stroke-width="0" stroke-linecap="butt" stroke-linejoin="miter" stroke-miterlimit="10" stroke-dasharray="" stroke-dashoffset="0" style="mix-blend-mode: normal"><path d="M223.01456,186.75059v-13.60804h27.95074v13.60804z" fill="#e4d7b9"/><path d="M234.62486,186.75059v-13.47593h1.29003v13.47593z" fill="#c4b99f"/><path d="M235.80739,186.75059v-13.47593h16.14888v13.47593z" fill="#8d604d"/><path d="M251.95627,184.18753v-8.08555h1.59495v8.08555z" fill="#e3d8b9"/><path d="M253.54535,184.10826v-7.92701h3.44009v7.92701z" fill="#6f3e35"/><path d="M229.03471,178.42723v-2.77445h6.77268v2.77445z" fill="#fdffff"/><path d="M229.14221,184.24038v-2.77445h6.66518v2.77445z" fill="#fdffff"/><path d="M235.16237,178.42723v-2.77445h0.64502v2.77445z" fill="#dcdede"/><path d="M235.16237,184.10826v-2.77445h0.64502v2.77445z" fill="#dcdede"/><path d="M251.93282,184.10826v-7.92701h0.86002v7.92701z" fill="#ccc2a5"/><path d="M245.18444,173.23114v-1.28931h4.12147v1.28931z" fill="#fdffff"/><path d="M245.25938,188.05816v-1.28931h4.12147v1.28931z" fill="#fdffff"/><path d="M238.47769,173.26582v-1.04145h2.47288v1.04145z" fill="#6f3e35"/><path d="M238.77743,187.63237v-1.04145h2.47288v1.04145z" fill="#6f3e35"/></g></g></svg>