<svg version="1.1" xmlns="http://www.w3.org/2000/svg" xmlns:xlink="http://www.w3.org/1999/xlink" width="787.94449" height="44.41664" viewBox="0,0,787.94449,44.41664"><g transform="translate(-78.75,-160.58336)"><g data-paper-data="{&quot;isPaintingLayer&quot;:true}" fill-rule="nonzero" stroke="none" stroke-width="0" stroke-linecap="butt" stroke-linejoin="miter" stroke-miterlimit="10" stroke-dasharray="" stroke-dashoffset="0" style="mix-blend-mode: normal"><g><path d="M707.69445,192.58334v-28h7v28z" fill="#f6f497"/><path d="M562.12501,195.37502v-34.25h145.75v34.25z" fill="#60c9f6"/><path d="M562.00001,192.00002v-28h146v28z" fill="#3895f4"/><path d="M567.25001,187.50002v-18.5h135.5v18.5z" fill="#a1b4f6"/><path d="M588.12501,187.75002v-10.25h6v10.25z" fill="#808fc5"/><path d="M624.12501,187.50002v-18.5h3.25v18.5z" fill="#808fc5"/><path d="M666.37501,187.50002v-18.5h3.25v18.5z" fill="#808fc5"/><path d="M677.12501,186.75002v-17.5h4v17.5z" fill="#1d1d1d"/><path d="M680.87501,186.75002v-17.5h11.5v17.5z" fill="#808fc5"/><path d="M680.62501,181.50002v-7.75h11.25v7.75z" fill="#1d1d1d"/><path d="M691.93058,181.75002v-8h10.94444v8z" fill="#808fc5"/><path d="M697.37502,181.75002v-7.94444h1.5v7.94444z" fill="#596388"/><path d="M692.94445,167.33335v-6.25h15v6.25z" fill="#3895f4"/><path d="M692.94445,195.58335v-3.75h15v3.75z" fill="#3895f4"/><path d="M616.19445,195.83335v-3.75h31.5v3.75z" fill="#f9ffff"/><path d="M616.44446,164.33336v-3.75h31.5v3.75z" fill="#f9ffff"/><path d="M707.94445,193.33333v-28.75h3.25v28.75z" fill="#8f9567"/><path d="M561.94444,195.33335v-3.5h14v3.5z" fill="#3895f4"/><path d="M561.94444,164.08335v-3h13.75v3z" fill="#3994ef"/><path d="M554.19447,192.58334v-28h7v28z" fill="#f6f497"/></g><path d="M859.69449,192.58334v-28h7v28z" fill="#f6f497"/><path d="M714.12501,195.37502v-34.25h145.75v34.25z" fill="#60c9f6"/><path d="M714.00001,192.00002v-28h146v28z" fill="#3895f4"/><path d="M719.25001,187.50002v-18.5h135.5v18.5z" fill="#a1b4f6"/><path d="M740.12501,187.75002v-10.25h6v10.25z" fill="#808fc5"/><path d="M776.12501,187.50002v-18.5h3.25v18.5z" fill="#808fc5"/><path d="M818.37501,187.50002v-18.5h3.25v18.5z" fill="#808fc5"/><path d="M829.12501,186.75002v-17.5h4v17.5z" fill="#1d1d1d"/><path d="M832.87501,186.75002v-17.5h11.5v17.5z" fill="#808fc5"/><path d="M832.62501,181.50002v-7.75h11.25v7.75z" fill="#1d1d1d"/><path d="M843.93058,181.75002v-8h10.94444v8z" fill="#808fc5"/><path d="M849.37501,181.75002v-7.94444h1.5v7.94444z" fill="#596388"/><path d="M713.94445,195.33335v-3.5h14v3.5z" fill="#3895f4"/><path d="M713.94445,164.08335v-3h13.75v3z" fill="#3994ef"/><path d="M844.94449,167.33335v-6.25h15v6.25z" fill="#3895f4"/><path d="M844.94449,195.58335v-3.75h15v3.75z" fill="#3895f4"/><path d="M768.19445,195.83335v-3.75h31.5v3.75z" fill="#f9ffff"/><path d="M768.44448,164.33336v-3.75h31.5v3.75z" fill="#f9ffff"/><path d="M859.94449,193.33333v-28.75h3.25v28.75z" fill="#8f9567"/><path d="M78.75,205v-10h29v10z" fill="#202020"/><path d="M89.25,198.5v-8h8v8z" fill="#e6e6e6"/></g></g></svg>