<svg version="1.1" xmlns="http://www.w3.org/2000/svg" xmlns:xlink="http://www.w3.org/1999/xlink" width="652.13886" height="44.41664" viewBox="0,0,652.13886,44.41664"><g transform="translate(201.05554,-160.58336)"><g data-paper-data="{&quot;isPaintingLayer&quot;:true}" fill-rule="nonzero" stroke="none" stroke-width="0" stroke-linecap="butt" stroke-linejoin="miter" stroke-miterlimit="10" stroke-dasharray="" stroke-dashoffset="0" style="mix-blend-mode: normal"><path d="M403.41667,195.08333v-34h47.66666v34z" fill="#2d2941"/><path d="M403.19447,192.58334v-28h7v28z" fill="#f6f497"/><path d="M257.62503,195.37502v-34.25h145.75v34.25z" fill="#60c9f6"/><path d="M257.50003,192.00002v-28h146v28z" fill="#3895f4"/><path d="M262.75003,187.50002v-18.5h135.5v18.5z" fill="#a1b4f6"/><path d="M283.62503,187.75002v-10.25h6v10.25z" fill="#808fc5"/><path d="M319.62503,187.50002v-18.5h3.25v18.5z" fill="#808fc5"/><path d="M361.87503,187.50002v-18.5h3.25v18.5z" fill="#808fc5"/><path d="M372.62503,186.75002v-17.5h4v17.5z" fill="#1d1d1d"/><path d="M376.37503,186.75002v-17.5h11.5v17.5z" fill="#808fc5"/><path d="M376.12503,181.50002v-7.75h11.25v7.75z" fill="#1d1d1d"/><path d="M387.4306,181.75002v-8h10.94444v8z" fill="#808fc5"/><path d="M392.87503,181.75002v-7.94444h1.5v7.94444z" fill="#596388"/><path d="M257.44445,195.33335v-3.5h14v3.5z" fill="#3895f4"/><path d="M257.44445,164.08335v-3h13.75v3z" fill="#3994ef"/><path d="M388.44447,167.33335v-6.25h15v6.25z" fill="#3895f4"/><path d="M388.44447,195.58335v-3.75h15v3.75z" fill="#3895f4"/><path d="M311.69445,195.83335v-3.75h31.5v3.75z" fill="#f9ffff"/><path d="M311.94446,164.33336v-3.75h31.5v3.75z" fill="#f9ffff"/><path d="M403.44447,193.33333v-28.75h3.25v28.75z" fill="#8f9567"/><path d="M250.19448,192.58334v-28h7v28z" fill="#f6f497"/><path d="M104.62503,195.37502v-34.25h145.75v34.25z" fill="#60c9f6"/><path d="M104.50003,192.00002v-28h146v28z" fill="#3895f4"/><path d="M109.75003,187.50002v-18.5h135.5v18.5z" fill="#a1b4f6"/><path d="M130.62502,187.75002v-10.25h6v10.25z" fill="#808fc5"/><path d="M166.62501,187.50002v-18.5h3.25v18.5z" fill="#808fc5"/><path d="M208.87503,187.50002v-18.5h3.25v18.5z" fill="#808fc5"/><path d="M219.62503,186.75002v-17.5h4v17.5z" fill="#1d1d1d"/><path d="M223.37503,186.75002v-17.5h11.5v17.5z" fill="#808fc5"/><path d="M223.12503,181.50002v-7.75h11.25v7.75z" fill="#1d1d1d"/><path d="M234.43059,181.75002v-8h10.94444v8z" fill="#808fc5"/><path d="M239.87503,181.75002v-7.94444h1.5v7.94444z" fill="#596388"/><path d="M104.44448,195.33335v-3.5h14v3.5z" fill="#3895f4"/><path d="M104.44448,164.08335v-3h13.75v3z" fill="#3994ef"/><path d="M235.44448,167.33335v-6.25h15v6.25z" fill="#3895f4"/><path d="M235.44448,195.58335v-3.75h15v3.75z" fill="#3895f4"/><path d="M158.69446,195.83335v-3.75h31.5v3.75z" fill="#f9ffff"/><path d="M158.94448,164.33336v-3.75h31.5v3.75z" fill="#f9ffff"/><path d="M250.44448,193.33333v-28.75h3.25v28.75z" fill="#8f9567"/><path d="M97.19448,192.58334v-28h7v28z" fill="#f6f497"/><path d="M-48.37497,195.37502v-34.25h145.75v34.25z" fill="#60c9f6"/><path d="M-48.49997,192.00002v-28h146v28z" fill="#3895f4"/><path d="M-43.24997,187.50002v-18.5h135.5v18.5z" fill="#a1b4f6"/><path d="M-22.37497,187.75002v-10.25h6v10.25z" fill="#808fc5"/><path d="M13.62502,187.50002v-18.5h3.25v18.5z" fill="#808fc5"/><path d="M55.87502,187.50002v-18.5h3.25v18.5z" fill="#808fc5"/><path d="M66.62502,186.75002v-17.5h4v17.5z" fill="#1d1d1d"/><path d="M70.37502,186.75002v-17.5h11.5v17.5z" fill="#808fc5"/><path d="M70.12502,181.50002v-7.75h11.25v7.75z" fill="#1d1d1d"/><path d="M81.43059,181.75002v-8h10.94444v8z" fill="#808fc5"/><path d="M86.87503,181.75002v-7.94444h1.5v7.94444z" fill="#596388"/><path d="M-48.55552,195.33335v-3.5h14v3.5z" fill="#3895f4"/><path d="M-48.55552,164.08335v-3h13.75v3z" fill="#3994ef"/><path d="M82.44447,167.33335v-6.25h15v6.25z" fill="#3895f4"/><path d="M82.44447,195.58335v-3.75h15v3.75z" fill="#3895f4"/><path d="M5.69447,195.83335v-3.75h31.5v3.75z" fill="#f9ffff"/><path d="M5.94448,164.33336v-3.75h31.5v3.75z" fill="#f9ffff"/><path d="M97.44448,193.33333v-28.75h3.25v28.75z" fill="#8f9567"/><path d="M-55.30552,192.58334v-28h7v28z" fill="#f6f497"/><path d="M-200.87496,195.37502v-34.25h145.75v34.25z" fill="#60c9f6"/><path d="M-200.99996,192.00002v-28h146v28z" fill="#3895f4"/><path d="M-195.74996,187.50002v-18.5h135.5v18.5z" fill="#a1b4f6"/><path d="M-174.87496,187.75002v-10.25h6v10.25z" fill="#808fc5"/><path d="M-138.87499,187.50002v-18.5h3.25v18.5z" fill="#808fc5"/><path d="M-96.62498,187.50002v-18.5h3.25v18.5z" fill="#808fc5"/><path d="M-85.87497,186.75002v-17.5h4v17.5z" fill="#1d1d1d"/><path d="M-82.12497,186.75002v-17.5h11.5v17.5z" fill="#808fc5"/><path d="M-82.37497,181.50002v-7.75h11.25v7.75z" fill="#1d1d1d"/><path d="M-71.06941,181.75002v-8h10.94444v8z" fill="#808fc5"/><path d="M-65.62497,181.75002v-7.94444h1.5v7.94444z" fill="#596388"/><path d="M-201.05553,195.33335v-3.5h14v3.5z" fill="#3895f4"/><path d="M-201.05553,164.08335v-3h13.75v3z" fill="#3994ef"/><path d="M-70.05553,167.33335v-6.25h15v6.25z" fill="#3895f4"/><path d="M-70.05553,195.58335v-3.75h15v3.75z" fill="#3895f4"/><path d="M-146.80553,195.83335v-3.75h31.5v3.75z" fill="#f9ffff"/><path d="M-146.55552,164.33336v-3.75h31.5v3.75z" fill="#f9ffff"/><path d="M-55.05552,193.33333v-28.75h3.25v28.75z" fill="#8f9567"/><path d="M78.75002,205v-10h29v10z" fill="#202020"/><path d="M89.25002,198.5v-8h8v8z" fill="#e6e6e6"/></g></g></svg>