<svg version="1.1" xmlns="http://www.w3.org/2000/svg" xmlns:xlink="http://www.w3.org/1999/xlink" width="72.91047" height="34.875" viewBox="0,0,72.91047,34.875"><g transform="translate(-189.60518,-162.5625)"><g data-paper-data="{&quot;isPaintingLayer&quot;:true}" fill-rule="nonzero" stroke="none" stroke-width="0" stroke-linecap="butt" stroke-linejoin="miter" stroke-miterlimit="10" stroke-dasharray="" stroke-dashoffset="0" style="mix-blend-mode: normal"><path d="M217.26046,165.92255v-3.36005h8.875v3.36005z" fill="#2b2d3c"/><path d="M216.26045,197.4375v-3.36005h9.625v3.36005z" fill="#2b2d3c"/><path d="M225.13018,167.31292v-4.75042h3.75v4.75042z" fill="#8870ab"/><path d="M224.75518,197.4375v-5.21387h3.75v5.21387z" fill="#8870ab"/><path d="M189.60518,193.9784v-28.39627h69.9v28.39627z" data-paper-data="{&quot;index&quot;:null}" fill="#2b2d3c"/><path d="M207.36982,193.91565v-28.38663h55.14583v28.38663z" fill="#25c3e6"/><path d="M252.38018,193.96159v-28.50249h10.125v28.50249z" fill="#29d7fe"/><path d="M207.38022,188.28426v-17.49543h55v17.49543z" fill="#1196bb"/><path d="M220.63019,194.07745v-28.61836h31.75v28.61836z" fill="#f5fffe"/><path d="M252.38018,188.63185v-17.84302h10.125v17.84302z" fill="#13b1dd"/><path d="M258.00518,189.13185v-19.00166h2.875v19.00166z" fill="#48ddff"/><path d="M256.75518,188.50685v-17.72716h1.5v17.72716z" fill="#0d7490"/></g></g></svg>