<svg version="1.1" xmlns="http://www.w3.org/2000/svg" xmlns:xlink="http://www.w3.org/1999/xlink" width="550.44449" height="44.41664" viewBox="0,0,550.44449,44.41664"><g transform="translate(-78.75,-160.58336)"><g data-paper-data="{&quot;isPaintingLayer&quot;:true}" fill-rule="nonzero" stroke="none" stroke-width="0" stroke-linecap="butt" stroke-linejoin="miter" stroke-miterlimit="10" stroke-dasharray="" stroke-dashoffset="0" style="mix-blend-mode: normal"><path d="M622.19449,192.58334v-28h7v28z" fill="#f6f497"/><path d="M476.62501,195.37502v-34.25h145.75v34.25z" fill="#60c9f6"/><path d="M476.50001,192.00002v-28h146v28z" fill="#3895f4"/><path d="M481.75001,187.50002v-18.5h135.5v18.5z" fill="#a1b4f6"/><path d="M502.62501,187.75002v-10.25h6v10.25z" fill="#808fc5"/><path d="M538.62501,187.50002v-18.5h3.25v18.5z" fill="#808fc5"/><path d="M580.87501,187.50002v-18.5h3.25v18.5z" fill="#808fc5"/><path d="M591.62501,186.75002v-17.5h4v17.5z" fill="#1d1d1d"/><path d="M595.37501,186.75002v-17.5h11.5v17.5z" fill="#808fc5"/><path d="M595.12501,181.50002v-7.75h11.25v7.75z" fill="#1d1d1d"/><path d="M606.43058,181.75002v-8h10.94444v8z" fill="#808fc5"/><path d="M611.87501,181.75002v-7.94444h1.5v7.94444z" fill="#596388"/><path d="M476.44446,195.33335v-3.5h14v3.5z" fill="#3895f4"/><path d="M476.44446,164.08335v-3h13.75v3z" fill="#3994ef"/><path d="M607.44449,167.33335v-6.25h15v6.25z" fill="#3895f4"/><path d="M607.44449,195.58335v-3.75h15v3.75z" fill="#3895f4"/><path d="M530.69445,195.83335v-3.75h31.5v3.75z" fill="#f9ffff"/><path d="M530.94448,164.33336v-3.75h31.5v3.75z" fill="#f9ffff"/><path d="M622.44449,193.33333v-28.75h3.25v28.75z" fill="#8f9567"/><path d="M469.69446,192.58334v-28h7v28z" fill="#f6f497"/><path d="M324.12501,195.37502v-34.25h145.75v34.25z" fill="#60c9f6"/><path d="M324.00001,192.00002v-28h146v28z" fill="#3895f4"/><path d="M329.25001,187.50002v-18.5h135.5v18.5z" fill="#a1b4f6"/><path d="M350.12501,187.75002v-10.25h6v10.25z" fill="#808fc5"/><path d="M386.12501,187.50002v-18.5h3.25v18.5z" fill="#808fc5"/><path d="M428.37501,187.50002v-18.5h3.25v18.5z" fill="#808fc5"/><path d="M439.12501,186.75002v-17.5h4v17.5z" fill="#1d1d1d"/><path d="M442.87501,186.75002v-17.5h11.5v17.5z" fill="#808fc5"/><path d="M442.62501,181.50002v-7.75h11.25v7.75z" fill="#1d1d1d"/><path d="M453.93058,181.75002v-8h10.94444v8z" fill="#808fc5"/><path d="M459.37501,181.75002v-7.94444h1.5v7.94444z" fill="#596388"/><path d="M323.94445,195.33335v-3.5h14v3.5z" fill="#3895f4"/><path d="M323.94445,164.08335v-3h13.75v3z" fill="#3994ef"/><path d="M454.94446,167.33335v-6.25h15v6.25z" fill="#3895f4"/><path d="M454.94446,195.58335v-3.75h15v3.75z" fill="#3895f4"/><path d="M378.19445,195.83335v-3.75h31.5v3.75z" fill="#f9ffff"/><path d="M378.44446,164.33336v-3.75h31.5v3.75z" fill="#f9ffff"/><path d="M469.94446,193.33333v-28.75h3.25v28.75z" fill="#8f9567"/><path d="M78.75,205v-10h29v10z" fill="#202020"/><path d="M89.25,198.5v-8h8v8z" fill="#e6e6e6"/><g><path d="M317.69444,192.58334v-28h7v28z" fill="#f6f497"/><path d="M172.12501,195.37502v-34.25h145.75v34.25z" fill="#60c9f6"/><path d="M172.00001,192.00002v-28h146v28z" fill="#3895f4"/><path d="M177.25001,187.50002v-18.5h135.5v18.5z" fill="#a1b4f6"/><path d="M198.12501,187.75002v-10.25h6v10.25z" fill="#808fc5"/><path d="M234.12501,187.50002v-18.5h3.25v18.5z" fill="#808fc5"/><path d="M276.37501,187.50002v-18.5h3.25v18.5z" fill="#808fc5"/><path d="M287.12501,186.75002v-17.5h4v17.5z" fill="#1d1d1d"/><path d="M290.87501,186.75002v-17.5h11.5v17.5z" fill="#808fc5"/><path d="M290.62501,181.50002v-7.75h11.25v7.75z" fill="#1d1d1d"/><path d="M301.93057,181.75002v-8h10.94444v8z" fill="#808fc5"/><path d="M307.37501,181.75002v-7.94444h1.5v7.94444z" fill="#596388"/><path d="M302.94444,167.33335v-6.25h15v6.25z" fill="#3895f4"/><path d="M302.94444,195.58335v-3.75h15v3.75z" fill="#3895f4"/><path d="M226.19445,195.83335v-3.75h31.5v3.75z" fill="#f9ffff"/><path d="M226.44446,164.33336v-3.75h31.5v3.75z" fill="#f9ffff"/><path d="M317.94444,193.33333v-28.75h3.25v28.75z" fill="#8f9567"/><path d="M171.94445,195.33335v-3.5h14v3.5z" fill="#3895f4"/><path d="M171.94445,164.08335v-3h13.75v3z" fill="#3994ef"/><path d="M164.19447,192.58334v-28h7v28z" fill="#f6f497"/></g></g></g></svg>