<svg version="1.1" xmlns="http://www.w3.org/2000/svg" xmlns:xlink="http://www.w3.org/1999/xlink" width="475.44448" height="44.41664" viewBox="0,0,475.44448,44.41664"><g transform="translate(-78.75,-160.58336)"><g data-paper-data="{&quot;isPaintingLayer&quot;:true}" fill-rule="nonzero" stroke="none" stroke-width="0" stroke-linecap="butt" stroke-linejoin="miter" stroke-miterlimit="10" stroke-dasharray="" stroke-dashoffset="0" style="mix-blend-mode: normal"><path d="M242.69445,192.58334v-28h7v28z" fill="#f6f497"/><path d="M97.12501,195.37502v-34.25h145.75v34.25z" fill="#60c9f6"/><path d="M97.00001,192.00002v-28h146v28z" fill="#3895f4"/><path d="M102.25001,187.50002v-18.5h135.5v18.5z" fill="#a1b4f6"/><path d="M123.12501,187.75002v-10.25h6v10.25z" fill="#808fc5"/><path d="M159.125,187.50002v-18.5h3.25v18.5z" fill="#808fc5"/><path d="M201.37501,187.50002v-18.5h3.25v18.5z" fill="#808fc5"/><path d="M212.12501,186.75002v-17.5h4v17.5z" fill="#1d1d1d"/><path d="M215.87501,186.75002v-17.5h11.5v17.5z" fill="#808fc5"/><path d="M215.62501,181.50002v-7.75h11.25v7.75z" fill="#1d1d1d"/><path d="M226.93058,181.75002v-8h10.94444v8z" fill="#808fc5"/><path d="M232.37502,181.75002v-7.94444h1.5v7.94444z" fill="#596388"/><path d="M227.94445,167.33335v-6.25h15v6.25z" fill="#3895f4"/><path d="M227.94445,195.58335v-3.75h15v3.75z" fill="#3895f4"/><path d="M151.19445,195.83335v-3.75h31.5v3.75z" fill="#f9ffff"/><path d="M151.44446,164.33336v-3.75h31.5v3.75z" fill="#f9ffff"/><path d="M242.94445,193.33333v-28.75h3.25v28.75z" fill="#8f9567"/><path d="M96.94445,195.33335v-3.5h14v3.5z" fill="#3895f4"/><path d="M96.94445,164.08335v-3h13.75v3z" fill="#3994ef"/><path d="M89.19447,192.58334v-28h7v28z" fill="#f6f497"/><path d="M547.19448,192.58334v-28h7v28z" fill="#f6f497"/><path d="M401.62501,195.37502v-34.25h145.75v34.25z" fill="#60c9f6"/><path d="M401.50001,192.00002v-28h146v28z" fill="#3895f4"/><path d="M406.75001,187.50002v-18.5h135.5v18.5z" fill="#a1b4f6"/><path d="M427.62501,187.75002v-10.25h6v10.25z" fill="#808fc5"/><path d="M463.62501,187.50002v-18.5h3.25v18.5z" fill="#808fc5"/><path d="M505.87501,187.50002v-18.5h3.25v18.5z" fill="#808fc5"/><path d="M516.62501,186.75002v-17.5h4v17.5z" fill="#1d1d1d"/><path d="M520.37501,186.75002v-17.5h11.5v17.5z" fill="#808fc5"/><path d="M520.12501,181.50002v-7.75h11.25v7.75z" fill="#1d1d1d"/><path d="M531.43058,181.75002v-8h10.94444v8z" fill="#808fc5"/><path d="M536.87501,181.75002v-7.94444h1.5v7.94444z" fill="#596388"/><path d="M401.44446,195.33335v-3.5h14v3.5z" fill="#3895f4"/><path d="M401.44446,164.08335v-3h13.75v3z" fill="#3994ef"/><path d="M532.44448,167.33335v-6.25h15v6.25z" fill="#3895f4"/><path d="M532.44448,195.58335v-3.75h15v3.75z" fill="#3895f4"/><path d="M455.69445,195.83335v-3.75h31.5v3.75z" fill="#f9ffff"/><path d="M455.94446,164.33336v-3.75h31.5v3.75z" fill="#f9ffff"/><path d="M547.44448,193.33333v-28.75h3.25v28.75z" fill="#8f9567"/><path d="M394.69446,192.58334v-28h7v28z" fill="#f6f497"/><path d="M249.12501,195.37502v-34.25h145.75v34.25z" fill="#60c9f6"/><path d="M249.00001,192.00002v-28h146v28z" fill="#3895f4"/><path d="M254.25001,187.50002v-18.5h135.5v18.5z" fill="#a1b4f6"/><path d="M275.12501,187.75002v-10.25h6v10.25z" fill="#808fc5"/><path d="M311.12501,187.50002v-18.5h3.25v18.5z" fill="#808fc5"/><path d="M353.37501,187.50002v-18.5h3.25v18.5z" fill="#808fc5"/><path d="M364.12501,186.75002v-17.5h4v17.5z" fill="#1d1d1d"/><path d="M367.87501,186.75002v-17.5h11.5v17.5z" fill="#808fc5"/><path d="M367.62501,181.50002v-7.75h11.25v7.75z" fill="#1d1d1d"/><path d="M378.93058,181.75002v-8h10.94444v8z" fill="#808fc5"/><path d="M384.37501,181.75002v-7.94444h1.5v7.94444z" fill="#596388"/><path d="M248.94445,195.33335v-3.5h14v3.5z" fill="#3895f4"/><path d="M248.94445,164.08335v-3h13.75v3z" fill="#3994ef"/><path d="M379.94446,167.33335v-6.25h15v6.25z" fill="#3895f4"/><path d="M379.94446,195.58335v-3.75h15v3.75z" fill="#3895f4"/><path d="M303.19445,195.83335v-3.75h31.5v3.75z" fill="#f9ffff"/><path d="M303.44446,164.33336v-3.75h31.5v3.75z" fill="#f9ffff"/><path d="M394.94446,193.33333v-28.75h3.25v28.75z" fill="#8f9567"/><path d="M78.75,205v-10h29v10z" fill="#202020"/><path d="M89.25,198.5v-8h8v8z" fill="#e6e6e6"/></g></g></svg>