<svg version="1.1" xmlns="http://www.w3.org/2000/svg" xmlns:xlink="http://www.w3.org/1999/xlink" width="31.27915" height="30.78592" viewBox="0,0,31.27915,30.78592"><g transform="translate(-224.36043,-166.16954)"><g data-paper-data="{&quot;isPaintingLayer&quot;:true}" fill="#393b47" fill-rule="nonzero" stroke="none" stroke-width="0" stroke-linecap="butt" stroke-linejoin="miter" stroke-miterlimit="10" stroke-dasharray="" stroke-dashoffset="0" style="mix-blend-mode: normal"><path d="M246.80952,166.16954h5.58577v3.04928h-5.58577z" data-paper-data="{&quot;index&quot;:null}"/><path d="M243.80379,177.68977v-9.78985h8.64985v9.78985z" data-paper-data="{&quot;index&quot;:null}"/><path d="M230.13312,186.03658v-10.08029h19.39907v10.08029z" data-paper-data="{&quot;index&quot;:null}"/><path d="M230.16805,196.95546v-11.16898h2.58655v11.16898z" data-paper-data="{&quot;index&quot;:null}"/><path d="M246.95168,196.40518v-11.16898h2.58655v11.16898z" data-paper-data="{&quot;index&quot;:null}"/><path d="M230.10117,178.40736v-3.85219h2.12534v3.85219z"/><path d="M228.2415,176.68052v-3.85219h2.12534v3.85219z"/><path d="M226.2201,175.01143v-3.85219h2.12534v3.85219z"/><path d="M224.36043,173.28458v-3.85219h2.12534v3.85219z"/><path d="M249.30811,177.74395v-2.07957h1.64176v2.07957z"/><path d="M249.21636,178.6345v-6.32079h4.77778v6.32079z"/><path d="M253.81995,174.58739v-2.29847h1.81963v2.29847z"/></g></g></svg>