<svg version="1.1" xmlns="http://www.w3.org/2000/svg" xmlns:xlink="http://www.w3.org/1999/xlink" width="131.34735" height="24.09531" viewBox="0,0,131.34735,24.09531"><g transform="translate(-179.25985,-168.30143)"><g data-paper-data="{&quot;isPaintingLayer&quot;:true}" fill-rule="nonzero" stroke="none" stroke-width="0" stroke-linecap="butt" stroke-linejoin="miter" stroke-miterlimit="10" stroke-dasharray="" stroke-dashoffset="0" style="mix-blend-mode: normal"><path d="M179.32194,191.66433v-23.32866h121.35612v23.32866z" fill="#78434a"/><path d="M300.65223,191.70435v-23.40292h9.95497v23.40292z" fill="#4783c0"/><path d="M179.2972,191.5297v-23.22827h5.76341v23.22827z" fill="#8f5f65"/><path d="M295.43856,191.5297v-23.22827h5.23946v23.22827z" fill="#8f5f65"/><path d="M185.23525,173.89018v-5.41411h22.52968v5.41411z" fill="#6b3238"/><path d="M207.76493,179.80008v-6.08453h6.28736v6.08453z" fill="#6b3238"/><path d="M271.86099,182.44797v-5.76341h23.57757v5.76341z" fill="#6b3238"/><path d="M231.51715,186.1156v-6.1127h26.5466v6.1127z" fill="#6b3238"/><path d="M257.71445,180.35218v-6.23361h6.57057v6.23361z" fill="#6b3238"/><path d="M285.65823,176.68456v-5.58876h9.78033v5.58876z" fill="#6b3238"/><path d="M185.23525,191.5297v-5.76341h28.99168v5.76341z" fill="#6b3238"/><path d="M179.25985,192.39674v-1.03549h121.28224v1.03549z" fill="#573136"/></g></g></svg>