<svg version="1.1" xmlns="http://www.w3.org/2000/svg" xmlns:xlink="http://www.w3.org/1999/xlink" width="44.98184" height="38.22424" viewBox="0,0,44.98184,38.22424"><g transform="translate(-217.50908,-160.88787)"><g data-paper-data="{&quot;isPaintingLayer&quot;:true}" fill="#393b47" fill-rule="nonzero" stroke="none" stroke-width="0" stroke-linecap="butt" stroke-linejoin="miter" stroke-miterlimit="10" stroke-dasharray="" stroke-dashoffset="0" style="mix-blend-mode: normal"><path d="M245.59555,195.69914h9.65275v3.41298h-9.65275z" data-paper-data="{&quot;index&quot;:null}"/><path d="M257.05181,183.8602v12.15607h-11.53993v-12.15607z" data-paper-data="{&quot;index&quot;:null}"/><path d="M252.9887,171.0908v13.15696h-25.32v-13.15696z" data-paper-data="{&quot;index&quot;:null}"/><path d="M231.09029,160.9181v10.69067h-3.376v-10.69067z" data-paper-data="{&quot;index&quot;:null}"/><path d="M252.99658,161.44481v10.69067h-3.376v-10.69067z" data-paper-data="{&quot;index&quot;:null}"/><path d="M262.49092,187.24864v4.24h-5.81422v-4.24z" data-paper-data="{&quot;index&quot;:null}"/><path d="M227.77604,179.17359v5.02795h-2.77404v-5.02795z" data-paper-data="{&quot;index&quot;:null}"/><path d="M225.34875,181.42749v5.02795h-2.77404v-5.02795z" data-paper-data="{&quot;index&quot;:null}"/><path d="M222.7104,183.60602v5.02795h-2.77404v-5.02795z" data-paper-data="{&quot;index&quot;:null}"/><path d="M220.28312,185.85993v5.02795h-2.77404v-5.02795z" data-paper-data="{&quot;index&quot;:null}"/><path d="M233.34747,160.88788v2.57143h-2.71429v-2.57143z" data-paper-data="{&quot;index&quot;:null}"/><path d="M255.06175,160.88788v2.57143h-5.42857v-2.57143z" data-paper-data="{&quot;index&quot;:null}"/><path d="M254.83909,181.91448v2.71429h-2.14286v-2.71429z" data-paper-data="{&quot;index&quot;:null}"/></g></g></svg>