<svg version="1.1" xmlns="http://www.w3.org/2000/svg" xmlns:xlink="http://www.w3.org/1999/xlink" width="193.97222" height="44.41664" viewBox="0,0,193.97222,44.41664"><g transform="translate(79.55556,-160.58336)"><g data-paper-data="{&quot;isPaintingLayer&quot;:true}" fill-rule="nonzero" stroke="none" stroke-width="0" stroke-linecap="butt" stroke-linejoin="miter" stroke-miterlimit="10" stroke-dasharray="" stroke-dashoffset="0" style="mix-blend-mode: normal"><path d="M66.75,195.41667v-34h47.66667v34z" fill="#2d2941"/><path d="M66.19444,192.58334v-28h7v28z" fill="#f6f497"/><path d="M-79.375,195.37502v-34.25h145.75v34.25z" fill="#60c9f6"/><path d="M-79.5,192.00002v-28h146v28z" fill="#3895f4"/><path d="M-74.25,187.50002v-18.5h135.5v18.5z" fill="#a1b4f6"/><path d="M-53.375,187.75002v-10.25h6v10.25z" fill="#808fc5"/><path d="M-17.375,187.50002v-18.5h3.25v18.5z" fill="#808fc5"/><path d="M24.875,187.50002v-18.5h3.25v18.5z" fill="#808fc5"/><path d="M35.625,186.75002v-17.5h4v17.5z" fill="#1d1d1d"/><path d="M39.375,186.75002v-17.5h11.5v17.5z" fill="#808fc5"/><path d="M39.125,181.50002v-7.75h11.25v7.75z" fill="#1d1d1d"/><path d="M50.43056,181.75002v-8h10.94444v8z" fill="#808fc5"/><path d="M55.875,181.75002v-7.94444h1.5v7.94444z" fill="#596388"/><path d="M-79.55556,195.33335v-3.5h14v3.5z" fill="#3895f4"/><path d="M-79.55556,164.08335v-3h13.75v3z" fill="#3994ef"/><path d="M51.44444,167.33335v-6.25h15v6.25z" fill="#3895f4"/><path d="M51.44444,195.58335v-3.75h15v3.75z" fill="#3895f4"/><path d="M-25.30556,195.83335v-3.75h31.5v3.75z" fill="#f9ffff"/><path d="M-25.05555,164.33336v-3.75h31.5v3.75z" fill="#f9ffff"/><path d="M66.44444,193.33333v-28.75h3.25v28.75z" fill="#8f9567"/><path d="M78.75,205v-10h29v10z" fill="#202020"/><path d="M89.25,198.5v-8h8v8z" fill="#e6e6e6"/></g></g></svg>