<svg version="1.1" xmlns="http://www.w3.org/2000/svg" xmlns:xlink="http://www.w3.org/1999/xlink" width="77.62482" height="34.75" viewBox="0,0,77.62482,34.75"><g transform="translate(-207.49482,-162.5625)"><g data-paper-data="{&quot;isPaintingLayer&quot;:true}" fill-rule="nonzero" stroke="none" stroke-width="0" stroke-linecap="butt" stroke-linejoin="miter" stroke-miterlimit="10" stroke-dasharray="" stroke-dashoffset="0" style="mix-blend-mode: normal"><path d="M213.16969,193.7284v-28.14627h68.70745v28.14627z" fill="#2b2d3c"/><path d="M278.64681,191.16031v-23.62528h6.47283v23.62528z" fill="#2b2d3c"/><path d="M227.74992,165.92255v-3.36005h8.875v3.36005z" fill="#2b2d3c"/><path d="M227.49991,197.3125v-3.36005h9.625v3.36005z" fill="#2b2d3c"/><path d="M225.13018,167.31292v-4.75042h3.75v4.75042z" fill="#8870ab"/><path d="M224.75518,197.3125v-5.21387h3.75v5.21387z" fill="#8870ab"/><path d="M207.49482,193.91565v-28.38663h55.02083v28.38663z" fill="#29d7fe"/><path d="M252.38018,193.96159v-28.50249h10.125v28.50249z" fill="#25c5e8"/><path d="M207.50522,188.28426v-17.49543h54.875v17.49543z" fill="#13b1dd"/><path d="M220.63019,194.07745v-28.61836h31.75v28.61836z" fill="#f5fffe"/><path d="M252.38018,188.63185v-17.84302h10.125v17.84302z" fill="#108aac"/><path d="M258.00518,188.63185v-19.00166h2.875v19.00166z" fill="#48ddff"/><path d="M261.00518,188.63185v-17.72716h1.5v17.72716z" fill="#0d7490"/></g></g></svg>