<svg version="1.1" xmlns="http://www.w3.org/2000/svg" xmlns:xlink="http://www.w3.org/1999/xlink" width="618.00002" height="44.41664" viewBox="0,0,618.00002,44.41664"><g transform="translate(-14.19446,-160.58336)"><g data-paper-data="{&quot;isPaintingLayer&quot;:true}" fill-rule="nonzero" stroke="none" stroke-width="0" stroke-linecap="butt" stroke-linejoin="miter" stroke-miterlimit="10" stroke-dasharray="" stroke-dashoffset="0" style="mix-blend-mode: normal"><path d="M625.19449,192.58334v-28h7v28z" fill="#f6f497"/><path d="M479.62501,195.37502v-34.25h145.75v34.25z" fill="#60c9f6"/><path d="M479.50001,192.00002v-28h146v28z" fill="#3895f4"/><path d="M484.75001,187.50002v-18.5h135.5v18.5z" fill="#a1b4f6"/><path d="M505.62501,187.75002v-10.25h6v10.25z" fill="#808fc5"/><path d="M541.62501,187.50002v-18.5h3.25v18.5z" fill="#808fc5"/><path d="M583.87501,187.50002v-18.5h3.25v18.5z" fill="#808fc5"/><path d="M594.62501,186.75002v-17.5h4v17.5z" fill="#1d1d1d"/><path d="M598.37501,186.75002v-17.5h11.5v17.5z" fill="#808fc5"/><path d="M598.12501,181.50002v-7.75h11.25v7.75z" fill="#1d1d1d"/><path d="M609.43058,181.75002v-8h10.94444v8z" fill="#808fc5"/><path d="M614.87501,181.75002v-7.94444h1.5v7.94444z" fill="#596388"/><path d="M479.44446,195.33335v-3.5h14v3.5z" fill="#3895f4"/><path d="M479.44446,164.08335v-3h13.75v3z" fill="#3994ef"/><path d="M610.44449,167.33335v-6.25h15v6.25z" fill="#3895f4"/><path d="M610.44449,195.58335v-3.75h15v3.75z" fill="#3895f4"/><path d="M533.69445,195.83335v-3.75h31.5v3.75z" fill="#f9ffff"/><path d="M533.94448,164.33336v-3.75h31.5v3.75z" fill="#f9ffff"/><path d="M625.44449,193.33333v-28.75h3.25v28.75z" fill="#8f9567"/><path d="M472.19446,192.58334v-28h7v28z" fill="#f6f497"/><path d="M326.62501,195.37502v-34.25h145.75v34.25z" fill="#60c9f6"/><path d="M326.50001,192.00002v-28h146v28z" fill="#3895f4"/><path d="M331.75001,187.50002v-18.5h135.5v18.5z" fill="#a1b4f6"/><path d="M352.62501,187.75002v-10.25h6v10.25z" fill="#808fc5"/><path d="M388.62501,187.50002v-18.5h3.25v18.5z" fill="#808fc5"/><path d="M430.87501,187.50002v-18.5h3.25v18.5z" fill="#808fc5"/><path d="M441.62501,186.75002v-17.5h4v17.5z" fill="#1d1d1d"/><path d="M445.37501,186.75002v-17.5h11.5v17.5z" fill="#808fc5"/><path d="M445.12501,181.50002v-7.75h11.25v7.75z" fill="#1d1d1d"/><path d="M456.43058,181.75002v-8h10.94444v8z" fill="#808fc5"/><path d="M461.87501,181.75002v-7.94444h1.5v7.94444z" fill="#596388"/><path d="M326.44446,195.33335v-3.5h14v3.5z" fill="#3895f4"/><path d="M326.44446,164.08335v-3h13.75v3z" fill="#3994ef"/><path d="M457.44446,167.33335v-6.25h15v6.25z" fill="#3895f4"/><path d="M457.44446,195.58335v-3.75h15v3.75z" fill="#3895f4"/><path d="M380.69445,195.83335v-3.75h31.5v3.75z" fill="#f9ffff"/><path d="M380.94446,164.33336v-3.75h31.5v3.75z" fill="#f9ffff"/><path d="M472.44446,193.33333v-28.75h3.25v28.75z" fill="#8f9567"/><path d="M319.69446,192.58334v-28h7v28z" fill="#f6f497"/><path d="M174.12501,195.37502v-34.25h145.75v34.25z" fill="#60c9f6"/><path d="M174.00001,192.00002v-28h146v28z" fill="#3895f4"/><path d="M179.25001,187.50002v-18.5h135.5v18.5z" fill="#a1b4f6"/><path d="M200.12501,187.75002v-10.25h6v10.25z" fill="#808fc5"/><path d="M236.125,187.50002v-18.5h3.25v18.5z" fill="#808fc5"/><path d="M278.37501,187.50002v-18.5h3.25v18.5z" fill="#808fc5"/><path d="M289.12501,186.75002v-17.5h4v17.5z" fill="#1d1d1d"/><path d="M292.87501,186.75002v-17.5h11.5v17.5z" fill="#808fc5"/><path d="M292.62501,181.50002v-7.75h11.25v7.75z" fill="#1d1d1d"/><path d="M303.93057,181.75002v-8h10.94444v8z" fill="#808fc5"/><path d="M309.37501,181.75002v-7.94444h1.5v7.94444z" fill="#596388"/><path d="M173.94445,195.33335v-3.5h14v3.5z" fill="#3895f4"/><path d="M173.94445,164.08335v-3h13.75v3z" fill="#3994ef"/><path d="M304.94446,167.33335v-6.25h15v6.25z" fill="#3895f4"/><path d="M304.94446,195.58335v-3.75h15v3.75z" fill="#3895f4"/><path d="M228.19445,195.83335v-3.75h31.5v3.75z" fill="#f9ffff"/><path d="M228.44446,164.33336v-3.75h31.5v3.75z" fill="#f9ffff"/><path d="M319.94446,193.33333v-28.75h3.25v28.75z" fill="#8f9567"/><path d="M78.75,205v-10h29v10z" fill="#202020"/><path d="M89.25,198.5v-8h8v8z" fill="#e6e6e6"/><path d="M167.69445,192.58334v-28h7v28z" fill="#f6f497"/><path d="M22.12501,195.37502v-34.25h145.75v34.25z" fill="#60c9f6"/><path d="M22.00001,192.00002v-28h146v28z" fill="#3895f4"/><path d="M27.25001,187.50002v-18.5h135.5v18.5z" fill="#a1b4f6"/><path d="M48.12501,187.75002v-10.25h6v10.25z" fill="#808fc5"/><path d="M84.12501,187.50002v-18.5h3.25v18.5z" fill="#808fc5"/><path d="M126.37501,187.50002v-18.5h3.25v18.5z" fill="#808fc5"/><path d="M137.125,186.75002v-17.5h4v17.5z" fill="#1d1d1d"/><path d="M140.875,186.75002v-17.5h11.5v17.5z" fill="#808fc5"/><path d="M140.625,181.50002v-7.75h11.25v7.75z" fill="#1d1d1d"/><path d="M151.93058,181.75002v-8h10.94444v8z" fill="#808fc5"/><path d="M157.37501,181.75002v-7.94444h1.5v7.94444z" fill="#596388"/><path d="M152.94445,167.33335v-6.25h15v6.25z" fill="#3895f4"/><path d="M152.94445,195.58335v-3.75h15v3.75z" fill="#3895f4"/><path d="M76.19445,195.83335v-3.75h31.5v3.75z" fill="#f9ffff"/><path d="M76.44446,164.33336v-3.75h31.5v3.75z" fill="#f9ffff"/><path d="M167.94445,193.33333v-28.75h3.25v28.75z" fill="#8f9567"/><path d="M21.94445,195.33335v-3.5h14v3.5z" fill="#3895f4"/><path d="M21.94445,164.08335v-3h13.75v3z" fill="#3994ef"/><path d="M14.19447,192.58334v-28h7v28z" fill="#f6f497"/></g></g></svg>