<svg version="1.1" xmlns="http://www.w3.org/2000/svg" xmlns:xlink="http://www.w3.org/1999/xlink" width="85.74982" height="34.375" viewBox="0,0,85.74982,34.375"><g transform="translate(-200.74482,-163.0625)"><g data-paper-data="{&quot;isPaintingLayer&quot;:true}" fill-rule="nonzero" stroke="none" stroke-width="0" stroke-linecap="butt" stroke-linejoin="miter" stroke-miterlimit="10" stroke-dasharray="" stroke-dashoffset="0" style="mix-blend-mode: normal"><path d="M233.87492,165.28841v-2.22591h11.625v2.22591z" fill="#2b2d3c"/><path d="M233.37491,197.4375v-2.22591h12.125v2.22591z" fill="#2b2d3c"/><path d="M231.13018,166.77845v-3.71595h7.25v3.71595z" fill="#a3d162"/><path d="M230.75518,197.4375v-3.96262h7.5v3.96262z" fill="#a3d162"/><path d="M256.50518,192.25633v-24.65141h8.5v24.65141z" fill="#917ede"/><path d="M280.43805,192.63894v-24.89597h6.05659v24.89597z" fill="#2b2d3c"/><path d="M208.00923,195.2394v-30.07477h74.52056v30.07477z" fill="#2b2d3c"/><path d="M200.74482,195.28819v-30.42151h64.19751v30.42151z" fill="#bdf373"/><path d="M256.50518,192.25633v-24.15141h8.5v24.15141z" fill="#a3d162"/><path d="M200.75645,189.25311v-18.74958h64.0344v18.74958z" fill="#90d55f"/><path d="M230.63019,192.35361v-24.37371h31.75v24.37371z" fill="#f5fffe"/><path d="M262.50518,189.50062v-19.12209h2.5v19.12209z" fill="#7eb953"/></g></g></svg>