<svg version="1.1" xmlns="http://www.w3.org/2000/svg" xmlns:xlink="http://www.w3.org/1999/xlink" width="32.746" height="25.85826" viewBox="0,0,32.746,25.85826"><g transform="translate(-223.127,-167.07087)"><g data-paper-data="{&quot;isPaintingLayer&quot;:true}" fill-rule="nonzero" stroke="none" stroke-width="0" stroke-linecap="butt" stroke-linejoin="miter" stroke-miterlimit="10" stroke-dasharray="" stroke-dashoffset="0" style="mix-blend-mode: normal"><path d="M228.73265,188.73766v-17.714h20.91998v17.714z" fill="#408568"/><path d="M249.66702,184.06301v-8.44427h6.20598v8.44427z" fill="#fff261"/><path d="M234.23162,170.9695v-3.89863h10.97982v3.89863z" fill="#844c55"/><path d="M233.99293,192.92913v-4.37601h11.77545v4.37601z" fill="#844c55"/><path d="M233.99293,190.38308v-1.59128h11.77545v1.59128z" fill="#683c43"/><path d="M234.23162,171.12863v-1.59128h11.05937v1.59128z" fill="#683c43"/><path d="M249.58745,184.06301v-8.4897h1.51172v8.4897z" fill="#e4d857"/><path d="M223.127,186.80271v-14.16237h5.70498v14.16237z" fill="#844c55"/><path d="M227.15084,186.71224v-14.03819h1.7504v14.03819z" fill="#683c43"/><path d="M223.9375,185.75v-12.25h2.25v12.25z" fill="#995964"/><path d="M236.0625,171.125v-0.625h7.125v0.625z" fill="#ffffff"/><path d="M236.3125,189.25v-0.75h7.375v0.75z" fill="#ffffff"/></g></g></svg>