<svg version="1.1" xmlns="http://www.w3.org/2000/svg" xmlns:xlink="http://www.w3.org/1999/xlink" width="32.86963" height="13.4215" viewBox="0,0,32.86963,13.4215"><g transform="translate(-223.56519,-173.28925)"><g data-paper-data="{&quot;isPaintingLayer&quot;:true}" fill-rule="nonzero" stroke="none" stroke-width="0" stroke-linecap="butt" stroke-linejoin="miter" stroke-miterlimit="10" stroke-dasharray="" stroke-dashoffset="0" style="mix-blend-mode: normal"><path d="M230.29511,185.01168v-10.13006h17.12108v10.13006z" fill="#efefed"/><path d="M223.56519,180.43764v-2.05206h8.27284v2.05206z" fill="#ebf0ef"/><path d="M233.59309,176.32335v-1.41747h4.01458v1.41747z" fill="#fcd29b"/><path d="M228.24833,180.39691v-1.98586h1.06039v1.98586z" fill="#dcdcda"/><path d="M225.63053,180.43764v-1.98586h0.96791v1.98586z" fill="#dcdcda"/><path d="M237.56984,179.24378v-2.84661h4.01458v2.84661z" fill="#fcd29b"/><path d="M233.71738,184.8982v-1.41748h4.01458v1.41748z" fill="#fcd29b"/><path d="M230.79592,180.39691v-1.98586h1.06039v1.98586z" fill="#dcdcda"/><path d="M246.3687,184.90879v-10.00398h7.02142v10.00398z" fill="#eaeae7"/><path d="M253.328,182.79616v-5.46802h1.42913v5.46802z" fill="#eaeae7"/><path d="M254.75713,180.86991v-1.92624h1.67769v1.92624z" fill="#0e0e0e"/><g fill="#f7f7f4"><path d="M248.54348,185.0952v-4.10101h4.84665v4.10101z"/><path d="M251.77458,186.71075v-1.61556h1.61555v1.61556z"/></g><g fill="#f7f7f4"><path d="M253.39011,174.9048v4.10102h-4.84665v-4.10102z" data-paper-data="{&quot;index&quot;:null}"/><path d="M253.39011,173.28925v1.61555h-1.61556v-1.61555z" data-paper-data="{&quot;index&quot;:null}"/></g><path d="M245.56092,184.97091v-10.00398h0.93204v10.00398z" fill="#e1e1df"/><path d="M250.90465,185.09519v-4.10102h0.93204v4.10102z" fill="#e1e1df"/><path d="M250.78038,179.00581v-4.10102h0.93204v4.10102z" fill="#e1e1df"/><path d="M248.66774,179.6893v-0.6835h4.84665v0.6835z" fill="#e1e1df"/><path d="M248.54347,180.93204v-0.6835h4.84665v0.6835z" fill="#e1e1df"/><path d="M253.39011,182.73399v-5.34375h0.62137v5.34375z" fill="#e1e1df"/></g></g></svg>