<svg version="1.1" xmlns="http://www.w3.org/2000/svg" xmlns:xlink="http://www.w3.org/1999/xlink" width="21.24004" height="27.30808" viewBox="0,0,21.24004,27.30808"><g transform="translate(-229.37998,-166.7904)"><g data-paper-data="{&quot;isPaintingLayer&quot;:true}" fill-rule="nonzero" stroke="none" stroke-width="0" stroke-linecap="butt" stroke-linejoin="miter" stroke-miterlimit="10" stroke-dasharray="" stroke-dashoffset="0" style="mix-blend-mode: normal"><path d="M234.11195,189.21145v-16.18458h11.13085v16.18458z" fill="#ced2d1"/><path d="M229.37998,183.5296v-5.33746h4.78573v5.33746z" fill="#ced2d1"/><path d="M243.6834,192.48279v-23.24382h4.57064v23.24382z" fill="#ced2d1"/><path d="M248.14649,183.5296v-6.54272h2.47352v6.54272z" fill="#ced2d1"/><path d="M248.14649,188.52274v-16.18458h0.64527v16.18458z" fill="#0e0e0e"/><path d="M249.7059,183.5296v-6.37053h0.86036v6.37053z" fill="#1d1d1d"/><path d="M232.39123,183.5296v-5.33746h1.66694v5.33746z" fill="#1d1d1d"/><path d="M237.66091,174.40427v-1.37741h4.14047v1.37741z" fill="#1d1d1d"/><path d="M239.67117,176.2982v-2.2383h2.13021v2.2383z" fill="#1d1d1d"/><path d="M238.30618,176.2982v-2.06612h1.39808v2.06612z" fill="#1d1d1d"/><path d="M243.79095,194.09848v-11.53582h4.40933v11.53582z" fill="#191919"/><path d="M243.73718,178.15404v-11.36364h4.40933v11.36364z" fill="#ced2d1"/><path d="M232.44501,183.5296v-5.16528h0.43017v5.16528z" fill="#000000"/></g></g></svg>